<svg width="728" height="727" viewBox="0 0 728 727" fill="none" xmlns="http://www.w3.org/2000/svg">
<path d="M558.816 9.73761L658.767 9.3517C691.994 9.2234 718.999 36.1237 718.999 69.3513V167.447" stroke="white" stroke-opacity="0.2" stroke-width="17" stroke-linecap="round"/>
<path d="M558.816 717.264L658.767 717.65C691.994 717.779 718.999 690.878 718.999 657.651V559.555" stroke="white" stroke-opacity="0.2" stroke-width="17" stroke-linecap="round"/>
<path d="M169.183 717.264L69.2317 717.65C36.0043 717.779 9.00001 690.878 9.00001 657.651V559.555" stroke="white" stroke-opacity="0.2" stroke-width="17" stroke-linecap="round"/>
<path d="M169.183 9.73761L69.2317 9.3517C36.0043 9.2234 9.00001 36.1237 9.00001 69.3513V167.447" stroke="white" stroke-opacity="0.2" stroke-width="17" stroke-linecap="round"/>
<path fill-rule="evenodd" clip-rule="evenodd" d="M363.835 125.055C415.816 125.055 458.345 167.411 458.345 219.17V254.346H269.324V219.17C269.324 167.406 311.853 125.055 363.835 125.055Z" fill="white" fill-opacity="0.2"/>
<path d="M363.835 125.555C415.542 125.555 457.845 167.689 457.845 219.17V253.846H269.824V219.17C269.824 167.684 312.127 125.555 363.835 125.555Z" stroke="white" stroke-opacity="0.2"/>
<path fill-rule="evenodd" clip-rule="evenodd" d="M458.345 475.311V510.487C458.345 562.245 415.816 604.602 363.835 604.602C311.853 604.602 269.324 562.251 269.324 510.487V475.311H458.345Z" fill="white" fill-opacity="0.2"/>
<path d="M457.845 475.811V510.487C457.845 561.967 415.542 604.102 363.835 604.102C312.127 604.102 269.824 561.973 269.824 510.487V475.811H457.845Z" stroke="white" stroke-opacity="0.2"/>
<path fill-rule="evenodd" clip-rule="evenodd" d="M104.753 364.809C104.753 313.035 147.104 270.676 198.868 270.676H355.774V458.942H198.868C147.104 458.942 104.753 416.583 104.753 364.809Z" fill="white" fill-opacity="0.2"/>
<path d="M105.253 364.809C105.253 313.311 147.38 271.176 198.868 271.176H355.274V458.442H198.868C147.38 458.442 105.253 416.307 105.253 364.809Z" stroke="white" stroke-opacity="0.2"/>
<path fill-rule="evenodd" clip-rule="evenodd" d="M623.081 364.809C623.081 313.035 580.73 270.676 528.966 270.676H372.06V458.942H528.966C580.73 458.942 623.081 416.583 623.081 364.809Z" fill="white" fill-opacity="0.2"/>
<path d="M622.581 364.809C622.581 313.311 580.454 271.176 528.966 271.176H372.56V458.442H528.966C580.454 458.442 622.581 416.307 622.581 364.809Z" stroke="white" stroke-opacity="0.2"/>
</svg>
