<svg width="35" height="34" viewBox="0 0 35 34" fill="none" xmlns="http://www.w3.org/2000/svg">
<rect x="0.543457" y="0.043457" width="33.913" height="33.913" rx="16.9565" fill="#D9D9D9"/>
<rect x="0.543457" y="0.043457" width="33.913" height="33.913" rx="16.9565" fill="url(#paint0_linear_4001_1681)"/>
<path d="M17.2707 11.6741L17.6787 10.9843C17.9305 10.5532 18.4922 10.4078 18.933 10.6542C19.3737 10.9005 19.5223 11.4499 19.2705 11.881L15.3389 18.5374H18.1824C19.1042 18.5374 19.6205 19.5967 19.2201 20.3308H10.8835C10.3747 20.3308 9.96667 19.9317 9.96667 19.4341C9.96667 18.9364 10.3747 18.5374 10.8835 18.5374H13.2207L16.2129 13.465L15.2784 11.8785C15.0266 11.4474 15.1752 10.903 15.6159 10.6517C16.0567 10.4054 16.6133 10.5507 16.8702 10.9818L17.2707 11.6741ZM13.7345 21.2546L12.853 22.7499C12.6012 23.181 12.0395 23.3264 11.5987 23.08C11.158 22.8337 11.0094 22.2843 11.2612 21.8532L11.9161 20.7446C12.6566 20.5205 13.2585 20.6929 13.7345 21.2546ZM21.3256 18.5423H23.7108C24.2195 18.5423 24.6276 18.9414 24.6276 19.439C24.6276 19.9366 24.2195 20.3357 23.7108 20.3357H22.386L23.2801 21.8532C23.532 22.2843 23.3834 22.8288 22.9426 23.08C22.5018 23.3264 21.9452 23.181 21.6883 22.7499C20.1822 20.1953 19.0513 18.2836 18.3008 17.01C17.5326 15.7142 18.0817 14.4135 18.6232 13.9725C19.2251 14.9825 20.1243 16.5074 21.3256 18.5423Z" fill="white"/>
<defs>
<linearGradient id="paint0_linear_4001_1681" x1="17.4979" y1="0.043457" x2="17.4979" y2="33.9565" gradientUnits="userSpaceOnUse">
<stop stop-color="#0ED4FC"/>
<stop offset="1" stop-color="#0C57EF"/>
</linearGradient>
</defs>
</svg>
