<svg width="145" height="146" viewBox="0 0 145 146" fill="none" xmlns="http://www.w3.org/2000/svg">
<path d="M132.855 78.6904L133.089 75.6648L133.858 75.7094L133.656 78.3143C133.615 78.8457 133.656 79.3042 133.78 79.6899C133.904 80.0755 134.108 80.3759 134.393 80.591C134.683 80.8113 135.049 80.9386 135.492 80.9729C135.945 81.0078 136.326 80.9408 136.636 80.7718C136.951 80.6031 137.195 80.3324 137.367 79.9597C137.539 79.587 137.648 79.1104 137.693 78.5299L137.867 76.2718L127.905 75.5017L127.975 74.594L138.72 75.4245L138.475 78.5903C138.433 79.1364 138.341 79.6217 138.199 80.0463C138.057 80.4709 137.859 80.8267 137.604 81.1139C137.35 81.401 137.039 81.6096 136.673 81.7396C136.311 81.875 135.886 81.9238 135.399 81.8862C134.957 81.852 134.563 81.7226 134.219 81.498C133.88 81.2739 133.612 80.9735 133.413 80.5968C133.219 80.2255 133.114 79.7893 133.098 79.2883L132.855 78.6904ZM127.695 78.2247L127.946 74.9777L128.685 75.5025L128.469 78.2846C128.428 78.8159 128.482 79.2754 128.63 79.6629C128.783 80.0558 129.019 80.3661 129.338 80.5936C129.657 80.8212 130.047 80.9528 130.51 80.9886C130.918 81.0202 131.291 80.9599 131.63 80.8079C131.968 80.6559 132.245 80.4051 132.46 80.0555C132.68 79.7063 132.812 79.2513 132.855 78.6904L133.001 76.8086L133.767 76.8827L133.561 79.5467L133.275 79.688C133.189 80.1663 133.006 80.5753 132.728 80.9151C132.454 81.2601 132.119 81.5164 131.725 81.6839C131.331 81.8563 130.908 81.925 130.455 81.89C129.806 81.8398 129.266 81.6521 128.836 81.3269C128.41 81.0069 128.099 80.5795 127.903 80.0447C127.711 79.5152 127.642 78.9085 127.695 78.2247Z" fill="#fff"/>
<path d="M134.797 85.8302L131.16 87.2094L133.824 90.0493L133.588 91.0735L130.376 87.5452L125.76 89.3822L125.993 88.3725L129.802 86.9039L127.019 83.9226L127.251 82.9128L130.597 86.5859L135.03 84.8205L134.797 85.8302Z" fill="#fff"/>
<path d="M129.202 91.5468L129.43 91.6334C129.974 91.84 130.447 92.1093 130.849 92.4412C131.251 92.7731 131.565 93.1483 131.792 93.5668C132.016 93.9898 132.143 94.4417 132.172 94.9223C132.205 95.4046 132.126 95.8972 131.935 96.4001C131.743 96.9076 131.474 97.3307 131.129 97.6695C130.789 98.01 130.394 98.264 129.945 98.4315C129.497 98.5989 129.012 98.6735 128.491 98.6553C127.97 98.6371 127.437 98.5247 126.893 98.3181L126.665 98.2314C126.12 98.0248 125.647 97.7555 125.245 97.4236C124.848 97.0934 124.537 96.7168 124.313 96.2938C124.086 95.8753 123.956 95.4249 123.923 94.9426C123.894 94.4619 123.975 93.9702 124.166 93.4674C124.359 92.9599 124.625 92.5359 124.965 92.1954C125.31 91.8566 125.707 91.6034 126.156 91.436C126.605 91.2686 127.087 91.1931 127.604 91.2095C128.125 91.2278 128.657 91.3402 129.202 91.5468ZM129.117 92.4569L128.889 92.3702C128.478 92.2144 128.068 92.1218 127.657 92.0925C127.25 92.0649 126.864 92.1029 126.497 92.2066C126.135 92.312 125.814 92.4909 125.533 92.7434C125.253 92.9958 125.035 93.3273 124.879 93.7379C124.725 94.1438 124.67 94.532 124.714 94.9024C124.756 95.2773 124.878 95.6243 125.079 95.9433C125.284 96.2641 125.549 96.5467 125.873 96.7911C126.2 97.0419 126.569 97.2452 126.98 97.401L127.208 97.4877C127.614 97.6417 128.02 97.7326 128.427 97.7602C128.832 97.7924 129.218 97.7543 129.586 97.6461C129.953 97.5424 130.279 97.3652 130.564 97.1146C130.849 96.8639 131.069 96.5356 131.223 96.1296C131.377 95.7236 131.43 95.3323 131.383 94.9556C131.334 94.5834 131.208 94.2347 131.004 93.9093C130.799 93.5886 130.535 93.3037 130.213 93.0546C129.888 92.8102 129.523 92.611 129.117 92.4569Z" fill="#fff"/>
<path d="M128.652 103.475L128.216 104.24L125.775 102.693C125.124 102.281 124.586 101.875 124.162 101.473C123.739 101.079 123.403 100.697 123.154 100.327C122.909 99.9598 122.728 99.6061 122.609 99.2658C122.493 98.9323 122.416 98.6153 122.377 98.3148L122.615 97.897L123.264 98.2842L123.16 98.4807C123.239 98.6906 123.335 98.9158 123.448 99.1563C123.562 99.4035 123.723 99.6688 123.931 99.9521C124.138 100.235 124.424 100.541 124.788 100.868C125.153 101.195 125.628 101.547 126.215 101.922L128.652 103.475ZM128.509 103.726L126.311 107.576L119.356 103.605L119.793 102.84L126.028 106.4L127.789 103.315L128.509 103.726ZM123.446 97.9794L119.604 104.709L116.898 103.164L117.338 102.392L119.382 103.56L122.366 98.3341L120.322 97.1669L120.74 96.4342L123.446 97.9794Z" fill="#fff"/>
<path d="M118.253 107.772L120.696 115.254L120.142 115.948L113.878 110.959L114.432 110.264L119.572 114.359L117.129 106.877L117.674 106.194L123.938 111.184L123.393 111.867L118.253 107.772Z" fill="#fff"/>
<path d="M115.9 120.271L110.383 114.466L111.021 113.86L116.538 119.665L115.9 120.271ZM113.786 122.28L113.266 121.733L118.057 117.18L118.577 117.727L113.786 122.28Z" fill="#fff"/>
<path d="M106.029 126.178L101.112 117.993L101.874 117.536L107.583 127.04L106.872 127.467L106.029 126.178ZM100.027 126.995L99.9465 126.861C99.6391 126.35 99.4162 125.845 99.278 125.346C99.1398 124.848 99.0888 124.375 99.125 123.927C99.1594 123.486 99.2887 123.083 99.5128 122.719C99.7368 122.354 100.056 122.047 100.471 121.798C100.881 121.551 101.285 121.395 101.683 121.329C102.08 121.263 102.465 121.276 102.838 121.369C103.208 121.468 103.558 121.633 103.885 121.862C104.211 122.098 104.515 122.388 104.796 122.731L105.852 124.488C106.037 124.941 106.16 125.38 106.219 125.805C106.279 126.229 106.27 126.632 106.193 127.012C106.112 127.394 105.954 127.745 105.72 128.064C105.486 128.383 105.168 128.664 104.766 128.905C104.347 129.157 103.925 129.298 103.501 129.328C103.074 129.366 102.656 129.298 102.246 129.123C101.835 128.956 101.443 128.691 101.069 128.328C100.694 127.972 100.347 127.528 100.027 126.995ZM100.708 126.404L100.788 126.537C101.029 126.939 101.295 127.286 101.586 127.578C101.872 127.872 102.176 128.095 102.497 128.247C102.817 128.406 103.149 128.48 103.494 128.469C103.834 128.46 104.18 128.351 104.531 128.14C104.895 127.921 105.169 127.673 105.353 127.396C105.536 127.125 105.652 126.839 105.702 126.539C105.754 126.242 105.759 125.949 105.716 125.658C105.674 125.367 105.609 125.095 105.52 124.843L104.305 122.819C104.031 122.546 103.723 122.325 103.38 122.157C103.04 121.993 102.672 121.917 102.277 121.93C101.88 121.95 101.466 122.089 101.035 122.348C100.688 122.557 100.431 122.809 100.263 123.105C100.096 123.402 100.007 123.728 99.9971 124.085C99.9829 124.445 100.039 124.82 100.164 125.211C100.285 125.605 100.466 126.002 100.708 126.404Z" fill="#fff"/>
<path d="M93.4357 125.352C93.919 125.151 94.4003 125.056 94.8796 125.066C95.3545 125.078 95.8093 125.183 96.2443 125.382C96.6746 125.583 97.0635 125.871 97.4107 126.245C97.7553 126.625 98.0371 127.08 98.2562 127.609L98.378 127.903C98.614 128.473 98.743 129.023 98.765 129.553C98.7871 130.084 98.7179 130.574 98.5575 131.025C98.3971 131.476 98.1636 131.867 97.857 132.197C97.5477 132.533 97.1834 132.788 96.764 132.962C96.2944 133.156 95.8424 133.245 95.4078 133.227C94.9751 133.214 94.5724 133.106 94.1998 132.902C93.8244 132.705 93.487 132.426 93.1875 132.064C92.8899 131.706 92.6383 131.279 92.4324 130.782L92.2257 130.283L97.8261 127.963L98.115 128.661L93.3283 130.643L93.368 130.739C93.5489 131.15 93.7937 131.503 94.1025 131.797C94.4085 132.097 94.7637 132.297 95.1681 132.397C95.5725 132.497 96.0072 132.45 96.4722 132.257C96.8187 132.114 97.1076 131.909 97.339 131.642C97.5657 131.377 97.7273 131.065 97.8237 130.704C97.9175 130.35 97.9439 129.963 97.9031 129.542C97.8595 129.127 97.7443 128.694 97.5574 128.243L97.4356 127.949C97.2657 127.539 97.0478 127.18 96.782 126.874C96.5135 126.574 96.2119 126.335 95.8771 126.159C95.5378 125.984 95.1819 125.886 94.8096 125.864C94.4373 125.842 94.0643 125.908 93.6904 126.063C93.2528 126.245 92.8983 126.485 92.6271 126.784C92.3577 127.088 92.1612 127.471 92.0377 127.934L91.3605 127.749C91.4219 127.446 91.5319 127.144 91.6904 126.844C91.8444 126.545 92.0632 126.267 92.3469 126.011C92.6306 125.755 92.9935 125.535 93.4357 125.352Z" fill="#fff"/>
<path d="M85.6968 127.943C86.2042 127.816 86.6942 127.792 87.167 127.872C87.635 127.953 88.0695 128.124 88.4706 128.384C88.8669 128.646 89.2094 128.988 89.4981 129.409C89.7832 129.836 89.9954 130.327 90.1346 130.882L90.212 131.191C90.362 131.789 90.409 132.352 90.3531 132.88C90.2972 133.408 90.1569 133.883 89.9322 134.305C89.7075 134.728 89.4194 135.08 89.0677 135.362C88.7125 135.649 88.3147 135.848 87.8743 135.958C87.3814 136.082 86.9212 136.103 86.4939 136.022C86.0678 135.946 85.6854 135.78 85.3465 135.524C85.0041 135.274 84.7113 134.948 84.468 134.546C84.226 134.149 84.0396 133.689 83.9088 133.168L83.7774 132.644L89.6573 131.17L89.8409 131.902L84.8154 133.162L84.8406 133.262C84.9593 133.695 85.1499 134.08 85.4122 134.416C85.6709 134.758 85.993 135.008 86.3785 135.166C86.7639 135.324 87.2008 135.341 87.6889 135.219C88.0527 135.128 88.3685 134.967 88.6364 134.737C88.8996 134.508 89.1052 134.223 89.2534 133.88C89.398 133.544 89.4809 133.165 89.5021 132.742C89.5198 132.326 89.4693 131.881 89.3505 131.407L89.2731 131.098C89.1651 130.667 89.002 130.281 88.784 129.939C88.5624 129.603 88.2989 129.323 87.9936 129.099C87.6835 128.877 87.3459 128.727 86.9808 128.651C86.6158 128.575 86.237 128.586 85.8445 128.684C85.3851 128.799 84.9992 128.985 84.6871 129.241C84.3761 129.502 84.1256 129.853 83.9356 130.292L83.2928 130.011C83.3979 129.72 83.5509 129.437 83.7518 129.163C83.9478 128.89 84.205 128.647 84.5232 128.435C84.8414 128.223 85.2326 128.059 85.6968 127.943Z" fill="#fff"/>
<path d="M77.8657 130.115C77.4925 130.153 77.1509 130.256 76.8407 130.427C76.526 130.602 76.277 130.838 76.0936 131.134C75.9057 131.436 75.8173 131.789 75.8283 132.195L74.9888 132.279C74.9624 131.771 75.0717 131.304 75.3164 130.877C75.5568 130.456 75.8939 130.11 76.3277 129.838C76.7572 129.572 77.2444 129.411 77.7894 129.357C78.3441 129.301 78.8452 129.352 79.2926 129.51C79.7351 129.669 80.1167 129.914 80.4375 130.243C80.7588 130.578 81.0173 130.978 81.213 131.445C81.4042 131.916 81.528 132.432 81.5843 132.992L81.6154 133.301C81.6717 133.861 81.6529 134.388 81.5589 134.884C81.4605 135.385 81.2869 135.829 81.0382 136.216C80.79 136.608 80.4649 136.926 80.063 137.169C79.661 137.413 79.1826 137.563 78.6278 137.619C78.0583 137.676 77.5361 137.612 77.0612 137.427C76.5814 137.242 76.1853 136.952 75.8728 136.557C75.5554 136.162 75.3553 135.676 75.2725 135.1L76.112 135.015C76.1795 135.44 76.3295 135.797 76.5619 136.086C76.7943 136.375 77.0833 136.586 77.4291 136.72C77.7748 136.854 78.1489 136.901 78.5515 136.86C79.0032 136.815 79.3797 136.688 79.6811 136.479C79.9829 136.275 80.2192 136.01 80.3898 135.686C80.5561 135.367 80.6664 135.008 80.7206 134.611C80.7754 134.219 80.7815 133.812 80.7391 133.389L80.708 133.08C80.665 132.653 80.5798 132.25 80.4524 131.871C80.3206 131.497 80.1415 131.171 79.915 130.891C79.6836 130.612 79.3994 130.4 79.0625 130.255C78.7212 130.116 78.3222 130.069 77.8657 130.115Z" fill="#fff"/>
<path d="M69.1539 137.766L69.4629 129.763L70.3431 129.797L70.0341 137.8L69.1539 137.766ZM66.2399 137.653L66.2691 136.899L72.8737 137.154L72.8445 137.908L66.2399 137.653Z" fill="#fff"/>
<path d="M63.0574 135.708L64.7386 126.309L65.6129 126.466L63.6606 137.38L62.8446 137.234L63.0574 135.708ZM57.9994 132.375L58.0268 132.222C58.1319 131.634 58.2963 131.107 58.5201 130.641C58.7439 130.175 59.0166 129.785 59.3383 129.471C59.6543 129.162 60.0167 128.944 60.4255 128.816C60.8342 128.689 61.2766 128.668 61.7526 128.753C62.2238 128.837 62.6309 128.985 62.974 129.197C63.317 129.409 63.5983 129.672 63.8176 129.987C64.0313 130.306 64.1861 130.659 64.2821 131.047C64.3723 131.439 64.4104 131.857 64.3962 132.301L64.0352 134.319C63.8772 134.782 63.6809 135.193 63.4462 135.552C63.2116 135.911 62.9403 136.209 62.6325 136.444C62.3198 136.679 61.9703 136.84 61.5839 136.926C61.1976 137.012 60.7737 137.014 60.3122 136.931C59.8314 136.845 59.4209 136.674 59.0808 136.418C58.7349 136.166 58.465 135.839 58.271 135.438C58.0712 135.042 57.9501 134.584 57.9076 134.065C57.8593 133.55 57.8899 132.987 57.9994 132.375ZM58.9011 132.378L58.8737 132.531C58.7912 132.993 58.7633 133.429 58.7901 133.84C58.812 134.249 58.894 134.618 59.0362 134.944C59.1726 135.274 59.3742 135.548 59.6409 135.766C59.9028 135.983 60.2354 136.128 60.6385 136.2C61.0562 136.275 61.4258 136.268 61.7473 136.181C62.0631 136.097 62.3385 135.958 62.5736 135.764C62.8079 135.576 63.0048 135.358 63.1643 135.111C63.3238 134.864 63.4533 134.616 63.5528 134.368L63.9685 132.044C63.9422 131.658 63.8553 131.289 63.7078 130.937C63.5594 130.59 63.3321 130.291 63.026 130.041C62.7142 129.794 62.3105 129.627 61.8151 129.538C61.4168 129.467 61.0572 129.488 60.7362 129.601C60.4152 129.714 60.1335 129.902 59.8911 130.164C59.6438 130.426 59.4388 130.745 59.2762 131.122C59.1086 131.498 58.9836 131.917 58.9011 132.378Z" fill="#fff"/>
<path d="M44.942 131.96L45.2365 131.249L48.9838 132.801L51.7538 126.113L52.5675 126.45L49.503 133.849L44.942 131.96Z" fill="#fff"/>
<path d="M45.3117 127.629L45.1898 127.841C44.8992 128.345 44.5581 128.769 44.1665 129.113C43.7748 129.457 43.3544 129.708 42.9053 129.865C42.4518 130.019 41.9856 130.072 41.5065 130.024C41.025 129.98 40.5512 129.824 40.0852 129.556C39.6148 129.285 39.2398 128.952 38.9603 128.558C38.6782 128.167 38.4903 127.737 38.3964 127.268C38.3025 126.798 38.306 126.307 38.4069 125.796C38.5077 125.285 38.7035 124.777 38.9941 124.272L39.116 124.061C39.4066 123.556 39.7477 123.132 40.1393 122.788C40.5285 122.448 40.9498 122.201 41.4032 122.047C41.8524 121.89 42.3177 121.833 42.7992 121.877C43.2783 121.925 43.7508 122.084 44.2169 122.352C44.6873 122.623 45.0635 122.953 45.3455 123.344C45.6251 123.738 45.8118 124.17 45.9057 124.64C45.9996 125.11 45.9973 125.598 45.8989 126.105C45.798 126.617 45.6023 127.124 45.3117 127.629ZM44.4266 127.401L44.5485 127.189C44.7676 126.809 44.9244 126.418 45.0188 126.017C45.1107 125.62 45.1347 125.232 45.0907 124.854C45.0442 124.48 44.9187 124.134 44.7141 123.817C44.5096 123.5 44.217 123.232 43.8364 123.013C43.4602 122.796 43.0857 122.68 42.713 122.665C42.3361 122.647 41.9741 122.712 41.6272 122.859C41.2779 123.011 40.9567 123.228 40.6638 123.509C40.3642 123.792 40.1048 124.123 39.8856 124.504L39.7637 124.716C39.547 125.092 39.3927 125.478 39.3008 125.875C39.2046 126.27 39.1806 126.657 39.2289 127.038C39.2729 127.417 39.396 127.767 39.5981 128.088C39.8002 128.409 40.0894 128.678 40.4656 128.895C40.8419 129.112 41.2198 129.227 41.5992 129.24C41.9743 129.252 42.3387 129.182 42.6923 129.033C43.0417 128.881 43.365 128.666 43.6622 128.387C43.955 128.106 44.2098 127.777 44.4266 127.401Z" fill="#fff"/>
<path d="M37.078 118.48C36.7839 118.247 36.4662 118.084 36.1251 117.99C35.777 117.898 35.434 117.894 35.0962 117.979C34.7515 118.065 34.442 118.257 34.1678 118.557L33.506 118.033C33.8405 117.65 34.244 117.39 34.7164 117.254C35.1818 117.119 35.6649 117.105 36.1657 117.211C36.6595 117.319 37.1212 117.542 37.5509 117.882C37.9882 118.228 38.3126 118.613 38.5238 119.038C38.7312 119.46 38.8355 119.901 38.8366 120.361C38.8346 120.825 38.7417 121.292 38.5579 121.763C38.3672 122.235 38.0974 122.692 37.7485 123.133L37.5557 123.377C37.2068 123.818 36.8263 124.184 36.4141 124.475C35.9951 124.766 35.5616 124.964 35.1137 125.069C34.6627 125.178 34.208 125.181 33.7497 125.076C33.2913 124.972 32.8435 124.746 32.4061 124.401C31.9571 124.046 31.6265 123.636 31.4142 123.173C31.1981 122.706 31.1152 122.222 31.1655 121.721C31.2119 121.217 31.406 120.729 31.7478 120.257L32.4097 120.78C32.1628 121.132 32.0223 121.493 31.9882 121.862C31.954 122.232 32.0146 122.585 32.1699 122.921C32.3252 123.258 32.5615 123.552 32.8789 123.803C33.235 124.084 33.5939 124.255 33.9557 124.314C34.3144 124.378 34.668 124.352 35.0164 124.238C35.3579 124.124 35.6863 123.943 36.0016 123.696C36.3139 123.452 36.6016 123.164 36.8648 122.831L37.0576 122.587C37.3239 122.25 37.543 121.901 37.7151 121.54C37.8803 121.18 37.9788 120.821 38.0107 120.463C38.0386 120.101 37.9819 119.751 37.8405 119.413C37.6922 119.075 37.438 118.764 37.078 118.48Z" fill="#fff"/>
<path d="M20.5899 112.185L21.1902 111.703L24.1228 115.357L23.5224 115.839L20.5899 112.185ZM23.3973 115.683L29.643 110.67L30.1943 111.357L23.9486 116.37L23.3973 115.683ZM20.1359 111.619L26.3816 106.607L26.9375 107.299L20.6918 112.312L20.1359 111.619Z" fill="#fff"/>
<path d="M22.0895 107.315L21.8787 107.438C21.3763 107.732 20.8699 107.932 20.3593 108.037C19.8487 108.141 19.3595 108.15 18.8916 108.064C18.4211 107.974 17.9898 107.789 17.5975 107.51C17.201 107.233 16.8668 106.863 16.5949 106.399C16.3206 105.93 16.1597 105.456 16.1123 104.974C16.0606 104.496 16.1104 104.029 16.2616 103.575C16.4128 103.12 16.6589 102.696 16.9998 102.302C17.3408 101.907 17.7625 101.563 18.2649 101.269L18.4756 101.145C18.978 100.851 19.4845 100.652 19.995 100.547C20.5013 100.445 20.9897 100.439 21.4601 100.529C21.9281 100.616 22.3603 100.797 22.7568 101.074C23.1491 101.353 23.4812 101.724 23.753 102.189C24.0274 102.657 24.1904 103.13 24.242 103.609C24.2894 104.09 24.2375 104.558 24.0864 105.013C23.9352 105.467 23.6912 105.89 23.3545 106.282C23.0136 106.676 22.5919 107.02 22.0895 107.315ZM21.4335 106.678L21.6443 106.555C22.0232 106.333 22.3531 106.071 22.6338 105.769C22.9103 105.47 23.1232 105.145 23.2724 104.795C23.4174 104.447 23.4796 104.084 23.459 103.707C23.4385 103.331 23.3172 102.953 23.0952 102.574C22.8757 102.199 22.6079 101.913 22.2918 101.715C21.9732 101.513 21.6267 101.39 21.2522 101.346C20.8735 101.305 20.4873 101.334 20.0936 101.433C19.6932 101.53 19.3035 101.69 18.9245 101.912L18.7138 102.035C18.3391 102.255 18.0135 102.514 17.737 102.813C17.4581 103.108 17.2452 103.433 17.0984 103.788C16.9492 104.138 16.8827 104.503 16.899 104.882C16.9154 105.262 17.0333 105.639 17.2527 106.013C17.4722 106.388 17.7434 106.675 18.0663 106.875C18.3866 107.071 18.7374 107.191 19.1186 107.236C19.4973 107.278 19.8848 107.251 20.281 107.156C20.6747 107.057 21.0589 106.898 21.4335 106.678Z" fill="#fff"/>
<circle cx="12.2094" cy="87.1241" r="1" transform="rotate(-21.145 12.2094 87.1241)" fill="#fff"/>
<path d="M11.0321 69.3091L10.8985 72.3408L10.1288 72.3217L10.2439 69.7115C10.2674 69.1791 10.211 68.7222 10.0747 68.3408C9.93837 67.9595 9.72411 67.666 9.43189 67.4605C9.13495 67.2498 8.76465 67.1347 8.32099 67.1152C7.86748 67.0952 7.48859 67.1748 7.18435 67.354C6.87517 67.533 6.64062 67.8116 6.48071 68.1898C6.3208 68.568 6.22802 69.0479 6.20237 69.6296L6.1026 71.8923L16.0849 72.3324L16.0448 73.2419L5.2787 72.7672L5.41857 69.595C5.4427 69.0479 5.51856 68.5598 5.64613 68.1307C5.77371 67.7017 5.96008 67.3395 6.20525 67.0441C6.45041 66.7487 6.75394 66.5299 7.11582 66.3878C7.47299 66.2406 7.89559 66.1777 8.38361 66.1993C8.82727 66.2188 9.22468 66.3351 9.57584 66.5482C9.92207 66.761 10.2006 67.0524 10.4115 67.4222C10.6177 67.7869 10.7369 68.2194 10.7692 68.7197L11.0321 69.3091ZM16.2052 69.6039L16.0617 72.8574L15.3059 72.3574L15.4288 69.5697C15.4523 69.0373 15.3835 68.5799 15.2226 68.1974C15.057 67.8098 14.811 67.5075 14.4847 67.2907C14.1584 67.0738 13.7635 66.9551 13.3002 66.9347C12.891 66.9166 12.5199 66.9892 12.1867 67.1523C11.8535 67.3154 11.5852 67.5752 11.3818 67.9317C11.1735 68.288 11.0569 68.7472 11.0321 69.3091L10.949 71.1947L10.1806 71.146L10.2983 68.4767L10.5791 68.326C10.6497 67.8451 10.8186 67.4303 11.0859 67.0815C11.3485 66.7276 11.6739 66.4604 12.0622 66.28C12.4506 66.0946 12.8716 66.0119 13.3252 66.0319C13.9759 66.0606 14.5216 66.2304 14.9622 66.5412C15.3982 66.8469 15.7231 67.2638 15.9369 67.7918C16.146 68.3147 16.2354 68.9187 16.2052 69.6039Z" fill="#fff"/>
<path d="M8.88079 62.0704L12.4719 60.5748L9.71736 57.8221L9.92043 56.7909L13.2445 60.214L17.7994 58.2293L17.5992 59.246L13.8386 60.8364L16.7168 63.7267L16.5166 64.7433L13.0543 61.1799L8.68059 63.0871L8.88079 62.0704Z" fill="#fff"/>
<path d="M14.3267 56.0152L14.0959 55.9354C13.5456 55.7451 13.0647 55.4901 12.6532 55.1703C12.2416 54.8505 11.9164 54.4849 11.6776 54.0734C11.4403 53.6572 11.3002 53.2094 11.2571 52.7298C11.2094 52.2487 11.2735 51.7539 11.4492 51.2456C11.6266 50.7326 11.8826 50.3017 12.2173 49.9527C12.5473 49.6022 12.9342 49.3365 13.3778 49.1558C13.8214 48.975 14.3038 48.8859 14.825 48.8886C15.3461 48.8913 15.8819 48.9878 16.4321 49.178L16.663 49.2578C17.2133 49.4481 17.6942 49.7031 18.1057 50.0229C18.5126 50.3411 18.8346 50.7082 19.0719 51.1244C19.3107 51.5359 19.454 51.9822 19.5017 52.4634C19.5448 52.9429 19.4784 53.4368 19.3027 53.9452C19.1253 54.4581 18.8716 54.8899 18.5416 55.2405C18.2069 55.5894 17.8177 55.8543 17.3741 56.035C16.9305 56.2158 16.4504 56.3056 15.9339 56.3046C15.4127 56.3019 14.877 56.2054 14.3267 56.0152ZM14.3837 55.1029L14.6145 55.1828C15.0296 55.3263 15.443 55.4065 15.8548 55.4236C16.2619 55.439 16.6471 55.3895 17.0104 55.2749C17.369 55.1588 17.6848 54.9703 17.9576 54.7097C18.2305 54.449 18.4387 54.1111 18.5822 53.6961C18.724 53.2857 18.7674 52.896 18.7122 52.5272C18.6586 52.1536 18.5267 51.8104 18.3164 51.4975C18.1014 51.183 17.8282 50.9085 17.4969 50.6739C17.1625 50.4329 16.7878 50.2407 16.3728 50.0972L16.1419 50.0174C15.7315 49.8756 15.3228 49.7969 14.9157 49.7814C14.5102 49.7613 14.125 49.8109 13.7601 49.9301C13.3968 50.0446 13.0763 50.2315 12.7988 50.4905C12.5213 50.7496 12.3116 51.0843 12.1697 51.4947C12.0278 51.9051 11.986 52.2979 12.0443 52.673C12.1041 53.0435 12.2407 53.3884 12.4541 53.7075C12.669 54.022 12.9414 54.2989 13.2711 54.5382C13.6024 54.7728 13.9733 54.9611 14.3837 55.1029Z" fill="#fff"/>
<path d="M14.4878 44.1155L14.9012 43.3378L17.3875 44.8103C18.051 45.2021 18.6008 45.5922 19.037 45.9805C19.4712 46.3622 19.8184 46.734 20.0787 47.0959C20.3346 47.4554 20.5268 47.8035 20.6552 48.14C20.7816 48.4698 20.8687 48.7844 20.9164 49.0836L20.6906 49.5084L20.0309 49.1409L20.1286 48.9414C20.0433 48.734 19.9407 48.5118 19.8208 48.2748C19.6988 48.0312 19.5298 47.7709 19.3138 47.494C19.0978 47.2171 18.8027 46.9206 18.4288 46.6044C18.0548 46.2882 17.5687 45.9516 16.9706 45.5946L14.4878 44.1155ZM14.6233 43.8606L16.7043 39.9459L23.7756 43.7049L23.3622 44.4826L17.0228 41.1127L15.3552 44.2497L14.6233 43.8606ZM19.8577 49.4512L23.4951 42.6085L26.2465 44.0711L25.8296 44.8554L23.7513 43.7506L20.9269 49.0639L23.0051 50.1687L22.6091 50.9138L19.8577 49.4512Z" fill="#fff"/>
<path d="M24.6167 39.6805L21.9426 32.2782L22.4742 31.5666L28.8899 36.3596L28.3584 37.0711L23.0929 33.1375L25.767 40.5399L25.2443 41.2396L18.8285 36.4466L19.3512 35.7469L24.6167 39.6805Z" fill="#fff"/>
<path d="M26.6299 27.0317L32.316 32.6711L31.6957 33.2965L26.0097 27.657L26.6299 27.0317ZM28.6835 24.9612L29.2195 25.4928L24.5651 30.1856L24.0291 29.654L28.6835 24.9612Z" fill="#fff"/>
<path d="M36.2753 20.833L41.4372 28.8652L40.69 29.3454L34.6958 20.018L35.3932 19.5699L36.2753 20.833ZM42.2501 19.835L42.3342 19.9658C42.657 20.4681 42.895 20.9662 43.0482 21.4601C43.2014 21.9541 43.2667 22.4253 43.2441 22.8739C43.223 23.3157 43.1059 23.7222 42.893 24.0937C42.6801 24.4652 42.3702 24.7816 41.9634 25.043C41.5608 25.3018 41.1617 25.4703 40.7662 25.5485C40.3707 25.6267 39.9854 25.625 39.6104 25.5434C39.2368 25.455 38.8829 25.3012 38.5485 25.0821C38.2156 24.8561 37.9034 24.5758 37.612 24.241L36.5036 22.5163C36.3045 22.0694 36.1687 21.6346 36.0965 21.2119C36.0242 20.7891 36.0207 20.3866 36.086 20.0045C36.1554 19.6197 36.3024 19.2642 36.5268 18.9381C36.7513 18.612 37.0607 18.3223 37.4551 18.0688C37.866 17.8047 38.2833 17.6509 38.707 17.6074C39.1322 17.5571 39.5521 17.6127 39.9669 17.7744C40.3831 17.9292 40.7833 18.1823 41.1675 18.5337C41.5531 18.8782 41.914 19.312 42.2501 19.835ZM41.587 20.446L41.503 20.3152C41.2495 19.9209 40.9733 19.5823 40.6742 19.2994C40.3792 19.0138 40.0687 18.7999 39.7426 18.6575C39.418 18.5084 39.0837 18.4446 38.7398 18.4662C38.4 18.4851 38.0579 18.6052 37.7133 18.8267C37.3564 19.0561 37.0899 19.3123 36.9141 19.5955C36.7397 19.8717 36.6322 20.1608 36.5915 20.4626C36.5482 20.7602 36.5522 21.0539 36.6034 21.3436C36.6547 21.6332 36.7282 21.9027 36.8239 22.1521L38.1004 24.1384C38.382 24.4032 38.6966 24.6144 39.0444 24.7722C39.3895 24.9258 39.7593 24.9902 40.1539 24.9654C40.55 24.9337 40.9598 24.7818 41.3832 24.5097C41.7235 24.291 41.9729 24.031 42.1313 23.7298C42.2896 23.4286 42.3684 23.0994 42.3676 22.7421C42.3709 22.3822 42.3039 22.0088 42.1667 21.6219C42.0337 21.2323 41.8404 20.8403 41.587 20.446Z" fill="#fff"/>
<path d="M48.8811 21.2519C48.4046 21.4677 47.9267 21.5786 47.4473 21.5845C46.9723 21.5883 46.5143 21.4979 46.0731 21.3131C45.6364 21.1263 45.2384 20.8516 44.8791 20.4889C44.5222 20.1196 44.2257 19.6743 43.9896 19.1529L43.8583 18.863C43.6038 18.3012 43.4569 17.7556 43.4176 17.2263C43.3782 16.697 43.4314 16.2044 43.577 15.7484C43.7225 15.2925 43.9432 14.8946 44.2389 14.5548C44.537 14.2085 44.8929 13.9417 45.3064 13.7544C45.7693 13.5447 46.2183 13.4416 46.6532 13.445C47.0861 13.444 47.4921 13.5391 47.8712 13.7303C48.2528 13.9149 48.5991 14.1833 48.9102 14.5353C49.2193 14.8828 49.4848 15.3016 49.7067 15.7915L49.9296 16.2837L44.4078 18.7847L44.0963 18.097L48.8158 15.9594L48.7731 15.865C48.5788 15.46 48.3226 15.1156 48.0045 14.8318C47.6888 14.5415 47.3272 14.3531 46.9198 14.2668C46.5123 14.1805 46.0794 14.2412 45.6209 14.4489C45.2793 14.6036 44.9973 14.818 44.7748 15.0921C44.5567 15.3642 44.4054 15.6819 44.3208 16.0453C44.2387 16.4021 44.2249 16.7902 44.2794 17.2097C44.3365 17.6226 44.4658 18.0516 44.6673 18.4966L44.7986 18.7865C44.9819 19.191 45.2113 19.5421 45.487 19.8397C45.7651 20.1309 46.0743 20.3592 46.4147 20.5246C46.7595 20.688 47.1184 20.7746 47.4912 20.7845C47.864 20.7944 48.2347 20.7159 48.6033 20.5489C49.0348 20.3535 49.3812 20.1018 49.6426 19.7938C49.9019 19.4814 50.0858 19.092 50.1942 18.6258L50.877 18.7878C50.8255 19.0928 50.7255 19.3981 50.5768 19.7038C50.4327 20.0074 50.223 20.292 49.9478 20.5575C49.6727 20.8229 49.3171 21.0544 48.8811 21.2519Z" fill="#fff"/>
<path d="M56.6331 18.365C56.1302 18.5084 55.6411 18.5478 55.166 18.4831C54.6957 18.4171 54.2559 18.2602 53.8467 18.0126C53.4422 17.7636 53.0889 17.4333 52.7869 17.0217C52.4882 16.6041 52.2604 16.12 52.1035 15.5695L52.0162 15.2635C51.8471 14.6703 51.7821 14.1091 51.821 13.5797C51.8599 13.0504 51.9849 12.571 52.196 12.1414C52.407 11.7118 52.6838 11.3507 53.0262 11.0581C53.3721 10.7594 53.7633 10.5478 54.1998 10.4234C54.6886 10.284 55.1478 10.248 55.5775 10.3154C56.0058 10.378 56.3934 10.5317 56.7403 10.7766C57.0906 11.0154 57.3937 11.3318 57.6497 11.7257C57.9043 12.1149 58.1053 12.5681 58.2528 13.0854L58.4009 13.605L52.5713 15.2668L52.3644 14.5408L57.3469 13.1204L57.3185 13.0208C57.1859 12.5916 56.9831 12.2133 56.7102 11.8858C56.4406 11.5522 56.1107 11.3127 55.7203 11.1674C55.33 11.0222 54.8929 11.0185 54.4088 11.1565C54.0482 11.2593 53.7377 11.4299 53.4773 11.6684C53.2216 11.9054 53.0252 12.1974 52.8881 12.5444C52.7544 12.8852 52.6837 13.2671 52.676 13.69C52.6716 14.1069 52.7365 14.5502 52.8704 15.02L52.9576 15.326C53.0794 15.7531 53.2547 16.1341 53.4836 16.4691C53.7159 16.7979 53.9882 17.0692 54.3005 17.2829C54.6176 17.4952 54.9598 17.6337 55.3271 17.6983C55.6944 17.7629 56.0727 17.7398 56.4618 17.6288C56.9173 17.499 57.297 17.3009 57.6008 17.0347C57.9032 16.7638 58.1424 16.4057 58.3182 15.9605L58.9697 16.2212C58.874 16.5153 58.7301 16.8026 58.5381 17.0831C58.3509 17.3622 58.1017 17.6128 57.7904 17.835C57.4792 18.0571 57.0934 18.2338 56.6331 18.365Z" fill="#fff"/>
<path d="M64.2507 15.9538C64.6225 15.9046 64.9607 15.7902 65.2655 15.6105C65.5745 15.4253 65.816 15.1819 65.9902 14.8801C66.1685 14.5728 66.2459 14.2167 66.2222 13.8117L67.0587 13.7011C67.1008 14.2082 67.0063 14.6786 66.7749 15.1123C66.5478 15.5405 66.2217 15.8972 65.7965 16.1824C65.3756 16.462 64.8936 16.6377 64.3506 16.7095C63.7979 16.7826 63.2954 16.747 62.8433 16.6027C62.3961 16.4578 62.0071 16.2255 61.6761 15.9059C61.3445 15.5815 61.0737 15.1892 60.8635 14.7292C60.6577 14.2637 60.5178 13.7521 60.4441 13.1945L60.4034 12.8863C60.3296 12.3286 60.332 11.8007 60.4105 11.3026C60.4932 10.7989 60.6528 10.3497 60.8893 9.95513C61.1252 9.55562 61.4402 9.22778 61.8344 8.9716C62.2285 8.71541 62.702 8.55078 63.2548 8.47769C63.8222 8.40267 64.3462 8.45036 64.8266 8.62077C65.3119 8.79053 65.7169 9.06797 66.0416 9.45309C66.3712 9.83756 66.5863 10.3168 66.6871 10.8908L65.8506 11.0014C65.7699 10.579 65.6089 10.227 65.3676 9.94537C65.1263 9.6637 64.8307 9.46138 64.481 9.33839C64.1313 9.21541 63.7558 9.18043 63.3547 9.23347C62.9047 9.29297 62.5323 9.43179 62.2376 9.64994C61.9423 9.86319 61.7144 10.1347 61.5539 10.4645C61.3977 10.7888 61.2987 11.1503 61.2569 11.549C61.2144 11.9429 61.2209 12.3501 61.2765 12.7708L61.3173 13.079C61.3736 13.5046 61.4713 13.9048 61.6104 14.2796C61.7538 14.6489 61.9431 14.9698 62.1782 15.2423C62.4182 15.5142 62.7088 15.7171 63.0501 15.8512C63.3956 15.9797 63.7958 16.0139 64.2507 15.9538Z" fill="#fff"/>
<path d="M72.2369 8.01412L72.1915 16.0224L71.3107 16.0174L71.3562 8.00912L72.2369 8.01412ZM75.1531 8.03067L75.1488 8.78561L68.5394 8.74809L68.5437 7.99315L75.1531 8.03067Z" fill="#fff"/>
<path d="M78.5621 9.83824L77.1895 19.287L76.3105 19.1593L77.9044 8.18704L78.7248 8.30621L78.5621 9.83824ZM83.7265 13.0042L83.7041 13.158C83.6183 13.7489 83.4712 14.281 83.2628 14.7543C83.0545 15.2276 82.7946 15.6262 82.4833 15.9499C82.1776 16.2695 81.8226 16.4996 81.4182 16.6404C81.0139 16.7811 80.5724 16.8166 80.0939 16.7471C79.6202 16.6783 79.2085 16.5437 78.8586 16.3433C78.5088 16.1429 78.2191 15.8889 77.9896 15.5813C77.7656 15.2696 77.5993 14.9213 77.4906 14.5366C77.3876 14.1476 77.3359 13.7313 77.3355 13.2875L77.6303 11.2585C77.773 10.7906 77.9558 10.3734 78.1786 10.0069C78.4013 9.64038 78.6627 9.3343 78.9626 9.08868C79.2675 8.84376 79.6115 8.67187 79.9949 8.57298C80.3782 8.4741 80.8018 8.45835 81.2657 8.52574C81.7492 8.59596 82.165 8.75361 82.5134 8.99867C82.8673 9.23955 83.1478 9.55702 83.3548 9.95108C83.5674 10.341 83.7034 10.7945 83.7629 11.3117C83.828 11.8248 83.8159 12.389 83.7265 13.0042ZM82.8252 13.0304L82.8475 12.8765C82.9149 12.4127 82.9285 11.9758 82.8883 11.5661C82.853 11.1571 82.7589 10.7919 82.6062 10.4706C82.459 10.1451 82.2486 9.87764 81.9748 9.66835C81.7059 9.45976 81.3689 9.32603 80.9636 9.26716C80.5436 9.20615 80.1744 9.22482 79.856 9.32316C79.5431 9.41733 79.2724 9.56497 79.0437 9.7661C78.8158 9.96235 78.6261 10.1866 78.4748 10.4389C78.3235 10.6911 78.2022 10.9427 78.1109 11.1937L77.7714 13.5303C77.8103 13.9149 77.9092 14.2808 78.0682 14.628C78.2279 14.9703 78.4648 15.2615 78.779 15.5016C79.0987 15.7375 79.5076 15.8916 80.0057 15.964C80.4061 16.0221 80.7649 15.9895 81.082 15.866C81.3991 15.7426 81.6745 15.5457 81.9082 15.2755C82.1468 15.006 82.3412 14.6803 82.4914 14.2982C82.6465 13.9169 82.7578 13.4943 82.8252 13.0304Z" fill="#fff"/>
<path d="M97.1986 13.0524L96.9277 13.7729L93.1311 12.3455L90.5837 19.1211L89.7592 18.8111L92.5776 11.315L97.1986 13.0524Z" fill="#fff"/>
<path d="M96.7605 17.281L96.8752 17.0653C97.1485 16.5512 97.475 16.1156 97.8547 15.7587C98.2345 15.4017 98.6461 15.1372 99.0897 14.965C99.5376 14.7952 100.002 14.7262 100.482 14.7581C100.965 14.7856 101.444 14.9255 101.919 15.178C102.398 15.4327 102.784 15.7525 103.077 16.1373C103.372 16.5177 103.574 16.941 103.684 17.4073C103.794 17.8736 103.807 18.364 103.724 18.8784C103.64 19.3929 103.462 19.9072 103.188 20.4213L103.074 20.637C102.8 21.1511 102.474 21.5866 102.094 21.9436C101.717 22.2962 101.304 22.5574 100.856 22.7272C100.413 22.8994 99.9495 22.9717 99.4668 22.9442C98.9864 22.9123 98.5087 22.7702 98.0338 22.5177C97.5545 22.263 97.1673 21.9454 96.8722 21.565C96.5794 21.1802 96.3781 20.7547 96.2683 20.2884C96.1585 19.8221 96.1442 19.3339 96.2254 18.8238C96.3088 18.3094 96.4872 17.7951 96.7605 17.281ZM97.6529 17.4787L97.5383 17.6944C97.3321 18.0822 97.1887 18.4781 97.108 18.8823C97.0296 19.282 97.0188 19.6703 97.0756 20.0469C97.1347 20.4193 97.2719 20.7604 97.4871 21.0704C97.7024 21.3804 98.0038 21.6384 98.3916 21.8446C98.775 22.0484 99.1532 22.1516 99.5262 22.1543C99.9035 22.1593 100.263 22.0822 100.605 21.923C100.949 21.7594 101.262 21.5321 101.546 21.2412C101.835 20.9482 102.083 20.6078 102.29 20.2201L102.404 20.0044C102.608 19.621 102.749 19.2294 102.828 18.8296C102.91 18.4321 102.921 18.0439 102.86 17.6649C102.803 17.2882 102.668 16.9427 102.455 16.6284C102.242 16.314 101.944 16.0549 101.561 15.8511C101.177 15.6473 100.796 15.5451 100.416 15.5444C100.041 15.5461 99.6791 15.6276 99.3307 15.7889C98.9867 15.9525 98.6709 16.1786 98.3834 16.4672C98.1002 16.7581 97.8567 17.0953 97.6529 17.4787Z" fill="#fff"/>
<path d="M105.505 26.2667C105.806 26.49 106.129 26.6431 106.472 26.7261C106.823 26.808 107.166 26.8012 107.501 26.7055C107.843 26.6089 108.146 26.4069 108.411 26.0994L109.089 26.6019C108.766 26.9955 108.371 27.2676 107.903 27.4183C107.442 27.5679 106.96 27.5972 106.456 27.5063C105.959 27.4143 105.491 27.2053 105.051 26.8791C104.603 26.547 104.267 26.1719 104.042 25.7538C103.822 25.3385 103.704 24.901 103.689 24.4412C103.676 23.9775 103.754 23.5073 103.923 23.0306C104.099 22.553 104.355 22.0882 104.69 21.6363L104.875 21.3866C105.21 20.9347 105.579 20.5572 105.982 20.2539C106.392 19.9496 106.819 19.738 107.263 19.6191C107.711 19.4962 108.165 19.4798 108.626 19.57C109.088 19.6602 109.542 19.8713 109.99 20.2034C110.45 20.5443 110.793 20.943 111.02 21.3997C111.25 21.8593 111.348 22.3403 111.314 22.8428C111.283 23.3483 111.104 23.8422 110.777 24.3247L110.099 23.8222C110.335 23.4626 110.464 23.0977 110.487 22.7275C110.51 22.3573 110.438 22.0064 110.272 21.6747C110.107 21.3431 109.861 21.0568 109.536 20.8158C109.172 20.5455 108.808 20.3862 108.444 20.3379C108.084 20.2856 107.731 20.3221 107.386 20.4474C107.048 20.5716 106.726 20.7624 106.418 21.0198C106.114 21.2731 105.835 21.5702 105.583 21.9111L105.397 22.1609C105.142 22.5057 104.934 22.8612 104.773 23.2272C104.619 23.5922 104.532 23.9544 104.511 24.3138C104.494 24.676 104.562 25.024 104.714 25.3577C104.872 25.6904 105.136 25.9934 105.505 26.2667Z" fill="#fff"/>
<path d="M122.193 32.0654L121.607 32.5646L118.569 28.9984L119.155 28.4992L122.193 32.0654ZM119.284 28.6513L113.188 33.8451L112.617 33.1747L118.713 27.9809L119.284 28.6513ZM122.663 32.6175L116.568 37.8113L115.992 37.1353L122.087 31.9415L122.663 32.6175Z" fill="#fff"/>
<path d="M120.842 36.9679L121.049 36.8381C121.542 36.5286 122.042 36.3139 122.549 36.1938C123.056 36.0737 123.545 36.0496 124.015 36.1215C124.488 36.1976 124.925 36.3692 125.326 36.6363C125.73 36.9008 126.076 37.2608 126.361 37.7165C126.65 38.1762 126.825 38.6459 126.887 39.1254C126.953 39.6023 126.918 40.0702 126.78 40.5292C126.643 40.9881 126.41 41.4197 126.081 41.8241C125.752 42.2284 125.341 42.5853 124.848 42.8947L124.641 43.0245C124.148 43.3339 123.648 43.5487 123.141 43.6688C122.638 43.7863 122.15 43.807 121.677 43.7309C121.206 43.659 120.769 43.4908 120.364 43.2263C119.964 42.9592 119.62 42.5978 119.335 42.1422C119.046 41.6824 118.869 41.2141 118.803 40.7372C118.741 40.2576 118.778 39.7884 118.916 39.3295C119.053 38.8705 119.284 38.4402 119.609 38.0385C119.937 37.6342 120.348 37.2773 120.842 36.9679ZM121.517 37.5842L121.31 37.714C120.938 37.9473 120.616 38.2191 120.344 38.5292C120.077 38.8367 119.874 39.1678 119.736 39.5227C119.601 39.8749 119.55 40.239 119.582 40.615C119.614 40.991 119.747 41.365 119.98 41.7371C120.211 42.1049 120.487 42.3829 120.809 42.5712C121.134 42.7637 121.484 42.8761 121.86 42.9084C122.24 42.9381 122.625 42.8974 123.015 42.7864C123.413 42.6769 123.797 42.5055 124.169 42.2721L124.376 42.1423C124.744 41.9116 125.061 41.6425 125.329 41.335C125.599 41.0317 125.802 40.7005 125.937 40.3415C126.076 39.9867 126.131 39.6199 126.104 39.2413C126.076 38.8626 125.946 38.4894 125.716 38.1216C125.485 37.7538 125.205 37.4749 124.876 37.2851C124.55 37.0994 124.196 36.9897 123.813 36.9558C123.434 36.9261 123.047 36.9647 122.654 37.0715C122.264 37.1825 121.884 37.3534 121.517 37.5842Z" fill="#fff"/>
<circle cx="131.309" cy="57.1819" r="1" transform="rotate(-21.145 131.309 57.1819)" fill="#fff"/>
</svg>
