<svg width="152" height="151" viewBox="0 0 152 151" fill="none" xmlns="http://www.w3.org/2000/svg">
<g clip-path="url(#clip0_5001_24750)">
<path d="M140.053 60.3438L139.299 60.5609L137.839 55.4897L138.593 55.2726L140.053 60.3438ZM140.253 61.0408L129.898 64.0226L129.646 63.1478L140.002 60.166L140.253 61.0408ZM138.502 54.9596L138.752 55.8274L133.89 56.9424C133.084 57.123 132.367 57.2628 131.738 57.3617C131.111 57.4653 130.558 57.5166 130.081 57.5155C129.607 57.5131 129.201 57.4479 128.861 57.3198C128.523 57.1964 128.241 57.0028 128.016 56.739C127.797 56.4785 127.626 56.1348 127.504 55.7081L127.418 55.4094L128.164 55.1943L128.254 55.4534C128.344 55.7304 128.469 55.9565 128.627 56.1318C128.787 56.3117 128.996 56.4414 129.255 56.5209C129.52 56.6037 129.854 56.6386 130.256 56.6256C130.659 56.6173 131.147 56.5641 131.719 56.466C132.293 56.3727 132.97 56.2367 133.751 56.0582L138.502 54.9596Z" fill="#6A47DC"/>
<path d="M131.4 68.5952L138.856 70.2115L138.969 71.1595L129.335 68.903C129.146 68.8562 128.934 68.7922 128.701 68.7109C128.468 68.6345 128.241 68.5226 128.019 68.3753C127.794 68.2334 127.602 68.0428 127.444 67.8034C127.281 67.5694 127.178 67.2712 127.135 66.9086C127.124 66.8155 127.122 66.694 127.128 66.5441C127.131 66.3997 127.138 66.2945 127.15 66.2284L127.891 66.1319C127.883 66.1875 127.88 66.2674 127.883 66.3715C127.885 66.4755 127.889 66.5471 127.894 66.5863C127.932 66.9048 128.018 67.1653 128.152 67.3679C128.286 67.5754 128.47 67.7397 128.703 67.8608C128.931 67.9824 129.211 68.0805 129.543 68.1549L131.4 68.5952ZM138.28 65.4202L131.758 68.7759L130.867 69.1214L130.43 68.5254L138.165 64.4649L138.28 65.4202Z" fill="#6A47DC"/>
<path d="M139.026 79.9212L131.019 79.762L131.037 78.8814L139.044 79.0406L139.026 79.9212ZM135.399 79.5456L134.636 79.5304C134.532 79.3013 134.434 79.0378 134.341 78.7398C134.248 78.4468 134.173 78.1369 134.115 77.81C134.063 77.4881 134.039 77.1669 134.046 76.8462C134.059 76.1851 134.166 75.6271 134.368 75.1721C134.569 74.7221 134.892 74.3855 135.335 74.1624C135.784 73.9393 136.378 73.8352 137.118 73.8499L139.153 73.8904L139.136 74.771L137.101 74.7305C136.534 74.7192 136.083 74.7892 135.749 74.9405C135.421 75.0919 135.184 75.3266 135.039 75.6445C134.895 75.9624 134.818 76.368 134.808 76.8614C134.811 77.202 134.839 77.5406 134.891 77.8772C134.949 78.214 135.022 78.5263 135.11 78.8143C135.203 79.1074 135.299 79.3511 135.399 79.5456Z" fill="#6A47DC"/>
<path d="M138.887 83.3119L138.714 84.1755L131.609 82.7529L130.909 86.251L138.014 87.6736L137.839 88.5445L130.734 87.1219L130.041 90.5837L137.146 92.0063L136.973 92.8699L129.121 91.2976L131.035 81.7396L138.887 83.3119Z" fill="#6A47DC"/>
<path d="M127.004 96.5369C127.196 96.0505 127.463 95.6384 127.803 95.3007C128.141 94.9676 128.534 94.714 128.979 94.5399C129.423 94.3704 129.9 94.291 130.41 94.3017C130.923 94.3189 131.446 94.4326 131.978 94.643L132.274 94.76C132.848 94.9867 133.333 95.2765 133.729 95.6295C134.126 95.9825 134.43 96.3734 134.643 96.8022C134.855 97.2311 134.973 97.6704 134.997 98.1202C135.024 98.5764 134.954 99.0156 134.787 99.4378C134.6 99.9105 134.349 100.297 134.034 100.597C133.724 100.899 133.366 101.113 132.961 101.239C132.558 101.372 132.123 101.42 131.654 101.383C131.191 101.348 130.709 101.232 130.208 101.035L129.706 100.836L131.934 95.1985L132.636 95.4759L130.732 100.294L130.828 100.332C131.249 100.488 131.673 100.558 132.099 100.54C132.528 100.529 132.919 100.413 133.271 100.192C133.624 99.9704 133.893 99.6257 134.078 99.1576C134.216 98.8088 134.269 98.4586 134.239 98.1069C134.206 97.7597 134.094 97.4262 133.902 97.1063C133.713 96.7928 133.453 96.5043 133.122 96.2409C132.794 95.9838 132.402 95.7655 131.948 95.586L131.652 95.469C131.239 95.3058 130.83 95.2131 130.425 95.1909C130.023 95.1752 129.642 95.2262 129.282 95.3441C128.921 95.4665 128.602 95.6539 128.328 95.9061C128.053 96.1583 127.841 96.4725 127.692 96.8488C127.518 97.2893 127.445 97.7111 127.471 98.1142C127.502 98.5191 127.641 98.9267 127.887 99.3371L127.284 99.6955C127.109 99.4406 126.968 99.1517 126.862 98.8286C126.755 98.5102 126.707 98.1599 126.72 97.7778C126.734 97.3956 126.828 96.982 127.004 96.5369Z" fill="#6A47DC"/>
<path d="M123.665 103.522C123.922 103.067 124.243 102.695 124.626 102.408C125.007 102.124 125.431 101.927 125.896 101.816C126.359 101.709 126.842 101.696 127.346 101.777C127.852 101.865 128.354 102.05 128.853 102.331L129.13 102.488C129.667 102.791 130.107 103.145 130.451 103.549C130.795 103.954 131.043 104.383 131.194 104.837C131.346 105.291 131.402 105.742 131.364 106.191C131.327 106.647 131.198 107.072 130.974 107.467C130.724 107.91 130.422 108.258 130.069 108.511C129.72 108.768 129.336 108.93 128.917 109C128.5 109.076 128.062 109.063 127.604 108.963C127.149 108.864 126.688 108.683 126.219 108.418L125.749 108.152L128.732 102.875L129.389 103.247L126.84 107.757L126.93 107.808C127.326 108.02 127.736 108.147 128.16 108.189C128.586 108.237 128.989 108.176 129.369 108.005C129.749 107.834 130.063 107.53 130.31 107.092C130.495 106.765 130.596 106.426 130.614 106.073C130.63 105.725 130.564 105.379 130.418 105.036C130.274 104.699 130.056 104.378 129.765 104.071C129.475 103.772 129.118 103.501 128.693 103.261L128.415 103.104C128.029 102.886 127.637 102.738 127.238 102.66C126.842 102.589 126.458 102.587 126.085 102.654C125.71 102.726 125.37 102.868 125.063 103.08C124.756 103.292 124.503 103.574 124.304 103.926C124.071 104.338 123.939 104.746 123.91 105.149C123.885 105.554 123.966 105.977 124.154 106.417L123.507 106.689C123.368 106.413 123.269 106.107 123.209 105.773C123.146 105.442 123.147 105.089 123.213 104.712C123.279 104.335 123.429 103.939 123.665 103.522Z" fill="#6A47DC"/>
<path d="M121.187 120.446L120.616 119.93L123.757 116.453L124.328 116.969L121.187 120.446ZM124.194 117.117L118.251 111.749L118.841 111.096L124.784 116.464L124.194 117.117ZM120.701 120.984L114.758 115.616L115.354 114.957L121.296 120.325L120.701 120.984Z" fill="#6A47DC"/>
<path d="M116.387 122.944L110.39 115.514L111.081 114.957L118.045 123.584L117.4 124.105L116.387 122.944ZM110.554 124.58L110.457 124.459C110.082 123.994 109.791 123.524 109.586 123.05C109.38 122.575 109.265 122.114 109.239 121.665C109.212 121.224 109.285 120.807 109.456 120.415C109.628 120.023 109.902 119.675 110.278 119.371C110.651 119.07 111.029 118.86 111.414 118.74C111.799 118.619 112.182 118.579 112.564 118.62C112.945 118.668 113.313 118.783 113.669 118.964C114.025 119.153 114.365 119.398 114.691 119.7L115.979 121.295C116.225 121.718 116.406 122.136 116.524 122.548C116.641 122.961 116.688 123.36 116.664 123.747C116.637 124.137 116.529 124.507 116.341 124.855C116.153 125.203 115.876 125.525 115.512 125.819C115.131 126.126 114.733 126.324 114.317 126.413C113.899 126.509 113.476 126.498 113.046 126.382C112.616 126.273 112.191 126.065 111.771 125.757C111.35 125.456 110.945 125.063 110.554 124.58ZM111.148 123.901L111.245 124.022C111.54 124.387 111.851 124.693 112.179 124.942C112.503 125.195 112.834 125.374 113.174 125.48C113.513 125.594 113.852 125.621 114.192 125.562C114.527 125.507 114.855 125.351 115.173 125.094C115.503 124.827 115.741 124.544 115.885 124.243C116.029 123.95 116.104 123.651 116.112 123.346C116.123 123.046 116.088 122.754 116.006 122.472C115.923 122.189 115.821 121.929 115.699 121.692L114.216 119.854C113.908 119.621 113.572 119.445 113.21 119.326C112.85 119.21 112.475 119.186 112.086 119.253C111.695 119.327 111.304 119.523 110.913 119.839C110.598 120.093 110.378 120.378 110.253 120.695C110.128 121.011 110.085 121.347 110.124 121.702C110.16 122.06 110.267 122.424 110.445 122.794C110.619 123.167 110.853 123.536 111.148 123.901Z" fill="#6A47DC"/>
<path d="M106.12 124.389L105.682 132.247L104.914 132.694L100.887 125.772L101.655 125.325L104.96 131.006L105.398 123.148L106.153 122.709L110.18 129.631L109.425 130.07L106.12 124.389Z" fill="#6A47DC"/>
<path d="M100.939 135.024L100.648 134.273L96.6867 135.805L96.9774 136.557L100.939 135.024ZM101.64 134.753L98.615 126.931L97.7547 127.264L100.78 135.086L101.64 134.753ZM96.7461 136.646L97.6064 136.313L96.0153 132.715C95.7571 132.134 95.5057 131.627 95.2612 131.195C95.0214 130.762 94.7828 130.402 94.5451 130.118C94.3094 129.837 94.0647 129.627 93.8111 129.487C93.5622 129.345 93.2977 129.27 93.0176 129.262C92.7394 129.259 92.4388 129.32 92.1159 129.445L91.7906 129.571L92.0925 130.351L92.3628 130.255C92.5738 130.185 92.7713 130.158 92.9553 130.176C93.1442 130.191 93.3267 130.262 93.5028 130.388C93.6837 130.512 93.8634 130.697 94.042 130.944C94.2253 131.189 94.4151 131.5 94.6113 131.879C94.8142 132.26 95.0321 132.716 95.265 133.246L96.7461 136.646Z" fill="#6A47DC"/>
<path d="M91.695 133.663L91.7471 133.902C91.8713 134.471 91.9041 135.014 91.8455 135.532C91.7869 136.05 91.6442 136.518 91.4173 136.936C91.1857 137.356 90.8764 137.708 90.4894 137.995C90.1036 138.286 89.6479 138.489 89.1224 138.604C88.5922 138.72 88.0909 138.726 87.6187 138.622C87.1476 138.523 86.7193 138.331 86.3339 138.046C85.9485 137.762 85.6212 137.397 85.3521 136.95C85.0829 136.504 84.8861 135.996 84.7619 135.428L84.7098 135.189C84.5856 134.62 84.5527 134.077 84.6114 133.559C84.671 133.046 84.8167 132.58 85.0484 132.16C85.2752 131.742 85.5816 131.387 85.9674 131.096C86.3544 130.809 86.8106 130.609 87.336 130.494C87.8663 130.378 88.367 130.37 88.8382 130.469C89.3104 130.573 89.7392 130.767 90.1245 131.052C90.5099 131.336 90.8367 131.699 91.1048 132.141C91.374 132.587 91.5707 133.095 91.695 133.663ZM90.8866 134.09L90.8345 133.851C90.7408 133.422 90.594 133.028 90.394 132.667C90.1952 132.312 89.9522 132.009 89.6652 131.758C89.3792 131.513 89.0539 131.341 88.6892 131.244C88.3246 131.147 87.9277 131.145 87.4987 131.239C87.0745 131.332 86.7193 131.497 86.4331 131.737C86.1422 131.977 85.9179 132.268 85.7604 132.611C85.6039 132.958 85.5119 133.334 85.4842 133.74C85.4527 134.15 85.4838 134.57 85.5775 134.999L85.6296 135.238C85.7223 135.662 85.868 136.052 86.0669 136.408C86.261 136.764 86.5039 137.067 86.7958 137.317C87.0828 137.567 87.4092 137.743 87.7749 137.845C88.1406 137.947 88.5356 137.952 88.9598 137.859C89.384 137.767 89.7411 137.598 90.031 137.353C90.316 137.109 90.5392 136.812 90.7005 136.464C90.857 136.117 90.9515 135.74 90.984 135.334C91.0117 134.929 90.9792 134.514 90.8866 134.09Z" fill="#6A47DC"/>
<path d="M79.5768 135.59L82.9807 139.776L81.9156 139.815L79.1547 136.405L77.6754 136.459L77.7277 135.657L79.5768 135.59ZM79.0475 135.698L81.9348 131.801L83.0591 131.76L79.627 136.358L79.0475 135.698ZM77.3297 139.982L77.0383 131.979L77.9185 131.947L78.2099 139.95L77.3297 139.982ZM72.5367 140.156L75.6419 135.733L77.4762 135.666L77.6014 136.461L76.1147 136.515L73.6166 140.117L72.5367 140.156ZM73.0072 132.126L76.1776 135.802L75.6403 136.503L71.8829 132.166L73.0072 132.126Z" fill="#6A47DC"/>
<path d="M67.6712 131.369C68.1897 131.437 68.6541 131.596 69.0642 131.844C69.4695 132.092 69.8106 132.411 70.0876 132.8C70.3597 133.19 70.5525 133.633 70.6659 134.131C70.7737 134.633 70.7902 135.168 70.7152 135.735L70.6736 136.051C70.5928 136.662 70.4292 137.203 70.183 137.673C69.9367 138.143 69.6313 138.534 69.2668 138.844C68.9023 139.154 68.5048 139.375 68.0742 139.508C67.6381 139.644 67.195 139.683 66.7449 139.623C66.2411 139.557 65.8054 139.407 65.438 139.174C65.0699 138.946 64.7755 138.651 64.5546 138.289C64.3282 137.93 64.1759 137.519 64.0978 137.056C64.019 136.598 64.0148 136.102 64.0852 135.569L64.156 135.033L70.1656 135.827L70.0667 136.575L64.9303 135.897L64.9167 136C64.8677 136.446 64.9033 136.874 65.0234 137.283C65.1381 137.696 65.3455 138.047 65.6459 138.336C65.9462 138.624 66.3458 138.801 66.8448 138.867C67.2166 138.916 67.5693 138.883 67.9031 138.768C68.232 138.652 68.5283 138.463 68.7921 138.199C69.0504 137.939 69.2671 137.617 69.4424 137.232C69.6122 136.851 69.729 136.419 69.793 135.935L69.8347 135.619C69.8929 135.179 69.8836 134.759 69.8068 134.361C69.7245 133.967 69.5825 133.61 69.381 133.289C69.1745 132.969 68.9156 132.705 68.6043 132.5C68.293 132.295 67.9368 132.165 67.5356 132.112C67.066 132.05 66.6389 132.081 66.2543 132.204C65.869 132.333 65.5072 132.566 65.1688 132.905L64.6747 132.406C64.8795 132.175 65.1258 131.968 65.4135 131.787C65.6963 131.606 66.0247 131.475 66.3986 131.395C66.7725 131.315 67.1967 131.306 67.6712 131.369Z" fill="#6A47DC"/>
<path d="M56.618 133.575L56.8253 132.849L61.3945 134.153L61.1872 134.879L56.618 133.575ZM59.9832 138.261L62.1817 130.56L63.0286 130.802L60.8301 138.503L59.9832 138.261ZM54.9798 136.833L57.1783 129.132L58.0324 129.376L55.8339 137.076L54.9798 136.833Z" fill="#6A47DC"/>
<path d="M53.3908 129.248L46.7115 133.411L45.9045 133.04L49.2494 125.764L50.0564 126.135L47.3113 132.106L53.9905 127.943L54.7841 128.308L51.4392 135.584L50.6456 135.219L53.3908 129.248Z" fill="#6A47DC"/>
<path d="M44.5253 122.766C44.9638 123.051 45.3147 123.394 45.578 123.794C45.8371 124.192 46.0077 124.627 46.0898 125.098C46.1677 125.567 46.1507 126.05 46.0387 126.548C45.9199 127.048 45.7045 127.537 45.3925 128.017L45.219 128.284C44.8828 128.801 44.5023 129.219 44.0776 129.537C43.6529 129.855 43.2092 130.076 42.7467 130.199C42.2841 130.322 41.8301 130.351 41.3845 130.285C40.9321 130.22 40.5157 130.064 40.1351 129.817C39.709 129.54 39.3802 129.217 39.1488 128.849C38.9147 128.485 38.776 128.091 38.7329 127.669C38.6829 127.248 38.7223 126.812 38.8512 126.36C38.9775 125.912 39.1872 125.463 39.4804 125.012L39.7749 124.559L44.8569 127.863L44.4454 128.496L40.1018 125.672L40.0453 125.759C39.8088 126.141 39.6567 126.542 39.589 126.963C39.5145 127.385 39.5507 127.792 39.6975 128.181C39.8443 128.571 40.1287 128.903 40.5506 129.177C40.865 129.382 41.1976 129.504 41.5485 129.544C41.8951 129.581 42.2443 129.537 42.596 129.413C42.9408 129.29 43.2753 129.092 43.5992 128.82C43.9164 128.55 44.2081 128.209 44.4744 127.8L44.6479 127.533C44.8899 127.161 45.0621 126.778 45.1643 126.386C45.2597 125.995 45.2854 125.611 45.2414 125.235C45.1933 124.857 45.0729 124.508 44.8804 124.188C44.6879 123.869 44.422 123.599 44.0828 123.378C43.6856 123.12 43.2869 122.964 42.8867 122.91C42.4837 122.86 42.0566 122.914 41.6055 123.074L41.3741 122.412C41.6587 122.291 41.9699 122.211 42.3075 122.171C42.6409 122.129 42.9936 122.152 43.3655 122.241C43.7374 122.33 44.124 122.505 44.5253 122.766Z" fill="#6A47DC"/>
<path d="M10.2711 92.427L11.0224 92.2012L12.5411 97.2552L11.7897 97.481L10.2711 92.427ZM10.0623 91.7323L20.383 88.6311L20.645 89.503L10.3243 92.6042L10.0623 91.7323ZM11.8834 97.7929L11.6236 96.9281L16.4729 95.7569C17.2763 95.567 17.9917 95.419 18.6193 95.3129C19.2455 95.202 19.7975 95.1443 20.2753 95.1399C20.7484 95.1368 21.1556 95.1974 21.4969 95.3215C21.8368 95.4409 22.1207 95.6313 22.3486 95.8925C22.5704 96.1505 22.7451 96.4921 22.8729 96.9174L22.9624 97.2151L22.2181 97.4388L22.1251 97.1808C22.0319 96.9048 21.9051 96.6801 21.7448 96.5067C21.5831 96.3286 21.3723 96.2014 21.1123 96.1249C20.8462 96.0452 20.5123 96.0141 20.1105 96.0318C19.7074 96.0447 19.2202 96.1035 18.6488 96.2082C18.076 96.3082 17.4005 96.452 16.6222 96.6395L11.8834 97.7929Z" fill="#6A47DC"/>
<path d="M18.7931 83.8765L11.3259 82.3169L11.2048 81.3698L20.8559 83.553C21.0458 83.5984 21.2577 83.6608 21.4918 83.7403C21.7251 83.8149 21.9531 83.9251 22.1757 84.0707C22.4026 84.2108 22.5959 84.4 22.7557 84.6382C22.9198 84.871 23.025 85.1684 23.0713 85.5306C23.0832 85.6236 23.0863 85.7451 23.0806 85.895C23.0792 86.0395 23.0727 86.1448 23.0613 86.2109L22.3207 86.3131C22.3285 86.2574 22.3307 86.1775 22.3274 86.0734C22.324 85.9694 22.3198 85.8978 22.3148 85.8587C22.2742 85.5405 22.1862 85.2807 22.051 85.0791C21.9151 84.8726 21.7301 84.7097 21.496 84.5904C21.2668 84.4705 20.9859 84.3746 20.6533 84.3027L18.7931 83.8765ZM11.9381 87.1037L18.4345 83.6985L19.3222 83.3462L19.7636 83.9389L12.0601 88.0581L11.9381 87.1037Z" fill="#6A47DC"/>
<path d="M11.074 72.6311L19.0818 72.7304L19.0709 73.6112L11.0631 73.5118L11.074 72.6311ZM14.7041 72.9796L15.4664 72.9891C15.5721 73.2174 15.6725 73.4802 15.7675 73.7774C15.8626 74.0698 15.9402 74.3791 16.0003 74.7056C16.0555 75.027 16.0811 75.3481 16.0772 75.6688C16.069 76.33 15.9658 76.8888 15.7677 77.3452C15.5696 77.7968 15.2496 78.1358 14.8076 78.3622C14.3607 78.5886 13.7672 78.6972 13.0271 78.688L10.9918 78.6628L11.0027 77.7821L13.038 77.8073C13.6054 77.8143 14.0554 77.741 14.3879 77.5872C14.7155 77.4333 14.9504 77.1969 15.0925 76.8779C15.2346 76.5589 15.3087 76.1527 15.3149 75.6593C15.3092 75.3188 15.2789 74.9804 15.2238 74.6441C15.1638 74.3078 15.0888 73.996 14.9986 73.7087C14.9035 73.4164 14.8053 73.1733 14.7041 72.9796Z" fill="#6A47DC"/>
<path d="M11.1224 69.6L11.2858 68.7345L18.4061 70.0788L19.0679 66.5732L11.9476 65.229L12.1124 64.3562L19.2327 65.7005L19.8876 62.2312L12.7674 60.887L12.9308 60.0215L20.8001 61.5072L18.9918 71.0857L11.1224 69.6Z" fill="#6A47DC"/>
<path d="M22.8779 56.0876C22.691 56.5761 22.4292 56.991 22.0925 57.3324C21.7576 57.6692 21.3683 57.927 20.9248 58.106C20.4829 58.2803 20.0068 58.3649 19.4963 58.3598C18.9829 58.3482 18.4589 58.2402 17.9244 58.0356L17.6271 57.9219C17.0511 57.7014 16.5629 57.4169 16.1627 57.0683C15.7625 56.7197 15.4538 56.3321 15.2367 55.9056C15.0195 55.4791 14.8965 55.041 14.8678 54.5915C14.8362 54.1356 14.9015 53.6957 15.0637 53.2717C15.2454 52.7971 15.492 52.408 15.8036 52.1046C16.1106 51.7994 16.4661 51.5815 16.87 51.4508C17.2712 51.3137 17.7061 51.2609 18.1749 51.2923C18.639 51.322 19.1223 51.4329 19.6246 51.6252L20.1292 51.8183L17.9628 57.4797L17.2577 57.2099L19.1093 52.371L19.0125 52.334C18.5896 52.1828 18.1653 52.1181 17.7395 52.1401C17.3109 52.1557 16.9214 52.2761 16.5711 52.5013C16.2207 52.7265 15.9556 53.0741 15.7757 53.5442C15.6417 53.8944 15.592 54.2452 15.6266 54.5966C15.663 54.9434 15.7789 55.2757 15.9742 55.5934C16.1668 55.9049 16.43 56.1905 16.7638 56.4503C17.0947 56.7038 17.4883 56.9178 17.9446 57.0924L18.2418 57.2061C18.6566 57.3648 19.0666 57.453 19.4719 57.4708C19.8744 57.4821 20.2547 57.4269 20.6131 57.3052C20.9731 57.1788 21.2892 56.988 21.5612 56.7328C21.8332 56.4777 22.0415 56.1611 22.1861 55.7832C22.3554 55.3408 22.4246 54.9182 22.3938 54.5155C22.3584 54.111 22.2153 53.7049 21.9645 53.2972L22.5638 52.9322C22.7417 53.1852 22.8853 53.4726 22.9947 53.7944C23.1057 54.1117 23.1568 54.4614 23.1479 54.8437C23.139 55.2259 23.049 55.6406 22.8779 56.0876Z" fill="#6A47DC"/>
<path d="M26.1502 49.0306C25.8978 49.4887 25.5814 49.8636 25.2009 50.1554C24.8228 50.4428 24.4018 50.6446 23.9377 50.7608C23.4761 50.8726 22.9929 50.8909 22.4879 50.8155C21.981 50.7334 21.477 50.5542 20.9756 50.278L20.6969 50.1244C20.1567 49.8268 19.7124 49.4777 19.364 49.0773C19.0156 48.6769 18.7632 48.2506 18.6068 47.7982C18.4504 47.3458 18.3889 46.8951 18.4223 46.4459C18.4538 45.99 18.5791 45.5632 18.7981 45.1656C19.0434 44.7205 19.3412 44.3691 19.6916 44.1115C20.0377 43.8515 20.4198 43.6845 20.838 43.6107C21.2542 43.5302 21.6922 43.5377 22.1522 43.6334C22.6078 43.7267 23.0712 43.9031 23.5422 44.1627L24.0155 44.4234L21.0902 49.7327L20.429 49.3684L22.9292 44.8305L22.8384 44.7805C22.4404 44.5725 22.029 44.45 21.6042 44.4132C21.1775 44.3696 20.7752 44.4353 20.3972 44.6101C20.0192 44.7849 19.7087 45.0927 19.4658 45.5335C19.2849 45.862 19.1873 46.2026 19.1732 46.5554C19.1615 46.9039 19.2305 47.2489 19.3803 47.5906C19.5281 47.9256 19.7495 48.2447 20.0443 48.548C20.3373 48.8446 20.6976 49.1108 21.1255 49.3465L21.4042 49.5001C21.7932 49.7144 22.1872 49.8582 22.5862 49.9316C22.9833 49.9983 23.3676 49.996 23.7393 49.9247C24.1133 49.8491 24.4526 49.7036 24.7571 49.4883C25.0617 49.273 25.3116 48.9882 25.5068 48.6338C25.7354 48.2189 25.8622 47.8099 25.8872 47.4068C25.9078 47.0012 25.822 46.5793 25.6297 46.141L26.2735 45.8619C26.4149 46.137 26.5176 46.4415 26.5816 46.7753C26.6479 47.1048 26.6503 47.4582 26.5889 47.8356C26.5274 48.213 26.3812 48.6113 26.1502 49.0306Z" fill="#6A47DC"/>
<path d="M28.2275 32.3114L28.8044 32.821L25.7027 36.3324L25.1258 35.8228L28.2275 32.3114ZM25.2581 35.673L31.2602 40.9748L30.6771 41.6349L24.675 36.3331L25.2581 35.673ZM28.7077 31.7677L34.7098 37.0696L34.1218 37.7352L28.1197 32.4334L28.7077 31.7677Z" fill="#6A47DC"/>
<path d="M33.1333 29.5819L39.2139 36.9432L38.5291 37.5088L31.4681 28.9606L32.1072 28.4327L33.1333 29.5819ZM38.9471 27.8804L39.046 28.0002C39.4263 28.4606 39.7218 28.9268 39.9327 29.3991C40.1436 29.8713 40.2644 30.3314 40.2954 30.7795C40.3269 31.2206 40.2591 31.6382 40.0919 32.0324C39.9246 32.4265 39.6546 32.7776 39.2818 33.0855C38.9128 33.3903 38.5366 33.6051 38.1532 33.7298C37.7698 33.8545 37.387 33.8986 37.005 33.8622C36.6236 33.8189 36.2538 33.7083 35.8957 33.5305C35.5383 33.3457 35.195 33.1045 34.8659 32.8067L33.5602 31.2261C33.3093 30.8061 33.1229 30.3905 33.0008 29.9793C32.8788 29.5682 32.8274 29.169 32.8468 28.7818C32.87 28.3914 32.9736 28.021 33.1577 27.6705C33.3418 27.3201 33.6146 26.9956 33.976 26.697C34.3526 26.3859 34.7486 26.1836 35.1641 26.09C35.5803 25.9894 36.0039 25.9947 36.4349 26.1059C36.8666 26.2101 37.294 26.4138 37.7173 26.717C38.1412 27.0133 38.5511 27.4011 38.9471 27.8804ZM38.3613 28.5659L38.2623 28.446C37.9638 28.0846 37.6492 27.7813 37.3186 27.536C36.9917 27.2875 36.658 27.112 36.3173 27.0095C35.9772 26.9 35.6377 26.8764 35.2988 26.9387C34.9637 26.9979 34.6383 27.1579 34.3225 27.4188C33.9954 27.689 33.7613 27.9751 33.6204 28.2772C33.4801 28.5722 33.4077 28.872 33.4033 29.1765C33.3956 29.4772 33.4345 29.7683 33.5198 30.0498C33.6052 30.3313 33.7102 30.5902 33.8349 30.8264L35.3385 32.6467C35.6496 32.8762 35.9872 33.0485 36.3513 33.1638C36.7121 33.2753 37.087 33.2952 37.4759 33.2236C37.8654 33.1451 38.2542 32.9456 38.6422 32.625C38.9542 32.3673 39.1708 32.0796 39.2923 31.7617C39.4137 31.4438 39.4527 31.1075 39.4094 30.7529C39.3699 30.3951 39.259 30.0323 39.0767 29.6645C38.8983 29.2935 38.6598 28.9273 38.3613 28.5659Z" fill="#6A47DC"/>
<path d="M43.4567 27.9476L43.834 20.0861L44.5983 19.6336L48.6783 26.5248L47.9141 26.9773L44.5656 21.3217L44.1882 29.1832L43.4367 29.6281L39.3567 22.737L40.1082 22.292L43.4567 27.9476Z" fill="#6A47DC"/>
<path d="M52.5932 16.035L52.8819 16.7486L49.122 18.2699L48.8333 17.5564L52.5932 16.035ZM53.2587 15.7657L56.2626 23.1894L55.4461 23.5198L52.4423 16.0961L53.2587 15.7657ZM48.6138 17.6452L49.4302 17.3148L50.6731 20.86C50.8733 21.4338 51.0293 21.9508 51.1411 22.4113C51.2574 22.8699 51.326 23.276 51.3466 23.6296C51.3654 23.9786 51.3323 24.2848 51.2472 24.5481C51.1667 24.8096 51.0315 25.0346 50.8417 25.2232C50.65 25.4072 50.4009 25.5612 50.0944 25.6852L49.7857 25.8101L49.4859 25.0692L49.7369 24.9596C49.9299 24.8708 50.0848 24.7603 50.2016 24.6279C50.3229 24.4936 50.4038 24.3251 50.4442 24.1225C50.4892 23.918 50.4933 23.6715 50.4564 23.383C50.4241 23.0926 50.3526 22.7516 50.242 22.3599C50.1341 21.9617 49.988 21.5019 49.8036 20.9803L48.6138 17.6452Z" fill="#6A47DC"/>
<path d="M57.6601 18.5485L57.6053 18.3105C57.4745 17.7431 57.4354 17.2002 57.4881 16.6817C57.5407 16.1632 57.6781 15.6935 57.9001 15.2727C58.1269 14.8508 58.4321 14.4943 58.8157 14.2034C59.1982 13.9076 59.6515 13.6993 60.1756 13.5785C60.7045 13.4566 61.2057 13.4449 61.679 13.5434C62.1513 13.6371 62.5818 13.824 62.9704 14.104C63.359 14.3841 63.6905 14.7457 63.9648 15.1889C64.2391 15.632 64.4416 16.1373 64.5724 16.7046L64.6273 16.9427C64.7581 17.51 64.7971 18.053 64.7445 18.5715C64.6907 19.0852 64.5504 19.553 64.3236 19.9749C64.1016 20.3957 63.7993 20.754 63.4168 21.0498C63.0332 21.3408 62.5794 21.5467 62.0553 21.6675C61.5263 21.7894 61.0258 21.8035 60.5535 21.7098C60.0801 21.6113 59.6491 21.422 59.2605 21.1419C58.8719 20.8618 58.5409 20.5026 58.2677 20.0643C57.9934 19.6212 57.7909 19.1159 57.6601 18.5485ZM58.4635 18.1127L58.5184 18.3507C58.617 18.7786 58.7684 19.1716 58.9724 19.5297C59.1754 19.8829 59.4218 20.1831 59.7117 20.4303C60.0005 20.6726 60.3278 20.8402 60.6935 20.9331C61.0593 21.0261 61.4561 21.0232 61.884 20.9246C62.3072 20.8271 62.6604 20.657 62.9438 20.4145C63.2319 20.1708 63.4528 19.8769 63.6064 19.5326C63.7589 19.1835 63.8466 18.8063 63.8696 18.4009C63.8964 17.9897 63.8604 17.5701 63.7618 17.1421L63.7069 16.9041C63.6094 16.481 63.4592 16.0928 63.2562 15.7396C63.0581 15.3852 62.8117 15.085 62.517 14.839C62.2271 14.5919 61.8987 14.4194 61.5318 14.3217C61.165 14.2239 60.77 14.2238 60.3469 14.3214C59.9237 14.4189 59.5686 14.5919 59.2816 14.8404C58.9993 15.0877 58.7795 15.3865 58.6223 15.7367C58.4698 16.0858 58.3796 16.4635 58.3518 16.87C58.3288 17.2753 58.366 17.6896 58.4635 18.1127Z" fill="#6A47DC"/>
<path d="M69.8571 16.4567L66.4062 12.3088L67.4708 12.258L70.27 15.6367L71.7486 15.5661L71.7054 16.3685L69.8571 16.4567ZM70.3852 16.3426L67.5421 20.2721L66.4183 20.3258L69.7982 15.6889L70.3852 16.3426ZM72.0545 12.0392L72.4363 20.0385L71.5565 20.0805L71.1747 12.0812L72.0545 12.0392ZM76.8452 11.8106L73.7902 16.269L71.9567 16.3565L71.8225 15.5626L73.3085 15.4917L75.7658 11.8621L76.8452 11.8106ZM76.4655 19.8462L73.2537 16.2057L73.7831 15.4987L77.5892 19.7926L76.4655 19.8462Z" fill="#6A47DC"/>
<path d="M81.569 20.5087C81.0497 20.446 80.5836 20.2927 80.1707 20.049C79.7627 19.8058 79.4181 19.4908 79.1368 19.104C78.8604 18.7177 78.6628 18.2763 78.5438 17.7798C78.4304 17.279 78.408 16.7445 78.4767 16.1762L78.5149 15.8603C78.5889 15.2479 78.7464 14.7053 78.9875 14.2325C79.2285 13.7596 79.5295 13.3661 79.8906 13.0519C80.2516 12.7376 80.6467 12.512 81.0758 12.375C81.5103 12.2337 81.953 12.1903 82.4036 12.2447C82.9082 12.3057 83.3455 12.4505 83.7155 12.6791C84.0861 12.9028 84.3838 13.1948 84.6086 13.5549C84.839 13.9108 84.9958 14.3199 85.0791 14.7823C85.163 15.2397 85.1727 15.7354 85.1081 16.2694L85.0433 16.8058L79.0253 16.0785L79.1159 15.329L84.2595 15.9506L84.2719 15.8478C84.316 15.4008 84.2757 14.9735 84.151 14.5657C84.0318 14.1537 83.8205 13.8051 83.5169 13.5199C83.2134 13.2347 82.8118 13.062 82.3122 13.0016C81.9399 12.9566 81.5875 12.9935 81.255 13.1124C80.9275 13.2318 80.6333 13.4249 80.3724 13.6916C80.117 13.954 79.9039 14.2786 79.7328 14.6655C79.5673 15.0481 79.4553 15.4819 79.3966 15.9668L79.3585 16.2828C79.3052 16.7237 79.3191 17.1429 79.4003 17.5404C79.487 17.9335 79.6329 18.2892 79.838 18.6072C80.048 18.9258 80.3098 19.1861 80.6234 19.388C80.9369 19.5899 81.2946 19.7151 81.6963 19.7637C82.1665 19.8205 82.5933 19.7851 82.9765 19.6575C83.3603 19.5249 83.7195 19.2875 84.0541 18.9452L84.5537 19.438C84.3515 19.672 84.1075 19.8811 83.8219 20.0653C83.5411 20.25 83.2142 20.3845 82.8412 20.4686C82.4682 20.5528 82.0441 20.5662 81.569 20.5087Z" fill="#6A47DC"/>
<path d="M92.7071 18.1694L92.5078 18.8975L87.9246 17.6432L88.1239 16.915L92.7071 18.1694ZM89.2909 13.5203L87.1768 21.2447L86.3273 21.0122L88.4414 13.2878L89.2909 13.5203ZM94.3096 14.8939L92.1955 22.6182L91.3388 22.3838L93.4529 14.6594L94.3096 14.8939Z" fill="#6A47DC"/>
<path d="M95.9956 22.4382L102.629 18.2023L103.44 18.5645L100.175 25.8769L99.3638 25.5148L102.044 19.5135L95.4102 23.7493L94.6127 23.3932L97.8781 16.0808L98.6755 16.4369L95.9956 22.4382Z" fill="#6A47DC"/>
<path d="M104.979 28.823C104.537 28.5427 104.183 28.2037 103.915 27.8059C103.651 27.4107 103.476 26.978 103.389 26.5076C103.306 26.04 103.318 25.5565 103.424 25.0572C103.537 24.5564 103.747 24.0644 104.054 23.5811L104.225 23.3124C104.555 22.7916 104.931 22.3698 105.352 22.0469C105.774 21.7239 106.215 21.4984 106.676 21.3704C107.137 21.2423 107.591 21.2088 108.037 21.27C108.49 21.3296 108.908 21.4811 109.292 21.7243C109.721 21.9967 110.053 22.3157 110.288 22.6814C110.526 23.0429 110.669 23.4346 110.717 23.8565C110.772 24.2769 110.737 24.7137 110.613 25.1668C110.492 25.6158 110.287 26.0673 109.999 26.5214L109.709 26.9776L104.591 23.7292L104.996 23.0918L109.37 25.8682L109.426 25.7807C109.658 25.3963 109.806 24.9933 109.869 24.5716C109.939 24.1485 109.898 23.7428 109.747 23.3547C109.596 22.9666 109.308 22.6377 108.883 22.368C108.566 22.167 108.232 22.0486 107.881 22.0127C107.534 21.9794 107.185 22.0269 106.835 22.1553C106.492 22.2821 106.159 22.4832 105.839 22.7587C105.524 23.0327 105.236 23.3759 104.975 23.7884L104.804 24.0571C104.566 24.432 104.398 24.8163 104.3 25.21C104.209 25.6022 104.188 25.986 104.236 26.3613C104.288 26.7393 104.412 27.087 104.608 27.4043C104.804 27.7215 105.073 27.9886 105.415 28.2054C105.815 28.4593 106.215 28.6111 106.616 28.661C107.019 28.7067 107.446 28.6471 107.895 28.4824L108.134 29.1423C107.85 29.2664 107.54 29.35 107.203 29.3932C106.87 29.439 106.517 29.4195 106.144 29.3348C105.771 29.2501 105.383 29.0795 104.979 28.823Z" fill="#6A47DC"/>
<circle cx="120.75" cy="39.0281" r="1" transform="rotate(-21.145 120.75 39.0281)" fill="#6A47DC"/>
<circle cx="27.0512" cy="112.795" r="1" transform="rotate(-21.145 27.0512 112.795)" fill="#6A47DC"/>
</g>
<defs>
<clipPath id="clip0_5001_24750">
<rect width="152" height="151" fill="white"/>
</clipPath>
</defs>
</svg>
