<svg width="152" height="151" viewBox="0 0 152 151" fill="none" xmlns="http://www.w3.org/2000/svg">
<path d="M140.053 60.3438L139.299 60.5609L137.839 55.4897L138.593 55.2726L140.053 60.3438ZM140.254 61.0408L129.898 64.0226L129.646 63.1478L140.002 60.166L140.254 61.0408ZM138.503 54.9596L138.753 55.8274L133.89 56.9424C133.085 57.123 132.367 57.2628 131.739 57.3617C131.111 57.4653 130.559 57.5166 130.081 57.5155C129.608 57.5131 129.201 57.4479 128.861 57.3198C128.523 57.1964 128.241 57.0028 128.016 56.739C127.798 56.4785 127.627 56.1348 127.504 55.7081L127.418 55.4094L128.165 55.1943L128.255 55.4534C128.345 55.7304 128.469 55.9565 128.627 56.1318C128.787 56.3117 128.996 56.4414 129.255 56.5209C129.52 56.6037 129.854 56.6386 130.256 56.6256C130.659 56.6173 131.147 56.5641 131.72 56.466C132.293 56.3727 132.971 56.2367 133.751 56.0582L138.503 54.9596Z" fill="white"/>
<path d="M131.4 68.5952L138.856 70.2115L138.969 71.1595L129.335 68.903C129.146 68.8562 128.934 68.7922 128.701 68.7109C128.468 68.6345 128.241 68.5226 128.019 68.3753C127.794 68.2334 127.602 68.0428 127.444 67.8034C127.281 67.5694 127.178 67.2712 127.135 66.9086C127.124 66.8155 127.122 66.694 127.128 66.5441C127.131 66.3997 127.138 66.2945 127.15 66.2284L127.891 66.1319C127.883 66.1875 127.88 66.2674 127.883 66.3715C127.885 66.4755 127.889 66.5471 127.894 66.5863C127.932 66.9048 128.018 67.1653 128.152 67.3679C128.286 67.5754 128.47 67.7397 128.703 67.8608C128.931 67.9824 129.211 68.0805 129.543 68.1549L131.4 68.5952ZM138.28 65.4202L131.758 68.7759L130.867 69.1214L130.43 68.5254L138.165 64.4649L138.28 65.4202Z" fill="white"/>
<path d="M139.026 79.9212L131.019 79.7619L131.037 78.8813L139.044 79.0406L139.026 79.9212ZM135.399 79.5455L134.636 79.5304C134.532 79.3013 134.434 79.0377 134.341 78.7398C134.248 78.4467 134.173 78.1368 134.115 77.8099C134.063 77.4881 134.039 77.1668 134.046 76.8462C134.059 76.1851 134.166 75.6271 134.368 75.1721C134.569 74.722 134.892 74.3855 135.335 74.1623C135.784 73.9393 136.378 73.8351 137.118 73.8498L139.153 73.8903L139.136 74.7709L137.101 74.7304C136.534 74.7192 136.083 74.7892 135.749 74.9405C135.421 75.0919 135.184 75.3265 135.039 75.6444C134.895 75.9623 134.818 76.368 134.808 76.8613C134.811 77.2019 134.839 77.5405 134.891 77.8772C134.949 78.2139 135.022 78.5263 135.11 78.8143C135.203 79.1073 135.299 79.3511 135.399 79.5455Z" fill="white"/>
<path d="M138.889 83.3119L138.716 84.1755L131.611 82.7529L130.91 86.251L138.015 87.6736L137.841 88.5445L130.736 87.1219L130.043 90.5837L137.148 92.0063L136.975 92.8699L129.122 91.2976L131.036 81.7396L138.889 83.3119Z" fill="white"/>
<path d="M127.004 96.5368C127.197 96.0504 127.463 95.6383 127.803 95.3007C128.142 94.9676 128.534 94.714 128.98 94.5399C129.423 94.3704 129.9 94.291 130.411 94.3017C130.924 94.3188 131.447 94.4326 131.979 94.6429L132.275 94.7599C132.849 94.9866 133.334 95.2765 133.73 95.6294C134.126 95.9824 134.431 96.3733 134.643 96.8022C134.856 97.231 134.974 97.6704 134.998 98.1202C135.024 98.5764 134.954 99.0156 134.787 99.4377C134.601 99.9104 134.35 100.297 134.035 100.597C133.725 100.899 133.367 101.113 132.961 101.239C132.559 101.372 132.123 101.42 131.655 101.383C131.191 101.348 130.709 101.232 130.209 101.034L129.706 100.836L131.935 95.1984L132.637 95.4759L130.732 100.294L130.829 100.332C131.25 100.488 131.674 100.557 132.1 100.54C132.528 100.529 132.919 100.413 133.272 100.192C133.625 99.9703 133.894 99.6256 134.078 99.1575C134.216 98.8088 134.27 98.4585 134.239 98.1068C134.207 97.7597 134.094 97.4261 133.902 97.1062C133.713 96.7927 133.453 96.5042 133.122 96.2408C132.794 95.9838 132.403 95.7655 131.948 95.5859L131.653 95.4689C131.24 95.3057 130.83 95.213 130.425 95.1909C130.023 95.1751 129.642 95.2262 129.282 95.344C128.921 95.4665 128.603 95.6538 128.328 95.906C128.053 96.1582 127.842 96.4724 127.693 96.8487C127.519 97.2893 127.445 97.7111 127.471 98.1141C127.502 98.519 127.641 98.9266 127.887 99.337L127.284 99.6955C127.109 99.4406 126.969 99.1516 126.863 98.8286C126.755 98.5102 126.708 98.1599 126.721 97.7777C126.734 97.3956 126.829 96.9819 127.004 96.5368Z" fill="white"/>
<path d="M123.666 103.522C123.923 103.067 124.244 102.695 124.627 102.408C125.008 102.124 125.432 101.927 125.897 101.816C126.36 101.709 126.843 101.696 127.347 101.777C127.853 101.865 128.355 102.05 128.854 102.331L129.131 102.488C129.668 102.791 130.108 103.145 130.452 103.549C130.796 103.954 131.044 104.383 131.195 104.837C131.347 105.291 131.403 105.742 131.365 106.191C131.328 106.647 131.198 107.072 130.975 107.467C130.725 107.91 130.423 108.258 130.07 108.511C129.721 108.768 129.337 108.93 128.918 109C128.501 109.076 128.063 109.063 127.605 108.963C127.15 108.864 126.689 108.683 126.22 108.418L125.75 108.152L128.733 102.875L129.39 103.247L126.841 107.757L126.931 107.808C127.327 108.02 127.737 108.147 128.161 108.189C128.587 108.237 128.99 108.176 129.37 108.005C129.75 107.834 130.064 107.53 130.311 107.092C130.496 106.765 130.597 106.426 130.615 106.073C130.631 105.725 130.565 105.379 130.419 105.036C130.275 104.699 130.057 104.378 129.766 104.071C129.476 103.772 129.119 103.501 128.694 103.261L128.416 103.104C128.03 102.886 127.637 102.738 127.239 102.66C126.843 102.589 126.459 102.587 126.086 102.654C125.711 102.726 125.371 102.868 125.064 103.08C124.757 103.292 124.504 103.574 124.305 103.926C124.072 104.338 123.94 104.746 123.911 105.149C123.886 105.554 123.967 105.977 124.155 106.417L123.508 106.689C123.369 106.413 123.27 106.107 123.21 105.773C123.147 105.442 123.148 105.089 123.214 104.712C123.28 104.335 123.43 103.939 123.666 103.522Z" fill="white"/>
<path d="M121.188 120.446L120.617 119.93L123.757 116.453L124.329 116.969L121.188 120.446ZM124.195 117.117L118.252 111.749L118.842 111.096L124.785 116.464L124.195 117.117ZM120.702 120.984L114.759 115.616L115.354 114.957L121.297 120.325L120.702 120.984Z" fill="white"/>
<path d="M116.388 122.944L110.391 115.514L111.082 114.957L118.046 123.584L117.401 124.105L116.388 122.944ZM110.555 124.58L110.457 124.459C110.082 123.994 109.792 123.524 109.587 123.05C109.381 122.575 109.265 122.114 109.24 121.665C109.213 121.224 109.285 120.807 109.457 120.415C109.629 120.023 109.903 119.675 110.279 119.371C110.652 119.07 111.03 118.86 111.415 118.74C111.8 118.619 112.183 118.579 112.565 118.62C112.945 118.668 113.314 118.783 113.67 118.964C114.025 119.153 114.366 119.398 114.692 119.7L115.979 121.295C116.225 121.718 116.407 122.136 116.525 122.548C116.642 122.961 116.689 123.36 116.665 123.747C116.637 124.137 116.53 124.507 116.342 124.855C116.153 125.203 115.877 125.525 115.512 125.819C115.132 126.126 114.734 126.324 114.317 126.413C113.9 126.509 113.477 126.498 113.047 126.382C112.616 126.273 112.191 126.065 111.771 125.757C111.351 125.456 110.945 125.063 110.555 124.58ZM111.148 123.901L111.246 124.022C111.54 124.387 111.852 124.693 112.179 124.942C112.503 125.195 112.835 125.374 113.175 125.48C113.514 125.594 113.853 125.621 114.192 125.562C114.528 125.507 114.855 125.351 115.174 125.094C115.504 124.827 115.741 124.544 115.886 124.243C116.029 123.95 116.105 123.651 116.113 123.346C116.124 123.046 116.089 122.754 116.006 122.472C115.924 122.189 115.822 121.929 115.7 121.692L114.217 119.854C113.909 119.621 113.573 119.445 113.21 119.326C112.851 119.21 112.476 119.186 112.086 119.253C111.696 119.327 111.305 119.523 110.913 119.839C110.599 120.093 110.379 120.378 110.254 120.695C110.129 121.011 110.086 121.347 110.125 121.702C110.161 122.06 110.267 122.424 110.445 122.794C110.62 123.167 110.854 123.536 111.148 123.901Z" fill="white"/>
<path d="M106.12 124.389L105.682 132.247L104.914 132.694L100.887 125.772L101.655 125.325L104.96 131.006L105.398 123.148L106.153 122.709L110.18 129.631L109.425 130.07L106.12 124.389Z" fill="white"/>
<path d="M100.939 135.024L100.649 134.273L96.6869 135.805L96.9777 136.557L100.939 135.024ZM101.641 134.753L98.6152 126.931L97.7549 127.264L100.78 135.086L101.641 134.753ZM96.7464 136.646L97.6066 136.313L96.0155 132.715C95.7573 132.134 95.506 131.627 95.2614 131.195C95.0217 130.762 94.783 130.402 94.5454 130.118C94.3097 129.838 94.065 129.627 93.8113 129.487C93.5625 129.345 93.298 129.27 93.0179 129.262C92.7396 129.259 92.439 129.32 92.1161 129.445L91.7908 129.571L92.0928 130.351L92.3631 130.255C92.574 130.185 92.7715 130.158 92.9556 130.176C93.1444 130.191 93.3269 130.262 93.503 130.388C93.6839 130.512 93.8637 130.697 94.0422 130.944C94.2256 131.189 94.4154 131.5 94.6116 131.879C94.8145 132.26 95.0324 132.716 95.2653 133.247L96.7464 136.646Z" fill="white"/>
<path d="M91.6955 133.663L91.7476 133.902C91.8718 134.471 91.9046 135.014 91.846 135.532C91.7874 136.05 91.6447 136.518 91.4178 136.936C91.1861 137.356 90.8769 137.708 90.4899 137.995C90.1041 138.286 89.6484 138.489 89.1229 138.604C88.5927 138.72 88.0914 138.726 87.6192 138.622C87.1481 138.523 86.7198 138.331 86.3344 138.047C85.949 137.762 85.6217 137.397 85.3525 136.95C85.0834 136.504 84.8866 135.997 84.7624 135.428L84.7103 135.189C84.586 134.62 84.5532 134.077 84.6119 133.559C84.6715 133.046 84.8172 132.58 85.0489 132.16C85.2757 131.742 85.5821 131.387 85.9679 131.096C86.3549 130.81 86.811 130.609 87.3365 130.494C87.8668 130.378 88.3675 130.37 88.8386 130.469C89.3109 130.573 89.7396 130.767 90.125 131.052C90.5104 131.336 90.8372 131.699 91.1053 132.141C91.3745 132.587 91.5712 133.095 91.6955 133.663ZM90.8871 134.09L90.835 133.851C90.7413 133.422 90.5944 133.028 90.3945 132.667C90.1956 132.312 89.9527 132.009 89.6657 131.758C89.3797 131.513 89.0544 131.341 88.6897 131.244C88.3251 131.147 87.9282 131.145 87.4992 131.239C87.0749 131.332 86.7198 131.498 86.4336 131.737C86.1427 131.977 85.9184 132.269 85.7609 132.611C85.6044 132.958 85.5123 133.335 85.4846 133.74C85.4532 134.15 85.4843 134.57 85.578 135L85.6301 135.238C85.7228 135.662 85.8685 136.052 86.0674 136.408C86.2615 136.764 86.5044 137.067 86.7963 137.317C87.0833 137.567 87.4097 137.743 87.7754 137.845C88.1411 137.947 88.536 137.952 88.9603 137.859C89.3845 137.767 89.7415 137.598 90.0315 137.353C90.3165 137.109 90.5397 136.812 90.701 136.464C90.8575 136.117 90.952 135.74 90.9845 135.334C91.0122 134.929 90.9797 134.514 90.8871 134.09Z" fill="white"/>
<path d="M79.5766 135.59L82.9804 139.776L81.9153 139.815L79.1545 136.405L77.6752 136.459L77.7274 135.657L79.5766 135.59ZM79.0473 135.698L81.9346 131.801L83.0589 131.76L79.6268 136.358L79.0473 135.698ZM77.3294 139.982L77.0381 131.979L77.9182 131.947L78.2096 139.95L77.3294 139.982ZM72.5364 140.156L75.6416 135.733L77.476 135.666L77.6012 136.461L76.1145 136.516L73.6163 140.117L72.5364 140.156ZM73.0069 132.126L76.1774 135.802L75.64 136.503L71.8826 132.167L73.0069 132.126Z" fill="white"/>
<path d="M67.6727 131.369C68.1912 131.437 68.6555 131.596 69.0657 131.844C69.471 132.092 69.8121 132.411 70.0891 132.8C70.3612 133.19 70.5539 133.633 70.6673 134.131C70.7752 134.633 70.7917 135.168 70.7167 135.735L70.675 136.051C70.5942 136.662 70.4307 137.203 70.1844 137.673C69.9382 138.143 69.6328 138.534 69.2683 138.844C68.9038 139.154 68.5062 139.375 68.0757 139.508C67.6395 139.644 67.1965 139.683 66.7464 139.623C66.2426 139.557 65.8069 139.407 65.4395 139.174C65.0714 138.946 64.7769 138.651 64.5561 138.289C64.3297 137.93 64.1774 137.519 64.0992 137.056C64.0204 136.598 64.0163 136.102 64.0867 135.569L64.1575 135.033L70.1671 135.827L70.0682 136.575L64.9318 135.897L64.9182 136C64.8692 136.446 64.9047 136.874 65.0249 137.283C65.1395 137.696 65.347 138.047 65.6473 138.336C65.9477 138.624 66.3473 138.801 66.8463 138.867C67.218 138.916 67.5708 138.883 67.9046 138.768C68.2334 138.652 68.5298 138.463 68.7936 138.199C69.0518 137.939 69.2686 137.617 69.4439 137.232C69.6136 136.851 69.7305 136.419 69.7945 135.935L69.8362 135.619C69.8943 135.179 69.885 134.759 69.8083 134.361C69.7259 133.967 69.584 133.61 69.3824 133.289C69.176 132.969 68.9171 132.705 68.6058 132.5C68.2944 132.295 67.9382 132.165 67.5371 132.112C67.0675 132.05 66.6404 132.081 66.2558 132.204C65.8705 132.333 65.5087 132.566 65.1703 132.905L64.6762 132.406C64.881 132.175 65.1273 131.968 65.415 131.787C65.6978 131.606 66.0261 131.475 66.4 131.395C66.774 131.315 67.1982 131.306 67.6727 131.369Z" fill="white"/>
<path d="M56.6183 133.575L56.8255 132.849L61.3947 134.153L61.1875 134.879L56.6183 133.575ZM59.9834 138.261L62.1819 130.56L63.0288 130.802L60.8303 138.503L59.9834 138.261ZM54.9801 136.833L57.1786 129.132L58.0326 129.376L55.8341 137.077L54.9801 136.833Z" fill="white"/>
<path d="M53.3915 129.248L46.7123 133.411L45.9053 133.04L49.2502 125.763L50.0571 126.134L47.312 132.106L53.9913 127.943L54.7848 128.308L51.4399 135.584L50.6464 135.219L53.3915 129.248Z" fill="white"/>
<path d="M44.5251 122.766C44.9636 123.051 45.3144 123.394 45.5777 123.794C45.8369 124.192 46.0075 124.627 46.0895 125.098C46.1674 125.567 46.1504 126.05 46.0384 126.548C45.9196 127.048 45.7042 127.537 45.3922 128.017L45.2188 128.284C44.8825 128.801 44.5021 129.219 44.0774 129.537C43.6526 129.856 43.209 130.076 42.7465 130.199C42.2839 130.322 41.8298 130.351 41.3843 130.285C40.9319 130.22 40.5154 130.064 40.1348 129.817C39.7087 129.54 39.38 129.217 39.1485 128.849C38.9144 128.485 38.7758 128.091 38.7326 127.669C38.6826 127.248 38.7221 126.812 38.851 126.36C38.9772 125.912 39.187 125.463 39.4801 125.012L39.7747 124.559L44.8567 127.863L44.4452 128.496L40.1015 125.672L40.0451 125.759C39.8086 126.141 39.6565 126.542 39.5888 126.963C39.5143 127.386 39.5504 127.792 39.6972 128.181C39.844 128.571 40.1284 128.903 40.5504 129.177C40.8648 129.382 41.1974 129.504 41.5482 129.544C41.8949 129.581 42.2441 129.537 42.5958 129.413C42.9406 129.29 43.275 129.092 43.599 128.82C43.9161 128.55 44.2078 128.21 44.4741 127.8L44.6476 127.533C44.8897 127.161 45.0618 126.778 45.1641 126.386C45.2595 125.995 45.2852 125.611 45.2412 125.235C45.193 124.857 45.0727 124.508 44.8801 124.188C44.6876 123.869 44.4217 123.599 44.0825 123.378C43.6854 123.12 43.2867 122.964 42.8864 122.91C42.4835 122.86 42.0564 122.914 41.6052 123.074L41.3738 122.412C41.6585 122.291 41.9696 122.211 42.3072 122.171C42.6407 122.129 42.9934 122.152 43.3653 122.241C43.7372 122.33 44.1238 122.505 44.5251 122.766Z" fill="white"/>
<path d="M10.2723 92.4269L11.0237 92.2012L12.5423 97.2552L11.791 97.481L10.2723 92.4269ZM10.0635 91.7323L20.3842 88.631L20.6462 89.5029L10.3255 92.6041L10.0635 91.7323ZM11.8847 97.7928L11.6248 96.9281L16.4741 95.7569C17.2775 95.567 17.993 95.419 18.6206 95.3128C19.2467 95.2019 19.7987 95.1443 20.2765 95.1398C20.7496 95.1368 21.1568 95.1973 21.4981 95.3215C21.838 95.4409 22.1219 95.6312 22.3498 95.8925C22.5716 96.1504 22.7464 96.4921 22.8742 96.9174L22.9636 97.2151L22.2193 97.4387L22.1264 97.1807C22.0331 96.9047 21.9064 96.6801 21.7461 96.5067C21.5843 96.3286 21.3735 96.2013 21.1135 96.1249C20.8474 96.0451 20.5135 96.0141 20.1118 96.0317C19.7086 96.0447 19.2214 96.1035 18.65 96.2082C18.0772 96.3082 17.4017 96.4519 16.6234 96.6394L11.8847 97.7928Z" fill="white"/>
<path d="M18.7943 83.8765L11.3271 82.3168L11.206 81.3698L20.8572 83.5529C21.047 83.5983 21.259 83.6607 21.493 83.7403C21.7264 83.8149 21.9544 83.925 22.1769 84.0706C22.4038 84.2108 22.5971 84.3999 22.7569 84.6382C22.921 84.8709 23.0262 85.1684 23.0725 85.5305C23.0844 85.6235 23.0875 85.745 23.0818 85.895C23.0804 86.0394 23.074 86.1447 23.0625 86.2108L22.3219 86.313C22.3297 86.2573 22.332 86.1774 22.3286 86.0734C22.3252 85.9693 22.3211 85.8978 22.3161 85.8586C22.2754 85.5405 22.1874 85.2806 22.0522 85.079C21.9164 84.8725 21.7314 84.7096 21.4972 84.5904C21.268 84.4704 20.9871 84.3745 20.6546 84.3026L18.7943 83.8765ZM11.9393 87.1036L18.4358 83.6985L19.3234 83.3462L19.7649 83.9389L12.0613 88.058L11.9393 87.1036Z" fill="white"/>
<path d="M11.0755 72.6311L19.0833 72.7304L19.0724 73.6112L11.0646 73.5118L11.0755 72.6311ZM14.7056 72.9796L15.4679 72.9891C15.5736 73.2174 15.674 73.4802 15.769 73.7774C15.8641 74.0698 15.9416 74.3791 16.0017 74.7056C16.057 75.027 16.0826 75.3481 16.0786 75.6688C16.0704 76.33 15.9673 76.8888 15.7691 77.3452C15.5711 77.7968 15.2511 78.1358 14.8091 78.3622C14.3621 78.5886 13.7686 78.6972 13.0285 78.688L10.9933 78.6628L11.0042 77.7821L13.0395 77.8073C13.6069 77.8143 14.0568 77.741 14.3894 77.5872C14.717 77.4333 14.9518 77.1969 15.094 76.8779C15.2361 76.5589 15.3102 76.1527 15.3163 75.6593C15.3107 75.3188 15.2803 74.9804 15.2253 74.6441C15.1653 74.3078 15.0902 73.996 15 73.7087C14.905 73.4164 14.8068 73.1733 14.7056 72.9796Z" fill="white"/>
<path d="M11.1231 69.6L11.2865 68.7345L18.4068 70.0788L19.0686 66.5732L11.9484 65.229L12.1131 64.3562L19.2334 65.7005L19.8884 62.2312L12.7681 60.887L12.9315 60.0215L20.8009 61.5072L18.9925 71.0857L11.1231 69.6Z" fill="white"/>
<path d="M22.8794 56.0877C22.6925 56.5762 22.4307 56.9911 22.094 57.3325C21.7591 57.6692 21.3698 57.9271 20.9262 58.106C20.4844 58.2804 20.0082 58.365 19.4977 58.3598C18.9844 58.3483 18.4604 58.2402 17.9258 58.0357L17.6286 57.9219C17.0525 57.7015 16.5644 57.417 16.1642 57.0683C15.764 56.7197 15.4553 56.3321 15.2381 55.9056C15.021 55.4791 14.898 55.0411 14.8692 54.5916C14.8376 54.1357 14.903 53.6958 15.0652 53.2718C15.2468 52.7971 15.4935 52.4081 15.805 52.1047C16.112 51.7995 16.4675 51.5815 16.8715 51.4508C17.2727 51.3137 17.7076 51.2609 18.1764 51.2924C18.6405 51.322 19.1237 51.433 19.626 51.6252L20.1307 51.8183L17.9642 57.4798L17.2591 57.21L19.1108 52.3711L19.014 52.3341C18.5911 52.1828 18.1668 52.1182 17.741 52.1402C17.3124 52.1558 16.9229 52.2762 16.5725 52.5014C16.2222 52.7266 15.9571 53.0742 15.7772 53.5443C15.6432 53.8945 15.5935 54.2453 15.6281 54.5967C15.6644 54.9434 15.7803 55.2757 15.9757 55.5935C16.1683 55.9049 16.4314 56.1906 16.7652 56.4504C17.0962 56.7038 17.4898 56.9178 17.946 57.0924L18.2433 57.2062C18.658 57.3649 19.0681 57.4531 19.4734 57.4708C19.8758 57.4822 20.2562 57.427 20.6145 57.3052C20.9746 57.1788 21.2906 56.9881 21.5626 56.7329C21.8346 56.4777 22.0429 56.1612 22.1875 55.7833C22.3568 55.3409 22.4261 54.9183 22.3953 54.5156C22.3599 54.111 22.2168 53.7049 21.966 53.2973L22.5653 52.9322C22.7432 53.1852 22.8868 53.4726 22.9961 53.7945C23.1072 54.1117 23.1583 54.4615 23.1493 54.8437C23.1404 55.226 23.0504 55.6406 22.8794 56.0877Z" fill="white"/>
<path d="M26.15 49.0305C25.8976 49.4886 25.5811 49.8635 25.2006 50.1553C24.8226 50.4427 24.4015 50.6446 23.9375 50.7607C23.4759 50.8726 22.9926 50.8908 22.4877 50.8154C21.9808 50.7333 21.4767 50.5542 20.9754 50.2779L20.6966 50.1244C20.1564 49.8267 19.7121 49.4777 19.3637 49.0773C19.0153 48.6769 18.7629 48.2505 18.6065 47.7981C18.4502 47.3458 18.3887 46.895 18.4221 46.4458C18.4536 45.9899 18.5788 45.5632 18.7979 45.1656C19.0432 44.7204 19.341 44.369 19.6914 44.1114C20.0375 43.8514 20.4196 43.6845 20.8377 43.6106C21.2539 43.5301 21.692 43.5377 22.1519 43.6333C22.6076 43.7266 23.0709 43.9031 23.542 44.1626L24.0152 44.4234L21.0899 49.7326L20.4287 49.3683L22.929 44.8305L22.8382 44.7805C22.4402 44.5724 22.0288 44.45 21.604 44.4131C21.1773 44.3696 20.7749 44.4352 20.3969 44.61C20.0189 44.7848 19.7085 45.0926 19.4656 45.5335C19.2846 45.8619 19.1871 46.2025 19.173 46.5553C19.1613 46.9038 19.2303 47.2489 19.3801 47.5905C19.5279 47.9255 19.7492 48.2446 20.0441 48.5479C20.337 48.8445 20.6974 49.1107 21.1252 49.3464L21.404 49.5C21.793 49.7143 22.1869 49.8582 22.5859 49.9315C22.983 49.9982 23.3674 49.9959 23.739 49.9246C24.1131 49.849 24.4524 49.7036 24.7569 49.4883C25.0614 49.273 25.3113 48.9881 25.5066 48.6338C25.7352 48.2189 25.862 47.8099 25.8869 47.4067C25.9075 47.0012 25.8217 46.5792 25.6294 46.1409L26.2733 45.8619C26.4147 46.137 26.5174 46.4414 26.5813 46.7752C26.6476 47.1047 26.6501 47.4582 26.5886 47.8356C26.5272 48.213 26.3809 48.6113 26.15 49.0305Z" fill="white"/>
<path d="M28.2277 32.3114L28.8046 32.821L25.7029 36.3324L25.126 35.8228L28.2277 32.3114ZM25.2583 35.6731L31.2604 40.9749L30.6773 41.635L24.6752 36.3332L25.2583 35.6731ZM28.7079 31.7678L34.71 37.0696L34.122 37.7353L28.1199 32.4335L28.7079 31.7678Z" fill="white"/>
<path d="M33.1348 29.5819L39.2154 36.9432L38.5306 37.5088L31.4696 28.9606L32.1087 28.4327L33.1348 29.5819ZM38.9485 27.8804L39.0475 28.0002C39.4277 28.4606 39.7233 28.9268 39.9342 29.3991C40.145 29.8713 40.2659 30.3314 40.2968 30.7795C40.3284 31.2206 40.2606 31.6382 40.0933 32.0324C39.9261 32.4265 39.6561 32.7776 39.2833 33.0855C38.9142 33.3903 38.538 33.6051 38.1546 33.7298C37.7712 33.8545 37.3885 33.8986 37.0064 33.8622C36.625 33.8189 36.2553 33.7083 35.8972 33.5305C35.5398 33.3457 35.1965 33.1045 34.8674 32.8067L33.5617 31.2261C33.3108 30.8061 33.1243 30.3905 33.0023 29.9793C32.8802 29.5682 32.8289 29.169 32.8483 28.7818C32.8714 28.3914 32.9751 28.021 33.1592 27.6705C33.3433 27.3201 33.616 26.9956 33.9774 26.697C34.3541 26.3859 34.7501 26.1836 35.1656 26.09C35.5817 25.9894 36.0053 25.9947 36.4364 26.1059C36.868 26.2101 37.2955 26.4138 37.7187 26.717C38.1427 27.0133 38.5526 27.4011 38.9485 27.8804ZM38.3627 28.5659L38.2638 28.446C37.9652 28.0846 37.6506 27.7813 37.32 27.536C36.9932 27.2875 36.6594 27.112 36.3187 27.0095C35.9787 26.9 35.6392 26.8764 35.3003 26.9387C34.9652 26.9979 34.6398 27.1579 34.324 27.4188C33.9968 27.689 33.7628 27.9751 33.6218 28.2772C33.4816 28.5722 33.4092 28.872 33.4047 29.1765C33.3971 29.4772 33.436 29.7683 33.5213 30.0498C33.6066 30.3313 33.7116 30.5902 33.8363 30.8264L35.34 32.6467C35.6511 32.8762 35.9887 33.0485 36.3527 33.1638C36.7136 33.2753 37.0885 33.2952 37.4773 33.2236C37.8669 33.1451 38.2556 32.9456 38.6437 32.625C38.9556 32.3673 39.1723 32.0796 39.2937 31.7617C39.4151 31.4438 39.4542 31.1075 39.4109 30.7529C39.3714 30.3951 39.2605 30.0323 39.0782 29.6645C38.8998 29.2935 38.6613 28.9273 38.3627 28.5659Z" fill="white"/>
<path d="M43.4574 27.9477L43.8348 20.0862L44.599 19.6337L48.6791 26.5248L47.9148 26.9773L44.5663 21.3217L44.189 29.1832L43.4374 29.6282L39.3574 22.7371L40.109 22.2921L43.4574 27.9477Z" fill="white"/>
<path d="M52.5947 16.035L52.8834 16.7486L49.1235 18.2699L48.8348 17.5564L52.5947 16.035ZM53.2602 15.7657L56.264 23.1894L55.4476 23.5198L52.4437 16.0961L53.2602 15.7657ZM48.6152 17.6452L49.4317 17.3148L50.6746 20.86C50.8748 21.4338 51.0308 21.9508 51.1425 22.4113C51.2589 22.8699 51.3274 23.276 51.3481 23.6296C51.3669 23.9786 51.3337 24.2848 51.2486 24.5481C51.1681 24.8096 51.033 25.0346 50.8431 25.2232C50.6514 25.4072 50.4024 25.5612 50.0959 25.6852L49.7872 25.8101L49.4873 25.0692L49.7384 24.9596C49.9314 24.8708 50.0863 24.7603 50.203 24.6279C50.3244 24.4936 50.4052 24.3251 50.4457 24.1225C50.4907 23.918 50.4947 23.6715 50.4578 23.383C50.4255 23.0926 50.3541 22.7516 50.2435 22.3599C50.1356 21.9617 49.9894 21.5019 49.805 20.9803L48.6152 17.6452Z" fill="white"/>
<path d="M57.6609 18.5485L57.606 18.3105C57.4752 17.7431 57.4362 17.2001 57.4888 16.6816C57.5415 16.1631 57.6788 15.6935 57.9008 15.2726C58.1276 14.8507 58.4329 14.4943 58.8165 14.2033C59.199 13.9075 59.6523 13.6992 60.1764 13.5784C60.7053 13.4565 61.2064 13.4448 61.6798 13.5433C62.152 13.637 62.5825 13.8239 62.9711 14.104C63.3598 14.3841 63.6912 14.7457 63.9655 15.1888C64.2398 15.632 64.4424 16.1372 64.5732 16.7046L64.628 16.9426C64.7588 17.51 64.7978 18.0529 64.7452 18.5714C64.6914 19.0851 64.5511 19.5529 64.3243 19.9749C64.1023 20.3957 63.8 20.754 63.4175 21.0497C63.0339 21.3407 62.5801 21.5466 62.056 21.6674C61.5271 21.7893 61.0265 21.8034 60.5542 21.7097C60.0809 21.6112 59.6499 21.4219 59.2612 21.1419C58.8726 20.8618 58.5417 20.5026 58.2685 20.0642C57.9942 19.6211 57.7916 19.1158 57.6609 18.5485ZM58.4643 18.1126L58.5191 18.3506C58.6178 18.7786 58.7691 19.1716 58.9732 19.5296C59.1761 19.8829 59.4225 20.1831 59.7124 20.4302C60.0012 20.6725 60.3285 20.8402 60.6942 20.9331C61.06 21.026 61.4568 21.0232 61.8848 20.9245C62.3079 20.827 62.6611 20.657 62.9445 20.4144C63.2327 20.1708 63.4535 19.8768 63.6071 19.5325C63.7596 19.1834 63.8473 18.8062 63.8704 18.4009C63.8971 17.9896 63.8612 17.57 63.7625 17.1421L63.7077 16.9041C63.6101 16.4809 63.4599 16.0928 63.257 15.7395C63.0588 15.3851 62.8124 15.0849 62.5177 14.8389C62.2278 14.5918 61.8994 14.4194 61.5326 14.3216C61.1657 14.2239 60.7707 14.2238 60.3476 14.3213C59.9245 14.4188 59.5694 14.5918 59.2823 14.8403C59 15.0876 58.7803 15.3864 58.623 15.7366C58.4705 16.0857 58.3804 16.4635 58.3525 16.8699C58.3295 17.2753 58.3667 17.6895 58.4643 18.1126Z" fill="white"/>
<path d="M69.8573 16.4567L66.4064 12.3088L67.471 12.258L70.2702 15.6367L71.7488 15.5661L71.7056 16.3685L69.8573 16.4567ZM70.3854 16.3426L67.5423 20.2721L66.4186 20.3258L69.7985 15.6889L70.3854 16.3426ZM72.0547 12.0392L72.4365 20.0385L71.5567 20.0805L71.1749 12.0812L72.0547 12.0392ZM76.8454 11.8106L73.7904 16.269L71.957 16.3565L71.8227 15.5626L73.3088 15.4917L75.766 11.8621L76.8454 11.8106ZM76.4657 19.8462L73.2539 16.2057L73.7833 15.4987L77.5895 19.7926L76.4657 19.8462Z" fill="white"/>
<path d="M81.5704 20.5087C81.0512 20.4459 80.5851 20.2927 80.1722 20.0489C79.7642 19.8058 79.4196 19.4908 79.1383 19.1039C78.8619 18.7176 78.6642 18.2762 78.5453 17.7797C78.4319 17.2789 78.4095 16.7444 78.4782 16.1762L78.5163 15.8602C78.5904 15.2479 78.7479 14.7053 78.9889 14.2324C79.23 13.7596 79.531 13.366 79.892 13.0518C80.2531 12.7376 80.6481 12.512 81.0772 12.3749C81.5118 12.2336 81.9544 12.1902 82.4051 12.2447C82.9097 12.3056 83.347 12.4504 83.7169 12.679C84.0875 12.9028 84.3852 13.1947 84.6101 13.5549C84.8405 13.9108 84.9973 14.3199 85.0806 14.7822C85.1645 15.2397 85.1741 15.7354 85.1096 16.2693L85.0448 16.8057L79.0268 16.0785L79.1173 15.329L84.2609 15.9506L84.2734 15.8477C84.3175 15.4007 84.2771 14.9734 84.1525 14.5657C84.0333 14.1537 83.8219 13.8051 83.5184 13.5199C83.2149 13.2347 82.8133 13.0619 82.3136 13.0015C81.9413 12.9565 81.589 12.9934 81.2565 13.1123C80.9289 13.2318 80.6347 13.4249 80.3739 13.6915C80.1185 13.9539 79.9053 14.2786 79.7343 14.6655C79.5688 15.048 79.4567 15.4818 79.3981 15.9668L79.3599 16.2827C79.3066 16.7236 79.3206 17.1428 79.4018 17.5403C79.4885 17.9335 79.6344 18.2891 79.8395 18.6071C80.0495 18.9257 80.3113 19.186 80.6248 19.3879C80.9384 19.5898 81.296 19.7151 81.6977 19.7636C82.168 19.8204 82.5948 19.785 82.978 19.6574C83.3618 19.5248 83.721 19.2874 84.0556 18.9452L84.5552 19.438C84.353 19.672 84.109 19.8811 83.8233 20.0652C83.5426 20.25 83.2157 20.3844 82.8427 20.4686C82.4697 20.5527 82.0456 20.5661 81.5704 20.5087Z" fill="white"/>
<path d="M92.7083 18.1694L92.509 18.8975L87.9259 17.6432L88.1251 16.915L92.7083 18.1694ZM89.2921 13.5203L87.1781 21.2447L86.3285 21.0122L88.4426 13.2878L89.2921 13.5203ZM94.3108 14.8939L92.1967 22.6182L91.3401 22.3838L93.4541 14.6594L94.3108 14.8939Z" fill="white"/>
<path d="M95.9971 22.4382L102.631 18.2023L103.442 18.5644L100.176 25.8769L99.3652 25.5147L102.045 19.5134L95.4116 23.7493L94.6142 23.3931L97.8795 16.0807L98.677 16.4368L95.9971 22.4382Z" fill="white"/>
<path d="M104.98 28.823C104.538 28.5427 104.184 28.2037 103.916 27.8059C103.653 27.4107 103.477 26.978 103.39 26.5076C103.307 26.04 103.319 25.5565 103.425 25.0572C103.539 24.5564 103.749 24.0644 104.055 23.5811L104.226 23.3124C104.556 22.7916 104.932 22.3698 105.354 22.0469C105.775 21.7239 106.216 21.4984 106.677 21.3704C107.138 21.2423 107.592 21.2088 108.038 21.27C108.491 21.3296 108.909 21.4811 109.293 21.7243C109.722 21.9967 110.054 22.3157 110.29 22.6814C110.528 23.0429 110.671 23.4346 110.718 23.8565C110.773 24.2769 110.738 24.7137 110.614 25.1668C110.493 25.6158 110.288 26.0673 110 26.5214L109.711 26.9776L104.593 23.7292L104.997 23.0918L109.371 25.8682L109.427 25.7807C109.659 25.3963 109.807 24.9933 109.87 24.5716C109.94 24.1485 109.899 23.7428 109.748 23.3547C109.597 22.9666 109.309 22.6377 108.884 22.368C108.568 22.167 108.234 22.0486 107.882 22.0127C107.535 21.9794 107.187 22.0269 106.836 22.1553C106.493 22.2821 106.161 22.4832 105.84 22.7587C105.526 23.0327 105.238 23.3759 104.976 23.7884L104.805 24.0571C104.567 24.432 104.399 24.8163 104.301 25.21C104.21 25.6022 104.189 25.986 104.237 26.3613C104.289 26.7393 104.413 27.087 104.609 27.4043C104.805 27.7215 105.074 27.9886 105.416 28.2054C105.816 28.4593 106.216 28.6111 106.617 28.661C107.02 28.7067 107.447 28.6471 107.896 28.4824L108.135 29.1423C107.852 29.2664 107.541 29.35 107.204 29.3932C106.871 29.439 106.518 29.4195 106.146 29.3348C105.773 29.2501 105.384 29.0795 104.98 28.823Z" fill="white"/>
</svg>
