<svg width="90" height="75" viewBox="0 0 90 75" fill="none" xmlns="http://www.w3.org/2000/svg">
<mask id="mask0_5001_24848" style="mask-type:luminance" maskUnits="userSpaceOnUse" x="0" y="24" width="90" height="26">
<path d="M89.7925 24H0V49.286H89.7925V24Z" fill="white"/>
</mask>
<g mask="url(#mask0_5001_24848)">
<path d="M2.54762 25.1053H0.984375V31.1709H2.54762V25.1053Z" fill="#6A47DC"/>
<path d="M2.54762 31.1709H0.984375V37.2365H2.54762V31.1709Z" fill="#6A47DC"/>
<path d="M2.54762 37.2366H0.984375V43.3021H2.54762V37.2366Z" fill="#6A47DC"/>
<path d="M2.54762 43.3019H0.984375V49.3675H2.54762V43.3019Z" fill="#6A47DC"/>
<path d="M9.35352 38.1132C9.80143 38.0161 10.2903 37.9485 10.8202 37.9132C11.3501 37.8749 11.8682 37.8573 12.3834 37.8573C12.9279 37.8573 13.4813 37.9044 14.0404 38.0014C14.6025 38.0985 15.1118 38.275 15.5714 38.5339C16.0311 38.7927 16.4057 39.1487 16.7015 39.6046C16.9942 40.0606 17.1435 40.6489 17.1435 41.3666C17.1435 42.0432 17.0088 42.6198 16.7425 43.0963C16.4761 43.5728 16.1189 43.9641 15.6769 44.2641C15.2348 44.5642 14.7254 44.7848 14.1546 44.923C13.5837 45.0613 12.9923 45.1319 12.3834 45.1319C12.319 45.1319 12.2195 45.1289 12.0878 45.1231C11.9531 45.1172 11.8155 45.1113 11.6721 45.1084C11.5286 45.1025 11.3881 45.0937 11.2564 45.0848C11.1217 45.073 11.0251 45.0642 10.9607 45.0525V49.2707H9.35936V38.1132H9.35352ZM12.4303 39.2722C12.1405 39.2722 11.8624 39.2781 11.5901 39.2869C11.3178 39.2987 11.1071 39.3252 10.9578 39.3663V43.6346C11.0105 43.6552 11.0983 43.6699 11.2212 43.6758C11.3442 43.6817 11.473 43.6876 11.6048 43.6993C11.7394 43.7111 11.8653 43.714 11.9882 43.714C12.1112 43.714 12.2049 43.714 12.2693 43.714C12.6527 43.714 13.0333 43.6846 13.4081 43.6258C13.7828 43.567 14.1194 43.4552 14.4268 43.2846C14.7312 43.1139 14.9772 42.8786 15.1645 42.5697C15.3519 42.2638 15.4456 41.8667 15.4456 41.3784C15.4456 40.9548 15.3548 40.6077 15.1733 40.3312C14.9918 40.0576 14.7576 39.84 14.4678 39.6811C14.1809 39.5223 13.8559 39.4134 13.4988 39.3546C13.1387 39.3017 12.7816 39.2722 12.4303 39.2722Z" fill="#6A47DC"/>
<path d="M17.5098 45.0523C17.5098 44.3551 17.6006 43.7286 17.782 43.1756C17.9635 42.6225 18.2299 42.1519 18.5841 41.7666C18.9355 41.3812 19.3658 41.0841 19.8752 40.8811C20.3816 40.6781 20.9613 40.5752 21.6141 40.5752C22.2962 40.5752 22.8963 40.687 23.4086 40.9135C23.9209 41.14 24.3484 41.4518 24.6909 41.8548C25.0334 42.2578 25.2851 42.7284 25.452 43.2726C25.6189 43.8139 25.7008 44.4081 25.7008 45.0523C25.7008 45.7377 25.6071 46.3554 25.4198 46.9026C25.2324 47.4497 24.966 47.9174 24.6177 48.3028C24.2693 48.6882 23.8419 48.9852 23.3354 49.1882C22.829 49.3912 22.2552 49.4942 21.6141 49.4942C20.9086 49.4942 20.2997 49.3824 19.7873 49.1559C19.2751 48.9293 18.8505 48.6205 18.5139 48.2234C18.1772 47.8263 17.9255 47.3556 17.7615 46.8143C17.5918 46.2731 17.5098 45.6848 17.5098 45.0523ZM19.1111 45.0523C19.1111 45.4495 19.155 45.8377 19.2458 46.2201C19.3365 46.6026 19.48 46.9408 19.682 47.2438C19.884 47.5468 20.1416 47.7851 20.4577 47.9674C20.7739 48.1498 21.1633 48.241 21.6287 48.241C23.2739 48.241 24.0966 47.1791 24.0966 45.0553C24.0966 44.6375 24.0527 44.2345 23.9619 43.8463C23.8711 43.4609 23.7306 43.1197 23.5345 42.8255C23.3383 42.5314 23.0837 42.2931 22.7675 42.1078C22.4513 41.9254 22.0707 41.8342 21.6287 41.8342C20.8061 41.8342 20.1825 42.099 19.7552 42.6314C19.3248 43.1579 19.1111 43.9668 19.1111 45.0523Z" fill="#6A47DC"/>
<path d="M33.7713 48.6882C33.3967 48.9558 32.9602 49.1588 32.4567 49.2912C31.9533 49.4265 31.4262 49.4942 30.8699 49.4942C30.1645 49.4942 29.5643 49.3853 29.0665 49.1706C28.5693 48.9558 28.1682 48.6558 27.8577 48.2705C27.5474 47.8851 27.3249 47.4174 27.1844 46.8702C27.0468 46.3231 26.9766 45.7171 26.9766 45.0523C26.9766 43.6256 27.322 42.5225 28.0102 41.743C28.6981 40.9664 29.6903 40.5752 30.9813 40.5752C31.5466 40.5752 32.0382 40.6252 32.4567 40.7281C32.8724 40.8311 33.247 40.9576 33.5778 41.1076L33.1975 42.3137C32.9107 42.1637 32.6002 42.046 32.2666 41.9607C31.933 41.8754 31.5697 41.8313 31.1776 41.8313C29.4473 41.8313 28.5839 42.905 28.5839 45.0523C28.5839 45.4612 28.6306 45.8554 28.7273 46.2348C28.8235 46.6173 28.976 46.9555 29.1897 47.2497C29.4035 47.5439 29.6813 47.7851 30.0239 47.9674C30.3693 48.1498 30.7912 48.241 31.289 48.241C31.7339 48.241 32.126 48.1792 32.4595 48.0557C32.7937 47.9322 33.0715 47.7851 33.2971 47.6145L33.7713 48.6882Z" fill="#6A47DC"/>
<path d="M41.2364 48.6882C40.8618 48.9558 40.4253 49.1588 39.9218 49.2912C39.4184 49.4265 38.8913 49.4942 38.335 49.4942C37.6297 49.4942 37.0295 49.3853 36.5317 49.1706C36.0344 48.9558 35.6333 48.6558 35.3228 48.2705C35.0123 47.8851 34.7902 47.4174 34.6495 46.8702C34.5117 46.3231 34.4414 45.7171 34.4414 45.0523C34.4414 43.6256 34.7873 42.5225 35.4753 41.743C36.1632 40.9664 37.1555 40.5752 38.4464 40.5752C39.0117 40.5752 39.5033 40.6252 39.9218 40.7281C40.3375 40.8311 40.7122 40.9576 41.0429 41.1076L40.6627 42.3137C40.3758 42.1637 40.0653 42.046 39.7317 41.9607C39.3976 41.8754 39.0348 41.8313 38.6427 41.8313C36.9125 41.8313 36.049 42.905 36.049 45.0523C36.049 45.4612 36.0957 45.8554 36.1925 46.2348C36.2887 46.6173 36.4411 46.9555 36.6548 47.2497C36.8658 47.5439 37.1465 47.7851 37.4918 47.9674C37.8378 48.1498 38.2591 48.241 38.7569 48.241C39.2018 48.241 39.5939 48.1792 39.9275 48.0557C40.2616 47.9322 40.5395 47.7851 40.7622 47.6145L41.2364 48.6882Z" fill="#6A47DC"/>
<path d="M48.5397 44.4404L48.7647 42.7667H48.5892L47.8045 44.3434L43.8642 49.2705H42.7285V40.8164H44.204V45.8054L44.0926 47.2879H44.2681L45.0061 45.8554L48.8671 40.8164H50.0208V49.2676H48.5453V44.4404H48.5397Z" fill="#6A47DC"/>
<path d="M58.0104 44.4404L58.236 42.7667H58.0599L57.2758 44.3434L53.3355 49.2705H52.1992V40.8164H53.6718V45.8054L53.5605 47.2879H53.7365L54.474 45.8554L58.3355 40.8164H59.4887V49.2676H58.0132V44.4404H58.0104Z" fill="#6A47DC"/>
<path d="M18.4022 28.5794L18.5749 26.9144H18.49L17.8371 28.4352L14.7135 33.4448H14.2832L10.9723 28.4205L10.3545 26.9144H10.2696L10.5097 28.5617V36.0275H9.17188V24.9318H10.2345L13.9934 30.6061L14.5584 31.8416H14.5935L15.1263 30.5737L18.7124 24.9318H19.8278V36.0246H18.4022V28.5794Z" fill="#6A47DC" stroke="#6A47DC" stroke-width="0.559211" stroke-miterlimit="10"/>
<path d="M27.9619 31.3356L28.0142 30.3531H27.9619L27.2591 31.368L23.3978 36.0275H22.6074V28.1028H23.9804V32.9358L23.9277 33.8713H23.995L24.6654 32.8888L28.5266 28.1028H29.3315V36.0275H27.959V31.3356H27.9619Z" fill="#6A47DC" stroke="#6A47DC" stroke-width="0.559211" stroke-miterlimit="10"/>
<path d="M37.2247 32.524H33.3457V36.0275H31.9727V28.1028H33.3457V31.415H37.2247V28.1028H38.5978V36.0275H37.2247V32.524Z" fill="#6A47DC" stroke="#6A47DC" stroke-width="0.559211" stroke-miterlimit="10"/>
<path d="M48.9473 38.0395H48.0192L47.7616 36.0275H41.2422V28.1028H42.6153V34.9185H46.339V28.1028H47.7121V34.9185H48.9473V38.0395Z" fill="#6A47DC" stroke="#6A47DC" stroke-width="0.559211" stroke-miterlimit="10"/>
<path d="M55.999 31.3356L56.0518 30.3531H55.999L55.2964 31.368L51.4348 36.0275H50.6445V28.1028H52.0176V32.9358L51.9647 33.8713H52.035L52.7055 32.8888L56.5671 28.1028H57.372V36.0275H55.999V31.3356Z" fill="#6A47DC" stroke="#6A47DC" stroke-width="0.559211" stroke-miterlimit="10"/>
<path d="M63.8736 36.0892C63.6773 36.154 63.4753 36.1893 63.2649 36.201C63.054 36.2128 62.8605 36.2157 62.6912 36.2157C61.6489 36.2157 60.8496 35.8775 60.2876 35.2009C59.7257 34.5243 59.4473 33.4801 59.4473 32.0622C59.4473 30.7091 59.7549 29.6913 60.3754 29.0029C60.993 28.3176 61.8857 27.9734 63.0512 27.9734C63.3701 27.9734 63.6452 27.994 63.8736 28.0381V24.9318H65.1791V28.0528C65.3844 28.0204 65.5684 27.9999 65.7298 27.9881C65.8907 27.9763 66.0431 27.9734 66.1922 27.9734C67.3251 27.9734 68.1773 28.2764 68.7476 28.8853C69.3186 29.4942 69.6054 30.5002 69.6054 31.9034C69.6054 32.5682 69.5295 33.1683 69.3743 33.7007C69.219 34.2331 68.994 34.6861 68.6953 35.0568C68.3966 35.4274 68.0338 35.7128 67.6063 35.9128C67.176 36.1128 66.681 36.2128 66.1219 36.2128C66.0195 36.2128 65.8671 36.204 65.6679 36.1893C65.4688 36.1746 65.3051 36.1451 65.1791 36.1011V39.1927H63.8736V36.0892ZM63.0332 35.1715C63.171 35.1715 63.3088 35.1656 63.4461 35.1568C63.5839 35.145 63.7329 35.1244 63.891 35.0921V29.0853C63.7538 29.0647 63.625 29.0471 63.5046 29.0382C63.3848 29.0265 63.2385 29.0235 63.0686 29.0235C62.3599 29.0235 61.8069 29.2677 61.4115 29.7619C61.0166 30.2531 60.8203 31.0209 60.8203 32.0681C60.8203 32.5123 60.8642 32.9241 60.9491 33.3036C61.0341 33.6831 61.1685 34.0155 61.353 34.2949C61.5347 34.5743 61.7687 34.792 62.0471 34.945C62.325 35.095 62.6558 35.1715 63.0332 35.1715ZM65.9318 29.0206C65.794 29.0206 65.6713 29.0235 65.5628 29.0294C65.4542 29.0353 65.3198 29.0588 65.1589 29.1V35.1215C65.2731 35.1421 65.4019 35.1568 65.5453 35.1597C65.6888 35.1656 65.8468 35.1686 66.0167 35.1686C66.7485 35.1686 67.3014 34.8891 67.6733 34.3272C68.0451 33.7683 68.2324 32.9594 68.2324 31.9034C68.2324 31.0062 68.0631 30.3002 67.7261 29.7884C67.3898 29.2795 66.7924 29.0206 65.9318 29.0206Z" fill="#6A47DC" stroke="#6A47DC" stroke-width="0.559211" stroke-miterlimit="10"/>
<path d="M71.6809 28.1028H72.6236L72.8812 29.053H72.9487C73.212 28.6823 73.5517 28.3999 73.9702 28.2058C74.3887 28.0116 74.8657 27.9116 75.4018 27.9116C76.5465 27.9116 77.3981 28.2234 77.9572 28.8471C78.5164 29.4707 78.7976 30.4914 78.7976 31.9063C78.7976 32.5711 78.7037 33.1712 78.5136 33.7036C78.3234 34.2361 78.0596 34.6891 77.7142 35.0598C77.3717 35.4304 76.956 35.7157 76.47 35.9157C75.9846 36.1157 75.4429 36.2158 74.8483 36.2158C74.4242 36.2158 74.0901 36.1922 73.8442 36.1452C73.5984 36.0981 73.3318 36.0158 73.0449 35.8981V39.1956H71.6719V28.1028H71.6809ZM75.147 29.0206C74.5642 29.0206 74.1019 29.1618 73.7655 29.4413C73.4286 29.7207 73.1917 30.1472 73.0539 30.7179V34.6479C73.2587 34.795 73.4932 34.9097 73.7565 34.9891C74.0197 35.0686 74.3685 35.1068 74.8044 35.1068C75.5947 35.1068 76.2214 34.8362 76.6837 34.292C77.1467 33.7478 77.3779 32.9476 77.3779 31.8916C77.3779 31.4592 77.3368 31.065 77.2575 30.712C77.1787 30.3591 77.0499 30.056 76.8711 29.8089C76.6927 29.5619 76.4644 29.3677 76.1865 29.2295C75.9052 29.0912 75.5599 29.0206 75.147 29.0206Z" fill="#6A47DC" stroke="#6A47DC" stroke-width="0.559211" stroke-miterlimit="10"/>
<path d="M82.3354 31.1297C82.611 31.0885 82.8743 31.0591 83.1263 31.0415C83.3777 31.0267 83.6179 31.0179 83.8463 31.0179C84.429 31.0179 84.9178 31.0797 85.3127 31.2003C85.7081 31.3209 86.0243 31.4886 86.2644 31.7003C86.5041 31.9122 86.674 32.1622 86.7707 32.4534C86.8675 32.7446 86.9169 33.0535 86.9169 33.38C86.9169 34.3419 86.6273 35.0391 86.0507 35.4715C85.4741 35.9039 84.537 36.1216 83.2461 36.1216C82.5143 36.1216 81.7532 36.0893 80.9629 36.0275V28.1028H82.3354V31.1297ZM82.3354 34.9185C82.7573 34.9832 83.164 35.0126 83.5532 35.0126C84.2738 35.0126 84.7772 34.8832 85.0641 34.6243C85.351 34.3655 85.4944 33.9978 85.4944 33.5242C85.4944 33.1006 85.3538 32.7535 85.0731 32.4769C84.7918 32.2034 84.303 32.0651 83.6061 32.0651C83.4098 32.0651 83.1994 32.071 82.971 32.0798C82.7426 32.0916 82.5317 32.121 82.3354 32.174V34.9185ZM88.2726 28.1028H89.6456V36.0275H88.2726V28.1028Z" fill="#6A47DC" stroke="#6A47DC" stroke-width="0.559211" stroke-miterlimit="10"/>
</g>
</svg>
