<svg width="268" height="36" viewBox="0 0 268 36" fill="none" xmlns="http://www.w3.org/2000/svg">
<g clip-path="url(#clip0_2309_51890)">
<path fill-rule="evenodd" clip-rule="evenodd" d="M16.2236 32.5251C19.6554 32.5087 22.9766 31.3098 25.6275 29.1303C28.9442 26.451 30.388 23.0561 30.388 17.9836C30.388 9.58122 25.1202 4.19642 16.2236 3.27296V12.4557C17.318 12.8606 18.2517 13.6092 18.8848 14.5894C19.518 15.5695 19.8164 16.7285 19.7355 17.8926C19.794 19.0363 19.4846 20.1686 18.8526 21.1236C18.2205 22.0787 17.2992 22.806 16.2236 23.1993V32.5251ZM2.11133 32.5251H16.2236V23.1993C15.5809 23.4283 14.9029 23.5428 14.2206 23.5374H12.7508V12.1305H14.2466C14.9282 12.1198 15.6064 12.2299 16.2497 12.4557V3.27296C15.3205 3.17789 14.3872 3.13013 13.4532 3.12988H2.13734L2.11133 32.5251Z" fill="#6A47DC"/>
<path fill-rule="evenodd" clip-rule="evenodd" d="M47.0365 27.1011L49.6379 32.5118H61.9292L55.3218 22.6007C54.9271 22.0243 54.3952 21.5549 53.774 21.2351V20.9748C55.2254 20.6928 56.5607 19.9865 57.611 18.9459C58.9256 17.3528 59.6227 15.3398 59.575 13.2749C59.6455 11.5669 59.2432 9.87256 58.4124 8.37855C57.5816 6.88454 56.3546 5.64882 54.8665 4.80752C52.7466 3.53304 50.2837 2.94686 47.817 3.12965H47.0885V11.2198C47.692 11.3009 48.2422 11.6077 48.6283 12.0783C49.0145 12.549 49.2079 13.1485 49.1695 13.7561C49.1852 14.355 48.9718 14.9373 48.5731 15.3843C48.1744 15.8314 47.6202 16.1097 47.0235 16.1624L47.0365 27.1011ZM34.498 32.5118H44.9034V23.095L45.0854 23.0039C45.1916 23.3233 45.3265 23.6324 45.4887 23.9274L47.0365 27.1011V16.1624C46.8072 16.1832 46.5765 16.1832 46.3471 16.1624H44.8903V11.1938H46.7504H47.0365V3.12965H34.498V32.5118Z" fill="#6A47DC"/>
<path d="M70.2397 23.2776C67.014 23.2776 64.4778 25.4236 64.4778 28.168C64.4778 30.9126 67.014 33.0977 70.2397 33.0977C73.4654 33.0977 76.0537 30.9385 76.0537 28.168C76.0537 25.3977 73.4914 23.2776 70.2397 23.2776Z" fill="#6A47DC"/>
<path d="M83.9878 32.5251H94.4712V12.3907L100.376 12.7028V3.12988H77.9397V12.7028L83.9878 12.3907V32.5251Z" fill="#6A47DC"/>
<path d="M104.031 32.5251H114.307V22.3017H120.862V32.5251H131.124V3.12988H120.862V13.093H114.307V3.12988H104.031V32.5251Z" fill="#6A47DC"/>
<path d="M135.678 32.5251H155.812V24.461H146.395V21.6384H154.668V13.9385H146.395V11.194H155.501V3.12988H135.678V32.5251Z" fill="#6A47DC"/>
<path d="M170.184 3.12988H159.48V32.5251H170.184V3.12988Z" fill="#6A47DC"/>
<path d="M173.396 30.2746C176.909 32.0108 180.768 32.9311 184.687 32.967C192.126 32.967 197.406 28.6096 197.406 22.4835C197.406 18.1133 194.805 15.2127 190.149 14.1592L186.702 13.4438C185.571 13.1837 185.038 12.7415 185.038 12.0781C185.038 11.1156 185.961 10.4913 187.365 10.4913C189.618 10.5771 191.784 11.3841 193.543 12.7935L196.405 5.26262C193.681 3.60914 190.553 2.74043 187.365 2.75232C179.834 2.75232 174.423 7.23964 174.423 13.4178C174.423 17.5149 177.156 20.4544 181.604 21.2218L184.687 21.7811C186.052 22.0153 186.625 22.4966 186.625 23.329C186.625 24.1614 185.518 25.0459 184.022 25.0459C181.793 24.9522 179.644 24.1859 177.857 22.8477L176.635 21.8982L173.396 30.2746Z" fill="#6A47DC"/>
<path d="M198.865 30.2746C202.378 32.0108 206.236 32.9311 210.155 32.967C217.595 32.967 222.889 28.6096 222.889 22.4835C222.889 18.1133 220.288 15.2127 215.617 14.1592L212.17 13.4438C211.026 13.1837 210.506 12.7415 210.506 12.0781C210.506 11.1156 211.429 10.4913 212.835 10.4913C215.084 10.5715 217.248 11.3793 219 12.7935L221.874 5.26262C219.149 3.60914 216.021 2.74043 212.835 2.75232C205.303 2.75232 199.827 7.23964 199.827 13.4178C199.827 17.5149 202.558 20.4544 207.019 21.2218L210.103 21.7811C211.403 22.0153 212.041 22.4966 212.041 23.329C212.041 24.1614 210.935 25.0459 209.439 25.0459C207.205 24.9564 205.051 24.1899 203.261 22.8477L202.129 21.8982L198.865 30.2746Z" fill="#6A47DC"/>
<path d="M238.638 31.0035V29.5078L238.717 29.3387V31.0687L238.638 30.9125V31.0035ZM238.638 28.9094V27.3096V27.3876V28.6884L238.56 28.7664L238.638 28.9094ZM238.638 26.6333V24.5002H238.717V26.6463L238.638 26.5422V26.6333ZM238.638 23.0304V19.8699H238.717V23.0565L238.638 22.9915V23.0304ZM238.638 18.8422V16.384H238.73V18.8422H238.651H238.638ZM238.638 15.5255V13.4055H238.717V15.3956L238.638 15.4736V15.5255ZM238.638 13.1584V12.7942H238.717V13.1063H238.638V13.1584ZM238.638 10.0497V9.84164L238.717 9.77661V10.1148L238.638 10.0497ZM238.638 8.44991V7.59148L238.717 7.51344V8.81411C238.698 8.67836 238.671 8.54375 238.638 8.41089V8.44991ZM238.638 7.33134V6.75904H238.717V7.33134H238.638ZM238.638 6.18674V4.44385H238.717V5.87458C238.699 5.95091 238.673 6.02505 238.638 6.0957V6.18674ZM238.638 4.53489V6.18674C238.626 6.26167 238.595 6.33254 238.55 6.39357C238.505 6.45461 238.446 6.50408 238.379 6.53794C238.169 6.62185 237.937 6.62185 237.727 6.53794V4.84705C237.981 4.65033 238.292 4.54489 238.613 4.5479L238.638 4.53489ZM238.638 6.75904V7.33134L238.041 7.6435C237.932 7.7644 237.852 7.90725 237.805 8.06221C237.758 8.21717 237.745 8.38052 237.767 8.54097C237.871 8.46292 237.948 8.35887 238.144 8.44991C238.339 8.54097 238.352 8.72306 238.379 8.89215C238.404 9.06123 238.158 9.33437 237.962 9.47745L237.727 9.60751V7.22729H237.831C238.084 7.02992 238.354 6.85579 238.638 6.70702V6.75904ZM238.638 7.61749C238.509 7.79958 238.638 8.11174 238.638 8.44991V7.59148V7.61749ZM238.638 9.84164V10.0497C238.594 10.0202 238.559 9.97991 238.534 9.93268L238.638 9.84164ZM238.638 12.8592V13.1584C238.38 13.1121 238.117 13.1121 237.858 13.1584C237.754 13.2754 237.858 13.4055 237.858 13.5486L237.754 13.7567V10.8302C237.983 10.8852 238.188 11.013 238.339 11.1943C238.464 11.3332 238.55 11.503 238.587 11.6861C238.623 11.8692 238.608 12.0587 238.547 12.2349C238.471 12.4106 238.344 12.5599 238.183 12.6641L238.664 12.7682L238.638 12.8592ZM238.638 13.4965C238.326 13.7697 238.014 14.0688 237.727 14.368V16.8652C237.957 16.3841 238.265 15.9446 238.638 15.5646V13.4055V13.4965ZM238.638 16.475V18.8422C238.493 18.7172 238.379 18.5618 238.3 18.387C238.178 18.152 238.115 17.891 238.115 17.6262C238.115 17.3613 238.178 17.1003 238.3 16.8652C238.373 16.7094 238.486 16.575 238.626 16.475H238.638ZM238.638 19.9609V22.9394C238.505 22.8431 238.393 22.7208 238.308 22.58C238.224 22.4392 238.166 22.2828 238.144 22.12C238.121 21.8404 238.181 21.5604 238.313 21.3135C238.137 21.1676 237.94 21.0492 237.727 20.9624V20.7023C237.937 20.7933 238.171 20.8453 238.392 20.9233C238.613 21.0015 238.313 20.6762 238.392 20.5202C238.404 20.2945 238.49 20.0795 238.638 19.9088V19.9609ZM238.638 24.5652C238.567 24.536 238.502 24.4966 238.443 24.4481C238.158 23.8969 237.918 23.3226 237.727 22.7312V25.0725L238.158 25.8919C238.175 26.1949 238.14 26.4986 238.054 26.7894C238.054 26.9455 237.975 26.8675 237.948 26.8935C237.923 26.9194 237.858 26.6854 237.727 26.5552V29.3648C238.052 29.2581 238.358 29.1047 238.638 28.9094V27.3096C238.494 27.1978 238.342 27.0978 238.183 27.0105L238.339 26.4382C238.339 26.3732 238.417 26.2691 238.483 26.3342L238.638 26.5422V24.5002V24.5652ZM238.638 29.5988V31.0035C238.509 30.7371 238.464 30.4378 238.509 30.1451C238.522 29.9277 238.566 29.7133 238.638 29.5078V29.5988ZM237.727 4.88607V6.57694L237.481 6.45989C237.104 6.22576 237.168 5.74452 236.726 5.61446C237.064 5.41935 237.389 5.10719 237.727 4.88607ZM237.727 7.37036C237.435 7.48005 237.111 7.48005 236.817 7.37036C236.896 7.29232 237.013 7.30533 237.064 7.20128C237.117 7.09722 237.064 6.92812 237.064 6.79806C237.013 6.71333 236.943 6.6413 236.859 6.58728C236.776 6.53325 236.682 6.49861 236.583 6.4859C236.18 6.4859 235.907 6.78506 235.608 7.0582C235.309 7.33134 235.179 7.30533 235.113 7.55246C235.595 7.55246 235.842 8.33286 236.414 8.13775C236.635 8.02069 236.649 7.79958 236.739 7.6305C236.845 7.60216 236.953 7.59564 237.061 7.6113C237.168 7.62694 237.272 7.66447 237.364 7.72154C236.947 8.05971 236.558 8.43691 236.167 8.80109C236.072 8.88648 235.953 8.94284 235.826 8.96356C235.7 8.98429 235.57 8.96854 235.451 8.91816C235.387 8.85313 235.451 8.7881 235.451 8.72306C235.488 8.67896 235.507 8.62384 235.507 8.56698C235.507 8.51011 235.488 8.45499 235.451 8.41089C235.009 8.24181 234.671 8.55397 234.411 8.85313C234.332 8.88817 234.263 8.94417 234.213 9.01517C234.162 9.08617 234.131 9.16953 234.125 9.25634C234.463 9.15227 234.424 9.59451 234.671 9.67255C234.784 9.71679 234.91 9.71679 235.022 9.67255C235.14 9.49046 235.309 9.33437 235.243 9.11327C235.387 9.03522 235.582 9.11327 235.751 9.11327C235.92 9.11327 235.608 9.32137 235.517 9.42543C235.062 9.7636 234.905 10.57 234.216 10.479C234.216 10.4009 234.333 10.3489 234.307 10.2449C234.28 10.1408 234.138 10.0888 234.048 10.0107C233.644 10.0107 233.449 10.479 233.266 10.8562C233.085 11.2334 233.449 10.9342 233.513 11.0252C233.995 11.2854 233.878 10.518 234.32 10.635C234.32 10.635 234.397 10.635 234.32 10.7391C233.955 11.2984 233.579 11.8447 233.266 12.43C233.136 12.43 233.007 12.3259 232.85 12.43C232.713 12.5024 232.606 12.6227 232.552 12.7682C232.479 13.2037 232.515 13.6504 232.656 14.0688C232.941 13.6526 233.423 13.7046 233.734 13.3665C233.868 13.197 233.928 12.9821 233.904 12.7682C233.825 12.5861 233.657 12.56 233.5 12.534C233.527 12.417 233.565 12.3034 233.617 12.1959C233.878 11.7241 234.197 11.2871 234.567 10.8952C234.671 11.0252 234.567 11.2073 234.567 11.3504C234.567 11.4935 234.152 11.6366 234.229 11.8707C234.307 12.1048 234.515 12.0398 234.541 12.2349C234.782 12.0657 234.974 11.8372 235.1 11.5715C235.125 11.5183 235.129 11.4586 235.116 11.4019C235.101 11.3453 235.069 11.2951 235.022 11.2594C234.98 11.2404 234.933 11.2306 234.886 11.2306C234.839 11.2306 234.793 11.2404 234.749 11.2594C234.658 11.2594 234.749 11.0773 234.749 10.9862C234.671 10.2579 235.504 9.93268 235.92 9.46445C236.01 9.54248 235.92 9.69856 235.92 9.81563C235.92 9.93268 235.491 9.90667 235.413 10.1408C235.334 10.3749 235.685 10.6481 235.776 10.9472C235.996 10.8833 236.193 10.7632 236.35 10.5988C236.508 10.4345 236.619 10.2317 236.675 10.0107C236.675 9.89366 236.583 9.84164 236.505 9.7636C236.428 9.68555 236.231 9.7636 236.103 9.84164C236.095 9.82523 236.091 9.80752 236.091 9.78961C236.091 9.7717 236.095 9.75399 236.103 9.73759C236.024 8.85313 237.051 8.606 237.585 8.15077C237.689 8.22881 237.585 8.43692 237.585 8.56698C237.585 9.0092 237.298 8.56698 236.974 8.89215C236.924 8.93656 236.887 8.99446 236.868 9.05901C236.849 9.12356 236.851 9.19203 236.87 9.25634C236.96 9.54248 237.389 9.68555 237.338 10.0237L237.716 9.81563V7.22729L237.727 7.37036ZM237.727 10.9732V13.7697C237.59 13.9809 237.394 14.1475 237.162 14.2491C236.931 14.3508 236.676 14.383 236.428 14.342C235.829 14.342 235.438 13.6526 235.022 13.2494C234.813 13.1306 234.573 13.0763 234.333 13.0933C234.333 13.0933 234.333 12.9632 234.333 12.9112C234.607 12.3129 235.257 12.2479 235.634 11.7927C235.842 11.4977 236.126 11.2639 236.455 11.1153C236.785 10.9667 237.148 10.9086 237.506 10.9472H237.676L237.727 10.9732ZM237.727 14.42C237.493 14.6541 237.272 14.9013 237.064 15.1353C236.669 15.4292 236.19 15.5888 235.699 15.5907C235.765 15.3522 235.765 15.1006 235.699 14.8622C235.511 14.5935 235.248 14.3876 234.94 14.2715C234.635 14.1555 234.301 14.1347 233.982 14.2119C233.058 14.42 232.928 15.3174 232.331 15.6687C232.054 15.9332 231.854 16.267 231.751 16.6356C231.647 17.004 231.646 17.3933 231.745 17.7628L232.59 17.3076C232.954 17.1384 233.228 17.4506 233.54 17.5546C234.086 17.6587 234.932 17.9188 235.347 17.3204C235.492 17.139 235.58 16.9198 235.604 16.6893C235.627 16.4586 235.583 16.2263 235.478 16.0198C235.825 15.8456 236.208 15.7606 236.596 15.7728C236.223 16.6425 235.983 17.5631 235.882 18.5041C235.731 18.7929 235.501 19.0324 235.217 19.1935C235.217 19.1935 235.113 19.3105 235.049 19.1935C234.983 19.0764 235.049 18.8422 235.049 18.6602C234.866 18.244 234.45 18.231 234.086 18.231C233.762 18.2593 233.452 18.373 233.187 18.5603C232.922 18.7477 232.711 19.0021 232.577 19.2976C232.168 20.0575 232.044 20.9384 232.225 21.7817C232.26 21.9332 232.307 22.0814 232.369 22.2241C232.629 22.0029 232.941 21.6127 233.241 21.6778C233.825 21.8339 234.216 22.107 234.749 21.8858C234.933 21.8279 235.101 21.7269 235.241 21.5912C235.378 21.4555 235.482 21.2891 235.542 21.1055C235.633 20.8653 235.65 20.6039 235.593 20.3539C235.535 20.1039 235.404 19.8768 235.217 19.7007C235.217 19.4536 235.542 19.3756 235.699 19.1935C235.855 19.0114 235.855 19.0895 235.907 19.1935C236.009 20.1105 236.196 21.0162 236.466 21.8988C236.379 22.3619 236.202 22.8037 235.946 23.1996C235.765 23.1996 235.829 22.9785 235.765 22.8744C235.725 22.756 235.643 22.656 235.536 22.5937C235.428 22.5312 235.301 22.5108 235.179 22.5363C234.901 22.5781 234.639 22.6864 234.412 22.8517C234.185 23.0169 234.002 23.2344 233.878 23.4858C233.8 23.6548 233.462 24.3051 234.008 26.087C234.083 26.4144 234.244 26.7157 234.476 26.9585C235.008 26.4749 235.659 26.1425 236.362 25.996C236.57 25.8947 236.739 25.7312 236.849 25.5282C236.959 25.3253 237.003 25.0932 236.974 24.8644C237.001 24.6005 236.947 24.3346 236.82 24.102C236.691 23.8695 236.496 23.6817 236.258 23.5638C236.258 23.2776 236.454 23.0695 236.532 22.8223C236.609 22.5752 236.531 22.6662 236.675 22.6662C236.909 23.1475 237.104 23.6548 237.298 24.1491L237.793 25.0725V22.7312C237.65 22.3151 237.519 21.8858 237.402 21.4306C237.364 21.2725 237.364 21.1074 237.402 20.9494C237.531 20.9616 237.657 20.9877 237.78 21.0274V20.7673C237.588 20.6887 237.421 20.5581 237.298 20.3901C237.143 19.1847 237.309 17.9598 237.78 16.8392V14.2769L237.727 14.42ZM237.727 26.6074V29.4167C237.601 29.4627 237.48 29.5192 237.364 29.5858C237.13 29.742 237.104 30.0021 236.987 30.2232C236.777 30.0941 236.603 29.9154 236.479 29.7029C236.231 29.3662 236.125 28.9465 236.18 28.5322C236.057 28.2296 236.027 27.897 236.094 27.5772C236.161 27.2572 236.322 26.9648 236.558 26.7373C236.687 26.6138 236.846 26.5269 237.02 26.4857C237.193 26.4444 237.375 26.4506 237.546 26.5033C237.616 26.4766 237.691 26.4635 237.767 26.4642L237.727 26.6074Z" fill="#6A47DC"/>
<path d="M240.445 2.84361C240.784 2.84779 241.114 2.93728 241.409 3.10373C241.537 3.19985 241.641 3.3257 241.712 3.47062C241.782 3.61552 241.815 3.77523 241.811 3.93617C241.824 4.04118 241.808 4.14782 241.766 4.24426C241.722 4.3407 241.651 4.42315 241.564 4.48245C241.473 4.48245 241.369 4.48245 241.278 4.48245C241.486 4.75558 241.864 4.79461 242.149 4.95069C242.839 4.71656 243.528 4.49546 244.244 4.30035C244.244 4.30035 244.244 4.23532 244.244 4.1963C244.072 4.00016 243.853 3.85222 243.607 3.76707C243.529 3.93139 243.408 4.07144 243.257 4.17226C243.105 4.27308 242.929 4.33085 242.748 4.33937C242.319 4.33937 242.111 3.89715 241.954 3.58498C241.798 3.27282 241.954 2.83059 241.669 2.53143C241.539 2.36235 241.239 2.20628 241.148 1.99816C241.785 1.73572 242.464 1.59455 243.152 1.58194C243.462 1.64203 243.755 1.77092 244.009 1.95915C244.266 2.17075 244.441 2.4651 244.504 2.79157C244.504 3.05171 244.595 3.40289 244.27 3.51994C244.153 3.51994 244.036 3.51994 243.97 3.58498C244.185 3.84184 244.463 4.03894 244.776 4.15728C245.609 3.98819 246.507 4.0012 247.379 3.87113C247.287 3.611 247.066 3.27282 246.78 3.2208C246.709 3.34202 246.609 3.44357 246.487 3.51624C246.367 3.58893 246.231 3.63042 246.091 3.63701C245.864 3.64876 245.64 3.59326 245.445 3.4775C245.251 3.36175 245.096 3.19094 244.997 2.98667C244.885 2.73052 244.826 2.45367 244.826 2.17375C244.826 1.89384 244.885 1.61698 244.997 1.36083C245.063 1.07468 244.803 0.853571 244.646 0.658469C245.062 0.499824 245.505 0.43325 245.947 0.463369C246.419 0.476102 246.886 0.568448 247.326 0.73651C247.575 0.840838 247.793 1.00859 247.957 1.22308C248.121 1.43758 248.226 1.69134 248.263 1.95915C248.263 2.47941 248.263 3.01269 247.717 3.18178C247.508 3.18178 247.366 3.07772 247.196 3.09073C247.196 3.32485 247.443 3.48092 247.574 3.67603L247.872 3.89715C249.173 3.89715 250.475 4.0142 251.774 4.13127C251.726 3.81511 251.571 3.52543 251.332 3.31184C250.946 3.55633 250.486 3.66185 250.031 3.611C249.264 3.33786 249.083 2.51844 249.004 1.80306C248.926 1.08769 249.485 0.710496 249.304 0.0861734C249.88 0.019637 250.466 0.0504133 251.034 0.177221C251.405 0.189079 251.77 0.289679 252.096 0.47066C252.421 0.65164 252.699 0.907772 252.906 1.21776C253.024 1.49831 253.09 1.79801 253.102 2.10221C253.124 2.34972 253.083 2.59885 252.983 2.82631C252.882 3.05378 252.727 3.25215 252.53 3.40289C252.191 3.65002 251.931 3.40289 251.827 3.40289C251.909 3.76375 252.079 4.09882 252.32 4.37839C253.187 4.69712 254.034 5.06628 254.857 5.48397C254.981 5.24318 255.009 4.96417 254.936 4.70356C254.766 4.70356 254.623 4.80762 254.441 4.7686C254.241 4.77034 254.043 4.71175 253.876 4.60043C253.709 4.48911 253.58 4.33018 253.504 4.14428C253.297 2.96066 253.856 2.4664 254.375 1.73803C254.462 1.61842 254.513 1.47762 254.525 1.33089C254.536 1.18415 254.507 1.03707 254.441 0.905597C254.803 0.909701 255.155 1.01402 255.461 1.20693C255.766 1.39983 256.012 1.67375 256.171 1.99816C256.487 2.22741 256.733 2.54298 256.875 2.90732C257.019 3.27166 257.054 3.66942 256.978 4.05322C256.849 4.5203 256.565 4.92909 256.171 5.21082C256.028 5.31487 255.897 5.31487 255.65 5.21082L255.429 4.96369C255.248 5.1718 255.274 5.50998 255.221 5.79613C255.858 6.27266 256.42 6.84272 256.887 7.487C257.039 7.73233 257.209 7.96699 257.393 8.18936C257.623 7.89505 257.751 7.53465 257.758 7.16183C257.489 7.15905 257.228 7.06761 257.016 6.90169C256.88 6.76106 256.78 6.58908 256.726 6.40085C256.672 6.21261 256.664 6.0139 256.704 5.82214C256.782 4.79461 257.914 4.52147 258.147 3.57198C258.187 3.24799 258.187 2.92045 258.147 2.59646C258.459 2.66862 258.749 2.81029 258.996 3.0108C259.243 3.21133 259.444 3.46545 259.579 3.75408C259.748 4.22231 260.88 5.32788 260.372 6.58953C260.188 7.0433 259.832 7.40717 259.384 7.60407C258.967 7.6821 258.447 7.94224 258.083 7.43497C257.939 7.95523 257.563 8.4625 257.771 9.04781C258.03 9.66844 258.21 10.3197 258.304 10.9858C258.304 11.0508 258.421 10.9858 258.487 10.9858L258.967 10.5566C259.046 10.3225 258.759 10.3615 258.681 10.2184C258.55 10.0547 258.459 9.86152 258.418 9.6554C258.378 9.44927 258.387 9.23633 258.447 9.0348C258.863 7.94224 260.204 8.55356 260.88 7.63008C261.36 8.09832 261.139 8.93075 261.49 9.425C261.622 9.93688 261.596 10.4768 261.413 10.9728C261.342 11.1837 261.227 11.3766 261.073 11.5383C260.921 11.7 260.735 11.8266 260.529 11.9093C260.347 11.9615 260.157 11.9769 259.968 11.9546C259.781 11.9322 259.599 11.8726 259.435 11.7792C259.342 11.7287 259.262 11.6561 259.204 11.5677C259.144 11.4792 259.107 11.3777 259.097 11.272C259.097 11.1289 259.097 10.9728 259.097 10.8427C258.807 10.9937 258.557 11.2123 258.37 11.4801C258.373 12.3631 258.236 13.2411 257.966 14.0814C258.125 14.1401 258.301 14.1401 258.46 14.0814C258.785 14.0814 258.46 13.7823 258.564 13.6002C258.526 13.3904 258.557 13.1738 258.654 12.9835C258.75 12.7933 258.905 12.6398 259.097 12.5466C259.735 12.2735 260.215 12.7677 260.659 13.1709C260.918 13.301 261.36 13.0149 261.503 13.1709C261.647 13.327 261.399 13.8473 261.296 14.1204C261.022 14.8748 261.048 15.6423 260.308 16.1494C260.147 16.2564 259.965 16.3299 259.775 16.3656C259.586 16.4015 259.39 16.3987 259.201 16.3576C258.976 16.2953 258.769 16.1803 258.597 16.0219C258.425 15.8636 258.294 15.6665 258.213 15.4471C258.166 15.1275 258.231 14.8014 258.395 14.5236C258.096 14.4066 257.835 14.6147 257.614 14.8099C257.136 15.7159 256.443 16.4925 255.599 17.073C255.599 17.203 255.794 17.229 255.884 17.2681C256.066 17.3423 256.26 17.3777 256.457 17.3722C256.691 17.06 256.717 16.6307 257.108 16.3966C257.221 16.3097 257.354 16.2522 257.494 16.2295C257.635 16.2068 257.78 16.2195 257.914 16.2665C258.629 16.4486 259.137 17.203 259.526 17.7883C259.696 17.9704 259.826 17.7883 259.93 17.9445C259.705 18.4815 259.363 18.9614 258.929 19.3492C258.649 19.6049 258.305 19.7788 257.933 19.8522C257.562 19.9256 257.177 19.8956 256.821 19.7653C256.542 19.6388 256.303 19.4366 256.133 19.1813C255.963 18.926 255.868 18.6282 255.859 18.3217C255.88 18.209 255.924 18.102 255.988 18.0079C256.054 17.9136 256.138 17.8344 256.236 17.7753C255.821 17.5919 255.384 17.465 254.936 17.3981C254.232 17.7393 253.5 18.0219 252.751 18.2435C252.658 18.3217 252.751 18.4256 252.751 18.4907C252.879 18.6479 253.058 18.7577 253.257 18.8029C253.345 18.6097 253.488 18.4471 253.67 18.3359C253.85 18.2246 254.061 18.1699 254.271 18.1785C254.466 18.1728 254.659 18.2107 254.838 18.2895C255.015 18.3682 255.173 18.4859 255.299 18.6337C255.501 18.9704 255.634 19.344 255.69 19.7327C255.745 20.1213 255.723 20.517 255.625 20.8969C255.64 21.0753 255.697 21.2476 255.792 21.3992C255.887 21.5508 256.016 21.6774 256.171 21.7683C256.189 21.7976 256.199 21.8314 256.199 21.866C256.199 21.9005 256.189 21.9343 256.171 21.9634C255.04 22.5748 254.337 21.6903 253.049 21.6384C252.36 21.6384 251.814 20.6758 251.748 19.9345C251.72 19.8083 251.723 19.6772 251.757 19.5526C251.792 19.4279 251.855 19.3135 251.944 19.219C252.133 19.0503 252.38 18.9617 252.633 18.972C252.633 18.972 252.633 18.8679 252.633 18.8288C252.462 18.6513 252.265 18.502 252.048 18.3867C251.411 18.4888 250.782 18.6277 250.161 18.8029C249.636 19.79 249.264 20.8513 249.056 21.9504C249.056 22.2366 249.408 22.3276 249.615 22.4577C249.642 22.4632 249.668 22.4596 249.691 22.4479C249.715 22.4361 249.734 22.4166 249.746 22.3927C249.681 22.1294 249.7 21.8526 249.8 21.6007C249.901 21.3488 250.076 21.1347 250.305 20.9879C250.457 20.9049 250.627 20.8613 250.799 20.8613C250.972 20.8613 251.142 20.9049 251.293 20.9879C251.723 21.2935 252.085 21.683 252.36 22.1325C252.68 22.6547 253.187 23.036 253.778 23.1991C253.368 23.7292 252.818 24.1347 252.191 24.3697C251.982 24.6691 251.688 24.8978 251.347 25.0258C251.004 25.1535 250.633 25.1742 250.278 25.085C250.047 25.0199 249.838 24.8917 249.675 24.7149C249.513 24.5381 249.402 24.3195 249.355 24.0836C249.314 23.8882 249.315 23.6863 249.358 23.4914C249.4 23.2964 249.484 23.1126 249.602 22.952C249.432 22.7729 249.223 22.635 248.992 22.5488C248.872 22.8286 248.81 23.1293 248.809 23.4333C248.799 24.2648 249.009 25.0842 249.421 25.8066C249.832 26.5293 250.429 27.1288 251.151 27.5434C251.498 27.7545 251.869 27.9247 252.256 28.0506C252.505 27.8982 252.686 27.6561 252.764 27.3742C252.647 27.3742 252.49 27.3742 252.347 27.3742C252.189 27.3829 252.032 27.3502 251.891 27.2797C251.749 27.2091 251.629 27.1032 251.542 26.9719C251.454 26.8407 251.401 26.6889 251.389 26.5315C251.378 26.374 251.407 26.2162 251.476 26.0736C252.152 24.903 253.518 24.773 254.506 23.9404C254.649 23.9404 254.688 23.9404 254.74 23.9404C254.896 24.2266 254.74 24.4347 254.74 24.838C254.806 25.5793 255.078 25.6573 255.287 26.1386C255.36 26.3292 255.388 26.5345 255.368 26.738C255.347 26.9413 255.28 27.137 255.17 27.3092C254.994 27.5456 254.756 27.7274 254.482 27.8334C254.208 27.9394 253.91 27.965 253.621 27.9076C253.425 27.8542 253.247 27.7511 253.102 27.6084C252.945 27.7943 252.822 28.0054 252.737 28.2327C252.828 28.3368 253.023 28.3368 253.179 28.3758C254.563 28.5029 255.946 28.134 257.082 27.3353C257.276 27.1661 257.537 27.0361 257.628 26.8019C257.683 26.419 257.604 26.0288 257.407 25.6964C257.212 25.8915 257.225 26.3207 256.874 26.3598C256.729 26.3904 256.578 26.3912 256.433 26.3621C256.288 26.3331 256.149 26.2747 256.028 26.1907C255.865 26.0795 255.742 25.9202 255.676 25.7355C255.542 25.3312 255.502 24.9016 255.561 24.4798C255.621 24.058 255.775 23.6553 256.015 23.3032C256.035 23.0176 256.116 22.7396 256.253 22.4882C256.389 22.2367 256.58 22.0179 256.808 21.8464C257.212 21.9895 257.289 22.4708 257.524 22.7699C257.758 23.0691 258.37 23.1341 258.668 23.5373C258.787 23.6641 258.879 23.8134 258.94 23.9764C259 24.1395 259.027 24.3131 259.02 24.4868C259.006 24.7039 258.938 24.9141 258.822 25.0981C258.706 25.2822 258.545 25.4341 258.356 25.5404C258.176 25.5861 257.989 25.5861 257.809 25.5404C257.825 25.8705 257.91 26.1938 258.056 26.4899C258.756 26.0411 259.38 25.4835 259.904 24.838C260.193 24.5091 260.454 24.1566 260.684 23.7844C260.624 23.4303 260.455 23.1035 260.204 22.848C260.111 22.848 260.073 23.03 260.073 23.1211C260.012 23.1569 259.946 23.1833 259.877 23.1991C259.435 23.3032 259.11 22.952 258.889 22.6528C258.621 22.1223 258.551 21.5132 258.695 20.9359C258.737 20.5918 258.876 20.2669 259.097 19.9995C259.202 19.8088 259.355 19.6478 259.539 19.5313L260.177 20.2206H260.788C260.974 20.2827 261.146 20.3799 261.296 20.5068C261.751 20.7929 261.49 21.7164 261.126 21.9765C260.96 22.0896 260.774 22.1732 260.58 22.2237C260.671 22.4317 260.957 22.965 261.192 23.0691C261.192 23.0691 261.803 22.0545 261.959 21.7683C262.314 21.3308 262.528 20.7954 262.57 20.2335C262.57 19.9734 262.102 19.6873 261.868 19.5443C261.634 19.4011 261.66 19.7913 261.517 19.8563C261.152 20.0775 260.814 19.7264 260.684 19.5443C260.346 19.076 260.567 18.5818 260.332 17.9054C260.296 17.7931 260.291 17.673 260.319 17.5581C260.347 17.4433 260.406 17.3384 260.489 17.2551C260.63 17.2889 260.763 17.3508 260.88 17.4372C261.148 17.4177 261.417 17.4177 261.686 17.4372C261.901 17.4682 262.102 17.5709 262.253 17.729C262.404 17.887 262.497 18.0911 262.518 18.3086C262.527 18.4265 262.509 18.545 262.466 18.6552C262.424 18.7655 262.357 18.8648 262.27 18.9459L261.972 19.115C262.063 19.3751 262.323 19.7523 262.505 19.7003C263.182 19.5052 263.233 18.3997 263.337 17.7103C263.337 17.3981 262.895 17.1771 262.635 16.9559C262.376 16.7347 262.505 17.1771 262.336 17.203C261.634 17.3722 261.192 16.5527 261.192 16.2926C261.252 15.7719 261.36 15.258 261.517 14.7577C261.594 14.3936 262.206 14.9919 262.557 15.1089C262.909 15.226 263.454 15.9414 262.986 16.4746L262.778 16.6178C262.778 16.7088 262.843 16.7999 262.922 16.8909C262.999 16.982 263.143 16.982 263.247 17.086C263.689 17.4761 263.637 15.7853 263.702 15.252L263.39 14.8748C263.286 14.7838 263.247 14.6537 263.103 14.5757C262.96 14.4976 262.895 14.7968 262.714 14.8099C262.601 14.8058 262.49 14.7797 262.387 14.7327C262.284 14.6859 262.191 14.6193 262.115 14.5366C262.032 14.4682 261.964 14.3829 261.918 14.2865C261.871 14.19 261.844 14.0846 261.841 13.9774C261.868 13.5388 261.932 13.1034 262.038 12.6767C262.038 12.5726 262.193 12.6767 262.284 12.6767L262.557 12.8848L262.999 13.0149C263.191 13.1359 263.34 13.313 263.428 13.5221V13.7432C263.364 13.9383 263.169 14.0814 263.143 14.2245C263.116 14.3676 263.351 14.5106 263.52 14.6537C263.949 15.07 263.779 13.4961 263.689 12.8458C263.689 12.5466 263.351 12.4035 262.986 12.3255C262.831 12.3255 262.986 12.5466 262.557 12.4296C262.376 12.3645 262.336 12.2475 262.245 12.0784C262.191 11.9005 262.156 11.7174 262.142 11.5321C262.161 11.3256 262.213 11.1236 262.297 10.9338C262.427 10.5826 262.935 11.1549 263.247 11.311C263.558 11.4671 263.351 11.6101 263.311 11.7662C263.28 11.8775 263.217 11.977 263.13 12.0524C262.999 12.1954 263.351 12.2865 263.481 12.3905C263.611 12.4946 263.611 12.3905 263.624 12.3125C263.706 11.7497 263.658 11.1753 263.481 10.6346C263.415 10.4265 263.103 10.3095 262.895 10.2314C262.688 10.1534 262.895 10.3875 262.895 10.4785C262.895 10.5696 262.493 10.4785 262.297 10.2835C262.188 10.1749 262.108 10.0405 262.064 9.89261C262.022 9.74474 262.016 9.58832 262.049 9.43802C262.049 9.43802 262.049 9.28193 262.049 9.25592L262.232 9.35997C262.434 9.3337 262.641 9.3337 262.843 9.35997C262.96 9.35997 262.986 9.54207 263.012 9.68514C263.039 9.82822 262.948 9.89325 262.948 10.0233C262.948 10.1534 263.09 10.1924 263.22 10.2184C263.689 10.3225 262.986 9.2169 262.882 8.72264C262.882 8.54055 262.584 8.42348 262.401 8.33244C262.219 8.24138 262.401 8.61859 262.232 8.68362C262.196 8.70013 262.155 8.70866 262.115 8.70866C262.074 8.70866 262.035 8.70013 261.998 8.68362C261.884 8.62594 261.781 8.54638 261.698 8.4495C261.503 8.1115 261.43 7.71661 261.49 7.33092C261.49 7.20085 261.673 7.487 262.18 7.40896C262.401 7.40896 262.584 7.70812 262.493 7.8512L262.363 8.09831C262.505 8.09831 262.493 8.31943 262.701 8.26741C262.909 8.21537 262.401 7.26588 262.076 6.71961C262.011 6.62855 261.907 6.9147 261.751 6.88869C261.594 6.86267 261.322 6.97973 261.256 6.08228C261.238 5.91369 261.238 5.74358 261.256 5.57501L261.126 4.95069C261.347 4.99228 261.56 5.06223 261.764 5.1588C262.049 5.26285 262.166 5.47096 262.466 5.57501C262.529 5.60944 262.585 5.65689 262.627 5.71422C262.671 5.77155 262.702 5.83746 262.718 5.90757C262.734 5.97768 262.734 6.05038 262.721 6.12088C262.707 6.19135 262.677 6.25801 262.635 6.31639C262.544 6.44646 262.18 6.43346 262.232 6.56352C262.557 7.33092 262.831 7.86419 262.909 8.08531C262.909 8.08531 263.09 8.02028 263.13 7.94224C263.169 7.86419 263.012 7.77315 262.948 7.69511C262.92 7.64037 262.907 7.58033 262.907 7.51951C262.907 7.45869 262.92 7.39867 262.948 7.34393C263.039 7.17484 263.286 7.20085 263.403 7.07079L263.715 7.53902C263.715 7.53902 263.923 8.17635 263.637 8.26741C263.351 8.35845 263.428 8.17635 263.311 8.08531C263.194 7.99426 263.143 8.26741 263.143 8.38446C263.219 9.00996 263.403 9.61736 263.689 10.1794C263.689 10.3355 263.883 9.84122 263.91 9.68514C263.936 9.52906 263.441 9.45101 263.675 9.04781C263.715 8.96289 263.785 8.89587 263.872 8.85979C263.959 8.82372 264.056 8.82119 264.144 8.85271C264.261 8.7985 264.358 8.70705 264.418 8.59258L264.703 9.06081C264.826 9.31539 264.863 9.60305 264.807 9.88024C264.807 10.0103 264.807 10.2054 264.599 10.2965C264.535 10.3341 264.46 10.354 264.384 10.354C264.309 10.354 264.235 10.3341 264.17 10.2965C264.066 10.2314 264.093 10.0883 264.066 9.98429C264.04 9.88024 263.858 10.3225 263.819 10.5436C263.779 10.7647 263.987 11.5191 264 12.0003C264 12.1304 264.261 11.8442 264.365 11.7532C264.469 11.6622 264.21 11.5321 264.21 11.389C264.202 11.3007 264.22 11.2123 264.262 11.134C264.303 11.0557 264.366 10.9908 264.442 10.9468C264.655 10.8479 264.887 10.8075 265.12 10.8297C265.249 10.8297 265.328 10.6737 265.406 10.5696C265.483 10.4655 265.496 11.1419 265.587 11.441C265.679 11.7402 265.483 11.8703 265.419 12.0914L265.185 12.3775L264.69 12.5206C264.64 12.5137 264.593 12.493 264.554 12.4609C264.514 12.4287 264.485 12.3864 264.469 12.3385C264.469 12.2475 264.469 12.0654 264.469 11.9743C264.469 11.8833 264.17 12.1434 264.131 12.3125C264.091 13.1299 264.135 13.9491 264.261 14.7577C264.261 14.9659 264.586 14.5106 264.743 14.3415C264.899 14.1725 264.442 14.0034 264.456 13.7953V13.4051L264.586 13.1709C264.762 13.0399 264.961 12.9428 265.171 12.8848H265.887L266.148 12.7677C266.221 12.936 266.26 13.1173 266.265 13.301C266.288 13.6426 266.252 13.9858 266.159 14.3155L265.978 14.7058C265.874 14.8099 265.81 14.9398 265.666 15.0178C265.474 15.096 265.259 15.096 265.067 15.0178L264.898 14.8488V14.5497C264.69 14.5497 264.573 14.7447 264.418 14.8488L264.157 15.213C264.157 15.8113 264.093 16.3836 264.04 16.995C264.04 17.138 264.365 16.9168 264.456 16.7999V16.5007C264.447 16.2582 264.52 16.0194 264.665 15.8243C264.751 15.7068 264.865 15.6122 264.996 15.5489C265.127 15.4853 265.272 15.4549 265.419 15.4602L266.407 15.6162L266.784 15.5121C266.868 15.7209 266.868 15.9539 266.784 16.1624C266.707 16.7478 266.407 16.8518 266.329 17.294C266.274 17.4896 266.154 17.6604 265.988 17.7785C265.823 17.8966 265.622 17.9552 265.419 17.9445C265.261 17.973 265.097 17.9565 264.947 17.8966C264.798 17.8369 264.668 17.7362 264.573 17.6062C264.482 17.4372 264.756 17.1119 264.418 17.229C263.845 17.3981 263.91 17.8793 263.806 18.2696C263.624 18.894 263.507 19.2971 263.39 19.8174C263.39 19.9604 263.662 19.8174 263.779 19.8174C263.851 19.8086 263.918 19.7829 263.978 19.742C264.037 19.7012 264.085 19.6467 264.118 19.5832C264.118 19.4791 264 19.4142 263.962 19.3231C263.916 19.1765 263.921 19.0187 263.976 18.8749C264.03 18.7312 264.129 18.6097 264.261 18.5297C264.479 18.3903 264.731 18.3139 264.99 18.3086C265.288 18.3086 265.523 18.5818 265.783 18.6989C266.091 18.8446 266.433 18.903 266.771 18.8679C267.122 18.8679 266.707 19.5573 266.55 19.8435C266.265 20.3636 265.9 20.9881 265.249 21.0791C265.007 21.1161 264.76 21.0772 264.541 20.9677C264.322 20.8582 264.142 20.6836 264.027 20.4677C263.936 20.3246 264.027 20.1685 264.027 20.0255C264.027 19.8824 263.324 20.0255 263.194 20.3246C263.116 20.3246 262.57 21.8074 262.245 22.5097C262.245 22.6268 262.387 22.5097 262.466 22.5879L263.052 22.5227C263.116 22.4058 262.96 22.3276 263.052 22.1976C263.143 22.0675 263.052 21.5343 263.415 21.3522C264.495 20.7148 265.081 22.2626 266.199 22.1066C266.824 22.0286 265.952 23.4072 265.341 23.7714C265.003 23.9925 264.56 24.0445 264.235 24.3437C263.91 24.6429 263.324 24.4087 262.935 24.1227C262.797 24.0214 262.693 23.8829 262.633 23.7237C262.573 23.5646 262.56 23.3914 262.597 23.2251C262.597 23.082 262.818 23.017 262.856 22.887C262.895 22.7569 262.18 22.7699 262.011 22.9781C261.49 23.6284 260.58 24.9681 259.864 25.9305H260.047C260.359 25.9305 260.697 26.0217 260.957 25.8655C260.867 25.6177 260.867 25.3459 260.957 25.0981C261.08 24.8569 261.285 24.6677 261.537 24.5651C261.787 24.4625 262.065 24.4532 262.323 24.5388C262.889 24.7317 263.408 25.0419 263.845 25.4494C263.967 25.5239 264.103 25.5697 264.245 25.5831C264.387 25.5967 264.53 25.5776 264.665 25.5274C265.613 25.2932 263.702 27.3223 262.856 27.9596C262.553 28.1515 262.202 28.2533 261.841 28.2533C261.483 28.2533 261.13 28.1515 260.827 27.9596C260.502 27.7125 260.255 27.5824 260.229 27.0751C260.204 26.5679 260.502 26.5028 260.542 26.2817C260.164 26.3598 259.76 26.1777 259.409 26.3598C258.759 27.0751 257.888 27.6604 257.199 28.2978C257.428 28.4382 257.679 28.5434 257.939 28.6099C258.07 28.2978 258.174 27.8815 258.564 27.7384C258.869 27.6317 259.2 27.6206 259.511 27.7066C259.822 27.7926 260.1 27.9716 260.308 28.2197C260.654 28.7873 261.094 29.2928 261.607 29.7155C261.477 30.0146 261.165 30.0667 260.984 30.3137C260.695 30.6238 260.341 30.8635 259.948 31.0147C259.552 31.1658 259.128 31.2242 258.708 31.1852C258.415 31.1737 258.13 31.0844 257.884 30.9267C257.636 30.769 257.436 30.5485 257.303 30.2878C257.159 29.9377 257.159 29.5453 257.303 29.1952C257.407 29.0261 257.641 29.0652 257.68 28.8701C257.357 28.6261 256.95 28.5187 256.547 28.5709C255.614 28.9778 254.623 29.2409 253.608 29.3512C253.826 29.6099 254.061 29.8531 254.311 30.0797C254.413 29.9174 254.535 29.7688 254.675 29.6374C254.87 29.5248 255.087 29.454 255.311 29.4292C255.535 29.4047 255.761 29.4268 255.975 29.4944C256.239 29.6031 256.465 29.7821 256.634 30.0115C256.801 30.2409 256.902 30.5119 256.925 30.795C256.925 31.3023 257.354 32.2909 257.939 32.4858C257.648 32.7493 257.297 32.937 256.916 33.0322C256.534 33.1275 256.136 33.1275 255.754 33.0322C255.013 32.7461 253.973 33.1622 253.414 32.2258C253.285 32.0522 253.193 31.8546 253.141 31.6445C253.089 31.4346 253.08 31.2165 253.114 31.0031C253.147 30.8926 253.204 30.7915 253.283 30.7078C253.364 30.6242 253.46 30.5604 253.57 30.5219C253.686 30.4439 253.829 30.5219 253.946 30.4048C253.686 29.9664 253.324 29.5964 252.893 29.3253C252.146 29.2107 251.416 29.001 250.72 28.7009C250.696 28.7394 250.681 28.7848 250.681 28.831C250.681 28.8773 250.696 28.9227 250.72 28.9612C250.78 29.1574 250.873 29.3422 250.994 29.5074C251.177 29.4341 251.373 29.403 251.569 29.4165C251.766 29.4301 251.956 29.4878 252.126 29.5854C252.306 29.7073 252.445 29.8802 252.527 30.0818C252.607 30.2833 252.626 30.5045 252.581 30.717C252.516 31.1202 252.243 31.4453 252.282 31.8616L252.451 32.4209C251.697 32.6029 251.151 31.9657 250.486 31.9526C250.205 31.8969 249.937 31.7823 249.702 31.6164C249.466 31.4506 249.268 31.2373 249.121 30.9901C249.039 30.7925 249.006 30.5775 249.027 30.3641C249.047 30.1508 249.119 29.9459 249.238 29.7675C249.346 29.6298 249.485 29.5193 249.643 29.4448C249.801 29.3701 249.974 29.3337 250.148 29.3384C250.278 29.3384 250.422 29.5074 250.513 29.4164C250.451 29.0333 250.305 28.6689 250.084 28.3498C249.396 27.8955 248.788 27.3281 248.289 26.672C248.137 26.8688 248.059 27.1127 248.068 27.3612C248.285 27.4395 248.494 27.5398 248.692 27.6604C248.853 27.7953 248.971 27.9738 249.034 28.1744C249.097 28.3752 249.1 28.5895 249.043 28.792C248.939 29.4424 248.223 29.8585 247.742 30.1707C247.613 30.1707 247.483 30.5479 247.483 30.5479C247.028 30.3919 246.871 29.8716 246.546 29.5594C246.206 29.323 245.946 28.9881 245.802 28.5998C245.658 28.2115 245.636 27.7883 245.74 27.3873C245.788 27.2107 245.874 27.0465 245.99 26.9054C246.107 26.7642 246.252 26.6491 246.416 26.5679C246.612 26.4874 246.827 26.4605 247.036 26.4903C247.247 26.52 247.446 26.6051 247.613 26.7369C247.73 26.7369 247.691 26.9711 247.847 26.997C247.982 26.7888 248.071 26.5537 248.106 26.3078C247.607 25.44 247.272 24.4876 247.118 23.4983C247.052 23.4983 246.988 23.4983 246.924 23.4983C246.688 23.648 246.479 23.8321 246.299 24.0445C246.299 24.2266 246.546 24.1746 246.637 24.2787C246.949 24.5518 247.249 24.8771 247.118 25.3062C246.988 25.7355 246.546 26.0476 246.168 26.2817C245.791 26.5158 245.375 26.2817 245.103 26.5158C244.88 26.7611 244.583 26.9259 244.257 26.984C244.075 26.984 244.009 26.7369 243.906 26.5939C243.424 25.6086 243.304 24.4849 243.567 23.4202C243.714 23.1773 243.922 22.9781 244.172 22.8431C244.421 22.7082 244.702 22.6425 244.986 22.6528C245.198 22.6296 245.413 22.6703 245.603 22.7699C245.794 22.8696 245.949 23.0234 246.051 23.2121V23.6803C246.168 23.6803 246.272 23.6023 246.376 23.5504L247.041 22.7699C247.145 21.9375 247.275 21.092 247.404 20.2726C247.404 20.1425 247.483 19.9604 247.404 19.8954C247.088 19.948 246.788 20.0775 246.533 20.2726C246.648 20.3994 246.735 20.5504 246.785 20.7148C246.834 20.8792 246.846 21.0525 246.82 21.2221C246.82 21.5863 246.48 21.8074 246.221 22.0156C244.92 23.095 243.853 21.4822 242.54 22.0156C242.452 21.8657 242.405 21.695 242.405 21.5213C242.405 21.3475 242.452 21.1769 242.54 21.027C243.19 20.1555 243.19 18.8679 244.4 18.3086C244.624 18.2123 244.864 18.1627 245.109 18.1627C245.352 18.1627 245.593 18.2123 245.817 18.3086C246.015 18.3198 246.204 18.3875 246.363 18.5037C246.511 18.6847 246.599 18.9067 246.615 19.1396C246.632 19.3724 246.575 19.6046 246.455 19.8044C246.631 19.7919 246.802 19.7441 246.959 19.6636C247.114 19.5831 247.253 19.4717 247.366 19.3361C247.847 18.7378 247.651 17.9445 247.808 17.2421C246.981 16.3605 246.079 15.5511 245.115 14.8227C244.971 14.8527 244.839 14.924 244.735 15.0279C244.632 15.132 244.56 15.264 244.531 15.4081C244.782 15.3975 245.033 15.4609 245.249 15.5903C245.467 15.7195 245.641 15.9094 245.753 16.1365C245.838 16.3232 245.871 16.5294 245.848 16.7333C245.824 16.9372 245.747 17.1311 245.622 17.294C245.394 17.5245 245.12 17.7031 244.817 17.8176C244.514 17.932 244.19 17.9797 243.866 17.9574C243.604 17.9894 243.352 18.0781 243.127 18.2173C242.903 18.3566 242.711 18.5431 242.566 18.7638C242.366 18.4953 242.249 18.1744 242.228 17.8404C242.162 17.3331 242.37 16.8388 242.228 16.3445C242.136 16.0874 242.105 15.812 242.139 15.541C242.173 15.2697 242.271 15.0104 242.423 14.7838C242.562 14.6408 242.738 14.5395 242.931 14.4912C243.122 14.443 243.326 14.4497 243.515 14.5106C243.695 14.5977 243.856 14.7213 243.986 14.8735C244.115 15.0259 244.211 15.2034 244.27 15.395L244.725 14.8618C244.634 14.6667 244.4 14.6017 244.23 14.4716L243.139 14.0294C242.25 13.7755 241.305 13.8027 240.432 14.1074V12.5596C240.986 12.4408 241.546 12.3625 242.111 12.3255C242.189 12.3255 242.111 12.2215 242.111 12.1694C241.897 11.8911 241.621 11.6681 241.305 11.5191C241.174 11.8963 240.784 11.9613 240.498 12.0524H240.432V8.89173C240.779 8.86605 241.127 8.92404 241.447 9.06081C241.733 9.15692 241.988 9.32847 242.186 9.55738C242.382 9.7863 242.514 10.0641 242.566 10.3615C242.575 10.5564 242.531 10.7502 242.436 10.9208C242.319 11.1549 242.072 11.2459 241.954 11.415C242.341 11.7954 242.779 12.1195 243.256 12.3775C243.955 12.5002 244.636 12.71 245.284 13.0018C245.284 12.8588 245.284 12.6897 245.218 12.5466C245.161 12.3233 245.065 12.112 244.933 11.9223C244.835 12.0054 244.721 12.066 244.598 12.0997C244.473 12.1334 244.345 12.1395 244.217 12.1174C244.011 12.0915 243.816 12.0065 243.658 11.8726C243.499 11.7388 243.382 11.5618 243.32 11.363C243.216 11.04 243.177 10.6998 243.203 10.3615C243.203 9.72415 243.906 9.2169 243.464 8.57957C243.747 8.47493 244.05 8.43807 244.352 8.47194C244.652 8.50583 244.94 8.60948 245.194 8.77466C245.675 9.08682 246.325 9.00879 246.676 9.58109C246.833 9.81057 246.935 10.0727 246.976 10.3475C247.016 10.6224 246.994 10.903 246.911 11.1679C246.741 11.5321 246.559 12.0133 246.13 12.1824C245.917 12.2275 245.696 12.1952 245.505 12.0914C245.581 12.5905 245.778 13.0636 246.078 13.4701C246.767 13.9643 247.483 14.4066 248.172 14.9659C248.172 14.9659 248.314 15.083 248.367 14.9659C248.471 14.6313 248.471 14.2729 248.367 13.9383C247.925 13.9383 247.326 14.0164 247.066 13.5872C246.935 13.3997 246.853 13.1823 246.829 12.9551C246.804 12.7278 246.836 12.4979 246.924 12.2865C247.275 11.6912 247.713 11.152 248.223 10.6867C248.497 10.4005 248.314 9.84122 248.523 9.49004C249.602 9.69814 249.953 10.8817 250.499 11.6752C250.726 12.0532 250.83 12.4914 250.801 12.9308C250.77 13.3702 250.606 13.7898 250.331 14.1334C250.199 14.2832 250.024 14.3859 249.828 14.4259C249.633 14.4658 249.431 14.4407 249.251 14.3545C249.121 14.3545 248.992 13.9513 248.913 14.2635C248.851 14.7043 248.91 15.1538 249.083 15.5642C249.38 15.857 249.706 16.1184 250.057 16.3445C250.773 16.2674 251.482 16.137 252.178 15.9543C252.65 15.8612 253.112 15.7219 253.557 15.5382C253.583 15.3947 253.578 15.2469 253.537 15.1068C253.496 14.9666 253.422 14.8381 253.323 14.7317C253.206 14.7317 253.206 14.8488 253.114 14.8879C252.955 15.0686 252.751 15.2021 252.521 15.2733C252.291 15.3444 252.047 15.3505 251.814 15.291C250.994 14.9529 251.138 13.6522 251.255 13.379C251.372 13.1059 251.774 12.7807 251.787 12.3645C251.755 11.8621 251.755 11.3581 251.787 10.8557C251.918 10.7647 252.022 10.8557 252.152 10.8557C252.881 10.9208 253.166 11.7532 254.09 11.8833C254.33 11.9549 254.548 12.0851 254.725 12.2622C254.902 12.4393 255.032 12.6578 255.104 12.8978C255.172 13.175 255.145 13.4665 255.03 13.7274C254.914 13.9882 254.716 14.204 254.467 14.3415C254.207 14.4716 253.92 14.4846 253.686 14.6017C253.829 14.8227 253.908 15.096 254.037 15.33C254.481 15.2651 254.792 14.8618 255.208 14.7187C255.997 14.1776 256.581 13.3871 256.866 12.4743C257.152 11.5614 257.123 10.5791 256.782 9.68514C256.653 9.60151 256.508 9.54463 256.356 9.51783C256.203 9.49102 256.048 9.49484 255.897 9.52906C255.88 9.70411 255.927 9.87968 256.028 10.0233C256.105 10.1977 256.14 10.3888 256.126 10.5794C256.113 10.7701 256.053 10.9544 255.95 11.1159C255.811 11.2761 255.635 11.4002 255.439 11.4772C255.242 11.5543 255.028 11.5821 254.819 11.5581C254.053 11.3831 253.386 10.9165 252.958 10.2574C252.648 10.0462 252.279 9.94126 251.905 9.95828C251.891 9.9473 251.88 9.93343 251.872 9.91768C251.865 9.90193 251.861 9.88469 251.861 9.86723C251.861 9.84978 251.865 9.83254 251.872 9.81679C251.88 9.80102 251.891 9.78716 251.905 9.77619C252.12 9.1617 252.537 8.63869 253.089 8.29342C253.4 7.8902 253.791 7.40896 254.388 7.51301C254.987 7.61707 255.442 7.76014 255.69 8.24138C255.817 8.52744 255.845 8.84824 255.767 9.15187C256.013 9.22638 256.277 9.22638 256.522 9.15187C256.6 9.0348 256.522 8.93075 256.432 8.81368C255.694 7.42581 254.5 6.33636 253.049 5.7311C252.777 5.77937 252.524 5.90589 252.32 6.09528C252.32 6.17332 252.165 6.18633 252.165 6.29038C252.165 6.39444 252.36 6.29038 252.477 6.29038C252.641 6.32746 252.793 6.40888 252.915 6.52583C253.036 6.64277 253.122 6.79074 253.166 6.95373C253.166 7.69511 252.412 8.2544 251.865 8.57957C250.883 8.82119 249.866 8.88289 248.862 8.76166C249.043 8.37146 249.525 7.8902 249.498 7.61706C249.498 7.00576 249.368 6.14731 250.006 5.70507C250.211 5.56112 250.447 5.46632 250.696 5.42797C250.943 5.38964 251.198 5.4088 251.436 5.48397C251.555 5.50431 251.663 5.56424 251.744 5.65399C251.824 5.74373 251.871 5.85801 251.878 5.97823C252.19 5.90495 252.462 5.71975 252.647 5.45795C251.931 5.20887 251.196 5.02601 250.448 4.91167C249.892 4.82744 249.331 4.78828 248.769 4.79461C248.516 5.04509 248.305 5.33501 248.146 5.65305C248.341 5.75711 248.575 5.49697 248.822 5.65305C249.069 5.80913 249.134 5.90018 249.147 6.3424C249.147 7.03177 248.822 7.2789 248.25 7.64309C247.852 7.92467 247.413 8.14396 246.949 8.29342C246.637 8.29342 246.286 8.29342 245.974 8.29342C245.857 8.16335 246.051 8.08531 246.064 7.95525C246.208 7.16183 245.336 6.56352 245.843 5.78312C246.013 5.52249 246.259 5.32108 246.548 5.20687C246.837 5.09266 247.155 5.0713 247.456 5.14579C247.634 5.20694 247.783 5.33217 247.872 5.49697C248.111 5.30285 248.272 5.03105 248.327 4.72957C247.424 4.70601 246.521 4.74077 245.622 4.83363C245.349 4.89866 244.997 4.83363 244.88 5.19782C244.779 5.36298 244.705 5.54291 244.659 5.7311C244.659 5.80913 244.803 5.7311 244.907 5.7311C245.271 5.7311 245.336 6.00424 245.362 6.27737C245.369 6.46196 245.336 6.64585 245.261 6.81495C245.186 6.98404 245.075 7.13385 244.933 7.25287C244.476 7.54328 243.982 7.77077 243.464 7.92922C243.535 7.6338 243.507 7.32316 243.386 7.04477C243.386 6.75863 243.046 6.78464 243.046 6.42045C243.061 6.22756 243.14 6.04491 243.269 5.90127C243.399 5.75763 243.572 5.66115 243.762 5.62704C243.964 5.58315 244.173 5.62055 244.348 5.7311C244.513 5.55639 244.618 5.33287 244.646 5.09377C244.531 4.9767 244.361 5.09377 244.217 5.09377L242.918 5.43194C242.657 5.50998 242.631 5.78312 242.487 5.96521C242.394 6.13573 242.316 6.31418 242.253 6.49849C242.37 6.57653 242.487 6.39444 242.631 6.49849C242.774 6.60254 242.918 7.14882 242.8 7.46099C242.41 8.04629 241.656 7.8902 241.161 8.26741C241.097 8.26741 240.991 8.26741 240.966 8.26741C241.252 7.86419 240.784 7.55203 240.823 7.12281C240.807 6.88555 240.876 6.65041 241.018 6.45947C241.116 6.35613 241.242 6.28381 241.381 6.25145C241.52 6.21909 241.665 6.22811 241.798 6.27737C241.89 6.27737 241.941 6.47248 242.045 6.42045C242.199 6.19331 242.285 5.92713 242.293 5.65305C241.741 5.78803 241.201 5.97082 240.68 6.19933V5.562C241.135 5.35389 241.59 5.18481 241.981 4.95069C241.754 4.73825 241.469 4.59793 241.161 4.54748C241.084 4.54748 241.161 4.71656 241.07 4.79461C240.971 4.94894 240.819 5.0604 240.642 5.10676V2.84361H240.445ZM240.445 15.4732V19.2971C240.744 19.4859 241.015 19.7133 241.252 19.9734C241.616 19.7133 241.564 19.284 241.552 18.7638C241.552 17.9445 241.994 17.0079 241.447 16.2795C241.23 15.97 240.94 15.7195 240.602 15.5512H240.445V15.4732ZM240.445 31.5754C240.677 31.3907 240.886 31.1814 241.07 30.9512C241.171 30.7654 241.212 30.5528 241.186 30.3429C241.16 30.133 241.07 29.9364 240.927 29.7805C240.807 29.6191 240.639 29.5005 240.445 29.4424V31.5754ZM240.445 28.753C241.005 29.2862 241.63 29.8716 242.215 30.3919C242.266 30.6142 242.266 30.8458 242.215 31.0681C242.098 31.3803 241.941 30.8991 241.76 30.9771C241.602 31.0541 241.464 31.1693 241.363 31.3124C241.261 31.4556 241.195 31.622 241.174 31.7966C241.148 32.0513 241.193 32.3083 241.306 32.5384C241.419 32.7683 241.594 32.962 241.811 33.0972C241.861 33.2126 241.938 33.3141 242.035 33.3933C242.133 33.4725 242.247 33.5271 242.37 33.5524C242.162 33.0322 242.8 32.9021 243.008 32.577C243.118 32.4377 243.19 32.2716 243.215 32.0956C243.241 31.9196 243.218 31.7401 243.152 31.5754C243.127 31.5061 243.084 31.4437 243.03 31.3939C242.976 31.344 242.91 31.3082 242.839 31.2893C242.708 31.2893 242.514 31.2893 242.383 31.2893C242.253 31.2893 242.383 30.8601 242.579 30.743C243.112 31.0162 243.581 31.4324 244.1 31.7575C244.228 31.9936 244.295 32.2571 244.296 32.5249C244.191 32.642 244.1 32.5249 243.983 32.4469C243.866 32.3689 243.503 32.8111 243.464 33.0842C243.437 33.2421 243.453 33.4039 243.507 33.554C243.562 33.7044 243.654 33.8381 243.775 33.9426C244.4 34.1638 244.542 34.5799 245.076 34.619C245.609 34.6581 245.076 34.3979 245.076 34.2288C245.076 34.0597 245.675 33.7475 245.675 33.3834C245.665 33.22 245.606 33.0633 245.507 32.9334C245.407 32.8036 245.271 32.7067 245.115 32.6551C244.937 32.6141 244.752 32.6419 244.595 32.7331C244.526 32.6384 244.478 32.5309 244.45 32.4171C244.424 32.3032 244.419 32.1851 244.438 32.0697C244.438 32.0697 244.438 31.9917 244.531 32.0047C245.037 32.2258 245.545 32.4599 246.051 32.72L246.286 33.0842C246.286 33.2273 246.455 33.3834 246.363 33.5135C246.155 33.4355 245.921 33.6956 245.87 33.9037C245.649 34.775 246.637 34.3589 247.014 34.9312C247.085 34.981 247.168 35.0078 247.254 35.0078C247.341 35.0078 247.426 34.981 247.496 34.9312C247.339 34.5671 247.574 34.1899 247.496 33.8127C247.47 33.7292 247.426 33.6524 247.367 33.5873C247.309 33.5223 247.237 33.4705 247.158 33.4353C247.074 33.4081 246.987 33.4009 246.9 33.4146C246.815 33.428 246.733 33.462 246.663 33.5135C246.597 33.4424 246.546 33.3582 246.515 33.2663C246.483 33.1744 246.471 33.0769 246.48 32.9801C246.48 32.9801 246.572 32.9801 246.624 32.9801C247.183 33.2663 247.821 33.3964 248.38 33.6435C248.504 33.7783 248.591 33.9447 248.627 34.1247C248.627 34.2418 248.471 34.1247 248.354 34.1247C248.016 34.2288 248.172 34.684 248.354 34.8141C248.49 34.9725 248.671 35.0868 248.872 35.1424C249.074 35.1981 249.287 35.1923 249.485 35.1263C249.29 34.7881 249.772 34.3198 249.29 34.0988C249.134 34.0207 248.992 34.0988 248.848 34.0988C248.705 34.0988 248.652 33.8777 248.744 33.7606L250.305 34.0597L250.578 34.2938C250.72 34.5149 250.396 34.372 250.318 34.5019C250.292 34.6044 250.292 34.7117 250.318 34.8141C250.461 35.1653 250.903 35.0483 251.202 35.0353C251.268 35.0353 251.359 35.0353 251.385 34.9571C251.41 34.8791 251.385 34.684 251.319 34.528C251.255 34.3719 251.164 34.3719 251.072 34.3459C250.981 34.3198 250.877 34.4109 250.773 34.3459C250.669 34.2809 250.617 34.2288 250.696 34.1508C251.253 34.1183 251.814 34.1183 252.373 34.1508C252.672 34.3068 252.451 34.6451 252.62 34.7101C253.283 34.9571 253.582 34.5799 253.999 34.3589C254.09 34.3589 254.22 34.2418 254.22 34.1378C253.791 33.9557 253.453 33.5655 252.998 33.4614C252.541 33.3573 252.62 33.4614 252.477 33.5785C252.333 33.6956 252.607 33.9296 252.477 33.9296C251.89 33.9479 251.304 33.8866 250.734 33.7475C250.734 33.6435 250.864 33.6304 250.93 33.5785C250.994 33.5265 251.111 33.5785 251.189 33.6565C251.566 33.8256 251.58 33.3314 251.891 33.2533C251.546 33.0276 251.129 32.9394 250.72 33.0062C250.681 33.0255 250.646 33.0527 250.617 33.0863C250.587 33.1198 250.565 33.159 250.552 33.2013C250.552 33.3314 250.669 33.3834 250.709 33.4874C250.097 34.0337 249.342 33.4874 248.718 33.3314C248.641 33.3314 248.718 33.2273 248.718 33.2013C249.096 32.8632 249.277 33.5135 249.629 33.2013C249.98 32.8891 249.785 32.681 250.084 32.642C249.655 32.538 249.173 32.0437 248.783 32.3298C248.393 32.616 248.444 32.642 248.575 32.8371C248.705 33.0322 248.679 32.8371 248.665 32.9282C248.652 33.0192 248.444 33.0581 248.302 33.0712C247.872 33.1622 247.6 32.798 247.209 32.7331C247.028 32.629 246.78 32.5899 246.663 32.4209C246.807 32.2388 247.079 32.2518 247.287 32.2258C247.496 32.1997 247.47 32.564 247.704 32.616C248.237 32.616 248.223 32.0176 248.641 31.8746C248.25 31.7056 247.847 31.2113 247.456 31.3153C247.066 31.4194 246.935 31.4844 246.897 31.7575C246.858 32.0306 247.131 31.9526 246.962 32.0958C246.711 32.1827 246.447 32.2181 246.182 32.1997C245.718 32.0091 245.281 31.76 244.88 31.4583C244.88 31.2243 245.218 31.2893 245.401 31.2502C245.583 31.2113 245.479 31.5365 245.649 31.6404C245.735 31.6821 245.832 31.7037 245.928 31.7037C246.025 31.7037 246.12 31.6821 246.208 31.6404C246.363 31.6404 246.416 31.4324 246.429 31.2893C246.442 31.1463 246.793 31.0942 246.949 30.9512C246.754 30.808 246.52 30.743 246.338 30.6259C246.223 30.4929 246.073 30.3953 245.905 30.3446C245.737 30.294 245.558 30.2922 245.388 30.3398C245.232 30.3398 245.011 30.574 245.115 30.795C245.218 31.0162 245.232 30.9251 245.245 31.0162C245.031 31.1325 244.784 31.1737 244.542 31.1333C243.91 30.7338 243.333 30.2529 242.825 29.7025C243.016 29.59 243.231 29.5273 243.45 29.5204C243.594 29.5204 243.45 29.6895 243.528 29.7805C243.554 29.9039 243.617 30.0166 243.706 30.1046C243.797 30.1926 243.911 30.2518 244.036 30.2748C244.348 30.2748 244.973 29.7155 245.532 29.7805C245.548 29.76 245.555 29.7349 245.555 29.709C245.555 29.683 245.548 29.6579 245.532 29.6374C245.141 29.2732 244.92 28.8441 244.517 28.5058C244.411 28.4301 244.289 28.3792 244.16 28.3567C244.033 28.3341 243.901 28.3407 243.775 28.3758C243.567 28.4669 243.281 28.6229 243.229 28.8701C243.177 29.1172 243.32 29.1691 243.411 29.2732C243.502 29.3773 243.19 29.3903 243.073 29.4294C242.956 29.4683 242.604 29.5204 242.397 29.4294C241.813 28.968 241.308 28.4145 240.901 27.7905C241.125 27.7445 241.354 27.7445 241.577 27.7905C241.621 27.9918 241.726 28.1746 241.877 28.3142C242.028 28.4538 242.219 28.5434 242.423 28.5709C242.871 28.5102 243.279 28.2826 243.567 27.9335C243.698 27.8166 243.932 27.9335 244.113 27.8296C243.894 27.4795 243.578 27.1998 243.203 27.0231C243.073 26.8053 242.877 26.6357 242.642 26.5395C242.407 26.4433 242.148 26.4259 241.902 26.4899C241.769 26.5263 241.644 26.5934 241.54 26.686C241.436 26.7785 241.356 26.8939 241.305 27.0231C241.305 27.2312 241.447 27.3353 241.499 27.5174C241.212 27.6352 240.889 27.6352 240.602 27.5174L240.381 27.2832V28.584L240.445 28.753ZM240.445 26.4378C240.586 26.5114 240.743 26.5515 240.901 26.5549C241.786 26.5549 242.085 25.4883 242.891 25.2542C242.735 24.7209 242.072 24.5258 241.707 24.2657C241.548 24.0707 241.35 23.9101 241.126 23.7939C240.904 23.6777 240.658 23.608 240.407 23.5893V26.4378H240.445ZM240.445 23.017C240.656 22.884 240.877 22.7707 241.108 22.6789C241.318 22.5488 242.162 22.848 242.162 22.848C241.728 21.8262 241.149 20.8714 240.445 20.0125V23.017ZM238.846 3.50695C239.171 3.25982 239.535 3.20779 239.939 2.96066C240.096 2.88084 240.27 2.84065 240.445 2.84361V5.26285H240.368C240.202 5.27052 240.039 5.23637 239.891 5.1636C239.743 5.09081 239.617 4.98177 239.522 4.84664C239.197 4.53447 239.223 4.10526 238.976 3.76707C238.945 3.72968 238.906 3.70244 238.859 3.68904V3.49394L238.846 3.50695ZM240.445 14.0944C240.312 14.1392 240.186 14.2004 240.069 14.2765C239.769 14.4976 239.067 14.6407 239.223 15.1999C239.282 15.4524 239.397 15.6881 239.561 15.8893C239.661 15.7472 239.794 15.6308 239.948 15.5495C240.101 15.4681 240.271 15.4242 240.445 15.4211V19.2971C240.334 19.2223 240.217 19.157 240.094 19.102C239.873 19.102 239.782 19.193 239.497 19.102C239.274 19.0576 239.056 18.9923 238.846 18.9068V16.3056C238.986 16.2693 239.13 16.2475 239.274 16.2405C239.34 16.1235 239.274 16.0064 239.274 15.8893C239.173 15.703 239.051 15.5285 238.911 15.3691V13.249V12.7937L239.509 12.9108C239.769 12.8458 239.99 12.6767 240.251 12.6247L240.511 12.5466V14.0944H240.445ZM240.445 12.0263C240.279 12.0641 240.104 12.0576 239.939 12.0074C239.775 11.9572 239.627 11.8651 239.509 11.7402C239.106 11.285 239.106 10.6086 238.846 10.1014V9.54207C239.307 9.17691 239.861 8.94723 240.445 8.87871V12.0263ZM240.445 6.30338V5.66607L239.939 5.88717C239.601 5.88427 239.272 5.78499 238.989 5.60102C238.989 5.53599 239.093 5.50998 239.146 5.48397C239.197 5.43258 239.235 5.36789 239.253 5.29684C239.272 5.22578 239.27 5.15107 239.25 5.08076C239.176 4.84257 239.036 4.6304 238.846 4.46943V5.83515C239.002 5.83515 239.146 5.9392 239.288 5.96521C239.431 5.99122 239.471 5.96521 239.457 6.09528C239.264 6.25015 239.061 6.38933 238.846 6.5115V7.07079L239.392 6.78464C239.392 6.78464 239.535 6.7066 239.588 6.78464C239.639 6.86267 239.588 7.1098 239.444 7.21385C239.288 7.55203 239.119 7.21386 238.872 7.31792V8.89173C239.329 8.69188 239.763 8.44792 240.173 8.16335C240.245 8.06567 240.292 7.95111 240.308 7.83047C240.324 7.70985 240.308 7.58716 240.264 7.47399C240.238 7.40173 240.192 7.33797 240.134 7.28977C240.074 7.24157 240.002 7.21079 239.926 7.20085C239.822 7.20085 239.743 7.34393 239.639 7.29189C239.711 6.96328 239.873 6.66134 240.107 6.42045L240.459 6.27737L240.445 6.30338ZM240.445 19.9604V22.965C240.265 23.1089 240.053 23.2067 239.826 23.2497C239.599 23.2928 239.365 23.2799 239.146 23.2121C239.029 23.1588 238.916 23.0981 238.808 23.03V19.7524C239.036 19.6612 239.283 19.6243 239.529 19.6447C239.775 19.6649 240.014 19.7419 240.224 19.8694L240.407 20.0125L240.445 19.9604ZM240.445 23.5373V26.3858C240.223 26.2715 240.037 26.0954 239.913 25.8785C239.759 25.6106 239.69 25.302 239.718 24.994C239.453 24.8462 239.144 24.7955 238.846 24.851V24.4999L239.288 24.5909C239.444 24.5909 239.613 24.6689 239.743 24.5909C239.687 24.5281 239.648 24.4527 239.627 24.3711C239.607 24.2895 239.607 24.2043 239.626 24.1227C239.696 23.9683 239.804 23.8346 239.942 23.7344C240.078 23.6342 240.239 23.5709 240.407 23.5504L240.445 23.5373ZM240.445 27.4394C240.107 27.0622 239.822 26.6459 239.522 26.2427C239.274 25.8745 239.049 25.4924 238.846 25.0981V26.8019C239.203 27.3453 239.602 27.8586 240.043 28.3368C240.068 28.6541 240.009 28.9723 239.873 29.2602C239.73 29.2602 239.705 29.1042 239.601 29.0392C239.485 28.9579 239.343 28.9237 239.203 28.943C239.062 28.9622 238.935 29.0338 238.846 29.1432V31.5364C238.936 31.9787 239.548 32.2648 239.99 32.4078C239.998 32.2416 240.041 32.0789 240.12 31.9324C240.2 31.7859 240.311 31.6595 240.445 31.5624V29.4424H240.238C240.094 29.2862 240.173 28.9871 240.238 28.792C240.302 28.5969 240.238 28.6359 240.341 28.649L240.472 28.7661V27.4653L240.445 27.4394ZM238.846 28.5709V27.6215C238.932 27.8088 238.971 28.0139 238.963 28.2197C238.954 28.3488 238.913 28.4736 238.846 28.584V28.5709ZM238.715 3.59799L238.846 3.49394V3.68904C238.803 3.69657 238.759 3.69657 238.715 3.68904V3.59799ZM238.846 18.8679L238.715 18.7899V16.3445H238.846V18.9459V18.8679ZM238.846 15.3431H238.715V13.34L238.846 13.249V15.395V15.3431ZM238.846 13.1449L238.715 13.0799V12.7937H238.846V13.1449ZM238.846 10.1404C238.813 10.099 238.774 10.0638 238.729 10.0363V9.69814L238.859 9.6071V10.1924L238.846 10.1404ZM238.846 8.95676L238.742 9.02179C238.748 8.93087 238.748 8.83959 238.742 8.74865V7.44798H238.872V9.02179L238.846 8.95676ZM238.846 7.1098L238.715 7.18784V6.61556L238.846 6.55051V7.1098ZM238.846 5.87417H238.715V4.44342L238.846 4.50846V5.87417ZM238.846 19.7394V23.0691L238.715 22.991V19.8174C238.759 19.8104 238.803 19.8104 238.846 19.8174V19.7394ZM238.846 24.5388V24.8899H238.768L238.846 25.0722V26.776L238.729 26.6068V24.4999H238.859L238.846 24.5388ZM238.846 27.6084V28.5709L238.715 28.727V27.4263C238.767 27.4907 238.81 27.5604 238.846 27.6345V27.6084ZM238.846 29.1432V31.5364C238.84 31.5021 238.84 31.4668 238.846 31.4324C238.837 31.2992 238.797 31.1699 238.729 31.0552V29.3384C238.761 29.2732 238.8 29.212 238.846 29.1563V29.1432Z" fill="#6A47DC"/>
</g>
<defs>
<clipPath id="clip0_2309_51890">
<rect width="266.39" height="35.1283" fill="white" transform="translate(0.704834 0.052002)"/>
</clipPath>
</defs>
</svg>
