<svg width="382" height="42" viewBox="0 0 382 42" fill="none" xmlns="http://www.w3.org/2000/svg">
<path d="M359.341 30.5702L371.782 30.572L365.586 14.5385C365.123 15.6575 361.669 24.6512 359.341 30.5702ZM368.797 10.716L381.193 41.0078H376.02L373.081 33.8776H357.989L355.186 41.0033H350.063L362.694 10.7138L368.797 10.716ZM339.889 41.0041L335.039 41.0023L331.5 18.0296L321.714 41.0023L317.287 41.0006L307.321 18.0278L303.959 41.0006L299.065 40.9988L304.199 10.7092H309.046L319.525 35.691L330.197 10.7115L335.093 10.7133L339.889 41.0041ZM269.609 14.2932L269.607 27.3897C272.591 27.3448 281.445 26.7829 281.445 20.3088C281.445 16.5785 279.025 14.0617 274.135 14.0617C272.782 14.0617 271.105 14.2011 269.609 14.2932ZM264.904 10.7022C264.904 10.7022 268.96 10.0528 274.135 10.0528C282.38 10.0545 286.524 14.2482 286.524 19.7942C286.524 24.4076 283.589 27.111 280.144 28.7402L290.339 40.9962H284.007L275.481 30.2772C273.106 30.7918 270.913 30.9312 269.607 30.9761L269.605 40.9917H264.9L264.904 10.7022ZM253.268 40.992L231.419 40.9884L231.421 10.6989L252.11 10.7007V14.6647L236.502 14.6629L236.498 23.2358L249.217 23.2376V27.0578H236.498V37.0757L253.269 37.0792L253.268 40.992ZM177.517 40.9796L156.173 40.9778L156.177 10.6882H161.261L161.254 37.2048L177.516 37.2065L177.517 40.9796ZM122.829 30.5372H135.267L129.079 14.506C128.607 15.6251 125.16 24.616 122.829 30.5372ZM132.29 10.6813L144.683 40.9776H139.51L136.575 33.8428L121.477 33.8411L118.677 40.9736H113.555L126.184 10.6818L132.29 10.6813ZM97.7798 36.2188V22.8909H102.07L102.065 38.4075C102.065 38.4075 97.8272 41.7131 90.2318 41.7131C79.4656 41.7131 73.0859 35.6076 73.0859 25.9156C73.0883 16.3651 80.2589 10.0281 90.3711 10.0281C96.7621 10.0281 100.811 11.5225 100.811 11.5225V15.3404C100.811 15.3404 96.1508 13.9449 91.2588 13.9449C83.0094 13.9431 78.2567 18.7853 78.2544 25.9156C78.2544 33.4188 83.4746 37.6592 90.5105 37.6615C93.5374 37.6615 96.0023 36.9626 97.7798 36.2188Z" fill="#6A47DC"/>
<path d="M17.5421 28.1151C15.9736 25.4117 13.0568 23.5915 9.70853 23.5915C4.70634 23.5915 0.647953 27.6454 0.647953 32.6499C0.643448 37.6521 4.69959 41.7104 9.70403 41.7127C13.0568 41.7127 15.9736 39.8925 17.5399 37.1869C19.1107 34.5173 22.2589 32.742 25.605 32.7465C28.9488 32.7465 32.0004 34.5172 33.5712 37.1891C35.1375 39.8925 38.061 41.7149 41.4138 41.7149C46.416 41.7167 50.4699 37.661 50.4721 32.6543C50.4721 27.6544 46.4182 23.596 41.416 23.596C38.0655 23.596 35.142 25.4117 33.5712 28.1173C32.0049 30.7892 28.9488 32.5622 25.605 32.5622C22.2589 32.5622 19.1129 30.7892 17.5421 28.1151ZM34.6678 10.0074C34.6678 15.0118 30.6049 19.0635 25.6072 19.0635C20.605 19.0617 16.5511 15.0073 16.5511 10.0029C16.5511 5.00071 20.6073 0.94458 25.6072 0.94458C30.6072 0.94458 34.6678 5.00296 34.6678 10.0074ZM213.595 25.9354C213.597 18.8995 208.651 14.1939 200.968 14.1917C199.155 14.1917 197.007 14.3309 195.094 14.4726V37.2566C196.771 37.3981 198.773 37.5375 201.013 37.5375C208.42 37.5392 213.595 32.9712 213.595 25.9354ZM190.02 10.6928C190.02 10.6928 194.676 10.0457 200.968 10.0457C211.503 10.0457 218.905 16.1512 218.903 25.9354C218.903 35.6274 211.732 41.7329 201.013 41.7307C195.144 41.7307 190.018 40.9869 190.018 40.9869L190.02 10.6928Z" fill="#6A47DC"/>
</svg>
