<svg width="237" height="51" viewBox="0 0 237 51" fill="none" xmlns="http://www.w3.org/2000/svg">
<path d="M153.731 25.7848V38.558C152.508 41.3144 149.514 45.2085 143.992 45.2085C137.793 45.2085 133.849 40.2353 133.849 31.4266C133.849 22.1489 138.813 18.7825 144.194 18.7825C147.864 18.7825 152.697 20.9289 153.719 25.7731L153.731 25.7848ZM154.123 43.3905V48.9735H163.719V48.3636C160.524 46.7451 160.382 44.1998 160.382 40.9742V0.437988H159.835L150.584 1.30595V1.91588C153.446 3.80428 153.648 5.88036 153.648 9.04725V19.4042C151.403 16.1083 147.661 14.2903 142.757 14.2903C133.908 14.2903 126.96 21.621 126.96 32.7168C126.96 43.1325 133.433 49.865 142.412 49.865C147.923 49.865 152.08 46.8389 154.123 43.4139V43.3905ZM220.575 31.0864C229.294 42.6633 232.357 45.877 236.503 48.3636V48.9735H226.431C222.417 43.8596 219.21 39.6254 216.49 36.0597C209.067 45.3376 208.188 46.5456 209.957 48.3636V48.9735H199.469V48.3636L213.152 31.6965C203.282 18.7825 202.392 17.7738 199.268 15.9675V15.3576H208.734C211.798 19.5214 214.447 23.0871 217.381 26.9929C222.286 21.0111 225.208 17.7152 222.69 15.9675V15.3576H232.964V15.9675L220.575 31.0982V31.0864ZM173.399 31.4266C173.399 39.3556 177.414 45.8185 185.585 45.6776C189.601 45.6073 193.686 44.2701 195.8 42.112H196.204V45.6073C193.009 49.1025 188.305 50.1113 184.089 50.1113C172.781 50.1113 166.594 42.6514 166.594 32.6934C166.594 21.1987 173.126 14.2081 182.664 14.2081C192.201 14.2081 197.783 20.6592 197.44 31.4149H173.411L173.399 31.4266ZM190.015 27.7905C190.015 21.6093 186.607 17.9732 181.774 17.9732C176.939 17.9732 174.148 21.1988 173.531 27.7905H190.003H190.015ZM88.1692 15.6274V15.0174L97.6354 14.1494H97.8373V20.8704C99.8801 16.9059 104.037 14.2198 109.477 14.2198C116.425 14.2198 121.52 18.3838 121.52 27.4622V40.9039C121.592 44.2701 121.247 46.6161 124.109 48.3636V48.9735H112.327V48.3636C115.047 46.4752 114.715 44.1998 114.774 40.9039V29.3389C114.774 23.0871 112.529 19.3924 106.543 19.5214C102.933 19.5919 99.8089 21.8087 97.8253 25.914V40.9039C97.8966 44.2701 97.6234 46.6161 100.272 48.3636V48.9735H88.7632V48.3636C91.5543 46.4752 91.0791 44.1998 91.1504 40.8335V23.3569C91.1504 19.9906 91.0198 17.504 88.1574 15.6274H88.1692ZM81.5655 14.1494V41.1033C81.6368 44.3991 81.4349 46.5456 83.9529 48.2933V48.9618H72.5864V48.3519C75.2469 46.5339 74.8313 44.1881 74.9024 40.8921V23.8144C74.9024 19.7091 74.8313 17.4923 71.9094 15.6156V15.0057L81.5774 14.1378L81.5655 14.1494ZM77.4798 10.4548C79.9977 10.4548 82.0406 8.5077 82.0406 6.02111C82.0406 3.5345 79.9977 1.58745 77.4798 1.58745C74.9619 1.58745 72.9903 3.5345 72.9903 6.02111C72.9903 8.5077 75.0331 10.4548 77.4798 10.4548ZM46.7061 15.7681V15.2989L56.1722 14.4193H56.3741V20.9407C58.0132 17.7855 61.4814 14.2198 65.6384 14.2198C66.6597 14.2198 67.4792 14.2198 68.2275 14.56L68.0256 21.2104H67.4792C66.5885 20.3425 65.6384 19.8616 64.213 19.8616C60.8043 19.8616 58.4289 21.8087 56.386 25.914V40.8335C56.4572 44.1998 55.9821 46.4752 58.8327 48.3636V48.9735H47.395V48.3049C50.2573 46.4165 49.5685 44.1998 49.7111 40.8452V23.0988C49.7111 19.7326 49.6398 17.6565 46.7181 15.7681H46.7061ZM39.4848 11.4635H38.8078C34.7934 7.62801 30.4345 5.95073 24.6502 5.95073C14.3766 5.95073 7.76097 13.6099 7.76097 25.6441C7.76097 37.0098 15.3861 45.4783 26.4199 45.4783C29.8287 45.4783 31.5271 45.1381 34.7934 44.1294V33.7725C34.7934 30.4765 34.1163 27.7905 30.8501 26.2423V25.6324H41.884V47.6834C35.8267 48.8915 30.9927 50.0996 25.4103 50.0996C8.11729 50.17 0.218994 40.552 0.218994 26.2305C0.218994 11.9092 10.3502 1.10655 25.1966 1.10655C30.0306 1.10655 34.1163 1.77512 39.4968 3.73391V11.4635H39.4848Z" fill="#6A47DC"/>
</svg>
