<svg width="35" height="34" viewBox="0 0 35 34" fill="none" xmlns="http://www.w3.org/2000/svg">
<g clip-path="url(#clip0_4001_976)">
<path fill-rule="evenodd" clip-rule="evenodd" d="M10.0589 0.043457C3.09175 0.043457 0.543457 2.59131 0.543457 9.55703V24.4429C0.543457 31.4087 3.09175 33.9565 10.0589 33.9565H24.9365C31.9035 33.9565 34.4565 31.4087 34.4565 24.4429V9.55703C34.4565 2.59131 31.9082 0.043457 24.9411 0.043457H10.0589Z" fill="url(#paint0_linear_4001_976)"/>
<path fill-rule="evenodd" clip-rule="evenodd" d="M15.3369 19.7145H16.6984L16.0153 18.126L15.3369 19.7145ZM15.0016 20.5151L14.5977 21.4394H13.678L15.6337 17.0025H16.4285L18.3763 21.4394H17.4321L17.0333 20.5151H15.0016ZM29.8002 21.4361H30.6891V17.0022H29.8002V21.4361ZM26.2625 19.5314H27.901V18.7229H26.2625V17.8142H28.641V17.0055H25.374V21.4391H28.7266V20.6304H26.2625V19.5314ZM22.7309 20.0552L21.7232 17.0022H20.9878L19.9801 20.0552L18.9994 17.0046H18.0405L19.5881 21.4418H20.3336L21.3429 18.5272L22.3523 21.4418H23.1043L24.6478 17.0046H23.7137L22.7309 20.0552ZM12.3212 19.5436C12.3212 20.2654 11.9627 20.6511 11.3118 20.6511C10.6574 20.6511 10.2971 20.2542 10.2971 19.5128V17.0052H9.39622V19.5436C9.39622 20.7923 10.0902 21.5083 11.2996 21.5083C12.521 21.5083 13.2212 20.7786 13.2212 19.5066V17.0025H12.3212V19.5436ZM7.24701 17.0025H8.14731V21.4421H7.24701V19.639H5.2131V21.4421H4.31226V17.0025H5.2131V18.7933H7.24701V17.0025Z" fill="white"/>
<path fill-rule="evenodd" clip-rule="evenodd" d="M17.5021 11.349C14.3852 11.349 11.85 8.81343 11.85 5.69678H12.6484C12.6484 8.37295 14.826 10.5503 17.5021 10.5503C20.1783 10.5503 22.3559 8.37295 22.3559 5.69678H23.1543C23.1543 8.81343 20.6188 11.349 17.5021 11.349Z" fill="white"/>
</g>
<defs>
<linearGradient id="paint0_linear_4001_976" x1="17.5" y1="0.043457" x2="17.5" y2="33.9565" gradientUnits="userSpaceOnUse">
<stop stop-color="#FB6361"/>
<stop offset="1" stop-color="#ED3E45"/>
</linearGradient>
<clipPath id="clip0_4001_976">
<rect x="0.543457" y="0.043457" width="33.913" height="33.913" rx="16.9565" fill="white"/>
</clipPath>
</defs>
</svg>
