<svg width="252" height="76" viewBox="0 0 252 76" fill="none" xmlns="http://www.w3.org/2000/svg">
<path fill-rule="evenodd" clip-rule="evenodd" d="M251.708 62.2949H243.368L234.322 49.2577H217.985V62.2949H211.032V14.1451H219.375L251.708 62.2949ZM217.985 42.3043V24.4024L229.629 42.3043H217.985ZM11.1152 12.5025C7.48425 16.2337 4.76013 20.8458 3.0097 25.8666C1.66065 29.7391 0.924805 33.8123 0.924805 38.1271C0.924805 43.6757 2.08804 49.0236 4.27328 53.8214C5.98655 57.5899 8.35761 61.009 11.1152 63.9932L11.1152 12.5025ZM28.3258 38.1345L59.6589 6.96132C53.2629 2.81009 46.2315 0.583984 38.4084 0.583984C34.9299 0.583984 31.455 1.12658 28.3258 1.99622L28.3258 74.6333C31.2804 75.6776 34.8147 75.975 38.2932 75.975C46.1125 75.975 52.9693 73.8306 59.6142 69.5976L28.3258 38.1345ZM47.2721 29.7912L72.4544 54.9661C74.6285 50.7629 76.3306 44.5936 76.3381 37.6885C76.3414 34.6708 75.8623 31.5937 75.1376 28.7803C73.4727 22.3064 70.1131 16.5905 65.4676 11.7741L47.2721 29.7912ZM188.258 38.1345L209.463 62.2949H199.905L179.39 38.1345L199.905 14.1451L209.463 14.1451L188.258 38.1345ZM112.811 38.1345L134.191 62.2949H124.458L103.943 38.1345L124.458 14.1451H134.191L112.811 38.1345ZM156.702 43.6051C156.189 43.7948 155.338 44.1551 154.918 44.1551L169.832 62.2949L160.964 62.2949L141.669 38.1345H150.532C155.051 38.1345 158.879 34.3103 158.879 29.6165C158.879 24.9227 155.051 21.0985 150.532 21.0985H141.669V62.2949H134.886V14.1451L150.532 14.1451C154.531 14.1451 158.619 15.8621 161.399 18.642C164.183 21.4256 165.922 25.4207 165.922 29.5979C165.922 33.7677 164.183 37.5919 161.399 40.3755C160.009 41.9364 158.612 42.7354 156.702 43.6051ZM172.611 14.1451L179.392 14.1451V62.2949H172.611V14.1451ZM96.9901 14.1451H103.77V62.2949H96.9901V14.1451Z" fill="#6A47DC"/>
</svg>
