<svg width="245" height="31" viewBox="0 0 245 31" fill="none" xmlns="http://www.w3.org/2000/svg">
<path d="M107.33 0.0715332C112.811 0.0715333 118.292 0.0715335 123.844 0.0715336C127.148 0.0715337 130.514 0.205216 133.555 1.72343C135.341 2.64964 136.195 4.75987 136.195 6.67912C136.262 8.1305 135.933 9.65349 135.006 10.8423C133.818 12.3605 131.97 13.2199 130.318 14.1461C133.092 14.9386 136.195 16.1274 137.451 18.9681C138.64 22.3387 137.585 26.8933 134.08 28.4784C131.502 29.8009 128.533 29.8677 125.692 29.9298C119.614 29.9298 113.475 29.9298 107.397 29.9298C107.397 28.6741 107.397 27.4185 107.464 26.1629C108.786 25.9624 110.701 26.4923 111.56 25.1698C112.09 21.0735 111.694 16.8483 111.823 12.752C111.756 9.9113 112.152 7.07061 111.426 4.29676C110.104 4.03417 108.786 3.96733 107.464 3.90049C107.33 2.5828 107.33 1.32716 107.33 0.0715332ZM120.211 12.4226C122.393 12.2889 124.77 12.3557 126.685 11.2338C128.27 9.64871 128.337 6.80802 126.881 5.08929C124.966 3.57107 122.388 3.96733 120.144 3.83366C120.144 6.67912 120.144 9.58187 120.211 12.4226ZM120.211 16.1894C120.211 19.4932 120.211 22.7922 120.211 26.0292C122.522 25.9624 124.899 26.096 127.081 25.103C130.118 23.3843 129.721 18.0371 126.422 16.7815C124.374 16.1226 122.259 16.2563 120.211 16.1894Z" fill="#6A47DC"/>
<path d="M0.0716139 0.0715332C6.61235 0.0715334 13.1483 0.0715335 19.6891 0.0715337C22.4629 0.138373 25.3704 0.334121 27.748 1.85711C29.7293 3.0459 30.7224 5.42348 30.5887 7.66739C30.5219 9.11876 30.1256 10.7038 29.0036 11.7637C27.6812 13.0862 25.8335 13.5493 24.048 14.1413C25.7667 14.7381 27.8769 15.3301 28.6074 17.2446C29.6625 20.3478 28.0106 24.0479 30.1256 26.8886C31.6438 25.6329 31.9112 23.5848 31.9732 21.7371C32.9663 21.7371 33.9546 21.7371 34.9476 21.7371C34.685 23.981 34.7471 26.3586 33.5583 28.3399C32.8994 29.4619 31.6438 30.1876 30.3882 30.455C28.1443 30.9849 25.633 30.9849 23.518 29.7961C22.3292 29.1373 21.3362 28.0105 20.8778 26.6928C19.8227 23.6564 21.4746 20.2858 19.9516 17.3162C19.7511 16.7862 19.226 16.7194 18.7629 16.5236C16.8484 15.9937 14.8002 16.1942 12.8189 16.1942C12.8857 19.4312 12.5563 22.6681 13.282 25.8382C14.6045 25.9051 15.9222 25.9719 17.1778 25.9719C17.1778 27.2275 17.1778 28.4832 17.1778 29.7388C11.4296 29.7388 5.75299 29.7388 0.00477348 29.7388C0.00477351 28.4832 0.00477355 27.2275 0.00477358 25.9719C1.32724 25.9051 2.64494 25.7714 3.96741 25.6425C4.75994 19.0397 4.23 12.4321 4.29684 5.76246C4.36368 5.03677 4.09632 4.24424 3.37063 3.97688C2.31552 3.58062 1.12673 3.7143 -9.40965e-08 3.64746C0.0716139 2.5828 0.0716139 1.32716 0.0716139 0.0715332ZM12.8857 3.90527C12.8857 6.74595 12.8857 9.58664 12.8857 12.4273C14.8671 12.3605 16.8484 12.6278 18.8297 12.1647C19.8848 11.9022 21.0736 11.4391 21.5367 10.3171C22.2624 8.73205 21.7372 7.01331 21.4699 5.36142C18.8965 3.77159 15.7885 3.77159 12.8857 3.90527Z" fill="#6A47DC"/>
<path d="M48.0195 0.00463899C50.9271 0.00463907 53.8967 0.00463915 56.8042 0.00463922C59.3154 7.60049 61.6262 15.2632 64.1995 22.859C64.5289 23.6516 64.5958 24.6446 65.3883 25.2366C66.3813 25.9623 67.6322 26.0291 68.821 26.1628C68.821 27.3516 68.821 28.6073 68.821 29.796C63.3401 29.796 57.7924 29.796 52.3068 29.796C52.3068 28.5404 52.3068 27.2848 52.24 26.096C53.6293 25.8334 55.2143 26.2297 56.3363 25.1698C56.1358 23.451 55.4769 21.7991 54.947 20.152C52.1063 20.152 49.1988 20.152 46.3629 20.152C45.8329 21.8039 45.1741 23.389 44.9115 25.1077C45.9666 26.1628 47.5517 25.8334 48.8741 26.1008C48.8741 27.3564 48.8741 28.5452 48.8741 29.8008C44.5152 29.8008 40.2232 29.8008 35.8643 29.8008C35.8643 28.5452 35.8643 27.2896 35.8643 26.0339C36.9194 25.9671 37.9124 25.9002 38.9675 25.8334C40.5526 23.2553 41.2783 20.3525 42.2713 17.5119C44.0569 11.6968 45.9761 5.81969 48.0195 0.00463899ZM50.5976 7.07533C49.6046 10.1786 48.6163 13.2819 47.5612 16.3231C49.5425 16.3231 51.5907 16.3231 53.572 16.3231C52.6458 13.2819 51.6527 10.1786 50.5976 7.07533Z" fill="#6A47DC"/>
<path d="M70.1484 3.83837C70.1484 2.58274 70.1484 1.32711 70.1484 0.0714781C74.9035 0.0714782 79.6587 0.138318 84.347 0.0714784C88.2428 6.94164 91.9429 13.9407 95.8387 20.8109C95.8387 16.3183 95.8387 11.8926 95.8387 7.40475C95.8387 6.34963 95.8387 5.16084 95.2419 4.23464C93.9863 3.83837 92.6017 3.90521 91.2793 3.77153C91.2793 2.5159 91.3461 1.26027 91.3461 0.00463923C95.8387 0.00463935 100.327 0.00463947 104.819 0.00463959C104.752 1.26027 104.886 2.5159 104.752 3.70469C103.563 3.83837 102.308 3.77153 101.253 4.30148C100.79 5.16084 100.856 6.14912 100.79 7.07533C100.79 14.6712 100.79 22.2002 100.79 29.796C97.7532 29.796 94.6451 29.796 91.6087 29.796C87.5792 22.4007 83.5497 15.0674 79.4582 7.67211C79.3914 13.153 79.3245 18.6338 79.525 24.1194C79.525 24.7783 79.8545 25.5088 80.5801 25.7713C81.6353 26.1008 82.6951 25.905 83.8171 26.0339C83.8171 27.2896 83.8171 28.5452 83.8171 29.8008C79.2577 29.8008 74.703 29.8008 70.0815 29.8008C70.0815 28.5452 70.0815 27.2896 70.0815 26.1008C71.3372 26.0339 72.6596 25.9671 73.9105 25.5708C74.5694 24.4489 74.3736 23.1264 74.4404 21.8708C74.3736 17.0488 74.4404 12.1599 74.4404 7.33791C74.4404 6.21596 74.3068 5.15607 73.9105 4.10096C72.7217 3.83837 71.404 3.90521 70.1484 3.83837Z" fill="#6A47DC"/>
<path d="M152.375 0.0715335C155.35 0.0715336 158.319 0.0715337 161.227 0.0715338C163.604 7.46687 165.982 14.867 168.293 22.2623C168.622 23.2554 168.951 24.3105 169.615 25.1698C170.541 26.096 171.993 25.8955 173.181 26.1629C173.181 27.4185 173.181 28.6073 173.181 29.8629C167.634 29.8629 162.153 29.8629 156.605 29.8629C156.605 28.6073 156.605 27.3517 156.672 26.096C158.061 25.9624 159.446 25.7666 160.768 25.5661C160.439 23.7185 159.842 21.9329 159.317 20.2142C156.409 20.2141 153.569 20.1473 150.666 20.2141C150.007 21.9997 149.477 23.8474 149.277 25.695C150.599 25.8287 151.855 25.9576 153.172 26.0913C153.172 27.3469 153.172 28.6025 153.172 29.8582C148.814 29.8582 144.521 29.8582 140.163 29.8582C140.163 28.6025 140.163 27.3469 140.163 26.0913C141.351 25.8907 142.87 26.1581 143.729 25.0362C144.722 23.3843 145.18 21.4698 145.844 19.6842C148.016 13.1482 150.198 6.61227 152.375 0.0715335ZM152.113 16.3183C154.094 16.3183 156.075 16.3852 158.057 16.3183C157.063 13.2151 156.142 10.045 155.149 6.9417C154.027 10.1118 153.039 13.2151 152.113 16.3183Z" fill="#6A47DC"/>
<path d="M176.089 0.071611C181.374 0.0716112 186.592 0.0716113 191.873 0.0716115C191.873 1.2604 191.873 2.44919 191.94 3.70483C190.884 3.96741 189.758 4.23477 188.703 4.56419C189.891 6.61235 191.281 8.45999 192.665 10.3745C194.25 8.52683 195.835 6.67442 197.158 4.62626C196.103 4.29684 195.11 3.96741 194.055 3.63321C194.055 2.44442 194.055 1.25563 194.121 4.93598e-07C198.48 6.08298e-07 202.839 7.22997e-07 207.265 8.39456e-07C207.265 1.18879 207.265 2.37758 207.332 3.56638C206.21 3.8958 205.088 4.09631 204.028 4.62148C203.235 5.01775 202.639 5.74344 202.113 6.46913C199.998 8.84671 198.084 11.358 196.103 13.8645C198.943 17.4308 201.517 21.1977 204.424 24.7641C205.35 25.8861 206.935 25.9529 208.32 26.1534C208.32 27.409 208.32 28.5978 208.32 29.8535C202.772 29.8535 197.225 29.8535 191.61 29.8535C191.61 28.5978 191.61 27.3422 191.61 26.0245C192.665 25.9577 193.658 25.8288 194.713 25.7619C194.055 23.1218 192.073 21.2025 190.617 19.0254C189.166 20.7442 187.514 22.3961 186.392 24.3774C186.062 24.8405 186.325 25.5662 186.855 25.7667C187.581 25.9672 188.306 26.0293 189.037 26.2298C189.037 27.4186 189.037 28.6742 189.037 29.863C184.477 29.863 179.923 29.863 175.363 29.863C175.363 28.6074 175.363 27.3518 175.363 26.0961C176.815 25.8335 178.533 25.8956 179.655 24.6447C182.362 21.7372 184.673 18.5003 187.184 15.397C184.74 12.2269 182.429 8.9231 179.918 5.81983C178.925 4.63104 177.407 4.10109 176.022 3.57593C176.022 2.4492 176.022 1.2604 176.089 0.071611Z" fill="#6A47DC"/>
<path d="M211.887 0.0716662C217.568 0.0716663 223.245 0.0716665 228.859 0.0716666C228.859 1.3273 228.859 2.51609 228.859 3.77172C227.67 3.97224 226.482 4.16799 225.293 4.43057C226.548 7.20442 228.329 9.78252 230.048 12.3559C231.499 10.174 233.285 8.13063 234.474 5.6862C234.607 5.35678 234.87 5.02736 234.803 4.69316C233.944 3.90063 232.755 3.90063 231.7 3.70011C231.7 2.51132 231.7 1.25569 231.767 0.0668951C235.992 0.0668952 240.155 0.0668953 244.38 0.0668954C244.38 1.25569 244.38 2.44448 244.447 3.70011C243.192 4.09637 241.869 4.42579 240.747 5.21832C239.888 5.8151 239.492 6.80338 238.899 7.66275C236.784 10.9665 234.474 14.1366 232.626 17.6362C232.163 20.41 232.364 23.2507 232.889 25.9577C234.34 26.1582 235.796 26.2203 237.314 26.2871C237.314 27.4759 237.314 28.6647 237.248 29.8535C231.304 29.8535 225.36 29.8535 219.416 29.8535C219.416 28.6647 219.416 27.4759 219.416 26.2203C220.738 26.0866 222.256 26.4208 223.445 25.6235C224.305 24.1722 224.171 22.4534 224.171 20.8684C224.104 19.6127 224.371 18.2903 223.775 17.1015C223.178 15.9127 222.385 14.7907 221.66 13.6688C220.008 11.0907 218.49 8.38366 216.642 5.93924C215.52 4.48786 213.605 4.0916 211.954 3.56166C211.887 2.44926 211.887 1.26046 211.887 0.0716662Z" fill="#6A47DC"/>
</svg>
