<svg width="71" height="51" viewBox="0 0 71 51" fill="none" xmlns="http://www.w3.org/2000/svg">
<g clip-path="url(#clip0_2309_49556)">
<path d="M37.1238 46.2464C37.0439 46.2509 36.9844 46.3194 36.9888 46.3976C36.9933 46.4758 37.0619 46.537 37.14 46.5325C37.3081 46.5229 37.4741 46.5085 37.6419 46.4956L37.6257 46.2095C37.4578 46.2224 37.2918 46.2368 37.1238 46.2464Z" fill="white"/>
<path d="M67.1817 15.5683L67.2981 17.6127C67.9331 17.2177 68.565 16.7662 68.8601 16.0869C69.2394 15.2175 68.9672 14.2166 68.6919 13.3094C68.5625 14.2313 67.9315 14.9916 67.1834 15.5699L67.1817 15.5683Z" fill="white"/>
<path d="M68.728 22.5097C69.2416 21.7127 69.1345 20.6808 69.0092 19.74C68.7753 20.4977 68.1993 21.0795 67.5213 21.512L67.6312 23.4416C68.0686 23.2097 68.4643 22.9202 68.7295 22.5079L68.728 22.5097Z" fill="white"/>
<path d="M67.7776 9.62849C68.0106 8.70903 67.5814 7.76554 67.1642 6.91482C67.1754 7.43486 67.025 7.92906 66.7773 8.38542L66.9249 10.9771C67.3133 10.5895 67.6457 10.155 67.7794 9.63006L67.7776 9.62849Z" fill="white"/>
<path d="M67.8338 26.1945C67.8219 26.2203 67.8067 26.2462 67.7931 26.2703L67.8195 26.7344C67.8275 26.552 67.8306 26.3716 67.8337 26.1929L67.8338 26.1945Z" fill="white"/>
<path d="M66.7239 23.8566C67.0273 23.7341 67.3369 23.603 67.6301 23.4461L67.5202 21.5165C67.2529 21.6869 66.9693 21.8366 66.6845 21.963C66.2515 22.1545 65.8012 22.307 65.3511 22.4628L65.4599 24.3724C65.8804 24.1966 66.303 24.0274 66.7239 23.8566Z" fill="white"/>
<path d="M66.3012 11.5381C66.5113 11.3592 66.7226 11.172 66.92 10.9755L66.7724 8.38381C66.4946 8.89695 66.0938 9.36202 65.6623 9.75541C65.3499 10.0419 65.0125 10.3014 64.6752 10.5626L64.8051 12.8432C65.2954 12.3981 65.8017 11.9687 66.3029 11.538L66.3012 11.5381Z" fill="white"/>
<path d="M67.1496 28.89C67.6573 28.3104 67.7807 27.5173 67.8161 26.7326L67.7897 26.2685C67.3669 27.0786 66.5401 27.593 65.66 27.9051L65.7628 29.7099C66.2904 29.5397 66.7893 29.3027 67.148 28.8901L67.1496 28.89Z" fill="white"/>
<path d="M66.7521 15.874C66.2002 16.2342 65.6009 16.5237 65.0306 16.8549L65.1502 18.9542C65.7887 18.5323 66.4436 18.1345 67.0968 17.7369C67.163 17.6964 67.2291 17.6559 67.2968 17.6137L67.1803 15.5693C67.0413 15.6773 66.8986 15.7789 66.7521 15.874Z" fill="white"/>
<path d="M62.2952 5.19532C62.2975 4.53265 62.2065 3.87196 62.0349 3.23254L62.2087 6.285C62.2633 5.92476 62.2943 5.56085 62.2952 5.19532Z" fill="white"/>
<path d="M65.4593 24.3716L65.3505 22.4619C64.7517 22.6713 64.1583 22.8903 63.6234 23.2262C63.4655 23.3253 63.3229 23.4285 63.1903 23.5329L63.2961 25.391C63.9954 25.0107 64.7226 24.6806 65.4611 24.3732L65.4593 24.3716Z" fill="white"/>
<path d="M64.97 29.9288C65.2334 29.8654 65.5014 29.7951 65.7619 29.7102L65.6591 27.9053C65.5087 27.9589 65.3578 28.0059 65.2068 28.0495C64.6366 28.2072 64.0478 28.3008 63.4672 28.4206L63.5729 30.2754C64.0383 30.1554 64.5058 30.042 64.9716 29.9287L64.97 29.9288Z" fill="white"/>
<path d="M64.5392 34.2853C65.2405 33.6462 65.4025 32.6223 65.5224 31.6809C65.1185 32.3248 64.4541 32.7314 63.7239 32.9799L63.8231 34.7216C64.0841 34.6149 64.3281 34.4759 64.5376 34.2854L64.5392 34.2853Z" fill="white"/>
<path d="M64.8046 12.8461L64.6748 10.5654C64.1328 10.9835 63.5943 11.403 63.1637 11.9298C62.914 12.2344 62.7258 12.5339 62.5821 12.8241L62.7098 15.0664C63.3263 14.257 64.0477 13.5333 64.8063 12.846L64.8046 12.8461Z" fill="white"/>
<path d="M63.1619 22.1969C63.1582 22.1321 63.1365 22.0732 63.1052 22.0216L63.1254 22.3759C63.1506 22.3211 63.1655 22.2602 63.1618 22.1953L63.1619 22.1969Z" fill="white"/>
<path d="M62.8035 16.7036C63.0098 16.6918 63.1682 16.5142 63.1565 16.308C63.1447 16.1017 62.9672 15.9433 62.7609 15.955L62.7576 15.9552L62.8002 16.7038L62.8035 16.7036Z" fill="white"/>
<path d="M63.9331 17.6143C63.4612 18.0317 63.1386 18.4623 62.9202 18.8753L63.0184 20.6003C63.6727 19.9873 64.3949 19.4522 65.1475 18.9537L65.028 16.8544C64.6419 17.0783 64.2685 17.3199 63.9331 17.6143Z" fill="white"/>
<path d="M63.5734 30.2737L63.4677 28.419C62.963 28.5228 62.466 28.6462 61.9972 28.8532C61.7334 28.9683 61.5005 29.0984 61.2929 29.2337L61.3898 30.9354C62.1026 30.6746 62.8349 30.4643 63.575 30.2736L63.5734 30.2737Z" fill="white"/>
<path d="M62.3221 37.433C62.1617 37.6057 61.9795 37.7479 61.7846 37.8709L61.8309 38.6843C62.0337 38.2889 62.1841 37.8531 62.3221 37.433Z" fill="white"/>
<path d="M62.259 35.0673C62.7876 35.0005 63.3388 34.9207 63.8264 34.7211L63.7272 32.9794C63.3948 33.0918 63.0489 33.1716 62.7082 33.226C62.3179 33.2883 61.9225 33.3192 61.5253 33.3485L61.6276 35.145C61.838 35.118 62.0485 35.0927 62.2589 35.0657L62.259 35.0673Z" fill="white"/>
<path d="M62.6854 19.4187C62.6842 18.9298 62.6697 18.44 62.6416 17.9459C62.6158 17.4935 62.577 17.0467 62.5283 16.6023C62.5988 16.6667 62.6944 16.7046 62.7976 16.7004L62.755 15.9518C62.6319 15.9589 62.5324 16.0296 62.4695 16.1266C62.4413 15.8946 62.413 15.6609 62.3782 15.4309C62.3857 15.4455 62.3933 15.4618 62.4006 15.473C62.4977 15.3323 62.6002 15.198 62.7043 15.0619L62.5766 12.8195C62.31 13.3537 62.1999 13.854 62.1807 14.2773C61.9946 13.325 61.7579 12.3922 61.4757 11.4804C61.5112 11.4884 61.5451 11.4981 61.5834 11.496C61.7896 11.4842 61.9481 11.3066 61.9363 11.1004C61.9246 10.8941 61.747 10.7357 61.5407 10.7474C61.4376 10.7533 61.3468 10.8002 61.2825 10.8722C61.1316 10.4202 60.9661 9.97573 60.7925 9.53503C60.7975 9.53474 60.8041 9.53436 60.8091 9.53408C60.8108 9.53398 60.8143 9.53712 60.816 9.53869L60.8158 9.53536C61.0299 9.48479 61.1804 9.10907 61.2761 8.94341C61.7485 8.1238 62.0638 7.21467 62.2042 6.28046L62.0304 3.228C61.7764 2.28454 61.345 1.39123 60.7534 0.613856C61.0383 1.60229 60.9233 2.66022 60.7102 3.66532C60.4971 4.67043 60.1897 5.66088 60.0893 6.68293C60.0472 7.1159 60.0456 7.55657 60.1036 7.98884C60.0946 7.976 60.0855 7.96317 60.0782 7.9519L60.1522 9.25273C60.2406 9.28108 60.3274 9.30951 60.4076 9.34166C60.7568 10.1979 61.0654 11.0749 61.3269 11.9745C61.2569 11.9167 61.1664 11.8818 61.0683 11.8874C60.862 11.8992 60.7036 12.0768 60.7153 12.283C60.7271 12.4893 60.9046 12.6477 61.1109 12.636C61.2673 12.6271 61.3949 12.523 61.4436 12.3834C61.6228 13.0391 61.7792 13.7044 61.9094 14.3795C61.6376 13.856 61.1559 13.2793 60.3544 12.8026L60.4659 14.7605C61.0381 15.0199 61.5952 15.3086 62.1236 15.649C62.2235 16.3493 62.2957 17.0594 62.3399 17.7779C62.2833 17.7494 62.2204 17.7296 62.1522 17.7335C61.9459 17.7452 61.7875 17.9228 61.7992 18.1291C61.811 18.3353 61.9885 18.4938 62.1948 18.482C62.263 18.4781 62.3216 18.4514 62.3747 18.4167C62.3976 18.9962 62.4038 19.5732 62.3897 20.1465C62.2453 19.4855 61.8354 18.6477 60.8731 17.8964C60.7962 17.8357 60.7147 17.782 60.6348 17.7264L60.7604 19.9322C61.3187 20.2992 61.8537 20.6977 62.3466 21.1486C62.3017 21.8838 62.2281 22.6122 62.1255 23.3307C62.0553 23.2713 61.9632 23.2365 61.8651 23.242C61.6588 23.2538 61.5004 23.4314 61.5121 23.6376C61.5239 23.8439 61.7014 24.0023 61.9077 23.9906C61.951 23.9881 61.9902 23.9742 62.0277 23.9587C61.9342 24.5148 61.8219 25.0636 61.6944 25.6082C61.6889 25.0428 61.5179 24.2965 60.9646 23.5186L61.1066 26.0121C61.235 26.1567 61.3618 26.303 61.4823 26.4547C61.3913 26.792 61.2937 27.128 61.1891 27.461L61.2337 28.2445C61.3268 27.9739 61.4164 27.7017 61.5009 27.4266C61.5722 27.536 61.6933 27.6109 61.833 27.6029C62.0393 27.5912 62.1978 27.4136 62.186 27.2073C62.1743 27.0011 61.9967 26.8426 61.7904 26.8544C61.7438 26.857 61.6996 26.8712 61.6589 26.8886C61.7131 26.6986 61.764 26.5071 61.8148 26.3156C62.2839 25.9668 62.7806 25.6632 63.2922 25.3854L63.1864 23.5273C62.7359 23.8817 62.4171 24.262 62.1961 24.63C62.3327 23.9213 62.4404 23.2043 62.5209 22.4787C62.5934 22.5514 62.6944 22.5957 62.8042 22.5894C62.9473 22.5813 63.0641 22.4945 63.1207 22.3745L63.1005 22.0202C63.0307 21.9073 62.9031 21.8345 62.7617 21.8425C62.6918 21.8465 62.6317 21.875 62.5769 21.9098C62.6057 21.5944 62.6276 21.2761 62.6445 20.958C62.7659 20.8326 62.8926 20.7136 63.0194 20.5946L62.9211 18.8696C62.8217 19.0571 62.742 19.2402 62.6836 19.4171L62.6854 19.4187Z" fill="white"/>
<path d="M61.6303 35.1451L61.528 33.3486C60.8168 33.4024 60.1052 33.4496 59.4279 33.6601C59.3918 33.6705 59.3592 33.684 59.3249 33.696L59.4264 35.4792C60.1545 35.341 60.893 35.2388 61.6303 35.1451Z" fill="white"/>
<path d="M60.8623 39.8032C61.2945 39.5383 61.5954 39.1373 61.8282 38.6835L61.7819 37.87C61.1484 38.2632 60.3607 38.4099 59.5903 38.4204L59.689 40.1537C60.1041 40.1167 60.5058 40.0204 60.8606 39.8033L60.8623 39.8032Z" fill="white"/>
<path d="M59.1477 7.02743C58.6184 6.73048 58.1297 6.3244 57.7419 5.84583L57.8937 8.5107C58.4563 8.86584 59.4095 9.01683 60.1592 9.25784L60.0851 7.95701C59.8387 7.5872 59.5285 7.23938 59.1493 7.02734L59.1477 7.02743Z" fill="white"/>
<path d="M60.5548 23.0168C60.0001 22.4192 59.3027 21.9833 58.6287 21.5177L58.7624 23.8665C59.5994 24.5264 60.405 25.2215 61.1077 26.016L60.9657 23.5224C60.8478 23.3556 60.7113 23.1865 60.5549 23.0185L60.5548 23.0168Z" fill="white"/>
<path d="M60.8343 28.5353C60.7632 28.4292 60.6439 28.3575 60.5059 28.3654C60.2996 28.3771 60.1412 28.5547 60.1529 28.761C60.1647 28.9672 60.3422 29.1257 60.5485 29.1139C60.5768 29.1123 60.6012 29.1009 60.6257 29.0929C60.3409 29.835 60.0217 30.5591 59.6749 31.2681C59.8523 30.6038 59.8585 29.482 59.0129 28.2301L59.1928 31.389C59.2716 31.513 59.3521 31.637 59.4244 31.7647C59.3628 31.8833 59.2977 32.0005 59.2343 32.1176L59.2655 32.6666C59.27 32.658 59.2762 32.6493 59.2807 32.6407C59.3421 32.7807 59.4826 32.8745 59.6423 32.8654C59.8486 32.8537 60.007 32.6761 59.9953 32.4698C59.9835 32.2635 59.806 32.1051 59.5997 32.1168C59.5847 32.1177 59.5735 32.125 59.5586 32.1275C59.649 31.9572 59.7361 31.787 59.8231 31.6151C60.3269 31.3478 60.8518 31.1277 61.388 30.9319L61.2911 29.2302C61.061 29.3801 60.8616 29.5417 60.689 29.7051C60.8853 29.2249 61.0661 28.7373 61.235 28.2454L61.1904 27.4619C61.0791 27.8221 60.9592 28.1794 60.8325 28.5337L60.8343 28.5353Z" fill="white"/>
<path d="M60.1879 12.7066C59.5333 12.3484 58.8083 12.1594 58.0857 11.9552L58.1956 13.8848C58.965 14.1497 59.7304 14.4316 60.4686 14.765L60.3571 12.8071C60.3001 12.7737 60.2482 12.7399 60.1879 12.7066Z" fill="white"/>
<path d="M58.3474 16.5411L58.4649 18.6038C59.2479 19.0199 60.025 19.4496 60.7636 19.9349L60.638 17.7291C59.9328 17.2436 59.1173 16.9312 58.3474 16.5411Z" fill="white"/>
<path d="M58.3097 41.8445C58.0895 42.0206 57.8449 42.1513 57.5868 42.2495L57.6307 43.0197C57.8937 42.6559 58.1105 42.243 58.3097 41.8445Z" fill="white"/>
<path d="M57.1091 33.8693L57.1742 35.0121C57.2103 34.6779 57.1984 34.2931 57.1091 33.8693Z" fill="white"/>
<path d="M58.4722 40.1407C58.8725 40.1663 59.2876 40.1877 59.6895 40.1531L59.5908 38.4198C59.4807 38.421 59.3706 38.4206 59.2619 38.4168C58.6266 38.3962 57.9917 38.2956 57.3591 38.2365L57.4638 40.0746C57.8004 40.0955 58.1371 40.1163 58.4738 40.1389L58.4722 40.1407Z" fill="white"/>
<path d="M58.9926 28.2001C58.3683 27.2894 57.4366 26.6365 56.6877 25.823C56.6753 25.8104 56.6645 25.796 56.6521 25.7833L56.8053 28.4732C57.6832 29.3828 58.523 30.3279 59.1944 31.3911L59.0145 28.2322C59.0072 28.2209 59.0016 28.2112 58.9943 28.2L58.9926 28.2001Z" fill="white"/>
<path d="M57.0559 11.6317C56.6229 11.4711 56.1921 11.262 55.8083 11.0001L55.9241 13.0329C56.303 13.2383 56.722 13.388 57.1303 13.5249C57.4842 13.6433 57.8398 13.7632 58.1939 13.8849L58.084 11.9553C57.7363 11.8566 57.3901 11.7562 57.0542 11.6318L57.0559 11.6317Z" fill="white"/>
<path d="M57.9563 16.3349C57.1267 15.8631 56.3375 15.1921 55.9958 14.3204L56.154 17.0968C56.562 17.5809 57.1551 17.9142 57.7263 18.2155C57.9707 18.3451 58.2167 18.4746 58.4628 18.6058L58.3453 16.5431C58.2147 16.4771 58.084 16.4078 57.9563 16.3349Z" fill="white"/>
<path d="M57.929 21.0012C57.0701 20.3074 56.3035 19.3598 56.2607 18.2558C56.2489 18.2831 56.2371 18.3105 56.227 18.3378L56.4353 21.9957C56.7229 22.2998 57.0653 22.5673 57.3984 22.8204C57.8553 23.1649 58.3122 23.511 58.7631 23.8675L58.6294 21.5187C58.3897 21.3537 58.153 21.1837 57.929 21.0012Z" fill="white"/>
<path d="M56.9233 4.18138C56.8453 4.89341 56.766 5.61053 56.8367 6.32412C56.9073 7.03604 57.1416 7.75198 57.6177 8.28728C57.6908 8.3699 57.7851 8.44296 57.8907 8.51038L57.739 5.84551C57.3423 5.35576 57.0497 4.78998 56.9234 4.18304L56.9233 4.18138Z" fill="white"/>
<path d="M58.5129 33.3914C58.4459 33.27 58.3145 33.1891 58.1664 33.1975C57.9602 33.2093 57.8017 33.3868 57.8135 33.5931C57.8245 33.7861 57.9812 33.9307 58.1703 33.9399C58.0201 34.1738 57.868 34.4044 57.7109 34.6336C57.4892 34.8449 57.3212 35.0597 57.1911 35.2657L57.2364 36.0608C57.9478 35.805 58.6816 35.6214 59.4263 35.4805L59.3247 33.6973C58.9726 33.8141 58.6653 33.9568 58.4006 34.1154C58.7042 33.6442 58.9922 33.1622 59.2663 32.6709L59.235 32.122C59.0058 32.5506 58.7663 32.9764 58.5146 33.3913L58.5129 33.3914Z" fill="white"/>
<path d="M57.4626 40.0756L57.3579 38.2374C56.8898 38.194 56.423 38.1722 55.9553 38.2238C55.6601 38.2573 55.3896 38.3128 55.1433 38.3836L55.236 40.0121C55.9763 40 56.7191 40.0311 57.4626 40.0756Z" fill="white"/>
<path d="M56.5165 43.9721C56.9794 43.7772 57.335 43.4281 57.6304 43.0191L57.5866 42.2489C56.9037 42.5065 56.1164 42.5146 55.3725 42.4034L55.472 44.1517C55.8312 44.158 56.184 44.1112 56.5165 43.9721Z" fill="white"/>
<path d="M57.1138 35.3891C57.1405 35.2724 57.1618 35.1477 57.1758 35.0134L57.1107 33.8706C57.031 33.4963 56.8911 33.0904 56.663 32.6612C56.1543 31.6988 55.3206 30.9502 54.6716 30.0743L54.8499 33.205C55.5263 34.1227 56.1529 35.0733 56.6191 36.1099C56.289 36.5258 55.9484 36.9341 55.5955 37.3297C55.5845 37.342 55.5718 37.3544 55.5609 37.3667C55.5163 37.199 55.3641 37.0758 55.1844 37.0861C55.1445 37.0883 55.1067 37.0988 55.0724 37.1125L55.1125 37.8161C55.1227 37.8189 55.1328 37.8216 55.143 37.8244C55.1336 37.8349 55.1241 37.8438 55.1147 37.8544L55.1368 38.2436C55.485 37.88 55.8259 37.5085 56.1546 37.1259C56.1992 37.2936 56.3513 37.4151 56.531 37.4049C56.7372 37.3932 56.8957 37.2156 56.8839 37.0093C56.8732 36.8213 56.7233 36.6797 56.5421 36.6633C56.678 36.4987 56.8119 36.3308 56.9426 36.1632C57.0389 36.126 57.1372 36.0937 57.2354 36.0597L57.1901 35.2646C57.1641 35.3061 57.1364 35.3478 57.1138 35.3891Z" fill="white"/>
<path d="M55.8705 13.8944C55.651 14.8164 55.4402 15.8331 55.8705 16.6781C55.9494 16.8321 56.0473 16.9701 56.1565 17.099L55.9984 14.3227C55.9438 14.1856 55.9007 14.0429 55.8705 13.8944Z" fill="white"/>
<path d="M55.4365 22.8649C54.947 23.6771 54.4394 24.5805 54.5928 25.5163C54.7255 26.3232 55.3244 26.9633 55.8967 27.5465C56.1996 27.8547 56.5025 28.1629 56.804 28.4745L56.6508 25.7846C55.9173 24.9786 55.3195 23.9463 55.4365 22.8649Z" fill="white"/>
<path d="M55.8114 21.0029C55.9332 21.3831 56.1586 21.7074 56.4338 21.9971L56.2255 18.3391C55.8718 19.192 55.5313 20.1276 55.8114 21.0029Z" fill="white"/>
<path d="M54.5987 9.5567C54.5307 10.5018 54.4863 11.539 55.0471 12.3031C55.2769 12.6155 55.582 12.8451 55.9212 13.0294L55.8055 10.9966C55.2706 10.6299 54.8248 10.158 54.5969 9.55514L54.5987 9.5567Z" fill="white"/>
<path d="M54.1058 43.9521C54.552 44.0502 55.0179 44.1438 55.474 44.1529L55.3745 42.4046C55.2953 42.3924 55.2179 42.3801 55.1403 42.3662C54.4606 42.2397 53.7939 42.0206 53.1208 41.8654L53.2289 43.7634C53.5212 43.8252 53.8135 43.8886 54.1042 43.9522L54.1058 43.9521Z" fill="white"/>
<path d="M53.2893 36.7003C53.1601 36.2771 52.9705 35.879 52.7615 35.4904L53.0099 39.852C53.3857 39.2715 53.7426 38.1831 53.2893 36.7003Z" fill="white"/>
<path d="M53.0885 40.7746C53.0857 40.7247 53.0713 40.6771 53.0505 40.6349L53.0669 40.9227C53.0827 40.8767 53.0915 40.8261 53.0885 40.7746Z" fill="white"/>
<path d="M53.6315 46.3119C53.5501 46.3482 53.4667 46.378 53.3832 46.4061L53.3933 46.5825C53.4749 46.4927 53.5533 46.4031 53.6316 46.3136L53.6315 46.3119Z" fill="white"/>
<path d="M54.1829 38.7972C53.7133 39.0793 53.3902 39.4131 53.19 39.7065C53.1296 39.7601 53.0675 39.812 53.0054 39.8656L53.026 40.2266C53.026 40.2266 53.0339 40.2194 53.0387 40.2158C53.7637 40.0811 54.4982 40.0259 55.2368 40.0139L55.1441 38.3853C55.0767 38.4042 55.0094 38.4247 54.9456 38.4467C55.0103 38.3813 55.0732 38.3126 55.1361 38.2456L55.1139 37.8564C54.8118 38.1773 54.5009 38.4921 54.1829 38.7972Z" fill="white"/>
<path d="M54.8325 37.4831C54.842 37.6494 54.961 37.7761 55.1135 37.8158L55.0734 37.1122C54.9248 37.1691 54.823 37.315 54.8324 37.4814L54.8325 37.4831Z" fill="white"/>
<path d="M54.6426 30.0371C53.9909 29.1447 53.4936 28.0315 53.7377 26.9545C53.1597 27.7067 52.5517 28.5457 52.5972 29.4927C52.6371 30.3099 53.1594 31.0127 53.6618 31.6584C54.0614 32.1696 54.4628 32.6825 54.848 33.2046L54.6697 30.074C54.6606 30.0611 54.65 30.05 54.6409 30.0372L54.6426 30.0371Z" fill="white"/>
<path d="M51.368 47.9319C52.1888 47.8084 52.8306 47.2111 53.3941 46.5849L53.3841 46.4086C52.673 46.641 51.892 46.5536 51.156 46.3185L51.2486 47.9454C51.2886 47.9431 51.3266 47.9376 51.3664 47.932L51.368 47.9319Z" fill="white"/>
<path d="M52.9919 39.8789C52.9919 39.8789 53.0026 39.8616 53.0088 39.8529L52.7604 35.4913C52.4451 34.9068 52.0842 34.3433 51.8014 33.7436C51.3306 32.744 51.0527 31.5566 51.4958 30.5451C51.0764 30.9177 50.6403 31.3181 50.3276 31.7765L50.5179 35.1184C50.5235 35.1281 50.5274 35.1378 50.533 35.1492C51.3631 36.7725 52.2224 38.4107 52.6224 40.1887C52.2988 40.4558 51.9698 40.7148 51.6336 40.9659C51.6416 40.9304 51.6512 40.8948 51.6491 40.8566C51.6373 40.6503 51.4597 40.4919 51.2535 40.5036C51.0472 40.5154 50.8888 40.6929 50.9005 40.8992C50.9114 41.0905 51.0665 41.2352 51.254 41.2462C51.1322 41.3333 51.0067 41.4155 50.8831 41.5026L50.9885 43.3524C51.7403 43.4548 52.4897 43.6024 53.2347 43.7619L53.1266 41.8639C52.7241 41.77 52.3195 41.6995 51.9064 41.683C51.6104 41.6715 51.3359 41.6871 51.0824 41.7199C51.5142 41.4183 51.9385 41.1038 52.3505 40.7782C52.3513 40.7915 52.3436 40.8037 52.3444 40.817C52.3561 41.0232 52.5337 41.1817 52.74 41.1699C52.8947 41.1611 53.0224 41.0587 53.0713 40.9224L53.055 40.6347C53.0021 40.5275 52.8994 40.4533 52.7781 40.4318C52.8625 40.3619 52.9471 40.2937 53.0316 40.2238L53.011 39.8628C53.011 39.8628 52.9998 39.8718 52.9935 39.8772L52.9919 39.8789Z" fill="white"/>
<path d="M49.0327 47.3115C49.7285 47.6608 50.4796 48.0135 51.2466 47.9431L51.1539 46.3163C50.9057 46.237 50.6615 46.139 50.4285 46.0322C49.8937 45.7856 49.3855 45.4757 48.8669 45.1915L48.9864 47.2892C49.0018 47.2966 49.0173 47.3041 49.0311 47.3116L49.0327 47.3115Z" fill="white"/>
<path d="M48.6242 33.4249C48.4858 33.5146 48.3475 33.6059 48.2094 33.7005L48.2506 34.4241C48.3123 34.0718 48.4298 33.733 48.6242 33.4249Z" fill="white"/>
<path d="M49.8922 32.8224C49.7792 33.6216 50.1456 34.4001 50.5136 35.1185L50.3233 31.7765C50.1061 32.0943 49.9472 32.4388 49.8922 32.8224Z" fill="white"/>
<path d="M50.3164 41.8927C49.6858 42.1021 49.2388 42.4296 48.9572 42.7294C48.8893 42.7683 48.8214 42.8072 48.7536 42.8461C49.2095 42.3245 49.7155 41.3044 49.4903 39.7819C49.3279 38.6897 48.7773 37.6947 48.4584 36.6364C48.4233 36.5199 48.3916 36.4016 48.363 36.2814L48.7581 43.2197C49.5044 43.1955 50.2487 43.2533 50.9888 43.3547L50.8834 41.5049C50.6956 41.6358 50.5096 41.7682 50.3181 41.8942L50.3164 41.8927Z" fill="white"/>
<path d="M48.9852 47.2913L48.8657 45.1937C48.4127 44.9458 47.9524 44.7166 47.4567 44.5696C47.1529 44.4801 46.866 44.4247 46.5974 44.3966L46.6996 46.1915C47.4716 46.5314 48.231 46.9137 48.9853 47.2929L48.9852 47.2913Z" fill="white"/>
<path d="M46.1411 35.7444C46.1312 35.7483 46.1196 35.7524 46.1097 35.7563L46.111 35.7782C46.1222 35.7674 46.1299 35.7552 46.1411 35.7444Z" fill="white"/>
<path d="M48.2489 34.4276L48.2077 33.704C47.5493 34.1587 46.9272 34.6915 46.703 35.4436C46.4689 36.2279 46.7268 37.0643 46.9862 37.8389C47.5629 39.555 48.1624 41.2899 48.3001 43.0928C47.7448 43.3931 47.1767 43.6741 46.5974 43.934C46.6275 43.8773 46.6473 43.8144 46.6433 43.7445C46.6382 43.6547 46.6003 43.5751 46.5434 43.5132L46.5854 44.2518C46.8882 44.1177 47.1907 43.9787 47.4878 43.8333C47.4842 43.8585 47.4756 43.8824 47.4771 43.909C47.4888 44.1153 47.6664 44.2737 47.8727 44.2619C48.079 44.2502 48.2374 44.0726 48.2257 43.8664C48.218 43.7316 48.1349 43.6212 48.0248 43.5624C48.2403 43.45 48.4559 43.3376 48.6678 43.2204C48.6944 43.2188 48.7229 43.2206 48.7495 43.219L48.3544 36.2807C48.2062 35.6717 48.1445 35.0277 48.2488 34.426L48.2489 34.4276Z" fill="white"/>
<path d="M46.2503 43.3886C46.0441 43.4003 45.8856 43.5779 45.8974 43.7842C45.9068 43.9489 46.0225 44.0774 46.1735 44.1206C45.9129 44.2322 45.6486 44.3391 45.3841 44.4426C45.008 44.5191 44.6948 44.6454 44.4507 44.7844C44.9597 44.3165 45.5141 43.4722 45.6082 42.1351C45.6856 41.0326 45.3615 39.9429 45.2788 38.8412C45.1969 37.7544 45.3594 36.5653 46.1073 35.7784L46.1061 35.7568C45.3022 36.0579 44.4498 36.4168 43.9598 37.1023L44.431 45.3763C45.2086 45.5807 45.9607 45.8633 46.7002 46.1883L46.5979 44.3935C46.5006 44.384 46.4067 44.376 46.3146 44.3712C46.4075 44.3309 46.4985 44.289 46.5897 44.2487L46.5476 43.5102C46.4747 43.4309 46.3684 43.3819 46.252 43.3885L46.2503 43.3886Z" fill="white"/>
<path d="M43.8254 37.3002C43.4289 38.0154 43.4986 38.8876 43.5866 39.7003C43.7758 41.4702 43.983 43.2624 43.748 45.0248C43.2431 45.1854 42.7291 45.3315 42.2108 45.4628L42.2274 45.7539C42.8115 45.6072 43.3879 45.4425 43.9548 45.2583C44.1137 45.2927 44.2713 45.3354 44.4289 45.3765L43.9577 37.1025C43.9113 37.1669 43.8648 37.2296 43.8254 37.3002Z" fill="white"/>
<path d="M40.0187 45.9207L40.0351 46.2085C40.7774 46.0861 41.5114 45.9342 42.2321 45.7529L42.2155 45.4618C41.4949 45.6447 40.7626 45.7966 40.0186 45.919L40.0187 45.9207Z" fill="white"/>
<path d="M37.6256 46.2081L37.6419 46.4943C38.4511 46.4332 39.2501 46.3376 40.0354 46.2078L40.019 45.92C39.232 46.0499 38.4348 46.147 37.6256 46.2081Z" fill="white"/>
<path d="M2.14766 23.5465C2.12994 24.4955 2.14052 25.5312 2.74145 26.2663C3.05178 26.6459 3.47781 26.8886 3.93869 27.0693L3.82881 25.1397C3.10438 24.7854 2.46771 24.2726 2.14942 23.5481L2.14766 23.5465Z" fill="white"/>
<path d="M4.0466 29.8224C4.06838 29.9997 4.09358 30.1785 4.12221 30.3588L4.09568 29.893C4.07929 29.8689 4.06133 29.8466 4.0466 29.8224Z" fill="white"/>
<path d="M2.5279 10.5949C2.20825 11.4876 1.88901 12.4754 2.2248 13.3608C2.41719 13.8672 2.79676 14.2611 3.22671 14.6021L3.07913 12.0104C2.78122 11.5852 2.574 11.1113 2.52781 10.5933L2.5279 10.5949Z" fill="white"/>
<path d="M1.73218 17.1181C1.56166 18.0507 1.40477 19.0759 1.8804 19.8966C2.2507 20.5381 2.92969 20.915 3.60546 21.2353L3.48904 19.1909C2.67847 18.7013 1.96541 18.0193 1.73209 17.1164L1.73218 17.1181Z" fill="white"/>
<path d="M3.9464 19.4477C3.79177 19.3698 3.63841 19.285 3.48801 19.1935L3.60443 21.2379C3.67481 21.2723 3.74676 21.3049 3.81704 21.3376C4.50945 21.657 5.20694 21.9777 5.88931 22.326L5.76977 20.2267C5.1657 19.9641 4.5373 19.7429 3.94807 19.4477L3.9464 19.4477Z" fill="white"/>
<path d="M4.34041 13.2486C3.86692 12.905 3.41606 12.4901 3.08176 12.0118L3.22934 14.6035C3.44789 14.778 3.67898 14.9384 3.90803 15.0922C4.45475 15.4616 5.00657 15.8324 5.54426 16.219L5.41439 13.9384C5.04966 13.7172 4.68503 13.4976 4.34207 13.2485L4.34041 13.2486Z" fill="white"/>
<path d="M4.70884 25.4875C4.41148 25.3943 4.11289 25.2794 3.82785 25.1388L3.93773 27.0684C4.24502 27.1894 4.56918 27.2845 4.88465 27.3733C5.32216 27.4952 5.76124 27.6154 6.19903 27.7424L6.09029 25.8327C5.62701 25.7272 5.16079 25.6286 4.7105 25.4874L4.70884 25.4875Z" fill="white"/>
<path d="M4.09514 29.8946L4.12166 30.3603C4.24594 31.1359 4.46023 31.9098 5.02879 32.4281C5.43364 32.7973 5.95451 32.9762 6.4981 33.0854L6.39532 31.2806C5.48717 31.0703 4.60728 30.6531 4.09357 29.8963L4.09514 29.8946Z" fill="white"/>
<path d="M6.86391 31.3697C6.70898 31.3452 6.55366 31.314 6.39816 31.2794L6.50094 33.0843C6.76941 33.1391 7.04359 33.1769 7.31258 33.2116C7.78827 33.2713 8.26562 33.3309 8.74169 33.3973L8.63607 31.5425C8.0456 31.4893 7.44843 31.4649 6.86567 31.3713L6.86391 31.3697Z" fill="white"/>
<path d="M7.89621 26.3973C7.3266 26.1244 6.71225 25.9741 6.09348 25.8341L6.20222 27.7438C6.97093 27.967 7.73089 28.2124 8.46873 28.5092L8.36292 26.6511C8.21936 26.5625 8.06425 26.4762 7.89778 26.3956L7.89621 26.3973Z" fill="white"/>
<path d="M6.94334 20.8574C6.57672 20.6029 6.17829 20.4053 5.76926 20.2267L5.8888 22.326C6.69141 22.7342 7.47143 23.1854 8.19112 23.7202L8.09289 21.9952C7.83061 21.6096 7.46122 21.2184 6.94334 20.8574Z" fill="white"/>
<path d="M7.92088 19.0726C7.71461 19.0843 7.55617 19.2619 7.56791 19.4682C7.57966 19.6744 7.75724 19.8329 7.96351 19.8211L7.96683 19.8209L7.92421 19.0724L7.92088 19.0726Z" fill="white"/>
<path d="M6.95842 35.0137C7.18447 35.9354 7.46164 36.9343 8.2309 37.4896C8.46237 37.6566 8.72056 37.7654 8.99026 37.8419L8.89108 36.1002C8.13743 35.9362 7.43106 35.6059 6.95676 35.0138L6.95842 35.0137Z" fill="white"/>
<path d="M8.23242 25.3229C8.23612 25.3878 8.25783 25.4467 8.28914 25.4983L8.26896 25.144C8.24371 25.1988 8.22882 25.2597 8.23252 25.3246L8.23242 25.3229Z" fill="white"/>
<path d="M7.06997 15.1217C6.58234 14.6471 5.99802 14.2915 5.41379 13.9376L5.54366 16.2182C6.37536 16.8151 7.17431 17.4521 7.87866 18.1864L7.75097 15.944C7.57526 15.672 7.35427 15.3958 7.07163 15.1216L7.06997 15.1217Z" fill="white"/>
<path d="M7.16399 8.33192C7.20636 8.69499 7.27848 9.05302 7.37361 9.40474L7.19979 6.35228C7.10189 7.00704 7.08646 7.6738 7.16399 8.33192Z" fill="white"/>
<path d="M9.93855 36.231C9.59389 36.2156 9.24115 36.1756 8.89816 36.1017L8.99734 37.8433C9.50448 37.9863 10.0612 38.003 10.5939 38.0094C10.806 38.0124 11.018 38.0136 11.2301 38.0166L11.1278 36.22C10.7315 36.2359 10.3335 36.2503 9.93865 36.2327L9.93855 36.231Z" fill="white"/>
<path d="M10.8005 40.3654C10.9853 40.767 11.1842 41.1829 11.4305 41.5528L11.3842 40.7393C11.1767 40.641 10.9795 40.5187 10.8005 40.3654Z" fill="white"/>
<path d="M10.1485 31.8055C9.65749 31.6532 9.14973 31.587 8.63644 31.5411L8.74207 33.3959C9.49739 33.5014 10.2506 33.6287 10.9883 33.8054L10.8914 32.1036C10.6697 31.9911 10.4236 31.89 10.1485 31.8055Z" fill="white"/>
<path d="M10.387 29.3664C10.4895 29.202 10.5989 29.0422 10.71 28.884L10.568 26.3905C10.1066 27.2262 10.0214 27.987 10.0802 28.5494C9.89164 28.0228 9.7178 27.4903 9.56178 26.9485C9.6008 26.9596 9.64138 26.969 9.68463 26.9665C9.8909 26.9547 10.0493 26.7772 10.0376 26.5709C10.0259 26.3646 9.84827 26.2062 9.642 26.2179C9.5422 26.2236 9.45631 26.2686 9.3917 26.3357C9.20653 25.6336 9.05231 24.9181 8.92422 24.1928C9.36447 23.6887 9.85081 23.2321 10.3621 22.8042L10.2365 20.5984C10.1634 20.6626 10.0886 20.727 10.0191 20.7944C9.14824 21.65 8.83615 22.5289 8.76767 23.202C8.6886 22.6341 8.62921 22.0601 8.58626 21.4817C8.64296 21.5102 8.70417 21.5301 8.77237 21.5262C8.97864 21.5145 9.13708 21.3369 9.12534 21.1306C9.11359 20.9244 8.93601 20.7659 8.72974 20.7777C8.66154 20.7815 8.60132 20.8083 8.54822 20.8431C8.51229 20.1242 8.50169 19.4105 8.52151 18.7034C9.00783 18.3053 9.52861 17.9552 10.0676 17.6324L9.95613 15.6745C9.2156 16.2391 8.80242 16.8667 8.59015 17.4178C8.6429 16.7323 8.72273 16.0535 8.82633 15.3817C8.89066 15.5149 9.02923 15.6038 9.18559 15.5949C9.39186 15.5832 9.55031 15.4056 9.53856 15.1993C9.52681 14.9931 9.34924 14.8346 9.14297 14.8464C9.04482 14.852 8.95893 14.8969 8.8959 14.9622C9.05358 14.0387 9.25898 13.1325 9.51034 12.242C9.5881 12.2009 9.66938 12.1629 9.75399 12.1247L9.67991 10.8239C9.67235 10.8377 9.66479 10.8514 9.65889 10.8651C9.66744 10.4291 9.61406 9.98986 9.52317 9.56613C9.30736 8.56042 8.88959 7.61293 8.56375 6.63852C8.2379 5.6641 8.00347 4.6244 8.17443 3.61168C7.67485 4.45119 7.34611 5.38946 7.20244 6.35389L7.37626 9.40635C7.62346 10.3185 8.03835 11.186 8.60068 11.9467C8.71457 12.1005 8.90841 12.4566 9.12518 12.4826L9.12537 12.4859C9.12703 12.4858 9.13017 12.4823 9.13174 12.4806C9.13673 12.4803 9.14338 12.4799 9.14837 12.4796C9.0259 12.9372 8.91194 13.3976 8.81332 13.8638C8.74124 13.7995 8.64571 13.7632 8.54258 13.7691C8.33631 13.7808 8.17787 13.9584 8.18961 14.1647C8.20136 14.371 8.37894 14.5294 8.58521 14.5177C8.62347 14.5155 8.65607 14.5019 8.69044 14.49C8.51521 15.4278 8.38428 16.3815 8.30752 17.3488C8.23864 16.9305 8.07253 16.446 7.74698 15.9455L7.87467 18.1879C7.99185 18.3114 8.11059 18.4331 8.22306 18.5619C8.22896 18.5482 8.23467 18.5312 8.24056 18.5175C8.2321 18.75 8.23049 18.9854 8.22878 19.2191C8.15694 19.1297 8.04854 19.0725 7.92535 19.0778L7.96798 19.8264C8.07111 19.8205 8.1618 19.772 8.22436 19.6983C8.22812 20.1454 8.23873 20.5953 8.2644 21.0461C8.29244 21.5385 8.33369 22.0285 8.38806 22.5144C8.3101 22.3469 8.21005 22.1724 8.09003 21.999L8.18826 23.724C8.32768 23.8279 8.46711 23.9317 8.60192 24.0426C8.65485 24.3566 8.71277 24.6704 8.77716 24.9805C8.71871 24.9504 8.65583 24.9307 8.58763 24.9345C8.44457 24.9427 8.32769 25.0294 8.27111 25.1495L8.29128 25.5038C8.36113 25.6167 8.48877 25.6895 8.63016 25.6814C8.74161 25.6751 8.83525 25.6197 8.8991 25.5393C9.06145 26.251 9.24986 26.9512 9.46587 27.6381C9.20625 27.2991 8.84626 26.9558 8.35683 26.6549L8.46265 28.513C9.00241 28.7309 9.53206 28.9761 10.0361 29.2695C10.1067 29.4541 10.1806 29.6385 10.2561 29.8211C10.2135 29.8068 10.168 29.7994 10.1215 29.802C9.9152 29.8138 9.75675 29.9914 9.7685 30.1976C9.78025 30.4039 9.95782 30.5623 10.1641 30.5506C10.3038 30.5426 10.4174 30.4561 10.4742 30.3394C10.5893 30.6032 10.7093 30.8633 10.8324 31.1217L10.7877 30.3365C10.6477 30.0174 10.5109 29.6948 10.3822 29.37L10.387 29.3664Z" fill="white"/>
<path d="M11.3842 40.7383L11.4305 41.5517C11.7134 41.9762 12.0579 42.3404 12.5173 42.5546C12.8945 42.73 13.3045 42.7801 13.7211 42.7697L13.6224 41.0364C12.8558 41.1134 12.0566 41.0572 11.3825 40.7384L11.3842 40.7383Z" fill="white"/>
<path d="M13.2505 36.2861C12.5537 36.1538 11.8413 36.1861 11.1286 36.215L11.2309 38.0115C11.9741 38.0209 12.7194 38.0386 13.4585 38.0933L13.357 36.31C13.3215 36.302 13.2876 36.294 13.2505 36.2861Z" fill="white"/>
<path d="M13.0334 34.4049C13.0924 34.2697 13.1566 34.1375 13.2209 34.0053L13.041 30.8464C12.343 32.1879 12.4766 33.3017 12.7282 33.9399C12.3015 33.275 11.9037 32.59 11.5365 31.8867C11.5635 31.8918 11.589 31.9004 11.6156 31.8989C11.8219 31.8871 11.9804 31.7095 11.9686 31.5033C11.9569 31.297 11.7793 31.1385 11.573 31.1503C11.4366 31.1581 11.3246 31.2429 11.266 31.3564C11.0999 31.0187 10.9419 30.6772 10.7888 30.3322L10.8335 31.1173C11.0572 31.5869 11.2922 32.0508 11.5417 32.5055C11.3517 32.3628 11.1352 32.2249 10.8896 32.1021L10.9865 33.8038C11.5398 33.9375 12.0863 34.0966 12.6188 34.305C12.7231 34.4659 12.8306 34.625 12.9398 34.784C12.9264 34.7831 12.9127 34.7772 12.8977 34.7781C12.6915 34.7898 12.533 34.9674 12.5448 35.1737C12.5565 35.3799 12.7341 35.5384 12.9404 35.5266C13.1017 35.5174 13.2306 35.4066 13.2741 35.2623C13.2796 35.2703 13.2867 35.2783 13.2922 35.2863L13.2609 34.7373C13.1845 34.6265 13.1066 34.5192 13.0318 34.4066L13.0334 34.4049Z" fill="white"/>
<path d="M12.2238 16.4989L12.1139 14.5693C11.4209 14.854 10.7203 15.1242 10.1106 15.5545C10.0561 15.5926 10.0067 15.6338 9.95386 15.6736L10.0654 17.6315C10.761 17.2163 11.4878 16.8495 12.2238 16.4989Z" fill="white"/>
<path d="M12.7945 26.4825L12.6608 24.1337C12.044 24.6728 11.4006 25.1851 10.9173 25.8418C10.7809 26.0264 10.6662 26.2099 10.5663 26.3891L10.7083 28.8827C11.3147 28.0137 12.0378 27.2315 12.7944 26.4809L12.7945 26.4825Z" fill="white"/>
<path d="M12.497 21.2218L12.3795 19.1591C11.6606 19.6339 10.8858 20.0369 10.2386 20.5994L10.3642 22.8052C11.0413 22.2393 11.7663 21.724 12.497 21.2218Z" fill="white"/>
<path d="M11.9219 11.1267L11.7701 8.46184C11.4393 8.98134 10.9998 9.44027 10.506 9.79548C10.1533 10.0492 9.8846 10.43 9.68182 10.8254L9.7559 12.1262C10.4717 11.8017 11.4016 11.5435 11.9219 11.1267Z" fill="white"/>
<path d="M15.0592 37.0589C14.877 36.849 14.6981 36.6372 14.524 36.4219C14.7108 36.3912 14.8501 36.2297 14.8391 36.0368C14.8274 35.8305 14.6498 35.6721 14.4435 35.6838C14.2955 35.6922 14.1741 35.7876 14.1213 35.9158C13.8241 35.5322 13.5396 35.1378 13.2614 34.7365L13.2927 35.2854C13.6208 35.7423 13.9615 36.1869 14.3167 36.6222C14.0358 36.4947 13.7143 36.3879 13.3512 36.3118L13.4527 38.095C14.2085 38.1504 14.9586 38.2512 15.6943 38.4229L15.649 37.6278C15.4963 37.4379 15.3049 37.2419 15.0609 37.0588L15.0592 37.0589Z" fill="white"/>
<path d="M15.2849 44.2931C15.5298 44.6663 15.7904 45.052 16.093 45.3836L16.0491 44.6134C15.7816 44.5468 15.5237 44.443 15.2849 44.2931Z" fill="white"/>
<path d="M15.6333 37.3803L15.5682 36.2358C15.5277 36.6687 15.5596 37.0524 15.6333 37.3803Z" fill="white"/>
<path d="M13.9492 41C13.8416 41.0161 13.7322 41.029 13.6227 41.0403L13.7214 42.7736C14.1246 42.7623 14.533 42.694 14.9295 42.623C15.2614 42.5624 15.5935 42.5035 15.9256 42.4445L15.8209 40.6064C15.1975 40.737 14.5798 40.909 13.9509 41.0016L13.9492 41Z" fill="white"/>
<path d="M13.1828 20.7489C13.7161 20.3848 14.2675 19.9862 14.618 19.459L14.4599 16.6826C14.2194 17.5875 13.5097 18.3422 12.7408 18.9067C12.6222 18.9935 12.5017 19.0755 12.3796 19.1575L12.497 21.2202C12.7267 21.062 12.9547 20.9055 13.1845 20.7488L13.1828 20.7489Z" fill="white"/>
<path d="M14.0282 25.2885C14.3321 24.9992 14.6403 24.6963 14.8915 24.3599L14.6832 20.7019C14.6684 20.6761 14.6535 20.6502 14.6404 20.6243C14.7231 21.726 14.0691 22.7546 13.2945 23.5413C13.091 23.7482 12.8751 23.9424 12.6574 24.135L12.7912 26.4838C13.1988 26.0801 13.6151 25.6842 14.0282 25.2885Z" fill="white"/>
<path d="M15.2615 30.8393L15.1083 28.1494C15.0974 28.1634 15.0883 28.1789 15.0774 28.1929C14.4256 29.0845 13.5741 29.8389 13.0573 30.8162C13.0513 30.8283 13.0469 30.8385 13.0409 30.8506L13.2208 34.0095C13.7654 32.877 14.4942 31.8425 15.2632 30.8392L15.2615 30.8393Z" fill="white"/>
<path d="M13.2394 16.0227C13.6296 15.8403 14.0306 15.6439 14.382 15.3969L14.2662 13.3642C13.9148 13.6696 13.5105 13.9246 13.0984 14.1333C12.7789 14.295 12.4465 14.4357 12.1121 14.5716L12.222 16.5012C12.5599 16.3401 12.8996 16.1806 13.2378 16.0228L13.2394 16.0227Z" fill="white"/>
<path d="M12.1625 10.8733C12.5748 10.289 12.7264 9.55111 12.7156 8.83412C12.7049 8.11879 12.5462 7.41355 12.3863 6.71506C12.3298 7.33409 12.1033 7.92942 11.7647 8.45937L11.9164 11.1242C12.0138 11.0469 12.0976 10.9637 12.1624 10.8716L12.1625 10.8733Z" fill="white"/>
<path d="M17.9746 39.9399C17.9844 39.936 17.9942 39.9321 18.004 39.9282L17.9639 39.2246C17.9267 39.215 17.8896 39.2088 17.8497 39.211C17.6683 39.2214 17.5327 39.3593 17.5075 39.5326C17.4952 39.5216 17.4829 39.5106 17.4689 39.4997C17.0733 39.1468 16.6886 38.7798 16.3134 38.404C16.659 37.3213 17.1735 36.3057 17.7414 35.3171L17.5631 32.1864C17.0194 33.1303 16.2745 33.9687 15.8783 34.9826C15.7021 35.4349 15.6074 35.8525 15.5707 36.2334L15.6358 37.3779C15.6649 37.5081 15.7003 37.6312 15.7401 37.7441C15.7129 37.7056 15.6807 37.6674 15.6501 37.6291L15.6954 38.4242C15.7969 38.4485 15.8982 38.4677 15.9981 38.4937C16.1486 38.6454 16.2991 38.797 16.4527 38.9451C16.2729 38.9821 16.1417 39.1398 16.1524 39.3277C16.1641 39.534 16.3417 39.6924 16.548 39.6807C16.7276 39.6705 16.865 39.5325 16.8902 39.3608C17.2602 39.7036 17.6395 40.0341 18.0283 40.3557L18.0062 39.9665C17.9956 39.9571 17.9852 39.9493 17.9746 39.9399Z" fill="white"/>
<path d="M17.2138 40.4311C16.745 40.4328 16.2819 40.5075 15.8218 40.6038L15.9265 42.442C16.6585 42.3135 17.3946 42.1982 18.1314 42.1262L18.0387 40.4976C17.7859 40.4553 17.5109 40.4309 17.2138 40.4311Z" fill="white"/>
<path d="M16.0466 44.6134L16.0905 45.3836C16.4304 45.7564 16.8234 46.0628 17.3054 46.2039C17.6516 46.306 18.0074 46.3108 18.3635 46.2638L18.2639 44.5155C17.5391 44.7103 16.756 44.7916 16.0466 44.6134Z" fill="white"/>
<path d="M15.1707 14.5733C15.6412 13.7505 15.4794 12.725 15.3045 11.7937C15.1464 12.4168 14.7588 12.9379 14.269 13.363L14.3848 15.3957C14.701 15.1741 14.9797 14.9113 15.1708 14.575L15.1707 14.5733Z" fill="white"/>
<path d="M15.401 23.3027C15.58 22.4014 15.1354 21.5105 14.6872 20.7032L14.8955 24.3612C15.136 24.0421 15.3232 23.6943 15.401 23.3027Z" fill="white"/>
<path d="M16.0601 29.8142C16.5641 29.1697 17.0848 28.4675 17.125 27.6491C17.1712 26.7019 16.5643 25.862 15.9858 25.1106C16.2248 26.1717 15.7464 27.2653 15.1108 28.1493L15.264 30.8391C15.5264 30.4954 15.7941 30.1548 16.0601 29.8142Z" fill="white"/>
<path d="M14.8525 19.0099C15.1841 18.1216 14.8593 17.1371 14.5365 16.2442C14.5234 16.3952 14.4966 16.5402 14.458 16.6843L14.6161 19.4606C14.7099 19.3201 14.7916 19.1719 14.8525 19.0099Z" fill="white"/>
<path d="M20.1252 41.5867C19.893 41.3196 19.534 41.0229 19.0355 40.796C18.6847 40.5273 18.3403 40.2515 18.0036 39.9669L18.0258 40.3562C18.0976 40.4155 18.1662 40.4767 18.2379 40.5343C18.172 40.5197 18.1028 40.507 18.0338 40.4959L18.1265 42.1244C18.86 42.0526 19.596 42.0241 20.3333 42.0755C20.3385 42.0786 20.342 42.0817 20.3472 42.0848L20.3266 41.7238C20.2589 41.6776 20.1913 41.633 20.1252 41.5867Z" fill="white"/>
<path d="M19.6923 38.6128C19.4103 40.1375 19.8885 41.1783 20.3277 41.7124L20.0794 37.3508C19.9159 37.7623 19.7727 38.1776 19.6923 38.6128Z" fill="white"/>
<path d="M20.4412 48.201C20.5292 48.2811 20.6172 48.3612 20.7086 48.4411L20.6985 48.2648C20.6124 48.2463 20.5261 48.2262 20.4411 48.1993L20.4412 48.201Z" fill="white"/>
<path d="M20.3515 42.6376C20.3545 42.6892 20.3673 42.7385 20.3898 42.7823L20.3734 42.4945C20.3576 42.5388 20.3486 42.586 20.3515 42.6376Z" fill="white"/>
<path d="M18.4887 44.4501C18.4132 44.4728 18.3376 44.4937 18.2604 44.5148L18.3599 46.2631C18.8121 46.2023 19.2644 46.0564 19.6965 45.9083C19.9781 45.8122 20.2613 45.7159 20.5445 45.6197L20.4365 43.7217C19.7855 43.954 19.148 44.2473 18.4869 44.4485L18.4887 44.4501Z" fill="white"/>
<path d="M18.242 39.5661C18.2325 39.3998 18.1148 39.2663 17.9607 39.2267L18.0007 39.9303C18.1477 39.8736 18.2516 39.7341 18.2421 39.5678L18.242 39.5661Z" fill="white"/>
<path d="M18.7455 33.6455C19.1731 32.9486 19.6105 32.1893 19.5573 31.373C19.4968 30.4268 18.7973 29.6606 18.1361 28.9806C18.5008 30.0229 18.1331 31.1854 17.5871 32.146C17.5795 32.1598 17.5702 32.172 17.5626 32.1858L17.7409 35.3165C18.0642 34.7523 18.4065 34.1988 18.7439 33.6455L18.7455 33.6455Z" fill="white"/>
<path d="M20.7012 48.2671L20.7112 48.4434C21.3438 49.0015 22.0494 49.5237 22.8771 49.5517C22.9172 49.5527 22.9556 49.5522 22.9956 49.5516L22.903 47.9247C22.2002 48.2434 21.4324 48.4173 20.6995 48.2672L20.7012 48.2671Z" fill="white"/>
<path d="M22.2291 42.8984C22.4142 42.8661 22.5519 42.7048 22.541 42.5135C22.5292 42.3072 22.3517 42.1487 22.1454 42.1605C21.9391 42.1722 21.7807 42.3498 21.7924 42.5561C21.7946 42.5943 21.8082 42.6286 21.8202 42.663C21.4577 42.4517 21.1014 42.2316 20.7496 42.003C20.9468 40.1911 21.6129 38.4659 22.2534 36.7589C22.2578 36.7487 22.2605 36.7385 22.2649 36.7266L22.0746 33.3847C21.7101 32.9632 21.233 32.6148 20.7741 32.2938C21.3292 33.2485 21.1879 34.4598 20.8336 35.5064C20.6207 36.1343 20.3261 36.7352 20.0792 37.3517L20.3276 41.7133C20.3276 41.7133 20.3402 41.7293 20.3473 41.7372C20.3404 41.7326 20.3352 41.7295 20.3282 41.7249L20.3488 42.0859C20.4407 42.1458 20.5325 42.2056 20.6243 42.2638C20.506 42.2972 20.4125 42.3843 20.3722 42.4968L20.3886 42.7846C20.4528 42.9161 20.5912 43.0017 20.7459 42.9928C20.9522 42.9811 21.1106 42.8035 21.0989 42.5973C21.0981 42.5839 21.0908 42.5727 21.0884 42.5595C21.5364 42.836 21.992 43.1005 22.4552 43.3511C22.198 43.3474 21.9252 43.3629 21.6323 43.408C21.2237 43.4713 20.8298 43.5872 20.4405 43.7262L20.5486 45.6242C21.2707 45.3811 21.9969 45.1495 22.7339 44.9624L22.6285 43.1126C22.496 43.0417 22.362 42.9742 22.2309 42.8999L22.2291 42.8984Z" fill="white"/>
<path d="M24.4837 37.999C24.2886 39.0866 23.8529 40.1377 23.8156 41.2413C23.763 42.7796 24.3832 43.7356 24.8954 44.2021C24.8235 44.1712 24.7517 44.1402 24.6798 44.1093C24.3677 43.845 23.8864 43.5687 23.2344 43.4322C23.0299 43.3287 22.83 43.2183 22.6286 43.1096L22.7339 44.9594C23.4577 44.7746 24.189 44.6345 24.9348 44.572L24.5397 37.6337C24.525 37.7564 24.5068 37.8776 24.4853 37.9973L24.4837 37.999Z" fill="white"/>
<path d="M23.945 34.8282C24.1732 35.1123 24.3284 35.4356 24.4297 35.7786L24.3885 35.055C24.2405 34.9766 24.0927 34.9016 23.945 34.8282Z" fill="white"/>
<path d="M23.5915 47.5583C23.3721 47.6909 23.1422 47.8158 22.903 47.9229L22.9956 49.5498C23.7657 49.5326 24.4718 49.0969 25.1235 48.671C25.1379 48.6618 25.1524 48.6526 25.1653 48.6435L25.0458 46.5459C24.5629 46.8872 24.0931 47.2527 23.5898 47.5584L23.5915 47.5583Z" fill="white"/>
<path d="M22.621 34.3751C22.5229 34.0002 22.3258 33.6759 22.0739 33.3849L22.2643 36.7268C22.5466 35.9697 22.8239 35.1546 22.621 34.3751Z" fill="white"/>
<path d="M26.3736 45.7681C25.8995 45.9703 25.4682 46.2502 25.0446 46.5481L25.164 48.6457C25.8703 48.1832 26.5799 47.7189 27.3099 47.2919L27.2076 45.497C26.944 45.5554 26.6652 45.643 26.3735 45.7664L26.3736 45.7681Z" fill="white"/>
<path d="M26.6833 36.8497C26.6957 36.8592 26.7065 36.8704 26.7172 36.8799L26.7159 36.858C26.7056 36.8552 26.6936 36.8525 26.6833 36.8497Z" fill="white"/>
<path d="M27.0884 44.8548C27.0923 44.9246 27.119 44.9832 27.1555 45.0378C26.5504 44.8437 25.9541 44.6306 25.3683 44.3953C25.3021 42.5884 25.7007 40.7967 26.0772 39.0263C26.247 38.2272 26.4082 37.3653 26.0867 36.6142C25.7786 35.8925 25.1 35.4338 24.3943 35.0568L24.4355 35.7804C24.6073 36.3664 24.6191 37.0115 24.541 37.6335L24.9361 44.5718C24.9627 44.5703 24.9908 44.5653 25.0174 44.5638C25.2413 44.6562 25.4683 44.7451 25.6952 44.8306C25.5908 44.9033 25.5224 45.0207 25.5301 45.1554C25.5418 45.3617 25.7194 45.5201 25.9257 45.5084C26.1319 45.4967 26.2904 45.3191 26.2786 45.1128C26.2771 45.0862 26.2658 45.0635 26.2594 45.0388C26.5711 45.1496 26.8858 45.2535 27.2035 45.3522L27.1613 44.612C27.1118 44.6799 27.0831 44.7633 27.0883 44.8531L27.0884 44.8548Z" fill="white"/>
<path d="M26.7185 36.8595L26.7197 36.8811C27.5538 37.5779 27.8486 38.741 27.8906 39.8301C27.9335 40.9341 27.7353 42.0552 27.9373 43.1401C28.1825 44.4579 28.8275 45.2339 29.3881 45.6409C29.1298 45.5304 28.8042 45.4405 28.4218 45.4072C28.1473 45.3344 27.8726 45.2582 27.601 45.1769C27.7462 45.1186 27.8466 44.976 27.8372 44.8113C27.8254 44.6051 27.6479 44.4466 27.4416 44.4584C27.3251 44.465 27.2251 44.5258 27.1617 44.6128L27.2038 45.3531C27.299 45.3827 27.3942 45.414 27.491 45.4435C27.4001 45.4587 27.3059 45.4757 27.2121 45.4978L27.3143 47.2927C28.0104 46.8859 28.7272 46.5196 29.4766 46.2283L29.0054 37.9542C28.4424 37.3287 27.5549 37.0705 26.7202 36.8611L26.7185 36.8595Z" fill="white"/>
<path d="M30.1113 45.7989C29.6793 44.0745 29.6801 42.2705 29.6672 40.4905C29.6607 39.6731 29.6325 38.7969 29.1574 38.1331C29.1103 38.0673 29.057 38.0103 29.0037 37.9532L29.4748 46.2273C29.6267 46.1686 29.7768 46.1083 29.9324 46.0561C30.5165 46.1747 31.1079 46.2728 31.7049 46.3523L31.6883 46.0612C31.1585 45.9896 30.6312 45.9028 30.1114 45.8006L30.1113 45.7989Z" fill="white"/>
<path d="M31.6873 46.0607L31.7038 46.3518C32.4404 46.45 33.1851 46.5161 33.9383 46.555L33.9219 46.2672C33.1687 46.2283 32.424 46.1622 31.6874 46.0623L31.6873 46.0607Z" fill="white"/>
<path d="M33.9216 46.2657L33.938 46.5535C34.6727 46.5901 35.4142 46.598 36.1621 46.5737L36.1458 46.2876C35.3979 46.3119 34.6563 46.3023 33.9216 46.2657Z" fill="white"/>
<path d="M36.8353 46.2615C36.6041 46.2747 36.3742 46.2828 36.1443 46.2892L36.1606 46.5753C36.3905 46.5689 36.6204 46.5608 36.8516 46.5476C36.9314 46.5431 36.9909 46.4746 36.9865 46.3964C36.982 46.3182 36.9135 46.2571 36.8353 46.2615Z" fill="white"/>
</g>
<defs>
<clipPath id="clip0_2309_49556">
<rect width="67.5745" height="46.7108" fill="white" transform="translate(0.7341 4.03528) rotate(-3.25925)"/>
</clipPath>
</defs>
</svg>
