<svg width="380" height="45" viewBox="0 0 380 45" fill="none" xmlns="http://www.w3.org/2000/svg">
<path d="M17.3311 44.787C11.4407 44.787 5.77868 42.793 0.545654 40.2914L5.71496 28.5637C8.88565 30.851 11.9911 33.0761 16.1108 33.0761C17.223 33.0761 19.4355 32.8451 19.4355 31.1165C19.4355 29.3466 17.7821 28.9704 15.6003 28.299C10.7162 26.858 2.93648 25.453 2.93648 15.1261C2.93648 4.61455 11.0026 0.685983 20.3785 0.685983C24.8745 0.685983 30.7149 2.27797 34.3293 4.96314L29.7097 15.5267C29.7097 15.5267 25.9909 12.1762 21.8874 12.1762C19.5429 12.1762 18.1083 12.8499 18.1083 14.3023C18.1083 15.7907 20.44 16.3452 21.8343 16.7928C26.7112 18.2813 34.7151 19.9192 34.7151 30.2346C34.7147 40.7872 26.8849 44.787 17.3311 44.787ZM63.1584 43.5657L61.9458 38.2844H50.6721L49.1617 43.5657L33.4846 43.5657L48.0568 1.83986L65.0535 1.83986L78.9334 43.5657H63.1584ZM56.2682 15.353L52.6484 28.4188H59.8785L56.2682 15.353ZM107.202 43.5657L94.664 23.2522V43.5657H80.2166V1.83986L94.664 1.83986L107.202 22.3028V1.83986L121.547 1.83986V43.5657H107.202ZM142.55 43.4507L137.762 43.5657L126.271 43.5657V1.83986L137.219 1.83986L141.985 1.90586C155.546 1.90586 165.935 6.79485 165.935 22.8384C165.935 38.0159 156.158 43.4507 142.55 43.4507ZM142.992 14.3447H141.267V31.1165H142.992C148.159 31.1165 150.873 28.5148 150.873 23.0166C150.873 17.9035 148.266 14.3447 142.992 14.3447ZM190.158 44.787C177.322 44.787 167.561 36.026 167.561 22.7439C167.561 9.74061 177.042 0.620361 190.096 0.620361C203.157 0.620361 213.217 9.50923 213.217 22.7439C213.217 35.9596 204.713 44.787 190.158 44.787ZM190.322 14.5132C185.604 14.5132 182.713 17.9035 182.713 22.6893C182.713 27.6299 185.657 30.9185 190.322 30.9185C195.032 30.9185 198.052 27.6299 198.052 22.6893C198.052 17.7844 194.976 14.5132 190.322 14.5132ZM235.758 31.0778L251.269 31.0778V43.5657L211.266 43.5657L229.164 14.3447H215.095V1.83986L253.319 1.83986L235.758 31.0778ZM273.444 14.7521H266.489L264.686 19.9047H262.196L268.65 2.24421H271.356L277.858 19.9047H275.202L273.444 14.7521ZM267.156 12.8544H272.804L271.119 7.91724C270.525 6.20995 270.051 4.16885 270.051 4.16885H269.98C269.98 4.16885 269.456 6.28012 268.889 7.91724L267.156 12.8544ZM287.397 2.24421L289.934 2.24421L297.175 13.3047C298.029 14.6114 299.146 16.8183 299.146 16.8183H299.218C299.218 16.8183 299.048 14.5158 299.048 13.0448V2.24421L301.327 2.24421V19.9047H298.813L291.598 8.84429C290.745 7.51403 289.583 5.35459 289.583 5.35459H289.532C289.532 5.35459 289.676 7.65666 289.676 9.07909V19.9047H287.397V2.24421ZM304.461 13.5432C304.461 9.83999 306.855 6.84909 310.703 6.84909C314.548 6.84909 316.898 9.84037 316.898 13.5432C316.898 17.2693 314.548 20.2609 310.703 20.2609C306.856 20.2609 304.461 17.2693 304.461 13.5432ZM314.641 13.5432C314.641 10.7906 313.288 8.60608 310.68 8.60608C308.068 8.60608 306.715 10.7906 306.715 13.5432C306.715 16.2975 308.068 18.4554 310.68 18.4554C313.288 18.4554 314.641 16.2975 314.641 13.5432ZM318.084 7.15862H320.432L322.662 14.0405C323.209 15.7501 323.824 18.1007 323.824 18.1007H323.875C323.875 18.1007 324.419 15.7501 324.988 14.0405L327.267 7.15862H329.545L324.967 19.9051H322.521L318.084 7.15862ZM330.78 16.5338C330.78 13.5671 332.962 12.9253 336.262 12.521C338.138 12.309 339.346 12.0002 339.346 10.695C339.346 9.31768 338.375 8.4646 336.618 8.4646C334.6 8.4646 333.627 9.41326 333.555 10.9336H331.421C331.515 8.77374 333.151 6.84909 336.594 6.84909C337.804 6.84909 338.873 7.06379 339.679 7.54096C340.748 8.17973 341.389 9.29568 341.389 11.0026V16.959C341.389 17.9812 341.627 18.5271 342.74 18.29H342.836V19.833C342.528 19.9279 342.171 20.0227 341.65 20.0227C340.297 20.0227 339.631 19.382 339.394 18.0286H339.371C338.565 19.1435 337.258 20.1649 335.098 20.1649C332.677 20.1649 330.78 18.9796 330.78 16.5338ZM339.371 15.2027V13.1154C338.73 13.5197 337.614 13.8289 336.571 14.0181C334.48 14.3743 333.107 14.7525 333.107 16.5095C333.107 18.1481 334.363 18.5517 335.644 18.5517C338.183 18.5517 339.371 16.6768 339.371 15.2027ZM345.113 19.9047V7.15862H347.296V9.46068H347.367C348.15 7.98969 349.455 6.99172 351.143 6.99172C351.498 6.99172 351.711 7.03913 351.949 7.13586V9.22323H351.878C351.568 9.12802 351.354 9.10412 350.973 9.10412C349.005 9.10412 347.32 10.5766 347.32 12.9731V19.9044L345.113 19.9047ZM358.688 19.9969C356.979 19.9753 355.795 19.2872 355.795 17.4123V8.86743H353.799V7.15862L355.795 7.15862V3.14812H357.975V7.15862H360.609V8.86743H357.975V16.9119C357.975 17.8371 358.474 18.1 359.282 18.1C359.661 18.1 360.159 18.0036 360.398 17.9346H360.467V19.7849C359.875 19.9279 359.256 19.9969 358.688 19.9969ZM365.83 3.57636C365.83 4.35737 365.261 4.92824 364.479 4.92824C363.697 4.92824 363.125 4.35737 363.125 3.57636C363.125 2.79194 363.697 2.22297 364.479 2.22297C365.261 2.22297 365.83 2.79156 365.83 3.57636ZM363.387 7.15862H365.593V19.9051H363.387V7.15862ZM368.3 16.0334H370.531C370.792 17.8875 372.216 18.5039 374.044 18.5039C376.061 18.5039 376.915 17.6254 376.915 16.4852C376.915 15.0829 375.847 14.7305 373.591 14.2772C371.099 13.7564 368.846 13.2341 368.846 10.4325C368.846 8.24953 370.554 6.87375 373.521 6.87375C376.726 6.87375 378.315 8.36863 378.599 10.5766H376.395C376.203 9.26988 375.301 8.53439 373.472 8.53439C371.741 8.53439 371.007 9.34081 371.007 10.3153C371.007 11.6433 372.239 11.905 374.399 12.3317C376.939 12.8309 379.123 13.3999 379.123 16.3672C379.123 18.9534 376.985 20.2837 373.996 20.2837C370.482 20.2841 368.49 18.6234 368.3 16.0334ZM263.57 25.9779H270.098C275.366 25.9779 277.976 29.5871 277.976 34.8782C277.976 40.148 275.222 43.6362 269.931 43.6362H263.57V25.9779H263.57ZM269.837 41.5227C273.822 41.5227 275.46 38.9338 275.46 34.8778C275.46 30.8191 273.99 28.0896 269.979 28.0896H266.013V41.5227H269.837ZM283.553 27.3052C283.553 28.0896 282.984 28.6601 282.202 28.6601C281.416 28.6601 280.849 28.0896 280.849 27.3052C280.849 26.5249 281.416 25.9537 282.202 25.9537C282.984 25.9533 283.553 26.5249 283.553 27.3052ZM281.108 30.8897H283.316V43.6362H281.108V30.8897ZM285.429 30.8897H287.775L290.008 37.7716C290.554 39.4816 291.172 41.8318 291.172 41.8318H291.219C291.219 41.8318 291.764 39.4816 292.332 37.7716L294.613 30.8897H296.89L292.311 43.6362H289.864L285.429 30.8897ZM301.447 27.3052C301.447 28.0896 300.876 28.6601 300.093 28.6601C299.309 28.6601 298.741 28.0896 298.741 27.3052C298.741 26.5249 299.309 25.9537 300.093 25.9537C300.876 25.9533 301.447 26.5249 301.447 27.3052ZM299.002 30.8897H301.209V43.6362H299.002V30.8897ZM303.913 39.7668H306.145C306.406 41.619 307.831 42.2354 309.657 42.2354C311.676 42.2354 312.531 41.3577 312.531 40.2182C312.531 38.8178 311.461 38.4612 309.208 38.0117C306.715 37.4886 304.459 36.9656 304.459 34.1655C304.459 31.9817 306.169 30.6052 309.137 30.6052C312.339 30.6052 313.932 32.1009 314.215 34.3107H312.006C311.817 33.0036 310.917 32.2678 309.088 32.2678C307.358 32.2678 306.62 33.0749 306.62 34.046C306.62 35.3766 307.856 35.638 310.015 36.0647C312.552 36.562 314.737 37.1332 314.737 40.1002C314.737 42.6849 312.601 44.0151 309.611 44.0151C306.099 44.0151 304.103 42.3549 303.913 39.7668ZM320.027 27.3052C320.027 28.0896 319.46 28.6601 318.675 28.6601C317.891 28.6601 317.322 28.0896 317.322 27.3052C317.322 26.5249 317.891 25.9537 318.675 25.9537C319.46 25.9533 320.027 26.5249 320.027 27.3052ZM317.584 30.8897H319.792V43.6362H317.584V30.8897ZM322.615 37.2759C322.615 33.5718 325.011 30.5825 328.857 30.5825C332.702 30.5825 335.052 33.5722 335.052 37.2759C335.052 41.0011 332.702 43.9924 328.857 43.9924C325.011 43.9924 322.615 41.0011 322.615 37.2759ZM332.796 37.2759C332.796 34.5216 331.442 32.3394 328.833 32.3394C326.222 32.3394 324.869 34.5216 324.869 37.2759C324.869 40.0301 326.222 42.188 328.833 42.188C331.442 42.188 332.796 40.0301 332.796 37.2759ZM340.08 43.6358H337.874V30.8893L340.059 30.8893V32.6941H340.13C341.054 31.4124 342.313 30.5821 344.164 30.5821C346.823 30.5821 348.461 32.0777 348.461 34.7341V43.6358H346.276V34.9973C346.276 33.3594 345.208 32.4343 343.476 32.4343C341.507 32.4343 340.081 33.8347 340.081 35.875V43.6358H340.08Z" fill="#6A47DC"/>
</svg>
