<svg width="177" height="56" viewBox="0 0 177 56" fill="none" xmlns="http://www.w3.org/2000/svg">
<g clip-path="url(#clip0_2309_51919)">
<path d="M0.546522 1.1501L0.562696 1.19053L0.805306 1.73236L1.66253 3.73389C4.00848 9.23129 6.33755 14.7359 8.6497 20.2476C10.7553 25.232 12.8256 30.2312 14.8605 35.2449C16.6518 39.6847 18.6008 44.2417 21.4029 48.2043C23.3559 50.9661 26.0287 52.9312 29.1503 54.1564C37.7104 57.5206 47.5603 54.0108 53.2657 47.7393C55.5341 45.2445 57.2567 42.1553 57.847 38.7506C58.1462 37.0119 57.9521 35.2732 57.4265 33.5103C55.5665 27.2428 46.4767 26.3735 46.4767 26.3735C44.6692 25.9287 45.9187 25.6456 46.5616 25.4475C46.5616 25.4475 51.0822 23.8988 52.546 23.2155C58.5506 20.4255 65.6954 15.3913 65.1051 7.80974C64.8301 4.2919 61.3446 1.91836 58.2433 0.984312C54.2159 -0.228739 49.8328 0.216046 46.04 1.54232C44.1881 2.18928 42.3766 3.07885 40.8724 4.3202C39.8745 5.17618 38.9704 6.13584 38.1754 7.183C35.6401 10.4178 34.5362 14.4896 33.4202 18.4239C32.098 23.0982 30.6504 27.7725 29.7487 32.5722C29.3442 34.7799 29.1842 37.0254 29.2716 39.2682C29.312 40.5621 29.4414 41.8884 29.9307 43.1297C30.2784 44.0112 30.8121 45.3739 31.6249 45.9723C32.5306 46.6395 32.7085 44.8401 32.8582 44.2215C33.0574 43.403 33.2636 42.5861 33.4768 41.7711C34.1642 39.1186 34.8759 36.4701 35.5997 33.8256C37.2777 27.6916 38.9679 21.5496 40.9209 15.5086C41.8226 12.7186 42.8456 9.96089 44.3255 7.44179C46.1936 4.25955 49.1373 1.25927 53.2859 2.16097C56.642 2.8888 57.847 6.25704 57.8389 9.29371C57.8268 13.693 55.1662 17.3403 52.1861 20.1829C49.8126 22.4472 47.1155 24.3477 43.7716 25.399C43.4845 25.4879 43.165 25.5688 42.8497 25.6699C42.5666 25.7589 42.5868 26.1632 42.8739 26.2562H42.882C44.6369 26.8466 46.2988 27.3843 47.7666 28.6014C53.0797 33.0169 50.7426 41.3425 47.9445 46.0694C46.1653 49.0696 43.5411 51.5888 40.1405 52.6765C37.023 53.6792 33.3393 53.6752 30.5574 51.4391C27.7431 49.1667 26.154 45.568 24.7024 42.3898C23.3559 39.4502 21.7143 36.4458 20.5578 33.4415C17.8285 26.3613 15.0506 19.1882 11.8885 12.2616C10.8413 9.96898 9.99619 7.50244 8.24535 5.62221C6.25595 3.4832 3.87837 1.49784 0.979176 0.992399C0.979176 0.992399 0.461608 0.915572 0.546522 1.15414V1.1501Z" fill="#6A47DC"/>
<path fill-rule="evenodd" clip-rule="evenodd" d="M76.1438 36.8986C75.8645 36.8995 75.591 36.8188 75.3569 36.6666C75.1227 36.5143 74.9381 36.297 74.8256 36.0414L69.844 24.6913H71.243C71.9709 24.6913 72.63 25.128 72.913 25.7992L76.5522 34.3998C76.6411 34.61 76.8514 34.7475 77.0778 34.7475H77.098C77.3285 34.7475 77.5347 34.61 77.6237 34.3998L81.2628 25.7992C81.4017 25.471 81.6342 25.191 81.9311 24.994C82.2281 24.797 82.5764 24.6917 82.9328 24.6913H84.3076L79.3017 36.0414C79.1891 36.2961 79.005 36.5127 78.7717 36.6648C78.5385 36.817 78.2661 36.8982 77.9876 36.8986H76.1478H76.1438ZM104.287 24.6913C105.079 24.6913 105.722 25.3383 105.722 26.1308V34.7475H114.407V35.4632C114.407 36.2557 113.76 36.8986 112.968 36.8986H103.357V24.6913H104.287ZM119.854 31.727V34.7273H128.754V35.4632C128.754 35.8439 128.603 36.209 128.333 36.4782C128.064 36.7474 127.699 36.8986 127.318 36.8986H117.485V24.6913H128.43V25.407C128.43 26.1995 127.783 26.8424 126.991 26.8424H119.854V29.6001H127.577V30.2916C127.578 30.4804 127.541 30.6675 127.469 30.8421C127.397 31.0167 127.291 31.1755 127.158 31.3092C127.025 31.4429 126.866 31.549 126.692 31.6214C126.518 31.6938 126.331 31.731 126.142 31.731H119.854V31.727ZM143.044 36.9027C142.655 36.9027 142.287 36.7329 142.029 36.4417L134.532 28.007V35.4632C134.532 36.2557 133.885 36.8986 133.092 36.8986H132.203V24.6913H133.925C134.314 24.6913 134.682 24.8571 134.94 25.1482L142.437 33.5425V26.1267C142.437 25.3302 143.084 24.6873 143.872 24.6873H144.786V36.8986H143.048L143.044 36.9027ZM147.908 26.8424V26.1308C147.907 25.9419 147.944 25.7548 148.016 25.5802C148.088 25.4056 148.194 25.2469 148.327 25.1132C148.46 24.9794 148.619 24.8733 148.793 24.801C148.967 24.7286 149.154 24.6913 149.343 24.6913H160.532V25.407C160.532 26.1995 159.885 26.8424 159.092 26.8424H155.405V36.8986H154.475C154.286 36.8992 154.099 36.8624 153.924 36.7905C153.749 36.7186 153.591 36.613 153.457 36.4796C153.323 36.3463 153.217 36.1879 153.145 36.0134C153.072 35.839 153.035 35.652 153.035 35.4632V26.8424H147.908ZM95.3868 25.5687L100.203 36.8986H98.6661C98.384 36.898 98.1082 36.8146 97.8731 36.6586C97.6381 36.5026 97.454 36.2809 97.3439 36.0212L96.4179 33.8215H89.3013L88.3066 36.0495C88.1932 36.303 88.0087 36.5181 87.7754 36.6689C87.5422 36.8196 87.2702 36.8994 86.9925 36.8986H85.3913L90.3567 25.5526C90.4683 25.2968 90.6521 25.0791 90.8855 24.9262C91.1189 24.7732 91.3918 24.6916 91.6708 24.6913H94.0646C94.6428 24.6913 95.1604 25.035 95.3868 25.5687ZM89.8674 32.3537H95.7224L95.407 31.6138L93.5308 27.0001C93.5091 26.9473 93.4721 26.9021 93.4246 26.8704C93.377 26.8387 93.3211 26.822 93.264 26.8222H92.3744C92.3176 26.8211 92.2618 26.8371 92.2142 26.8681C92.1666 26.8991 92.1294 26.9437 92.1075 26.9961L90.3365 31.2539L89.8674 32.3537ZM171.215 25.5687L176.026 36.8986H174.49C174.208 36.898 173.932 36.8146 173.697 36.6586C173.462 36.5026 173.278 36.2809 173.168 36.0212L172.242 33.8215H165.125L164.126 36.0495C164.013 36.3024 163.829 36.5171 163.597 36.6677C163.364 36.8184 163.093 36.8986 162.816 36.8986H161.211L166.18 25.5526C166.292 25.2968 166.476 25.0791 166.709 24.9262C166.943 24.7732 167.216 24.6916 167.495 24.6913H169.888C170.463 24.6913 170.984 25.035 171.211 25.5687H171.215ZM165.691 32.3537H171.542L171.231 31.6138L169.355 27.0001C169.333 26.9473 169.296 26.9021 169.248 26.8704C169.201 26.8387 169.145 26.822 169.088 26.8222H168.198C168.141 26.8211 168.086 26.8371 168.038 26.8681C167.99 26.8991 167.953 26.9437 167.931 26.9961L166.156 31.2539L165.691 32.3537Z" fill="#6A47DC"/>
</g>
<defs>
<clipPath id="clip0_2309_51919">
<rect width="175.488" height="55.396" fill="white" transform="translate(0.53833 0.16748)"/>
</clipPath>
</defs>
</svg>
