<svg width="194" height="32" viewBox="0 0 194 32" fill="none" xmlns="http://www.w3.org/2000/svg">
<path fill-rule="evenodd" clip-rule="evenodd" d="M35.3156 1.20035C32.7627 1.20035 29.9963 9.47806 26.0645 18.2595C23.4433 24.0227 21.3259 29.5512 20.4977 31.2246C19.5115 31.1307 18.5254 31.0283 17.4837 31.0283C16.3012 31.0283 15.076 31.135 13.8379 31.2246C13.0994 29.1584 10.888 22.9854 8.37353 16.7739C5.35957 9.38841 2.69995 1.29427 0.240967 1.20462V0.756363C2.75544 0.86309 5.21442 0.952743 7.67767 0.952743C9.4536 0.952743 11.2295 0.858821 12.9542 0.756363V1.20462C12.3096 1.40099 11.6266 1.44368 11.6266 2.98055C11.6266 6.8782 19.17 24.027 19.947 26.3451C21.0398 23.6343 27.2897 9.48233 27.2897 3.46722C27.2897 1.79375 26.6067 1.40099 25.565 1.20462V0.756363C27.2385 0.86309 28.976 0.952743 30.6836 0.952743C32.212 0.952743 33.7915 0.858821 35.3156 0.756363V1.20462V1.20035ZM63.2608 23.7325C62.074 26.4433 61.1946 28.5095 60.7079 31.6686C60.2597 31.3271 58.7356 31.182 56.9554 31.1307C55.1795 31.024 53.1645 31.024 51.5337 31.024H45.7278C41.7789 31.024 38.6198 31.182 38.1332 31.2204V30.7849C40.5409 30.7849 40.5409 26.5842 40.5409 15.9926C40.5409 4.60706 40.5025 1.44795 38.1332 1.20035V0.752096C39.1748 0.752096 40.3958 0.803325 41.8857 0.858823C43.414 0.910052 45.1771 0.952743 47.2946 0.952743H51.5337C56.1657 0.952743 59.6151 0.80759 61.6813 0.320917C61.3398 1.69129 60.8531 3.71482 60.8531 6.96785V7.954H59.8114C59.8114 3.42453 56.0717 2.72867 50.9916 2.72867C49.9499 2.72867 49.0193 2.8354 48.2295 3.03177C47.8495 6.17807 47.8495 12.7439 47.8495 13.9691C48.4814 14.0203 49.2199 14.1143 50.6543 14.1143C56.0248 14.1143 56.6694 12.9445 56.8658 10.5197H57.8904C57.694 12.3896 57.5488 14.2722 57.5488 16.1933C57.5488 19.4463 57.5488 17.4185 57.6001 19.9842H56.5072C56.5072 17.3801 55.4826 15.9414 50.65 15.9414C49.4675 15.9414 48.4771 15.9414 47.8453 15.9926C47.8453 17.5722 47.8453 25.3504 47.9904 28.6163C49.0705 28.6675 50.1506 28.8126 51.2819 28.8126C59.1284 28.8126 60.7464 26.3366 62.3771 23.2842L63.2608 23.7325ZM67.4744 30.7892C69.8822 30.738 69.8822 26.4476 69.8822 15.9969C69.8822 5.54625 69.8822 1.30707 67.4744 1.20462V0.76917C68.4093 0.807591 69.4894 0.863088 70.5268 0.914316C71.5684 0.914316 72.593 0.96555 73.3828 0.96555C74.8556 0.96555 76.5803 0.807593 78.5569 0.611217C80.478 0.466069 82.6509 0.320917 84.8623 0.320917C86.2455 0.320917 94.2713 0.320918 94.2713 7.61247C94.2713 13.4312 88.4142 15.4035 85.6521 15.8902C86.6937 17.077 89.601 21.5125 92.7985 25.5639C95.6033 29.1029 96.8925 30.6825 98.2757 30.7892V31.2246C97.7762 31.1862 97.1316 31.1307 96.551 31.0795C95.9064 31.0283 95.2617 31.0283 94.6299 31.0283C92.6021 31.0283 90.4847 31.135 88.4697 31.4253C87.8763 30.4904 86.0064 27.3441 83.731 23.9374C81.6135 20.7783 79.9401 17.632 78.019 17.632C77.3359 17.632 77.7287 17.632 77.178 17.7259C77.178 25.9139 77.178 30.7977 79.6925 30.7977V31.2332C77.733 31.088 75.5088 31.0368 73.5834 31.0368C71.5172 31.0368 69.3997 31.088 67.4744 31.2332V30.7977V30.7892ZM78.6081 15.903C82.9924 15.903 86.3864 14.8784 86.3864 9.49086C86.3864 5.00408 83.7267 2.54083 80.5804 2.54083C79.4875 2.54083 78.4075 2.73721 77.3701 2.93785C77.1737 6.48971 77.1737 14.3234 77.1737 15.8646C77.5665 15.8646 77.8184 15.903 78.6081 15.903ZM125.218 7.62528V8.95296H126.545V8.01803C126.545 3.81728 127.045 1.75105 127.335 0.31665C125.269 0.713673 121.175 0.764903 115.267 0.764903H109.896C107.723 0.764903 105.119 0.764903 102.997 0.670983C100.88 0.619755 99.2448 0.525834 98.9545 0.31665C98.9545 3.52698 98.3611 6.63486 97.7164 8.80781L98.9545 9.09811C99.693 5.84509 101.614 3.24096 107.377 3.24096C107.864 3.24096 108.312 3.27938 108.799 3.33488C109.051 4.57291 109.051 9.54636 109.051 16.0097C109.051 26.4604 109.051 30.7508 106.536 30.7892V31.2375C108.457 31.0923 110.579 31.0411 112.645 31.0411C114.712 31.0411 116.846 31.0923 118.767 31.2375V30.7892C116.253 30.7508 116.253 26.4604 116.253 16.0097C116.253 9.54636 116.253 4.57291 116.505 3.33488C116.991 3.28365 117.44 3.24096 117.926 3.24096C123.245 3.24096 125.218 4.17588 125.218 7.62528ZM155.964 23.7495C154.781 26.4604 153.897 28.5266 153.398 31.6857C152.962 31.3442 151.438 31.199 149.658 31.1478C147.882 31.0411 145.867 31.0411 144.236 31.0411H138.418C134.482 31.0411 131.322 31.199 130.836 31.2375V30.802C133.244 30.802 133.244 26.6013 133.244 16.0055C133.244 4.61986 133.205 1.46076 130.836 1.21316V0.764903C131.86 0.764903 133.098 0.816132 134.576 0.87163C136.104 0.922858 137.88 0.96555 139.997 0.96555H144.236C148.868 0.96555 152.318 0.820397 154.384 0.333724C154.042 1.70409 153.556 3.72763 153.556 6.98066V7.96681H152.514C152.514 3.43733 148.774 2.74147 143.694 2.74147C142.653 2.74147 141.722 2.8482 140.932 3.04458C140.539 6.19088 140.539 12.7567 140.539 13.9819C141.184 14.0331 141.923 14.1271 143.357 14.1271C148.727 14.1271 149.359 12.9573 149.568 10.5325H150.593C150.397 12.4024 150.252 14.285 150.252 16.2061C150.252 19.4591 150.252 17.4313 150.303 19.997H149.21C149.21 17.3929 148.181 15.9542 143.353 15.9542C142.166 15.9542 141.18 15.9542 140.535 16.0055C140.535 17.585 140.535 25.3632 140.693 28.6291C141.773 28.6675 142.853 28.8254 143.985 28.8254C151.831 28.8254 153.449 26.3494 155.08 23.297L155.964 23.7453V23.7495ZM157.688 30.8063C158.674 30.8063 159.016 30.4135 159.806 29.7134C161.385 28.2918 171.678 17.2862 171.874 17.0898C170.939 15.9585 167.097 10.9295 162.41 4.91443C159.699 1.46503 159.503 1.55895 158.171 1.21742V0.781976C160.685 0.875896 163.2 0.96555 165.714 0.96555C167.831 0.96555 170.098 0.871627 172.177 0.781976V1.21742C171.571 1.32415 170.888 1.4693 170.888 2.20357C170.888 4.2698 176.259 10.8399 177.3 12.2615C178.722 10.588 183.354 4.18015 183.354 2.65183C183.354 1.32415 182.47 1.32415 181.736 1.21742V0.781976C183.499 0.820398 185.275 0.96555 187.106 0.96555C188.724 0.96555 190.449 0.871627 192.029 0.781976V1.21742C191.542 1.26865 190.948 1.46929 190.253 1.75532C189.07 2.2548 182.62 9.99461 178.577 13.7855C179.563 14.9681 184.541 21.2351 189.621 27.3014C192.28 30.4989 192.571 30.6569 193.804 30.802V31.2503C191.145 31.0411 188.434 31.0411 185.774 31.0411C183.747 31.0411 181.68 31.1478 179.653 31.2503V30.802C180.348 30.802 180.942 30.6953 180.942 29.8671C180.942 28.2875 174.244 20.4965 173.057 18.6138C171.78 20.1934 166.448 26.9983 166.448 29.6707C166.448 30.802 167.434 30.802 168.079 30.802V31.2503C166.393 31.1435 164.775 31.0411 163.106 31.0411C161.274 31.0411 159.46 31.1478 157.684 31.2503V30.802L157.688 30.8063Z" fill="#6A47DC"/>
</svg>
