<svg width="237" height="67" viewBox="0 0 237 67" fill="none" xmlns="http://www.w3.org/2000/svg">
<g clip-path="url(#clip0_2309_51923)">
<path d="M164.081 39.3835C164.081 42.8591 163.201 46.586 159.37 46.586C155.538 46.586 154.659 42.8382 154.659 39.3835C154.659 35.9289 155.538 32.223 159.37 32.223C163.201 32.223 164.081 35.9708 164.081 39.3835ZM144.274 53.914L154.638 53.914L154.638 50.7315L154.743 50.7315C156.103 52.574 157.737 54.6468 162.992 54.6468C170.969 54.6468 174.821 46.5441 174.821 39.2788C174.821 32.4533 172.267 24.1831 162.824 24.1831C159.621 24.1831 156.753 25.6278 155.119 28.0983L155.015 28.0983L155.015 14.0076L144.274 14.0076L144.274 53.9349L144.274 53.914Z" fill="#6A47DC"/>
<path d="M206.562 39.3836C206.562 31.3227 201.789 24.1831 191.215 24.1831C180.642 24.1831 175.868 31.3437 175.868 39.3836C175.868 47.4235 180.642 54.6468 191.215 54.6468C201.789 54.6468 206.562 47.4444 206.562 39.3836ZM195.821 39.3836C195.821 42.4613 195.277 46.586 191.215 46.586C187.153 46.586 186.609 42.4404 186.609 39.3836C186.609 36.3267 187.153 32.223 191.215 32.223C195.277 32.223 195.821 36.3058 195.821 39.3836Z" fill="#6A47DC"/>
<path d="M96.6001 53.9132L107.341 53.9132L107.341 38.2103C107.341 35.1953 108.262 33.0178 110.984 33.0178C114.25 33.0178 114.522 35.4675 114.522 38.2103L114.522 53.9132L125.263 53.9132L125.263 38.2103C125.263 35.1953 126.184 33.0178 128.906 33.0178C132.173 33.0178 132.424 35.4675 132.424 38.2103L132.424 53.9132L143.165 53.9132L143.165 34.0019C143.165 29.3119 140.715 24.1614 133.512 24.1614C126.31 24.1614 124.342 28.3488 123.902 28.6838C122.604 25.7735 119.338 24.1614 116.302 24.1614C112.387 24.1614 109.246 25.3967 107.09 28.7466L106.985 28.7466L106.985 24.8942L96.621 24.8942L96.621 53.9132L96.6001 53.9132Z" fill="#6A47DC"/>
<path d="M207.587 53.9137L218.328 53.9137L218.328 38.5876C218.328 33.9395 220.777 32.9973 222.62 32.9973C225.76 32.9973 226.137 35.3423 226.137 38.6923L226.137 53.8927L236.878 53.8927L236.878 33.9814C236.878 27.3233 232.272 24.1409 227.226 24.1409C222.934 24.1409 220.066 25.6484 218.056 28.5586L217.951 28.5586L217.951 24.8737L207.587 24.8737L207.587 53.8927L207.587 53.9137Z" fill="#6A47DC"/>
<path d="M55.4155 59.3998C56.0436 59.3998 56.4414 59.8394 56.4414 60.3419C56.4414 60.8863 56.0227 61.326 55.4155 61.326C54.8711 61.326 54.4733 60.9072 54.4733 60.3419C54.4733 59.7976 54.892 59.3998 55.4155 59.3998ZM58.2211 57.6201C57.9908 56.2173 57.0905 55.6101 55.583 55.6101C53.4474 55.6101 52.4424 57.2851 52.4424 59.5463C52.4424 61.305 53.3008 62.9591 55.4155 62.9591C57.0905 62.9591 58.2839 62.0797 58.2839 60.3001C58.2839 58.8973 57.2998 57.997 55.9389 57.997C55.3108 57.997 54.7874 58.1226 54.3267 58.5623C54.3896 57.8504 54.7874 57.0757 55.5411 57.0757C55.7714 57.0757 55.9389 57.0967 56.0855 57.2013C56.232 57.306 56.3367 57.4526 56.3786 57.5991L58.2211 57.5991L58.2211 57.6201Z" fill="#6A47DC"/>
<path d="M47.3125 59.2951C47.3125 58.5204 47.3544 57.2013 48.3803 57.2013C49.4062 57.2013 49.4272 58.5623 49.4272 59.2951C49.4272 60.0279 49.3853 61.3888 48.3594 61.3888C47.3335 61.3888 47.3125 60.0488 47.3125 59.2951ZM45.4072 59.2951C45.4072 62.0797 47.1241 62.98 48.3803 62.98C49.6366 62.98 51.3534 62.0797 51.3534 59.2951C51.3534 56.5104 49.6366 55.6101 48.3803 55.6101C47.1241 55.6101 45.4072 56.5104 45.4072 59.2951Z" fill="#6A47DC"/>
<path d="M34.9373 62.897L37.031 62.897L37.031 55.6946L35.377 55.6946C35.3142 56.888 34.3092 57.2858 33.3042 57.2649L33.3042 58.7514L34.9373 58.7514L34.9373 62.897Z" fill="#6A47DC"/>
<path d="M41.2809 57.2441C41.8253 57.2441 42.265 57.6838 42.265 58.2491C42.265 58.8144 41.8044 59.2122 41.26 59.2122C40.7156 59.2122 40.255 58.7935 40.255 58.2282C40.255 57.6629 40.7366 57.2441 41.2809 57.2441ZM38.4753 60.9919C38.6847 62.4156 39.8153 62.96 41.1134 62.96C43.249 62.96 44.2959 61.306 44.2959 59.0238C44.2959 57.2232 43.3956 55.5901 41.3438 55.5901C39.7525 55.5901 38.3916 56.5323 38.3916 58.2701C38.3916 59.7566 39.3966 60.5522 40.7575 60.5522C41.3438 60.5522 41.8881 60.3847 42.3278 59.9869L42.3487 59.9869C42.2441 60.5941 41.9928 61.4525 41.0925 61.4525C40.9459 61.4525 40.7784 61.4525 40.611 61.3478C40.4644 61.2641 40.3388 61.1175 40.2969 60.971L38.4544 60.971L38.4753 60.9919Z" fill="#6A47DC"/>
<path d="M33.2425 54.647L33.2425 44.974L51.3532 24.7905L34.2684 24.7905L34.2684 14.5103L62.2406 14.5103L62.2406 8.85724C62.2406 5.73759 59.77 3.20418 56.755 3.20418L8.80869 3.20418C5.77279 3.20418 3.32313 5.73759 3.32313 8.85724L3.32313 58.2483C3.32313 61.3888 5.77279 63.9013 8.80869 63.9013L56.755 63.9013C59.7909 63.9013 62.2406 61.3679 62.2406 58.2483L62.2406 54.647L33.2425 54.647ZM84.0782 43.5712L84.0782 40.8913C82.78 41.5612 81.3144 41.9591 79.8488 42.2941C77.462 42.8594 76.2057 43.4665 76.2057 45.4346C76.2057 46.7746 77.6085 48.1146 79.5766 48.1146C82.0054 48.1146 83.9107 46.6071 84.0782 43.5922M94.3793 35.5313L94.3793 47.4446C94.3793 49.6221 94.484 52.0927 95.6774 53.9352L84.7063 53.9352C84.4341 53.1396 84.2666 51.988 84.3294 51.1924L84.2247 51.1924C81.9635 53.8724 78.6763 54.647 75.2217 54.668L65.2346 54.668L65.2346 59.2951C65.2346 63.5663 61.8847 67.021 57.7391 67.021L7.82464 67.021C3.67906 67.021 0.329101 63.5663 0.329101 59.2951L0.329102 7.83132C0.329102 3.56012 3.67906 0.105469 7.82464 0.105469L57.76 0.105469C61.9056 0.105469 65.2556 3.56012 65.2556 7.83132L65.2556 25.7327L48.9036 44.3878L65.3393 44.3878C66.428 36.7457 75.9754 36.9969 81.126 35.9919C82.5916 35.7198 84.0572 35.2591 84.0572 33.4167C84.0572 31.4486 82.2776 30.7367 80.5398 30.7367C77.2317 30.7367 76.5826 32.4745 76.5198 33.7098L66.5327 33.7098C66.8677 25.5442 74.3423 24.2043 81.0213 24.2043C94.484 24.2043 94.3584 29.962 94.3584 35.5523" fill="#6A47DC"/>
<path d="M34.9373 62.897L37.031 62.897L37.031 55.6946L35.377 55.6946C35.3142 56.888 34.3092 57.2858 33.3042 57.2649L33.3042 58.7514L34.9373 58.7514L34.9373 62.897Z" fill="#6A47DC"/>
<path d="M41.2809 57.2441C41.8253 57.2441 42.265 57.6838 42.265 58.2491C42.265 58.8144 41.8044 59.2122 41.26 59.2122C40.7156 59.2122 40.255 58.7935 40.255 58.2282C40.255 57.6629 40.7366 57.2441 41.2809 57.2441ZM38.4753 60.9919C38.6847 62.4156 39.8153 62.96 41.1134 62.96C43.249 62.96 44.2959 61.306 44.2959 59.0238C44.2959 57.2232 43.3956 55.5901 41.3438 55.5901C39.7525 55.5901 38.3916 56.5323 38.3916 58.2701C38.3916 59.7566 39.3966 60.5522 40.7575 60.5522C41.3438 60.5522 41.8881 60.3847 42.3278 59.9869L42.3487 59.9869C42.2441 60.5941 41.9928 61.4525 41.0925 61.4525C40.9459 61.4525 40.7784 61.4525 40.611 61.3478C40.4644 61.2641 40.3388 61.1175 40.2969 60.971L38.4544 60.971L38.4753 60.9919Z" fill="#6A47DC"/>
<path d="M47.3125 59.2951C47.3125 58.5204 47.3544 57.2013 48.3803 57.2013C49.4062 57.2013 49.4272 58.5623 49.4272 59.2951C49.4272 60.0279 49.3853 61.3888 48.3594 61.3888C47.3335 61.3888 47.3125 60.0488 47.3125 59.2951ZM45.4072 59.2951C45.4072 62.0797 47.1241 62.98 48.3803 62.98C49.6366 62.98 51.3534 62.0797 51.3534 59.2951C51.3534 56.5104 49.6366 55.6101 48.3803 55.6101C47.1241 55.6101 45.4072 56.5104 45.4072 59.2951Z" fill="#6A47DC"/>
<path d="M55.4155 59.3998C56.0436 59.3998 56.4414 59.8394 56.4414 60.3419C56.4414 60.8863 56.0227 61.326 55.4155 61.326C54.8711 61.326 54.4733 60.9072 54.4733 60.3419C54.4733 59.7976 54.892 59.3998 55.4155 59.3998ZM58.2211 57.6201C57.9908 56.2173 57.0905 55.6101 55.583 55.6101C53.4474 55.6101 52.4424 57.2851 52.4424 59.5463C52.4424 61.305 53.3008 62.9591 55.4155 62.9591C57.0905 62.9591 58.2839 62.0797 58.2839 60.3001C58.2839 58.8973 57.2998 57.997 55.9389 57.997C55.3108 57.997 54.7874 58.1226 54.3267 58.5623C54.3896 57.8504 54.7874 57.0757 55.5411 57.0757C55.7714 57.0757 55.9389 57.0967 56.0855 57.2013C56.232 57.306 56.3367 57.4526 56.3786 57.5991L58.2211 57.5991L58.2211 57.6201Z" fill="#6A47DC"/>
</g>
<defs>
<clipPath id="clip0_2309_51923">
<rect width="236.549" height="66.8946" fill="white" transform="translate(0.330078 0.10498)"/>
</clipPath>
</defs>
</svg>
