<svg width="728" height="727" fill="none" xmlns="http://www.w3.org/2000/svg"><path d="m558.816 9.738 99.951-.386c33.227-.129 60.232 26.772 60.232 60v98.095M558.816 717.264l99.951.386c33.227.129 60.232-26.772 60.232-59.999v-98.096M169.183 717.264l-99.951.386C36.004 717.779 9 690.878 9 657.651v-98.096M169.183 9.738l-99.951-.386C36.004 9.223 9 36.124 9 69.352v98.095" stroke="#fff" stroke-opacity=".2" stroke-width="17" stroke-linecap="round"/><path fill-rule="evenodd" clip-rule="evenodd" d="M363.835 125.055c51.981 0 94.51 42.356 94.51 94.115v35.176H269.324V219.17c0-51.764 42.529-94.115 94.511-94.115Z" fill="#fff" fill-opacity=".2"/><path d="M363.835 125.555c51.707 0 94.01 42.134 94.01 93.615v34.676H269.824V219.17c0-51.486 42.303-93.615 94.011-93.615Z" stroke="#fff" stroke-opacity=".2"/><path fill-rule="evenodd" clip-rule="evenodd" d="M458.345 475.311v35.176c0 51.758-42.529 94.115-94.51 94.115-51.982 0-94.511-42.351-94.511-94.115v-35.176h189.021Z" fill="#fff" fill-opacity=".2"/><path d="M457.845 475.811v34.676c0 51.48-42.303 93.615-94.01 93.615-51.708 0-94.011-42.129-94.011-93.615v-34.676h188.021Z" stroke="#fff" stroke-opacity=".2"/><path fill-rule="evenodd" clip-rule="evenodd" d="M104.753 364.809c0-51.774 42.351-94.133 94.115-94.133h156.906v188.266H198.868c-51.764 0-94.115-42.359-94.115-94.133Z" fill="#fff" fill-opacity=".2"/><path d="M105.253 364.809c0-51.498 42.127-93.633 93.615-93.633h156.406v187.266H198.868c-51.488 0-93.615-42.135-93.615-93.633Z" stroke="#fff" stroke-opacity=".2"/><path fill-rule="evenodd" clip-rule="evenodd" d="M623.081 364.809c0-51.774-42.351-94.133-94.115-94.133H372.06v188.266h156.906c51.764 0 94.115-42.359 94.115-94.133Z" fill="#fff" fill-opacity=".2"/><path d="M622.581 364.809c0-51.498-42.127-93.633-93.615-93.633H372.56v187.266h156.406c51.488 0 93.615-42.135 93.615-93.633Z" stroke="#fff" stroke-opacity=".2"/></svg>