<svg width="35" height="34" fill="none" xmlns="http://www.w3.org/2000/svg"><rect x=".543" y=".043" width="33.913" height="33.913" rx="16.956" fill="#D9D9D9"/><rect x=".543" y=".043" width="33.913" height="33.913" rx="16.956" fill="url(#a)"/><path d="m17.27 11.674.409-.69a.93.93 0 0 1 1.254-.33c.44.246.59.796.337 1.227l-3.931 6.656h2.843c.922 0 1.439 1.06 1.038 1.794h-8.336a.904.904 0 0 1-.917-.897c0-.498.408-.897.916-.897h2.338l2.992-5.072-.935-1.586a.888.888 0 0 1 .338-1.227.93.93 0 0 1 1.254.33l.4.692Zm-3.535 9.58-.882 1.496a.93.93 0 0 1-1.254.33.887.887 0 0 1-.338-1.227l.655-1.108c.74-.225 1.342-.052 1.819.51Zm7.59-2.712h2.386c.509 0 .917.4.917.897a.904.904 0 0 1-.917.897h-1.325l.894 1.517a.888.888 0 0 1-.337 1.227.93.93 0 0 1-1.255-.33c-1.506-2.555-2.637-4.466-3.387-5.74-.768-1.296-.22-2.597.322-3.038.602 1.01 1.501 2.535 2.703 4.57Z" fill="#fff"/><defs><linearGradient id="a" x1="17.498" y1=".043" x2="17.498" y2="33.956" gradientUnits="userSpaceOnUse"><stop stop-color="#0ED4FC"/><stop offset="1" stop-color="#0C57EF"/></linearGradient></defs></svg>