<svg width="152" height="151" fill="none" xmlns="http://www.w3.org/2000/svg"><g clip-path="url(#a)" fill="#fff"><path d="m140.053 60.344-.754.217-1.46-5.071.754-.217 1.46 5.07Zm.2.697-10.355 2.982-.252-.875 10.356-2.982.251.875Zm-1.751-6.081.25.867-4.862 1.115c-.806.181-1.523.32-2.152.42-.627.103-1.18.155-1.657.154-.474-.003-.88-.068-1.22-.196a1.984 1.984 0 0 1-.845-.581c-.219-.26-.39-.604-.512-1.03l-.086-.3.746-.215.09.26c.09.276.215.502.373.678.16.18.369.31.628.389.265.083.599.118 1.001.105.403-.009.891-.062 1.463-.16.574-.093 1.251-.23 2.032-.408l4.751-1.098ZM131.4 68.595l7.456 1.617.113.947-9.634-2.256a7.2 7.2 0 0 1-.634-.192 2.824 2.824 0 0 1-.682-.336 1.905 1.905 0 0 1-.575-.572c-.163-.234-.266-.532-.309-.894a2.42 2.42 0 0 1-.007-.365c.003-.144.01-.25.022-.316l.741-.096a1.487 1.487 0 0 0-.008.24c.002.103.006.175.011.214.038.319.124.58.258.782.134.207.318.372.551.493.228.121.508.22.84.294l1.857.44Zm6.88-3.175-6.522 3.356-.891.345-.437-.596 7.735-4.06.115.955Zm.746 14.501-8.007-.159.018-.88 8.007.159-.018.88Zm-3.627-.375-.763-.016a6.888 6.888 0 0 1-.295-.79 7.269 7.269 0 0 1-.226-.93 5.307 5.307 0 0 1-.069-.964c.013-.66.12-1.219.322-1.674.201-.45.524-.787.967-1.01.449-.223 1.043-.327 1.783-.312l2.035.04-.017.881-2.035-.04c-.567-.012-1.018.058-1.352.21a1.395 1.395 0 0 0-.71.703c-.144.318-.221.724-.231 1.217.003.341.031.68.083 1.016.058.337.131.65.219.937.093.293.189.537.289.732Zm3.488 3.766-.173.864-7.105-1.423-.7 3.498 7.105 1.423-.175.87-7.105-1.422-.693 3.462 7.105 1.422-.173.864-7.852-1.572 1.914-9.558 7.852 1.572Zm-11.883 13.225a3.56 3.56 0 0 1 .799-1.236 3.449 3.449 0 0 1 1.176-.761c.444-.17.921-.249 1.431-.238.513.017 1.036.13 1.568.341l.296.117a4.825 4.825 0 0 1 1.455.87c.397.353.701.743.914 1.172.212.43.33.868.354 1.318a3.05 3.05 0 0 1-.21 1.318 3.2 3.2 0 0 1-.753 1.159c-.31.302-.668.516-1.073.642a3.302 3.302 0 0 1-1.307.144 4.982 4.982 0 0 1-1.446-.348l-.502-.199 2.228-5.638.702.278-1.904 4.818.096.038c.421.156.845.226 1.271.208.429-.011.82-.127 1.172-.348.353-.222.622-.566.807-1.034.138-.35.191-.7.161-1.051a2.36 2.36 0 0 0-.337-1 3.276 3.276 0 0 0-.78-.866 4.68 4.68 0 0 0-1.174-.655l-.296-.117a3.91 3.91 0 0 0-1.227-.278 3.238 3.238 0 0 0-1.143.153 2.66 2.66 0 0 0-.954.562 2.51 2.51 0 0 0-.636.943c-.174.44-.247.862-.221 1.265.031.405.17.813.416 1.223l-.603.358a3.387 3.387 0 0 1-.422-.866 2.961 2.961 0 0 1-.142-1.051 3.77 3.77 0 0 1 .284-1.241Zm-3.339 6.985c.257-.455.578-.827.961-1.114a3.44 3.44 0 0 1 1.27-.592c.463-.107.946-.12 1.45-.039a4.712 4.712 0 0 1 1.507.554l.277.157c.537.303.977.657 1.321 1.061.344.405.592.834.743 1.288.152.454.208.905.17 1.354a3.054 3.054 0 0 1-.39 1.276c-.25.443-.552.791-.905 1.044a2.654 2.654 0 0 1-1.152.489 3.321 3.321 0 0 1-1.313-.037 4.966 4.966 0 0 1-1.385-.545l-.47-.266 2.983-5.277.657.372-2.549 4.51.09.051a3.27 3.27 0 0 0 1.23.381c.426.048.829-.013 1.209-.184.38-.171.694-.475.941-.913.185-.327.286-.666.304-1.019a2.348 2.348 0 0 0-.196-1.037 3.288 3.288 0 0 0-.653-.965 4.701 4.701 0 0 0-1.072-.81l-.278-.157a3.914 3.914 0 0 0-1.177-.444 3.24 3.24 0 0 0-1.153-.006 2.659 2.659 0 0 0-1.022.426c-.307.212-.56.494-.759.846-.233.412-.365.82-.394 1.223-.025.405.056.828.244 1.268l-.647.272a3.339 3.339 0 0 1-.298-.916 2.934 2.934 0 0 1 .004-1.061c.066-.377.216-.773.452-1.19Zm-2.478 16.924-.571-.516 3.141-3.477.571.516-3.141 3.477Zm3.007-3.329-5.943-5.368.59-.653 5.943 5.368-.59.653Zm-3.493 3.867-5.943-5.368.596-.659 5.942 5.368-.595.659Zm-4.314 1.96-5.997-7.43.691-.557 6.964 8.627-.645.521-1.013-1.161Zm-5.833 1.636-.097-.121a6.144 6.144 0 0 1-.871-1.409 4.064 4.064 0 0 1-.347-1.385 2.675 2.675 0 0 1 .217-1.25c.172-.392.446-.74.822-1.044a3.455 3.455 0 0 1 1.136-.631 2.8 2.8 0 0 1 1.15-.12c.381.048.749.163 1.105.344.356.189.696.434 1.022.736l1.288 1.595c.246.423.427.841.545 1.253.117.413.164.812.14 1.199a2.7 2.7 0 0 1-.323 1.108 3.22 3.22 0 0 1-.829.964 2.852 2.852 0 0 1-1.195.594 2.585 2.585 0 0 1-1.271-.031 3.699 3.699 0 0 1-1.275-.625 6.314 6.314 0 0 1-1.217-1.177Zm.594-.679.097.121c.295.365.606.671.934.92.324.253.655.432.995.538.339.114.678.141 1.018.082.335-.055.663-.211.981-.468.33-.267.568-.55.712-.851.144-.293.219-.592.227-.897.011-.3-.024-.592-.106-.874a4.415 4.415 0 0 0-.307-.78l-1.483-1.838a3.437 3.437 0 0 0-1.006-.528 2.327 2.327 0 0 0-1.124-.073c-.391.074-.782.27-1.173.586-.315.254-.535.539-.66.856a2.08 2.08 0 0 0-.129 1.007c.036.358.143.722.321 1.092a5.4 5.4 0 0 0 .703 1.107Zm-5.028.488-.438 7.858-.768.447-4.027-6.922.768-.447 3.305 5.681.438-7.858.755-.439 4.027 6.922-.755.439-3.305-5.681Zm-5.181 10.635-.291-.751-3.961 1.532.29.752 3.962-1.533Zm.701-.271-3.025-7.822-.86.333 3.025 7.822.86-.333Zm-4.894 1.893.86-.333-1.59-3.598a17.732 17.732 0 0 0-.755-1.52 6.884 6.884 0 0 0-.716-1.077 2.646 2.646 0 0 0-.734-.631 1.676 1.676 0 0 0-.793-.225 2.435 2.435 0 0 0-.902.183l-.325.126.302.78.27-.096c.21-.07.408-.097.592-.079.19.015.372.086.548.212.18.124.36.309.539.556.183.245.373.556.57.935.202.381.42.837.653 1.367l1.481 3.4Zm-5.051-2.983.052.239c.124.569.157 1.112.099 1.63a3.81 3.81 0 0 1-.429 1.404 3.27 3.27 0 0 1-.928 1.059 3.469 3.469 0 0 1-1.367.609 3.476 3.476 0 0 1-1.503.018 3.265 3.265 0 0 1-1.285-.576 3.729 3.729 0 0 1-.982-1.096 4.984 4.984 0 0 1-.59-1.522l-.052-.239a4.982 4.982 0 0 1-.099-1.63c.06-.513.206-.979.437-1.399.227-.418.534-.773.92-1.064a3.533 3.533 0 0 1 1.368-.602 3.553 3.553 0 0 1 1.502-.025 3.35 3.35 0 0 1 1.287.583c.385.284.712.647.98 1.089.269.446.466.954.59 1.522Zm-.808.427-.052-.239a4.335 4.335 0 0 0-.441-1.184 3.404 3.404 0 0 0-.729-.909 2.451 2.451 0 0 0-.976-.514 2.502 2.502 0 0 0-1.19-.005 2.44 2.44 0 0 0-1.066.498c-.29.24-.515.531-.673.874a3.262 3.262 0 0 0-.276 1.129c-.031.41 0 .83.094 1.259l.052.239c.092.424.238.814.437 1.17a3.2 3.2 0 0 0 .729.909c.287.25.613.426.979.528.366.102.76.107 1.185.014a2.424 2.424 0 0 0 1.071-.506c.285-.244.508-.541.67-.889.156-.347.25-.724.283-1.13a4.403 4.403 0 0 0-.097-1.244Zm-11.31 1.5 3.404 4.186-1.065.039-2.761-3.41-1.48.054.053-.802 1.849-.067Zm-.53.108 2.888-3.897 1.124-.041-3.432 4.598-.58-.66Zm-1.717 4.284-.292-8.003.88-.032.292 8.003-.88.032Zm-4.793.174 3.105-4.423 1.834-.067.125.795-1.486.054-2.498 3.602-1.08.039Zm.47-8.03 3.17 3.676-.537.701-3.757-4.337 1.124-.04Zm-5.336-.757a3.55 3.55 0 0 1 1.393.475 3.46 3.46 0 0 1 1.024.956c.272.39.465.833.578 1.331.108.502.124 1.037.05 1.604l-.042.316a4.837 4.837 0 0 1-.491 1.622 3.88 3.88 0 0 1-.916 1.171c-.365.31-.762.531-1.193.664a3.059 3.059 0 0 1-1.33.115 3.18 3.18 0 0 1-1.306-.449 2.658 2.658 0 0 1-.883-.885 3.32 3.32 0 0 1-.457-1.233 4.941 4.941 0 0 1-.013-1.487l.071-.536 6.01.794-.1.748-5.136-.678-.013.103c-.05.446-.014.874.106 1.283.115.413.323.764.623 1.053.3.288.7.465 1.199.531.372.049.724.016 1.058-.099.329-.116.625-.305.89-.569.257-.26.474-.582.65-.967a4.68 4.68 0 0 0 .35-1.297l.042-.316c.058-.44.049-.86-.028-1.258a3.245 3.245 0 0 0-.426-1.072 2.659 2.659 0 0 0-.777-.789 2.514 2.514 0 0 0-1.068-.388 2.917 2.917 0 0 0-1.282.092c-.385.129-.747.362-1.085.701l-.494-.499a3.35 3.35 0 0 1 .739-.619c.282-.181.61-.312.985-.392.373-.08.798-.089 1.272-.026Zm-11.053 2.206.207-.726 4.57 1.304-.208.726-4.569-1.304Zm3.365 4.686 2.199-7.701.847.242-2.199 7.701-.847-.242Zm-5.003-1.428 2.198-7.701.854.244-2.198 7.7-.854-.243Zm-1.59-7.585-6.678 4.163-.808-.371 3.345-7.276.807.371-2.745 5.971 6.68-4.163.793.365-3.345 7.276-.793-.365 2.745-5.971Zm-8.865-6.482c.439.285.79.628 1.053 1.028.26.398.43.833.512 1.304.078.469.06.952-.051 1.45-.12.5-.334.989-.647 1.469l-.173.267a4.832 4.832 0 0 1-1.141 1.253 3.88 3.88 0 0 1-1.331.662 3.345 3.345 0 0 1-1.362.086 3.07 3.07 0 0 1-1.25-.468 3.195 3.195 0 0 1-.986-.968 2.654 2.654 0 0 1-.416-1.18 3.33 3.33 0 0 1 .118-1.309 4.94 4.94 0 0 1 .63-1.348l.294-.453 5.082 3.304-.412.633-4.343-2.824-.057.087a3.25 3.25 0 0 0-.456 1.204c-.075.422-.038.829.108 1.218.147.39.432.722.854.996.314.205.647.327.997.367.347.037.696-.007 1.048-.131a3.28 3.28 0 0 0 1.003-.593 4.68 4.68 0 0 0 .875-1.02l.174-.267a3.91 3.91 0 0 0 .516-1.147c.096-.391.121-.775.077-1.151a2.66 2.66 0 0 0-.36-1.047 2.517 2.517 0 0 0-.798-.81 2.909 2.909 0 0 0-1.196-.468c-.403-.05-.83.004-1.282.164l-.23-.662c.284-.121.595-.201.932-.241a2.945 2.945 0 0 1 1.058.07c.372.089.759.264 1.16.525ZM10.271 92.427l.751-.226 1.52 5.054-.752.226-1.519-5.054Zm-.209-.695 10.321-3.1.262.871-10.32 3.101-.263-.872Zm1.821 6.06-.26-.864 4.85-1.171a34.34 34.34 0 0 1 2.146-.444 10.126 10.126 0 0 1 1.656-.173c.473-.003.88.057 1.222.181.34.12.624.31.852.572.221.257.396.6.524 1.024l.09.298-.745.224-.093-.258a1.85 1.85 0 0 0-.38-.674 1.345 1.345 0 0 0-.633-.382c-.266-.08-.6-.11-1.002-.093-.403.013-.89.072-1.461.176-.573.1-1.248.244-2.027.431l-4.739 1.154Zm6.91-13.916-7.467-1.56-.121-.946 9.65 2.183c.19.045.403.108.637.187.233.075.461.185.684.33.227.14.42.33.58.568.164.233.269.53.315.893.012.093.015.214.01.364-.002.145-.008.25-.02.316l-.74.102a2.711 2.711 0 0 0-.006-.454c-.04-.319-.129-.578-.264-.78a1.423 1.423 0 0 0-.555-.489 3.36 3.36 0 0 0-.843-.287l-1.86-.427Zm-6.855 3.228 6.496-3.406.888-.352.442.593-7.704 4.12-.122-.955Zm-.864-14.473 8.008.1-.011.88-8.008-.1.011-.88Zm3.63.349.762.01c.106.227.207.49.302.787.095.293.172.602.232.929a5.3 5.3 0 0 1 .077.963c-.008.661-.111 1.22-.31 1.676-.197.452-.517.79-.96 1.017-.446.227-1.04.335-1.78.326l-2.035-.025.01-.88 2.036.024c.567.007 1.017-.066 1.35-.22a1.39 1.39 0 0 0 .704-.71c.143-.318.217-.724.223-1.218a6.994 6.994 0 0 0-.091-1.015 7.557 7.557 0 0 0-.225-.935 4.813 4.813 0 0 0-.295-.73Zm-3.582-3.38.164-.865 7.12 1.344.662-3.506-7.12-1.344.164-.873 7.12 1.345.656-3.47-7.12-1.344.163-.865 7.87 1.485-1.81 9.579-7.869-1.486Zm11.756-13.512a3.556 3.556 0 0 1-.785 1.244 3.45 3.45 0 0 1-1.168.774 3.754 3.754 0 0 1-1.429.254 4.679 4.679 0 0 1-1.572-.324l-.297-.114a4.838 4.838 0 0 1-1.464-.854 3.874 3.874 0 0 1-.926-1.162 3.343 3.343 0 0 1-.37-1.314 3.059 3.059 0 0 1 .197-1.32c.181-.475.428-.864.74-1.167a2.653 2.653 0 0 1 1.066-.654c.401-.137.836-.19 1.305-.159.464.03.947.14 1.45.333l.504.193-2.166 5.662-.705-.27 1.851-4.839-.097-.037a3.251 3.251 0 0 0-1.273-.194 2.274 2.274 0 0 0-1.168.361c-.35.226-.615.573-.795 1.043-.134.35-.184.701-.15 1.053.037.346.153.679.348.996.193.312.456.597.79.857.33.254.724.468 1.18.642l.298.114c.415.159.825.247 1.23.265.402.011.783-.044 1.141-.166a2.65 2.65 0 0 0 .948-.572c.272-.255.48-.572.625-.95a2.91 2.91 0 0 0 .208-1.267c-.036-.405-.179-.811-.43-1.219l.6-.365c.178.253.321.54.43.862.112.318.163.667.154 1.05a3.746 3.746 0 0 1-.27 1.244Zm3.272-7.058a3.557 3.557 0 0 1-.95 1.125c-.377.288-.798.49-1.262.606-.462.112-.945.13-1.45.054a4.68 4.68 0 0 1-1.512-.537l-.28-.154a4.835 4.835 0 0 1-1.332-1.047c-.348-.4-.6-.826-.757-1.279a3.344 3.344 0 0 1-.185-1.352 3.06 3.06 0 0 1 .376-1.28c.245-.445.543-.797.894-1.054.346-.26.728-.428 1.146-.501.416-.08.854-.073 1.314.022.456.094.92.27 1.39.53l.473.26-2.925 5.31-.661-.365 2.5-4.538-.09-.05a3.25 3.25 0 0 0-1.235-.367 2.273 2.273 0 0 0-1.207.197c-.378.175-.688.483-.931.923-.181.329-.279.67-.293 1.022a2.38 2.38 0 0 0 .207 1.036c.148.335.37.654.664.957a4.68 4.68 0 0 0 1.081.798l.28.154a3.91 3.91 0 0 0 1.181.432c.397.066.782.064 1.153-.007a2.653 2.653 0 0 0 1.018-.437c.305-.215.555-.5.75-.854a2.92 2.92 0 0 0 .38-1.227c.02-.406-.065-.828-.257-1.266l.643-.28c.142.276.245.58.309.914.066.33.068.683.007 1.06a3.748 3.748 0 0 1-.439 1.196Zm2.077-16.719.577.51-3.101 3.511-.577-.51 3.101-3.51Zm-2.969 3.362 6.002 5.302-.583.66-6.002-5.302.583-.66Zm3.45-3.905 6.002 5.302-.588.665-6.002-5.302.588-.665Zm4.425-2.186 6.08 7.361-.684.566-7.06-8.548.638-.528 1.026 1.149Zm5.814-1.702.099.12c.38.46.676.927.887 1.4.21.471.331.931.362 1.38a2.67 2.67 0 0 1-.203 1.252 2.769 2.769 0 0 1-.81 1.054c-.37.304-.745.52-1.129.644a2.815 2.815 0 0 1-1.148.132 3.322 3.322 0 0 1-1.11-.331 4.875 4.875 0 0 1-1.03-.724l-1.305-1.58a5.48 5.48 0 0 1-.56-1.248 3.565 3.565 0 0 1-.153-1.197 2.72 2.72 0 0 1 .31-1.111c.185-.35.458-.675.819-.974a2.843 2.843 0 0 1 1.188-.607c.416-.1.84-.095 1.27.016.433.104.86.308 1.283.611a6.29 6.29 0 0 1 1.23 1.163Zm-.586.686-.099-.12a5.426 5.426 0 0 0-.943-.91 3.166 3.166 0 0 0-1.002-.527 2.06 2.06 0 0 0-1.018-.07c-.335.059-.66.219-.977.48-.327.27-.56.556-.702.858-.14.295-.212.595-.217.9-.007.3.032.591.117.873.085.281.19.54.315.776l1.504 1.82c.31.23.648.402 1.012.518.361.111.736.131 1.125.06.39-.079.778-.278 1.166-.599.312-.258.529-.545.65-.863a2.08 2.08 0 0 0 .117-1.01c-.04-.357-.15-.72-.332-1.087a5.425 5.425 0 0 0-.716-1.1Zm5.096-.618.377-7.862.764-.452 4.08 6.89-.764.453-3.348-5.655-.378 7.861-.751.445-4.08-6.891.751-.445 3.349 5.656Zm9.136-11.913.289.714-3.76 1.52-.289-.713 3.76-1.521Zm.666-.27 3.004 7.424-.817.33-3.004-7.423.817-.33Zm-4.645 1.88.816-.33 1.243 3.545c.2.574.356 1.09.468 1.551.116.459.185.865.206 1.219a2.54 2.54 0 0 1-.1.918 1.6 1.6 0 0 1-.405.675 2.325 2.325 0 0 1-.748.462l-.308.125-.3-.74.25-.11c.194-.09.349-.2.466-.332a1.04 1.04 0 0 0 .242-.506 2.19 2.19 0 0 0 .012-.739 6.487 6.487 0 0 0-.214-1.023 19.558 19.558 0 0 0-.438-1.38l-1.19-3.335Zm9.046.904-.055-.238a4.981 4.981 0 0 1-.117-1.63c.053-.518.19-.988.412-1.408.227-.422.532-.779.916-1.07a3.46 3.46 0 0 1 1.36-.624 3.48 3.48 0 0 1 1.503-.036c.472.094.903.281 1.291.561.389.28.72.642.995 1.085.274.443.477.948.607 1.516l.055.238c.131.567.17 1.11.118 1.628a3.76 3.76 0 0 1-.421 1.404c-.222.42-.525.779-.907 1.075a3.534 3.534 0 0 1-1.362.617 3.554 3.554 0 0 1-1.502.043 3.355 3.355 0 0 1-1.292-.568 3.76 3.76 0 0 1-.993-1.078 4.984 4.984 0 0 1-.608-1.515Zm.804-.436.054.238c.099.428.25.82.454 1.179.203.353.45.653.74.9.288.243.616.41.981.503.366.093.763.09 1.191-.008a2.443 2.443 0 0 0 1.06-.51c.288-.244.509-.538.662-.882.153-.35.24-.727.264-1.132a4.33 4.33 0 0 0-.108-1.259l-.055-.238a4.226 4.226 0 0 0-.45-1.164 3.18 3.18 0 0 0-.74-.901 2.487 2.487 0 0 0-.985-.517 2.429 2.429 0 0 0-1.185 0 2.43 2.43 0 0 0-1.065.518 2.582 2.582 0 0 0-.66.897 3.397 3.397 0 0 0-.27 1.133c-.023.405.014.82.112 1.243Zm11.393-1.656-3.45-4.148 1.064-.051 2.799 3.379 1.479-.07-.044.802-1.848.088Zm.528-.114-2.843 3.93-1.124.053 3.38-4.637.587.654Zm1.67-4.304.381 8-.88.041-.381-7.999.88-.042Zm4.79-.228-3.055 4.458-1.833.088-.134-.794 1.486-.071 2.457-3.63 1.08-.051Zm-.38 8.035-3.211-3.64.53-.707 3.805 4.294-1.123.053Zm5.104.663a3.557 3.557 0 0 1-1.398-.46 3.451 3.451 0 0 1-1.034-.945 3.753 3.753 0 0 1-.593-1.324 4.679 4.679 0 0 1-.067-1.604l.038-.316a4.833 4.833 0 0 1 .472-1.627 3.89 3.89 0 0 1 .904-1.181c.36-.314.756-.54 1.185-.677a3.059 3.059 0 0 1 1.328-.13c.504.06.942.206 1.312.434.37.224.668.516.893.876.23.356.387.765.47 1.227.084.458.094.953.03 1.487l-.066.537-6.018-.728.09-.749 5.145.622.012-.103a3.25 3.25 0 0 0-.121-1.282c-.12-.412-.33-.76-.634-1.046-.304-.285-.705-.458-1.205-.518a2.284 2.284 0 0 0-1.057.11 2.36 2.36 0 0 0-.883.58 3.282 3.282 0 0 0-.64.973 4.685 4.685 0 0 0-.335 1.302l-.038.316c-.054.44-.04.86.041 1.257.087.393.233.75.438 1.067.21.319.472.58.785.781a2.51 2.51 0 0 0 1.073.376c.47.056.897.021 1.28-.107.384-.132.743-.37 1.078-.712l.5.493a3.378 3.378 0 0 1-.732.627c-.28.185-.608.32-.98.404a3.743 3.743 0 0 1-1.273.04Zm11.138-2.339-.2.727-4.582-1.254.199-.728 4.583 1.254Zm-3.416-4.65-2.114 7.725-.85-.233 2.114-7.724.85.232Zm5.019 1.374-2.115 7.724-.856-.234 2.114-7.725.857.235Zm1.686 7.544 6.633-4.236.811.362-3.265 7.313-.811-.362 2.68-6.002-6.634 4.236-.797-.356 3.265-7.312.797.356-2.68 6.001Zm8.983 6.385a3.557 3.557 0 0 1-1.064-1.017 3.438 3.438 0 0 1-.526-1.298 3.762 3.762 0 0 1 .035-1.45c.113-.502.323-.994.63-1.477l.171-.269c.33-.52.706-.942 1.127-1.265a3.883 3.883 0 0 1 1.324-.677 3.342 3.342 0 0 1 1.361-.1c.453.06.871.211 1.255.454.429.273.761.592.996.957.238.362.381.754.429 1.175.055.42.02.858-.104 1.31-.121.45-.326.901-.614 1.355l-.29.457-5.118-3.249.405-.637 4.374 2.776.056-.087a3.26 3.26 0 0 0 .443-1.21c.07-.423.029-.828-.122-1.216s-.439-.717-.864-.987a2.287 2.287 0 0 0-1.002-.355 2.354 2.354 0 0 0-1.046.142 3.271 3.271 0 0 0-.996.604 4.636 4.636 0 0 0-.864 1.03l-.171.268a3.91 3.91 0 0 0-.504 1.153 3.24 3.24 0 0 0-.064 1.151c.052.378.176.726.372 1.043a2.5 2.5 0 0 0 .807.801c.4.254.8.406 1.201.456.403.046.83-.014 1.279-.179l.239.66a3.387 3.387 0 0 1-.931.251 2.948 2.948 0 0 1-1.059-.058 3.742 3.742 0 0 1-1.165-.512Z"/><circle cx="120.75" cy="39.028" r="1" transform="rotate(-21.145 120.75 39.028)"/><circle cx="27.051" cy="112.795" r="1" transform="rotate(-21.145 27.051 112.795)"/></g><defs><clipPath id="a"><path fill="#fff" d="M0 0h152v151H0z"/></clipPath></defs></svg>