<svg width="145" height="146" fill="none" xmlns="http://www.w3.org/2000/svg"><path d="m132.855 78.69.234-3.025.769.044-.202 2.605c-.041.532 0 .99.124 1.376.124.386.328.686.613.901.29.22.656.348 1.099.382.453.035.834-.032 1.144-.201.315-.169.559-.44.731-.812.172-.373.281-.85.326-1.43l.174-2.258-9.962-.77.07-.908 10.745.83-.245 3.166a6.063 6.063 0 0 1-.276 1.456c-.142.425-.34.78-.595 1.068a2.21 2.21 0 0 1-.931.626c-.362.135-.787.184-1.274.146a2.47 2.47 0 0 1-1.18-.388 2.403 2.403 0 0 1-.806-.901c-.194-.371-.299-.808-.315-1.309l-.243-.598Zm-5.16-.465.251-3.247.739.525-.216 2.782c-.041.53.013.99.161 1.378a2 2 0 0 0 .708.93c.319.228.709.36 1.172.396.408.031.781-.03 1.12-.181.338-.152.615-.403.83-.753.22-.349.352-.804.395-1.365l.146-1.881.766.074-.206 2.664-.286.141a2.638 2.638 0 0 1-.547 1.227 2.616 2.616 0 0 1-2.273.975c-.649-.05-1.189-.238-1.619-.563a2.741 2.741 0 0 1-.933-1.282c-.192-.53-.261-1.136-.208-1.82Zm7.102 7.605-3.637 1.38 2.664 2.84-.236 1.023-3.212-3.528-4.616 1.837.233-1.01 3.809-1.468-2.783-2.981.232-1.01 3.346 3.673 4.433-1.766-.233 1.01Zm-5.595 5.717.228.086a4.99 4.99 0 0 1 1.419.808c.402.332.716.707.943 1.126.224.423.351.875.38 1.355.033.483-.046.975-.237 1.478a3.47 3.47 0 0 1-.806 1.27 3.27 3.27 0 0 1-1.184.761 3.743 3.743 0 0 1-1.454.224 4.98 4.98 0 0 1-1.598-.337l-.228-.087a4.983 4.983 0 0 1-1.42-.807 3.749 3.749 0 0 1-.932-1.13 3.269 3.269 0 0 1-.39-1.351 3.53 3.53 0 0 1 .243-1.476c.193-.507.459-.931.799-1.272a3.356 3.356 0 0 1 1.191-.759 3.762 3.762 0 0 1 1.448-.227 4.999 4.999 0 0 1 1.598.338Zm-.085.91-.228-.087a4.33 4.33 0 0 0-1.232-.278 3.39 3.39 0 0 0-1.16.115 2.448 2.448 0 0 0-.964.536 2.51 2.51 0 0 0-.654.995 2.445 2.445 0 0 0-.165 1.164c.042.375.164.722.365 1.041.205.321.47.604.794.848.327.25.696.454 1.107.61l.228.087a4.23 4.23 0 0 0 1.219.272 3.18 3.18 0 0 0 1.159-.114c.367-.104.693-.28.978-.531a2.44 2.44 0 0 0 .659-.985c.154-.406.207-.798.16-1.174a2.584 2.584 0 0 0-.379-1.047 3.385 3.385 0 0 0-.791-.854 4.421 4.421 0 0 0-1.096-.598Zm-.465 11.018-.436.765-2.441-1.547c-.651-.412-1.189-.818-1.613-1.22a6.756 6.756 0 0 1-1.008-1.146 4.76 4.76 0 0 1-.545-1.061 4.774 4.774 0 0 1-.232-.951l.238-.418.649.387-.104.197c.079.21.175.435.288.675.114.247.275.513.483.796.207.283.493.589.857.916.365.327.84.679 1.427 1.054l2.437 1.553Zm-.143.251-2.198 3.85-6.955-3.971.437-.765 6.235 3.56 1.761-3.085.72.411Zm-5.063-5.747-3.842 6.73-2.706-1.545.44-.772 2.044 1.168 2.984-5.226-2.044-1.167.418-.733 2.706 1.545Zm-5.193 9.793 2.443 7.482-.554.694-6.264-4.989.554-.695 5.14 4.095-2.443-7.482.545-.683 6.264 4.99-.545.683-5.14-4.095Zm-2.353 12.499-5.517-5.805.638-.606 5.517 5.805-.638.606Zm-2.114 2.009-.52-.547 4.791-4.553.52.547-4.791 4.553Zm-7.757 3.898-4.917-8.185.762-.457 5.709 9.504-.711.427-.843-1.289Zm-6.002.817-.08-.134a6.116 6.116 0 0 1-.669-1.515 4.067 4.067 0 0 1-.153-1.419c.034-.441.164-.844.388-1.208.224-.365.543-.672.958-.921.41-.247.814-.403 1.212-.469a2.817 2.817 0 0 1 1.155.04c.37.099.72.264 1.047.493.326.236.63.526.911.869l1.056 1.757c.185.453.308.892.367 1.317.06.424.051.827-.026 1.207a2.713 2.713 0 0 1-.473 1.052c-.234.319-.552.6-.954.841a2.832 2.832 0 0 1-1.265.423 2.57 2.57 0 0 1-1.255-.205 3.7 3.7 0 0 1-1.177-.795 6.279 6.279 0 0 1-1.042-1.333Zm.681-.591.08.133c.241.402.507.749.798 1.041.286.294.59.517.911.669.32.159.652.233.997.222.34-.009.686-.118 1.037-.329.364-.219.638-.467.822-.744.183-.271.299-.557.349-.857.052-.297.057-.59.014-.881a4.28 4.28 0 0 0-.196-.815l-1.215-2.024a3.459 3.459 0 0 0-.925-.662 2.326 2.326 0 0 0-1.103-.227c-.397.02-.811.159-1.242.418-.347.209-.604.461-.772.757a2.085 2.085 0 0 0-.266.98c-.014.36.042.735.167 1.126.121.394.302.791.544 1.193Zm-7.272-1.052a3.54 3.54 0 0 1 1.444-.286c.475.012.93.117 1.364.316.43.201.82.489 1.167.863.344.38.626.835.845 1.364l.122.294c.236.57.365 1.12.387 1.65a3.872 3.872 0 0 1-.207 1.472c-.16.451-.394.842-.701 1.172-.31.336-.674.591-1.093.765-.47.194-.922.283-1.356.265a2.645 2.645 0 0 1-1.208-.325 3.31 3.31 0 0 1-1.013-.838 4.955 4.955 0 0 1-.755-1.282l-.206-.499 5.6-2.32.289.698-4.787 1.982.04.096c.18.411.426.764.735 1.058.306.3.66.5 1.065.6.404.1.84.053 1.304-.14a2.27 2.27 0 0 0 .867-.615c.227-.265.388-.577.485-.938.094-.354.12-.741.08-1.162a4.678 4.678 0 0 0-.347-1.299l-.121-.294a3.904 3.904 0 0 0-.654-1.075c-.269-.3-.57-.539-.905-.715a2.646 2.646 0 0 0-1.067-.295 2.507 2.507 0 0 0-1.12.199 2.923 2.923 0 0 0-1.063.721c-.27.304-.466.687-.59 1.15l-.677-.185c.062-.303.172-.605.33-.905a2.94 2.94 0 0 1 .657-.833 3.75 3.75 0 0 1 1.089-.659Zm-7.739 2.591a3.558 3.558 0 0 1 1.47-.071c.468.081.903.252 1.304.512.396.262.738.604 1.027 1.025a4.7 4.7 0 0 1 .637 1.473l.077.309c.15.598.197 1.161.141 1.689a3.868 3.868 0 0 1-.42 1.425 3.348 3.348 0 0 1-.865 1.057 3.057 3.057 0 0 1-1.194.596 3.188 3.188 0 0 1-1.38.064 2.647 2.647 0 0 1-1.147-.498 3.317 3.317 0 0 1-.879-.978 4.947 4.947 0 0 1-.56-1.378l-.13-.524 5.88-1.474.183.732-5.026 1.26.026.1c.118.433.309.818.571 1.154.259.342.581.592.966.75.386.158.823.175 1.31.053.365-.091.68-.252.948-.482a2.33 2.33 0 0 0 .617-.857c.145-.336.228-.715.25-1.138a4.678 4.678 0 0 0-.153-1.335l-.077-.309a3.904 3.904 0 0 0-.489-1.159 3.245 3.245 0 0 0-.79-.84 2.654 2.654 0 0 0-1.013-.448 2.52 2.52 0 0 0-1.136.033 2.91 2.91 0 0 0-1.158.557c-.31.261-.561.612-.751 1.051l-.643-.281c.105-.291.258-.574.459-.848.196-.273.453-.516.771-.728a3.74 3.74 0 0 1 1.174-.492Zm-7.831 2.172a2.655 2.655 0 0 0-1.025.312 2.013 2.013 0 0 0-.747.707 1.865 1.865 0 0 0-.266 1.061l-.84.084a2.5 2.5 0 0 1 .328-1.402c.24-.421.578-.767 1.012-1.039.43-.266.916-.427 1.461-.481.555-.056 1.056-.005 1.504.153a2.99 2.99 0 0 1 1.144.733c.322.335.58.735.776 1.202.191.471.315.987.371 1.547l.031.309a5.51 5.51 0 0 1-.056 1.583 3.788 3.788 0 0 1-.52 1.332c-.249.392-.574.71-.976.953-.402.244-.88.394-1.435.45a3.343 3.343 0 0 1-1.567-.192 2.745 2.745 0 0 1-1.188-.87c-.318-.395-.518-.881-.6-1.457l.839-.085c.068.425.218.782.45 1.071.232.289.521.5.867.634s.72.181 1.123.14c.451-.045.828-.172 1.13-.381.3-.204.537-.469.708-.793.166-.319.276-.678.33-1.075.055-.392.061-.799.02-1.222l-.032-.309a5.518 5.518 0 0 0-.256-1.209 3.27 3.27 0 0 0-.537-.98 2.244 2.244 0 0 0-.853-.636c-.34-.139-.74-.186-1.196-.14Zm-8.712 7.651.309-8.003.88.034-.309 8.003-.88-.034Zm-2.914-.113.03-.754 6.604.255-.03.754-6.604-.255Zm-3.183-1.945 1.682-9.399.874.157-1.952 10.914-.816-.146.212-1.526ZM58 132.375l.028-.153a6.13 6.13 0 0 1 .493-1.581c.224-.466.497-.856.818-1.17a2.684 2.684 0 0 1 1.087-.655 2.775 2.775 0 0 1 1.328-.063c.47.084.878.232 1.221.444.343.212.624.475.844.79.213.319.368.672.464 1.06.09.392.128.81.114 1.254l-.36 2.018a5.473 5.473 0 0 1-.59 1.233 3.554 3.554 0 0 1-.813.892 2.703 2.703 0 0 1-1.05.482 3.21 3.21 0 0 1-1.27.005 2.847 2.847 0 0 1-1.232-.513 2.58 2.58 0 0 1-.81-.98c-.2-.396-.32-.854-.363-1.373a6.284 6.284 0 0 1 .091-1.69Zm.902.003-.027.153a5.45 5.45 0 0 0-.084 1.309c.022.409.104.778.246 1.104.137.33.338.604.605.822.262.217.594.362.998.434.417.075.787.068 1.108-.019.316-.084.592-.223.827-.417a2.75 2.75 0 0 0 .59-.653c.16-.247.29-.495.389-.743l.416-2.324a3.452 3.452 0 0 0-.261-1.107 2.328 2.328 0 0 0-.682-.896c-.312-.247-.716-.414-1.21-.503-.4-.071-.759-.05-1.08.063a2.082 2.082 0 0 0-.845.563 3.26 3.26 0 0 0-.615.958 5.424 5.424 0 0 0-.375 1.256Zm-13.96-.418.294-.711 3.748 1.552 2.77-6.688.814.337-3.065 7.399-4.561-1.889Zm.37-4.331-.122.212c-.29.504-.632.928-1.023 1.272a3.816 3.816 0 0 1-1.262.752 3.28 3.28 0 0 1-1.398.159 3.468 3.468 0 0 1-1.422-.468 3.485 3.485 0 0 1-1.125-.998 3.282 3.282 0 0 1-.564-1.29c-.093-.47-.09-.961.01-1.472a4.99 4.99 0 0 1 .588-1.524l.122-.211a4.98 4.98 0 0 1 1.023-1.273c.39-.34.81-.587 1.264-.741.45-.157.915-.214 1.396-.17.48.048.952.207 1.418.475.47.271.846.601 1.129.992.28.394.466.826.56 1.296.094.47.091.958-.007 1.465a4.982 4.982 0 0 1-.587 1.524Zm-.885-.228.121-.212c.22-.38.376-.771.47-1.172a3.39 3.39 0 0 0 .073-1.163 2.446 2.446 0 0 0-.377-1.037 2.502 2.502 0 0 0-.878-.804 2.434 2.434 0 0 0-1.123-.348 2.45 2.45 0 0 0-1.086.194c-.35.152-.67.369-.963.65-.3.283-.56.614-.778.995l-.122.212a4.22 4.22 0 0 0-.463 1.159c-.096.395-.12.782-.072 1.163.044.379.167.729.37 1.05.201.321.49.59.867.807a2.42 2.42 0 0 0 1.133.345c.375.012.74-.058 1.093-.207.35-.152.673-.367.97-.646a4.41 4.41 0 0 0 .765-.986Zm-7.349-8.921a2.664 2.664 0 0 0-.953-.49 2.028 2.028 0 0 0-1.029-.011 1.86 1.86 0 0 0-.928.578l-.662-.524a2.499 2.499 0 0 1 1.21-.779 2.941 2.941 0 0 1 1.45-.043c.494.108.955.331 1.385.671.437.346.762.731.973 1.156.207.422.312.863.313 1.323a3.88 3.88 0 0 1-.28 1.402c-.19.472-.46.929-.809 1.37l-.192.244a5.56 5.56 0 0 1-1.142 1.098 3.791 3.791 0 0 1-1.3.594 2.938 2.938 0 0 1-1.364.007c-.459-.104-.907-.33-1.344-.675a3.34 3.34 0 0 1-.992-1.228 2.746 2.746 0 0 1-.248-1.452c.046-.504.24-.992.582-1.464l.662.523a2.233 2.233 0 0 0-.422 1.082c-.034.37.027.723.182 1.059.155.337.392.631.709.882.356.281.715.452 1.077.511.358.064.712.038 1.06-.076.342-.114.67-.295.986-.542.312-.244.6-.532.863-.865l.193-.244c.266-.337.485-.686.657-1.047a3.27 3.27 0 0 0 .296-1.077 2.238 2.238 0 0 0-.17-1.05c-.149-.338-.403-.649-.763-.933Zm-16.488-6.295.6-.482 2.933 3.654-.6.482-2.933-3.654Zm2.807 3.498 6.246-5.013.551.687-6.245 5.013-.552-.687Zm-3.261-4.064 6.246-5.012.555.692-6.245 5.013-.556-.693Zm1.954-4.304-.211.123a5.001 5.001 0 0 1-1.52.599c-.51.104-1 .113-1.467.027a3.268 3.268 0 0 1-1.294-.554 3.466 3.466 0 0 1-1.003-1.111 3.482 3.482 0 0 1-.483-1.425 3.268 3.268 0 0 1 .15-1.399 3.72 3.72 0 0 1 .738-1.273 4.961 4.961 0 0 1 1.265-1.033l.21-.124a5 5 0 0 1 1.52-.598 3.77 3.77 0 0 1 1.465-.018c.468.087.9.268 1.297.545.392.279.724.65.996 1.115.274.468.437.941.489 1.42a3.36 3.36 0 0 1-.156 1.404 3.767 3.767 0 0 1-.731 1.269 5.01 5.01 0 0 1-1.265 1.033Zm-.657-.637.211-.123c.38-.222.71-.484.99-.786.276-.299.49-.624.638-.974.145-.348.208-.711.187-1.088a2.504 2.504 0 0 0-.364-1.133 2.44 2.44 0 0 0-.803-.859 2.452 2.452 0 0 0-1.04-.369 3.274 3.274 0 0 0-1.158.087c-.4.097-.79.257-1.17.479l-.21.123c-.375.22-.7.479-.977.778-.279.295-.492.62-.639.975-.149.35-.215.715-.199 1.094.016.38.134.757.354 1.131.22.375.49.662.813.862.32.196.671.316 1.053.361.378.042.766.015 1.162-.08a4.379 4.379 0 0 0 1.152-.478Z" fill="#fff"/><circle cx="12.209" cy="87.124" r="1" transform="rotate(-21.145 12.21 87.124)" fill="#fff"/><path d="m11.032 69.31-.133 3.03-.77-.018.115-2.61c.023-.533-.033-.99-.17-1.371-.136-.381-.35-.675-.642-.88-.297-.211-.667-.326-1.111-.346-.454-.02-.832.06-1.137.239-.309.179-.543.458-.703.836-.16.378-.253.858-.279 1.44l-.1 2.262 9.983.44-.04.91-10.766-.475.14-3.172a6.09 6.09 0 0 1 .227-1.464 3.03 3.03 0 0 1 .56-1.087c.244-.295.548-.514.91-.656.357-.147.78-.21 1.268-.189.443.02.84.136 1.192.35a2.4 2.4 0 0 1 .835.873c.207.365.326.797.358 1.298l.263.59Zm5.173.294-.143 3.253-.756-.5.123-2.787c.023-.533-.046-.99-.206-1.373a2.003 2.003 0 0 0-.738-.906c-.327-.217-.721-.336-1.185-.356a2.265 2.265 0 0 0-1.113.217 1.867 1.867 0 0 0-.805.78c-.208.356-.325.815-.35 1.377l-.083 1.886-.768-.049.117-2.67.281-.15c.07-.48.24-.896.507-1.244a2.619 2.619 0 0 1 2.24-1.05c.65.029 1.196.198 1.636.51.436.305.761.722.975 1.25.209.523.298 1.127.268 1.812ZM8.88 62.07l3.592-1.495-2.755-2.753.203-1.031 3.325 3.423 4.554-1.985-.2 1.017-3.76 1.59 2.878 2.89-.2 1.017-3.463-3.563-4.373 1.907.2-1.017Zm5.447-6.055-.231-.08a4.984 4.984 0 0 1-1.443-.765 3.813 3.813 0 0 1-.975-1.097 3.273 3.273 0 0 1-.42-1.343 3.462 3.462 0 0 1 .191-1.484 3.48 3.48 0 0 1 .768-1.293c.33-.35.717-.617 1.16-.797.444-.181.927-.27 1.448-.267a4.97 4.97 0 0 1 1.607.289l.231.08c.55.19 1.031.445 1.443.765.407.318.729.685.966 1.101.239.412.382.858.43 1.34a3.53 3.53 0 0 1-.2 1.481 3.556 3.556 0 0 1-.76 1.295 3.356 3.356 0 0 1-1.168.795 3.76 3.76 0 0 1-1.44.27 4.985 4.985 0 0 1-1.607-.29Zm.057-.912.23.08a4.32 4.32 0 0 0 1.24.24c.408.016.793-.034 1.156-.148.359-.116.675-.305.948-.565.273-.261.48-.599.624-1.014.142-.41.185-.8.13-1.169a2.445 2.445 0 0 0-.396-1.03 3.267 3.267 0 0 0-.82-.823 4.329 4.329 0 0 0-1.123-.577l-.231-.08c-.41-.141-.82-.22-1.226-.236a3.17 3.17 0 0 0-1.156.15 2.487 2.487 0 0 0-.961.56 2.433 2.433 0 0 0-.63 1.004 2.43 2.43 0 0 0-.125 1.178c.06.37.197.715.41 1.035.215.314.487.59.817.83a4.38 4.38 0 0 0 1.113.565Zm.104-10.988.413-.777 2.486 1.472c.664.392 1.214.782 1.65 1.17.434.382.781.754 1.042 1.116a4.633 4.633 0 0 1 .837 1.988l-.225.424-.66-.367.098-.2a9.442 9.442 0 0 0-.308-.666 4.751 4.751 0 0 0-.507-.781 6.205 6.205 0 0 0-.885-.89c-.374-.316-.86-.652-1.458-1.01l-2.483-1.479Zm.135-.254 2.081-3.915 7.072 3.759-.414.778-6.34-3.37-1.667 3.137-.732-.39Zm5.235 5.59 3.637-6.843 2.752 1.463-.417.784-2.079-1.104-2.824 5.313 2.078 1.105-.396.745-2.751-1.463Zm4.759-9.771-2.674-7.402.531-.711 6.416 4.793-.532.711-5.265-3.933 2.674 7.402-.523.7-6.416-4.793.523-.7 5.266 3.934Zm2.013-12.648 5.686 5.64-.62.625-5.686-5.64.62-.625Zm2.053-2.07.537.53-4.655 4.694-.536-.532 4.654-4.693Zm7.592-4.129 5.162 8.032-.747.48-5.994-9.327.697-.448.882 1.263Zm5.975-.998.084.13c.323.503.561 1.001.714 1.495.153.494.219.965.196 1.414a2.674 2.674 0 0 1-.351 1.22 2.767 2.767 0 0 1-.93.949 3.465 3.465 0 0 1-1.197.506c-.395.078-.78.076-1.156-.006a3.323 3.323 0 0 1-1.062-.46 4.877 4.877 0 0 1-.936-.842l-1.108-1.725a5.478 5.478 0 0 1-.407-1.304 3.564 3.564 0 0 1-.011-1.207c.07-.385.216-.74.44-1.067a3.23 3.23 0 0 1 .93-.87c.41-.263.827-.417 1.251-.46.425-.05.845.005 1.26.166.416.155.816.408 1.2.76a6.29 6.29 0 0 1 1.083 1.301Zm-.663.611-.084-.13a5.431 5.431 0 0 0-.829-1.017 3.168 3.168 0 0 0-.931-.642 2.06 2.06 0 0 0-1.003-.19c-.34.018-.682.138-1.027.36-.357.23-.623.485-.799.768a2.15 2.15 0 0 0-.322.868c-.044.297-.04.59.011.88.052.29.125.56.22.81l1.277 1.985c.282.265.597.476.944.634.346.154.715.218 1.11.193.396-.031.806-.183 1.23-.455.34-.219.589-.479.747-.78a2.08 2.08 0 0 0 .237-.988 3.255 3.255 0 0 0-.201-1.12 5.424 5.424 0 0 0-.58-1.176Zm7.294.806a3.557 3.557 0 0 1-1.434.332 3.45 3.45 0 0 1-1.374-.27 3.752 3.752 0 0 1-1.194-.825 4.677 4.677 0 0 1-.89-1.336l-.13-.29a4.834 4.834 0 0 1-.441-1.637 3.855 3.855 0 0 1 .159-1.478c.145-.455.366-.853.662-1.193a3.058 3.058 0 0 1 1.067-.8c.463-.21.912-.313 1.347-.31.433-.001.84.094 1.218.285.382.185.728.453 1.04.805.308.348.574.767.796 1.256l.223.493-5.522 2.5-.312-.687 4.72-2.138-.043-.094a3.251 3.251 0 0 0-.769-1.033 2.275 2.275 0 0 0-1.084-.565c-.408-.086-.84-.026-1.3.182-.34.155-.623.369-.845.643a2.35 2.35 0 0 0-.454.953 3.283 3.283 0 0 0-.042 1.165c.057.413.187.842.388 1.287l.132.29c.183.404.412.755.688 1.053.278.29.587.52.928.685.345.163.703.25 1.076.26.373.01.744-.07 1.112-.236a2.91 2.91 0 0 0 1.04-.755c.259-.313.443-.702.551-1.168l.683.162c-.052.305-.152.61-.3.916a2.946 2.946 0 0 1-.63.854c-.274.265-.63.496-1.066.694Zm7.752-2.887a3.556 3.556 0 0 1-1.467.118 3.45 3.45 0 0 1-1.32-.47 3.751 3.751 0 0 1-1.06-.991 4.675 4.675 0 0 1-.683-1.452l-.087-.306a4.837 4.837 0 0 1-.195-1.684 3.88 3.88 0 0 1 .375-1.439c.211-.43.488-.79.83-1.083.346-.299.737-.51 1.174-.635a3.201 3.201 0 0 1 1.377-.108c.429.063.816.217 1.163.462.35.238.654.555.91.949.254.389.455.842.603 1.36l.148.519-5.83 1.662-.207-.726 4.983-1.42-.029-.1a3.25 3.25 0 0 0-.608-1.135c-.27-.334-.6-.573-.99-.719-.39-.145-.827-.149-1.311-.01-.36.102-.671.273-.932.511a2.354 2.354 0 0 0-.589.876 3.28 3.28 0 0 0-.212 1.146c-.004.417.06.86.194 1.33l.088.306c.121.427.297.808.526 1.143.232.329.504.6.816.814.318.212.66.35 1.027.415a2.49 2.49 0 0 0 1.135-.07 2.91 2.91 0 0 0 1.139-.593c.302-.271.541-.63.717-1.075l.652.261a3.38 3.38 0 0 1-.432.862c-.187.28-.436.53-.748.752a3.747 3.747 0 0 1-1.157.53Zm7.617-2.411c.373-.05.71-.164 1.016-.344.308-.185.55-.428.724-.73.178-.307.256-.663.232-1.068l.837-.11c.042.506-.053.977-.284 1.41a2.932 2.932 0 0 1-.979 1.07 3.35 3.35 0 0 1-1.445.527c-.553.074-1.056.038-1.508-.106a2.978 2.978 0 0 1-1.167-.697 3.884 3.884 0 0 1-.813-1.177 5.587 5.587 0 0 1-.419-1.534l-.04-.309a5.504 5.504 0 0 1 .006-1.583c.083-.504.243-.953.48-1.348.235-.4.55-.727.944-.983.394-.257.868-.421 1.42-.494a3.335 3.335 0 0 1 1.573.143c.485.17.89.447 1.215.832.33.385.544.864.645 1.438l-.836.11a2.241 2.241 0 0 0-.483-1.056 2.039 2.039 0 0 0-.887-.607 2.402 2.402 0 0 0-1.126-.105c-.45.06-.823.199-1.117.417a2.15 2.15 0 0 0-.684.814 3.264 3.264 0 0 0-.297 1.085 5.07 5.07 0 0 0 .02 1.222l.04.308c.057.426.154.826.293 1.2.144.37.333.69.568.963.24.272.53.475.872.61.346.128.746.162 1.2.102Zm7.987-7.94-.045 8.008-.881-.005.045-8.008.88.005Zm2.916.017-.004.755-6.61-.038.005-.755 6.61.038Zm3.409 1.807-1.373 9.449-.878-.128 1.593-10.972.82.12-.162 1.531Zm5.165 3.166-.023.154a6.136 6.136 0 0 1-.441 1.596 4.068 4.068 0 0 1-.78 1.196c-.305.32-.66.55-1.065.69a2.757 2.757 0 0 1-1.324.107 3.466 3.466 0 0 1-1.235-.404 2.81 2.81 0 0 1-.87-.762 3.322 3.322 0 0 1-.498-1.044 4.882 4.882 0 0 1-.156-1.25l.295-2.029a5.48 5.48 0 0 1 .549-1.251 3.53 3.53 0 0 1 .784-.918 2.71 2.71 0 0 1 1.032-.516 3.213 3.213 0 0 1 1.27-.047c.484.07.9.228 1.248.473.354.24.635.558.842.952a3.7 3.7 0 0 1 .408 1.36 6.289 6.289 0 0 1-.037 1.693Zm-.902.026.022-.153c.068-.464.082-.901.041-1.31a3.168 3.168 0 0 0-.282-1.096 2.06 2.06 0 0 0-.631-.803c-.27-.208-.606-.342-1.011-.4-.42-.062-.79-.043-1.108.055a2.15 2.15 0 0 0-.812.443 2.75 2.75 0 0 0-.57.673 4.38 4.38 0 0 0-.363.755l-.34 2.336c.04.385.138.75.297 1.098.16.342.397.633.711.874.32.236.729.39 1.227.462.4.058.759.025 1.076-.098a2.07 2.07 0 0 0 .826-.59c.239-.27.433-.596.583-.978a5.36 5.36 0 0 0 .334-1.268Zm14.374.022-.271.72-3.797-1.427-2.547 6.776-.825-.31 2.819-7.496 4.62 1.737Zm-.439 4.229.115-.216c.273-.514.6-.95.98-1.306.38-.357.791-.622 1.235-.794.448-.17.912-.239 1.392-.207.483.028.962.168 1.437.42.479.255.865.574 1.158.96.295.38.497.803.607 1.27.11.466.123.956.04 1.47a4.98 4.98 0 0 1-.536 1.543l-.114.216a5 5 0 0 1-.98 1.307c-.377.352-.79.613-1.238.783a3.277 3.277 0 0 1-1.39.217 3.535 3.535 0 0 1-1.432-.426 3.552 3.552 0 0 1-1.162-.953 3.357 3.357 0 0 1-.604-1.277 3.758 3.758 0 0 1-.043-1.464 4.981 4.981 0 0 1 .535-1.543Zm.893.198-.115.215c-.206.388-.35.784-.43 1.188-.078.4-.09.788-.032 1.165.059.372.196.713.411 1.023.215.31.517.568.905.775.383.203.761.307 1.134.31.377.004.737-.073 1.079-.232a3.28 3.28 0 0 0 .941-.682 4.39 4.39 0 0 0 .744-1.02l.114-.217c.204-.383.345-.775.424-1.174.082-.398.093-.786.032-1.165a2.488 2.488 0 0 0-.405-1.037 2.433 2.433 0 0 0-.894-.777 2.434 2.434 0 0 0-1.145-.307 2.584 2.584 0 0 0-1.085.245c-.344.164-.66.39-.948.678a4.4 4.4 0 0 0-.73 1.012Zm7.852 8.788c.301.223.624.376.967.46.351.081.694.074 1.029-.021.342-.097.645-.3.91-.607l.678.503a2.5 2.5 0 0 1-1.186.816c-.461.15-.943.18-1.447.088a3.371 3.371 0 0 1-1.405-.627c-.448-.332-.784-.707-1.009-1.125a2.978 2.978 0 0 1-.353-1.313 3.873 3.873 0 0 1 .234-1.41 5.59 5.59 0 0 1 .767-1.395l.185-.25a5.519 5.519 0 0 1 1.107-1.132 3.79 3.79 0 0 1 1.281-.635c.448-.123.902-.14 1.363-.049.462.09.916.301 1.364.633.46.341.803.74 1.03 1.197.23.46.328.94.294 1.443-.031.505-.21 1-.537 1.482l-.678-.503c.236-.36.365-.724.388-1.095a2.032 2.032 0 0 0-.215-1.052 2.396 2.396 0 0 0-.736-.86c-.364-.27-.728-.429-1.092-.477a2.15 2.15 0 0 0-1.058.11c-.338.124-.66.314-.968.572-.304.253-.583.55-.835.891l-.186.25a5.56 5.56 0 0 0-.624 1.066 3.276 3.276 0 0 0-.262 1.087c-.017.362.051.71.203 1.044.158.332.422.635.791.909Zm16.688 5.798-.586.5-3.038-3.567.586-.499 3.038 3.566Zm-2.909-3.414-6.096 5.194-.571-.67 6.096-5.194.571.67Zm3.379 3.966-6.095 5.194-.576-.676 6.095-5.193.576.675Zm-1.821 4.351.207-.13c.493-.31.993-.524 1.5-.644s.996-.144 1.466-.073c.473.077.91.248 1.311.515.404.265.75.625 1.035 1.08.289.46.464.93.526 1.41.066.476.031.944-.107 1.403a3.74 3.74 0 0 1-.699 1.295 4.99 4.99 0 0 1-1.233 1.07l-.207.13a4.98 4.98 0 0 1-1.5.645 3.76 3.76 0 0 1-1.464.062 3.28 3.28 0 0 1-1.313-.505 3.53 3.53 0 0 1-1.029-1.084 3.543 3.543 0 0 1-.532-1.405 3.345 3.345 0 0 1 .113-1.407c.137-.46.368-.89.693-1.291a4.954 4.954 0 0 1 1.233-1.071Zm.675.616-.207.13a4.345 4.345 0 0 0-.966.815 3.38 3.38 0 0 0-.608.994 2.436 2.436 0 0 0-.154 1.092c.032.376.165.75.398 1.122.231.368.507.646.829.834.325.193.675.305 1.051.337.38.03.765-.01 1.155-.122.398-.11.782-.28 1.154-.514l.207-.13c.368-.23.685-.5.953-.807.27-.303.473-.635.608-.993.139-.355.194-.722.167-1.1a2.441 2.441 0 0 0-.388-1.12 2.433 2.433 0 0 0-.84-.837 2.58 2.58 0 0 0-1.063-.33 3.388 3.388 0 0 0-1.159.117 4.39 4.39 0 0 0-1.137.512Z" fill="#fff"/><circle cx="131.309" cy="57.182" r="1" transform="rotate(-21.145 131.309 57.182)" fill="#fff"/></svg>