<svg width="152" height="151" fill="none" xmlns="http://www.w3.org/2000/svg"><path d="m140.053 60.344-.754.217-1.46-5.071.754-.217 1.46 5.07Zm.201.697-10.356 2.982-.252-.875 10.356-2.982.252.875Zm-1.751-6.081.25.867-4.863 1.115c-.805.181-1.523.32-2.151.42a10.27 10.27 0 0 1-1.658.154c-.473-.003-.88-.068-1.22-.196a1.984 1.984 0 0 1-.845-.581c-.218-.26-.389-.604-.512-1.03l-.086-.3.747-.215.09.26c.09.276.214.502.372.678.16.18.369.31.628.389.265.083.599.118 1.001.105.403-.009.891-.062 1.464-.16a33.23 33.23 0 0 0 2.031-.408l4.752-1.098ZM131.4 68.595l7.455 1.617.114.947-9.634-2.256a7.099 7.099 0 0 1-.634-.192 2.824 2.824 0 0 1-.682-.336 1.894 1.894 0 0 1-.575-.572c-.163-.234-.266-.532-.309-.894a2.293 2.293 0 0 1-.007-.365c.003-.144.01-.25.022-.316l.741-.096a1.487 1.487 0 0 0-.008.24c.002.103.006.175.011.214.038.319.124.58.258.782.134.207.318.372.551.493.228.121.508.22.84.294l1.857.44Zm6.88-3.175-6.523 3.356-.89.345-.437-.596 7.735-4.06.115.955Zm.746 14.501-8.007-.16.018-.88 8.007.16-.018.88Zm-3.627-.376-.763-.015a6.895 6.895 0 0 1-.295-.79 7.275 7.275 0 0 1-.226-.93 5.306 5.306 0 0 1-.069-.964c.013-.66.12-1.219.322-1.674.201-.45.524-.787.967-1.01.449-.223 1.043-.327 1.783-.312l2.035.04-.017.88-2.035-.04c-.567-.01-1.018.06-1.352.21a1.395 1.395 0 0 0-.71.704c-.144.318-.221.724-.231 1.217.003.34.031.68.083 1.016.058.337.131.65.219.937.093.293.189.537.289.732Zm3.49 3.767-.173.864-7.105-1.423-.701 3.498 7.105 1.423-.174.87-7.105-1.422-.693 3.462 7.105 1.422-.173.864-7.853-1.572 1.914-9.558 7.853 1.572Zm-11.885 13.225a3.56 3.56 0 0 1 .799-1.236 3.453 3.453 0 0 1 1.177-.761c.443-.17.92-.249 1.431-.238a4.68 4.68 0 0 1 1.568.34l.296.118a4.827 4.827 0 0 1 1.455.87c.396.352.701.743.913 1.172.213.429.331.868.355 1.318.026.456-.044.896-.211 1.318a3.18 3.18 0 0 1-.752 1.159c-.31.302-.668.516-1.074.642a3.296 3.296 0 0 1-1.306.144 4.939 4.939 0 0 1-1.446-.349l-.503-.198 2.229-5.638.702.278-1.905 4.818.097.038c.421.156.845.225 1.271.208a2.28 2.28 0 0 0 1.172-.348c.353-.222.622-.566.806-1.034a2.28 2.28 0 0 0 .161-1.051 2.347 2.347 0 0 0-.337-1 3.276 3.276 0 0 0-.78-.866 4.67 4.67 0 0 0-1.174-.655l-.295-.117a3.913 3.913 0 0 0-1.228-.278 3.238 3.238 0 0 0-1.143.153c-.361.123-.679.31-.954.562a2.509 2.509 0 0 0-.635.943c-.174.44-.248.862-.222 1.265.031.405.17.813.416 1.223l-.603.358a3.387 3.387 0 0 1-.421-.866 2.94 2.94 0 0 1-.142-1.051c.013-.382.108-.796.283-1.241Zm-3.338 6.985c.257-.455.578-.827.961-1.114a3.44 3.44 0 0 1 1.27-.592c.463-.107.946-.12 1.45-.039a4.712 4.712 0 0 1 1.507.554l.277.157c.537.303.977.657 1.321 1.061.344.405.592.834.743 1.288.152.454.208.905.17 1.354a3.069 3.069 0 0 1-.39 1.276c-.25.443-.552.791-.905 1.044a2.654 2.654 0 0 1-1.152.489 3.321 3.321 0 0 1-1.313-.037 4.966 4.966 0 0 1-1.385-.545l-.47-.266 2.983-5.277.657.372-2.549 4.51.09.051a3.27 3.27 0 0 0 1.23.381c.426.048.829-.013 1.209-.184.38-.171.694-.475.941-.913.185-.327.286-.666.304-1.019a2.348 2.348 0 0 0-.196-1.037 3.288 3.288 0 0 0-.653-.965 4.701 4.701 0 0 0-1.072-.81l-.278-.157a3.924 3.924 0 0 0-1.177-.444 3.24 3.24 0 0 0-1.153-.006 2.659 2.659 0 0 0-1.022.426c-.307.212-.56.494-.759.846-.233.412-.365.82-.394 1.223-.025.405.056.828.244 1.268l-.647.272a3.339 3.339 0 0 1-.298-.916 2.934 2.934 0 0 1 .004-1.061c.066-.377.216-.773.452-1.19Zm-2.478 16.924-.571-.516 3.14-3.477.571.516-3.14 3.477Zm3.006-3.329-5.942-5.368.59-.653 5.943 5.368-.591.653Zm-3.492 3.867-5.943-5.368.595-.659 5.943 5.368-.595.659Zm-4.315 1.96-5.996-7.43.691-.557 6.964 8.627-.646.521-1.013-1.161Zm-5.832 1.636-.098-.121a6.18 6.18 0 0 1-.871-1.409 4.088 4.088 0 0 1-.347-1.385 2.676 2.676 0 0 1 .218-1.25c.172-.392.446-.74.822-1.044a3.445 3.445 0 0 1 1.136-.631 2.798 2.798 0 0 1 1.149-.12c.381.048.75.163 1.106.344.355.189.696.434 1.021.736l1.288 1.595c.246.423.428.841.545 1.253.118.413.165.812.141 1.199-.028.39-.136.76-.324 1.108-.188.348-.464.67-.829.964a2.84 2.84 0 0 1-1.195.594 2.581 2.581 0 0 1-1.27-.031 3.695 3.695 0 0 1-1.276-.625 6.31 6.31 0 0 1-1.216-1.177Zm.593-.679.098.121c.294.365.605.671.933.92.324.253.656.432.996.538.338.114.678.141 1.017.082.336-.055.663-.211.982-.468.33-.267.567-.55.712-.851.143-.293.219-.592.227-.897.011-.3-.025-.592-.107-.874a4.338 4.338 0 0 0-.306-.78l-1.483-1.838a3.43 3.43 0 0 0-1.007-.528 2.325 2.325 0 0 0-1.124-.073c-.39.074-.781.27-1.173.586-.315.254-.534.539-.659.856a2.08 2.08 0 0 0-.129 1.007c.035.358.142.722.32 1.092.175.373.409.742.703 1.107Zm-5.028.488-.438 7.858-.768.447-4.027-6.922.768-.447 3.305 5.681.438-7.858.755-.439 4.027 6.922-.755.439-3.305-5.681Zm-5.181 10.635-.29-.751-3.962 1.532.29.752 3.962-1.533Zm.702-.271-3.026-7.822-.86.333 3.025 7.822.861-.333Zm-4.895 1.893.86-.333-1.59-3.598a17.703 17.703 0 0 0-.755-1.52 6.884 6.884 0 0 0-.716-1.077 2.662 2.662 0 0 0-.734-.631 1.675 1.675 0 0 0-.793-.225 2.435 2.435 0 0 0-.902.183l-.325.126.302.78.27-.096c.211-.07.409-.097.593-.079.188.015.37.086.547.212.18.124.36.309.54.556.183.245.372.556.569.935.203.381.42.837.653 1.368l1.481 3.399Zm-5.05-2.983.052.239c.124.569.157 1.112.098 1.63a3.81 3.81 0 0 1-.428 1.404 3.27 3.27 0 0 1-.928 1.059 3.469 3.469 0 0 1-1.367.609 3.476 3.476 0 0 1-1.504.018 3.278 3.278 0 0 1-1.284-.575 3.747 3.747 0 0 1-.982-1.097 4.976 4.976 0 0 1-.59-1.522l-.053-.239a4.984 4.984 0 0 1-.098-1.63c.06-.513.205-.979.437-1.399.227-.418.533-.773.919-1.064a3.548 3.548 0 0 1 1.369-.602 3.553 3.553 0 0 1 1.502-.025 3.35 3.35 0 0 1 1.286.583c.385.284.712.647.98 1.089.27.446.466.954.59 1.522Zm-.809.427-.052-.239a4.335 4.335 0 0 0-.44-1.184 3.404 3.404 0 0 0-.73-.909 2.451 2.451 0 0 0-.975-.514 2.502 2.502 0 0 0-1.19-.005 2.45 2.45 0 0 0-1.066.498c-.291.24-.515.532-.673.874a3.27 3.27 0 0 0-.276 1.129c-.032.41 0 .83.093 1.26l.052.238c.093.424.239.814.438 1.17a3.2 3.2 0 0 0 .728.909c.287.25.614.426.98.528.365.102.76.107 1.184.014a2.424 2.424 0 0 0 1.072-.506c.285-.244.508-.541.67-.889.156-.347.25-.724.283-1.13a4.399 4.399 0 0 0-.098-1.244Zm-11.31 1.5 3.403 4.186-1.065.039-2.76-3.41-1.48.054.052-.802 1.85-.067Zm-.53.108 2.888-3.897 1.124-.041-3.432 4.598-.58-.66Zm-1.718 4.284-.29-8.003.88-.032.29 8.003-.88.032Zm-4.793.174 3.106-4.423 1.834-.067.125.795-1.486.055-2.499 3.601-1.08.039Zm.47-8.03 3.171 3.676-.537.701-3.757-4.336 1.124-.041Zm-5.333-.757c.518.068.983.227 1.393.475.405.248.746.567 1.023.956.272.39.465.833.578 1.331.108.502.125 1.037.05 1.604l-.042.316a4.835 4.835 0 0 1-.49 1.622c-.247.47-.552.861-.917 1.171a3.36 3.36 0 0 1-1.192.664 3.06 3.06 0 0 1-1.33.115 3.18 3.18 0 0 1-1.306-.449 2.657 2.657 0 0 1-.884-.885 3.322 3.322 0 0 1-.457-1.233 4.941 4.941 0 0 1-.012-1.487l.07-.536 6.01.794-.099.748-5.136-.678-.014.103a3.25 3.25 0 0 0 .107 1.283c.114.413.322.764.622 1.053.3.288.7.465 1.2.531.371.049.724.016 1.058-.099.328-.116.625-.305.889-.569.258-.26.475-.582.65-.967a4.64 4.64 0 0 0 .35-1.297l.042-.316c.058-.44.049-.86-.028-1.258a3.245 3.245 0 0 0-.426-1.072 2.658 2.658 0 0 0-.776-.789 2.515 2.515 0 0 0-1.069-.388 2.917 2.917 0 0 0-1.281.092c-.385.129-.747.362-1.086.701l-.494-.499c.205-.231.451-.438.739-.619a2.96 2.96 0 0 1 .985-.392 3.74 3.74 0 0 1 1.273-.026Zm-11.055 2.206.207-.726 4.57 1.304-.208.726-4.569-1.304Zm3.365 4.686 2.199-7.701.847.242-2.199 7.701-.847-.242Zm-5.003-1.428 2.199-7.701.854.244-2.199 7.701-.854-.244Zm-1.589-7.585-6.679 4.163-.807-.371 3.345-7.277.807.371-2.745 5.972 6.68-4.163.793.365-3.345 7.276-.794-.365 2.745-5.971Zm-8.866-6.482c.439.285.79.628 1.053 1.028.259.398.43.833.512 1.304.078.469.06.952-.051 1.45-.12.5-.335.989-.647 1.469l-.173.267a4.832 4.832 0 0 1-1.142 1.253 3.863 3.863 0 0 1-1.33.662 3.345 3.345 0 0 1-1.363.086 3.07 3.07 0 0 1-1.25-.468 3.195 3.195 0 0 1-.985-.968 2.655 2.655 0 0 1-.416-1.18 3.33 3.33 0 0 1 .118-1.309 4.94 4.94 0 0 1 .63-1.348l.294-.453 5.082 3.304-.412.633-4.343-2.824-.057.087a3.25 3.25 0 0 0-.456 1.204c-.075.423-.038.829.108 1.218.147.39.431.722.853.996.315.205.648.327.998.367.347.037.696-.007 1.048-.131.345-.123.68-.321 1.003-.593.317-.27.609-.61.875-1.02l.174-.267c.242-.372.414-.755.516-1.147.096-.391.121-.775.077-1.151a2.66 2.66 0 0 0-.36-1.047 2.517 2.517 0 0 0-.798-.81 2.908 2.908 0 0 0-1.197-.468c-.402-.05-.83.004-1.28.164l-.232-.662a3.4 3.4 0 0 1 .933-.241 2.945 2.945 0 0 1 1.058.07c.372.089.759.264 1.16.525ZM10.272 92.427l.752-.226 1.518 5.054-.751.226-1.519-5.054Zm-.209-.695 10.321-3.101.262.872-10.32 3.101-.263-.872Zm1.822 6.06-.26-.864 4.85-1.171a34.42 34.42 0 0 1 2.146-.444 10.115 10.115 0 0 1 1.655-.173c.474-.003.88.057 1.222.181.34.12.624.31.852.572.222.257.396.6.524 1.024l.09.298-.745.224-.093-.258a1.85 1.85 0 0 0-.38-.674 1.345 1.345 0 0 0-.633-.382c-.266-.08-.6-.11-1.001-.093-.403.013-.89.072-1.462.176-.573.1-1.248.244-2.027.431l-4.738 1.154Zm6.909-13.916-7.467-1.56-.12-.946 9.65 2.183c.19.045.402.108.636.187.234.075.462.185.684.33.227.14.42.33.58.568.164.233.27.53.316.892.011.094.015.215.009.365a2.17 2.17 0 0 1-.02.316l-.74.102a2.68 2.68 0 0 0-.006-.454c-.04-.319-.128-.578-.264-.78a1.42 1.42 0 0 0-.555-.489 3.313 3.313 0 0 0-.842-.287l-1.86-.427Zm-6.855 3.228 6.497-3.406.888-.352.441.593-7.704 4.119-.122-.954Zm-.864-14.473 8.008.1-.01.88-8.008-.1.01-.88Zm3.63.349.763.01c.106.227.206.49.301.787.095.293.173.602.233.929.055.321.08.642.077.963-.009.661-.112 1.22-.31 1.676-.198.452-.518.79-.96 1.017-.447.227-1.04.335-1.78.326l-2.036-.025.011-.88 2.036.024c.567.007 1.017-.066 1.35-.22a1.39 1.39 0 0 0 .704-.71c.142-.318.216-.724.222-1.218a6.994 6.994 0 0 0-.09-1.015A7.557 7.557 0 0 0 15 73.71a4.803 4.803 0 0 0-.294-.73Zm-3.582-3.38.164-.865 7.12 1.344.662-3.506-7.12-1.344.164-.873 7.12 1.345.655-3.47-7.12-1.344.164-.865 7.869 1.485-1.808 9.579-7.87-1.486ZM22.88 56.088a3.556 3.556 0 0 1-.786 1.245 3.45 3.45 0 0 1-1.168.773 3.75 3.75 0 0 1-1.428.254 4.68 4.68 0 0 1-1.572-.324l-.297-.114a4.833 4.833 0 0 1-1.465-.854 3.876 3.876 0 0 1-.926-1.162 3.346 3.346 0 0 1-.369-1.314 3.059 3.059 0 0 1 .196-1.32c.182-.475.428-.864.74-1.167a2.653 2.653 0 0 1 1.067-.654c.4-.137.836-.19 1.304-.159.465.03.948.141 1.45.333l.505.193-2.167 5.662-.705-.27 1.852-4.839-.097-.037a3.25 3.25 0 0 0-1.273-.194 2.274 2.274 0 0 0-1.168.361c-.35.226-.616.573-.796 1.043-.134.35-.183.701-.149 1.053.036.346.152.679.348.996.192.312.455.598.79.857.33.254.724.468 1.18.642l.297.114c.415.159.825.247 1.23.265.403.011.783-.044 1.142-.166a2.65 2.65 0 0 0 .948-.572c.272-.255.48-.572.625-.95a2.91 2.91 0 0 0 .207-1.267c-.035-.405-.178-.811-.429-1.219l.6-.365c.177.253.32.54.43.862.111.318.162.668.153 1.05a3.748 3.748 0 0 1-.27 1.244Zm3.27-7.058a3.558 3.558 0 0 1-.95 1.125c-.377.288-.798.49-1.262.606a3.75 3.75 0 0 1-1.45.054 4.676 4.676 0 0 1-1.512-.537l-.28-.154a4.836 4.836 0 0 1-1.332-1.047c-.349-.4-.6-.826-.757-1.279a3.343 3.343 0 0 1-.185-1.352c.032-.456.157-.883.376-1.28.245-.446.543-.797.894-1.055.346-.26.728-.426 1.146-.5.416-.08.854-.073 1.314.022.456.094.919.27 1.39.53l.473.26-2.925 5.31-.661-.365 2.5-4.538-.09-.05a3.25 3.25 0 0 0-1.235-.367 2.274 2.274 0 0 0-1.207.197c-.378.175-.688.483-.931.923-.181.329-.279.67-.293 1.022-.012.349.057.694.207 1.035.148.335.37.655.664.958.293.296.654.563 1.081.798l.28.154c.388.214.782.358 1.181.431.397.067.782.065 1.153-.006a2.653 2.653 0 0 0 1.018-.437c.305-.215.554-.5.75-.854a2.91 2.91 0 0 0 .38-1.227 2.783 2.783 0 0 0-.258-1.266l.644-.28c.142.276.244.58.308.914.067.33.07.683.008 1.06a3.744 3.744 0 0 1-.439 1.196Zm2.078-16.719.577.51-3.102 3.511-.577-.51 3.102-3.51Zm-2.97 3.362 6.002 5.302-.583.66-6.002-5.302.583-.66Zm3.45-3.905 6.002 5.302-.588.665-6.002-5.301.588-.666Zm4.427-2.186 6.08 7.361-.684.566-7.062-8.548.64-.528 1.026 1.149Zm5.813-1.702.1.12c.38.46.675.927.886 1.4.21.471.332.931.363 1.38.031.44-.037.858-.204 1.252a2.767 2.767 0 0 1-.81 1.054c-.369.304-.745.52-1.129.644a2.815 2.815 0 0 1-1.148.132 3.321 3.321 0 0 1-1.109-.331 4.878 4.878 0 0 1-1.03-.724l-1.305-1.58a5.476 5.476 0 0 1-.56-1.248 3.565 3.565 0 0 1-.154-1.197c.023-.39.127-.761.311-1.111s.457-.675.818-.974a2.843 2.843 0 0 1 1.189-.607c.416-.1.84-.095 1.27.016.432.104.86.308 1.283.611.423.296.834.684 1.23 1.163Zm-.585.686-.1-.12a5.426 5.426 0 0 0-.943-.91 3.165 3.165 0 0 0-1.001-.527 2.06 2.06 0 0 0-1.019-.07c-.335.059-.66.219-.976.48-.327.27-.561.556-.702.858-.14.295-.213.595-.217.9-.008.3.03.591.116.873.085.281.19.54.315.776l1.504 1.82c.311.23.649.402 1.013.518.36.111.735.131 1.124.06.39-.079.779-.278 1.167-.599.312-.258.528-.545.65-.863a2.09 2.09 0 0 0 .117-1.01c-.04-.357-.15-.72-.333-1.087a5.43 5.43 0 0 0-.715-1.1Zm5.094-.618.378-7.862.764-.452 4.08 6.89-.764.453-3.349-5.655-.377 7.861-.752.445-4.08-6.89.752-.446 3.348 5.656Zm9.137-11.913.29.714-3.76 1.52-.29-.713 3.76-1.521Zm.666-.27 3.004 7.424-.817.33-3.003-7.423.816-.33Zm-4.645 1.88.817-.33 1.242 3.545c.2.574.357 1.09.468 1.551.117.459.185.865.206 1.219a2.54 2.54 0 0 1-.1.918 1.6 1.6 0 0 1-.405.675 2.32 2.32 0 0 1-.747.462l-.309.125-.3-.74.251-.11a1.4 1.4 0 0 0 .465-.332 1.04 1.04 0 0 0 .242-.506 2.19 2.19 0 0 0 .013-.739 6.487 6.487 0 0 0-.215-1.023 19.506 19.506 0 0 0-.438-1.38l-1.19-3.335Zm9.045.904-.054-.238a4.982 4.982 0 0 1-.117-1.63c.052-.518.19-.988.412-1.408a3.27 3.27 0 0 1 .915-1.07 3.46 3.46 0 0 1 1.36-.625 3.48 3.48 0 0 1 1.504-.035c.472.094.902.28 1.291.561.389.28.72.642.994 1.085.275.443.477.948.608 1.516l.055.238c.13.567.17 1.11.117 1.628a3.761 3.761 0 0 1-.42 1.404 3.28 3.28 0 0 1-.908 1.075 3.534 3.534 0 0 1-1.361.617 3.554 3.554 0 0 1-1.502.043 3.357 3.357 0 0 1-1.293-.568 3.76 3.76 0 0 1-.993-1.078 4.984 4.984 0 0 1-.607-1.515Zm.804-.436.055.238c.099.428.25.82.454 1.179.203.353.45.653.74.9.288.242.615.41.981.503.366.093.763.09 1.19-.009a2.442 2.442 0 0 0 1.06-.51 2.43 2.43 0 0 0 .663-.882c.153-.349.24-.726.263-1.131a4.311 4.311 0 0 0-.108-1.259l-.054-.238a4.227 4.227 0 0 0-.451-1.165 3.18 3.18 0 0 0-.74-.9 2.489 2.489 0 0 0-.985-.517 2.431 2.431 0 0 0-1.184 0 2.43 2.43 0 0 0-1.066.518 2.583 2.583 0 0 0-.66.897 3.397 3.397 0 0 0-.27 1.133c-.023.405.015.82.112 1.243Zm11.393-1.656-3.45-4.148 1.064-.051 2.8 3.379 1.478-.07-.043.802-1.849.088Zm.528-.114-2.843 3.93-1.123.053 3.38-4.637.586.654Zm1.67-4.304.381 8-.88.041-.381-7.999.88-.042Zm4.79-.228-3.055 4.458-1.833.088-.134-.794 1.486-.071 2.457-3.63 1.08-.051Zm-.38 8.035-3.211-3.64.53-.707 3.805 4.294-1.123.053Zm5.105.663a3.557 3.557 0 0 1-1.398-.46 3.449 3.449 0 0 1-1.034-.945 3.751 3.751 0 0 1-.593-1.324 4.678 4.678 0 0 1-.067-1.604l.038-.316a4.84 4.84 0 0 1 .473-1.628 3.88 3.88 0 0 1 .903-1.18c.361-.314.756-.54 1.185-.677a3.058 3.058 0 0 1 1.328-.13c.505.06.942.205 1.312.434.37.224.668.516.893.876.23.356.387.765.47 1.227.085.458.094.953.03 1.487l-.065.537-6.018-.728.09-.749 5.144.622.012-.103a3.252 3.252 0 0 0-.12-1.282 2.283 2.283 0 0 0-.635-1.046c-.303-.285-.705-.458-1.204-.518a2.284 2.284 0 0 0-1.057.11 2.36 2.36 0 0 0-.883.58 3.28 3.28 0 0 0-.64.973 4.68 4.68 0 0 0-.336 1.302l-.038.316c-.053.44-.04.86.042 1.257.087.393.232.75.438 1.067.21.319.471.579.785.78.313.203.671.328 1.073.377.47.056.897.021 1.28-.107.384-.132.743-.37 1.078-.712l.5.493a3.373 3.373 0 0 1-.733.627c-.28.185-.607.32-.98.404a3.749 3.749 0 0 1-1.273.04Zm11.138-2.339-.199.727-4.583-1.254.2-.728 4.582 1.254Zm-3.416-4.65-2.114 7.725-.85-.233 2.115-7.724.85.232Zm5.019 1.374-2.114 7.724-.857-.234 2.114-7.725.857.235Zm1.686 7.544 6.633-4.236.811.362-3.265 7.313-.81-.362 2.679-6.002-6.633 4.236-.798-.356 3.265-7.312.798.356-2.68 6.001Zm8.983 6.385a3.557 3.557 0 0 1-1.064-1.017 3.454 3.454 0 0 1-.526-1.298 3.762 3.762 0 0 1 .035-1.45 4.7 4.7 0 0 1 .63-1.477l.171-.269c.33-.52.706-.942 1.128-1.265a3.87 3.87 0 0 1 1.323-.677 3.342 3.342 0 0 1 1.361-.1c.453.06.871.211 1.255.454a3.2 3.2 0 0 1 .997.957c.238.362.381.754.428 1.175.055.42.02.858-.104 1.31-.121.45-.326.901-.614 1.355l-.289.457-5.118-3.249.404-.637 4.374 2.776.056-.087a3.26 3.26 0 0 0 .443-1.21c.07-.423.029-.828-.122-1.216s-.439-.717-.864-.987a2.278 2.278 0 0 0-1.002-.355 2.356 2.356 0 0 0-1.046.142 3.283 3.283 0 0 0-.996.604 4.69 4.69 0 0 0-.864 1.03l-.171.268a3.91 3.91 0 0 0-.504 1.153 3.24 3.24 0 0 0-.064 1.151c.052.378.176.726.372 1.043a2.5 2.5 0 0 0 .807.801c.4.254.8.406 1.201.456.403.046.83-.014 1.279-.179l.239.66a3.378 3.378 0 0 1-.931.251 2.941 2.941 0 0 1-1.058-.058 3.746 3.746 0 0 1-1.166-.512Z" fill="#6A47DC"/></svg>