<svg width="145" height="147" fill="none" xmlns="http://www.w3.org/2000/svg"><path d="m133.207 79.62.234-3.026.768.045-.201 2.605c-.041.53 0 .99.124 1.375.123.386.328.686.613.901.29.22.656.348 1.099.382.452.035.834-.032 1.144-.201.315-.169.558-.44.731-.812.172-.373.281-.85.325-1.43l.175-2.258-9.962-.77.07-.908 10.744.83-.244 3.166a6.162 6.162 0 0 1-.276 1.456c-.142.425-.34.78-.595 1.068a2.214 2.214 0 0 1-.932.626c-.362.135-.786.184-1.273.146a2.467 2.467 0 0 1-1.18-.388 2.394 2.394 0 0 1-.806-.901c-.194-.371-.299-.807-.315-1.308l-.243-.598Zm-5.161-.466.251-3.247.739.525-.215 2.782c-.041.531.013.99.161 1.378.152.393.388.703.707.93.319.228.71.36 1.172.396a2.28 2.28 0 0 0 1.12-.18c.339-.153.616-.404.831-.753.22-.35.351-.805.395-1.365l.145-1.882.766.074-.205 2.664-.286.141a2.639 2.639 0 0 1-.548 1.227 2.618 2.618 0 0 1-2.272.975c-.65-.05-1.19-.238-1.62-.563a2.755 2.755 0 0 1-.933-1.282c-.191-.53-.261-1.136-.208-1.82Zm7.103 7.606-3.637 1.379 2.664 2.84-.236 1.024-3.212-3.529-4.617 1.837.233-1.01 3.81-1.468-2.784-2.981.233-1.01 3.346 3.673 4.433-1.765-.233 1.01Zm-5.596 5.716.228.087a4.983 4.983 0 0 1 1.42.807c.401.332.716.707.942 1.126.225.423.352.875.38 1.356.034.482-.045.974-.236 1.477-.193.508-.461.93-.806 1.27-.341.34-.735.594-1.184.762a3.75 3.75 0 0 1-1.455.224 4.98 4.98 0 0 1-1.597-.338l-.229-.086a4.99 4.99 0 0 1-1.419-.808 3.767 3.767 0 0 1-.933-1.13 3.299 3.299 0 0 1-.39-1.351c-.028-.48.053-.973.244-1.475a3.54 3.54 0 0 1 .799-1.272 3.356 3.356 0 0 1 1.191-.76 3.755 3.755 0 0 1 1.447-.226c.521.018 1.054.13 1.598.337Zm-.084.91-.228-.087a4.337 4.337 0 0 0-1.233-.277 3.383 3.383 0 0 0-1.159.114 2.441 2.441 0 0 0-.964.537 2.502 2.502 0 0 0-.655.994 2.445 2.445 0 0 0-.165 1.165c.043.375.165.722.365 1.04.206.321.471.604.795.848.327.251.696.454 1.106.61l.229.087a4.21 4.21 0 0 0 1.218.272c.405.033.792-.005 1.16-.114a2.49 2.49 0 0 0 .977-.531c.286-.25.505-.58.659-.985.154-.406.208-.797.161-1.174a2.584 2.584 0 0 0-.379-1.047 3.371 3.371 0 0 0-.792-.854 4.397 4.397 0 0 0-1.095-.598Zm-.465 11.018-.437.765-2.441-1.547c-.651-.412-1.189-.818-1.613-1.22a6.791 6.791 0 0 1-1.007-1.146 4.72 4.72 0 0 1-.545-1.061 4.78 4.78 0 0 1-.233-.951l.239-.418.648.387-.103.197c.079.21.174.435.287.676.115.247.276.512.483.795.208.284.494.589.858.916.364.328.84.679 1.427 1.054l2.437 1.553Zm-.143.251-2.199 3.85-6.954-3.971.437-.765 6.234 3.56 1.762-3.085.72.411Zm-5.063-5.746-3.843 6.729-2.706-1.545.441-.771 2.044 1.167 2.983-5.226-2.043-1.167.418-.733 2.706 1.546Zm-5.194 9.792 2.443 7.482-.553.695-6.264-4.99.553-.695 5.141 4.095-2.443-7.482.544-.683 6.264 4.99-.544.683-5.141-4.095Zm-2.353 12.5-5.517-5.805.639-.607 5.517 5.805-.639.607Zm-2.114 2.009-.52-.548 4.791-4.553.52.547-4.791 4.554Zm-7.757 3.897-4.916-8.185.761-.457 5.71 9.504-.711.427-.844-1.289Zm-6.002.817-.08-.133a6.137 6.137 0 0 1-.668-1.516 4.07 4.07 0 0 1-.153-1.419c.034-.441.163-.843.387-1.208s.544-.672.958-.921c.41-.247.814-.403 1.212-.469a2.815 2.815 0 0 1 1.155.04c.371.1.72.264 1.048.493.326.236.629.526.91.869l1.056 1.758c.186.452.308.891.368 1.316.059.425.05.827-.026 1.207a2.713 2.713 0 0 1-.473 1.052c-.235.32-.553.6-.954.841a2.846 2.846 0 0 1-1.266.424 2.592 2.592 0 0 1-1.254-.205 3.71 3.71 0 0 1-1.177-.796 6.281 6.281 0 0 1-1.043-1.333Zm.681-.591.08.134c.242.401.508.748.798 1.04.286.294.59.518.912.67.32.159.652.232.996.221.341-.008.686-.118 1.037-.329.364-.219.638-.467.822-.744.183-.271.299-.557.349-.857.052-.296.057-.59.015-.881a4.437 4.437 0 0 0-.196-.815l-1.216-2.024a3.438 3.438 0 0 0-.924-.662 2.328 2.328 0 0 0-1.103-.227c-.397.02-.811.159-1.243.419-.347.208-.604.46-.771.756a2.076 2.076 0 0 0-.266.981 3.22 3.22 0 0 0 .167 1.125c.121.394.302.791.543 1.193Zm-7.272-1.052c.483-.2.965-.296 1.444-.286.475.012.93.117 1.365.316.43.201.819.489 1.166.863.345.381.627.835.846 1.364l.121.294c.237.57.366 1.12.388 1.651a3.86 3.86 0 0 1-.208 1.471 3.35 3.35 0 0 1-.7 1.172 3.07 3.07 0 0 1-1.094.765c-.469.194-.921.283-1.356.265a2.646 2.646 0 0 1-1.208-.325 3.312 3.312 0 0 1-1.012-.838 4.952 4.952 0 0 1-.755-1.282l-.207-.499 5.6-2.319.29.697-4.787 1.983.04.095c.18.411.425.764.734 1.058.306.301.661.501 1.066.6.404.1.839.053 1.304-.139.346-.144.635-.349.867-.616.226-.265.388-.577.484-.938a3.29 3.29 0 0 0 .08-1.162 4.67 4.67 0 0 0-.346-1.299l-.122-.294a3.906 3.906 0 0 0-.654-1.075c-.268-.3-.57-.538-.904-.715a2.662 2.662 0 0 0-1.068-.295 2.52 2.52 0 0 0-1.119.199 2.924 2.924 0 0 0-1.063.721c-.27.304-.466.687-.59 1.15l-.677-.184c.061-.304.171-.606.33-.906a2.94 2.94 0 0 1 .656-.833 3.75 3.75 0 0 1 1.09-.659Zm-7.739 2.591a3.558 3.558 0 0 1 1.47-.071c.469.081.903.252 1.304.512.397.262.739.604 1.028 1.025.285.427.497.918.636 1.473l.078.309c.15.598.197 1.161.14 1.689a3.879 3.879 0 0 1-.42 1.426 3.356 3.356 0 0 1-.865 1.056 3.074 3.074 0 0 1-1.193.597 3.202 3.202 0 0 1-1.38.063 2.647 2.647 0 0 1-1.148-.498 3.314 3.314 0 0 1-.878-.978 4.935 4.935 0 0 1-.56-1.378l-.131-.524 5.88-1.474.183.732-5.025 1.26.025.1c.119.434.31.818.572 1.154.258.342.58.592.966.75.385.158.822.175 1.31.053.364-.091.68-.252.948-.482a2.35 2.35 0 0 0 .617-.856c.144-.337.227-.716.249-1.139a4.678 4.678 0 0 0-.152-1.335l-.077-.309a3.903 3.903 0 0 0-.49-1.159 3.247 3.247 0 0 0-.79-.84 2.67 2.67 0 0 0-1.013-.448 2.52 2.52 0 0 0-1.136.033 2.9 2.9 0 0 0-1.157.558c-.311.261-.562.611-.752 1.05l-.643-.281c.105-.291.258-.574.46-.848.195-.273.453-.515.77-.727.319-.212.71-.377 1.174-.493Zm-7.831 2.172a2.673 2.673 0 0 0-1.025.312 2.015 2.015 0 0 0-.747.707c-.188.302-.276.655-.265 1.061l-.84.084a2.494 2.494 0 0 1 .328-1.401 2.92 2.92 0 0 1 1.011-1.039c.43-.267.917-.427 1.462-.482.555-.056 1.056-.005 1.503.154.443.158.824.403 1.145.732.321.335.58.736.775 1.202.192.472.316.987.372 1.547l.031.309c.056.56.037 1.088-.056 1.583a3.788 3.788 0 0 1-.521 1.332c-.248.392-.573.71-.975.953-.403.244-.88.394-1.436.45a3.343 3.343 0 0 1-1.566-.192 2.745 2.745 0 0 1-1.189-.87c-.317-.395-.517-.88-.6-1.457l.84-.085c.067.425.217.782.45 1.071.232.289.52.5.867.634.345.134.72.181 1.122.14.452-.045.828-.172 1.13-.381.302-.204.538-.468.708-.793.167-.319.277-.677.331-1.075.055-.392.061-.799.019-1.221l-.031-.31a5.512 5.512 0 0 0-.256-1.209 3.282 3.282 0 0 0-.538-.98 2.243 2.243 0 0 0-.852-.636c-.341-.139-.74-.186-1.197-.14Zm-8.712 7.651.31-8.003.88.034-.31 8.003-.88-.034Zm-2.913-.113.029-.754 6.604.255-.029.754-6.605-.255Zm-3.183-1.945 1.681-9.398.874.156-1.952 10.914-.816-.146.213-1.526Zm-5.058-3.333.027-.153c.105-.588.27-1.115.494-1.581.223-.466.496-.856.818-1.169.316-.31.678-.528 1.087-.656a2.775 2.775 0 0 1 1.327-.063c.471.084.878.232 1.221.444.344.212.625.475.844.79.214.319.369.672.465 1.061.09.392.128.81.114 1.253l-.361 2.018a5.478 5.478 0 0 1-.59 1.233 3.555 3.555 0 0 1-.813.892 2.703 2.703 0 0 1-1.049.482c-.386.086-.81.088-1.271.006a2.848 2.848 0 0 1-1.232-.514 2.586 2.586 0 0 1-.81-.979c-.2-.397-.32-.855-.363-1.374a6.289 6.289 0 0 1 .092-1.69Zm.902.003-.028.153c-.082.462-.11.898-.083 1.309.021.41.104.778.246 1.104.136.33.338.604.605.822.261.218.594.362.997.435.418.074.787.068 1.109-.02a2.16 2.16 0 0 0 .826-.416 2.76 2.76 0 0 0 .59-.654c.16-.247.29-.495.39-.743l.415-2.324a3.461 3.461 0 0 0-.26-1.107 2.328 2.328 0 0 0-.682-.896c-.312-.246-.716-.414-1.211-.502-.399-.072-.758-.051-1.08.062a2.083 2.083 0 0 0-.844.563 3.264 3.264 0 0 0-.615.958 5.434 5.434 0 0 0-.375 1.256Zm-13.959-.418.294-.711 3.747 1.552 2.77-6.688.814.337-3.064 7.399-4.561-1.889Zm.369-4.331-.122.212c-.29.504-.631.929-1.023 1.272a3.814 3.814 0 0 1-1.261.752c-.454.154-.92.207-1.399.159a3.469 3.469 0 0 1-1.421-.468 3.487 3.487 0 0 1-1.125-.998 3.27 3.27 0 0 1-.564-1.29c-.094-.47-.09-.96.01-1.472a4.972 4.972 0 0 1 .588-1.523l.122-.212a4.98 4.98 0 0 1 1.023-1.273c.39-.339.81-.586 1.264-.741a3.293 3.293 0 0 1 1.396-.17c.479.049.951.207 1.417.475.47.271.847.602 1.13.992.279.394.465.826.56 1.296.093.47.09.958-.008 1.465-.1.512-.296 1.02-.587 1.524Zm-.885-.228.122-.211a4.34 4.34 0 0 0 .47-1.173c.092-.397.116-.784.072-1.163a2.446 2.446 0 0 0-.376-1.037 2.503 2.503 0 0 0-.878-.804 2.435 2.435 0 0 0-1.123-.348 2.45 2.45 0 0 0-1.086.194c-.35.152-.67.369-.964.65-.3.283-.559.615-.778.995l-.122.212a4.23 4.23 0 0 0-.463 1.16c-.096.394-.12.782-.072 1.162.044.379.168.729.37 1.05.202.322.49.591.867.807.377.217.754.332 1.134.346.375.011.74-.058 1.093-.208.35-.152.673-.367.97-.646a4.38 4.38 0 0 0 .764-.986Zm-7.348-8.921a2.646 2.646 0 0 0-.953-.489 2.017 2.017 0 0 0-1.03-.012c-.344.086-.653.279-.928.578l-.661-.524a2.5 2.5 0 0 1 1.21-.779 2.941 2.941 0 0 1 1.45-.043c.493.108.955.331 1.384.671.438.346.762.731.973 1.156.208.422.312.863.313 1.323a3.887 3.887 0 0 1-.279 1.403c-.19.472-.46.928-.809 1.369l-.193.244c-.349.441-.73.807-1.141 1.098-.42.291-.853.49-1.3.595a2.942 2.942 0 0 1-1.365.006c-.458-.104-.906-.329-1.343-.675a3.331 3.331 0 0 1-.992-1.228 2.74 2.74 0 0 1-.249-1.451c.047-.505.24-.993.582-1.465l.662.523a2.233 2.233 0 0 0-.421 1.082c-.034.37.026.723.181 1.059.156.337.392.631.71.882.356.281.715.452 1.076.511a2.15 2.15 0 0 0 1.061-.076c.341-.114.67-.294.985-.542.313-.244.6-.532.863-.865l.193-.244a5.52 5.52 0 0 0 .658-1.046c.165-.36.263-.72.295-1.078a2.237 2.237 0 0 0-.17-1.05c-.148-.337-.402-.648-.762-.933Zm-20.357-6.692 8.405-6.745.565.704-7.793 6.254 3.822 4.762 7.793-6.254.57.71-8.405 6.745-4.957-6.176Zm-2.568-12.73.996-.583c.652-.382 1.291-.642 1.919-.781a4.447 4.447 0 0 1 1.774-.062 3.69 3.69 0 0 1 1.528.632c.46.326.851.765 1.176 1.319a4.15 4.15 0 0 1 .567 1.657 3.75 3.75 0 0 1-.192 1.648 4.646 4.646 0 0 1-.914 1.531c-.425.483-.964.916-1.615 1.298l-.997.583c-.651.382-1.288.641-1.912.777a4.619 4.619 0 0 1-1.788.053 3.762 3.762 0 0 1-1.532-.638 4.108 4.108 0 0 1-1.164-1.3c-.324-.553-.516-1.11-.575-1.67a3.75 3.75 0 0 1 .192-1.648 4.538 4.538 0 0 1 .924-1.528c.424-.477.962-.906 1.613-1.288Zm1.453.196-1.01.591a6.163 6.163 0 0 0-1.369 1.059 3.67 3.67 0 0 0-.798 1.214 2.82 2.82 0 0 0-.192 1.313c.041.451.194.902.458 1.353.257.439.57.784.941 1.036a2.9 2.9 0 0 0 1.24.475c.452.061.937.029 1.453-.096a6.126 6.126 0 0 0 1.593-.677l1.01-.591a6.243 6.243 0 0 0 1.382-1.067 3.94 3.94 0 0 0 .797-1.23 2.91 2.91 0 0 0 .192-1.313 3.195 3.195 0 0 0-.447-1.334c-.267-.456-.586-.809-.956-1.061a2.835 2.835 0 0 0-1.235-.469 3.814 3.814 0 0 0-1.453.113 6.24 6.24 0 0 0-1.606.684Z" fill="#6A47DC"/><circle cx="12.561" cy="88.053" r="1" transform="rotate(-21.145 12.561 88.053)" fill="#6A47DC"/><path d="m11.384 70.238-.134 3.032-.77-.02.115-2.61c.024-.532-.033-.989-.169-1.37-.136-.381-.35-.675-.643-.88-.296-.211-.667-.326-1.11-.346-.454-.02-.833.06-1.137.24-.31.178-.544.457-.704.835-.16.378-.252.858-.278 1.44l-.1 2.263 9.982.44-.04.91-10.766-.476.14-3.172c.024-.547.1-1.035.228-1.464a3.03 3.03 0 0 1 .559-1.087c.245-.295.548-.514.91-.656.358-.147.78-.21 1.268-.188a2.46 2.46 0 0 1 1.192.348c.347.213.625.505.836.874.206.365.325.798.358 1.298l.263.59Zm5.173.295-.144 3.254-.756-.5.123-2.788c.024-.532-.045-.99-.206-1.372a2.003 2.003 0 0 0-.738-.907c-.326-.217-.72-.336-1.184-.356-.41-.018-.78.054-1.114.218a1.867 1.867 0 0 0-.805.779c-.208.356-.325.815-.35 1.377l-.082 1.886-.769-.049.118-2.67.28-.15c.071-.48.24-.895.508-1.244.262-.354.587-.621.976-.802a2.62 2.62 0 0 1 1.263-.248c.65.029 1.196.199 1.637.51.436.305.76.722.974 1.25.21.523.299 1.127.269 1.812ZM9.232 63l3.591-1.496-2.754-2.753.203-1.03 3.324 3.422 4.555-1.985-.2 1.017-3.76 1.59 2.877 2.89-.2 1.017-3.462-3.563-4.374 1.907.2-1.016Zm5.446-6.056-.23-.08a4.985 4.985 0 0 1-1.443-.764 3.816 3.816 0 0 1-.976-1.097 3.274 3.274 0 0 1-.42-1.344 3.46 3.46 0 0 1 .192-1.484c.177-.513.433-.944.768-1.293.33-.35.717-.616 1.16-.797.444-.18.926-.27 1.448-.267.52.003 1.056.099 1.607.29l.23.079a4.97 4.97 0 0 1 1.443.765c.407.318.73.685.966 1.102.24.411.383.857.43 1.339.043.48-.023.973-.199 1.481a3.553 3.553 0 0 1-.76 1.296 3.356 3.356 0 0 1-1.168.794 3.76 3.76 0 0 1-1.44.27 4.985 4.985 0 0 1-1.608-.29Zm.057-.912.231.08a4.33 4.33 0 0 0 1.24.24c.407.016.793-.033 1.156-.148.359-.116.674-.304.947-.565.273-.26.481-.599.625-1.014.142-.41.185-.8.13-1.169a2.444 2.444 0 0 0-.396-1.03 3.267 3.267 0 0 0-.82-.823 4.328 4.328 0 0 0-1.124-.577l-.23-.08c-.41-.141-.82-.22-1.227-.235a3.21 3.21 0 0 0-1.155.148 2.487 2.487 0 0 0-.962.56c-.277.26-.487.595-.629 1.005a2.43 2.43 0 0 0-.125 1.178c.06.37.196.716.41 1.035.215.314.487.591.817.83a4.4 4.4 0 0 0 1.112.565Zm.105-10.987.413-.778 2.486 1.472c.663.392 1.213.782 1.65 1.17.434.382.78.754 1.041 1.116.256.36.448.708.577 1.044.126.33.213.645.261.944l-.226.425-.66-.368.098-.2a9.446 9.446 0 0 0-.308-.666 4.744 4.744 0 0 0-.507-.78 6.206 6.206 0 0 0-.885-.89 11.01 11.01 0 0 0-1.458-1.01l-2.483-1.48Zm.135-.255 2.08-3.915 7.072 3.76-.413.777-6.34-3.37-1.667 3.137-.732-.39Zm5.234 5.59 3.638-6.842L26.598 45l-.417.785-2.078-1.105-2.825 5.313 2.079 1.105-.396.745-2.752-1.463Zm4.759-9.77-2.674-7.403.532-.711 6.415 4.793-.531.711-5.265-3.933 2.674 7.402-.523.7-6.416-4.793.523-.7 5.265 3.934Zm2.014-12.65 5.685 5.64-.62.626-5.686-5.64.62-.625Zm2.053-2.07.536.532-4.654 4.693-.536-.532 4.654-4.693Zm7.592-4.128 5.162 8.032-.747.48-5.995-9.327.698-.448.882 1.263Zm5.975-.998.084.131c.322.502.56 1 .714 1.494.153.494.218.966.196 1.414a2.674 2.674 0 0 1-.351 1.22 2.767 2.767 0 0 1-.93.95 3.465 3.465 0 0 1-1.197.505 2.83 2.83 0 0 1-1.156-.005 3.323 3.323 0 0 1-1.062-.462 4.877 4.877 0 0 1-.936-.84l-1.109-1.726a5.479 5.479 0 0 1-.407-1.304 3.57 3.57 0 0 1-.01-1.207c.069-.385.216-.74.44-1.067a3.21 3.21 0 0 1 .929-.869 2.844 2.844 0 0 1 1.252-.461c.425-.05.845.005 1.26.167.416.154.816.407 1.2.759a6.26 6.26 0 0 1 1.083 1.301Zm-.663.611-.084-.13a5.427 5.427 0 0 0-.83-1.016 3.167 3.167 0 0 0-.93-.642 2.06 2.06 0 0 0-1.004-.192c-.34.02-.682.14-1.026.36-.357.23-.623.486-.8.77a2.151 2.151 0 0 0-.322.867 2.75 2.75 0 0 0 .012.88c.051.29.125.56.22.81l1.277 1.986c.282.264.596.476.944.633a2.33 2.33 0 0 0 1.11.194c.396-.032.805-.184 1.229-.456.34-.219.59-.479.748-.78a2.08 2.08 0 0 0 .236-.988 3.254 3.254 0 0 0-.2-1.12 5.428 5.428 0 0 0-.58-1.176Zm7.294.806a3.555 3.555 0 0 1-1.434.333 3.448 3.448 0 0 1-1.374-.272 3.752 3.752 0 0 1-1.194-.824 4.68 4.68 0 0 1-.89-1.336l-.131-.29a4.834 4.834 0 0 1-.44-1.637 3.87 3.87 0 0 1 .158-1.477c.146-.456.367-.854.662-1.194a3.058 3.058 0 0 1 1.068-.8c.463-.21.912-.313 1.347-.31.433 0 .839.094 1.218.285.381.185.728.454 1.039.805.309.348.574.767.796 1.257l.223.492-5.522 2.5-.311-.687 4.72-2.137-.043-.095a3.248 3.248 0 0 0-.769-1.033 2.274 2.274 0 0 0-1.085-.565c-.407-.086-.84-.026-1.299.182-.341.155-.623.37-.846.643-.218.272-.369.59-.454.953a3.278 3.278 0 0 0-.041 1.165c.057.413.186.842.388 1.287l.131.29c.183.404.413.755.689 1.053.278.291.587.52.927.685.345.163.704.25 1.077.26.373.01.743-.069 1.112-.236a2.909 2.909 0 0 0 1.04-.755c.259-.312.442-.702.55-1.168l.683.162c-.05.305-.151.61-.3.916a2.948 2.948 0 0 1-.629.854 3.75 3.75 0 0 1-1.066.694Zm7.752-2.887a3.556 3.556 0 0 1-1.467.118 3.45 3.45 0 0 1-1.32-.47 3.752 3.752 0 0 1-1.06-.991 4.68 4.68 0 0 1-.683-1.452l-.087-.306a4.834 4.834 0 0 1-.195-1.684 3.85 3.85 0 0 1 .374-1.438c.212-.43.488-.791.83-1.084.347-.298.738-.51 1.174-.634.49-.14.948-.176 1.378-.108.428.062.816.216 1.163.46.35.24.653.556.91.95.254.39.455.842.602 1.36l.148.52-5.83 1.661-.206-.726 4.982-1.42-.028-.1a3.25 3.25 0 0 0-.608-1.135c-.27-.334-.6-.573-.99-.718-.39-.146-.828-.15-1.312-.011-.36.102-.67.273-.931.512a2.355 2.355 0 0 0-.59.876c-.133.34-.204.722-.211 1.145-.005.417.06.86.194 1.33l.087.306c.122.427.297.808.526 1.143.232.33.505.6.817.814.317.212.66.35 1.027.416.367.064.745.041 1.134-.07.456-.13.835-.328 1.14-.594.302-.271.54-.63.717-1.074l.651.26c-.096.295-.24.582-.431.862-.188.28-.437.53-.748.752a3.747 3.747 0 0 1-1.157.53Zm7.617-2.411a2.69 2.69 0 0 0 1.015-.343c.309-.185.55-.429.725-.73.178-.308.255-.664.232-1.07l.836-.11c.042.507-.052.978-.284 1.411a2.932 2.932 0 0 1-.978 1.07c-.42.28-.903.456-1.446.528-.553.073-1.055.037-1.507-.107a2.978 2.978 0 0 1-1.167-.697 3.882 3.882 0 0 1-.813-1.177 5.583 5.583 0 0 1-.42-1.534l-.04-.309a5.511 5.511 0 0 1 .007-1.583 3.79 3.79 0 0 1 .479-1.348c.236-.4.55-.727.945-.983.394-.256.868-.421 1.42-.494a3.336 3.336 0 0 1 1.572.143c.486.17.89.447 1.215.832.33.385.545.864.646 1.438l-.837.11a2.223 2.223 0 0 0-.483-1.055 2.038 2.038 0 0 0-.886-.607 2.4 2.4 0 0 0-1.127-.105c-.45.06-.822.198-1.117.416a2.15 2.15 0 0 0-.683.815 3.267 3.267 0 0 0-.298 1.084c-.042.394-.035.801.02 1.222l.04.308c.057.426.155.826.294 1.2.143.37.333.691.568.964.24.271.53.474.872.608.345.129.745.163 1.2.103Zm7.986-7.94-.045 8.009-.88-.005.045-8.009.88.005Zm2.917.017-.005.755-6.61-.038.005-.755 6.61.038Zm3.409 1.807-1.373 9.45-.879-.128 1.594-10.973.82.12-.162 1.531Zm5.164 3.166-.022.154a6.136 6.136 0 0 1-.442 1.597 4.07 4.07 0 0 1-.78 1.195c-.305.32-.66.55-1.064.69a2.761 2.761 0 0 1-1.325.107 3.466 3.466 0 0 1-1.235-.403c-.35-.2-.64-.455-.869-.762a3.324 3.324 0 0 1-.499-1.045 4.873 4.873 0 0 1-.155-1.25l.295-2.028a5.48 5.48 0 0 1 .548-1.252c.223-.366.484-.672.784-.918a2.709 2.709 0 0 1 1.032-.516 3.213 3.213 0 0 1 1.271-.047c.484.07.9.228 1.248.473.354.24.634.558.841.952.213.39.349.844.409 1.36a6.289 6.289 0 0 1-.037 1.693Zm-.901.027.022-.154c.067-.464.081-.901.04-1.31a3.166 3.166 0 0 0-.281-1.096 2.06 2.06 0 0 0-.632-.803c-.268-.208-.606-.342-1.01-.4-.42-.062-.79-.043-1.108.055a2.15 2.15 0 0 0-.813.443 2.75 2.75 0 0 0-.569.673 4.38 4.38 0 0 0-.364.755l-.339 2.337c.039.384.138.75.297 1.097.16.342.396.634.71.874.32.236.73.39 1.227.462.4.058.76.026 1.076-.098a2.08 2.08 0 0 0 .827-.59 3.26 3.26 0 0 0 .583-.978c.155-.38.266-.803.334-1.267Zm14.373.022-.27.72-3.797-1.427-2.548 6.775-.824-.31 2.818-7.496 4.621 1.738Zm-.438 4.228.115-.216c.273-.514.6-.95.98-1.306.379-.357.79-.622 1.234-.794.448-.17.912-.239 1.393-.207.482.028.961.168 1.436.42.479.255.866.575 1.158.96.295.38.498.803.608 1.27.109.466.123.956.039 1.47a4.978 4.978 0 0 1-.535 1.544l-.115.215a4.97 4.97 0 0 1-.979 1.307c-.378.352-.79.614-1.238.783a3.282 3.282 0 0 1-1.39.217 3.536 3.536 0 0 1-1.433-.426 3.554 3.554 0 0 1-1.161-.953 3.355 3.355 0 0 1-.604-1.276 3.76 3.76 0 0 1-.043-1.465 4.984 4.984 0 0 1 .535-1.543Zm.892.198-.114.216c-.206.387-.35.783-.43 1.188-.079.4-.09.787-.033 1.164.06.373.197.714.412 1.024.215.31.516.568.904.774.384.204.762.307 1.135.31.377.005.737-.073 1.078-.232.344-.163.658-.39.941-.682.29-.293.538-.633.744-1.02l.115-.216a4.21 4.21 0 0 0 .423-1.175 3.16 3.16 0 0 0 .032-1.165 2.473 2.473 0 0 0-.404-1.036 2.428 2.428 0 0 0-.895-.778 2.43 2.43 0 0 0-1.144-.306 2.583 2.583 0 0 0-1.086.244c-.344.164-.66.39-.947.678a4.4 4.4 0 0 0-.73 1.012Zm7.852 8.788c.302.223.624.376.968.46.351.081.694.074 1.029-.021.342-.097.645-.299.91-.606l.678.502a2.5 2.5 0 0 1-1.186.817c-.461.15-.944.178-1.447.088a3.375 3.375 0 0 1-1.406-.628c-.448-.332-.784-.707-1.008-1.125a2.966 2.966 0 0 1-.354-1.313 3.895 3.895 0 0 1 .235-1.41c.176-.478.431-.943.766-1.395l.186-.25a5.515 5.515 0 0 1 1.106-1.132c.41-.304.837-.516 1.282-.635a2.946 2.946 0 0 1 1.363-.049c.461.09.916.302 1.364.634.46.34.803.74 1.029 1.196.231.46.329.94.294 1.443-.031.506-.209 1-.536 1.482l-.678-.503c.236-.36.365-.724.388-1.094a2.042 2.042 0 0 0-.215-1.053 2.406 2.406 0 0 0-.736-.859c-.365-.27-.729-.43-1.092-.478a2.148 2.148 0 0 0-1.058.11 3.254 3.254 0 0 0-.968.572c-.305.253-.583.55-.836.891l-.185.25a5.51 5.51 0 0 0-.625 1.066 3.276 3.276 0 0 0-.262 1.087c-.016.362.051.71.203 1.044.159.333.423.636.791.909Zm20.567 6.082-8.203 6.99-.586-.688 7.606-6.48-3.96-4.648-7.606 6.48-.59-.693 8.203-6.989 5.136 6.028Zm2.822 11.955-.978.613c-.64.401-1.271.68-1.894.839a4.45 4.45 0 0 1-1.772.115 3.678 3.678 0 0 1-1.546-.585c-.469-.312-.874-.739-1.215-1.282a4.158 4.158 0 0 1-.618-1.64 3.758 3.758 0 0 1 .142-1.653 4.63 4.63 0 0 1 .867-1.557c.411-.497.936-.946 1.575-1.347l.978-.613c.64-.402 1.269-.68 1.888-.835a4.63 4.63 0 0 1 1.786-.107 3.75 3.75 0 0 1 1.55.592 4.1 4.1 0 0 1 1.204 1.263c.34.543.549 1.094.625 1.652a3.757 3.757 0 0 1-.142 1.653 4.535 4.535 0 0 1-.877 1.555c-.409.49-.934.935-1.573 1.337Zm-1.458-.152.991-.621a6.14 6.14 0 0 0 1.336-1.1c.355-.392.608-.805.761-1.239a2.81 2.81 0 0 0 .152-1.318 3.257 3.257 0 0 0-.499-1.338 3.148 3.148 0 0 0-.972-1.007 2.904 2.904 0 0 0-1.253-.437c-.455-.047-.938 0-1.45.14a6.134 6.134 0 0 0-1.572.725l-.991.621c-.543.341-.993.71-1.349 1.109a3.96 3.96 0 0 0-.76 1.254 2.902 2.902 0 0 0-.151 1.318c.054.45.217.89.487 1.32.28.447.61.791.988 1.031.378.241.794.385 1.249.431.459.045.941-.008 1.448-.157a6.245 6.245 0 0 0 1.585-.732Z" fill="#6A47DC"/><circle cx="131.661" cy="58.111" r="1" transform="rotate(-21.145 131.661 58.111)" fill="#6A47DC"/></svg>