<svg width="90" height="75" fill="none" xmlns="http://www.w3.org/2000/svg"><mask id="a" style="mask-type:luminance" maskUnits="userSpaceOnUse" x="0" y="24" width="90" height="26"><path d="M89.793 24H0v25.286h89.793V24Z" fill="#fff"/></mask><g mask="url(#a)" fill="#dfff"><path d="M2.548 25.105H.984v6.066h1.564v-6.066Z"/><path d="M2.548 31.17H.984v6.066h1.564v-6.065Zm0 6.067H.984v6.065h1.564v-6.065Zm0 6.065H.984v6.066h1.564v-6.066Zm6.806-5.189a10.1 10.1 0 0 1 1.466-.2 21.61 21.61 0 0 1 1.563-.056 9.68 9.68 0 0 1 1.657.144 4.73 4.73 0 0 1 1.531.533c.46.259.835.615 1.13 1.07.293.457.442 1.045.442 1.763 0 .676-.134 1.253-.4 1.73a3.397 3.397 0 0 1-1.066 1.167c-.442.3-.952.52-1.522.659a7.503 7.503 0 0 1-2.067.2 15.766 15.766 0 0 1-.831-.038 3.795 3.795 0 0 1-.296-.032v4.218H9.359V38.113h-.005Zm3.076 1.16c-.29 0-.568.005-.84.014a2.999 2.999 0 0 0-.632.08v4.268c.053.02.14.035.263.04.123.007.252.013.384.024.134.012.26.015.383.015h.281c.384 0 .764-.03 1.14-.088.374-.059.71-.17 1.018-.341a1.99 1.99 0 0 0 .738-.715c.187-.306.28-.703.28-1.192 0-.423-.09-.77-.272-1.047a1.974 1.974 0 0 0-.705-.65 2.994 2.994 0 0 0-.97-.326 7.362 7.362 0 0 0-1.068-.083Zm5.08 5.779c0-.697.09-1.323.272-1.876a3.8 3.8 0 0 1 .802-1.41 3.452 3.452 0 0 1 1.291-.885c.507-.203 1.086-.306 1.74-.306.681 0 1.281.112 1.794.338.512.227.94.539 1.282.942.342.403.594.873.761 1.418.167.54.249 1.135.249 1.78 0 .685-.094 1.302-.281 1.85a3.984 3.984 0 0 1-.802 1.4 3.418 3.418 0 0 1-1.283.885c-.506.203-1.08.306-1.72.306-.706 0-1.315-.112-1.828-.338a3.485 3.485 0 0 1-1.273-.933 3.901 3.901 0 0 1-.752-1.409 5.867 5.867 0 0 1-.252-1.762Zm1.601 0c0 .398.044.786.135 1.168.09.383.234.72.436 1.024.202.303.46.541.776.723.316.183.705.274 1.17.274 1.646 0 2.469-1.062 2.469-3.186 0-.417-.044-.82-.135-1.209a3.107 3.107 0 0 0-.427-1.02 2.308 2.308 0 0 0-.768-.718c-.316-.183-.696-.274-1.138-.274-.823 0-1.447.265-1.874.797-.43.527-.644 1.336-.644 2.421Zm14.66 3.636c-.374.268-.81.47-1.314.603a6.078 6.078 0 0 1-1.587.203c-.706 0-1.306-.109-1.803-.323a3.095 3.095 0 0 1-1.21-.9c-.31-.386-.532-.854-.673-1.4a7.451 7.451 0 0 1-.207-1.819c0-1.426.345-2.53 1.033-3.309.688-.777 1.68-1.168 2.971-1.168.566 0 1.057.05 1.476.153.415.103.79.23 1.12.38l-.38 1.206a4.3 4.3 0 0 0-2.02-.483c-1.73 0-2.593 1.074-2.593 3.221 0 .41.047.803.143 1.183.096.382.249.72.463 1.015.213.294.491.535.834.717.345.183.767.274 1.265.274a3.243 3.243 0 0 0 2.008-.627l.474 1.074Zm7.465 0c-.374.268-.81.47-1.314.603a6.078 6.078 0 0 1-1.587.203c-.705 0-1.306-.109-1.803-.323a3.094 3.094 0 0 1-1.21-.9c-.31-.386-.532-.854-.672-1.4a7.441 7.441 0 0 1-.209-1.819c0-1.426.346-2.53 1.034-3.309.688-.777 1.68-1.168 2.971-1.168.566 0 1.057.05 1.476.153.416.103.79.23 1.12.38l-.38 1.206a4.302 4.302 0 0 0-2.02-.483c-1.73 0-2.593 1.074-2.593 3.221 0 .41.047.803.144 1.183.096.382.248.72.462 1.015.21.294.492.535.837.717.346.183.767.274 1.265.274a3.38 3.38 0 0 0 1.17-.185c.335-.124.612-.27.835-.441l.474 1.073Zm7.304-4.248.225-1.673h-.176l-.785 1.576-3.94 4.927h-1.136v-8.454h1.476v4.99l-.111 1.482h.175l.738-1.433 3.861-5.039h1.154v8.452h-1.476V44.44h-.005Zm9.47 0 .226-1.673h-.176l-.784 1.576-3.94 4.927h-1.137v-8.454h1.473v4.99l-.111 1.482h.175l.738-1.433 3.862-5.039h1.153v8.452h-1.476V44.44h-.003Z"/><path d="m18.402 28.58.173-1.666h-.085l-.653 1.521-3.123 5.01h-.43l-3.312-5.024-.617-1.507h-.085l.24 1.648v7.466H9.172V24.932h1.063l3.758 5.674.565 1.236h.036l.532-1.268 3.586-5.642h1.116v11.093h-1.426v-7.446Zm9.56 2.756.052-.983h-.052l-.703 1.015-3.861 4.66h-.79v-7.925h1.372v4.833l-.052.935h.067l.67-.982 3.862-4.786h.804v7.925H27.96v-4.692h.003Zm9.263 1.188h-3.88v3.504h-1.372v-7.925h1.373v3.312h3.879v-3.312h1.373v7.925h-1.373v-3.504Zm11.722 5.516h-.928l-.257-2.012h-6.52v-7.925h1.373v6.816h3.724v-6.816h1.373v6.816h1.235v3.12Zm7.052-6.704.053-.983h-.053l-.703 1.015-3.861 4.66h-.79v-7.925h1.373v4.833l-.053.935h.07l.67-.982 3.862-4.786h.805v7.925h-1.373v-4.692Zm7.875 4.754c-.197.064-.399.1-.61.111a10 10 0 0 1-.573.015c-1.042 0-1.841-.339-2.403-1.015-.562-.677-.84-1.72-.84-3.139 0-1.353.307-2.37.927-3.06.618-.684 1.51-1.029 2.676-1.029.32 0 .594.021.823.065v-3.106h1.305v3.12a6.247 6.247 0 0 1 1.013-.08c1.133.001 1.985.304 2.556.913.57.61.857 1.615.857 3.018a6.48 6.48 0 0 1-.23 1.798c-.156.532-.381.985-.68 1.356-.298.37-.661.656-1.089.856-.43.2-.925.3-1.484.3-.103 0-.255-.009-.454-.024a1.955 1.955 0 0 1-.489-.088v3.092h-1.305v-3.104Zm-.84-.919a3.877 3.877 0 0 0 .858-.08v-6.006a4.709 4.709 0 0 0-.822-.062c-.71 0-1.263.245-1.659.739-.394.491-.59 1.259-.59 2.306 0 .444.043.856.128 1.236s.22.712.404.99c.182.28.416.498.694.651.278.15.609.227.986.227Zm2.898-6.15c-.138 0-.26.002-.37.008-.108.006-.242.03-.403.071v6.021c.114.021.243.036.386.039.144.006.302.009.472.009.732 0 1.284-.28 1.656-.842.372-.559.56-1.368.56-2.424 0-.897-.17-1.603-.507-2.115-.336-.509-.934-.767-1.794-.767Zm5.748-.918h.944l.257.95h.068c.263-.37.603-.653 1.021-.847a3.364 3.364 0 0 1 1.432-.294c1.144 0 1.996.311 2.555.935.56.624.84 1.644.84 3.06 0 .664-.093 1.264-.283 1.797a3.86 3.86 0 0 1-.8 1.356 3.47 3.47 0 0 1-1.244.856c-.485.2-1.027.3-1.622.3-.424 0-.758-.024-1.004-.07a4.216 4.216 0 0 1-.8-.248v3.298h-1.372V28.103h.009Zm3.467.918c-.583 0-1.045.14-1.382.42-.336.28-.573.706-.711 1.277v3.93c.205.147.44.262.703.341.263.08.611.118 1.047.118.79 0 1.417-.27 1.88-.815.463-.544.694-1.344.694-2.4 0-.433-.041-.827-.12-1.18a2.429 2.429 0 0 0-.387-.903 1.848 1.848 0 0 0-.684-.58c-.282-.138-.627-.208-1.04-.208Zm7.188 2.109a10.128 10.128 0 0 1 1.511-.112c.583 0 1.072.062 1.467.182s.711.289.951.5c.24.212.41.462.507.753.097.292.146.6.146.927 0 .962-.29 1.66-.866 2.091-.577.433-1.514.65-2.805.65-.732 0-1.493-.032-2.283-.093v-7.925h1.372v3.027Zm0 3.789a8.03 8.03 0 0 0 1.218.094c.72 0 1.224-.13 1.511-.389.287-.259.43-.626.43-1.1 0-.423-.14-.77-.42-1.047-.282-.274-.771-.412-1.468-.412-.196 0-.407.006-.635.015-.228.012-.44.041-.636.094v2.745Zm5.938-6.816h1.373v7.925h-1.373v-7.925Z" stroke="#dfff" stroke-width=".559" stroke-miterlimit="10"/></g></svg>