<svg width="268" height="36" fill="none" xmlns="http://www.w3.org/2000/svg"><g clip-path="url(#a)" fill="#6A47DC"><path fill-rule="evenodd" clip-rule="evenodd" d="M16.224 32.525a14.92 14.92 0 0 0 9.404-3.395c3.316-2.679 4.76-6.074 4.76-11.146 0-8.403-5.268-13.788-14.164-14.711v9.183a5.398 5.398 0 0 1 3.511 5.437 5.358 5.358 0 0 1-3.511 5.306v9.326Zm-14.113 0h14.113V23.2a5.83 5.83 0 0 1-2.003.338h-1.47V12.131h1.496a5.763 5.763 0 0 1 2.003.325V3.273a27.547 27.547 0 0 0-2.797-.143H2.137l-.026 29.395Zm44.925-5.424 2.602 5.41h12.291l-6.607-9.91a4.214 4.214 0 0 0-1.548-1.366v-.26a7.479 7.479 0 0 0 3.837-2.03 8.598 8.598 0 0 0 1.964-5.67 9.287 9.287 0 0 0-4.709-8.467 11.966 11.966 0 0 0-7.049-1.678h-.728v8.09a2.406 2.406 0 0 1 2.08 2.536 2.354 2.354 0 0 1-2.145 2.406l.012 10.94Zm-12.538 5.41h10.405v-9.416l.182-.091c.107.32.242.628.404.923l1.547 3.174V16.162c-.229.021-.46.021-.689 0H44.89v-4.968h2.146V3.13H34.498v29.382Z"/><path d="M70.24 23.278c-3.226 0-5.762 2.146-5.762 4.89 0 2.745 2.536 4.93 5.762 4.93 3.225 0 5.814-2.16 5.814-4.93 0-2.77-2.563-4.89-5.814-4.89Zm13.748 9.247H94.47V12.391l5.905.312V3.13H77.94v9.573l6.048-.312v20.134Zm20.043 0h10.276V22.302h6.555v10.223h10.262V3.13h-10.262v9.963h-6.555V3.13h-10.276v29.395Zm31.647 0h20.134v-8.064h-9.417v-2.823h8.273v-7.7h-8.273v-2.744h9.106V3.13h-19.823v29.395ZM170.184 3.13H159.48v29.395h10.704V3.13Zm3.212 27.145a26.02 26.02 0 0 0 11.291 2.692c7.439 0 12.719-4.357 12.719-10.483 0-4.37-2.601-7.271-7.257-8.325l-3.447-.715c-1.131-.26-1.664-.703-1.664-1.366 0-.962.923-1.587 2.327-1.587a10.52 10.52 0 0 1 6.178 2.303l2.862-7.531a17.296 17.296 0 0 0-9.04-2.51c-7.531 0-12.942 4.487-12.942 10.665 0 4.097 2.733 7.036 7.181 7.804l3.083.56c1.365.233 1.938.715 1.938 1.547s-1.107 1.717-2.603 1.717a11.06 11.06 0 0 1-6.165-2.198l-1.222-.95-3.239 8.377Zm25.469 0a26.015 26.015 0 0 0 11.29 2.692c7.44 0 12.734-4.357 12.734-10.483 0-4.37-2.601-7.271-7.272-8.325l-3.447-.715c-1.144-.26-1.664-.703-1.664-1.366 0-.962.923-1.587 2.329-1.587 2.249.08 4.413.888 6.165 2.303l2.874-7.531a17.3 17.3 0 0 0-9.039-2.51c-7.532 0-13.008 4.487-13.008 10.665 0 4.097 2.731 7.036 7.192 7.804l3.084.56c1.3.233 1.938.715 1.938 1.547s-1.106 1.717-2.602 1.717a11.034 11.034 0 0 1-6.178-2.198l-1.132-.95-3.264 8.377Zm39.773.728v-1.495l.079-.17v1.73l-.079-.155v.09Zm0-2.094v-1.6 1.379l-.078.078.078.143Zm0-2.276V24.5h.079v2.146l-.079-.104v.091Zm0-3.603v-3.16h.079v3.186l-.079-.065v.04Zm0-4.188v-2.458h.092v2.458h-.092Zm0-3.316v-2.12h.079v1.99l-.079.078v.051Zm0-2.368v-.364h.079v.312h-.079v.052Zm0-3.108v-.208l.079-.065v.338l-.079-.065Zm0-1.6v-.86l.079-.078v1.301a3.94 3.94 0 0 0-.079-.403v.039Zm0-1.119V6.76h.079v.572h-.079Zm0-1.144V4.444h.079v1.43a1.03 1.03 0 0 1-.079.222v.09Zm0-1.652v1.652a.477.477 0 0 1-.259.35.876.876 0 0 1-.652 0v-1.69c.254-.197.565-.302.886-.3l.025-.012Zm0 2.224v.572l-.597.313a1.124 1.124 0 0 0-.274.897c.104-.078.181-.182.377-.091.195.091.208.273.235.442.025.17-.221.442-.417.585l-.235.13v-2.38h.104c.253-.197.523-.371.807-.52v.052Zm0 .858c-.129.183 0 .495 0 .833v-.86.026Zm0 2.225v.208a.32.32 0 0 1-.104-.117l.104-.091Zm0 3.017v.3a2.207 2.207 0 0 0-.78 0c-.104.116 0 .246 0 .39l-.104.208V10.83c.229.055.434.183.585.364.125.14.211.309.248.492.036.183.021.373-.04.549a.971.971 0 0 1-.364.43l.481.103-.026.091Zm0 .637c-.312.274-.624.573-.911.872v2.497c.23-.48.538-.92.911-1.3v-2.16.091Zm0 2.979v2.367a1.311 1.311 0 0 1-.338-.455 1.65 1.65 0 0 1 0-1.522c.073-.156.186-.29.326-.39h.012Zm0 3.486v2.978a1.225 1.225 0 0 1-.494-.819c-.023-.28.037-.56.169-.806a2.244 2.244 0 0 0-.586-.352v-.26c.21.091.444.143.665.221.221.079-.079-.247 0-.403.012-.226.098-.44.246-.611v.052Zm0 4.604a.763.763 0 0 1-.195-.117 11.302 11.302 0 0 1-.716-1.717v2.341l.431.82c.017.303-.018.607-.104.897 0 .156-.079.078-.106.104-.025.026-.09-.208-.221-.338v2.81c.325-.107.631-.26.911-.456v-1.6a3.447 3.447 0 0 0-.455-.299l.156-.572c0-.065.078-.169.144-.104l.155.208V24.5v.065Zm0 5.034v1.404a1.46 1.46 0 0 1-.129-.858 2.35 2.35 0 0 1 .129-.637v.09Zm-.911-24.713v1.69l-.246-.116c-.377-.234-.313-.715-.755-.846.338-.195.663-.507 1.001-.728Zm0 2.484a1.3 1.3 0 0 1-.91 0c.079-.078.196-.065.247-.169.053-.104 0-.273 0-.403a.659.659 0 0 0-.481-.312c-.403 0-.676.3-.975.572-.299.273-.429.247-.495.494.482 0 .729.78 1.301.586.221-.117.235-.338.325-.508a.796.796 0 0 1 .625.092c-.417.338-.806.715-1.197 1.08a.673.673 0 0 1-.716.116c-.064-.065 0-.13 0-.195a.242.242 0 0 0 .056-.156.242.242 0 0 0-.056-.156c-.442-.17-.78.143-1.04.442a.481.481 0 0 0-.286.403c.338-.104.299.339.546.417a.48.48 0 0 0 .351 0c.118-.183.287-.339.221-.56.144-.078.339 0 .508 0 .169 0-.143.208-.234.312-.455.339-.612 1.145-1.301 1.054 0-.078.117-.13.091-.234-.027-.104-.169-.156-.259-.234-.404 0-.599.468-.782.845-.181.377.183.078.247.17.482.26.365-.508.807-.391 0 0 .077 0 0 .104-.365.56-.741 1.106-1.054 1.691-.13 0-.259-.104-.416 0a.633.633 0 0 0-.298.338 2.68 2.68 0 0 0 .104 1.3c.285-.415.767-.363 1.078-.701a.817.817 0 0 0 .17-.599c-.079-.182-.247-.208-.404-.234a1.61 1.61 0 0 1 .117-.338 6.39 6.39 0 0 1 .95-1.3c.104.13 0 .311 0 .454 0 .143-.415.287-.338.52.078.235.286.17.312.365a1.7 1.7 0 0 0 .559-.663.26.26 0 0 0 .016-.17.261.261 0 0 0-.094-.143.332.332 0 0 0-.273 0c-.091 0 0-.182 0-.273-.078-.728.755-1.053 1.171-1.522.09.078 0 .235 0 .352 0 .117-.429.09-.507.325-.079.234.272.507.363.806a1.311 1.311 0 0 0 .899-.937c0-.116-.092-.168-.17-.246-.077-.078-.274 0-.402.078a.118.118 0 0 1 0-.104c-.079-.885.948-1.132 1.482-1.587.104.078 0 .286 0 .416 0 .442-.287 0-.611.325a.349.349 0 0 0-.104.364c.09.286.519.43.468.768l.378-.208V7.227l.011.143Zm0 3.603v2.797a1.297 1.297 0 0 1-1.299.572c-.599 0-.99-.69-1.406-1.093a1.22 1.22 0 0 0-.689-.156v-.182c.274-.598.924-.663 1.301-1.118a2.024 2.024 0 0 1 1.872-.846h.17l.051.026Zm0 3.447c-.234.234-.455.481-.663.715a2.303 2.303 0 0 1-1.365.456c.066-.239.066-.49 0-.729a1.625 1.625 0 0 0-1.717-.65c-.924.208-1.054 1.105-1.651 1.457a2.128 2.128 0 0 0-.586 2.094l.845-.455c.364-.17.638.143.95.247.546.104 1.392.364 1.807-.235a1.21 1.21 0 0 0 .131-1.3c.347-.174.73-.26 1.118-.247a9.5 9.5 0 0 0-.714 2.731 1.693 1.693 0 0 1-.665.69s-.104.117-.168 0c-.066-.118 0-.352 0-.534-.183-.416-.599-.429-.963-.429a1.833 1.833 0 0 0-1.509 1.067 3.633 3.633 0 0 0-.352 2.484c.035.151.082.3.144.442.26-.221.572-.611.872-.546.584.156.975.429 1.508.208a1.217 1.217 0 0 0 .793-.78 1.302 1.302 0 0 0-.325-1.405c0-.247.325-.325.482-.508.156-.182.156-.104.208 0 .102.917.289 1.823.559 2.706a3.631 3.631 0 0 1-.52 1.3c-.181 0-.117-.22-.181-.325a.506.506 0 0 0-.586-.338 1.74 1.74 0 0 0-1.301.95c-.078.169-.416.82.13 2.601.075.327.236.629.468.872a4.025 4.025 0 0 1 1.886-.963 1.103 1.103 0 0 0 .612-1.132 1.306 1.306 0 0 0-.716-1.3c0-.286.196-.494.274-.742.077-.247-.001-.156.143-.156.234.482.429.989.623 1.483l.495.924V22.73a17.007 17.007 0 0 1-.391-1.3 1.03 1.03 0 0 1 0-.482c.129.013.255.039.378.078v-.26a1.127 1.127 0 0 1-.482-.377 6.894 6.894 0 0 1 .482-3.55v-2.563l-.053.143Zm0 12.187v2.81a2.339 2.339 0 0 0-.363.169c-.234.156-.26.416-.377.637a1.494 1.494 0 0 1-.508-.52 1.615 1.615 0 0 1-.299-1.17 1.642 1.642 0 0 1 .378-1.796 1.001 1.001 0 0 1 .988-.234.604.604 0 0 1 .221-.039l-.04.143Z"/><path d="M240.445 2.844a2 2 0 0 1 .964.26 1.01 1.01 0 0 1 .402.832.591.591 0 0 1-.045.308.583.583 0 0 1-.202.238h-.286c.208.274.586.313.871.469.69-.234 1.379-.456 2.095-.65v-.105a1.5 1.5 0 0 0-.637-.429 1.006 1.006 0 0 1-.859.572c-.429 0-.637-.442-.794-.754-.156-.312 0-.754-.285-1.054-.13-.169-.43-.325-.521-.533a5.524 5.524 0 0 1 2.004-.416c.31.06.603.189.857.377.257.212.432.506.495.833 0 .26.091.61-.234.728-.117 0-.234 0-.3.065.215.257.493.454.806.572.833-.169 1.731-.156 2.603-.286-.092-.26-.313-.598-.599-.65a.84.84 0 0 1-.689.416 1.147 1.147 0 0 1-1.094-.65 2.03 2.03 0 0 1 0-1.626c.066-.286-.194-.507-.351-.703a3.063 3.063 0 0 1 1.301-.195c.472.013.939.105 1.379.274a1.547 1.547 0 0 1 .937 1.222c0 .52 0 1.054-.546 1.223-.209 0-.351-.104-.521-.091 0 .234.247.39.378.585l.298.221c1.301 0 2.603.117 3.902.234a1.373 1.373 0 0 0-.442-.82c-.386.245-.846.35-1.301.3-.767-.273-.948-1.093-1.027-1.808-.078-.715.481-1.093.3-1.717a5.206 5.206 0 0 1 1.73.091 2.345 2.345 0 0 1 1.872 1.04c.118.281.184.581.196.885a1.475 1.475 0 0 1-.572 1.3c-.339.248-.599 0-.703 0 .082.362.252.697.493.976.867.32 1.714.688 2.537 1.106.124-.24.152-.52.079-.78-.17 0-.313.104-.495.065a1.006 1.006 0 0 1-.937-.625c-.207-1.183.352-1.678.871-2.406a.802.802 0 0 0 .066-.832 1.952 1.952 0 0 1 1.73 1.092 2.042 2.042 0 0 1 .807 2.055 2.113 2.113 0 0 1-.807 1.158c-.143.104-.274.104-.521 0l-.221-.247c-.181.208-.155.546-.208.832a7.909 7.909 0 0 1 1.666 1.691c.152.245.322.48.506.702a1.72 1.72 0 0 0 .365-1.027 1.225 1.225 0 0 1-.742-.26 1.195 1.195 0 0 1-.312-1.08c.078-1.027 1.21-1.3 1.443-2.25a3.98 3.98 0 0 0 0-.976 2.114 2.114 0 0 1 1.432 1.158c.169.468 1.301 1.574.793 2.836-.184.453-.54.817-.988 1.014-.417.078-.937.338-1.301-.169-.144.52-.52 1.028-.312 1.613a7.9 7.9 0 0 1 .533 1.938c0 .065.117 0 .183 0l.48-.43c.079-.233-.208-.194-.286-.338a1.304 1.304 0 0 1-.234-1.184c.416-1.092 1.757-.48 2.433-1.404.48.468.259 1.3.61 1.795a2.597 2.597 0 0 1-.077 1.548c-.071.21-.186.404-.34.565a1.528 1.528 0 0 1-.544.371 1.425 1.425 0 0 1-1.094-.13.643.643 0 0 1-.231-.211.633.633 0 0 1-.107-.296v-.43c-.29.152-.54.37-.727.638a8.412 8.412 0 0 1-.404 2.601.715.715 0 0 0 .494 0c.325 0 0-.299.104-.48a.975.975 0 0 1 .533-1.054c.638-.274 1.118.22 1.562.624.259.13.701-.156.844 0 .144.156-.104.676-.207.95-.274.754-.248 1.521-.988 2.028a1.447 1.447 0 0 1-1.107.209 1.47 1.47 0 0 1-.988-.91c-.047-.32.018-.647.182-.924-.299-.117-.56.09-.781.286a6.34 6.34 0 0 1-2.015 2.263c0 .13.195.156.285.195.182.074.376.11.573.104.234-.312.26-.741.651-.975a.86.86 0 0 1 .806-.13c.715.182 1.223.936 1.612 1.521.17.182.3 0 .404.157a3.91 3.91 0 0 1-1.001 1.404 2.07 2.07 0 0 1-2.108.416 1.64 1.64 0 0 1-.962-1.443.828.828 0 0 1 .129-.314.82.82 0 0 1 .248-.233 5.067 5.067 0 0 0-1.3-.377c-.704.341-1.436.624-2.185.846-.093.078 0 .182 0 .247a.914.914 0 0 0 .506.312 1.062 1.062 0 0 1 1.014-.625 1.31 1.31 0 0 1 1.028.456 2.956 2.956 0 0 1 .326 2.263 1.123 1.123 0 0 0 .546.871.187.187 0 0 1 0 .195c-1.131.612-1.834-.273-3.122-.325-.689 0-1.235-.962-1.301-1.704a.796.796 0 0 1 .196-.715.975.975 0 0 1 .689-.247v-.143a2.331 2.331 0 0 0-.585-.442c-.637.102-1.266.24-1.887.416a11.096 11.096 0 0 0-1.105 3.147c0 .287.352.378.559.508a.115.115 0 0 0 .076-.01.122.122 0 0 0 .055-.055 1.301 1.301 0 0 1 .559-1.405 1.031 1.031 0 0 1 .988 0c.43.306.792.695 1.067 1.145.32.522.827.903 1.418 1.066a3.6 3.6 0 0 1-1.587 1.17 1.8 1.8 0 0 1-1.913.715 1.3 1.3 0 0 1-.923-1 1.407 1.407 0 0 1 .247-1.132 1.624 1.624 0 0 0-.61-.403c-.12.28-.182.58-.183.884a4.676 4.676 0 0 0 2.342 4.11c.347.212.718.382 1.105.508.249-.153.43-.395.508-.677h-.417a.908.908 0 0 1-.805-.402.905.905 0 0 1-.066-.898c.676-1.171 2.042-1.301 3.03-2.134h.234c.156.287 0 .495 0 .898.066.741.338.82.547 1.3a1.31 1.31 0 0 1-.117 1.17 1.548 1.548 0 0 1-1.549.598 1.183 1.183 0 0 1-.519-.298 2.11 2.11 0 0 0-.365.625c.091.104.286.104.442.143a5.854 5.854 0 0 0 3.903-1.04c.194-.17.455-.3.546-.534a1.697 1.697 0 0 0-.221-1.106c-.195.195-.182.625-.533.664a1.097 1.097 0 0 1-.846-.17.93.93 0 0 1-.352-.455 2.771 2.771 0 0 1 .339-2.432 1.994 1.994 0 0 1 .793-1.457c.404.143.481.625.716.924.234.3.846.364 1.144.767a1.314 1.314 0 0 1 .352.95 1.304 1.304 0 0 1-.664 1.053c-.18.046-.367.046-.547 0 .016.33.101.654.247.95a7.809 7.809 0 0 0 1.848-1.652 7.8 7.8 0 0 0 .78-1.054 1.757 1.757 0 0 0-.48-.936c-.093 0-.131.182-.131.273a.693.693 0 0 1-.196.078c-.442.104-.767-.247-.988-.546a2.478 2.478 0 0 1-.194-1.717c.042-.344.181-.67.402-.936a1.3 1.3 0 0 1 .442-.469l.638.69h.611c.186.062.358.159.508.286.455.286.194 1.21-.17 1.47a1.759 1.759 0 0 1-.546.247c.091.208.377.741.612.845 0 0 .611-1.014.767-1.3.355-.438.569-.974.611-1.535 0-.26-.468-.547-.702-.69-.234-.143-.208.247-.351.312-.365.221-.703-.13-.833-.312-.338-.468-.117-.962-.352-1.639a.64.64 0 0 1 .157-.65c.141.034.274.096.391.182.268-.02.537-.02.806 0a.98.98 0 0 1 .832.872.789.789 0 0 1-.248.637l-.298.169c.091.26.351.637.533.585.677-.195.728-1.3.832-1.99 0-.312-.442-.533-.702-.754-.259-.221-.13.221-.299.247-.702.17-1.144-.65-1.144-.91.06-.521.168-1.035.325-1.535.077-.364.689.234 1.04.35.352.118.897.833.429 1.367l-.208.143c0 .09.065.182.144.273.077.091.221.091.325.195.442.39.39-1.3.455-1.834l-.312-.377c-.104-.091-.143-.221-.287-.3-.143-.077-.208.222-.389.235a.863.863 0 0 1-.599-.273.755.755 0 0 1-.274-.56c.027-.438.091-.874.197-1.3 0-.104.155 0 .246 0l.273.208.442.13a1.1 1.1 0 0 1 .429.507v.221c-.064.195-.259.338-.285.482-.027.143.208.286.377.429.429.416.259-1.158.169-1.808 0-.3-.338-.443-.703-.52-.155 0 0 .22-.429.104-.181-.066-.221-.182-.312-.352a2.54 2.54 0 0 1-.103-.546 1.91 1.91 0 0 1 .155-.598c.13-.351.638.22.95.377.311.156.104.3.064.455a.587.587 0 0 1-.181.286c-.131.143.221.235.351.338.13.105.13 0 .143-.078a3.685 3.685 0 0 0-.143-1.677c-.066-.208-.378-.325-.586-.404-.207-.078 0 .156 0 .248 0 .09-.402 0-.598-.195a.923.923 0 0 1-.233-.391.933.933 0 0 1-.015-.455v-.182l.183.104c.202-.026.409-.026.611 0 .117 0 .143.182.169.325.027.143-.064.208-.064.338 0 .13.142.17.272.195.469.104-.234-1.001-.338-1.495 0-.182-.298-.3-.481-.39-.182-.092 0 .286-.169.35a.284.284 0 0 1-.234 0 .975.975 0 0 1-.3-.233 1.712 1.712 0 0 1-.208-1.12c0-.13.183.157.69.079.221 0 .404.3.313.442l-.13.247c.142 0 .13.221.338.17.208-.053-.3-1.002-.625-1.548-.065-.091-.169.195-.325.169-.157-.026-.429.09-.495-.807a2.39 2.39 0 0 1 0-.507l-.13-.624c.221.041.434.111.638.208.285.104.402.312.702.416a.5.5 0 0 1 .169.741c-.091.13-.455.117-.403.248.325.767.599 1.3.677 1.521 0 0 .181-.065.221-.143.039-.078-.118-.169-.182-.247a.384.384 0 0 1-.041-.175c0-.061.013-.121.041-.176.091-.17.338-.143.455-.273l.312.468s.208.637-.078.728c-.286.091-.209-.09-.326-.182-.117-.09-.168.182-.168.3a5.39 5.39 0 0 0 .546 1.794c0 .156.194-.338.221-.494.026-.156-.469-.234-.235-.637a.377.377 0 0 1 .469-.195.59.59 0 0 0 .274-.26l.285.468c.123.254.16.542.104.82 0 .13 0 .324-.208.415a.426.426 0 0 1-.429 0c-.104-.065-.077-.208-.104-.312-.026-.104-.208.338-.247.56-.04.22.168.975.181 1.456 0 .13.261-.156.365-.247.104-.09-.155-.22-.155-.364a.468.468 0 0 1 .232-.442c.213-.1.445-.14.678-.117.129 0 .208-.156.286-.26.077-.104.09.572.181.871.092.3-.104.43-.168.65l-.234.287-.495.143a.273.273 0 0 1-.221-.183v-.364c0-.09-.299.17-.338.338-.04.818.004 1.637.13 2.446 0 .208.325-.247.482-.416.156-.17-.301-.339-.287-.547v-.39l.13-.234a1.77 1.77 0 0 1 .585-.286h.716l.261-.117c.073.168.112.35.117.533a2.99 2.99 0 0 1-.106 1.014l-.181.39c-.104.105-.168.235-.312.313a.794.794 0 0 1-.599 0l-.169-.17v-.298c-.208 0-.325.195-.48.299l-.261.364c0 .598-.064 1.17-.117 1.782 0 .143.325-.078.416-.195v-.3a1.067 1.067 0 0 1 .209-.676.89.89 0 0 1 .754-.364l.988.156.377-.104a.87.87 0 0 1 0 .65c-.077.586-.377.69-.455 1.132a.897.897 0 0 1-.91.65.862.862 0 0 1-.846-.338c-.091-.169.183-.494-.155-.377-.573.17-.508.65-.612 1.04a23.884 23.884 0 0 0-.416 1.548c0 .143.272 0 .389 0a.447.447 0 0 0 .339-.234c0-.104-.118-.169-.156-.26a.682.682 0 0 1 .014-.448.682.682 0 0 1 .285-.345c.218-.14.47-.216.729-.221.298 0 .533.273.793.39.308.146.65.204.988.169.351 0-.064.69-.221.976-.285.52-.65 1.144-1.301 1.235a1.182 1.182 0 0 1-1.222-.611c-.091-.143 0-.3 0-.442 0-.144-.703 0-.833.299-.078 0-.624 1.482-.949 2.185 0 .117.142 0 .221.078l.586-.065c.064-.117-.092-.195 0-.325.091-.13 0-.664.363-.846 1.08-.637 1.666.91 2.784.755.625-.078-.247 1.3-.858 1.664-.338.221-.781.273-1.106.573-.325.299-.911.065-1.3-.221a.877.877 0 0 1-.338-.898c0-.143.221-.208.259-.338.039-.13-.676-.117-.845.091-.521.65-1.431 1.99-2.147 2.952h.183c.312 0 .65.092.91-.064-.09-.248-.09-.52 0-.768a1.128 1.128 0 0 1 1.366-.56 4.235 4.235 0 0 1 1.522.911.934.934 0 0 0 .82.078c.948-.234-.963 1.795-1.809 2.433a1.894 1.894 0 0 1-2.029 0c-.325-.248-.572-.378-.598-.885-.025-.507.273-.572.313-.793-.378.078-.782-.104-1.133.078-.65.715-1.521 1.3-2.21 1.938.229.14.48.245.74.312.131-.312.235-.729.625-.872a1.588 1.588 0 0 1 1.744.482 5.959 5.959 0 0 0 1.299 1.495c-.13.3-.442.352-.623.599a2.762 2.762 0 0 1-2.276.871 1.648 1.648 0 0 1-1.405-.897 1.436 1.436 0 0 1 0-1.093c.104-.169.338-.13.377-.325a1.55 1.55 0 0 0-1.133-.3c-.933.408-1.924.67-2.939.781.218.259.453.502.703.729.102-.163.224-.311.364-.443a1.632 1.632 0 0 1 1.3-.143 1.544 1.544 0 0 1 .95 1.3c0 .508.429 1.497 1.014 1.692a2.385 2.385 0 0 1-2.185.546c-.741-.286-1.781.13-2.34-.806a1.63 1.63 0 0 1-.3-1.223.735.735 0 0 1 .169-.295.737.737 0 0 1 .287-.186c.116-.078.259 0 .376-.117a3.214 3.214 0 0 0-1.053-1.08 8.894 8.894 0 0 1-2.173-.624.249.249 0 0 0-.039.13c0 .046.015.092.039.13.06.196.153.381.274.546a1.304 1.304 0 0 1 1.132.078c.18.122.319.295.401.497.08.201.099.422.054.635-.065.403-.338.728-.299 1.145l.169.559c-.754.182-1.3-.455-1.965-.468a2.054 2.054 0 0 1-1.365-.963 1.301 1.301 0 0 1 .117-1.223 1.124 1.124 0 0 1 .91-.429c.13 0 .274.17.365.078a2.603 2.603 0 0 0-.429-1.066 7.33 7.33 0 0 1-1.795-1.678c-.152.197-.23.44-.221.69.217.078.426.178.624.298a1.099 1.099 0 0 1 .351 1.132c-.104.65-.82 1.066-1.301 1.379-.129 0-.259.377-.259.377-.455-.156-.612-.676-.937-.989a2.028 2.028 0 0 1-.806-2.172 1.295 1.295 0 0 1 .676-.82 1.193 1.193 0 0 1 1.197.17c.117 0 .078.234.234.26a1.71 1.71 0 0 0 .259-.69 8.151 8.151 0 0 1-.988-2.809h-.194c-.236.15-.445.334-.625.546 0 .183.247.13.338.235.312.273.612.598.481 1.027-.13.43-.572.742-.95.976-.377.234-.793 0-1.065.234a1.5 1.5 0 0 1-.846.468c-.182 0-.248-.247-.351-.39a4.673 4.673 0 0 1-.339-3.174 1.59 1.59 0 0 1 1.419-.767 1.077 1.077 0 0 1 1.065.56v.467c.117 0 .221-.078.325-.13l.665-.78c.104-.832.234-1.678.363-2.497 0-.13.079-.313 0-.378a1.966 1.966 0 0 0-.871.378 1.153 1.153 0 0 1 .287.949c0 .364-.34.585-.599.794-1.301 1.079-2.368-.534-3.681 0a.977.977 0 0 1 0-.989c.65-.872.65-2.16 1.86-2.718a1.79 1.79 0 0 1 1.417 0c.198.01.387.078.546.195a1.126 1.126 0 0 1 .092 1.3 1.306 1.306 0 0 0 .911-.468c.481-.598.285-1.391.442-2.094a21.295 21.295 0 0 0-2.693-2.42.756.756 0 0 0-.584.586 1.303 1.303 0 0 1 1.222.728 1.134 1.134 0 0 1-.131 1.158 2.251 2.251 0 0 1-1.756.663 1.825 1.825 0 0 0-1.3.807 1.73 1.73 0 0 1-.338-.924c-.066-.507.142-1.001 0-1.495a1.742 1.742 0 0 1 .195-1.561 1.071 1.071 0 0 1 1.092-.273 1.451 1.451 0 0 1 .755.884l.455-.533c-.091-.195-.325-.26-.495-.39l-1.091-.443a4.48 4.48 0 0 0-2.707.078V12.56a11.622 11.622 0 0 1 1.679-.235c.078 0 0-.103 0-.156a2.202 2.202 0 0 0-.806-.65c-.131.377-.521.442-.807.533h-.066v-3.16c.347-.026.695.032 1.015.169.286.096.541.267.739.496.196.23.328.507.38.804a1.05 1.05 0 0 1-.13.56c-.117.234-.364.325-.482.494.387.38.825.705 1.302.963a8.53 8.53 0 0 1 2.028.624c0-.143 0-.312-.066-.455a1.926 1.926 0 0 0-.285-.625.876.876 0 0 1-.716.195 1.09 1.09 0 0 1-.897-.754 2.614 2.614 0 0 1-.117-1.002c0-.637.703-1.144.261-1.781a1.934 1.934 0 0 1 1.73.195c.481.312 1.131.234 1.482.806a1.836 1.836 0 0 1 .235 1.587c-.17.364-.352.845-.781 1.014a.912.912 0 0 1-.625-.09c.076.498.273.972.573 1.378.689.494 1.405.937 2.094 1.496 0 0 .142.117.195 0a1.731 1.731 0 0 0 0-1.028c-.442 0-1.041.078-1.301-.35a1.352 1.352 0 0 1-.237-.633 1.354 1.354 0 0 1 .095-.668 6.931 6.931 0 0 1 1.299-1.6c.274-.287.091-.846.3-1.197 1.079.208 1.43 1.392 1.976 2.185a2.161 2.161 0 0 1-.168 2.458.912.912 0 0 1-1.08.222c-.13 0-.259-.404-.338-.091-.062.44-.003.89.17 1.3.297.293.623.554.974.78a14.445 14.445 0 0 0 2.121-.39 7.333 7.333 0 0 0 1.379-.416.94.94 0 0 0-.02-.431.939.939 0 0 0-.214-.375c-.117 0-.117.117-.209.156a1.302 1.302 0 0 1-1.3.403c-.82-.338-.676-1.639-.559-1.912.117-.273.519-.598.532-1.014a11.869 11.869 0 0 1 0-1.51c.131-.09.235 0 .365 0 .729.066 1.014.898 1.938 1.028a1.506 1.506 0 0 1 1.014 1.015 1.293 1.293 0 0 1-.637 1.444c-.26.13-.547.143-.781.26.143.22.222.494.351.728.444-.065.755-.468 1.171-.611a4.262 4.262 0 0 0 1.574-5.034 1.15 1.15 0 0 0-.885-.156c-.017.175.03.35.131.494a1.167 1.167 0 0 1-.078 1.093 1.3 1.3 0 0 1-1.131.442 3.021 3.021 0 0 1-1.861-1.3 1.73 1.73 0 0 0-1.053-.3.12.12 0 0 1-.033-.04.125.125 0 0 1-.011-.05c0-.018.004-.035.011-.051a.12.12 0 0 1 .033-.04 2.863 2.863 0 0 1 1.184-1.484c.311-.403.702-.884 1.299-.78.599.104 1.054.247 1.302.728.127.286.155.607.077.91.246.075.51.075.755 0 .078-.116 0-.22-.09-.337a6.794 6.794 0 0 0-3.383-3.083 1.443 1.443 0 0 0-.729.364c0 .078-.155.091-.155.195 0 .104.195 0 .312 0a.93.93 0 0 1 .438.236.931.931 0 0 1 .251.428c0 .741-.754 1.3-1.301 1.626a8.368 8.368 0 0 1-3.003.182c.181-.39.663-.872.636-1.145 0-.611-.13-1.47.508-1.912a1.633 1.633 0 0 1 1.43-.221.536.536 0 0 1 .442.494c.312-.073.584-.258.769-.52a12.384 12.384 0 0 0-2.199-.546 10.421 10.421 0 0 0-1.679-.117c-.253.25-.464.54-.623.858.195.104.429-.156.676 0 .247.156.312.247.325.69 0 .689-.325.936-.897 1.3a4.776 4.776 0 0 1-1.301.65h-.975c-.117-.13.077-.208.09-.338.144-.793-.728-1.391-.221-2.172a1.5 1.5 0 0 1 1.613-.637.749.749 0 0 1 .416.351c.239-.194.4-.466.455-.767a20.99 20.99 0 0 0-2.705.104c-.273.065-.625 0-.742.364a1.874 1.874 0 0 0-.221.533c0 .078.144 0 .248 0 .364 0 .429.273.455.546a1.21 1.21 0 0 1-.429.976c-.457.29-.951.518-1.469.676a1.4 1.4 0 0 0-.078-.884c0-.286-.34-.26-.34-.625a.88.88 0 0 1 .716-.793.783.783 0 0 1 .586.104c.165-.175.27-.398.298-.637-.115-.117-.285 0-.429 0l-1.299.338c-.261.078-.287.351-.431.533a3.43 3.43 0 0 0-.234.533c.117.079.234-.104.378 0 .143.105.287.65.169.963-.39.585-1.144.43-1.639.806h-.195c.286-.403-.182-.715-.143-1.144a.999.999 0 0 1 .195-.664.727.727 0 0 1 .78-.182c.092 0 .143.195.247.143a1.44 1.44 0 0 0 .248-.767 9.83 9.83 0 0 0-1.613.546v-.637c.455-.208.91-.377 1.301-.611a1.57 1.57 0 0 0-.82-.404c-.077 0 0 .17-.091.248a.727.727 0 0 1-.428.312V2.844h-.197Zm0 12.63v3.823c.299.189.57.416.807.676.364-.26.312-.689.3-1.21 0-.819.442-1.755-.105-2.484a2.266 2.266 0 0 0-.845-.728h-.157v-.078Zm0 16.101c.232-.184.441-.394.625-.624a1.013 1.013 0 0 0-.143-1.17.933.933 0 0 0-.482-.339v2.133Zm0-2.822c.56.533 1.185 1.119 1.77 1.639.051.222.051.454 0 .676-.117.312-.274-.169-.455-.09a1.048 1.048 0 0 0-.586.819 1.367 1.367 0 0 0 .637 1.3.786.786 0 0 0 .559.455c-.208-.52.43-.65.638-.975a1.006 1.006 0 0 0 .144-1.002.463.463 0 0 0-.313-.286h-.456c-.13 0 0-.429.196-.546.533.273 1.002.69 1.521 1.015.128.236.195.5.196.767-.105.117-.196 0-.313-.078-.117-.078-.48.364-.519.637a.927.927 0 0 0 .311.859c.625.22.767.637 1.301.676.533.04 0-.221 0-.39 0-.17.599-.481.599-.846a.819.819 0 0 0-.56-.728.714.714 0 0 0-.52.078.9.9 0 0 1-.157-.663s0-.078.093-.065c.506.22 1.014.455 1.52.715l.235.364c0 .143.169.3.077.43-.208-.079-.442.182-.493.39-.221.871.767.455 1.144 1.027a.417.417 0 0 0 .482 0c-.157-.364.078-.741 0-1.118a.618.618 0 0 0-.338-.377.552.552 0 0 0-.495.078.687.687 0 0 1-.183-.534h.144c.559.286 1.197.416 1.756.664.124.134.211.3.247.48 0 .118-.156 0-.273 0-.338.105-.182.56 0 .69a1.054 1.054 0 0 0 1.131.312c-.195-.338.287-.806-.195-1.027-.156-.078-.298 0-.442 0-.143 0-.196-.221-.104-.338l1.561.299.273.234c.142.22-.182.078-.26.208a.635.635 0 0 0 0 .312c.143.351.585.234.884.221.066 0 .157 0 .183-.078.025-.078 0-.273-.066-.429-.064-.156-.155-.156-.247-.182-.091-.026-.195.065-.299 0-.104-.065-.156-.117-.077-.195a14.434 14.434 0 0 1 1.677 0c.299.156.078.494.247.56.663.246.962-.131 1.379-.352.091 0 .221-.117.221-.221-.429-.182-.767-.572-1.222-.677-.457-.104-.378 0-.521.117-.144.118.13.352 0 .352a6.496 6.496 0 0 1-1.743-.182c0-.104.13-.118.196-.17.064-.052.181 0 .259.078.377.17.391-.325.702-.403a1.65 1.65 0 0 0-1.171-.247.329.329 0 0 0-.168.195c0 .13.117.182.157.286-.612.547-1.367 0-1.991-.156-.077 0 0-.104 0-.13.378-.338.559.313.911 0 .351-.312.156-.52.455-.559-.429-.104-.911-.598-1.301-.312-.39.286-.339.312-.208.507.13.195.104 0 .09.091-.013.091-.221.13-.363.143-.43.091-.702-.273-1.093-.338-.181-.104-.429-.143-.546-.312.144-.182.416-.17.624-.195.209-.026.183.338.417.39.533 0 .519-.598.937-.741-.391-.17-.794-.664-1.185-.56-.39.104-.521.17-.559.442-.039.274.234.196.065.339a1.963 1.963 0 0 1-.78.104 5.883 5.883 0 0 1-1.302-.742c0-.234.338-.169.521-.208.182-.039.078.287.248.39a.644.644 0 0 0 .559 0c.155 0 .208-.208.221-.35.013-.144.364-.196.52-.339-.195-.143-.429-.208-.611-.325a.926.926 0 0 0-.95-.286c-.156 0-.377.234-.273.455.103.221.117.13.13.221a1.094 1.094 0 0 1-.703.117 8.562 8.562 0 0 1-1.717-1.43 1.31 1.31 0 0 1 .625-.183c.144 0 0 .17.078.26a.64.64 0 0 0 .508.494c.312 0 .937-.559 1.496-.494a.115.115 0 0 0 .023-.071.115.115 0 0 0-.023-.072c-.391-.364-.612-.793-1.015-1.131a.872.872 0 0 0-.742-.13c-.208.09-.494.247-.546.494-.052.247.091.3.182.403.091.104-.221.117-.338.156-.117.04-.469.091-.676 0a6.874 6.874 0 0 1-1.496-1.638c.224-.047.453-.047.676 0a1.006 1.006 0 0 0 .846.78c.448-.06.856-.288 1.144-.638.131-.116.365 0 .546-.103a2.157 2.157 0 0 0-.91-.807 1.168 1.168 0 0 0-1.301-.533.885.885 0 0 0-.597.533c0 .208.142.312.194.494a1.18 1.18 0 0 1-.897 0l-.221-.234v1.301l.064.169Zm0-2.315c.141.073.298.114.456.117.885 0 1.184-1.067 1.99-1.3-.156-.534-.819-.73-1.184-.99a1.847 1.847 0 0 0-1.3-.676v2.849h.038Zm0-3.421a4.04 4.04 0 0 1 .663-.338c.21-.13 1.054.169 1.054.169a11.674 11.674 0 0 0-1.717-2.835v3.004Zm-1.599-19.51c.325-.247.689-.3 1.093-.546.157-.08.331-.12.506-.117v2.419h-.077a.975.975 0 0 1-.846-.416c-.325-.313-.299-.742-.546-1.08a.234.234 0 0 0-.117-.078v-.195l-.013.013Zm1.599 10.587a1.662 1.662 0 0 0-.376.183c-.3.22-1.002.364-.846.923.059.252.174.488.338.69a1.102 1.102 0 0 1 .884-.469v3.876a2.328 2.328 0 0 0-.351-.195c-.221 0-.312.091-.597 0a3.58 3.58 0 0 1-.651-.195v-2.601c.14-.037.284-.059.428-.066.066-.116 0-.234 0-.35a2.84 2.84 0 0 0-.363-.52v-2.576l.598.117c.26-.065.481-.234.742-.286l.26-.078v1.547h-.066Zm0-2.068a.988.988 0 0 1-.936-.286c-.403-.455-.403-1.131-.663-1.639v-.559a3.17 3.17 0 0 1 1.599-.663v3.147Zm0-5.723v-.637l-.506.221a1.77 1.77 0 0 1-.95-.286c0-.065.104-.091.157-.117a.41.41 0 0 0 .104-.403 1.31 1.31 0 0 0-.404-.612v1.366c.156 0 .3.104.442.13.143.026.183 0 .169.13a4.63 4.63 0 0 1-.611.417v.559l.546-.286s.143-.078.196 0c.051.078 0 .325-.144.429-.156.338-.325 0-.572.104v1.574c.457-.2.891-.444 1.301-.729a.722.722 0 0 0 .091-.689.42.42 0 0 0-.338-.273c-.104 0-.183.143-.287.09a1.8 1.8 0 0 1 .468-.87l.352-.144-.014.026Zm0 13.657v3.005a1.411 1.411 0 0 1-1.299.247 2.844 2.844 0 0 1-.338-.182v-3.278a1.588 1.588 0 0 1 1.416.117l.183.143.038-.052Zm0 3.577v2.849a1.296 1.296 0 0 1-.532-.508 1.502 1.502 0 0 1-.195-.884 1.302 1.302 0 0 0-.872-.143V24.5l.442.09c.156 0 .325.079.455 0a.526.526 0 0 1-.117-.467.987.987 0 0 1 .781-.572l.038-.014Zm0 3.902c-.338-.377-.623-.793-.923-1.196a11.24 11.24 0 0 1-.676-1.145v1.704c.357.543.756 1.057 1.197 1.535.025.317-.034.635-.17.923-.143 0-.168-.156-.272-.22a.56.56 0 0 0-.755.103v2.393c.09.443.702.729 1.144.872.008-.166.051-.33.13-.476.08-.146.191-.272.325-.37v-2.12h-.207c-.144-.156-.065-.455 0-.65.064-.195 0-.156.103-.143l.131.117v-1.3l-.027-.027Zm-1.599 1.132v-.95c.086.188.125.393.117.599a.812.812 0 0 1-.117.364v-.013Zm-.131-24.973.131-.104v.195a.383.383 0 0 1-.131 0v-.091Zm.131 15.27-.131-.078v-2.445h.131v2.6-.077Zm0-3.525h-.131V13.34l.131-.091v2.146-.052Zm0-2.198-.131-.065v-.286h.131v.35Zm0-3.005a.449.449 0 0 0-.117-.104v-.338l.13-.09v.584l-.013-.052Zm0-1.183-.104.065a2.072 2.072 0 0 0 0-.273V7.448h.13v1.574l-.026-.065Zm0-1.847-.131.078v-.572l.131-.065v.559Zm0-1.236h-.131v-1.43l.131.064v1.366Zm0 13.865v3.33l-.131-.078v-3.174a.411.411 0 0 1 .131 0v-.078Zm0 4.8v.35h-.078l.078.183v1.704l-.117-.17V24.5h.13l-.013.039Zm0 3.07v.962l-.131.156v-1.3c.052.064.095.133.131.207v-.026Zm0 1.534v2.393a.303.303 0 0 1 0-.104.852.852 0 0 0-.117-.377v-1.717a.926.926 0 0 1 .117-.182v-.013Z"/></g><defs><clipPath id="a"><path fill="#fff" transform="translate(.705 .052)" d="M0 0h266.39v35.128H0z"/></clipPath></defs></svg>