<svg width="382" height="42" fill="none" xmlns="http://www.w3.org/2000/svg"><path d="m359.341 30.57 12.441.002-6.196-16.033c-.463 1.119-3.917 10.112-6.245 16.031Zm9.456-19.854 12.396 30.292h-5.173l-2.939-7.13h-15.092l-2.803 7.125h-5.123l12.631-30.29 6.103.003Zm-28.908 30.288-4.85-.002L331.5 18.03l-9.786 22.972-4.427-.001-9.966-22.973L303.959 41l-4.894-.002 5.134-30.29h4.847l10.479 24.982 10.672-24.98 4.896.002 4.796 30.291Zm-70.28-26.71-.002 13.096c2.984-.045 11.838-.607 11.838-7.081 0-3.73-2.42-6.247-7.31-6.247-1.353 0-3.03.14-4.526.231Zm-4.705-3.592s4.056-.65 9.231-.65c8.245.003 12.389 4.196 12.389 9.742 0 4.614-2.935 7.317-6.38 8.946l10.195 12.256h-6.332l-8.526-10.719c-2.375.515-4.568.654-5.874.7l-.002 10.015H264.9l.004-30.29Zm-11.636 30.29-21.849-.004.002-30.29 20.689.003v3.964l-15.608-.002-.004 8.573 12.719.002v3.82h-12.719v10.018l16.771.003-.001 3.913Zm-75.751-.012-21.344-.002.004-30.29h5.084l-.007 26.517 16.262.002.001 3.773Zm-54.688-10.443h12.438l-6.188-16.031c-.472 1.12-3.919 10.11-6.25 16.031Zm9.461-19.856 12.393 30.297h-5.173l-2.935-7.135-15.098-.002-2.8 7.133h-5.122l12.629-30.292h6.106ZM97.78 36.22V22.89h4.29l-.005 15.517s-4.238 3.305-11.833 3.305c-10.766 0-17.146-6.105-17.146-15.797.002-9.55 7.173-15.888 17.285-15.888 6.391 0 10.44 1.495 10.44 1.495v3.817s-4.66-1.395-9.552-1.395c-8.25-.002-13.002 4.84-13.005 11.97 0 7.504 5.22 11.744 12.256 11.746 3.027 0 5.492-.698 7.27-1.442Zm-80.238-8.105c-1.568-2.703-4.485-4.523-7.833-4.523-5.003 0-9.061 4.053-9.061 9.058-.005 5.002 4.052 9.06 9.056 9.063 3.353 0 6.27-1.82 7.836-4.526 1.57-2.67 4.719-4.445 8.065-4.44 3.344 0 6.395 1.77 7.966 4.442a9.054 9.054 0 0 0 7.843 4.526c5.002.002 9.056-4.054 9.058-9.06 0-5-4.054-9.059-9.056-9.059a9.058 9.058 0 0 0-7.845 4.521c-1.566 2.672-4.622 4.445-7.966 4.445-3.346 0-6.492-1.773-8.063-4.447Zm17.126-18.108a9.059 9.059 0 0 1-18.117-.005c0-5.001 4.056-9.057 9.056-9.057 5 0 9.06 4.058 9.06 9.062Zm178.927 15.928c.002-7.035-4.944-11.741-12.627-11.743-1.813 0-3.961.139-5.874.28v22.785c1.677.141 3.679.28 5.919.28 7.407.002 12.582-4.566 12.582-11.602ZM190.02 10.693s4.656-.647 10.948-.647c10.535 0 17.937 6.105 17.935 15.89 0 9.691-7.171 15.797-17.89 15.795-5.869 0-10.995-.744-10.995-.744l.002-30.294Z" fill="#6A47DC"/></svg>