<svg width="35" height="34" fill="none" xmlns="http://www.w3.org/2000/svg"><circle cx="17.5" cy="17" r="16.956" fill="#fff"/><path d="M11.59 9.528c-.195.199-.307.507-.307.907v14.252c0 .4.112.708.306.906l.048.044 8.191-7.983v-.189l-8.19-7.983-.049.046Z" fill="url(#a)"/><path d="m22.555 20.316-2.727-2.662v-.189l2.73-2.662.061.034 3.234 1.794c.923.51.923 1.347 0 1.86l-3.234 1.79-.064.035Z" fill="url(#b)"/><path d="m22.62 20.281-2.792-2.722-8.24 8.034c.307.314.807.352 1.375.038l9.656-5.35Z" fill="url(#c)"/><path d="m22.62 14.837-9.657-5.35c-.568-.311-1.068-.273-1.375.041l8.24 8.031 2.791-2.722Z" fill="url(#d)"/><defs><linearGradient id="a" x1="19.101" y1="24.835" x2="8.289" y2="13.746" gradientUnits="userSpaceOnUse"><stop stop-color="#00A0FF"/><stop offset=".007" stop-color="#00A1FF"/><stop offset=".26" stop-color="#00BEFF"/><stop offset=".512" stop-color="#00D2FF"/><stop offset=".76" stop-color="#00DFFF"/><stop offset="1" stop-color="#00E3FF"/></linearGradient><linearGradient id="b" x1="27.055" y1="17.558" x2="11.061" y2="17.558" gradientUnits="userSpaceOnUse"><stop stop-color="#FFE000"/><stop offset=".409" stop-color="#FFBD00"/><stop offset=".775" stop-color="orange"/><stop offset="1" stop-color="#FF9C00"/></linearGradient><linearGradient id="c" x1="21.101" y1="16.079" x2="6.439" y2="1.041" gradientUnits="userSpaceOnUse"><stop stop-color="#FF3A44"/><stop offset="1" stop-color="#C31162"/></linearGradient><linearGradient id="d" x1="9.514" y1="30.335" x2="16.062" y2="23.62" gradientUnits="userSpaceOnUse"><stop stop-color="#32A071"/><stop offset=".069" stop-color="#2DA771"/><stop offset=".476" stop-color="#15CF74"/><stop offset=".801" stop-color="#06E775"/><stop offset="1" stop-color="#00F076"/></linearGradient></defs></svg>