<svg width="237" height="51" fill="none" xmlns="http://www.w3.org/2000/svg"><path d="M153.731 25.785v12.773c-1.223 2.756-4.217 6.65-9.739 6.65-6.199 0-10.143-4.973-10.143-13.781 0-9.278 4.964-12.645 10.345-12.645 3.67 0 8.503 2.147 9.525 6.991l.012.012Zm.392 17.606v5.583h9.596v-.61c-3.195-1.619-3.337-4.164-3.337-7.39V.438h-.547l-9.251.868v.61c2.862 1.888 3.064 3.964 3.064 7.131v10.357c-2.245-3.296-5.987-5.114-10.891-5.114-8.849 0-15.797 7.331-15.797 18.427 0 10.416 6.473 17.148 15.452 17.148 5.511 0 9.668-3.026 11.711-6.451v-.023Zm66.452-12.305c8.719 11.577 11.782 14.791 15.928 17.278v.61h-10.072c-4.014-5.114-7.221-9.349-9.941-12.914-7.423 9.278-8.302 10.486-6.533 12.304v.61h-10.488v-.61l13.683-16.667c-9.87-12.915-10.76-13.923-13.884-15.73v-.61h9.466a1413.37 1413.37 0 0 0 8.647 11.636c4.905-5.982 7.827-9.278 5.309-11.025v-.61h10.274v.61l-12.389 15.13v-.012Zm-47.176.34c0 7.93 4.015 14.393 12.186 14.252 4.016-.07 8.101-1.408 10.215-3.566h.404v3.495c-3.195 3.495-7.899 4.504-12.115 4.504-11.308 0-17.495-7.46-17.495-17.418 0-11.494 6.532-18.485 16.07-18.485 9.537 0 15.119 6.451 14.776 17.207h-24.029l-.012.012Zm16.616-3.635c0-6.182-3.408-9.818-8.241-9.818-4.835 0-7.626 3.226-8.243 9.818h16.484ZM88.169 15.627v-.61l9.466-.868h.202v6.721c2.043-3.964 6.2-6.65 11.64-6.65 6.948 0 12.043 4.164 12.043 13.242v13.442c.072 3.366-.273 5.712 2.589 7.46v.61h-11.782v-.61c2.72-1.889 2.388-4.164 2.447-7.46V29.339c0-6.252-2.245-9.947-8.231-9.818-3.61.07-6.734 2.288-8.718 6.393v14.99c.072 3.366-.202 5.712 2.447 7.46v.61H88.763v-.61c2.791-1.889 2.316-4.164 2.387-7.53V23.357c0-3.366-.13-5.853-2.993-7.73h.012Zm-6.603-1.478v26.954c.07 3.296-.131 5.443 2.387 7.19v.669H72.586v-.61c2.66-1.818 2.245-4.164 2.316-7.46V23.814c0-4.105-.07-6.322-2.993-8.198v-.61l9.668-.868-.011.011Zm-4.086-3.694c2.518 0 4.56-1.947 4.56-4.434 0-2.486-2.042-4.434-4.56-4.434s-4.49 1.948-4.49 4.434c0 2.487 2.043 4.434 4.49 4.434Zm-30.774 5.313v-.47l9.466-.879h.202v6.522c1.64-3.155 5.107-6.721 9.264-6.721 1.022 0 1.841 0 2.59.34l-.202 6.65h-.547c-.89-.867-1.84-1.348-3.266-1.348-3.409 0-5.784 1.947-7.827 6.052v14.92c.071 3.366-.404 5.641 2.447 7.53v.61H47.395v-.67c2.862-1.888 2.173-4.104 2.316-7.459V23.1c0-3.366-.071-5.442-2.993-7.33h-.012Zm-7.221-4.305h-.677c-4.015-3.835-8.373-5.512-14.158-5.512-10.273 0-16.889 7.659-16.889 19.693 0 11.366 7.625 19.834 18.659 19.834 3.409 0 5.107-.34 8.373-1.349V33.773c0-3.297-.677-5.983-3.943-7.53v-.61h11.034v22.05C35.827 48.892 30.993 50.1 25.41 50.1 8.117 50.17.22 40.552.22 26.23c0-14.32 10.131-25.123 24.978-25.123 4.834 0 8.92.668 14.3 2.627v7.73h-.012Z" fill="#6A47DC"/></svg>