<svg width="252" height="76" fill="none" xmlns="http://www.w3.org/2000/svg"><path fill-rule="evenodd" clip-rule="evenodd" d="M251.708 62.295h-8.34l-9.046-13.037h-16.337v13.037h-6.953v-48.15h8.343l32.333 48.15Zm-33.723-19.99V24.401l11.644 17.902h-11.644ZM11.115 12.501c-3.63 3.732-6.355 8.344-8.105 13.365a36.975 36.975 0 0 0-2.085 12.26c0 5.549 1.163 10.897 3.348 15.694 1.714 3.769 4.085 7.188 6.842 10.172v-51.49Zm17.21 25.633L59.66 6.96C53.263 2.811 46.23.584 38.409.584c-3.48 0-6.954.543-10.083 1.412v72.637c2.954 1.045 6.489 1.342 9.967 1.342 7.82 0 14.676-2.144 21.321-6.377L28.326 38.135Zm18.947-8.344 25.182 25.175c2.175-4.203 3.877-10.372 3.884-17.278.003-3.017-.476-6.094-1.2-8.908-1.665-6.474-5.025-12.19-9.67-17.006L47.272 29.791Zm140.986 8.344 21.205 24.16h-9.558l-20.515-24.16 20.515-23.99h9.558l-21.205 23.99Zm-75.447 0 21.38 24.16h-9.733l-20.515-24.16 20.515-23.99h9.733l-21.38 23.99Zm43.891 5.47c-.513.19-1.364.55-1.784.55l14.914 18.14h-8.868l-19.295-24.16h8.863c4.519 0 8.347-3.825 8.347-8.518 0-4.694-3.828-8.518-8.347-8.518h-8.863v41.196h-6.783v-48.15h15.646c3.999 0 8.087 1.717 10.867 4.497 2.784 2.784 4.523 6.779 4.523 10.956 0 4.17-1.739 7.994-4.523 10.778-1.39 1.56-2.787 2.36-4.697 3.23Zm15.909-29.46h6.781v48.15h-6.781v-48.15Zm-75.62 0h6.779v48.15h-6.78v-48.15Z" fill="#6A47DC"/></svg>