<svg width="45" height="45" fill="none" xmlns="http://www.w3.org/2000/svg"><g clip-path="url(#a)"><rect width="45" height="45" rx="6.75" fill="url(#b)"/><g filter="url(#c)" fill-rule="evenodd" clip-rule="evenodd" fill="#fff"><path d="M22.513 12.766c2.11 0 3.836 1.719 3.836 3.82v1.427h-7.672v-1.427c0-2.101 1.726-3.82 3.836-3.82Zm3.836 14.216v1.428c0 2.1-1.727 3.82-3.836 3.82-2.11 0-3.836-1.72-3.836-3.82v-1.428h7.672ZM12 22.497a3.832 3.832 0 0 1 3.82-3.82h6.368v7.64h-6.369a3.832 3.832 0 0 1-3.82-3.82Zm21.037 0a3.831 3.831 0 0 0-3.82-3.82h-6.369v7.64h6.369c2.1 0 3.82-1.719 3.82-3.82Z"/></g><g filter="url(#d)" fill-rule="evenodd" clip-rule="evenodd" fill="#fff"><path d="M11.514 8.789a2.725 2.725 0 0 0-2.725 2.724V13.8a.791.791 0 0 1-1.582 0v-2.286a4.307 4.307 0 0 1 4.307-4.306h2.285a.791.791 0 0 1 0 1.582h-2.285Zm21.973 0a2.725 2.725 0 0 1 2.724 2.724V13.8a.791.791 0 0 0 1.583 0v-2.286a4.307 4.307 0 0 0-4.307-4.306h-2.285a.791.791 0 1 0 0 1.582h2.285ZM11.514 36.21a2.725 2.725 0 0 1-2.725-2.724V31.2a.791.791 0 1 0-1.582 0v2.285a4.307 4.307 0 0 0 4.307 4.306h2.285a.791.791 0 1 0 0-1.582h-2.285Zm21.973 0a2.725 2.725 0 0 0 2.724-2.724V31.2a.791.791 0 0 1 1.582 0v2.286a4.307 4.307 0 0 1-4.306 4.306h-2.285a.791.791 0 0 1 0-1.582h2.285Z"/></g></g><defs><filter id="c" x="-13.613" y="-.406" width="72.262" height="70.688" filterUnits="userSpaceOnUse" color-interpolation-filters="sRGB"><feFlood flood-opacity="0" result="BackgroundImageFix"/><feColorMatrix in="SourceAlpha" values="0 0 0 0 0 0 0 0 0 0 0 0 0 0 0 0 0 0 127 0" result="hardAlpha"/><feOffset dy="12.44"/><feGaussianBlur stdDeviation="12.806"/><feColorMatrix values="0 0 0 0 0 0 0 0 0 0 0 0 0 0 0 0 0 0 0.12 0"/><feBlend in2="BackgroundImageFix" result="effect1_dropShadow_4001_941"/><feBlend in="SourceGraphic" in2="effect1_dropShadow_4001_941" result="shape"/></filter><filter id="d" x="-18.405" y="-5.965" width="81.811" height="81.81" filterUnits="userSpaceOnUse" color-interpolation-filters="sRGB"><feFlood flood-opacity="0" result="BackgroundImageFix"/><feColorMatrix in="SourceAlpha" values="0 0 0 0 0 0 0 0 0 0 0 0 0 0 0 0 0 0 127 0" result="hardAlpha"/><feOffset dy="12.44"/><feGaussianBlur stdDeviation="12.806"/><feColorMatrix values="0 0 0 0 0 0 0 0 0 0 0 0 0 0 0 0 0 0 0.12 0"/><feBlend in2="BackgroundImageFix" result="effect1_dropShadow_4001_941"/><feBlend in="SourceGraphic" in2="effect1_dropShadow_4001_941" result="shape"/></filter><linearGradient id="b" x1="-1.169" y1="46.169" x2="40.714" y2="-5.584" gradientUnits="userSpaceOnUse"><stop stop-color="#4667D9"/><stop offset=".521" stop-color="#EA3B90"/><stop offset="1" stop-color="#F4AB68"/></linearGradient><clipPath id="a"><path fill="#fff" d="M0 0h45v45H0z"/></clipPath></defs></svg>