<svg width="245" height="31" fill="none" xmlns="http://www.w3.org/2000/svg"><path d="M107.33.072h16.514c3.304 0 6.67.133 9.711 1.651 1.786.927 2.64 3.037 2.64 4.956.067 1.451-.262 2.974-1.189 4.163-1.188 1.518-3.036 2.378-4.688 3.304 2.774.793 5.877 1.981 7.133 4.822 1.189 3.37.134 7.925-3.371 9.51-2.578 1.323-5.547 1.39-8.388 1.452h-18.295c0-1.256 0-2.511.067-3.767 1.322-.2 3.237.33 4.096-.993.53-4.097.134-8.322.263-12.418-.067-2.84.329-5.681-.397-8.455-1.322-.263-2.64-.33-3.962-.397-.134-1.317-.134-2.573-.134-3.828Zm12.881 12.35c2.182-.133 4.559-.066 6.474-1.188 1.585-1.585 1.652-4.426.196-6.145-1.915-1.518-4.493-1.122-6.737-1.255 0 2.845 0 5.748.067 8.589Zm0 3.767v9.84c2.311-.067 4.688.067 6.87-.926 3.037-1.719 2.64-7.066-.659-8.322-2.048-.658-4.163-.525-6.211-.592ZM.072.072h19.617c2.774.066 5.681.262 8.059 1.785 1.981 1.189 2.974 3.566 2.84 5.81-.066 1.452-.462 3.037-1.584 4.097-1.323 1.322-3.17 1.785-4.956 2.377 1.719.597 3.829 1.19 4.56 3.104 1.055 3.103-.597 6.803 1.518 9.644 1.518-1.256 1.785-3.304 1.847-5.152h2.975c-.263 2.244-.2 4.622-1.39 6.603-.659 1.122-1.914 1.848-3.17 2.115-2.244.53-4.755.53-6.87-.659-1.189-.659-2.182-1.785-2.64-3.103-1.055-3.037.597-6.407-.926-9.377-.2-.53-.726-.597-1.19-.792-1.914-.53-3.962-.33-5.943-.33.067 3.237-.263 6.474.463 9.644 1.322.067 2.64.134 3.896.134v3.767H.005v-3.767c1.322-.067 2.64-.2 3.962-.33.793-6.602.263-13.21.33-19.88.067-.725-.2-1.518-.926-1.785C2.316 3.58 1.127 3.714 0 3.647.072 2.583.072 1.327.072.072Zm12.814 3.833v8.522c1.981-.066 3.962.2 5.944-.262 1.055-.263 2.244-.726 2.707-1.848.725-1.585.2-3.304-.067-4.956-2.573-1.59-5.681-1.59-8.584-1.456ZM48.02.005h8.784C59.315 7.6 61.626 15.263 64.2 22.859c.33.793.397 1.786 1.19 2.378.992.725 2.243.792 3.432.926v3.633H52.307c0-1.256 0-2.511-.067-3.7 1.39-.263 2.974.134 4.096-.926-.2-1.719-.86-3.37-1.389-5.018h-8.584c-.53 1.652-1.189 3.237-1.452 4.956 1.056 1.055 2.64.725 3.963.993v3.7h-13.01v-3.767c1.055-.067 2.048-.134 3.104-.2 1.585-2.579 2.31-5.482 3.303-8.322A462.101 462.101 0 0 1 48.02.005Zm2.578 7.07c-.993 3.104-1.982 6.207-3.037 9.248h6.011a303.327 303.327 0 0 0-2.974-9.248Zm19.55-3.237V.071c4.755 0 9.51.067 14.199 0 3.896 6.87 7.596 13.87 11.492 20.74V7.405c0-1.055 0-2.244-.597-3.17-1.256-.397-2.64-.33-3.963-.463 0-1.256.067-2.512.067-3.767h13.473c-.067 1.255.067 2.51-.067 3.7-1.189.133-2.444.067-3.499.596-.463.86-.397 1.848-.463 2.774v22.721h-9.181a3907.513 3907.513 0 0 0-12.15-22.124c-.068 5.481-.135 10.962.066 16.447 0 .66.33 1.39 1.055 1.652 1.055.33 2.115.134 3.237.263V29.8H70.082v-3.7c1.255-.067 2.578-.134 3.829-.53.658-1.122.463-2.445.53-3.7-.067-4.822 0-9.711 0-14.533 0-1.122-.134-2.182-.53-3.237-1.19-.263-2.507-.196-3.763-.263ZM152.375.072h8.852c2.377 7.395 4.755 14.795 7.066 22.19.329.993.658 2.049 1.322 2.908.926.926 2.378.725 3.566.993v3.7h-16.576c0-1.256 0-2.511.067-3.767a75.876 75.876 0 0 0 4.096-.53c-.329-1.848-.926-3.633-1.451-5.352-2.908 0-5.748-.067-8.651 0-.659 1.786-1.189 3.633-1.389 5.481l3.895.396v3.767h-13.009v-3.767c1.188-.2 2.707.067 3.566-1.055.993-1.652 1.451-3.566 2.115-5.352 2.172-6.536 4.354-13.072 6.531-19.612Zm-.262 16.246c1.981 0 3.962.067 5.944 0-.994-3.103-1.915-6.273-2.908-9.376a195.233 195.233 0 0 0-3.036 9.376ZM176.089.072h15.784c0 1.188 0 2.377.067 3.633-1.056.262-2.182.53-3.237.86 1.188 2.047 2.578 3.895 3.962 5.81 1.585-1.848 3.17-3.7 4.493-5.749-1.055-.33-2.048-.659-3.103-.993 0-1.189 0-2.377.066-3.633h13.144c0 1.189 0 2.378.067 3.566-1.122.33-2.244.53-3.304 1.055-.793.397-1.389 1.122-1.915 1.848-2.115 2.378-4.029 4.889-6.01 7.395 2.84 3.567 5.414 7.334 8.321 10.9.926 1.122 2.511 1.189 3.896 1.39v3.7h-16.71v-3.83c1.055-.066 2.048-.195 3.103-.262-.658-2.64-2.64-4.56-4.096-6.737-1.451 1.72-3.103 3.371-4.225 5.352-.33.463-.067 1.19.463 1.39.726.2 1.451.262 2.182.463v3.633h-13.674v-3.767c1.452-.262 3.17-.2 4.292-1.451 2.707-2.908 5.018-6.145 7.529-9.248-2.444-3.17-4.755-6.474-7.266-9.577-.993-1.189-2.511-1.719-3.896-2.244 0-1.127 0-2.316.067-3.504Zm35.798 0h16.972v3.7c-1.189.2-2.377.396-3.566.659 1.255 2.773 3.036 5.352 4.755 7.925 1.451-2.182 3.237-4.225 4.426-6.67.133-.33.396-.659.329-.993-.859-.792-2.048-.792-3.103-.993 0-1.189 0-2.444.067-3.633h12.613c0 1.189 0 2.377.067 3.633-1.255.396-2.578.726-3.7 1.518-.859.597-1.255 1.585-1.848 2.445-2.115 3.303-4.425 6.474-6.273 9.973-.463 2.774-.262 5.615.263 8.322 1.451.2 2.907.262 4.425.33 0 1.188 0 2.377-.066 3.566h-17.832V26.22c1.322-.133 2.84.2 4.029-.596.86-1.452.726-3.17.726-4.756-.067-1.255.2-2.578-.396-3.766-.597-1.19-1.39-2.311-2.115-3.433-1.652-2.578-3.17-5.285-5.018-7.73-1.122-1.451-3.037-1.847-4.688-2.377-.067-1.113-.067-2.302-.067-3.49Z" fill="#6A47DC"/></svg>