<svg width="71" height="51" fill="none" xmlns="http://www.w3.org/2000/svg"><g clip-path="url(#a)" fill="#fff"><path d="M37.124 46.246a.143.143 0 1 0 .016.286c.168-.01.334-.023.502-.036l-.016-.287c-.168.013-.334.028-.502.037Zm30.058-30.678.116 2.045c.635-.395 1.267-.847 1.562-1.526.38-.87.107-1.87-.168-2.778-.13.922-.76 1.683-1.509 2.26h-.001Zm1.546 6.942c.514-.797.407-1.83.281-2.77-.234.758-.81 1.34-1.488 1.772l.11 1.93c.438-.232.833-.522 1.099-.934l-.002.002Zm-.95-12.882c.233-.919-.197-1.862-.614-2.713.011.52-.139 1.014-.387 1.47l.148 2.592c.388-.388.72-.822.854-1.347l-.001-.002Zm.056 16.567c-.012.025-.027.051-.04.075l.026.464c.008-.182.01-.362.014-.541v.002Zm-1.11-2.338c.303-.123.613-.254.906-.41l-.11-1.93c-.267.17-.55.32-.835.446-.434.191-.884.344-1.334.5l.109 1.91c.42-.176.843-.346 1.264-.516Zm-.423-12.319c.21-.179.422-.366.619-.563l-.148-2.591c-.277.513-.678.978-1.11 1.371-.312.287-.65.546-.987.808l.13 2.28c.49-.445.997-.874 1.498-1.305H66.3Zm.849 17.352c.507-.58.63-1.373.666-2.157l-.026-.465c-.423.81-1.25 1.325-2.13 1.637l.103 1.805c.527-.17 1.026-.407 1.385-.82h.002Zm-.398-13.016c-.552.36-1.151.65-1.721.98l.12 2.1c.638-.422 1.293-.82 1.946-1.217l.2-.123-.117-2.045c-.139.108-.281.21-.428.305ZM62.295 5.195a7.481 7.481 0 0 0-.26-1.962l.174 3.052c.054-.36.085-.724.086-1.09Z"/><path d="m65.46 24.372-.11-1.91c-.598.21-1.192.428-1.727.764-.157.1-.3.203-.433.307l.106 1.858c.7-.38 1.427-.71 2.165-1.018l-.002-.001Zm-.49 5.557c.263-.064.531-.134.792-.219l-.103-1.805c-.15.054-.301.1-.452.144-.57.158-1.16.252-1.74.372l.106 1.854c.465-.12.933-.233 1.399-.346h-.002Zm-.43 4.356c.7-.639.862-1.663.982-2.604-.404.644-1.068 1.05-1.798 1.299l.1 1.742c.26-.107.504-.246.714-.437h.001Zm.265-21.439-.13-2.28c-.542.417-1.08.837-1.511 1.364-.25.304-.438.604-.582.894l.128 2.242c.616-.809 1.338-1.533 2.096-2.22h-.001Zm-1.643 9.351a.379.379 0 0 0-.057-.175l.02.354a.379.379 0 0 0 .037-.18Zm-.359-5.493a.376.376 0 0 0-.042-.749h-.003l.042.749h.004Zm1.13.91a4.486 4.486 0 0 0-1.013 1.261l.098 1.725c.655-.613 1.377-1.148 2.13-1.646l-.12-2.1c-.386.224-.76.466-1.095.76Z"/><path d="m63.573 30.274-.105-1.855c-.505.104-1.002.227-1.47.434a4.803 4.803 0 0 0-.705.38l.097 1.702c.713-.26 1.445-.47 2.185-.661h-.002Zm-1.251 7.159c-.16.173-.343.315-.537.438l.046.813c.203-.395.353-.83.491-1.251Zm-.063-2.366c.529-.066 1.08-.146 1.567-.346l-.099-1.742a6.293 6.293 0 0 1-1.019.247c-.39.062-.785.093-1.183.123l.103 1.796c.21-.027.42-.052.63-.08l.001.002Zm.426-15.648a25.802 25.802 0 0 0-.157-2.816c.07.064.166.102.27.097l-.043-.748a.366.366 0 0 0-.286.175c-.028-.232-.056-.466-.09-.696.007.014.014.03.022.042.097-.14.2-.275.303-.411l-.127-2.242a3.641 3.641 0 0 0-.396 1.457 26.921 26.921 0 0 0-.705-2.797c.035.008.07.018.107.016a.375.375 0 1 0-.3-.624 26.83 26.83 0 0 0-.49-1.337h.016c.002-.001.005.002.007.004v-.004c.214-.05.364-.426.46-.592a7.61 7.61 0 0 0 .928-2.663l-.174-3.052A7.57 7.57 0 0 0 60.753.614c.285.988.17 2.046-.043 3.051-.213 1.005-.52 1.996-.62 3.018-.043.433-.044.874.014 1.306l-.026-.037.074 1.3c.089.03.175.058.256.09.349.856.657 1.733.919 2.633a.372.372 0 0 0-.612.308.376.376 0 0 0 .729.1c.179.656.335 1.321.465 1.997-.271-.524-.753-1.1-1.555-1.577l.112 1.957c.572.26 1.13.549 1.658.889.1.7.172 1.41.216 2.129a.369.369 0 0 0-.188-.044.375.375 0 0 0 .043.748.364.364 0 0 0 .18-.065c.023.58.029 1.156.015 1.73-.145-.662-.555-1.5-1.517-2.25-.077-.061-.158-.115-.238-.17l.125 2.205a12.54 12.54 0 0 1 1.587 1.217 27.147 27.147 0 0 1-.221 2.182.371.371 0 0 0-.614.307c.012.206.19.364.396.353a.368.368 0 0 0 .12-.032 26.52 26.52 0 0 1-.334 1.65c-.005-.566-.176-1.313-.73-2.09l.143 2.493c.128.145.255.291.375.443-.09.337-.188.673-.293 1.006l.045.784a27.9 27.9 0 0 0 .267-.818.372.372 0 0 0 .332.176.375.375 0 0 0-.043-.749.392.392 0 0 0-.131.035c.054-.19.105-.382.156-.573.469-.35.966-.653 1.477-.93l-.106-1.859a4.1 4.1 0 0 0-.99 1.103 27.32 27.32 0 0 0 .325-2.151.37.37 0 0 0 .6-.104l-.02-.355a.374.374 0 0 0-.34-.177.384.384 0 0 0-.184.067c.029-.316.05-.634.068-.952.12-.125.248-.244.374-.363l-.098-1.725c-.1.187-.179.37-.237.547l.001.002Z"/><path d="m61.63 35.145-.102-1.796c-.711.053-1.423.1-2.1.311-.036.01-.069.024-.103.036l.101 1.783a36.51 36.51 0 0 1 2.204-.334Zm-.768 4.658c.432-.265.733-.666.966-1.12l-.046-.813c-.634.393-1.421.54-2.192.55l.099 1.734c.415-.037.817-.134 1.172-.35h.001ZM59.148 7.027a4.93 4.93 0 0 1-1.406-1.181l.152 2.665c.562.355 1.516.506 2.265.747l-.074-1.301c-.246-.37-.556-.718-.936-.93h-.001Zm1.407 15.99c-.555-.598-1.252-1.034-1.926-1.5l.133 2.35c.837.66 1.643 1.354 2.346 2.149l-.142-2.494a4.846 4.846 0 0 0-.411-.503v-.002Zm.279 5.518a.37.37 0 0 0-.681.226c.012.206.19.365.395.353.029-.002.053-.013.078-.021a26.823 26.823 0 0 1-.951 2.175c.177-.664.184-1.786-.662-3.038l.18 3.159c.079.124.16.248.231.376-.061.118-.126.236-.19.353l.032.549c.004-.009.01-.018.015-.026a.372.372 0 0 0 .714-.171.376.376 0 0 0-.395-.353c-.015 0-.026.008-.041.01.09-.17.177-.34.264-.512a12.397 12.397 0 0 1 1.565-.683l-.097-1.702c-.23.15-.43.312-.602.475.196-.48.377-.968.546-1.46l-.045-.783c-.11.36-.23.717-.357 1.072l.001.001Zm-.646-15.828c-.655-.359-1.38-.548-2.102-.752l.11 1.93c.769.265 1.534.547 2.273.88l-.112-1.958c-.057-.033-.109-.067-.17-.1Zm-1.841 3.834.118 2.063c.783.416 1.56.846 2.299 1.33l-.126-2.205c-.705-.485-1.52-.798-2.29-1.188Zm-.037 25.303c-.22.177-.465.307-.723.405l.044.77c.263-.363.48-.776.679-1.175Zm-1.2-7.974.064 1.142a3.645 3.645 0 0 0-.065-1.143Z"/><path d="M58.472 40.14c.4.026.816.048 1.218.013l-.1-1.733c-.11.001-.22 0-.328-.003-.635-.02-1.27-.121-1.903-.18l.105 1.838c.336.02.673.041 1.01.064l-.002.002Zm.521-11.94c-.625-.91-1.556-1.563-2.305-2.377l-.036-.04.153 2.69c.878.91 1.718 1.855 2.39 2.918l-.18-3.159-.02-.032h-.002Zm-1.937-16.568A5.81 5.81 0 0 1 55.808 11l.116 2.033c.379.205.798.355 1.206.492.354.118.71.238 1.064.36l-.11-1.93a13.682 13.682 0 0 1-1.03-.323h.002Zm.9 4.703c-.83-.472-1.619-1.143-1.96-2.015l.158 2.777c.408.484 1.001.817 1.572 1.118l.737.39-.118-2.062a8.71 8.71 0 0 1-.389-.208Zm-.027 4.666c-.859-.694-1.626-1.641-1.668-2.745a1.666 1.666 0 0 0-.034.082l.208 3.658c.288.304.63.571.963.824.457.345.914.691 1.365 1.047l-.134-2.348c-.24-.165-.476-.335-.7-.518Zm-1.006-16.82c-.078.712-.157 1.43-.086 2.143.07.712.305 1.428.78 1.963.074.083.168.156.274.223l-.152-2.664a3.938 3.938 0 0 1-.816-1.663v-.002Zm1.59 29.21a.372.372 0 1 0-.343.549c-.15.234-.302.464-.46.694a3.33 3.33 0 0 0-.519.632l.045.795a14.24 14.24 0 0 1 2.19-.58l-.101-1.784a4.66 4.66 0 0 0-.924.418c.303-.47.591-.953.865-1.444l-.031-.549c-.23.429-.469.854-.72 1.27h-.002Zm-1.05 6.685-.105-1.839a6.922 6.922 0 0 0-1.403-.013 4.96 4.96 0 0 0-.812.16l.093 1.628a29.29 29.29 0 0 1 2.227.064Zm-.946 3.896c.462-.195.818-.544 1.113-.953l-.043-.77c-.683.258-1.47.266-2.215.154l.1 1.749c.36.006.712-.04 1.044-.18Zm.597-8.582a3.14 3.14 0 0 0 .062-.377l-.065-1.142c-.08-.375-.22-.78-.448-1.21-.509-.962-1.342-1.71-1.991-2.587l.178 3.131c.676.918 1.303 1.868 1.77 2.905-.331.416-.672.824-1.024 1.22l-.035.037a.37.37 0 0 0-.377-.28.356.356 0 0 0-.112.025l.04.704.031.008-.028.03.022.39c.348-.364.689-.736 1.018-1.118a.37.37 0 0 0 .376.279.371.371 0 0 0 .011-.742c.136-.164.27-.332.4-.5.097-.037.195-.07.293-.103l-.045-.795c-.026.041-.054.083-.076.124Z"/><path d="M55.87 13.894c-.219.922-.43 1.94 0 2.784.08.154.177.292.287.421l-.159-2.776a2.505 2.505 0 0 1-.127-.429Zm-.433 8.971c-.49.812-.998 1.716-.844 2.651.132.807.731 1.447 1.304 2.03.303.309.605.617.907.928l-.153-2.69c-.734-.805-1.332-1.838-1.215-2.92Zm.374-1.862c.122.38.348.704.623.994l-.209-3.658c-.353.853-.694 1.789-.414 2.664ZM54.599 9.557c-.068.945-.113 1.982.448 2.746.23.313.535.542.874.726l-.115-2.032c-.535-.367-.981-.839-1.21-1.442l.003.002Zm-.493 34.395c.446.098.912.192 1.368.2l-.1-1.747a9.695 9.695 0 0 1-.234-.039c-.68-.126-1.346-.345-2.02-.5l.109 1.897c.292.062.584.126.875.19h.002ZM53.29 36.7a6.694 6.694 0 0 0-.529-1.21l.249 4.362c.376-.58.733-1.669.28-3.152Zm-.201 4.075a.364.364 0 0 0-.038-.14l.016.288a.389.389 0 0 0 .022-.148Zm.543 5.537a2.796 2.796 0 0 1-.249.094l.01.177c.082-.09.16-.18.239-.27v-.001Zm.551-7.515c-.47.282-.793.616-.993.91-.06.053-.122.105-.185.159l.021.36.013-.01c.725-.135 1.46-.19 2.198-.202l-.093-1.629c-.067.02-.135.04-.198.062.064-.066.127-.134.19-.201l-.022-.39c-.302.321-.613.636-.931.941Zm.65-1.314a.367.367 0 0 0 .28.333l-.04-.704a.373.373 0 0 0-.24.37v.001Zm-.19-7.446c-.652-.892-1.15-2.005-.905-3.082-.578.752-1.186 1.59-1.14 2.538.04.817.561 1.52 1.064 2.165.4.512.8 1.024 1.186 1.547l-.178-3.131-.03-.037h.003Z"/><path d="M51.368 47.932c.82-.124 1.463-.72 2.026-1.347l-.01-.176c-.711.232-1.492.145-2.228-.09l.093 1.626c.04-.002.078-.007.117-.013h.002Zm1.624-8.053.017-.026-.249-4.362c-.315-.584-.676-1.148-.959-1.747-.47-1-.748-2.187-.305-3.199-.42.373-.856.773-1.168 1.231l.19 3.342.015.031c.83 1.623 1.69 3.262 2.09 5.04-.324.267-.653.526-.99.777.009-.036.018-.071.016-.11a.376.376 0 0 0-.748.043.37.37 0 0 0 .353.347c-.122.087-.247.17-.37.257l.105 1.85c.751.102 1.5.25 2.246.409l-.108-1.898a6.507 6.507 0 0 0-1.22-.181 4.915 4.915 0 0 0-.825.037 26.77 26.77 0 0 0 1.268-.942c.001.014-.006.026-.006.039a.375.375 0 0 0 .727.105l-.016-.287a.38.38 0 0 0-.277-.203l.254-.208-.021-.361-.018.014-.001.002Zm-3.959 7.433c.695.349 1.447.702 2.214.631l-.093-1.627a6.5 6.5 0 0 1-.726-.284c-.534-.246-1.042-.556-1.561-.84l.12 2.097.044.023h.002Zm-.409-13.887c-.138.09-.277.18-.415.276l.042.723a2.74 2.74 0 0 1 .373-1Zm1.268-.603c-.113.8.254 1.578.622 2.296l-.19-3.342a2.47 2.47 0 0 0-.432 1.046Zm.424 9.071c-.63.21-1.077.537-1.359.836l-.203.117c.456-.521.962-1.542.736-3.064-.162-1.092-.713-2.087-1.032-3.146a6.225 6.225 0 0 1-.095-.355l.395 6.939c.746-.024 1.49.033 2.23.135l-.105-1.85c-.187.13-.373.263-.565.39l-.002-.002Zm-1.331 5.398-.12-2.097c-.452-.248-.913-.477-1.408-.624a4.812 4.812 0 0 0-.86-.173l.103 1.794c.772.34 1.531.723 2.285 1.102v-.002Zm-2.844-11.547-.031.012.001.022c.011-.01.019-.023.03-.034Zm2.108-1.316-.041-.724c-.659.455-1.28.987-1.505 1.74-.234.784.024 1.62.283 2.395.577 1.716 1.176 3.45 1.314 5.254-.555.3-1.123.581-1.703.841a.36.36 0 0 0 .046-.19.372.372 0 0 0-.1-.23l.042.738c.303-.134.606-.273.903-.419-.004.026-.012.05-.01.076a.375.375 0 0 0 .748-.043.371.371 0 0 0-.201-.304c.215-.112.43-.224.643-.342l.081-.001-.395-6.938c-.148-.61-.21-1.253-.105-1.855v.002Z"/><path d="M46.25 43.389a.375.375 0 0 0-.353.395c.01.165.126.293.276.337-.26.111-.524.218-.789.322-.376.076-.69.202-.933.341.509-.468 1.063-1.312 1.157-2.649.078-1.102-.246-2.192-.33-3.294-.081-1.087.081-2.276.83-3.063l-.002-.021c-.804.3-1.656.66-2.146 1.345l.471 8.274c.778.205 1.53.487 2.27.812l-.103-1.794a6.293 6.293 0 0 0-.283-.023c.093-.04.184-.082.275-.122l-.042-.739a.373.373 0 0 0-.296-.121h-.002ZM43.825 37.3c-.396.715-.326 1.588-.238 2.4.189 1.77.396 3.562.161 5.325-.505.16-1.019.306-1.537.438l.016.29a26.4 26.4 0 0 0 1.728-.495c.159.035.316.077.474.118l-.471-8.273a2.058 2.058 0 0 0-.133.197Z"/><path d="m40.019 45.92.016.288a27.052 27.052 0 0 0 2.197-.455l-.017-.291c-.72.183-1.452.335-2.196.457v.002Z"/><path d="m37.626 46.208.016.286c.81-.06 1.608-.156 2.393-.286l-.016-.288c-.787.13-1.584.227-2.393.288ZM2.148 23.547c-.018.948-.007 1.984.593 2.72.31.379.737.622 1.198.802l-.11-1.93c-.725-.354-1.361-.866-1.68-1.59l-.001-.002Zm1.899 6.275c.021.178.047.357.075.537l-.026-.466c-.017-.024-.035-.046-.05-.07ZM2.528 10.595c-.32.893-.639 1.88-.303 2.766.192.506.572.9 1.002 1.241l-.148-2.592c-.298-.425-.505-.899-.551-1.417v.002Zm-.796 6.523c-.17.933-.327 1.958.148 2.779.37.641 1.05 1.018 1.725 1.338l-.116-2.044c-.81-.49-1.524-1.172-1.757-2.075v.002Z"/><path d="M3.946 19.448a6.57 6.57 0 0 1-.458-.255l.116 2.045c.07.034.143.067.213.1.692.319 1.39.64 2.072.988l-.12-2.1c-.603-.262-1.232-.483-1.82-.778h-.003Zm.394-6.199c-.473-.344-.924-.759-1.258-1.237l.147 2.591c.219.175.45.335.679.49.547.369 1.099.74 1.636 1.126l-.13-2.28c-.364-.222-.729-.441-1.072-.69H4.34Zm.369 12.239a6.165 6.165 0 0 1-.881-.35l.11 1.93c.307.121.631.216.947.305.437.122.876.242 1.314.37l-.109-1.91c-.463-.106-.93-.204-1.38-.346Zm-.614 4.407.027.465c.124.776.338 1.55.907 2.068.405.37.926.548 1.47.657l-.104-1.804c-.908-.21-1.788-.628-2.301-1.385l.001-.001Zm2.769 1.475a7.652 7.652 0 0 1-.466-.09l.103 1.804c.268.055.543.093.812.128.475.06.953.119 1.429.185l-.106-1.854c-.59-.054-1.188-.078-1.77-.172l-.002-.001Zm1.032-4.973c-.57-.273-1.184-.423-1.803-.563l.11 1.91c.768.223 1.528.468 2.266.765l-.106-1.858a5.204 5.204 0 0 0-.465-.255l-.002.001Z"/><path d="M6.943 20.857a6.827 6.827 0 0 0-1.174-.63l.12 2.099c.802.408 1.582.86 2.302 1.394l-.098-1.725a4.432 4.432 0 0 0-1.15-1.138Zm.977-1.784a.375.375 0 0 0 .044.748h.003l-.043-.749h-.003Zm-.962 15.941c.226.921.504 1.92 1.273 2.476.231.167.49.275.76.352l-.1-1.742c-.754-.164-1.46-.494-1.934-1.086h.001Zm1.274-9.691a.379.379 0 0 0 .057.175l-.02-.354a.378.378 0 0 0-.036.18v-.001ZM7.07 15.122c-.488-.475-1.072-.83-1.656-1.184l.13 2.28c.831.597 1.63 1.234 2.335 1.968l-.128-2.242a4.684 4.684 0 0 0-.68-.822H7.07Zm.094-6.79c.042.363.114.721.21 1.073L7.2 6.352a7.48 7.48 0 0 0-.036 1.98Zm2.775 27.899a6.3 6.3 0 0 1-1.04-.13l.098 1.742c.507.143 1.064.16 1.597.166l.636.008-.102-1.797c-.396.016-.794.03-1.19.013v-.002Zm.861 4.134c.185.402.384.818.63 1.188l-.046-.814a2.608 2.608 0 0 1-.584-.374Zm-.651-8.56c-.492-.152-1-.218-1.513-.264l.106 1.855c.755.105 1.509.233 2.246.41l-.097-1.702a4.659 4.659 0 0 0-.742-.299Z"/><path d="M10.387 29.366c.102-.164.212-.324.323-.482l-.142-2.494c-.461.836-.547 1.597-.488 2.16a26.49 26.49 0 0 1-.518-1.602c.039.012.08.021.123.018a.376.376 0 0 0-.043-.748.375.375 0 0 0-.25.118 26.422 26.422 0 0 1-.468-2.143c.44-.504.927-.96 1.438-1.389l-.126-2.206c-.073.065-.147.129-.217.196-.87.856-1.183 1.735-1.251 2.408a26.949 26.949 0 0 1-.182-1.72.363.363 0 0 0 .186.044.375.375 0 0 0-.042-.748.368.368 0 0 0-.182.065 27.463 27.463 0 0 1-.026-2.14 12.85 12.85 0 0 1 1.546-1.07l-.112-1.958c-.74.564-1.154 1.192-1.366 1.743.053-.686.133-1.364.236-2.036a.376.376 0 0 0 .713-.183.373.373 0 0 0-.643-.237c.158-.923.363-1.83.614-2.72.078-.041.16-.08.244-.117l-.074-1.301a.398.398 0 0 0-.021.041 5.695 5.695 0 0 0-.136-1.299c-.216-1.006-.633-1.953-.96-2.927-.325-.975-.56-2.015-.389-3.027a7.55 7.55 0 0 0-.972 2.742l.174 3.052c.247.912.662 1.78 1.225 2.54.114.155.307.51.524.537v.003c.002 0 .005-.004.007-.005l.016-.001a26.83 26.83 0 0 0-.335 1.384.375.375 0 1 0-.228.654c.038-.003.071-.016.105-.028a27.336 27.336 0 0 0-.382 2.859 3.675 3.675 0 0 0-.561-1.404l.128 2.243c.117.123.236.245.348.374l.018-.045c-.009.233-.01.468-.012.702a.367.367 0 0 0-.304-.141l.043.748a.362.362 0 0 0 .256-.128c.004.447.015.897.04 1.348.028.492.07.983.124 1.468A3.534 3.534 0 0 0 8.09 22l.098 1.725c.14.104.28.208.414.319.053.314.11.627.175.938a.366.366 0 0 0-.19-.047.372.372 0 0 0-.316.215l.02.355c.07.113.198.185.34.177a.368.368 0 0 0 .268-.142c.162.712.35 1.412.567 2.1a4.058 4.058 0 0 0-1.11-.984l.107 1.858c.54.218 1.07.463 1.573.756.07.185.145.37.22.552a.36.36 0 0 0-.135-.019.376.376 0 0 0 .043.749.37.37 0 0 0 .31-.212c.115.264.235.524.358.783l-.044-.785c-.14-.32-.277-.642-.406-.967l.005-.004Zm.997 11.372.046.814c.283.424.628.788 1.087 1.003.378.175.788.225 1.204.215l-.099-1.734c-.766.077-1.565.021-2.24-.298h.002Zm1.866-4.452c-.696-.132-1.409-.1-2.121-.071l.102 1.796c.743.01 1.488.028 2.228.082l-.102-1.783-.106-.024Zm-.217-1.881c.06-.135.124-.267.188-.4l-.18-3.159c-.698 1.342-.564 2.456-.313 3.094a26.57 26.57 0 0 1-1.191-2.053c.026.005.052.013.079.012a.376.376 0 0 0-.043-.749.372.372 0 0 0-.307.206 28.057 28.057 0 0 1-.477-1.024l.045.785c.223.47.458.934.708 1.388a4.248 4.248 0 0 0-.652-.403l.096 1.702c.554.133 1.1.293 1.633.501.104.16.212.32.32.479-.013 0-.026-.007-.041-.006a.375.375 0 0 0 .042.749.37.37 0 0 0 .334-.265l.018.024-.031-.549c-.076-.11-.154-.218-.23-.33l.002-.002Z"/><path d="m12.224 16.499-.11-1.93c-.693.285-1.394.555-2.003.986-.055.038-.104.079-.157.119l.111 1.957a26.082 26.082 0 0 1 2.159-1.132Zm.57 9.984-.133-2.35c-.617.54-1.26 1.052-1.744 1.709a5.068 5.068 0 0 0-.35.547l.141 2.494c.607-.87 1.33-1.651 2.086-2.402v.002Zm-.297-5.261-.117-2.063c-.72.475-1.494.878-2.141 1.44l.125 2.206c.677-.566 1.402-1.081 2.133-1.583Zm-.575-10.095-.152-2.665c-.33.52-.77.978-1.264 1.333-.353.254-.621.635-.824 1.03l.074 1.301c.716-.324 1.646-.582 2.166-1Zm3.138 25.932a23.85 23.85 0 0 1-.536-.637.37.37 0 0 0 .315-.385.372.372 0 0 0-.718-.121 27.547 27.547 0 0 1-.86-1.18l.032.55c.328.456.668.9 1.024 1.336a4.631 4.631 0 0 0-.966-.31l.102 1.783c.756.055 1.506.156 2.241.328l-.045-.795a3.267 3.267 0 0 0-.588-.57h-.002Zm.225 7.234c.245.373.505.759.808 1.09l-.044-.77a2.62 2.62 0 0 1-.764-.32Zm.348-6.913-.065-1.144c-.04.433-.008.816.065 1.144ZM13.95 41a7.22 7.22 0 0 1-.327.04l.098 1.734a8.34 8.34 0 0 0 1.209-.151c.331-.06.664-.12.996-.178l-.105-1.839c-.623.131-1.241.303-1.87.396L13.949 41Zm-.767-20.251c.533-.364 1.085-.763 1.435-1.29l-.158-2.776c-.24.904-.95 1.66-1.72 2.224a8.883 8.883 0 0 1-.36.25l.117 2.063.688-.471h-.002Z"/><path d="M14.028 25.288c.304-.289.612-.592.864-.928l-.209-3.658a1.51 1.51 0 0 1-.043-.078c.083 1.102-.57 2.13-1.346 2.917-.203.207-.419.401-.637.594l.134 2.349c.408-.404.824-.8 1.237-1.196Zm1.233 5.552-.153-2.69-.03.043c-.652.891-1.504 1.646-2.02 2.623-.007.012-.011.023-.017.035l.18 3.159c.544-1.133 1.273-2.167 2.042-3.17h-.002ZM13.24 16.023c.39-.183.79-.38 1.142-.626l-.116-2.033a5.73 5.73 0 0 1-1.168.77c-.32.161-.652.302-.986.438l.11 1.93c.338-.162.678-.321 1.016-.48h.001Zm-1.078-5.15c.413-.584.564-1.322.554-2.039-.011-.715-.17-1.42-.33-2.119a3.922 3.922 0 0 1-.621 1.744l.151 2.665c.098-.077.182-.16.246-.252v.001Zm5.813 29.067.029-.012-.04-.703a.369.369 0 0 0-.114-.014.368.368 0 0 0-.343.322l-.038-.033a27.58 27.58 0 0 1-1.156-1.096c.346-1.083.86-2.098 1.428-3.087l-.178-3.13c-.544.943-1.288 1.782-1.685 2.796-.176.452-.27.87-.307 1.25l.065 1.145c.029.13.064.253.104.366-.027-.038-.06-.077-.09-.115l.045.795c.102.025.203.044.303.07.15.151.301.303.455.451a.37.37 0 0 0-.3.383.375.375 0 0 0 .395.353.37.37 0 0 0 .342-.32c.37.343.75.673 1.138.995l-.022-.39-.031-.026Zm-.761.491a6.925 6.925 0 0 0-1.392.173l.105 1.838a29.224 29.224 0 0 1 2.204-.316l-.092-1.628a4.973 4.973 0 0 0-.825-.067Zm-1.167 4.182.043.77c.34.373.733.68 1.215.82.347.103.702.108 1.058.06l-.1-1.747c-.724.194-1.507.276-2.216.097Zm-.877-30.04c.471-.822.31-1.848.135-2.78-.159.624-.546 1.145-1.036 1.57l.116 2.033c.316-.222.595-.485.786-.821v-.002Zm.231 8.73c.179-.902-.266-1.793-.714-2.6l.209 3.658c.24-.319.427-.667.505-1.058Zm.659 6.511c.504-.644 1.025-1.346 1.065-2.165.046-.947-.56-1.787-1.14-2.538.24 1.06-.239 2.154-.874 3.038l.153 2.69c.262-.344.53-.684.796-1.025ZM14.852 19.01c.332-.888.007-1.873-.316-2.766a2.58 2.58 0 0 1-.078.44l.158 2.777c.094-.14.176-.29.236-.451Z"/><path d="M20.125 41.587a3.198 3.198 0 0 0-1.09-.791 27.52 27.52 0 0 1-1.031-.83l.022.39c.072.06.14.12.212.178a3.583 3.583 0 0 0-.204-.038l.093 1.628a13.2 13.2 0 0 1 2.206-.049l.014.01-.02-.361c-.068-.046-.136-.091-.202-.137Zm-.433-2.974c-.282 1.525.197 2.565.636 3.1l-.249-4.362a6.739 6.739 0 0 0-.387 1.262Zm.749 9.588c.088.08.176.16.268.24l-.01-.176a2.797 2.797 0 0 1-.258-.066v.002Zm-.089-5.563c.003.051.015.1.038.144l-.017-.287a.36.36 0 0 0-.021.143Zm-1.863 1.812a9.371 9.371 0 0 1-.229.065l.1 1.748c.452-.06.904-.207 1.337-.355l.848-.288-.109-1.898c-.65.232-1.288.525-1.95.727l.003.001Zm-.247-4.884a.373.373 0 0 0-.281-.34l.04.704a.367.367 0 0 0 .241-.362v-.002Zm.503-5.921c.428-.696.865-1.456.812-2.272-.06-.946-.76-1.712-1.42-2.392.364 1.042-.004 2.204-.55 3.165-.008.014-.017.026-.024.04l.178 3.13c.323-.564.666-1.117 1.003-1.67h.002Zm1.956 14.622.01.176c.633.559 1.338 1.08 2.166 1.109h.119l-.093-1.627c-.703.318-1.47.492-2.203.342h.001Z"/><path d="M22.23 42.898a.371.371 0 0 0-.085-.738.375.375 0 0 0-.353.396c.003.038.016.073.028.107a25.924 25.924 0 0 1-1.07-.66c.197-1.812.863-3.537 1.503-5.244.005-.01.008-.02.012-.032l-.19-3.342c-.365-.422-.842-.77-1.3-1.091.554.955.413 2.166.059 3.212-.213.628-.508 1.23-.755 1.846l.249 4.361s.012.016.02.024l-.02-.012.02.36.276.179a.375.375 0 0 0-.252.233l.017.288a.375.375 0 0 0 .71-.187c0-.014-.008-.025-.01-.038.447.276.903.54 1.366.791a4.91 4.91 0 0 0-.823.057c-.408.063-.802.18-1.192.318l.109 1.898a30.018 30.018 0 0 1 2.185-.662l-.106-1.85c-.132-.07-.266-.138-.397-.212l-.002-.002Zm2.254-4.899c-.195 1.088-.631 2.139-.668 3.242-.053 1.539.567 2.495 1.08 2.961-.073-.03-.144-.062-.216-.093-.312-.264-.794-.54-1.446-.677-.204-.103-.404-.214-.605-.322l.105 1.85a13.42 13.42 0 0 1 2.2-.388l-.394-6.938a6.286 6.286 0 0 1-.055.363l-.001.002Zm-.539-3.171c.228.284.383.608.485.95l-.041-.723a19.168 19.168 0 0 0-.444-.227Zm-.354 12.73a6.258 6.258 0 0 1-.688.365l.093 1.627c.77-.017 1.476-.453 2.128-.879l.041-.027-.12-2.098c-.482.341-.952.707-1.455 1.012h.002Z"/><path d="M22.621 34.375a2.468 2.468 0 0 0-.547-.99l.19 3.342c.283-.757.56-1.572.357-2.352Zm3.753 11.393c-.474.202-.906.482-1.33.78l.12 2.098a50.298 50.298 0 0 1 2.146-1.354l-.102-1.795a4.815 4.815 0 0 0-.834.27v.001Zm.309-8.918c.013.01.023.02.034.03l-.001-.022-.033-.008Zm.405 8.005a.36.36 0 0 0 .067.183 26.55 26.55 0 0 1-1.787-.643c-.066-1.807.333-3.598.71-5.369.169-.799.33-1.66.009-2.412-.308-.721-.987-1.18-1.693-1.557l.042.723c.171.586.183 1.231.105 1.853l.395 6.939c.027-.002.055-.007.081-.008.224.092.451.181.678.267a.37.37 0 0 0 .23.677.375.375 0 0 0 .354-.395c-.002-.027-.013-.05-.02-.074.312.11.627.215.944.313l-.042-.74a.371.371 0 0 0-.073.241v.002Z"/><path d="m26.718 36.86.002.021c.834.697 1.129 1.86 1.17 2.95.043 1.103-.155 2.224.047 3.31.245 1.317.89 2.093 1.451 2.5-.258-.11-.584-.2-.966-.234-.275-.073-.55-.149-.821-.23a.372.372 0 0 0-.16-.719.373.373 0 0 0-.28.155l.043.74c.095.03.19.061.287.09-.09.016-.185.033-.279.055l.102 1.795a15.25 15.25 0 0 1 2.163-1.065l-.472-8.274c-.563-.625-1.45-.883-2.285-1.093l-.002-.002Z"/><path d="M30.111 45.799c-.432-1.724-.43-3.529-.444-5.309-.006-.817-.035-1.693-.51-2.357-.047-.066-.1-.123-.153-.18l.47 8.274c.153-.058.303-.119.458-.17.585.118 1.176.216 1.773.295l-.017-.29a26.765 26.765 0 0 1-1.577-.261v-.002Z"/><path d="m31.687 46.06.017.292a27.72 27.72 0 0 0 2.234.203l-.016-.288a26.968 26.968 0 0 1-2.235-.205v-.001Zm2.235.206.016.288a27.44 27.44 0 0 0 2.224.02l-.016-.286a27.43 27.43 0 0 1-2.224-.022Zm2.913-.005c-.23.014-.46.022-.69.028l.016.286c.23-.006.46-.014.69-.027a.143.143 0 0 0-.016-.287Z"/></g><defs><clipPath id="a"><path fill="#fff" transform="rotate(-3.259 71.286 -10.884)" d="M0 0h67.575v46.711H0z"/></clipPath></defs></svg>