<svg width="380" height="45" fill="none" xmlns="http://www.w3.org/2000/svg"><path d="M17.331 44.787c-5.89 0-11.552-1.994-16.785-4.496l5.169-11.727c3.17 2.287 6.276 4.512 10.396 4.512 1.112 0 3.325-.23 3.325-1.96 0-1.77-1.654-2.146-3.836-2.817-4.884-1.441-12.664-2.846-12.664-13.173 0-10.511 8.067-14.44 17.442-14.44 4.497 0 10.337 1.592 13.951 4.277l-4.62 10.564s-3.718-3.35-7.822-3.35c-2.344 0-3.779.673-3.779 2.125 0 1.489 2.332 2.043 3.726 2.49 4.877 1.49 12.881 3.127 12.881 13.443 0 10.552-7.83 14.552-17.384 14.552Zm45.827-1.221-1.212-5.282H50.672l-1.51 5.282H33.485L48.057 1.84h16.996l13.88 41.726H63.158Zm-6.89-28.213-3.62 13.066h7.23l-3.61-13.066Zm50.934 28.213L94.664 23.252v20.314H80.217V1.84h14.447l12.538 20.463V1.84h14.345v41.726h-14.345Zm35.348-.115-4.788.115h-11.491V1.84h10.948l4.766.066c13.561 0 23.95 4.889 23.95 20.932 0 15.178-9.777 20.613-23.385 20.613Zm.442-29.106h-1.725v16.771h1.725c5.167 0 7.881-2.601 7.881-8.1 0-5.112-2.607-8.671-7.881-8.671Zm47.166 30.442c-12.836 0-22.597-8.761-22.597-22.043C167.561 9.74 177.042.62 190.096.62c13.061 0 23.121 8.89 23.121 22.124 0 13.216-8.504 22.043-23.059 22.043Zm.164-30.274c-4.718 0-7.609 3.39-7.609 8.176 0 4.94 2.944 8.23 7.609 8.23 4.71 0 7.73-3.29 7.73-8.23 0-4.905-3.076-8.176-7.73-8.176Zm45.436 16.565h15.511v12.488h-40.003l17.898-29.221h-14.069V1.84h38.224l-17.561 29.238Zm37.686-16.326h-6.955l-1.803 5.153h-2.49l6.454-17.66h2.706l6.502 17.66h-2.656l-1.758-5.153Zm-6.288-1.898h5.648l-1.685-4.937c-.594-1.707-1.068-3.748-1.068-3.748h-.071s-.524 2.111-1.091 3.748l-1.733 4.937Zm20.241-10.61h2.537l7.241 11.06c.854 1.307 1.971 3.514 1.971 3.514h.072s-.17-2.302-.17-3.773v-10.8h2.279v17.66h-2.514l-7.215-11.06c-.853-1.331-2.015-3.49-2.015-3.49h-.051s.144 2.302.144 3.724v10.826h-2.279V2.245Zm17.064 11.3c0-3.704 2.394-6.695 6.242-6.695 3.845 0 6.195 2.991 6.195 6.694 0 3.726-2.35 6.718-6.195 6.718-3.847 0-6.242-2.992-6.242-6.718Zm10.18 0c0-2.753-1.353-4.938-3.961-4.938-2.612 0-3.965 2.185-3.965 4.937 0 2.755 1.353 4.912 3.965 4.912 2.608 0 3.961-2.157 3.961-4.912Zm3.443-6.385h2.348l2.23 6.881c.547 1.71 1.162 4.06 1.162 4.06h.051s.544-2.35 1.113-4.06l2.279-6.881h2.278l-4.578 12.746h-2.446L318.084 7.16Zm12.696 9.375c0-2.967 2.182-3.609 5.482-4.013 1.876-.212 3.084-.52 3.084-1.826 0-1.377-.971-2.23-2.728-2.23-2.018 0-2.991.948-3.063 2.469h-2.134c.094-2.16 1.73-4.085 5.173-4.085 1.21 0 2.279.215 3.085.692 1.069.639 1.71 1.755 1.71 3.462v5.956c0 1.022.238 1.568 1.351 1.331h.096v1.543a3.74 3.74 0 0 1-1.186.19c-1.353 0-2.019-.641-2.256-1.994h-.023c-.806 1.114-2.113 2.136-4.273 2.136-2.421 0-4.318-1.185-4.318-3.631Zm8.591-1.331v-2.088c-.641.405-1.757.714-2.8.903-2.091.356-3.464.734-3.464 2.491 0 1.64 1.256 2.043 2.537 2.043 2.539 0 3.727-1.875 3.727-3.35Zm5.742 4.702V7.159h2.183V9.46h.071c.783-1.471 2.088-2.47 3.776-2.47.355 0 .568.048.806.145v2.087h-.071c-.31-.095-.524-.119-.905-.119-1.968 0-3.653 1.473-3.653 3.87v6.93h-2.207Zm13.575.092c-1.709-.022-2.893-.71-2.893-2.585V8.867h-1.996V7.16h1.996V3.15h2.18v4.01h2.634v1.708h-2.634v8.045c0 .925.499 1.188 1.307 1.188.379 0 .877-.096 1.116-.165h.069v1.85a7.713 7.713 0 0 1-1.779.212Zm7.142-16.42c0 .78-.569 1.351-1.351 1.351s-1.354-.57-1.354-1.352c0-.784.572-1.353 1.354-1.353.782 0 1.351.569 1.351 1.353Zm-2.443 3.582h2.206v12.746h-2.206V7.16Zm4.913 8.874h2.231c.261 1.854 1.685 2.47 3.513 2.47 2.017 0 2.871-.878 2.871-2.018 0-1.402-1.068-1.755-3.324-2.208-2.492-.52-4.745-1.043-4.745-3.845 0-2.182 1.708-3.558 4.675-3.558 3.205 0 4.794 1.495 5.078 3.703h-2.204c-.192-1.307-1.094-2.043-2.923-2.043-1.731 0-2.465.807-2.465 1.781 0 1.328 1.232 1.59 3.392 2.017 2.54.499 4.724 1.068 4.724 4.035 0 2.586-2.138 3.917-5.127 3.917-3.514 0-5.506-1.66-5.696-4.25Zm-104.73 9.945h6.528c5.268 0 7.878 3.61 7.878 8.9 0 5.27-2.754 8.758-8.045 8.758h-6.361V25.978Zm6.267 15.545c3.985 0 5.623-2.59 5.623-6.645 0-4.059-1.47-6.788-5.481-6.788h-3.966v13.433h3.824Zm13.716-14.218c0 .785-.569 1.355-1.351 1.355-.786 0-1.353-.57-1.353-1.355 0-.78.567-1.351 1.353-1.351.782 0 1.351.57 1.351 1.351Zm-2.445 3.585h2.208v12.746h-2.208V30.89Zm4.321 0h2.346l2.233 6.882c.546 1.71 1.164 4.06 1.164 4.06h.047s.545-2.35 1.113-4.06l2.281-6.882h2.277l-4.579 12.746h-2.447l-4.435-12.746Zm16.018-3.585c0 .785-.571 1.355-1.354 1.355-.784 0-1.352-.57-1.352-1.355 0-.78.568-1.351 1.352-1.351.783 0 1.354.57 1.354 1.351Zm-2.445 3.585h2.207v12.746h-2.207V30.89Zm4.911 8.877h2.232c.261 1.852 1.686 2.468 3.512 2.468 2.019 0 2.874-.877 2.874-2.017 0-1.4-1.07-1.757-3.323-2.206-2.493-.523-4.749-1.046-4.749-3.846 0-2.184 1.71-3.56 4.678-3.56 3.202 0 4.795 1.495 5.078 3.705h-2.209c-.189-1.307-1.089-2.043-2.918-2.043-1.73 0-2.468.807-2.468 1.778 0 1.33 1.236 1.592 3.395 2.019 2.537.497 4.722 1.068 4.722 4.035 0 2.585-2.136 3.915-5.126 3.915-3.512 0-5.508-1.66-5.698-4.248Zm16.114-12.462c0 .785-.567 1.355-1.352 1.355-.784 0-1.353-.57-1.353-1.355 0-.78.569-1.351 1.353-1.351.785 0 1.352.57 1.352 1.351Zm-2.443 3.585h2.208v12.746h-2.208V30.89Zm5.031 6.386c0-3.704 2.396-6.694 6.242-6.694 3.845 0 6.195 2.99 6.195 6.694 0 3.725-2.35 6.716-6.195 6.716-3.846 0-6.242-2.99-6.242-6.716Zm10.181 0c0-2.754-1.354-4.937-3.963-4.937-2.611 0-3.964 2.183-3.964 4.937 0 2.754 1.353 4.912 3.964 4.912 2.609 0 3.963-2.158 3.963-4.912Zm7.284 6.36h-2.206V30.889h2.185v1.805h.071c.924-1.282 2.183-2.112 4.034-2.112 2.659 0 4.297 1.496 4.297 4.152v8.902h-2.185v-8.639c0-1.638-1.068-2.563-2.8-2.563-1.969 0-3.395 1.4-3.395 3.441v7.76h-.001Z" fill="#6A47DC"/></svg>