<svg width="177" height="56" fill="none" xmlns="http://www.w3.org/2000/svg"><g clip-path="url(#a)" fill="#6A47DC"><path d="m.547 1.15.016.04.242.542.858 2.002A2920.247 2920.247 0 0 1 8.65 20.248c2.105 4.984 4.176 9.983 6.21 14.997 1.792 4.44 3.74 8.997 6.543 12.96 1.953 2.761 4.626 4.726 7.747 5.951 8.56 3.365 18.41-.145 24.116-6.417 2.268-2.494 3.99-5.584 4.581-8.988.3-1.74.105-3.478-.42-5.24-1.86-6.268-10.95-7.138-10.95-7.138-1.808-.444-.558-.727.085-.925 0 0 4.52-1.55 5.984-2.233 6.005-2.79 13.15-7.824 12.56-15.405-.276-3.518-3.761-5.892-6.863-6.826-4.027-1.213-8.41-.768-12.203.558-1.852.647-3.663 1.537-5.168 2.778a18.549 18.549 0 0 0-2.697 2.863c-2.535 3.235-3.639 7.307-4.755 11.24-1.322 4.675-2.77 9.35-3.671 14.15a30.552 30.552 0 0 0-.477 6.695c.04 1.294.17 2.62.659 3.862.347.881.881 2.244 1.694 2.842.906.667 1.084-1.132 1.233-1.75.2-.819.406-1.636.619-2.45a592.314 592.314 0 0 1 2.123-7.946c1.678-6.134 3.368-12.276 5.32-18.317.903-2.79 1.926-5.548 3.405-8.067 1.869-3.182 4.812-6.183 8.96-5.281 3.357.728 4.562 4.096 4.554 7.133-.012 4.399-2.673 8.046-5.653 10.889-2.373 2.264-5.07 4.165-8.414 5.216-.288.089-.607.17-.922.27-.283.09-.263.494.024.587h.008c1.755.59 3.417 1.128 4.885 2.345 5.313 4.416 2.976 12.742.177 17.468-1.779 3-4.403 5.52-7.803 6.607-3.118 1.003-6.802 1-9.584-1.237-2.814-2.272-4.403-5.871-5.855-9.05-1.346-2.939-2.988-5.943-4.144-8.948-2.73-7.08-5.507-14.253-8.67-21.18-1.047-2.292-1.892-4.759-3.643-6.639C6.256 3.483 3.878 1.498.98.992c0 0-.517-.076-.432.162V1.15Z"/><path fill-rule="evenodd" clip-rule="evenodd" d="M76.144 36.899a1.435 1.435 0 0 1-1.318-.858l-4.982-11.35h1.399c.728 0 1.387.437 1.67 1.108l3.64 8.6a.572.572 0 0 0 .525.349h.02a.57.57 0 0 0 .526-.348l3.639-8.6a1.816 1.816 0 0 1 1.67-1.109h1.375l-5.006 11.35a1.439 1.439 0 0 1-1.314.858h-1.844Zm28.143-12.208a1.44 1.44 0 0 1 1.435 1.44v8.617h8.685v.715a1.44 1.44 0 0 1-1.439 1.436h-9.611V24.69h.93Zm15.567 7.036v3h8.9v.736a1.433 1.433 0 0 1-1.436 1.436h-9.833V24.69h10.945v.716a1.44 1.44 0 0 1-1.439 1.435h-7.137V29.6h7.723v.692a1.425 1.425 0 0 1-.419 1.017 1.436 1.436 0 0 1-1.016.422h-6.288v-.004Zm23.19 5.176c-.389 0-.757-.17-1.015-.461l-7.497-8.435v7.456a1.44 1.44 0 0 1-1.44 1.436h-.889V24.69h1.722c.389 0 .757.166 1.015.457l7.497 8.394v-7.415c0-.797.647-1.44 1.435-1.44h.914V36.9h-1.738l-.004.004Zm4.864-10.06v-.712a1.425 1.425 0 0 1 .419-1.018 1.433 1.433 0 0 1 1.016-.422h11.189v.716a1.44 1.44 0 0 1-1.44 1.435h-3.687V36.9h-.93a1.437 1.437 0 0 1-1.44-1.436v-8.62h-5.127Zm-52.521-1.274 4.816 11.33h-1.537a1.44 1.44 0 0 1-1.322-.878l-.926-2.2H89.3l-.994 2.229a1.435 1.435 0 0 1-1.314.849H85.39l4.966-11.346a1.435 1.435 0 0 1 1.314-.862h2.394c.578 0 1.095.344 1.322.878Zm-5.52 6.785h5.855l-.315-.74L93.531 27a.287.287 0 0 0-.267-.178h-.89a.283.283 0 0 0-.266.174l-1.772 4.258-.469 1.1Zm81.348-6.785 4.811 11.33h-1.536a1.44 1.44 0 0 1-1.322-.878l-.926-2.2h-7.117l-.999 2.229a1.436 1.436 0 0 1-1.31.849h-1.605l4.969-11.346a1.44 1.44 0 0 1 1.315-.862h2.393c.575 0 1.096.344 1.323.878h.004Zm-5.524 6.785h5.851l-.311-.74L169.355 27a.288.288 0 0 0-.267-.178h-.89a.283.283 0 0 0-.267.174l-1.775 4.258-.465 1.1Z"/></g><defs><clipPath id="a"><path fill="#fff" transform="translate(.538 .167)" d="M0 0h175.488v55.396H0z"/></clipPath></defs></svg>