<svg width="194" height="32" fill="none" xmlns="http://www.w3.org/2000/svg"><path fill-rule="evenodd" clip-rule="evenodd" d="M35.316 1.2c-2.553 0-5.32 8.278-9.252 17.06-2.62 5.763-4.738 11.291-5.566 12.965-.986-.094-1.973-.197-3.014-.197-1.183 0-2.408.107-3.646.197-.739-2.067-2.95-8.24-5.464-14.451C5.36 9.388 2.7 1.294.24 1.204V.757c2.514.107 4.973.197 7.437.197 1.776 0 3.551-.094 5.276-.197v.449c-.644.196-1.327.239-1.327 1.776 0 3.897 7.543 21.046 8.32 23.364 1.093-2.71 7.343-16.863 7.343-22.878 0-1.673-.683-2.066-1.725-2.262v-.45c1.673.107 3.411.197 5.119.197 1.528 0 3.107-.094 4.632-.197v.449V1.2ZM63.26 23.733c-1.187 2.71-2.066 4.776-2.553 7.936-.448-.342-1.972-.487-3.753-.538-1.776-.107-3.79-.107-5.421-.107h-5.806c-3.95 0-7.108.158-7.595.196v-.435c2.408 0 2.408-4.2 2.408-14.792 0-11.386-.038-14.545-2.408-14.793V.752c1.042 0 2.263.051 3.753.107 1.528.051 3.291.094 5.409.094h4.239c4.632 0 8.081-.145 10.147-.632-.341 1.37-.828 3.394-.828 6.647v.986H59.81c0-4.53-3.74-5.225-8.82-5.225-1.041 0-1.972.106-2.761.303-.38 3.146-.38 9.712-.38 10.937.631.051 1.37.145 2.804.145 5.37 0 6.015-1.17 6.212-3.594h1.024c-.196 1.87-.341 3.752-.341 5.673 0 3.253 0 1.226.051 3.791h-1.093c0-2.604-1.024-4.043-5.857-4.043-1.182 0-2.173 0-2.805.052 0 1.58 0 9.357.145 12.623 1.08.052 2.16.197 3.292.197 7.846 0 9.464-2.476 11.095-5.529l.884.449Zm4.213 7.056c2.408-.051 2.408-4.341 2.408-14.792 0-10.45 0-14.69-2.408-14.792V.769c.935.039 2.015.094 3.053.145 1.041 0 2.066.052 2.856.052 1.473 0 3.197-.158 5.174-.355 1.921-.145 4.094-.29 6.305-.29 1.384 0 9.41 0 9.41 7.291 0 5.82-5.858 7.791-8.62 8.278 1.042 1.187 3.949 5.622 7.147 9.674 2.804 3.539 4.093 5.119 5.477 5.225v.436c-.5-.039-1.144-.094-1.725-.146-.645-.05-1.29-.05-1.921-.05-2.028 0-4.145.106-6.16.396-.594-.935-2.464-4.08-4.739-7.488-2.117-3.159-3.79-6.305-5.712-6.305-.683 0-.29 0-.841.094 0 8.188 0 13.072 2.514 13.072v.435c-1.959-.145-4.183-.196-6.109-.196-2.066 0-4.183.051-6.109.196v-.444Zm11.134-14.886c4.384 0 7.778-1.025 7.778-6.412 0-4.487-2.66-6.95-5.806-6.95-1.093 0-2.172.196-3.21.397-.196 3.552-.196 11.385-.196 12.927.392 0 .644.038 1.434.038Zm46.61-8.278v1.328h1.327v-.935c0-4.2.5-6.267.79-7.701-2.066.397-6.16.448-12.068.448h-5.371c-2.173 0-4.777 0-6.899-.094C100.88.62 99.245.526 98.954.317c0 3.21-.593 6.318-1.238 8.49l1.239.291c.738-3.253 2.659-5.857 8.422-5.857.487 0 .935.038 1.422.094.252 1.238.252 6.211.252 12.675 0 10.45 0 14.74-2.515 14.78v.448c1.921-.146 4.043-.197 6.109-.197 2.067 0 4.201.051 6.122.197v-.449c-2.514-.038-2.514-4.329-2.514-14.78 0-6.463 0-11.436.252-12.674.486-.051.935-.094 1.421-.094 5.319 0 7.292.935 7.292 4.384Zm30.746 16.125c-1.183 2.71-2.067 4.777-2.566 7.936-.436-.342-1.96-.487-3.74-.538-1.776-.107-3.791-.107-5.422-.107h-5.818c-3.936 0-7.096.158-7.582.197v-.436c2.408 0 2.408-4.2 2.408-14.796 0-11.386-.039-14.545-2.408-14.793V.765c1.024 0 2.262.051 3.74.107 1.528.05 3.304.094 5.421.094h4.239c4.632 0 8.082-.146 10.148-.632-.342 1.37-.828 3.394-.828 6.647v.986h-1.042c0-4.53-3.74-5.226-8.82-5.226-1.041 0-1.972.107-2.762.304-.393 3.146-.393 9.712-.393 10.937.645.051 1.384.145 2.818.145 5.37 0 6.002-1.17 6.211-3.595h1.025c-.196 1.87-.341 3.753-.341 5.674 0 3.253 0 1.225.051 3.791h-1.093c0-2.604-1.029-4.043-5.857-4.043-1.187 0-2.173 0-2.818.052 0 1.579 0 9.357.158 12.623 1.08.038 2.16.196 3.292.196 7.846 0 9.464-2.476 11.095-5.528l.884.448v.005Zm1.724 7.056c.986 0 1.328-.393 2.118-1.093 1.579-1.421 11.872-12.427 12.068-12.623-.935-1.131-4.777-6.16-9.464-12.176-2.711-3.449-2.907-3.355-4.239-3.697V.782c2.514.094 5.029.184 7.543.184 2.117 0 4.384-.094 6.463-.184v.435c-.606.107-1.289.252-1.289.987 0 2.066 5.371 8.636 6.412 10.057 1.422-1.673 6.054-8.08 6.054-9.61 0-1.327-.884-1.327-1.618-1.434V.782c1.763.038 3.539.184 5.37.184 1.618 0 3.343-.094 4.923-.184v.435c-.487.052-1.081.252-1.776.538-1.183.5-7.633 8.24-11.676 12.03.986 1.183 5.964 7.45 11.044 13.516 2.659 3.198 2.95 3.356 4.183 3.501v.448c-2.659-.209-5.37-.209-8.03-.209-2.027 0-4.094.107-6.121.21v-.449c.695 0 1.289-.107 1.289-.935 0-1.58-6.698-9.37-7.885-11.253-1.277 1.58-6.609 8.384-6.609 11.057 0 1.131.986 1.131 1.631 1.131v.448c-1.686-.107-3.304-.209-4.973-.209-1.832 0-3.646.107-5.422.21v-.449l.004.004Z" fill="#6A47DC"/></svg>