<svg width="237" height="67" fill="none" xmlns="http://www.w3.org/2000/svg"><g clip-path="url(#a)" fill="#6A47DC"><path d="M164.081 39.383c0 3.476-.88 7.203-4.711 7.203-3.832 0-4.711-3.748-4.711-7.203 0-3.454.879-7.16 4.711-7.16 3.831 0 4.711 3.748 4.711 7.16Zm-19.807 14.531h10.364v-3.183h.105c1.36 1.843 2.994 3.916 8.249 3.916 7.977 0 11.829-8.103 11.829-15.368 0-6.826-2.554-15.096-11.997-15.096-3.203 0-6.071 1.445-7.705 3.915h-.104v-14.09h-10.741v39.927-.021Zm62.288-14.53c0-8.061-4.773-15.2-15.347-15.2-10.573 0-15.347 7.16-15.347 15.2s4.774 15.263 15.347 15.263c10.574 0 15.347-7.203 15.347-15.263Zm-10.741 0c0 3.077-.544 7.202-4.606 7.202-4.062 0-4.606-4.146-4.606-7.202 0-3.057.544-7.161 4.606-7.161 4.062 0 4.606 4.083 4.606 7.16ZM96.6 53.913h10.741V38.21c0-3.015.921-5.192 3.643-5.192 3.266 0 3.538 2.45 3.538 5.192v15.703h10.741V38.21c0-3.015.921-5.192 3.643-5.192 3.267 0 3.518 2.45 3.518 5.192v15.703h10.741V34.002c0-4.69-2.45-9.84-9.653-9.84-7.202 0-9.17 4.187-9.61 4.522-1.298-2.91-4.564-4.523-7.6-4.523-3.915 0-7.056 1.236-9.212 4.586h-.105v-3.853H96.621v29.02h-.02Zm110.987.001h10.741V38.588c0-4.648 2.449-5.59 4.292-5.59 3.14 0 3.517 2.344 3.517 5.694v15.2h10.741v-19.91c0-6.659-4.606-9.841-9.652-9.841-4.292 0-7.16 1.507-9.17 4.418h-.105v-3.685h-10.364v29.039ZM55.416 59.4c.628 0 1.025.44 1.025.942 0 .544-.418.984-1.026.984-.544 0-.942-.419-.942-.984 0-.544.419-.942.943-.942Zm2.805-1.78c-.23-1.403-1.13-2.01-2.638-2.01-2.136 0-3.14 1.675-3.14 3.936 0 1.759.858 3.413 2.973 3.413 1.675 0 2.868-.88 2.868-2.659 0-1.403-.984-2.303-2.345-2.303-.628 0-1.152.126-1.612.565.063-.712.46-1.486 1.214-1.486.23 0 .398.02.545.125a.766.766 0 0 1 .293.398h1.842v.021Zm-10.908 1.675c0-.775.041-2.094 1.067-2.094s1.047 1.361 1.047 2.094c0 .733-.042 2.094-1.068 2.094s-1.047-1.34-1.047-2.094Zm-1.906 0c0 2.785 1.717 3.685 2.973 3.685 1.257 0 2.973-.9 2.973-3.685s-1.716-3.685-2.973-3.685c-1.256 0-2.973.9-2.973 3.685Zm-10.47 3.602h2.094v-7.202h-1.654c-.063 1.193-1.068 1.59-2.073 1.57v1.486h1.633v4.146Zm6.343-5.653c.545 0 .985.44.985 1.005s-.46.963-1.005.963c-.544 0-1.005-.419-1.005-.984s.482-.984 1.026-.984Zm-2.805 3.748c.21 1.424 1.34 1.968 2.638 1.968 2.136 0 3.183-1.654 3.183-3.936 0-1.8-.9-3.434-2.952-3.434-1.592 0-2.952.942-2.952 2.68 0 1.487 1.005 2.282 2.365 2.282.587 0 1.131-.167 1.57-.565h.022c-.105.607-.356 1.465-1.256 1.465-.147 0-.315 0-.482-.104a.687.687 0 0 1-.314-.377h-1.843l.021.02Z"/><path d="M33.242 54.647v-9.673l18.111-20.183H34.268V14.51h27.973V8.856c0-3.12-2.471-5.653-5.486-5.653H8.809c-3.036 0-5.486 2.534-5.486 5.653v49.391c0 3.14 2.45 5.653 5.486 5.653h47.946c3.036 0 5.486-2.533 5.486-5.653v-3.601H33.243Zm50.836-11.076v-2.68c-1.298.67-2.764 1.068-4.23 1.403-2.386.565-3.642 1.173-3.642 3.14 0 1.34 1.403 2.68 3.37 2.68 2.43 0 4.335-1.507 4.502-4.522m10.301-8.06v11.913c0 2.177.105 4.648 1.298 6.49h-10.97c-.273-.795-.44-1.947-.378-2.743h-.104c-2.261 2.68-5.549 3.455-9.003 3.476h-9.987v4.627c0 4.271-3.35 7.726-7.496 7.726H7.825c-4.146 0-7.496-3.455-7.496-7.726V7.831C.33 3.561 3.68.105 7.825.105H57.76c4.146 0 7.496 3.455 7.496 7.726v17.902L48.904 44.388h16.435c1.089-7.642 10.636-7.391 15.787-8.396 1.466-.272 2.931-.733 2.931-2.575 0-1.968-1.78-2.68-3.517-2.68-3.308 0-3.957 1.738-4.02 2.973h-9.987c.335-8.166 7.81-9.506 14.488-9.506 13.463 0 13.337 5.758 13.337 11.348"/><path d="M34.937 62.897h2.094v-7.202h-1.654c-.063 1.193-1.068 1.59-2.073 1.57v1.486h1.633v4.146Zm6.343-5.653c.545 0 .985.44.985 1.005s-.46.963-1.005.963c-.544 0-1.005-.419-1.005-.984s.482-.984 1.026-.984Zm-2.805 3.748c.21 1.424 1.34 1.968 2.638 1.968 2.136 0 3.183-1.654 3.183-3.936 0-1.8-.9-3.434-2.952-3.434-1.592 0-2.952.942-2.952 2.68 0 1.487 1.005 2.282 2.365 2.282.587 0 1.131-.167 1.57-.565h.022c-.105.607-.356 1.465-1.256 1.465-.147 0-.315 0-.482-.104a.687.687 0 0 1-.314-.377h-1.843l.021.02Zm8.838-1.697c0-.775.041-2.094 1.067-2.094s1.047 1.361 1.047 2.094c0 .733-.042 2.094-1.068 2.094s-1.047-1.34-1.047-2.094Zm-1.906 0c0 2.785 1.717 3.685 2.973 3.685 1.257 0 2.973-.9 2.973-3.685s-1.716-3.685-2.973-3.685c-1.256 0-2.973.9-2.973 3.685Zm10.009.105c.628 0 1.025.44 1.025.942 0 .544-.418.984-1.026.984-.544 0-.942-.419-.942-.984 0-.544.419-.942.943-.942Zm2.805-1.78c-.23-1.403-1.13-2.01-2.638-2.01-2.136 0-3.14 1.675-3.14 3.936 0 1.759.858 3.413 2.973 3.413 1.675 0 2.868-.88 2.868-2.659 0-1.403-.984-2.303-2.345-2.303-.628 0-1.152.126-1.612.565.063-.712.46-1.486 1.214-1.486.23 0 .398.02.545.125a.766.766 0 0 1 .293.398h1.842v.021Z"/></g><defs><clipPath id="a"><path fill="#fff" transform="translate(.33 .105)" d="M0 0h236.549v66.895H0z"/></clipPath></defs></svg>