<svg width="186" height="42" viewBox="0 0 186 42" fill="none" xmlns="http://www.w3.org/2000/svg">
<mask id="mask0_3601_25946" style="mask-type:alpha" maskUnits="userSpaceOnUse" x="0" y="0" width="186" height="42">
<g clip-path="url(#clip0_3601_25946)">
<mask id="mask1_3601_25946" style="mask-type:luminance" maskUnits="userSpaceOnUse" x="0" y="0" width="186" height="42">
<path d="M185.834 0H0V41.9427H185.834V0Z" fill="white"/>
</mask>
<g mask="url(#mask1_3601_25946)">
<path d="M8.56941 19.4618C8.91032 19.189 9.08214 18.7881 9.08214 18.259C9.08214 17.7299 8.90759 17.3427 8.56123 17.0645C8.21214 16.7863 7.71032 16.6472 7.05577 16.6472H4.62305V19.8709H7.05577C7.72396 19.8709 8.23123 19.7345 8.57214 19.4645L8.56941 19.4618Z" fill="#CE0E2D"/>
<path d="M7.56655 22.009H4.62109V25.3636H7.56655C9.00655 25.3636 9.72655 24.7963 9.72655 23.659C9.72655 22.5218 9.00655 22.009 7.56655 22.009Z" fill="#CE0E2D"/>
<path fill-rule="evenodd" clip-rule="evenodd" d="M20.97 0C9.39 0 0 9.39 0 20.97C0 32.55 9.39 41.94 20.97 41.94C32.55 41.94 41.94 32.55 41.94 20.97C41.94 9.39 32.5527 0 20.97 0ZM7.68 27.6382C9.33273 27.6382 10.6064 27.3109 11.4982 26.6536V26.6482C12.39 25.9909 12.8345 25.0745 12.8345 23.8991C12.8345 23.1055 12.6191 22.4345 12.1882 21.8918C11.7573 21.3464 11.1382 20.9564 10.3309 20.7164C10.9255 20.4273 11.3864 20.0318 11.7164 19.5327C12.0436 19.0336 12.2073 18.4555 12.2073 17.7982C12.2073 16.6991 11.7764 15.8536 10.9173 15.2591C10.0582 14.6673 8.85818 14.37 7.31727 14.37H1.56818V27.6382H7.68ZM13.8027 20.91C13.8027 25.1618 17.25 28.6091 21.5018 28.6091L21.5073 28.6118C23.5582 28.6118 25.4182 27.8045 26.7982 26.4955L24.7418 24.4282C23.8909 25.2218 22.7618 25.7182 21.5045 25.7182C19.3145 25.7182 17.4845 24.2427 16.9064 22.2382L29.0782 22.26C29.1545 21.8209 29.2036 21.3709 29.2036 20.91C29.2036 16.6582 25.7536 13.2109 21.5018 13.2109C17.25 13.2109 13.8027 16.6582 13.8027 20.91ZM37.4673 16.8736V27.6382V27.6409H40.5V14.3727H30.9464L30.7582 19.7536C30.6818 21.6 30.4964 22.9555 30.2073 23.82C29.9182 24.6845 29.4055 25.1182 28.6718 25.1182C28.47 25.1182 28.2845 25.0909 28.1209 25.0418L27.9327 27.6382C28.5273 27.7773 29.0318 27.8482 29.4491 27.8482C30.4609 27.8482 31.2491 27.5345 31.8109 26.91C32.3727 26.2827 32.7736 25.3855 33.0136 24.2182C33.2536 23.0482 33.4064 21.5236 33.4691 19.6391L33.5618 16.8736H37.4673Z" fill="#CE0E2D"/>
<path d="M21.5024 16.1016C19.2797 16.1016 17.4279 17.6179 16.877 19.6661H26.1251C25.5742 17.6179 23.7224 16.1016 21.4997 16.1016H21.5024Z" fill="#CE0E2D"/>
<path d="M54.7021 28.4618H51.7103V26.8991H51.6339C49.7576 26.8991 48.1839 26.4 46.9185 25.4045C45.653 24.4091 45.0176 23.0154 45.0176 21.2264C45.0176 19.2982 45.6449 17.8691 46.8994 16.9445C48.1539 16.0173 49.7576 15.5564 51.713 15.5564V14.3782H54.7049V15.5564C56.6849 15.5564 58.2967 16.0364 59.5376 16.9936C60.7785 17.9509 61.3976 19.3636 61.3976 21.2291C61.3976 23.0945 60.7649 24.4582 59.4967 25.4345C58.2312 26.4109 56.6712 26.9018 54.8167 26.9018H54.7021V28.4645V28.4618ZM48.1021 21.2291C48.1021 22.1809 48.4485 22.8982 49.1439 23.3809C49.8394 23.8636 50.6739 24.1064 51.653 24.1064H51.7103V18.3573C50.5539 18.3573 49.6621 18.5673 49.0376 18.9845C48.4158 19.4018 48.1021 20.1518 48.1021 21.2318V21.2291ZM54.7403 18.3545H54.7021V24.1036H54.8167C57.1458 24.1036 58.3103 23.1464 58.3103 21.2291C58.3103 20.1627 57.9967 19.4154 57.3749 18.99C56.7503 18.5645 55.8721 18.3545 54.7403 18.3545Z" fill="black"/>
<path d="M64.6029 28.1724H61.5156L67.4393 14.667H69.6565L75.5802 28.1724H72.4547L71.3529 25.6634H65.6993L64.6002 28.1724H64.6029ZM70.2565 23.1379L68.5193 19.107L66.7438 23.1379H70.2538H70.2565Z" fill="black"/>
<path d="M80.2254 23.9288V28.1724H77.2363V14.667H82.83C83.9236 14.667 84.8809 14.8088 85.7045 15.0924C86.5281 15.3761 87.2072 15.8752 87.75 16.587C88.2927 17.2988 88.56 18.2097 88.56 19.317C88.56 20.4243 88.2763 21.2752 87.7118 21.9897C87.1445 22.7043 86.4463 23.2034 85.6172 23.4952C84.7854 23.7843 83.8581 23.9288 82.83 23.9288H80.2254ZM82.9091 17.4652H80.2281V21.1306H82.7945C84.57 21.1306 85.4563 20.5197 85.4563 19.2979C85.4563 18.0761 84.6081 17.4652 82.9091 17.4652Z" fill="black"/>
<path d="M93.4832 28.1724H90.4941V14.667H93.2732L97.596 21.1306L101.706 14.667H104.409V28.1724H101.417V20.0697L97.9069 25.4534H97.116L93.4887 20.0124V28.1724H93.4832Z" fill="black"/>
<path d="M124.118 28.1724H121.129V14.667H131.258V17.4652H124.118V28.1724Z" fill="black"/>
<path d="M135.395 23.9288V28.1724H132.406V14.667H138C139.094 14.667 140.051 14.8088 140.874 15.0924C141.698 15.3761 142.377 15.8752 142.92 16.587C143.463 17.2988 143.73 18.2097 143.73 19.317C143.73 20.4243 143.446 21.2752 142.882 21.9897C142.314 22.7043 141.616 23.2034 140.787 23.4952C139.955 23.7843 139.028 23.9288 138 23.9288H135.395ZM138.076 17.4652H135.395V21.1306H137.962C139.737 21.1306 140.624 20.5197 140.624 19.2979C140.624 18.0761 139.775 17.4652 138.076 17.4652Z" fill="black"/>
<path d="M151.409 21.3816L154.515 14.667H157.64L152.739 25.0061C152.238 26.037 151.709 26.8198 151.147 27.3598C150.588 27.8998 149.832 28.1698 148.88 28.1698C147.776 28.1698 146.868 27.6543 146.161 26.6261L148.092 24.8698C148.31 25.2052 148.586 25.3716 148.921 25.3716C149.306 25.3716 149.63 25.1016 149.887 24.5616L143.598 14.6643H147.301L151.411 21.3789L151.409 21.3816Z" fill="black"/>
<path d="M170.746 28.1724H167.757V17.4652H161.776V28.1724H158.787V14.667H170.749V28.1724H170.746Z" fill="black"/>
<path d="M185.834 28.1724H182.845V17.4652H176.864V28.1724H173.875V14.667H185.837V28.1724H185.834Z" fill="black"/>
<path d="M112.784 24.8725C114.567 24.8725 116.013 23.4268 116.013 21.6434C116.013 19.86 114.567 18.4143 112.784 18.4143C111 18.4143 109.555 19.86 109.555 21.6434C109.555 23.4268 111 24.8725 112.784 24.8725Z" fill="#00953B"/>
</g>
</g>
</mask>
<g mask="url(#mask0_3601_25946)">
<rect x="-2.44531" width="194.053" height="43.7817" fill="#6A47DC"/>
</g>
<defs>
<clipPath id="clip0_3601_25946">
<rect width="186" height="42" fill="white"/>
</clipPath>
</defs>
</svg>
