<svg width="174" height="56" viewBox="0 0 174 56" fill="none" xmlns="http://www.w3.org/2000/svg">
<g clip-path="url(#clip0_3508_24867)">
<path d="M20.5948 36.6388V17.491H3.92969V36.6388H8.5473V21.2832H15.9887V36.6388H20.5948Z" fill="#6A47DC"/>
<path d="M30.754 27.4674C30.1522 27.4674 29.7356 27.444 29.4 27.3857L29.1338 27.339V21.0614L29.3884 21.0264C29.6893 20.9564 30.2564 20.8864 31.1128 20.8864C33.4274 20.8864 34.8162 22.0532 34.8162 24.0019C34.8046 26.1488 33.2538 27.4674 30.754 27.4674ZM37.1886 19.0895C35.7883 17.9693 33.7399 17.4209 30.8698 17.4209C28.3469 17.4209 26.229 17.5726 24.5625 17.8526V36.7321H29.1338V30.9212L29.481 30.9562C29.8282 30.9796 30.2564 31.0029 30.7772 31.0029C33.7051 31.0029 35.9619 30.2795 37.4895 28.8092C38.7047 27.6424 39.3875 25.8921 39.3875 23.8852C39.3759 21.9482 38.5774 20.198 37.1886 19.0895Z" fill="#6A47DC"/>
<path d="M166.922 31.8664C165.73 33.0216 164.029 33.6166 161.853 33.6166C161.298 33.6166 160.754 33.6166 160.372 33.5583L160.106 33.5116V20.8631L160.36 20.8164C160.904 20.7231 161.541 20.6764 162.27 20.6764C164.318 20.6764 165.996 21.2482 167.131 22.3567C168.288 23.4768 168.855 25.0871 168.843 27.1174C168.832 29.556 168.103 30.7346 166.922 31.8664ZM173.739 26.954C173.739 23.6752 172.524 21.0848 170.255 19.4396C168.242 17.9693 165.614 17.3159 161.772 17.3159C159.446 17.3159 157.213 17.4559 155.477 17.7126V36.7438C157.05 36.9421 158.821 37.0355 160.754 37.0355C164.966 37.0355 168.184 36.172 170.313 34.4451C172.084 32.9982 173.739 31.0846 173.739 26.954Z" fill="#6A47DC"/>
<path d="M151.46 21.2481V17.4675H138.637V36.6037H151.46V32.8114H143.254V28.9025H151.46V25.1453H143.254V21.2481H151.46Z" fill="#6A47DC"/>
<path d="M86.7572 36.6037V17.4675H81.1559C80.8666 17.9226 79.7903 19.6145 76.0638 25.3204L75.8092 25.7171L75.5662 25.3204C71.805 19.6145 70.7402 17.9226 70.4509 17.4675H64.8496V36.6153H69.4788V22.695L70.0227 23.4884C73.7839 28.8909 74.8255 30.4428 75.1033 30.8862H76.5383C76.8161 30.4428 77.8461 28.8909 81.6073 23.4884L82.1743 22.695V36.6153H86.7572V36.6037Z" fill="#6A47DC"/>
<path d="M51.8636 33.1149C48.4959 33.1149 45.7531 30.3495 45.7531 26.954C45.7531 23.5585 48.4959 20.7931 51.8636 20.7931C55.2545 20.7931 57.9973 23.5585 57.9973 26.954C57.9857 30.3495 55.2429 33.1149 51.8636 33.1149ZM51.8636 16.1841C45.9961 16.1841 41.1934 21.0031 41.1934 26.9423C41.1934 32.8815 45.9961 37.7122 51.8636 37.7122C57.7543 37.7122 62.5455 32.8815 62.5455 26.9423C62.5339 21.0148 57.7543 16.1841 51.8636 16.1841Z" fill="#6A47DC"/>
<path d="M134.611 36.6037V17.4675H129.021C128.732 17.9226 127.655 19.6145 123.917 25.3204L123.663 25.7171L123.408 25.3204C119.658 19.6145 118.594 17.9226 118.304 17.4675H112.691V36.6153H117.321V22.695L117.865 23.4884C121.637 28.8909 122.667 30.4428 122.945 30.8862H124.369C124.646 30.4428 125.676 28.8909 129.437 23.4884L129.993 22.695V36.6153H134.611V36.6037Z" fill="#6A47DC"/>
<path d="M99.7173 33.1149C96.3611 33.1149 93.6183 30.3495 93.6183 26.954C93.6183 23.5585 96.3727 20.7931 99.7173 20.7931C103.085 20.7931 105.851 23.5585 105.851 26.954C105.851 30.3495 103.085 33.1149 99.7173 33.1149ZM99.7173 16.1841C93.8382 16.1841 89.0586 21.0031 89.0586 26.9423C89.0586 32.8815 93.8498 37.7122 99.7173 37.7122C105.608 37.7122 110.399 32.8815 110.399 26.9423C110.399 21.0148 105.608 16.1841 99.7173 16.1841Z" fill="#6A47DC"/>
<path d="M20.5948 36.6388V17.491H3.92969V36.6388H8.5473V21.2832H15.9887V36.6388H20.5948Z" fill="#6A47DC"/>
<path d="M30.754 27.4674C30.1522 27.4674 29.7356 27.444 29.4 27.3857L29.1338 27.339V21.0614L29.3884 21.0264C29.6893 20.9564 30.2564 20.8864 31.1128 20.8864C33.4274 20.8864 34.8162 22.0532 34.8162 24.0019C34.8046 26.1488 33.2538 27.4674 30.754 27.4674ZM37.1886 19.0895C35.7883 17.9693 33.7399 17.4209 30.8698 17.4209C28.3469 17.4209 26.229 17.5726 24.5625 17.8526V36.7321H29.1338V30.9212L29.481 30.9562C29.8282 30.9796 30.2564 31.0029 30.7772 31.0029C33.7051 31.0029 35.9619 30.2795 37.4895 28.8092C38.7047 27.6424 39.3875 25.8921 39.3875 23.8852C39.3759 21.9482 38.5774 20.198 37.1886 19.0895Z" fill="#6A47DC"/>
<path d="M166.922 31.8664C165.73 33.0216 164.029 33.6166 161.853 33.6166C161.298 33.6166 160.754 33.6166 160.372 33.5583L160.106 33.5116V20.8631L160.36 20.8164C160.904 20.7231 161.541 20.6764 162.27 20.6764C164.318 20.6764 165.996 21.2482 167.131 22.3567C168.288 23.4768 168.855 25.0871 168.843 27.1174C168.832 29.556 168.103 30.7346 166.922 31.8664ZM173.739 26.954C173.739 23.6752 172.524 21.0848 170.255 19.4396C168.242 17.9693 165.614 17.3159 161.772 17.3159C159.446 17.3159 157.213 17.4559 155.477 17.7126V36.7438C157.05 36.9421 158.821 37.0355 160.754 37.0355C164.966 37.0355 168.184 36.172 170.313 34.4451C172.084 32.9982 173.739 31.0846 173.739 26.954Z" fill="#6A47DC"/>
<path d="M151.46 21.2481V17.4675H138.637V36.6037H151.46V32.8114H143.254V28.9025H151.46V25.1453H143.254V21.2481H151.46Z" fill="#6A47DC"/>
<path d="M86.7572 36.6037V17.4675H81.1559C80.8666 17.9226 79.7903 19.6145 76.0638 25.3204L75.8092 25.7171L75.5662 25.3204C71.805 19.6145 70.7402 17.9226 70.4509 17.4675H64.8496V36.6153H69.4788V22.695L70.0227 23.4884C73.7839 28.8909 74.8255 30.4428 75.1033 30.8862H76.5383C76.8161 30.4428 77.8461 28.8909 81.6073 23.4884L82.1743 22.695V36.6153H86.7572V36.6037Z" fill="#6A47DC"/>
<path d="M51.8636 33.1149C48.4959 33.1149 45.7531 30.3495 45.7531 26.954C45.7531 23.5585 48.4959 20.7931 51.8636 20.7931C55.2545 20.7931 57.9973 23.5585 57.9973 26.954C57.9857 30.3495 55.2429 33.1149 51.8636 33.1149ZM51.8636 16.1841C45.9961 16.1841 41.1934 21.0031 41.1934 26.9423C41.1934 32.8815 45.9961 37.7122 51.8636 37.7122C57.7543 37.7122 62.5455 32.8815 62.5455 26.9423C62.5339 21.0148 57.7543 16.1841 51.8636 16.1841Z" fill="#6A47DC"/>
<path d="M134.611 36.6037V17.4675H129.021C128.732 17.9226 127.655 19.6145 123.917 25.3204L123.663 25.7171L123.408 25.3204C119.658 19.6145 118.594 17.9226 118.304 17.4675H112.691V36.6153H117.321V22.695L117.865 23.4884C121.637 28.8909 122.667 30.4428 122.945 30.8862H124.369C124.646 30.4428 125.676 28.8909 129.437 23.4884L129.993 22.695V36.6153H134.611V36.6037Z" fill="#6A47DC"/>
<path d="M99.7173 33.1149C96.3611 33.1149 93.6183 30.3495 93.6183 26.954C93.6183 23.5585 96.3727 20.7931 99.7173 20.7931C103.085 20.7931 105.851 23.5585 105.851 26.954C105.851 30.3495 103.085 33.1149 99.7173 33.1149ZM99.7173 16.1841C93.8382 16.1841 89.0586 21.0031 89.0586 26.9423C89.0586 32.8815 93.8498 37.7122 99.7173 37.7122C105.608 37.7122 110.399 32.8815 110.399 26.9423C110.399 21.0148 105.608 16.1841 99.7173 16.1841Z" fill="#6A47DC"/>
</g>
<defs>
<clipPath id="clip0_3508_24867">
<rect width="173" height="56" fill="white" transform="translate(0.5)"/>
</clipPath>
</defs>
</svg>
