<svg width="142" height="22" viewBox="0 0 142 22" fill="none" xmlns="http://www.w3.org/2000/svg">
<g clip-path="url(#clip0_3493_24790)">
<path d="M0.861328 0.489502V21.51H6.15683V13.4586H16.6355V21.51H21.931V0.489502H16.6355V8.54089H6.15683V0.489502H0.861328Z" fill="#6A47DC"/>
<path d="M32.3503 0.489502L25.5566 21.51H31.1845L32.6952 16.6915H40.3782L41.8892 21.51H47.5168L40.7231 0.489502H32.3503ZM36.5367 4.9492L38.7888 11.9171H34.2846L36.5367 4.9492Z" fill="#6A47DC"/>
<path d="M51.1406 0.489502V21.51H67.9822L67.9825 16.592H56.4361V0.489502H51.1406Z" fill="#6A47DC"/>
<path d="M71.7188 0.48877H89.5559V5.40669H71.7188V0.48877Z" fill="#6A47DC"/>
<path d="M71.7188 8.54004H89.5559V13.458H71.7188V8.54004Z" fill="#6A47DC"/>
<path d="M71.7188 16.5913H89.5559V21.5092H71.7188V16.5913Z" fill="#6A47DC"/>
<path d="M104.808 -0.00927734C98.4485 -0.00927734 93.293 4.91968 93.293 10.9998C93.293 17.0797 98.4485 22.0085 104.808 22.0085C111.167 22.0085 116.323 17.0798 116.323 10.9998C116.323 4.91968 111.168 -0.00927734 104.808 -0.00927734ZM104.808 4.72116C108.247 4.72116 111.034 7.53218 111.034 10.9998C111.034 14.4673 108.247 17.2781 104.808 17.2781C101.369 17.2781 98.5814 14.4673 98.5814 10.9998C98.5814 7.53218 101.369 4.72116 104.808 4.72116Z" fill="#6A47DC"/>
<path d="M120.068 0.48877V21.5092H125.364V8.34244L135.843 21.5092H141.138V0.48877H135.843V13.655L125.364 0.48877H120.068Z" fill="#6A47DC"/>
</g>
<defs>
<clipPath id="clip0_3493_24790">
<rect width="140.279" height="22.0178" fill="white" transform="translate(0.861328 -0.00878906)"/>
</clipPath>
</defs>
</svg>
