<svg width="174" height="32" viewBox="0 0 174 32" fill="none" xmlns="http://www.w3.org/2000/svg">
<path d="M0.476562 30.0995L14.5297 6.52519L2.68142 6.60765L1.28185 1.89624H23.5587L9.84148 25.4344L23.4755 25.3027V30.0995H0.476562Z" fill="#6A47DC"/>
<path d="M79.5752 30.0995L67.4298 14.4402C66.3704 13.0713 65.6082 11.9485 64.7613 10.7113H64.6752C64.7613 11.6489 64.7613 13.3709 64.7613 14.6514V30.0995H58.9922V1.89624H64.8417L76.5636 16.9608C77.6689 18.3745 78.434 19.493 79.1962 20.6492H79.278C79.1962 19.3093 79.1962 17.473 79.1962 16.2749V1.89624H84.9826V30.0995H79.5752Z" fill="#6A47DC"/>
<path d="M110.141 6.69441H102.639V30.0995H96.7636V6.69441H88.5801V1.89624H111.453L110.141 6.69441Z" fill="#6A47DC"/>
<path d="M114.275 30.0995H120.087V1.89624H114.275V30.0995Z" fill="#6A47DC"/>
<path d="M138.849 30.3134H134.524L123.061 1.93799H129.443L135.117 16.9128C135.839 18.7549 136.476 20.5622 137.029 22.1423H137.112C137.579 20.6027 138.212 18.9661 138.968 17.0879L145.316 1.93799H151.25L138.849 30.3134Z" fill="#6A47DC"/>
<path d="M167.266 30.3137L164.549 23.4275H155.029L152.449 30.3137H146.725L157.684 1.97876H162.091L173.523 30.3137H167.266ZM160.861 13.2479C160.402 11.8197 160.02 10.6665 159.843 9.76933H159.805C159.637 10.7084 159.252 11.8646 158.787 13.1611L156.687 18.7132H162.772L160.861 13.2479Z" fill="#6A47DC"/>
<path d="M48.822 16.8797L48.7961 17.1068C48.4445 20.1281 46.7621 22.724 44.1811 24.2332C40.5537 26.3458 36.0349 25.7859 33.042 22.9063C33.599 22.5793 53.6408 10.8284 53.6408 10.8284L53.5662 10.6185C53.2762 9.84583 52.9188 9.08474 52.5111 8.36269C52.0632 7.57987 51.5465 6.83173 50.978 6.14296C48.7373 3.43131 45.6008 1.59652 42.16 0.96708C38.6503 0.327511 35.0387 0.971775 31.9654 2.77009C28.4887 4.81614 25.9795 8.10656 24.9417 12.0409C23.9024 15.9854 24.4364 20.105 26.4619 23.6327C28.4715 27.1721 31.7128 29.6942 35.5871 30.7476C39.4657 31.8024 43.5381 31.2613 47.0104 29.2253C51.3053 26.6975 54.1002 22.1959 54.4777 17.1589L54.502 16.8797H48.822ZM30.118 16.0173C30.118 12.6819 31.8577 9.4783 34.7976 7.75783C38.3144 5.69876 42.7945 6.19655 45.7831 8.94439C45.2262 9.2743 30.8902 17.6668 30.3304 17.9997C30.1883 17.3398 30.118 16.6742 30.118 16.0173Z" fill="#6A47DC"/>
</svg>
