<svg width="154" height="25" viewBox="0 0 154 25" fill="none" xmlns="http://www.w3.org/2000/svg">
<g clip-path="url(#clip0_3510_25022)">
<path fill-rule="evenodd" clip-rule="evenodd" d="M27.6311 0.0950415C25.6605 0.0950415 23.5251 6.52645 20.4901 13.3492C18.4668 17.827 16.8323 22.1224 16.193 23.4226C15.4318 23.3496 14.6705 23.27 13.8665 23.27C12.9537 23.27 12.0079 23.3529 11.0523 23.4226C10.4822 21.8172 8.77519 17.021 6.83424 12.195C4.50774 6.45679 2.45475 0.168011 0.556641 0.0983565V-0.249916C2.49759 -0.166994 4.3957 -0.0973375 6.29711 -0.0973375C7.66796 -0.0973375 9.03882 -0.170311 10.3701 -0.249916V0.0983565C9.87254 0.250933 9.34529 0.284102 9.34529 1.47818C9.34529 4.50648 15.1681 17.8303 15.7679 19.6314C16.6115 17.5252 21.4359 6.52977 21.4359 1.8563C21.4359 0.556085 20.9086 0.250933 20.1045 0.0983565V-0.249916C21.3963 -0.166994 22.7375 -0.0973375 24.0556 -0.0973375C25.2354 -0.0973375 26.4546 -0.170311 27.6311 -0.249916V0.0983565V0.0950415ZM49.2023 17.6015C48.2862 19.7077 47.6074 21.313 47.2317 23.7675C46.8857 23.5022 45.7093 23.3894 44.3351 23.3496C42.9642 23.2667 41.4089 23.2667 40.15 23.2667H35.6684C32.6202 23.2667 30.1817 23.3894 29.806 23.4193V23.0809C31.6646 23.0809 31.6646 19.8171 31.6646 11.588C31.6646 2.7419 31.6349 0.28742 29.806 0.0950415V-0.253231C30.6101 -0.253231 31.5525 -0.213428 32.7026 -0.170309C33.8823 -0.130507 35.2433 -0.0973375 36.8778 -0.0973375L40.15 -0.0973375C43.7255 -0.0973375 46.3881 -0.210115 47.983 -0.588238C47.7194 0.476477 47.3437 2.04868 47.3437 4.57613V5.34232H46.5397C46.5397 1.82313 43.653 1.28248 39.7315 1.28248C38.9275 1.28248 38.2091 1.3654 37.5994 1.51798C37.3062 3.96251 37.3062 9.06385 37.3062 10.0158C37.7939 10.0556 38.364 10.1286 39.4712 10.1286C43.6167 10.1286 44.1143 9.21974 44.2659 7.33576H45.0568C44.9052 8.78855 44.7932 10.2513 44.7932 11.7439C44.7932 14.2713 44.7932 12.6958 44.8327 14.6893H43.9891C43.9891 12.666 43.1982 11.5482 39.4679 11.5482C38.5551 11.5482 37.7906 11.5482 37.3029 11.588C37.3029 12.8152 37.3029 18.8586 37.4149 21.396C38.2486 21.4358 39.0824 21.5485 39.9556 21.5485C46.0124 21.5485 47.2614 19.6248 48.5202 17.2532L49.2023 17.6015ZM52.4548 23.0843C54.3134 23.0445 54.3134 19.711 54.3134 11.5913C54.3134 3.47161 54.3134 0.177961 52.4548 0.0983565V-0.239965C53.1765 -0.210114 54.0102 -0.166996 54.811 -0.127193C55.615 -0.127193 56.4059 -0.0873873 57.0155 -0.0873873C58.1524 -0.0873873 59.4837 -0.210112 61.0095 -0.362688C62.4924 -0.475462 64.1697 -0.588238 65.8767 -0.588238C66.9444 -0.588238 73.1396 -0.588237 73.1396 5.07697C73.1396 9.59787 68.6184 11.1303 66.4863 11.5084C67.2904 12.4305 69.5345 15.8767 72.0027 19.0244C74.1677 21.7741 75.1629 23.0013 76.2306 23.0843V23.4226C75.8451 23.3927 75.3475 23.3496 74.8993 23.3098C74.4017 23.27 73.9041 23.27 73.4164 23.27C71.8511 23.27 70.2166 23.3529 68.6612 23.5785C68.2032 22.8521 66.7598 20.4075 65.0034 17.7607C63.3689 15.3062 62.0772 12.8617 60.5943 12.8617C60.067 12.8617 60.3702 12.8617 59.9451 12.9346C59.9451 19.2964 59.9451 23.0909 61.886 23.0909V23.4292C60.3735 23.3164 58.6566 23.2766 57.1704 23.2766C55.5755 23.2766 53.941 23.3164 52.4548 23.4292V23.0909V23.0843ZM61.049 11.5183C64.4333 11.5183 67.0531 10.7223 67.0531 6.5364C67.0531 3.05037 65.0001 1.13654 62.5715 1.13654C61.7279 1.13654 60.8941 1.28911 60.0934 1.445C59.9418 4.20464 59.9418 10.2911 59.9418 11.4885C60.245 11.4885 60.4394 11.5183 61.049 11.5183ZM97.0274 5.08692V6.11847H98.0523V5.39208C98.0523 2.12828 98.4378 0.522915 98.6619 -0.591553C97.067 -0.283084 93.9068 -0.243281 89.346 -0.243281L85.2005 -0.243281C83.5232 -0.243281 81.513 -0.243281 79.8752 -0.316252C78.2408 -0.356054 76.9787 -0.429026 76.7546 -0.591553C76.7546 1.90273 76.2965 4.31741 75.7989 6.0057L76.7546 6.23125C77.3247 3.70379 78.8076 1.6805 83.2562 1.6805C83.6319 1.6805 83.9779 1.71036 84.3536 1.75348C84.548 2.71537 84.548 6.57951 84.548 11.6013C84.548 19.7209 84.548 23.0544 82.6071 23.0843V23.4325C84.09 23.3197 85.7278 23.28 87.3227 23.28C88.9176 23.28 90.5653 23.3197 92.0482 23.4325V23.0843C90.1072 23.0544 90.1072 19.7209 90.1072 11.6013C90.1072 6.57951 90.1072 2.71537 90.3017 1.75348C90.6773 1.71367 91.0234 1.6805 91.399 1.6805C95.505 1.6805 97.0274 2.40689 97.0274 5.08692ZM120.76 17.6147C119.848 19.7209 119.165 21.3263 118.78 23.7808C118.444 23.5155 117.267 23.4027 115.893 23.3629C114.522 23.28 112.967 23.28 111.708 23.28H107.217C104.178 23.28 101.74 23.4027 101.364 23.4325V23.0942C103.223 23.0942 103.223 19.8304 103.223 11.5979C103.223 2.75185 103.193 0.29737 101.364 0.104992V-0.243281C102.155 -0.243281 103.111 -0.203478 104.251 -0.160359C105.431 -0.120556 106.801 -0.0873873 108.436 -0.0873873L111.708 -0.0873873C115.284 -0.0873873 117.946 -0.200164 119.541 -0.578287C119.278 0.486427 118.902 2.05863 118.902 4.58608V5.35227H118.098C118.098 1.83308 115.211 1.29243 111.29 1.29243C110.486 1.29243 109.767 1.37535 109.158 1.52793C108.854 3.97246 108.854 9.0738 108.854 10.0257C109.352 10.0655 109.922 10.1385 111.029 10.1385C115.175 10.1385 115.663 9.22969 115.824 7.34571H116.615C116.463 8.7985 116.351 10.2612 116.351 11.7538C116.351 14.2813 116.351 12.7058 116.391 14.6992H115.547C115.547 12.6759 114.753 11.5581 111.026 11.5581C110.11 11.5581 109.349 11.5581 108.851 11.5979C108.851 12.8252 108.851 18.8685 108.973 21.4059C109.807 21.4358 110.64 21.5585 111.514 21.5585C117.571 21.5585 118.819 19.6347 120.078 17.2632L120.76 17.6114V17.6147ZM122.092 23.0975C122.853 23.0975 123.117 22.7924 123.726 22.2484C124.945 21.1439 132.891 12.593 133.042 12.4404C132.32 11.5615 129.355 7.65418 125.736 2.98072C123.644 0.300686 123.492 0.373656 122.464 0.108307V-0.230015C124.405 -0.157044 126.346 -0.0873873 128.287 -0.0873873C129.921 -0.0873873 131.671 -0.160361 133.276 -0.230015V0.108307C132.808 0.191228 132.281 0.304001 132.281 0.874503C132.281 2.47987 136.426 7.58453 137.23 8.68904C138.328 7.38883 141.903 2.41021 141.903 1.22277C141.903 0.191229 141.221 0.191228 140.654 0.108307V-0.230015C142.015 -0.200163 143.386 -0.0873873 144.8 -0.0873873C146.049 -0.0873873 147.38 -0.160361 148.599 -0.230015V0.108307C148.224 0.148109 147.766 0.304 147.229 0.52623C146.316 0.914304 141.336 6.92779 138.216 9.87317C138.977 10.7919 142.819 15.6611 146.741 20.3744C148.794 22.8587 149.018 22.9814 149.97 23.0942V23.4425C147.917 23.2799 145.825 23.28 143.772 23.28C142.206 23.28 140.611 23.3629 139.046 23.4425V23.0942C139.583 23.0942 140.041 23.0113 140.041 22.3678C140.041 21.1406 134.871 15.0873 133.955 13.6245C132.97 14.8518 128.854 20.1389 128.854 22.2152C128.854 23.0942 129.615 23.0942 130.113 23.0942V23.4425C128.811 23.3596 127.562 23.28 126.273 23.28C124.86 23.28 123.459 23.3629 122.088 23.4425V23.0942L122.092 23.0975Z" fill="#6A47DC"/>
<path fill-rule="evenodd" clip-rule="evenodd" d="M151.849 2.34394C151.016 2.34394 150.416 1.72037 150.416 0.881197C150.416 0.0420296 151.075 -0.581543 151.849 -0.581543C152.624 -0.581543 153.273 0.00222707 153.273 0.881197C153.273 1.76017 152.614 2.34394 151.849 2.34394ZM151.849 -0.326143C151.22 -0.326143 150.732 0.174704 150.732 0.881197C150.732 1.54457 151.157 2.08854 151.849 2.08854C152.469 2.08854 152.957 1.59764 152.957 0.881197C152.957 0.164754 152.469 -0.326143 151.849 -0.326143ZM151.566 1.72036V1.03377H151.81L152.225 1.72036H152.518L152.07 1.01387C152.314 0.984018 152.485 0.861294 152.485 0.562776C152.485 0.234406 152.291 0.101731 151.896 0.101731L151.286 0.101731V1.71705H151.559L151.566 1.72036ZM151.859 0.801591C152.054 0.801591 152.225 0.781688 152.225 0.54619C152.225 0.350495 152.044 0.320646 151.879 0.320646H151.563V0.801591H151.856H151.859Z" fill="#6A47DC"/>
</g>
<defs>
<clipPath id="clip0_3510_25022">
<rect width="153" height="24" fill="white" transform="translate(0.5 0.112793)"/>
</clipPath>
</defs>
</svg>
