<svg width="178" height="32" viewBox="0 0 178 32" fill="none" xmlns="http://www.w3.org/2000/svg">
<g clip-path="url(#clip0_3493_24839)">
<path fill-rule="evenodd" clip-rule="evenodd" d="M26.8281 25.2537H30.5145V7.10474H26.8281V25.2537Z" fill="#6A47DC"/>
<path fill-rule="evenodd" clip-rule="evenodd" d="M154.46 23.3145V25.2536H137.912V7.07886H153.257V9.03477H141.557V14.7991H151.59V16.7464H141.557V23.3145H154.46Z" fill="#6A47DC"/>
<path fill-rule="evenodd" clip-rule="evenodd" d="M168.648 15.3972L168.544 15.2848L176.242 7.10474H172.741L166.799 13.378L161.016 7.10474H156.73L164.773 15.8349L164.703 15.9115L156.148 25.2537H159.562L166.461 17.7772L173.114 25.2537H177.5L168.648 15.3972Z" fill="#6A47DC"/>
<path fill-rule="evenodd" clip-rule="evenodd" d="M46.9829 8.5491C42.1114 8.5491 39.0215 11.6041 39.0215 16.1519C39.0215 21.345 42.672 23.802 47.0102 23.802C52.0098 23.802 54.8754 20.7026 54.8754 16.0735C54.8754 11.9978 52.4319 8.5491 46.9829 8.5491ZM47.0145 25.7922C40.0186 25.877 35.123 22.127 35.123 16.3717C35.123 11.233 39.1213 6.65797 46.9829 6.5642C55.0146 6.46721 58.7728 11.2312 58.7728 15.9576C58.7728 21.5121 54.3592 25.7052 47.0145 25.7922Z" fill="#6A47DC"/>
<path fill-rule="evenodd" clip-rule="evenodd" d="M96.8528 8.5491C91.9816 8.5491 88.8914 11.6041 88.8914 16.1519C88.8914 21.345 92.543 23.802 96.8811 23.802C101.882 23.802 104.746 20.7026 104.746 16.0735C104.746 11.9978 102.303 8.5491 96.8528 8.5491ZM96.8847 25.7922C89.8892 25.877 84.9922 22.127 84.9922 16.3717C84.9922 11.233 88.9923 6.65797 96.8528 6.5642C104.886 6.46721 108.642 11.2312 108.642 15.9576C108.642 21.5121 104.23 25.7052 96.8847 25.7922Z" fill="#6A47DC"/>
<path fill-rule="evenodd" clip-rule="evenodd" d="M83.1958 9.23436C81.1615 7.62454 78.2715 6.56445 74.321 6.56445C66.0818 6.56445 61.8887 11.0883 61.8887 16.2305C61.8887 21.9877 67.0233 25.7925 74.3558 25.7925C78.0964 25.7925 81.1094 24.8161 83.5673 23.1734L81.828 21.5822C79.9161 22.7937 77.8853 23.7324 75.112 23.7324C70.0108 23.7324 65.7861 21.2772 65.7861 16.082C65.7861 11.5364 69.1293 8.47956 74.4577 8.47956C77.3983 8.47956 79.429 9.14095 80.9795 10.5242L83.1958 9.23436Z" fill="#6A47DC"/>
<path fill-rule="evenodd" clip-rule="evenodd" d="M122.506 23.1222C121.213 23.3384 119.329 23.381 118.495 23.381H115.936C115.936 23.381 115.936 14.7886 115.936 12.7271C115.936 11.8632 116.192 10.8342 117.069 10.0536C118.267 8.98387 120.295 8.51001 122.58 8.51001C126.378 8.51001 130.039 10.749 130.039 15.4156C130.039 20.764 125.923 22.5446 122.506 23.1222ZM122.246 6.62891C118.29 6.62891 114.43 8.26306 113.132 10.1578C112.373 11.2651 112.25 12.5038 112.25 13.3184C112.25 16.271 112.249 25.2585 112.249 25.2585C112.249 25.2585 112.011 25.2585 119.635 25.2585C120.701 25.2585 122.43 25.1905 123.422 25.0559C129.518 24.2314 133.968 20.9018 133.968 15.4156C133.968 8.65818 127.871 6.62891 122.246 6.62891Z" fill="#6A47DC"/>
<path fill-rule="evenodd" clip-rule="evenodd" d="M13.9872 23.2091C13.367 23.3079 12.3573 23.3627 11.5824 23.3627H4.18817C4.18817 23.3627 4.18817 14.1074 4.18817 13.2453C4.18817 11.9418 4.28723 10.6434 5.63458 9.63158C6.81432 8.74364 8.64261 8.34494 10.8312 8.34494C13.849 8.34494 16.5117 9.73179 16.5117 11.7306C16.5117 13.0341 15.3661 14.2814 12.5504 14.6221C12.0677 14.6797 10.968 14.7463 10.4009 14.7463H5.87182V16.6306H11.3908C11.8976 16.6306 12.9065 16.6546 13.367 16.6972C16.3007 16.9817 17.8548 18.1402 17.8548 19.8832C17.8548 21.4561 16.7307 22.7764 13.9872 23.2091ZM17.0885 15.3239C19.1049 14.5315 20.0265 13.2488 20.0265 11.6265C20.0265 8.4065 16.1248 6.4624 10.4975 6.4624C7.02033 6.4624 3.88561 7.40618 2.08746 8.98558C0.941819 9.9927 0.5 11.071 0.5 13.3151C0.5 16.2627 0.5 25.2588 0.5 25.2588H12.0318C13.1706 25.2588 14.7638 25.1568 15.7404 24.9607C19.121 24.286 21.3703 22.4987 21.3703 20.0127C21.3703 17.8815 20.0872 16.3923 17.0885 15.3239Z" fill="#6A47DC"/>
</g>
<defs>
<clipPath id="clip0_3493_24839">
<rect width="177" height="32" fill="white" transform="translate(0.5)"/>
</clipPath>
</defs>
</svg>
