<svg width="136" height="40" viewBox="0 0 136 40" fill="none" xmlns="http://www.w3.org/2000/svg">
<path fill-rule="evenodd" clip-rule="evenodd" d="M123.5 35H117.84L111.701 26.6063H100.614V35H95.895V4H101.557L123.5 35ZM100.614 22.1296V10.6039L108.516 22.1296H100.614ZM80.4392 19.445L94.8306 35H88.3436L74.4213 19.445L88.3436 4H94.8306L80.4392 19.445ZM29.2368 19.445L43.7468 35H37.1413L23.219 19.445L37.1413 4H43.7468L29.2368 19.445ZM59.0235 22.967C58.6755 23.0892 58.0979 23.3212 57.8129 23.3212L67.9343 35H61.9164L48.8214 19.445H54.8367C57.9037 19.445 60.5015 16.9829 60.5015 13.9609C60.5015 10.9389 57.9037 8.47677 54.8367 8.47677H48.8214V35H44.2185V4H54.8367C57.5506 4 60.325 5.10543 62.2115 6.89518C64.1006 8.68732 65.281 11.2595 65.281 13.9489C65.281 16.6335 64.1006 19.0956 62.2115 20.8878C61.2682 21.8927 60.3199 22.4072 59.0235 22.967ZM69.8209 4H74.4223V35H69.8209V4ZM18.5 4H23.1012V35H18.5V4Z" fill="#6A47DC"/>
</svg>
