<svg width="172" height="40" viewBox="0 0 172 40" fill="none" xmlns="http://www.w3.org/2000/svg">
<g clip-path="url(#clip0_3508_24946)">
<path fill-rule="evenodd" clip-rule="evenodd" d="M20.2122 31.1826C20.1682 33.5616 19.5087 35.4215 18.2776 36.7624C17.2224 37.9735 15.5077 38.9683 13.1334 39.7902L12.1222 38.2763C13.2653 37.9302 14.0567 37.4544 14.4085 36.9354C14.7602 36.4163 14.9361 35.6378 14.9361 34.4267L14.9801 32.1774C12.6498 33.5183 10.7592 34.1671 9.30826 34.1671C7.59353 34.1671 5.92276 33.5183 4.29596 32.264C2.80107 31.1826 1.65791 29.6687 0.998401 27.9385C0.514759 26.5977 0.294922 25.127 0.294922 23.6996C0.294922 20.4556 1.43808 17.8171 3.72439 15.8274C5.21928 14.4865 7.7694 13.1456 11.3308 11.7182C13.8809 11.7182 16.5629 12.8861 19.3329 15.2651L16.5189 19.5472C14.6723 16.779 12.386 15.1353 9.74793 14.6163C8.12114 15.0055 6.97798 15.6976 6.31847 16.6492C5.61499 17.7306 5.26325 19.4607 5.26325 21.8397C5.17532 24.3484 5.96673 26.7707 7.46163 28.8036C8.91255 30.6635 10.4954 31.6151 12.2101 31.6151C12.6058 31.6151 13.5731 30.7068 15.068 28.9334L15.1559 25.3865C15.1559 24.781 14.9801 24.3917 14.6283 24.3052H14.4085H13.705V22.7913L20.476 22.056L20.2122 31.1826ZM32.655 33.2588C32.2593 33.3886 31.292 33.4318 29.7092 33.3021L27.7306 33.1723L26.4556 33.2588L24.3451 33.4318L24.2572 12.9293C24.2572 12.5833 24.0374 11.4587 23.6856 9.51226C23.5977 8.94996 23.4218 8.69043 23.158 8.69043L22.9382 8.64718L22.2347 8.82019V7.21979L28.0824 5.61938C29.0057 9.07972 29.4893 11.8912 29.4893 14.0539V16.9952L29.3135 30.577L30.6325 30.7501L31.2041 30.7933L31.6437 30.8366C31.8636 30.7933 32.0834 30.75 32.2593 30.6203L34.3697 29.2794L35.4689 30.577C34.4577 32.0909 33.4904 32.956 32.655 33.2588ZM52.0886 31.5286C51.2972 32.2639 50.0661 32.8263 48.3514 33.2588L44.3064 33.9941C41.7123 33.7346 39.3381 32.5235 37.6233 30.577C35.9526 28.6739 35.1172 26.2949 35.1611 23.3969C35.1611 20.0663 36.2603 17.4278 38.4147 15.4813C40.0855 14.0107 42.7236 12.7131 46.2849 11.675C48.7471 11.675 51.2533 12.9293 53.7594 15.3948L50.242 18.3361C49.1868 17.2115 47.9557 16.2167 46.5927 15.3948C45.4056 14.746 44.5702 14.4432 44.0866 14.4432C42.9434 14.4432 41.9761 15.2651 41.1847 16.952C40.5692 18.2063 40.2174 19.5905 40.1295 21.0179L47.8238 21.1909C49.0988 21.1909 50.3299 20.8016 51.3852 20.1528L52.2645 21.7099C51.1653 22.4453 50.0222 23.0508 48.7911 23.4834C47.516 23.8726 46.197 24.0457 44.878 24.0457L40.2614 24.0889C40.5692 25.9488 41.4485 27.6358 42.8555 28.9334C44.3943 30.4905 45.9332 31.2691 47.516 31.2691C48.923 31.2691 50.0222 29.5389 50.8136 26.0354L54.1991 27.2465C53.6275 29.2362 52.968 30.6635 52.0886 31.5286ZM70.9947 33.6913C70.599 33.6913 70.2912 33.4318 70.0714 32.9128C69.8515 32.5235 69.7196 32.0477 69.7636 31.6151V30.9663L69.8075 30.404L70.8188 20.3258C70.8188 20.1528 70.8628 20.023 70.8628 19.85C70.8628 18.8119 70.2912 17.7738 69.1041 16.779C68.0928 15.8706 66.7738 15.3083 65.3668 15.2651C64.4435 15.9139 63.6961 16.8222 63.2564 17.8603C62.6848 18.8984 62.377 20.0663 62.3331 21.2774L62.1572 33.0858L57.1889 33.8211L57.4527 19.5472L57.3208 18.3794L57.1449 17.3413L56.5733 15.3083C56.6173 15.2218 56.6173 15.1353 56.5294 15.0488C56.4414 14.9623 56.4414 14.9623 56.3975 15.0055H55.7379L55.2983 13.3186L60.9701 11.8047L61.8934 14.4432L62.1572 15.4813C64.3995 13.3619 66.466 12.1075 68.4006 11.7182C70.467 12.021 72.3577 13.0159 73.7206 14.5297C75.3474 16.2599 76.0509 18.0766 75.963 20.023C75.963 20.196 75.919 20.4988 75.8751 20.8881L74.7759 30.3608C74.7759 30.6203 74.8198 30.9231 74.9078 31.1826C74.9078 31.2259 74.9078 31.2258 74.9078 31.2691H74.9957L75.919 31.1826L76.0949 32.956L70.9947 33.6913ZM103.838 33.7346L103.575 33.5183C103.531 33.5183 103.531 33.4751 103.487 33.4751C103.003 33.0425 102.783 32.1774 102.871 31.0096L102.915 30.4473L103.926 19.8933C103.97 18.7687 103.575 17.6873 102.783 16.8222C101.948 15.8274 101.024 15.3083 100.013 15.3083C99.6615 15.3083 99.2658 15.3948 98.914 15.5246C98.3424 16.3464 97.8148 17.2115 97.3752 18.0766L97.1993 18.5091L97.0234 33.0425L92.0551 33.7778L92.3629 19.8933C92.4068 18.7687 92.0551 17.6873 91.3956 16.779C90.78 15.8706 89.7248 15.3083 88.5817 15.3083C88.4498 15.3083 88.3179 15.3083 88.186 15.3516L87.3945 15.5678L86.2074 17.5143C85.9876 17.7738 85.8557 18.0766 85.7677 18.4226L85.6358 33.0425L80.6675 33.7778L80.9313 19.504L80.7994 18.3361L80.6235 17.298L80.052 15.2651C80.0959 15.1786 80.052 15.092 80.008 15.0055C79.964 14.919 79.9201 14.919 79.8761 14.9623H79.2606L78.8209 13.2754L84.4487 11.7615C84.9324 13.1024 85.2841 14.0972 85.46 14.7893C86.779 13.3186 88.4937 12.2373 90.3843 11.675H90.6481C92.8465 11.675 94.7371 12.9293 96.3199 15.3948C97.6829 13.6214 99.6175 12.2805 101.816 11.675C103.663 11.675 105.333 12.5401 106.828 14.2702C108.323 16.0004 109.114 17.7305 109.114 19.4175L109.027 20.023L108.939 20.8881L107.927 29.8417C107.883 30.3608 107.927 30.8366 108.015 31.3556H108.191L109.071 31.0961L109.246 32.9993L103.838 33.7346ZM126.13 34.2104L124.195 31.4854L123.448 30.1445C120.59 32.1774 117.732 33.3453 114.962 33.6481C114.039 33.3453 113.203 32.8263 112.544 32.1342C111.84 31.4421 111.401 30.5338 111.357 29.5389C111.357 26.7274 114.347 23.9592 120.37 21.2341C119.755 19.2444 119.359 18.1198 119.271 17.8603C118.831 16.779 118.084 15.8274 117.117 15.1786L115.27 16.3897L114.127 15.0488L117.248 12.6266L118.392 11.848L119.315 11.6317C120.59 11.6317 121.821 12.4535 123.096 14.0972C123.8 15.0488 124.635 17.4278 125.602 21.1909C126.482 24.8242 128.064 28.2846 130.263 31.3124L126.13 34.2104ZM120.942 23.4401L121.425 23.7429H120.766C119.491 23.6996 118.216 24.0889 117.161 24.8675C116.281 25.4298 115.754 26.4246 115.71 27.4627C115.71 28.2846 116.501 29.3227 118.04 30.6203H118.216H118.524C120.37 30.6203 121.601 29.5822 122.173 27.4627L120.942 23.4401ZM137.737 27.7655L137.649 33.0858L132.681 33.7778L132.945 19.5472L132.813 18.3794L132.637 17.3413L132.066 15.3083C132.109 15.2218 132.109 15.1353 132.022 15.0488C131.978 15.0055 131.89 14.9623 131.846 15.0055H131.23L130.79 13.3186L136.418 11.8047L137.122 13.6214L137.342 14.4C138.793 13.2754 140.419 12.367 142.134 11.675C144.552 11.8912 146.487 12.6698 147.938 14.0107C149.521 15.4813 150.312 17.3845 150.312 19.8068C150.312 22.8345 148.29 25.127 144.245 26.6842C147.102 30.058 149.125 31.7449 150.356 31.7449H150.664L151.543 31.6151V33.129C150.532 33.6481 149.433 33.9509 148.333 33.9509C147.938 33.9941 147.542 34.0374 147.146 34.0374C145.3 34.0374 143.277 32.9993 141.167 30.8798L139.54 29.3227L139.232 28.9334C138.793 28.5441 138.265 28.1116 137.737 27.7655ZM137.737 26.1219H138.309C139.936 26.1651 141.519 25.8191 142.969 25.0838C144.464 24.3052 145.344 22.7913 145.3 21.1476C145.3 19.5905 144.728 18.0766 143.629 16.9087C142.53 15.6976 141.343 15.0488 140.068 15.0488C139.936 15.0488 139.848 15.0488 139.716 15.092L139.144 15.3083C138.573 16.3464 138.177 17.471 137.957 18.6821C137.869 19.331 137.781 19.9798 137.781 20.6286L137.737 26.1219ZM162.755 22.8778C163.59 23.2671 164.733 24.3052 166.052 26.0786L167.327 27.7223L167.591 28.1548C169.438 30.4905 170.845 31.7016 171.812 31.7016L172.12 33.129L169.746 33.8644L167.943 34.0806C167.02 34.0806 165.964 33.4751 164.733 32.2207C164.426 31.8747 163.546 30.8798 162.183 29.2362L161.919 28.8469C160.776 27.4627 160.029 26.7274 159.633 26.6409L159.193 27.1167V32.9993L154.225 33.8211V17.2548C154.225 15.1353 154.093 13.0591 153.785 10.9829C153.566 9.59877 153.39 8.9067 153.214 8.9067H152.95L152.335 9.03646L151.939 7.34955L157.699 5.70589C158.71 8.21463 159.193 12.4103 159.193 18.2929V23.3536C162.579 19.4175 164.601 15.6544 165.261 12.1075H170.493C169.702 13.7944 168.69 15.4381 167.591 16.952C166.316 18.6389 164.733 20.6286 162.755 22.8778Z" fill="#6A47DC"/>
</g>
<defs>
<clipPath id="clip0_3508_24946">
<rect width="172" height="40" fill="white"/>
</clipPath>
</defs>
</svg>
