<svg width="162" height="46" viewBox="0 0 162 46" fill="none" xmlns="http://www.w3.org/2000/svg">
<g clip-path="url(#clip0_3510_25029)">
<path d="M112.066 26.9838C112.066 29.3581 111.465 31.9041 108.848 31.9041C106.23 31.9041 105.629 29.3438 105.629 26.9838C105.629 24.6238 106.23 22.0921 108.848 22.0921C111.465 22.0921 112.066 24.6524 112.066 26.9838ZM98.5352 36.9102H105.615V34.7361H105.687C106.616 35.9948 107.732 37.4108 111.322 37.4108C116.772 37.4108 119.403 31.8755 119.403 26.9123C119.403 22.2495 117.658 16.5997 111.208 16.5997C109.019 16.5997 107.06 17.5867 105.944 19.2744H105.873V9.64844H98.5352V36.9245V36.9102Z" fill="#6A47DC"/>
<path d="M141.089 26.9839C141.089 21.4772 137.828 16.5999 130.605 16.5999C123.382 16.5999 120.121 21.4915 120.121 26.9839C120.121 32.4763 123.382 37.4109 130.605 37.4109C137.828 37.4109 141.089 32.4906 141.089 26.9839ZM133.752 26.9839C133.752 29.0865 133.38 31.9042 130.605 31.9042C127.83 31.9042 127.459 29.0722 127.459 26.9839C127.459 24.8957 127.83 22.0922 130.605 22.0922C133.38 22.0922 133.752 24.8814 133.752 26.9839Z" fill="#6A47DC"/>
<path d="M65.9668 36.9097H73.3043V26.1823C73.3043 24.1227 73.9336 22.6352 75.793 22.6352C78.0243 22.6352 78.2103 24.3086 78.2103 26.1823V36.9097H85.5477V26.1823C85.5477 24.1227 86.1771 22.6352 88.0365 22.6352C90.2678 22.6352 90.4394 24.3086 90.4394 26.1823V36.9097H97.7769V23.3074C97.7769 20.1035 96.1034 16.585 91.1832 16.585C86.2629 16.585 84.9184 19.4456 84.618 19.6744C83.7313 17.6863 81.5 16.585 79.426 16.585C76.7513 16.585 74.6059 17.4288 73.1327 19.7173H73.0611V17.0856H65.9811V36.9097H65.9668Z" fill="#6A47DC"/>
<path d="M141.787 36.9101H149.125V26.4402C149.125 23.2649 150.798 22.6213 152.057 22.6213C154.202 22.6213 154.46 24.2232 154.46 26.5117V36.8958H161.797V23.2935C161.797 18.7451 158.65 16.571 155.203 16.571C152.271 16.571 150.312 17.6009 148.939 19.589H148.867V17.0717H141.787V36.8958V36.9101Z" fill="#6A47DC"/>
<path d="M37.8338 40.6577C38.2629 40.6577 38.5346 40.9581 38.5346 41.3013C38.5346 41.6732 38.2486 41.9736 37.8338 41.9736C37.4619 41.9736 37.1901 41.6875 37.1901 41.3013C37.1901 40.9295 37.4762 40.6577 37.8338 40.6577ZM39.7504 39.4419C39.5931 38.4836 38.978 38.0688 37.9482 38.0688C36.4893 38.0688 35.8027 39.2131 35.8027 40.7578C35.8027 41.9593 36.3892 43.0892 37.8338 43.0892C38.978 43.0892 39.7933 42.4885 39.7933 41.2727C39.7933 40.3144 39.1211 39.6994 38.1914 39.6994C37.7623 39.6994 37.4047 39.7852 37.09 40.0856C37.1329 39.5993 37.4047 39.0701 37.9196 39.0701C38.0769 39.0701 38.1914 39.0844 38.2915 39.1559C38.3916 39.2274 38.4631 39.3275 38.4917 39.4276H39.7504V39.4419Z" fill="#6A47DC"/>
<path d="M32.2977 40.5864C32.2977 40.0572 32.3263 39.1561 33.0271 39.1561C33.728 39.1561 33.7423 40.0858 33.7423 40.5864C33.7423 41.087 33.7137 42.0167 33.0128 42.0167C32.312 42.0167 32.2977 41.1014 32.2977 40.5864ZM30.9961 40.5864C30.9961 42.4888 32.1689 43.1038 33.0271 43.1038C33.8853 43.1038 35.0582 42.4888 35.0582 40.5864C35.0582 38.6841 33.8853 38.0691 33.0271 38.0691C32.1689 38.0691 30.9961 38.6841 30.9961 40.5864Z" fill="#6A47DC"/>
<path d="M23.8422 43.0467H25.2725V38.1265H24.1426C24.0997 38.9417 23.4131 39.2135 22.7266 39.1992V40.2147H23.8422V43.0467Z" fill="#6A47DC"/>
<path d="M28.177 39.1851C28.5488 39.1851 28.8492 39.4855 28.8492 39.8717C28.8492 40.2579 28.5345 40.5296 28.1626 40.5296C27.7908 40.5296 27.4761 40.2436 27.4761 39.8574C27.4761 39.4712 27.8051 39.1851 28.177 39.1851ZM26.2603 41.7454C26.4034 42.718 27.1757 43.0899 28.0625 43.0899C29.5214 43.0899 30.2366 41.9599 30.2366 40.4009C30.2366 39.1708 29.6216 38.0552 28.2199 38.0552C27.1328 38.0552 26.2031 38.6988 26.2031 39.886C26.2031 40.9015 26.8897 41.445 27.8194 41.445C28.2199 41.445 28.5917 41.3306 28.8921 41.0588H28.9064C28.8349 41.4736 28.6633 42.06 28.0482 42.06C27.9481 42.06 27.8337 42.06 27.7193 41.9885C27.6191 41.9313 27.5333 41.8312 27.5047 41.7311H26.246L26.2603 41.7454Z" fill="#6A47DC"/>
<path d="M22.6857 37.411V30.8029L35.0578 17.0147H23.3865V9.9919L42.4955 9.9919V6.13007C42.4955 3.9989 40.8077 2.26823 38.748 2.26823L5.99393 2.26823C3.91998 2.26823 2.24652 3.9989 2.24652 6.13007L2.24652 39.8711C2.24652 42.0166 3.91998 43.7329 5.99393 43.7329H38.748C40.822 43.7329 42.4955 42.0023 42.4955 39.8711V37.411H22.6857ZM57.4136 29.8446V28.0138C56.5268 28.4715 55.5256 28.7433 54.5244 28.9721C52.8938 29.3583 52.0356 29.7731 52.0356 31.1176C52.0356 32.033 52.9939 32.9484 54.3384 32.9484C55.9976 32.9484 57.2992 31.9186 57.4136 29.8589M64.4507 24.3522V32.4907C64.4507 33.9782 64.5222 35.666 65.3375 36.9246H57.8427C57.6567 36.3811 57.5423 35.5945 57.5852 35.0509H57.5137C55.969 36.8817 53.7234 37.411 51.3634 37.4253H44.5408V40.5862C44.5408 43.5041 42.2523 45.8641 39.4203 45.8641H5.32168C2.48967 45.8641 0.201172 43.5041 0.201172 40.5862L0.201172 5.42921C0.201172 2.51138 2.48967 0.151367 5.32168 0.151367L39.4346 0.151367C42.2666 0.151367 44.5551 2.51138 44.5551 5.42921V17.6584L33.3844 30.4024H44.6123C45.3561 25.1818 51.8783 25.3534 55.3969 24.6669C56.3981 24.4809 57.3993 24.1663 57.3993 22.9076C57.3993 21.5631 56.1835 21.0768 54.9964 21.0768C52.7365 21.0768 52.2931 22.264 52.2502 23.1078L45.4276 23.1078C45.6564 17.5296 50.7627 16.6142 55.3253 16.6142C64.5222 16.6142 64.4364 20.5476 64.4364 24.3665" fill="#6A47DC"/>
<path d="M23.8422 43.0467H25.2725V38.1265H24.1426C24.0997 38.9417 23.4131 39.2135 22.7266 39.1992V40.2147H23.8422V43.0467Z" fill="#6A47DC"/>
<path d="M28.177 39.1851C28.5488 39.1851 28.8492 39.4855 28.8492 39.8717C28.8492 40.2579 28.5345 40.5296 28.1626 40.5296C27.7908 40.5296 27.4761 40.2436 27.4761 39.8574C27.4761 39.4712 27.8051 39.1851 28.177 39.1851ZM26.2603 41.7454C26.4034 42.718 27.1757 43.0899 28.0625 43.0899C29.5214 43.0899 30.2366 41.9599 30.2366 40.4009C30.2366 39.1708 29.6216 38.0552 28.2199 38.0552C27.1328 38.0552 26.2031 38.6988 26.2031 39.886C26.2031 40.9015 26.8897 41.445 27.8194 41.445C28.2199 41.445 28.5917 41.3306 28.8921 41.0588H28.9064C28.8349 41.4736 28.6633 42.06 28.0482 42.06C27.9481 42.06 27.8337 42.06 27.7193 41.9885C27.6191 41.9313 27.5333 41.8312 27.5047 41.7311H26.246L26.2603 41.7454Z" fill="#6A47DC"/>
<path d="M32.2977 40.5864C32.2977 40.0572 32.3263 39.1561 33.0271 39.1561C33.728 39.1561 33.7423 40.0858 33.7423 40.5864C33.7423 41.087 33.7137 42.0167 33.0128 42.0167C32.312 42.0167 32.2977 41.1014 32.2977 40.5864ZM30.9961 40.5864C30.9961 42.4888 32.1689 43.1038 33.0271 43.1038C33.8853 43.1038 35.0582 42.4888 35.0582 40.5864C35.0582 38.6841 33.8853 38.0691 33.0271 38.0691C32.1689 38.0691 30.9961 38.6841 30.9961 40.5864Z" fill="#6A47DC"/>
<path d="M37.8338 40.6577C38.2629 40.6577 38.5346 40.9581 38.5346 41.3013C38.5346 41.6732 38.2486 41.9736 37.8338 41.9736C37.4619 41.9736 37.1901 41.6875 37.1901 41.3013C37.1901 40.9295 37.4762 40.6577 37.8338 40.6577ZM39.7504 39.4419C39.5931 38.4836 38.978 38.0688 37.9482 38.0688C36.4893 38.0688 35.8027 39.2131 35.8027 40.7578C35.8027 41.9593 36.3892 43.0892 37.8338 43.0892C38.978 43.0892 39.7933 42.4885 39.7933 41.2727C39.7933 40.3144 39.1211 39.6994 38.1914 39.6994C37.7623 39.6994 37.4047 39.7852 37.09 40.0856C37.1329 39.5993 37.4047 39.0701 37.9196 39.0701C38.0769 39.0701 38.1914 39.0844 38.2915 39.1559C38.3916 39.2274 38.4631 39.3275 38.4917 39.4276H39.7504V39.4419Z" fill="#6A47DC"/>
</g>
<defs>
<clipPath id="clip0_3510_25029">
<rect width="161.596" height="45.6984" fill="white" transform="translate(0.201172 0.150879)"/>
</clipPath>
</defs>
</svg>
