<svg width="166" height="26" viewBox="0 0 166 26" fill="none" xmlns="http://www.w3.org/2000/svg">
<g clip-path="url(#clip0_3493_24820)">
<mask id="mask0_3493_24820" style="mask-type:luminance" maskUnits="userSpaceOnUse" x="-318" y="-78" width="549" height="313">
<path fill-rule="evenodd" clip-rule="evenodd" d="M-317.082 234.187H230.039V-77.2032H-317.082V234.187Z" fill="white"/>
</mask>
<g mask="url(#mask0_3493_24820)">
<path d="M0.5 20.932V3.14349H11.1329C12.8742 3.14349 14.1363 3.32233 14.9269 3.67936C15.8324 4.09554 16.5302 4.78919 17.0145 5.75212C17.3464 6.41108 17.5149 7.0952 17.5149 7.81196C17.5149 8.72662 17.2485 9.57804 16.7166 10.3784C16.1838 11.1707 15.5056 11.7283 14.6631 12.0425C16.5702 12.8218 17.5149 14.2207 17.5149 16.2275C17.5149 17.3733 17.2059 18.3458 16.6102 19.1476C16.0894 19.8222 15.4077 20.2907 14.5779 20.5498C13.7379 20.8035 12.5065 20.932 10.8921 20.932H0.5ZM4.68202 10.4546H9.89637C10.4827 10.4546 10.9117 10.4288 11.184 10.3744C11.4623 10.324 11.7278 10.205 11.9865 10.0194C12.6044 9.59639 12.9082 9.01088 12.9082 8.26963C12.9082 7.56443 12.6154 7.03333 12.0376 6.67631C11.6223 6.43149 10.9321 6.3152 9.9789 6.3152H4.68202V10.4546ZM4.68202 17.7671H9.89637C10.4827 17.7671 10.9116 17.7378 11.2044 17.6868C11.4844 17.6372 11.7465 17.5161 11.9865 17.3325C12.6044 16.9089 12.9082 16.3281 12.9082 15.578C12.9082 14.8728 12.6154 14.3417 12.0376 13.9827C11.6223 13.7419 10.9321 13.6188 9.9789 13.6188H4.68202V17.7671ZM62.5835 7.88881V20.932H58.5921V3.14349H63.9494L71.7586 16.3941V3.14349H75.7585V20.932H70.6046L62.5835 7.88881ZM98.0703 3.14349H102.251V13.1292C102.251 13.6964 102.291 14.2662 102.291 14.5845C102.291 14.896 102.363 15.2754 102.432 15.6508C102.552 16.4512 102.993 17.0034 103.723 17.3081C104.456 17.6114 105.725 17.7671 107.547 17.7671H109.559V20.932H107.108C105.057 20.932 103.462 20.8239 102.532 20.6097C100.367 20.0296 98.9962 18.7899 98.4124 16.8681C98.2966 16.4791 98.2081 15.9799 98.1571 15.3856C98.0932 14.7926 98.0703 14.0425 98.0703 13.1292V3.14349ZM111.895 3.14349H116.071V20.932H111.895V3.14349ZM118.58 20.932V17.7671H120.191C121.476 17.7671 122.413 17.7263 122.995 17.6413C123.579 17.5638 124.04 17.3965 124.364 17.1517C124.793 16.8613 125.093 16.4192 125.25 15.8337C125.408 15.2598 125.492 14.3512 125.492 13.1292V3.14349H129.669V13.1292C129.669 14.3376 129.615 15.3761 129.521 15.9963C129.429 16.6233 129.229 17.2115 128.936 17.7786C128.187 19.2795 126.82 20.2567 124.845 20.6933C123.905 20.8538 122.388 20.932 120.626 20.932H118.58ZM147.097 3.14349V6.3152H142.441C141.124 6.3152 139.924 6.44985 139.328 6.57634C138.732 6.69942 138.136 7.09521 137.699 7.6168C137.424 7.93302 137.238 8.27576 137.129 8.63074C137.016 8.98504 136.92 9.61 136.828 10.4954H147.097V13.6603H136.828C136.977 15.202 137.469 16.2683 138.303 16.8681C139.148 17.4699 140.591 17.7671 142.621 17.7671H147.097V20.932H142.441C141.04 20.932 139.637 20.8497 138.532 20.6845C136.771 20.424 135.371 19.7236 134.308 18.5886C132.823 16.9544 132.078 14.7334 132.078 11.9439C132.078 8.83884 133.137 6.43148 135.236 4.7137C135.952 4.13634 136.768 3.6882 137.53 3.49575C138.289 3.30874 139.433 3.14349 140.82 3.14349H147.097ZM154.014 20.932H150.04V3.14349H154.014V20.932ZM154.152 11.9303L160.249 3.14349H165.495L158.748 11.9303L165.5 20.932H160.249L154.152 11.9303ZM77.3048 20.932L84.9991 3.14349H89.7445L97.426 20.932H92.5955L90.7351 16.813H84.011L82.1379 20.932H77.3048ZM87.3727 7.42027L84.9267 13.6488H89.8092L87.3727 7.42027ZM28.1674 3C30.0116 3 31.6243 3.30396 33.0158 3.9126C34.6566 4.62188 35.8072 5.83916 36.4693 7.5413C36.9927 8.9007 37.2531 10.4702 37.2531 12.2649C37.2531 14.0765 36.9357 15.644 36.294 16.9619C35.5093 18.5566 34.2983 19.6637 32.6719 20.2975C31.449 20.7668 30.049 21 28.4423 21C26.3802 21 24.5709 20.6273 23.033 19.8813C21.759 19.2571 20.7803 18.2798 20.0978 16.9544C19.411 15.6236 19.0731 13.9983 19.0731 12.0881C19.0731 8.70145 19.9412 6.29003 21.6875 4.84834C22.4347 4.23767 23.3454 3.78205 24.4109 3.46379C25.4874 3.15301 26.7274 3 28.1674 3ZM28.1912 5.99693C26.3751 5.99693 25.0806 6.5668 24.3045 7.70587C23.6892 8.60353 23.3904 10.0194 23.3904 11.9711C23.3904 14.0581 23.7751 15.5862 24.536 16.5614C25.2985 17.5318 26.5214 18.0167 28.2014 18.0167C29.8226 18.0167 31.0167 17.5297 31.7843 16.5525C32.5571 15.578 32.9315 14.0649 32.9315 12.0126C32.9315 10.1615 32.6286 8.74498 31.9988 7.75008C31.272 6.58245 29.998 5.99693 28.1912 5.99693ZM39.6982 20.932V17.7671H47.9975C49.3115 17.7671 50.1992 17.6372 50.6596 17.3733C51.2962 17.0122 51.6221 16.4492 51.6221 15.6916C51.6221 14.8436 51.2468 14.2112 50.4995 13.8038C50.0672 13.5726 49.389 13.4638 48.4639 13.4638H45.0937C43.0495 13.4638 41.5713 13.0993 40.6471 12.3744C40.0845 11.914 39.6437 11.3421 39.3169 10.6375C38.9969 9.93777 38.8275 9.18701 38.8275 8.39272C38.8275 7.153 39.2071 6.01054 39.9543 4.97211C40.6555 3.98809 41.8266 3.40938 43.4555 3.22849C43.9848 3.17341 44.7984 3.14349 45.8784 3.14349H54.8901V6.3152H46.7541C45.5516 6.3152 44.744 6.36553 44.3346 6.46821C43.5159 6.66815 43.1066 7.27609 43.1066 8.27575C43.1066 9.12717 43.447 9.70384 44.1346 9.99898C44.355 10.0955 44.6555 10.1703 45.0367 10.2207C45.4172 10.2689 45.8784 10.3009 46.4222 10.3009H49.3336C50.0757 10.3009 50.7234 10.3288 51.2808 10.3907C51.84 10.4498 52.3097 10.543 52.6825 10.6743C53.959 11.0972 54.8416 11.8385 55.3309 12.9136C55.7258 13.7834 55.9147 14.7035 55.9147 15.676C55.9147 16.7355 55.6603 17.7052 55.159 18.5886C54.4569 19.7834 53.3829 20.5063 51.9489 20.762C51.1906 20.8742 50.1532 20.932 48.8306 20.932H39.6982Z" fill="#6A47DC"/>
</g>
</g>
<defs>
<clipPath id="clip0_3493_24820">
<rect width="165" height="26" fill="white" transform="translate(0.5)"/>
</clipPath>
</defs>
</svg>
