<svg width="184" height="24" viewBox="0 0 184 24" fill="none" xmlns="http://www.w3.org/2000/svg">
<mask id="mask0_3508_24754" style="mask-type:luminance" maskUnits="userSpaceOnUse" x="0" y="0" width="184" height="24">
<path d="M184 0.906494H0V23.0935H184V0.906494Z" fill="white"/>
</mask>
<g mask="url(#mask0_3508_24754)">
<path d="M14.5092 7.56418C14.1886 4.52922 12.389 3.29385 9.30055 3.29385C6.21212 3.29385 4.561 4.55891 4.561 6.76832C4.561 9.12621 7.00198 9.6251 10.2449 10.3022C13.66 11.009 18.0193 12.0721 18.0193 16.485C18.0193 21.1413 13.8679 22.846 9.86479 22.846C4.85802 22.846 1.18164 20.5177 1.18164 15.4516H3.86016C3.979 19.2527 6.74669 20.5772 10.1023 20.5772C12.5493 20.5772 15.3111 19.7219 15.3111 16.7464C15.3111 14.038 12.6622 13.5094 9.21735 12.7135C5.83203 11.9474 1.91214 11.3891 1.91214 6.97026C1.91214 2.55145 5.73108 0.995361 9.50245 0.995361C13.9509 0.995361 17.0097 3.05628 17.1879 7.56418H14.5092Z" fill="#6A47DC"/>
<path d="M40.3267 11.716C40.3267 17.8691 36.9414 22.8758 30.2835 22.8758C23.6256 22.8758 20.2461 17.7504 20.2461 11.6566C20.2461 5.11743 24.16 0.906494 30.2538 0.906494C36.7632 0.906494 40.3267 5.46785 40.3267 11.716ZM23.0138 11.8644C23.0138 17.1029 25.8706 20.4882 30.3191 20.4882C34.7676 20.4882 37.559 17.0732 37.559 11.8644C37.559 6.6557 34.7023 3.32377 30.2596 3.32377C25.3124 3.32377 23.0138 7.38623 23.0138 11.8644Z" fill="#6A47DC"/>
<path d="M57.7221 22.3708H43.8242V1.40527H46.5919V19.9535H57.7221V22.3649V22.3708Z" fill="#6A47DC"/>
<path d="M79.0668 11.716C79.0668 17.8691 75.6815 22.8758 69.0296 22.8758C62.3775 22.8758 58.9922 17.7504 58.9922 11.6566C58.9922 5.11743 62.9061 0.906494 69.0057 0.906494C75.5151 0.906494 79.0728 5.46785 79.0728 11.716H79.0668ZM61.7539 11.8644C61.7539 17.1029 64.6108 20.4882 69.0533 20.4882C73.4958 20.4882 76.2991 17.0732 76.2991 11.8644C76.2991 6.6557 73.4424 3.32377 68.9998 3.32377C64.0523 3.32377 61.7539 7.38623 61.7539 11.8644Z" fill="#6A47DC"/>
<path d="M91.2802 1.40527C95.2832 1.40527 98.2591 3.08609 98.2591 7.4455C98.2591 12.185 95.1945 13.7768 91.102 13.7768H85.4181V22.3767H82.6504V1.40527H91.2742H91.2802ZM85.424 11.4486H90.7515C93.4302 11.4486 95.4912 10.7121 95.4912 7.61774C95.4912 4.26206 93.1095 3.79286 90.3655 3.79286H85.4181V11.4486H85.424Z" fill="#6A47DC"/>
<path d="M118.221 22.3708H115.453V12.5711H104.383V22.3767H101.615V1.40527H104.383V10.1538H115.453V1.40527H118.221V22.3708Z" fill="#6A47DC"/>
<path d="M139.855 22.3708H136.761L134.433 15.9505H125.63L123.249 22.3708H120.303L128.547 1.40527H131.665L139.849 22.3708H139.855ZM130.05 4.05419L126.426 13.7411H133.614L130.05 4.05419Z" fill="#6A47DC"/>
<path d="M151.159 1.40527C155.102 1.40527 158.196 2.70597 158.196 7.20793C158.196 9.64897 156.754 11.6861 154.603 12.3038C157.55 12.9215 157.668 14.923 157.782 17.459C157.87 19.1399 157.87 21.2542 158.987 22.3767H155.81C155.126 21.3195 155.162 18.9617 155.102 17.756C154.925 14.2222 154.01 13.3076 150.214 13.3076H144.709V22.3767H141.941V1.40527H151.159ZM144.709 11.0922H149.918C152.626 11.0922 155.423 10.8249 155.423 7.38017C155.423 4.26206 153.125 3.76317 150.654 3.76317H144.709V11.0922Z" fill="#6A47DC"/>
<path d="M165.966 1.40527L172.707 19.1577L179.216 1.40527H183.071V22.3708H180.452V4.87974L173.883 22.3708H171.471L164.783 4.87974V22.3708H162.135V1.40527H165.966Z" fill="#6A47DC"/>
</g>
</svg>
