<svg width="182" height="36" viewBox="0 0 182 36" fill="none" xmlns="http://www.w3.org/2000/svg">
<g clip-path="url(#clip0_3508_24979)">
<path fill-rule="evenodd" clip-rule="evenodd" d="M173.171 25.5886V27.4685H170.02V25.5886C165.885 25.2903 161.751 22.9335 161.751 16.6686C161.751 10.1643 166.29 7.74769 170.049 7.4494V5.65967H173.201V7.4494C177.335 7.7182 181.498 10.1947 181.498 16.5489C181.498 22.8138 177.364 25.26 173.171 25.5886ZM170.02 9.89553C167.851 10.075 165.134 11.7754 165.134 16.5784C165.134 20.9938 167.678 22.9032 170.02 23.2023V9.89553ZM173.201 9.89553V23.2023C175.513 22.963 178.087 21.2027 178.087 16.5489C178.087 11.7754 175.571 10.075 173.201 9.89553ZM152.288 19.0549C151.623 19.0549 150.988 19.0254 150.467 18.8763V26.6031H147.171V6.76351C148.472 6.4947 150.178 6.34556 152.491 6.34556C155.064 6.34556 156.943 6.91265 158.129 7.95666C159.315 8.97119 160.037 10.5225 160.037 12.372C160.037 14.2814 159.459 15.7729 158.418 16.8472C157.001 18.3092 154.804 19.0549 152.288 19.0549ZM152.606 9.00067C151.623 9.00067 150.871 9.08998 150.467 9.20965V16.1613C150.958 16.3105 151.536 16.3399 152.288 16.3399C155.035 16.3399 156.712 14.9378 156.712 12.5212C156.712 10.1947 155.151 9.00067 152.606 9.00067ZM139.843 23.9775H143.372V27.4685H139.843V23.9775ZM134.863 31.2275L134.776 26.6031H125.409L125.264 31.2275H122.69L122.575 24.1865L123.818 24.1267C124.396 23.2023 124.888 22.1574 125.206 21.1134C125.726 19.413 125.929 17.6233 125.929 15.7729V12.0737H136.136V24.1267L137.581 24.1865L137.436 31.2275H134.863ZM132.868 14.669H128.878V16.7579C128.878 18.369 128.617 19.9801 128.213 21.4421C127.982 22.3664 127.577 23.2613 127.172 24.0373H132.868V14.669ZM111.998 20.2784C112.085 23.0826 114.109 24.3053 116.422 24.3053C118.128 24.3053 119.285 24.007 120.325 23.6497C120.528 24.4249 120.672 25.201 120.846 26.0066C119.718 26.5433 118.041 26.9309 115.959 26.9309C111.478 26.9309 108.789 24.007 108.789 19.5916C108.789 15.5049 111.188 11.7754 115.641 11.7754C120.209 11.7754 121.626 15.7139 121.626 18.7861C121.626 19.4425 121.598 19.9801 121.539 20.2784H111.998ZM118.446 17.7724C118.446 16.3399 117.838 14.1626 115.41 14.1626C113.125 14.1626 112.172 16.2801 111.998 17.8617H118.446V17.7724ZM103.253 20.1587C103.195 18.7271 103.108 16.7579 103.079 15.0271H102.993C102.559 16.5784 102.241 17.4741 101.489 19.7408L99.1474 26.4835H96.7474L94.5789 19.8899C94.1736 18.4878 93.6247 16.3998 93.2776 15.0575H93.1619C93.1619 16.8177 93.075 18.7861 92.9888 20.2186L92.6992 26.6031H89.6634L90.6751 12.0737H94.8677L96.9788 18.6075C97.2676 19.5916 97.7878 21.2331 98.1349 22.4557H98.1644C98.4819 21.4117 99.1178 19.413 99.6093 17.9216L101.518 12.0737H105.739L106.693 26.6031H103.571L103.253 20.1587ZM83.8807 24.9322H83.7659C82.9847 26.0655 81.4816 26.9613 79.6019 26.9613C76.7688 26.9613 75.2074 24.8125 75.2074 22.6352C75.2074 19.0254 78.3302 17.1455 83.5632 17.1758V16.9365C83.5632 15.922 83.2161 14.2216 80.6431 14.2216C79.2549 14.2216 77.8379 14.6395 76.8845 15.2959L76.1904 12.9989C77.2603 12.372 79.053 11.7754 81.2215 11.7754C85.6734 11.7754 86.8886 14.7288 86.8886 17.8617V23.1121C86.8886 24.4249 86.9747 25.6779 87.1487 26.6031H84.1121L83.8807 24.9322ZM83.6502 19.4425C81.0763 19.413 78.532 19.9801 78.532 22.3066C78.532 23.7685 79.4575 24.4553 80.6144 24.4553C82.1749 24.4553 83.1874 23.4408 83.5632 22.3664C83.6502 22.0976 83.6502 21.8591 83.6502 21.5609V19.4425ZM69.7287 20.1587C69.6713 18.7271 69.5843 16.7579 69.5556 15.0271H69.4686C69.0354 16.5784 68.7171 17.4741 67.9655 19.7408L65.623 26.4835H63.224L61.0555 19.8899C60.6501 18.4878 60.1012 16.3998 59.7542 15.0575H59.6385C59.6385 16.8177 59.5515 18.7861 59.4645 20.2186L59.1757 26.6031H56.14L57.1516 12.0737H61.3443L63.4545 18.6075C63.7442 19.5916 64.2643 21.2331 64.6114 22.4557H64.6401C64.9585 21.4117 65.5943 19.413 66.0858 17.9216L67.9942 12.0737H72.2156L73.1698 26.6031H70.0471L69.7287 20.1587ZM47.8729 26.9613C46.1097 26.9613 44.6058 26.1557 43.8542 24.9322H43.7959V31.4365H40.4714V16.907C40.4714 14.9976 40.414 13.4464 40.3557 12.0737H43.2758L43.4497 14.3707H43.5071C44.577 12.7007 46.1958 11.7754 48.3644 11.7754C51.6611 11.7754 54.2923 14.6395 54.2923 19.1442C54.2923 24.3955 51.1113 26.9613 47.8729 26.9613ZM47.2945 14.4904C45.7339 14.4904 44.317 15.6237 43.9116 17.325C43.8542 17.6233 43.7959 17.951 43.7959 18.2797V20.5767C43.7959 20.9348 43.8255 21.2626 43.8829 21.5912C44.2587 23.1425 45.5887 24.2758 47.1796 24.2758C49.55 24.2758 50.9382 22.2771 50.9382 19.2933C50.9382 16.6686 49.6369 14.4904 47.2945 14.4904ZM33.9667 24.9322H33.851C33.0699 26.0655 31.5668 26.9613 29.687 26.9613C26.8539 26.9613 25.2926 24.8125 25.2926 22.6352C25.2926 19.0254 28.4145 17.1455 33.6483 17.1758V16.9365C33.6483 15.922 33.3012 14.2216 30.7282 14.2216C29.34 14.2216 27.923 14.6395 26.9688 15.2959L26.2755 12.9989C27.3454 12.372 29.1381 11.7754 31.3067 11.7754C35.7594 11.7754 36.9729 14.7288 36.9729 17.8617V23.1121C36.9729 24.4249 37.0598 25.6779 37.2338 26.6031H34.198L33.9667 24.9322ZM33.7353 19.4425C31.1614 19.413 28.6171 19.9801 28.6171 22.3066C28.6171 23.7685 29.5426 24.4553 30.6995 24.4553C32.26 24.4553 33.2725 23.4408 33.6483 22.3664C33.7353 22.0976 33.7353 21.8591 33.7353 21.5609V19.4425ZM15.1905 25.5886V27.4685H12.0391V25.5886C7.90384 25.2903 3.76945 22.9335 3.76945 16.6686C3.76945 10.1643 8.30916 7.74769 12.0678 7.4494V5.65967H15.2192V7.4494C19.3536 7.7182 23.5175 10.1947 23.5175 16.5489C23.5175 22.8138 19.3832 25.26 15.1905 25.5886ZM12.0391 9.89553C9.87054 10.075 7.15228 11.7754 7.15228 16.5784C7.15228 20.9938 9.69658 22.9032 12.0391 23.2023V9.89553ZM15.2192 9.89553V23.2023C17.5321 22.963 20.1052 21.2027 20.1052 16.5489C20.1052 11.7754 17.5904 10.075 15.2192 9.89553Z" fill="#6A47DC"/>
</g>
<defs>
<clipPath id="clip0_3508_24979">
<rect width="181" height="36" fill="white" transform="translate(0.5)"/>
</clipPath>
</defs>
</svg>
