<svg width="170" height="22" viewBox="0 0 170 22" fill="none" xmlns="http://www.w3.org/2000/svg">
<g clip-path="url(#clip0_3511_25044)">
<path d="M74.6875 0.0800781C78.4768 0.0800788 82.2661 0.0800795 86.1049 0.0800801C88.389 0.0800805 90.7161 0.171958 92.8187 1.21539C94.0532 1.85196 94.644 3.30227 94.644 4.62133C94.6902 5.61883 94.4625 6.66555 93.8221 7.48258C93.0002 8.52601 91.7228 9.11663 90.5808 9.7532C92.4985 10.2979 94.644 11.1149 95.5121 13.0673C96.334 15.3838 95.6045 18.5141 93.1818 19.6035C91.3994 20.5124 89.3463 20.5583 87.3823 20.601C83.1804 20.601 78.9356 20.601 74.7337 20.601C74.7337 19.738 74.7337 18.8751 74.7799 18.0121C75.6942 17.8743 77.0178 18.2385 77.612 17.3296C77.9784 14.5143 77.7044 11.6104 77.7935 8.79507C77.7473 6.84273 78.0213 4.89039 77.5196 2.98398C76.6053 2.80351 75.6942 2.75758 74.7799 2.71164C74.6875 1.80601 74.6875 0.943046 74.6875 0.0800781ZM83.593 8.56867C85.1015 8.47679 86.7453 8.52273 88.0689 7.75163C89.1647 6.66226 89.2109 4.70992 88.2042 3.52867C86.8806 2.48524 85.0982 2.75758 83.5468 2.6657C83.5468 4.62133 83.5468 6.61632 83.593 8.56867ZM83.593 11.1576C83.593 13.4282 83.593 15.6955 83.593 17.9202C85.1906 17.8743 86.8344 17.9661 88.3428 17.2836C90.4421 16.1024 90.1682 12.4274 87.8873 11.5644C86.4713 11.1116 85.009 11.2035 83.593 11.1576Z" fill="#6A47DC"/>
<path d="M0.531934 0.0795899C5.054 0.0795906 9.57277 0.0795914 14.0948 0.0795922C16.0126 0.12553 18.0228 0.260063 19.6666 1.30678C21.0364 2.12381 21.7229 3.75787 21.6305 5.30006C21.5843 6.29755 21.3103 7.38693 20.5347 8.11536C19.6203 9.02427 18.3429 9.34255 17.1085 9.74942C18.2967 10.1596 19.7557 10.5665 20.2607 11.8822C20.9902 14.015 19.8481 16.558 21.3103 18.5104C22.36 17.6474 22.5448 16.2397 22.5877 14.9699C23.2743 14.9699 23.9576 14.9699 24.6441 14.9699C24.4626 16.5121 24.5055 18.1461 23.6836 19.5078C23.2281 20.2789 22.36 20.7777 21.4919 20.9614C19.9405 21.3257 18.2043 21.3257 16.7421 20.5086C15.9202 20.0558 15.2336 19.2814 14.9167 18.3758C14.1873 16.2889 15.3293 13.9724 14.2764 11.9314C14.1378 11.5672 13.7747 11.5213 13.4545 11.3868C12.1309 11.0225 10.7148 11.1604 9.34502 11.1604C9.39123 13.385 9.16347 15.6097 9.66519 17.7885C10.5795 17.8344 11.4905 17.8803 12.3586 17.8803C12.3586 18.7433 12.3586 19.6063 12.3586 20.4693C8.38449 20.4693 4.45986 20.4693 0.485719 20.4693C0.485719 19.6063 0.485719 18.7433 0.48572 17.8803C1.40004 17.8344 2.31105 17.7425 3.22537 17.6539C3.7733 13.116 3.40691 8.57474 3.45312 3.99084C3.49934 3.49209 3.31449 2.9474 2.81277 2.76365C2.0833 2.49131 1.26141 2.58318 0.482421 2.53724C0.531933 1.80553 0.531933 0.942557 0.531934 0.0795899ZM9.39123 2.71443C9.39123 4.66677 9.39123 6.61912 9.39123 8.57146C10.7611 8.52552 12.1309 8.70927 13.5007 8.39099C14.2302 8.21052 15.0521 7.89224 15.3722 7.12115C15.874 6.03177 15.5109 4.85052 15.326 3.71521C13.5469 2.62256 11.3981 2.62256 9.39123 2.71443Z" fill="#6A47DC"/>
<path d="M33.6811 0.033937C35.6913 0.0339374 37.7444 0.0339377 39.7546 0.0339381C41.4908 5.2544 43.0884 10.5208 44.8675 15.7413C45.0952 16.286 45.1414 16.9684 45.6894 17.3753C46.3759 17.8741 47.2407 17.92 48.0626 18.0119C48.0626 18.8289 48.0626 19.6919 48.0626 20.5089C44.2733 20.5089 40.4378 20.5089 36.6452 20.5089C36.6452 19.6459 36.6452 18.783 36.599 17.9659C37.5595 17.7855 38.6554 18.0578 39.4311 17.3294C39.2925 16.1481 38.837 15.0128 38.4706 13.8808C36.5066 13.8808 34.4964 13.8808 32.5358 13.8808C32.1694 15.0161 31.7139 16.1055 31.5323 17.2867C32.2618 18.0119 33.3577 17.7855 34.272 17.9692C34.272 18.8322 34.272 19.6492 34.272 20.5122C31.2584 20.5122 28.291 20.5122 25.2773 20.5122C25.2773 19.6492 25.2773 18.7863 25.2773 17.9233C26.0068 17.8773 26.6934 17.8314 27.4228 17.7855C28.5187 16.0136 29.0204 14.0186 29.707 12.0663C30.9415 8.06971 32.2684 4.03049 33.6811 0.033937ZM35.4636 4.89347C34.777 7.02628 34.0937 9.15908 33.3643 11.2492C34.7341 11.2492 36.1501 11.2492 37.5199 11.2492C36.8796 9.15908 36.193 7.02628 35.4636 4.89347Z" fill="#6A47DC"/>
<path d="M48.9818 2.66878C48.9818 1.80581 48.9818 0.94284 48.9818 0.0798728C52.2693 0.0798734 55.5569 0.125811 58.7983 0.0798745C61.4917 4.80159 64.0498 9.61189 66.7433 14.3336C66.7433 11.246 66.7433 8.20424 66.7433 5.11987C66.7433 4.39471 66.7433 3.57768 66.3307 2.94112C65.4626 2.66878 64.5053 2.71472 63.591 2.62284C63.591 1.75987 63.6372 0.896906 63.6372 0.0339381C66.7433 0.0339387 69.846 0.0339392 72.952 0.0339397C72.9058 0.896907 72.9982 1.75987 72.9058 2.5769C72.0839 2.66878 71.2158 2.62284 70.4863 2.98706C70.1662 3.57768 70.2124 4.25691 70.1662 4.89347C70.1662 10.1139 70.1662 15.2885 70.1662 20.5089C68.0669 20.5089 65.9181 20.5089 63.8188 20.5089C61.0329 15.4263 58.247 10.3863 55.4183 5.30362C55.3721 9.07049 55.3259 12.8374 55.4645 16.6075C55.4645 17.0603 55.6922 17.5624 56.194 17.7428C56.9234 17.9692 57.6562 17.8347 58.4319 17.9233C58.4319 18.7863 58.4319 19.6492 58.4319 20.5122C55.2796 20.5122 52.1307 20.5122 48.9355 20.5122C48.9355 19.6492 48.9355 18.7863 48.9355 17.9692C49.8036 17.9233 50.718 17.8774 51.5828 17.605C52.0383 16.8339 51.9029 15.925 51.9492 15.062C51.9029 11.748 51.9492 8.38799 51.9492 5.07393C51.9492 4.30284 51.8567 3.5744 51.5828 2.84925C50.7609 2.66878 49.8499 2.71471 48.9818 2.66878Z" fill="#6A47DC"/>
<path d="M105.83 0.0803237C107.887 0.0803241 109.94 0.0803245 111.95 0.0803248C113.594 5.16297 115.237 10.2489 116.835 15.3316C117.063 16.0141 117.29 16.7392 117.749 17.3298C118.39 17.9664 119.393 17.8286 120.215 18.0123C120.215 18.8753 120.215 19.6923 120.215 20.5553C116.379 20.5553 112.59 20.5553 108.755 20.5553C108.755 19.6923 108.755 18.8294 108.801 17.9664C109.761 17.8745 110.719 17.74 111.633 17.6022C111.405 16.3323 110.993 15.1051 110.629 13.9239C108.619 13.9239 106.655 13.878 104.648 13.9239C104.193 15.1511 103.827 16.4209 103.688 17.6908C104.602 17.7826 105.47 17.8712 106.381 17.9631C106.381 18.8261 106.381 19.6891 106.381 20.552C103.368 20.552 100.4 20.552 97.3867 20.552C97.3867 19.6891 97.3867 18.8261 97.3867 17.9631C98.2086 17.8253 99.2583 18.0091 99.8524 17.238C100.539 16.1026 100.856 14.7869 101.315 13.5597C102.817 9.06766 104.325 4.57563 105.83 0.0803237ZM105.649 11.2464C107.018 11.2464 108.388 11.2923 109.758 11.2464C109.071 9.11359 108.434 6.93485 107.748 4.80204C106.972 6.98078 106.289 9.11359 105.649 11.2464Z" fill="#6A47DC"/>
<path d="M122.224 0.0799785C125.878 0.0799791 129.486 0.0799798 133.137 0.0799804C133.137 0.89701 133.137 1.71404 133.183 2.57701C132.453 2.75748 131.675 2.94123 130.945 3.16763C131.767 4.57529 132.727 5.84513 133.685 7.16091C134.781 5.89107 135.876 4.61795 136.791 3.21029C136.061 2.98389 135.375 2.75748 134.645 2.52779C134.645 1.71076 134.645 0.893732 134.691 0.030764C137.705 0.0307645 140.719 0.030765 143.778 0.0307656C143.778 0.847796 143.778 1.66483 143.825 2.48186C143.049 2.70826 142.273 2.84607 141.541 3.20701C140.993 3.47935 140.58 3.9781 140.217 4.47685C138.755 6.11091 137.431 7.83684 136.061 9.5595C138.025 12.0106 139.804 14.5995 141.815 17.0506C142.455 17.8217 143.551 17.8676 144.508 18.0054C144.508 18.8684 144.508 19.6854 144.508 20.5484C140.672 20.5484 136.837 20.5484 132.955 20.5484C132.955 19.6854 132.955 18.8225 132.955 17.9168C133.685 17.8709 134.371 17.7823 135.101 17.7364C134.645 15.9218 133.275 14.6028 132.269 13.1065C131.265 14.2878 130.123 15.4231 129.347 16.7848C129.12 17.1031 129.301 17.6018 129.668 17.7396C130.169 17.8775 130.671 17.9201 131.176 18.0579C131.176 18.875 131.176 19.7379 131.176 20.5549C128.024 20.5549 124.875 20.5549 121.723 20.5549C121.723 19.692 121.723 18.829 121.723 17.966C122.726 17.7856 123.914 17.8282 124.69 16.9685C126.562 14.9703 128.159 12.7456 129.895 10.6128C128.205 8.43403 126.608 6.16341 124.872 4.0306C124.185 3.21357 123.135 2.84935 122.178 2.48842C122.178 1.71404 122.178 0.897009 122.224 0.0799785Z" fill="#6A47DC"/>
<path d="M146.975 0.0799396C150.903 0.0799403 154.827 0.079941 158.709 0.0799417C158.709 0.942909 158.709 1.75994 158.709 2.62291C157.887 2.76072 157.065 2.89525 156.243 3.07572C157.111 4.98212 158.343 6.754 159.531 8.52259C160.534 7.02306 161.769 5.61869 162.591 3.93869C162.683 3.71228 162.865 3.48588 162.818 3.25619C162.224 2.7115 161.402 2.7115 160.673 2.57369C160.673 1.75666 160.673 0.893693 160.719 0.0766626C163.64 0.0766631 166.519 0.0766636 169.44 0.0766641C169.44 0.893694 169.44 1.71072 169.486 2.57369C168.618 2.84604 167.704 3.07244 166.928 3.61712C166.334 4.02728 166.06 4.7065 165.65 5.29713C164.188 7.56775 162.591 9.74649 161.313 12.1516C160.993 14.058 161.132 16.0104 161.495 17.8709C162.498 18.0087 163.505 18.0513 164.555 18.0973C164.555 18.9143 164.555 19.7313 164.508 20.5484C160.399 20.5484 156.289 20.5484 152.18 20.5484C152.18 19.7313 152.18 18.9143 152.18 18.0513C153.094 17.9595 154.144 18.1891 154.966 17.6412C155.56 16.6437 155.468 15.4624 155.468 14.373C155.421 13.5101 155.606 12.6012 155.194 11.7841C154.781 10.9671 154.233 10.196 153.731 9.42493C152.589 7.65306 151.54 5.79259 150.262 4.11259C149.487 3.11509 148.163 2.84275 147.021 2.47853C146.975 1.714 146.975 0.89697 146.975 0.0799396Z" fill="#6A47DC"/>
</g>
<defs>
<clipPath id="clip0_3511_25044">
<rect width="169" height="21" fill="white" transform="translate(0.5 0.112793)"/>
</clipPath>
</defs>
</svg>
