<svg width="154" height="104" viewBox="0 0 154 104" fill="none" xmlns="http://www.w3.org/2000/svg">
<g clip-path="url(#clip0_3508_24792)">
<path fill-rule="evenodd" clip-rule="evenodd" d="M30.6789 80.0258C29.8099 85.1285 26.3161 89.4228 21.9352 90.8781C16.7578 92.621 15.0561 90.2313 16.2328 83.0623L20.5232 57.2071C21.4645 51.6371 24.6144 47.9897 30.1539 46.175L36.4356 44.1267C42.2466 42.2402 46.9895 41.755 49.6868 42.1323C51.2437 42.3659 52.6738 42.9589 53.7781 43.8393C56.1496 45.8696 56.7289 49.2475 56.3125 53.4159C55.2082 64.2324 45.3965 72.3537 33.9193 74.8871L31.4392 75.7136L30.6789 80.0258ZM33.7744 62.238C34.1124 62.1302 34.4503 62.0224 34.7882 61.9145C37.5579 60.9982 38.7708 59.9022 39.0786 58.1773C39.3682 56.5962 38.2277 56.2189 35.7839 57.0274C35.3856 57.1532 35.0416 57.261 34.6253 57.4586L33.7744 62.238Z" fill="#6A47DC"/>
<path fill-rule="evenodd" clip-rule="evenodd" d="M96.3225 54.0075C95.4717 59.4157 91.6701 64.0693 88.6107 66.7105C84.7548 70.0525 81.2248 71.993 75.3775 73.9514L63.7374 77.8324C60.0263 79.0721 58.379 78.8745 57.2747 77.0598C56.804 76.2153 56.6773 75.263 56.804 74.2209C56.804 73.9155 57.0031 72.8554 57.3471 70.9868L62.09 45.9581L62.5245 43.766C63.3391 39.5257 67.2312 35.2674 71.6845 33.8121L78.1111 31.7099C84.5376 29.6256 86.022 29.2663 88.4659 29.4639C90.0227 29.6256 91.3442 30.2545 92.358 31.1529C94.0959 32.8777 94.7838 35.8783 94.0416 39.3281C93.4804 41.9873 92.7925 43.4426 90.5115 46.8744C94.6208 46.3354 97.0104 49.7133 96.3225 54.0075ZM75.5043 48.4556L77.2602 47.8806C79.3601 47.1978 80.1024 46.6408 80.3558 45.3831C80.5911 44.1793 79.8851 43.9098 77.7852 44.6105L76.156 45.1316L75.5043 48.4556ZM72.8069 62.0749L75.287 61.2664C77.8395 60.4219 78.5636 59.8649 78.8533 58.4634C79.1248 57.1338 78.2921 56.9182 75.9387 57.6908L73.5129 58.4994L72.8069 62.0749Z" fill="#6A47DC"/>
<path d="M114.152 53.0913C112.559 60.3322 109.699 64.1233 104.576 65.8302C99.3983 67.5731 97.9501 65.3271 99.507 57.9425L104.974 32.3388C105.952 27.8829 107.852 24.9183 111.165 22.852C112.867 21.738 113.718 21.3966 117.682 20.103L126.697 17.1743C134.572 14.6049 137.07 15.4494 135.912 20.3725C134.898 24.7027 131.277 28.3501 126.263 29.9851L118.805 32.4466L118.117 35.5011L122.66 34.0098C127.657 32.3568 129.594 33.2013 128.743 36.8667C127.947 40.3344 125.231 42.9397 121.013 44.3411L115.691 46.1019L114.152 53.0913Z" fill="#6A47DC"/>
</g>
<defs>
<clipPath id="clip0_3508_24792">
<rect width="154" height="104" fill="white"/>
</clipPath>
</defs>
</svg>
