<svg width="172" height="36" viewBox="0 0 172 36" fill="none" xmlns="http://www.w3.org/2000/svg">
<path d="M0.881221 1.45312C0.415952 1.45312 0.0273438 1.84031 0.0273438 2.30633V27.224C0.0273438 27.6956 0.416173 28.0773 0.881221 28.0773M8.02703 1.45312H0.881221C0.415952 1.45312 0.0273438 1.84031 0.0273438 2.30633V27.224C0.0273438 27.6956 0.416173 28.0773 0.881221 28.0773H7.98992C15.5656 28.0773 21.156 23.1986 21.156 14.7838C21.156 6.37485 15.6047 1.45312 8.02703 1.45312ZM7.80213 23.2769H5.19942V6.26326H7.8432C12.1909 6.26326 15.7921 9.00495 15.7921 14.7838C15.7921 20.5705 12.1557 23.2769 7.80213 23.2769Z" fill="#6A47DC"/>
<path d="M38.0718 21.502C39.9848 21.502 41.5227 23.0421 41.5227 24.9207C41.5227 26.7955 39.9848 28.3375 38.0718 28.3375C36.196 28.3375 34.6621 26.7955 34.6621 24.9207C34.6621 23.0421 36.196 21.502 38.0718 21.502Z" fill="#6A47DC"/>
<path d="M60.0587 17.1829C63.5427 16.1732 65.7214 13.3572 65.7214 9.64293C65.7214 5.01866 62.423 1.45508 57.2468 1.45508H47.7152C47.2444 1.45508 46.8613 1.84282 46.8613 2.30829V27.224C46.8613 27.6955 47.2441 28.0752 47.7152 28.0752H51.2207C51.6899 28.0752 52.0727 27.6897 52.0727 27.224V17.8248H54.7711L59.5663 27.224C59.8067 27.6955 60.385 28.0752 60.854 28.0752H64.891C65.3562 28.0752 65.5495 27.6897 65.3114 27.224L60.0587 17.1829ZM56.2738 13.3571H52.0727V5.95796H56.2738C58.898 5.95796 60.4339 7.42172 60.4339 9.67611C60.4339 11.8581 58.898 13.3571 56.2738 13.3571Z" fill="#6A47DC"/>
<path d="M34.4792 9.45302C32.9062 9.45302 30.3562 9.90127 29.2288 12.3415V10.4472C29.2288 9.99507 28.8748 9.62915 28.4335 9.60174H25.2465C24.7873 9.60174 24.4082 9.97341 24.3945 10.4296V27.2239C24.4001 27.6877 24.7795 28.0714 25.2465 28.0714H28.5233L28.5289 28.0603C28.9941 28.0603 29.3808 27.6769 29.3808 27.207V19.622C29.3808 15.6435 31.5947 14.4048 34.1427 14.4048C34.5903 14.4048 35.0787 14.438 35.6414 14.5534V9.52413C35.2642 9.48529 34.8934 9.45302 34.4792 9.45302Z" fill="#6A47DC"/>
<path d="M150.934 9.60376H147.323C146.86 9.6077 146.264 9.9871 146 10.4492L141.82 20.4158L137.293 10.451C137.029 9.9873 136.433 9.60765 135.964 9.60765L132.109 9.60376C131.644 9.60376 131.47 9.98706 131.738 10.457L139.159 25.7465L135.196 34.5077C134.96 34.9698 135.152 35.3571 135.617 35.3571H139.204C139.657 35.3571 140.205 34.9987 140.459 34.5566L151.302 10.4472C151.557 9.97961 151.395 9.6077 150.934 9.60376Z" fill="#6A47DC"/>
<path d="M166.501 16.8873L163.879 16.3236C162.865 16.1356 162.193 15.5722 162.193 14.6681C162.193 13.6192 163.242 12.8325 164.551 12.8325C166.197 12.8325 167.025 13.6838 167.385 14.5742L167.39 14.5686C167.519 14.9991 167.893 15.2673 168.33 15.142L171.011 14.5393C171.431 14.41 171.664 13.9815 171.585 13.5647C171.023 11.5921 169.098 9.04224 164.514 9.04224C160.54 9.04224 157.616 11.7859 157.616 15.0891C157.616 17.6762 159.226 19.8191 162.787 20.6038L165.229 21.1714C166.648 21.467 167.214 22.1458 167.214 22.9717C167.214 23.9462 166.423 24.8112 164.774 24.8112C162.79 24.8112 161.718 23.684 161.462 22.367L161.456 22.3709C161.4 22.1735 161.21 22.0581 161.011 22.0814L157.877 22.7721C157.453 22.8936 157.206 23.3298 157.292 23.7584C157.871 25.8582 159.936 28.6391 164.811 28.6391C169.65 28.6391 171.973 25.5608 171.973 22.5608C171.973 19.8582 170.138 17.6368 166.501 16.8873Z" fill="#6A47DC"/>
<path d="M75.9534 9.03996C71.2306 9.03996 66.8848 12.8678 66.8848 18.7621C66.8848 24.9949 71.3438 28.6348 76.4028 28.6348C80.6312 28.6348 83.4352 26.312 84.5588 23.4177C84.592 23.0205 84.3577 22.6407 83.9609 22.5291L81.2839 21.7327C80.977 21.6678 80.6312 21.7882 80.3928 22.116C79.7167 23.4545 78.4857 24.3567 76.4418 24.3567C73.9681 24.3567 71.9046 22.5935 71.7933 20.1532H84.2012C84.6642 20.1532 85.0395 19.7738 85.0434 19.3117C85.0545 19.0887 85.0655 18.8558 85.0655 18.6092C85.0655 12.6797 81.6532 9.03996 75.9534 9.03996ZM71.9072 16.7344C72.0224 15.0436 73.445 13.0925 76.0302 13.0925C78.8811 13.0925 80.0829 14.8949 80.1552 16.7344H71.9072Z" fill="#6A47DC"/>
<path d="M106.863 27.2926L106.847 10.0775V1.74684C106.847 1.2731 106.463 0.889648 105.994 0.889648H102.782C102.352 0.889648 102.008 1.22418 101.952 1.63722C101.948 1.67605 101.93 1.7054 101.93 1.74701V11.1423L101.952 11.1383V11.4435C101.426 10.465 99.9293 9.14996 96.7423 9.14996C91.531 9.14996 87.8965 13.3945 87.8965 18.8016C87.8965 24.3925 91.6404 28.5237 96.8928 28.5237C99.3646 28.5237 101.238 27.3964 102.063 25.9326C102.063 25.9604 102.067 25.9825 102.067 26.0069L102.072 25.9904C102.072 26.2583 102.078 26.4852 102.089 26.6929C102.117 27.1173 102.156 27.4952 102.2 27.7809C102.271 27.9357 102.433 28.0588 102.619 28.0727H106.034L106.023 28.0505C106.461 28.0505 106.812 27.7174 106.863 27.2926ZM97.4939 24.0506C94.8638 24.0506 92.9156 22.0975 92.9156 18.7962C92.9156 15.4929 94.942 13.6122 97.4939 13.6122C100.04 13.6122 102.027 15.4537 102.027 18.757C102.027 22.0975 100.04 24.0506 97.4939 24.0506Z" fill="#6A47DC"/>
<path d="M129.035 27.2926L129.024 10.0775V1.74684C129.024 1.2731 128.642 0.889648 128.17 0.889648H124.962C124.53 0.889648 124.186 1.22418 124.129 1.63722C124.126 1.67605 124.107 1.7054 124.107 1.74701V11.1423L124.129 11.1383V11.4435C123.604 10.465 122.105 9.14996 118.918 9.14996C113.709 9.14996 110.072 13.3945 110.072 18.8016C110.072 24.3925 113.82 28.5237 119.07 28.5237C121.542 28.5237 123.416 27.3964 124.243 25.9326V26.0069L124.254 25.9904C124.254 26.2583 124.258 26.4852 124.27 26.6929C124.298 27.1173 124.339 27.4952 124.384 27.7809C124.45 27.9357 124.617 28.0588 124.804 28.0727H128.218L128.206 28.0505C128.644 28.0505 128.998 27.7121 129.043 27.2873M119.675 24.0506C117.049 24.0506 115.101 22.0975 115.101 18.7962C115.101 15.4929 117.121 13.6122 119.675 13.6122C122.223 13.6122 124.209 15.4537 124.209 18.757C124.209 22.0975 122.223 24.0506 119.675 24.0506Z" fill="#6A47DC"/>
<path d="M159.104 4.76218C159.233 4.42547 159.311 4.0655 159.311 3.68585C159.311 2.01464 157.944 0.642822 156.24 0.642822C154.571 0.642822 153.201 2.01464 153.201 3.68585C153.201 5.10661 154.194 6.30231 155.517 6.63103L153.854 10.3532C153.848 10.3809 153.843 10.4031 153.843 10.4314C153.843 10.6033 153.981 10.7426 154.153 10.7426L154.151 10.7482H155.816C155.976 10.7482 156.166 10.6228 156.256 10.4686L159.042 4.9148C159.065 4.87042 159.081 4.81887 159.099 4.77006C159.101 4.76811 159.104 4.76773 159.104 4.76218Z" fill="#6A47DC"/>
</svg>
