<svg width="172" height="36" viewBox="0 0 172 36" fill="none" xmlns="http://www.w3.org/2000/svg">
<path d="M16.4837 32.8874C12.6303 32.8874 8.92049 31.5537 5.5 29.8702L8.88406 22.0431C10.9586 23.5735 12.9925 25.0603 15.6843 25.0603C16.413 25.0603 17.8682 24.9072 17.8682 23.7484C17.8682 22.5678 16.7773 22.3055 15.3607 21.8682C12.1567 20.9062 7.06664 19.9661 7.06664 13.0791C7.06664 6.06088 12.341 3.41541 18.4833 3.41541C21.4301 3.41541 25.2535 4.48672 27.6132 6.27953L24.5956 13.3414C24.5956 13.3414 22.1609 11.1114 19.467 11.1114C17.9411 11.1114 16.9981 11.5486 16.9981 12.5106C16.9981 13.5163 18.524 13.888 19.4305 14.1722C22.6303 15.178 27.8703 16.2493 27.8703 23.1581C27.8703 30.1982 22.7396 32.8874 16.4837 32.8874ZM46.503 32.0566L45.6886 28.5365H38.3097L37.326 32.0566H27.0667L36.5994 4.2025H47.7246L56.8116 32.0566H46.503ZM41.9831 13.2102L39.617 21.9338H44.3384L41.9831 13.2102ZM75.3285 32.0566L67.1202 18.4793V32.0566H57.6474V4.2025H67.1202L75.3285 17.8453V4.2025H84.7156V32.0566H75.3285ZM98.4747 31.991L95.3457 32.0566H87.8017V4.2025H94.9813L98.1104 4.24622C106.983 4.24622 113.777 7.50388 113.777 18.217C113.777 28.3616 107.369 31.991 98.4747 31.991ZM98.7533 12.5544H97.6389V23.7484H98.7533C102.139 23.7484 103.918 21.9994 103.918 18.3263C103.918 14.9156 102.204 12.5544 98.7533 12.5544ZM129.636 32.8874C121.235 32.8874 114.827 27.028 114.827 18.1514C114.827 9.4716 121.064 3.39355 129.593 3.39355C138.145 3.39355 144.724 9.31854 144.724 18.1514C144.724 26.9842 139.173 32.8874 129.636 32.8874ZM129.743 12.6637C126.657 12.6637 124.771 14.9156 124.771 18.1077C124.771 21.4091 126.7 23.5954 129.743 23.5954C132.83 23.5954 134.801 21.4091 134.801 18.1077C134.801 14.85 132.808 12.6637 129.743 12.6637ZM159.491 23.7266H169.649V32.0566H143.46L155.161 12.5544H145.967V4.2025H170.999L159.491 23.7266Z" fill="#6A47DC"/>
</svg>
