<svg width="156" height="90" viewBox="0 0 156 90" fill="none" xmlns="http://www.w3.org/2000/svg">
<path d="M19.754 55.4208L18.108 49.0868H8.93777L7.23304 55.4208H1.00195L9.23168 26.8289H18.2844L26.5141 55.4208H19.754ZM10.1134 44.5878H16.9912L13.6405 31.387H13.5817L10.1134 44.5878Z" fill="#6A47DC"/>
<path d="M29.5117 55.4205V35.2936H35.0374V37.6023H35.0962C36.507 35.5896 38.3293 34.5833 41.3273 34.5833C45.4421 34.5833 48.1462 36.2408 48.1462 40.3845V55.3613H42.0915V41.9828C42.0915 39.7926 41.1509 39.1414 39.505 39.1414C37.0948 39.1414 35.6252 40.9173 35.6252 43.1076V55.4205H29.5117Z" fill="#6A47DC"/>
<path d="M60.0797 34.6431C62.725 34.6431 64.9 35.5902 65.8405 37.9581H65.8993C66.0169 36.8333 66.1344 36.1822 66.3696 35.2942H71.6013C71.4838 36.7149 71.3662 38.4908 71.3662 41.4507V56.1314C71.3662 60.9264 67.604 63.1758 61.5493 63.1758C55.3182 63.1758 52.2615 61.2815 52.0263 57.5522L57.9635 57.3154C58.6689 58.9729 59.8446 59.3873 61.6081 59.3873C64.0182 59.3873 65.3703 58.3809 65.3703 55.3619V52.4021H65.3115C64.3121 54.178 62.6662 55.1843 59.4331 55.1843C54.3777 55.1843 51.7324 52.2245 51.7324 45.2985C51.7912 38.3133 54.6716 34.6431 60.0797 34.6431ZM61.4317 51.0997C63.7243 51.0997 65.429 49.6198 65.429 46.3048V43.641C65.429 40.7403 64.0182 38.7868 61.6669 38.7868C59.2567 38.7868 57.7284 40.3259 57.7284 45.2393C57.7284 49.7382 59.0804 51.0997 61.4317 51.0997Z" fill="#6A47DC"/>
<path d="M94.3495 46.66H80.8292C80.888 50.8037 82.24 52.2245 85.0028 52.2245C86.6488 52.2245 87.942 51.8693 88.5886 50.0934L93.938 50.271C93.3501 54.5331 90.117 56.0722 84.7677 56.0722C77.9488 56.0722 75.0684 52.2837 75.0684 45.5352C75.0684 38.6684 78.2427 34.6431 84.7677 34.6431C91.763 34.6431 94.7022 38.2541 94.3495 46.66ZM80.888 43.049H88.5886C88.6474 39.4972 87.3542 38.1949 84.944 38.1949C82.1812 38.2541 80.888 39.9708 80.888 43.049Z" fill="#6A47DC"/>
<path d="M98.2891 26.5923H104.344V49.3238C104.344 51.0997 104.52 51.5141 106.519 51.5141H107.577L107.518 55.421C106.401 55.5394 105.284 55.717 103.638 55.717C99.3472 55.717 98.2891 54.2963 98.2891 50.9813V26.5923Z" fill="#6A47DC"/>
<path d="M110.93 29.0782C110.93 27.3023 112.164 26 114.398 26C116.514 26 117.749 27.3023 117.749 29.0782C117.749 30.9133 116.514 32.2156 114.398 32.2156C112.223 32.2748 110.93 30.9133 110.93 29.0782ZM111.341 35.2939H117.396V55.4207H111.341V35.2939Z" fill="#6A47DC"/>
<path d="M122.508 55.4205V35.2936H128.033V37.6023H128.092C129.444 35.5896 131.325 34.5833 134.323 34.5833C138.438 34.5833 141.142 36.2408 141.142 40.3845V55.3613H135.088V41.9828C135.088 39.7926 134.147 39.1414 132.501 39.1414C130.091 39.1414 128.621 40.9173 128.621 43.1076V55.4205H122.508Z" fill="#6A47DC"/>
<path d="M145.668 29.0782C145.668 27.3023 146.902 26 149.136 26C151.252 26 152.487 27.3023 152.487 29.0782C152.487 30.9133 151.252 32.2156 149.136 32.2156C146.902 32.2748 145.668 30.9133 145.668 29.0782ZM146.021 35.2939H152.075V55.4207H146.021V35.2939Z" fill="#6A47DC"/>
</svg>
