<svg width="145" height="147" fill="none" xmlns="http://www.w3.org/2000/svg"><path d="m133.207 78.863.234-3.026.768.045-.201 2.605c-.041.531 0 .99.124 1.375.123.386.328.686.613.901.29.22.656.348 1.099.382.452.035.834-.032 1.144-.2.315-.17.558-.44.731-.813.172-.373.281-.85.325-1.43l.175-2.258-9.962-.77.07-.908 10.744.831-.244 3.166a6.162 6.162 0 0 1-.276 1.456c-.142.424-.34.78-.595 1.067a2.213 2.213 0 0 1-.932.626c-.362.135-.786.184-1.273.147a2.467 2.467 0 0 1-1.18-.388 2.394 2.394 0 0 1-.806-.902c-.194-.371-.299-.807-.315-1.308l-.243-.598Zm-5.161-.466.251-3.247.739.525-.215 2.782c-.041.531.013.99.161 1.378.152.393.388.704.707.931.319.228.71.36 1.172.395.409.032.782-.029 1.12-.18a1.87 1.87 0 0 0 .831-.753c.22-.35.351-.804.395-1.365l.145-1.882.766.074-.205 2.664-.286.141a2.638 2.638 0 0 1-.548 1.228 2.618 2.618 0 0 1-2.272.975c-.65-.05-1.19-.238-1.62-.564a2.754 2.754 0 0 1-.933-1.282c-.191-.53-.261-1.136-.208-1.82Zm7.103 7.606-3.637 1.379 2.664 2.84-.236 1.024-3.212-3.528-4.617 1.837.233-1.01 3.81-1.469-2.784-2.981.233-1.01 3.346 3.673 4.433-1.765-.233 1.01Zm-5.596 5.717.228.086a4.983 4.983 0 0 1 1.42.808c.401.332.716.707.942 1.125.225.423.352.875.38 1.356a3.45 3.45 0 0 1-.236 1.478c-.193.507-.461.93-.806 1.269-.341.34-.735.594-1.184.762a3.75 3.75 0 0 1-1.455.224 4.983 4.983 0 0 1-1.597-.337l-.229-.087a4.99 4.99 0 0 1-1.419-.808 3.767 3.767 0 0 1-.933-1.13 3.299 3.299 0 0 1-.39-1.351c-.028-.48.053-.972.244-1.475a3.55 3.55 0 0 1 .799-1.272 3.355 3.355 0 0 1 1.191-.76 3.755 3.755 0 0 1 1.447-.226c.521.018 1.054.13 1.598.337Zm-.084.91-.228-.087a4.337 4.337 0 0 0-1.233-.278 3.383 3.383 0 0 0-1.159.114 2.442 2.442 0 0 0-.964.537 2.503 2.503 0 0 0-.655.994 2.445 2.445 0 0 0-.165 1.165c.043.375.165.722.365 1.04.206.322.471.604.795.849.327.25.696.454 1.106.61l.229.086c.406.154.812.245 1.218.273.405.032.792-.006 1.16-.114a2.49 2.49 0 0 0 .977-.532 2.42 2.42 0 0 0 .659-.985c.154-.406.208-.797.161-1.174a2.584 2.584 0 0 0-.379-1.046 3.368 3.368 0 0 0-.792-.855 4.397 4.397 0 0 0-1.095-.598Zm-.465 11.018-.437.764-2.441-1.547c-.651-.411-1.189-.818-1.613-1.219a6.833 6.833 0 0 1-1.007-1.147 4.711 4.711 0 0 1-.545-1.06 4.78 4.78 0 0 1-.233-.952l.239-.417.648.387-.103.196c.079.21.174.435.287.676.115.247.276.512.483.796.208.283.494.588.858.916.364.327.84.678 1.427 1.053l2.437 1.554Zm-.143.25-2.199 3.85-6.954-3.971.437-.765 6.234 3.56 1.762-3.085.72.411Zm-5.063-5.746-3.843 6.729-2.706-1.545.441-.771 2.044 1.167 2.983-5.225-2.043-1.168.418-.732 2.706 1.545Zm-5.194 9.792 2.443 7.482-.553.695-6.264-4.99.553-.695 5.141 4.095-2.443-7.481.544-.683 6.264 4.989-.544.683-5.141-4.095Zm-2.353 12.5-5.517-5.805.639-.607 5.517 5.805-.639.607Zm-2.114 2.009-.52-.547 4.791-4.554.52.548-4.791 4.553Zm-7.757 3.897-4.916-8.184.761-.458 5.71 9.505-.711.427-.844-1.29Zm-6.002.817-.08-.133a6.148 6.148 0 0 1-.668-1.515 4.074 4.074 0 0 1-.153-1.419 2.67 2.67 0 0 1 .387-1.209c.224-.365.544-.672.958-.921.41-.246.814-.403 1.212-.469a2.815 2.815 0 0 1 1.155.04c.371.1.72.264 1.048.493.326.236.629.526.91.869l1.056 1.758c.186.453.308.891.368 1.316.059.425.05.827-.026 1.207a2.71 2.71 0 0 1-.473 1.053 3.244 3.244 0 0 1-.954.841 2.856 2.856 0 0 1-1.266.423 2.592 2.592 0 0 1-1.254-.205 3.69 3.69 0 0 1-1.177-.795 6.289 6.289 0 0 1-1.043-1.334Zm.681-.59.08.133c.242.402.508.748.798 1.04.286.295.59.518.912.67.32.159.652.233.996.222.341-.009.686-.119 1.037-.33.364-.218.638-.466.822-.744.183-.271.299-.557.349-.857.052-.296.057-.59.015-.881a4.437 4.437 0 0 0-.196-.815l-1.216-2.024a3.438 3.438 0 0 0-.924-.662 2.328 2.328 0 0 0-1.103-.226c-.397.019-.811.159-1.243.418-.347.208-.604.461-.771.757a2.072 2.072 0 0 0-.266.98c-.015.359.041.735.167 1.126.121.393.302.791.543 1.193Zm-7.272-1.053c.483-.2.965-.295 1.444-.285.475.011.93.116 1.365.316.43.2.819.488 1.166.862.345.381.627.836.846 1.365l.121.294c.237.569.366 1.119.388 1.65a3.877 3.877 0 0 1-.208 1.472c-.16.451-.394.841-.7 1.171-.31.336-.674.592-1.094.765a3.192 3.192 0 0 1-1.356.266 2.67 2.67 0 0 1-1.208-.325 3.315 3.315 0 0 1-1.012-.839 4.93 4.93 0 0 1-.755-1.281l-.207-.499 5.6-2.32.29.697-4.787 1.983.04.096c.18.411.425.763.734 1.057.306.301.661.501 1.066.6.404.1.839.053 1.304-.139.346-.144.635-.349.867-.615a2.36 2.36 0 0 0 .484-.938c.094-.354.12-.742.08-1.163a4.689 4.689 0 0 0-.346-1.299l-.122-.294a3.921 3.921 0 0 0-.654-1.075c-.268-.3-.57-.538-.904-.715a2.66 2.66 0 0 0-1.068-.294 2.507 2.507 0 0 0-1.119.199 2.9 2.9 0 0 0-1.063.721c-.27.303-.466.687-.59 1.149l-.677-.184c.061-.303.171-.605.33-.906.154-.299.373-.576.656-.833a3.75 3.75 0 0 1 1.09-.659Zm-7.739 2.591a3.558 3.558 0 0 1 1.47-.071c.469.081.903.252 1.304.513a3.75 3.75 0 0 1 1.028 1.024c.285.427.497.918.636 1.473l.078.309c.15.598.197 1.161.14 1.689a3.879 3.879 0 0 1-.42 1.426 3.334 3.334 0 0 1-.865 1.056 3.074 3.074 0 0 1-1.193.597c-.493.123-.953.145-1.38.064a2.66 2.66 0 0 1-1.148-.499 3.322 3.322 0 0 1-.878-.977 4.954 4.954 0 0 1-.56-1.379l-.131-.524 5.88-1.474.183.732-5.025 1.26.025.101c.119.433.31.818.572 1.154.258.342.58.592.966.749.385.158.822.176 1.31.053a2.28 2.28 0 0 0 .948-.481c.263-.229.469-.515.617-.857a3.28 3.28 0 0 0 .249-1.138 4.681 4.681 0 0 0-.152-1.336l-.077-.309a3.915 3.915 0 0 0-.49-1.159 3.227 3.227 0 0 0-.79-.839 2.656 2.656 0 0 0-1.013-.449 2.506 2.506 0 0 0-1.136.034c-.46.115-.845.3-1.157.557-.311.261-.562.611-.752 1.05l-.643-.281c.105-.291.258-.573.46-.848.195-.273.453-.515.77-.727.319-.212.71-.376 1.174-.493Zm-7.831 2.173a2.655 2.655 0 0 0-1.025.311 2.015 2.015 0 0 0-.747.707 1.867 1.867 0 0 0-.265 1.061l-.84.085a2.496 2.496 0 0 1 .328-1.402c.24-.421.577-.767 1.011-1.039.43-.267.917-.427 1.462-.482.555-.056 1.056-.004 1.503.154.443.159.824.403 1.145.733.321.334.58.735.775 1.201.192.472.316.988.372 1.547l.031.31a5.506 5.506 0 0 1-.056 1.582 3.788 3.788 0 0 1-.521 1.332c-.248.392-.573.71-.975.954-.403.244-.88.393-1.436.449a3.343 3.343 0 0 1-1.566-.192 2.745 2.745 0 0 1-1.189-.87c-.317-.394-.517-.88-.6-1.457l.84-.084c.067.424.217.781.45 1.07.232.289.52.501.867.635.345.133.72.18 1.122.14.452-.046.828-.173 1.13-.382.302-.204.538-.468.708-.793a3.26 3.26 0 0 0 .331-1.074c.055-.393.061-.8.019-1.222l-.031-.31a5.512 5.512 0 0 0-.256-1.209 3.282 3.282 0 0 0-.538-.98 2.23 2.23 0 0 0-.852-.635c-.341-.14-.74-.186-1.197-.14Zm-8.712 7.65.31-8.002.88.034-.31 8.002-.88-.034Zm-2.913-.112.029-.755 6.604.255-.029.755-6.605-.255Zm-3.183-1.945 1.681-9.399.874.156-1.952 10.914-.816-.145.213-1.526Zm-5.058-3.334.027-.153c.105-.587.27-1.114.494-1.581.223-.466.496-.856.818-1.169a2.66 2.66 0 0 1 1.087-.655 2.763 2.763 0 0 1 1.327-.064c.471.085.878.233 1.221.444.344.212.625.475.844.79.214.319.369.673.465 1.061.09.392.128.81.114 1.253l-.361 2.019a5.478 5.478 0 0 1-.59 1.233 3.573 3.573 0 0 1-.813.892 2.716 2.716 0 0 1-1.049.481c-.386.087-.81.088-1.271.006a2.836 2.836 0 0 1-1.232-.514 2.578 2.578 0 0 1-.81-.979 3.7 3.7 0 0 1-.363-1.373 6.296 6.296 0 0 1 .092-1.691Zm.902.004-.028.153c-.082.461-.11.897-.083 1.308.021.41.104.778.246 1.104.136.33.338.605.605.823.261.217.594.362.997.434.418.075.787.068 1.109-.02a2.16 2.16 0 0 0 .826-.416 2.76 2.76 0 0 0 .59-.654c.16-.247.29-.494.39-.742l.415-2.325a3.45 3.45 0 0 0-.26-1.106 2.324 2.324 0 0 0-.682-.897c-.312-.246-.716-.413-1.211-.502-.399-.071-.758-.05-1.08.063-.32.113-.602.3-.844.563-.248.261-.453.58-.615.957a5.428 5.428 0 0 0-.375 1.257Zm-13.959-.419.294-.711 3.747 1.552 2.77-6.687.814.337-3.064 7.398-4.561-1.889Zm.369-4.33-.122.211a4.98 4.98 0 0 1-1.023 1.273 3.81 3.81 0 0 1-1.261.751 3.27 3.27 0 0 1-1.399.16 3.456 3.456 0 0 1-1.421-.469 3.475 3.475 0 0 1-1.125-.998 3.27 3.27 0 0 1-.564-1.29c-.094-.47-.09-.96.01-1.471.101-.512.297-1.02.588-1.524l.122-.212c.29-.504.631-.929 1.023-1.272.39-.34.81-.587 1.264-.742a3.277 3.277 0 0 1 1.396-.169c.479.048.951.206 1.417.475.47.27.847.601 1.13.991.279.395.465.827.56 1.297.093.469.09.958-.008 1.465a4.992 4.992 0 0 1-.587 1.524Zm-.885-.228.122-.212c.22-.381.376-.771.47-1.173.092-.397.116-.784.072-1.163a2.441 2.441 0 0 0-.376-1.036 2.496 2.496 0 0 0-.878-.805 2.435 2.435 0 0 0-1.123-.348 2.436 2.436 0 0 0-1.086.195 3.28 3.28 0 0 0-.964.649c-.3.283-.559.615-.778.995l-.122.212a4.23 4.23 0 0 0-.463 1.16c-.096.394-.12.782-.072 1.163.044.378.168.728.37 1.049.202.322.49.591.867.808.377.216.754.331 1.134.345.375.011.74-.058 1.093-.208.35-.151.673-.367.97-.645.293-.281.547-.61.764-.986Zm-7.348-8.922a2.678 2.678 0 0 0-.953-.489 2.006 2.006 0 0 0-1.03-.011c-.344.085-.653.278-.928.577l-.661-.523a2.493 2.493 0 0 1 1.21-.779 2.92 2.92 0 0 1 1.45-.043c.493.107.955.331 1.384.67.438.346.762.731.973 1.156.208.422.312.863.313 1.323a3.883 3.883 0 0 1-.279 1.403 5.57 5.57 0 0 1-.809 1.37l-.193.244c-.349.441-.73.807-1.141 1.097a3.79 3.79 0 0 1-1.3.595 2.95 2.95 0 0 1-1.365.007c-.458-.105-.906-.33-1.343-.676a3.331 3.331 0 0 1-.992-1.228 2.74 2.74 0 0 1-.249-1.451c.047-.504.24-.993.582-1.465l.662.524a2.227 2.227 0 0 0-.421 1.082 2.04 2.04 0 0 0 .181 1.059c.156.336.392.63.71.881.356.282.715.452 1.076.512a2.15 2.15 0 0 0 1.061-.077c.341-.113.67-.294.985-.542.313-.244.6-.532.863-.865l.193-.244c.266-.336.486-.685.658-1.046.165-.36.263-.719.295-1.078a2.24 2.24 0 0 0-.17-1.05c-.148-.337-.402-.648-.762-.933Zm-20.357-6.692 8.405-6.745.565.704-7.793 6.254 3.822 4.762 7.793-6.254.57.71-8.405 6.746-4.957-6.177Zm-1.806-11.884.996-.583c.651-.382 1.291-.642 1.919-.781a4.447 4.447 0 0 1 1.774-.061 3.685 3.685 0 0 1 1.528.631c.46.326.851.766 1.175 1.319.317.541.506 1.093.568 1.657.06.56-.005 1.11-.192 1.649a4.642 4.642 0 0 1-.914 1.53c-.426.484-.964.916-1.616 1.298l-.996.584c-.651.381-1.289.64-1.912.777a4.637 4.637 0 0 1-1.788.052 3.762 3.762 0 0 1-1.532-.638 4.109 4.109 0 0 1-1.164-1.3c-.324-.553-.516-1.11-.575-1.67-.06-.56.004-1.109.192-1.648a4.535 4.535 0 0 1 .924-1.528c.424-.477.961-.906 1.613-1.288Zm1.453.196-1.01.591a6.136 6.136 0 0 0-1.369 1.06c-.366.38-.632.785-.798 1.214a2.817 2.817 0 0 0-.192 1.313c.04.45.193.901.458 1.353.257.438.57.783.941 1.035a2.9 2.9 0 0 0 1.24.475c.452.061.937.029 1.452-.096a6.155 6.155 0 0 0 1.594-.676l1.01-.592a6.214 6.214 0 0 0 1.381-1.067c.362-.388.628-.799.798-1.23.166-.429.23-.867.191-1.313a3.2 3.2 0 0 0-.446-1.334c-.267-.456-.586-.809-.956-1.061a2.836 2.836 0 0 0-1.236-.469 3.817 3.817 0 0 0-1.452.113 6.245 6.245 0 0 0-1.607.684Z" fill="#6A47DC"/><circle cx="12.561" cy="87.296" r="1" transform="rotate(-21.145 12.561 87.296)" fill="#6A47DC"/><path d="m11.384 69.482-.134 3.031-.77-.019.115-2.61c.024-.532-.033-.99-.169-1.37-.136-.382-.35-.675-.643-.881-.296-.21-.667-.326-1.11-.345-.454-.02-.833.06-1.137.239-.31.178-.544.457-.704.835-.16.379-.252.858-.278 1.44l-.1 2.263 9.982.44-.04.91L5.63 72.94l.14-3.172a6.06 6.06 0 0 1 .228-1.465 3.03 3.03 0 0 1 .559-1.086c.245-.296.548-.515.91-.657.358-.147.78-.21 1.268-.188.444.02.841.136 1.192.349a2.4 2.4 0 0 1 .836.874c.206.364.325.797.358 1.297l.263.59Zm5.173.294-.144 3.254-.756-.5.123-2.788c.024-.532-.045-.99-.206-1.372a2.004 2.004 0 0 0-.738-.907c-.326-.217-.72-.335-1.184-.356-.41-.018-.78.055-1.114.218a1.867 1.867 0 0 0-.805.78c-.208.355-.325.815-.35 1.377l-.082 1.885-.769-.049.118-2.669.28-.15c.071-.481.24-.896.508-1.245.262-.354.587-.621.976-.802a2.62 2.62 0 0 1 1.263-.248c.65.03 1.196.199 1.637.51.436.305.76.722.974 1.25.21.523.299 1.127.269 1.812Zm-7.325-7.533 3.591-1.496-2.754-2.752.203-1.032 3.324 3.423 4.555-1.984-.2 1.017-3.76 1.59 2.877 2.89-.2 1.017-3.462-3.564-4.374 1.908.2-1.017Zm5.446-6.055-.23-.08a4.985 4.985 0 0 1-1.443-.765 3.816 3.816 0 0 1-.976-1.097 3.275 3.275 0 0 1-.42-1.344 3.46 3.46 0 0 1 .192-1.484c.177-.513.433-.944.768-1.293.33-.35.717-.616 1.16-.797.444-.18.926-.27 1.448-.267.52.003 1.056.1 1.607.29l.23.08c.55.19 1.032.445 1.443.764.407.319.73.686.966 1.102.24.411.383.858.43 1.339.043.48-.023.973-.199 1.482a3.553 3.553 0 0 1-.76 1.295 3.356 3.356 0 0 1-1.168.795 3.76 3.76 0 0 1-1.44.27 4.985 4.985 0 0 1-1.608-.29Zm.057-.913.231.08c.415.144.829.224 1.24.241.407.016.793-.034 1.156-.149.359-.116.674-.304.947-.565a2.5 2.5 0 0 0 .625-1.014c.142-.41.185-.8.13-1.168a2.444 2.444 0 0 0-.396-1.03 3.269 3.269 0 0 0-.82-.824 4.33 4.33 0 0 0-1.124-.576l-.23-.08a4.23 4.23 0 0 0-1.227-.236c-.405-.02-.79.03-1.155.149a2.486 2.486 0 0 0-.962.56c-.277.26-.487.594-.629 1.004a2.43 2.43 0 0 0-.125 1.178c.06.371.196.716.41 1.035.215.314.487.591.817.83a4.39 4.39 0 0 0 1.112.565Zm.105-10.987.413-.778 2.486 1.473c.663.392 1.213.782 1.65 1.17.434.382.78.754 1.041 1.115.256.36.448.708.577 1.044.126.33.213.645.261.944l-.226.425-.66-.368.098-.2a9.446 9.446 0 0 0-.308-.666 4.74 4.74 0 0 0-.507-.78 6.2 6.2 0 0 0-.885-.89c-.374-.316-.86-.653-1.458-1.01l-2.483-1.479Zm.135-.255 2.08-3.915 7.072 3.76-.413.777-6.34-3.37-1.667 3.137-.732-.389Zm5.234 5.59 3.638-6.842 2.751 1.463-.417.784-2.078-1.105-2.825 5.313 2.079 1.105-.396.745-2.752-1.462Zm4.759-9.77-2.674-7.402.532-.712 6.415 4.793-.531.712-5.265-3.934 2.674 7.402-.523.7-6.416-4.793.523-.7 5.265 3.934Zm2.014-12.649 5.685 5.64-.62.625-5.686-5.64.62-.625Zm2.053-2.07.536.531-4.654 4.693-.536-.532 4.654-4.692Zm7.592-4.128 5.162 8.032-.747.48-5.995-9.328.698-.448.882 1.264Zm5.975-.998.084.13c.322.503.56 1 .714 1.495.153.494.218.965.196 1.413a2.674 2.674 0 0 1-.351 1.22 2.768 2.768 0 0 1-.93.95 3.465 3.465 0 0 1-1.197.505 2.83 2.83 0 0 1-1.156-.005 3.323 3.323 0 0 1-1.062-.461 4.877 4.877 0 0 1-.936-.841l-1.109-1.725a5.476 5.476 0 0 1-.407-1.305 3.569 3.569 0 0 1-.01-1.207c.069-.385.216-.74.44-1.066.225-.326.534-.616.929-.87a2.844 2.844 0 0 1 1.252-.461c.425-.05.845.005 1.26.167.416.155.816.408 1.2.76a6.29 6.29 0 0 1 1.083 1.3Zm-.663.61-.084-.13a5.424 5.424 0 0 0-.83-1.016 3.167 3.167 0 0 0-.93-.642 2.06 2.06 0 0 0-1.004-.191c-.34.019-.682.139-1.026.36-.357.23-.623.486-.8.769a2.152 2.152 0 0 0-.322.867 2.75 2.75 0 0 0 .012.881c.051.29.125.56.22.809l1.277 1.986c.282.265.596.476.944.634a2.33 2.33 0 0 0 1.11.193c.396-.032.805-.184 1.229-.456.34-.218.59-.479.748-.78.158-.3.237-.63.236-.987a3.254 3.254 0 0 0-.2-1.12 5.428 5.428 0 0 0-.58-1.177Zm7.294.806a3.556 3.556 0 0 1-1.434.333 3.45 3.45 0 0 1-1.374-.271 3.752 3.752 0 0 1-1.194-.825 4.679 4.679 0 0 1-.89-1.336l-.131-.29a4.834 4.834 0 0 1-.44-1.636c-.04-.53.013-1.022.158-1.478.146-.456.367-.854.662-1.194a3.058 3.058 0 0 1 1.068-.8c.463-.21.912-.313 1.347-.31.433 0 .839.094 1.218.286.381.184.728.453 1.039.805.309.347.574.766.796 1.256l.223.492-5.522 2.501-.311-.688 4.72-2.137-.043-.095a3.248 3.248 0 0 0-.769-1.033 2.273 2.273 0 0 0-1.085-.565c-.407-.086-.84-.025-1.299.182-.341.155-.623.37-.846.644-.218.272-.369.59-.454.953a3.278 3.278 0 0 0-.041 1.164c.057.413.186.842.388 1.287l.131.29c.183.404.413.756.689 1.053.278.291.587.52.927.685.345.163.704.25 1.077.26.373.01.743-.069 1.112-.236a2.909 2.909 0 0 0 1.04-.755c.259-.312.442-.701.55-1.168l.683.162c-.05.305-.151.61-.3.916a2.946 2.946 0 0 1-.629.854c-.275.265-.63.497-1.066.694Zm7.752-2.886a3.558 3.558 0 0 1-1.467.118 3.452 3.452 0 0 1-1.32-.47 3.752 3.752 0 0 1-1.06-.992 4.68 4.68 0 0 1-.683-1.452l-.087-.306a4.834 4.834 0 0 1-.195-1.684 3.85 3.85 0 0 1 .374-1.438c.212-.43.488-.79.83-1.083.347-.3.738-.51 1.174-.635a3.19 3.19 0 0 1 1.378-.108c.428.063.816.216 1.163.461.35.239.653.555.91.95.254.388.455.842.602 1.359l.148.52-5.83 1.661-.206-.726 4.982-1.42-.028-.1a3.25 3.25 0 0 0-.608-1.135 2.28 2.28 0 0 0-.99-.718c-.39-.145-.828-.149-1.312-.011-.36.103-.67.273-.931.512a2.363 2.363 0 0 0-.59.876c-.133.34-.204.723-.211 1.146-.005.416.06.86.194 1.33l.087.306c.122.427.297.808.526 1.143.232.328.505.6.817.813.317.213.66.351 1.027.416a2.51 2.51 0 0 0 1.134-.07 2.91 2.91 0 0 0 1.14-.594c.302-.27.54-.629.717-1.074l.651.26c-.096.295-.24.582-.431.863-.188.279-.437.53-.748.752a3.747 3.747 0 0 1-1.157.53Zm7.617-2.412c.372-.049.71-.163 1.015-.343.309-.185.55-.429.725-.73.178-.308.255-.664.232-1.069l.836-.11c.042.507-.052.977-.284 1.41a2.932 2.932 0 0 1-.978 1.07c-.42.28-.903.456-1.446.528-.553.073-1.055.037-1.507-.107a2.978 2.978 0 0 1-1.167-.697 3.883 3.883 0 0 1-.813-1.176 5.583 5.583 0 0 1-.42-1.535l-.04-.308a5.511 5.511 0 0 1 .007-1.584 3.79 3.79 0 0 1 .479-1.347c.236-.4.55-.728.945-.984.394-.256.868-.42 1.42-.494a3.336 3.336 0 0 1 1.572.143c.486.17.89.447 1.215.833.33.384.545.863.646 1.437l-.837.11a2.228 2.228 0 0 0-.483-1.055 2.038 2.038 0 0 0-.886-.607 2.402 2.402 0 0 0-1.127-.105c-.45.06-.822.198-1.117.416a2.15 2.15 0 0 0-.683.815 3.267 3.267 0 0 0-.298 1.085c-.042.393-.035.8.02 1.221l.04.309c.057.425.155.825.294 1.2.143.37.333.69.568.963.24.272.53.475.872.609.345.128.745.162 1.2.102Zm7.986-7.939-.045 8.008-.88-.005.045-8.008.88.005Zm2.917.016-.005.755-6.61-.037.005-.755 6.61.037Zm3.409 1.807-1.373 9.45-.879-.128L78.256 8.36l.82.119-.162 1.532Zm5.164 3.167-.022.154a6.136 6.136 0 0 1-.442 1.596 4.07 4.07 0 0 1-.78 1.195c-.305.32-.66.55-1.064.69a2.774 2.774 0 0 1-1.325.108 3.466 3.466 0 0 1-1.235-.404c-.35-.2-.64-.455-.869-.762a3.324 3.324 0 0 1-.499-1.045 4.873 4.873 0 0 1-.155-1.25l.295-2.028a5.48 5.48 0 0 1 .548-1.252c.223-.366.484-.672.784-.918a2.709 2.709 0 0 1 1.032-.516 3.213 3.213 0 0 1 1.271-.047c.484.07.9.228 1.248.473.354.241.634.559.841.953a3.7 3.7 0 0 1 .409 1.36 6.29 6.29 0 0 1-.037 1.693Zm-.901.026.022-.154a5.4 5.4 0 0 0 .04-1.31 3.166 3.166 0 0 0-.281-1.096 2.058 2.058 0 0 0-.632-.802c-.268-.209-.606-.342-1.01-.401-.42-.061-.79-.043-1.108.056a2.15 2.15 0 0 0-.813.443 2.75 2.75 0 0 0-.569.672 4.385 4.385 0 0 0-.364.755l-.339 2.337c.039.384.138.75.297 1.097.16.343.396.634.71.874.32.236.73.39 1.227.463.4.058.76.025 1.076-.099a2.08 2.08 0 0 0 .827-.59c.238-.27.433-.595.583-.977.155-.382.266-.804.334-1.268Zm14.373.022-.27.72-3.797-1.427-2.548 6.776-.824-.31 2.818-7.497 4.621 1.738Zm-.438 4.228.115-.215c.273-.514.6-.95.98-1.307.379-.357.79-.621 1.234-.793.448-.17.912-.24 1.393-.207.482.027.961.167 1.436.42a3.46 3.46 0 0 1 1.158.959c.295.38.498.803.608 1.27.109.466.123.957.039 1.47a4.979 4.979 0 0 1-.535 1.544l-.115.215a4.97 4.97 0 0 1-.979 1.307c-.378.353-.79.614-1.238.784a3.284 3.284 0 0 1-1.39.217 3.536 3.536 0 0 1-1.433-.427 3.555 3.555 0 0 1-1.161-.953 3.354 3.354 0 0 1-.604-1.276 3.76 3.76 0 0 1-.043-1.465 4.985 4.985 0 0 1 .535-1.543Zm.892.198-.114.216c-.206.388-.35.784-.43 1.188-.079.4-.09.788-.033 1.164.06.373.197.714.412 1.024.215.31.516.568.904.774.384.204.762.307 1.135.31.377.005.737-.072 1.078-.232a3.25 3.25 0 0 0 .941-.681c.29-.293.538-.634.744-1.022l.115-.215a4.21 4.21 0 0 0 .423-1.175 3.16 3.16 0 0 0 .032-1.165 2.473 2.473 0 0 0-.404-1.036 2.428 2.428 0 0 0-.895-.777 2.43 2.43 0 0 0-1.144-.307 2.583 2.583 0 0 0-1.086.244c-.344.164-.66.39-.947.679a4.4 4.4 0 0 0-.73 1.011Zm7.852 8.789c.302.223.624.376.968.459a2.02 2.02 0 0 0 1.029-.021c.342-.097.645-.299.91-.606l.678.502a2.5 2.5 0 0 1-1.186.817c-.461.15-.944.179-1.447.088a3.375 3.375 0 0 1-1.406-.627c-.448-.332-.784-.708-1.008-1.126a2.966 2.966 0 0 1-.354-1.312 3.895 3.895 0 0 1 .235-1.41c.176-.479.431-.943.766-1.395l.186-.25c.335-.452.703-.83 1.106-1.133.41-.304.837-.515 1.282-.634.447-.123.902-.14 1.363-.05.461.09.916.302 1.364.634.46.34.803.74 1.029 1.196.231.46.329.94.294 1.443-.031.506-.209 1-.536 1.482l-.678-.502c.236-.36.365-.725.388-1.095a2.042 2.042 0 0 0-.215-1.053 2.406 2.406 0 0 0-.736-.859c-.365-.27-.729-.43-1.092-.478a2.15 2.15 0 0 0-1.058.11 3.256 3.256 0 0 0-.968.572c-.305.254-.583.55-.836.892l-.185.25c-.256.344-.464.7-.625 1.066a3.276 3.276 0 0 0-.262 1.086c-.016.363.051.71.203 1.044.159.333.423.636.791.91Zm20.567 6.082-8.203 6.989-.586-.688 7.606-6.48-3.96-4.648-7.606 6.48-.59-.693 8.203-6.989 5.136 6.029Zm2.136 11.838-.978.614c-.639.401-1.271.681-1.894.839a4.447 4.447 0 0 1-1.771.115 3.685 3.685 0 0 1-1.547-.585c-.469-.311-.874-.739-1.215-1.282a4.158 4.158 0 0 1-.618-1.64 3.759 3.759 0 0 1 .143-1.653c.171-.544.46-1.063.866-1.557.411-.497.936-.946 1.576-1.347l.978-.613c.639-.402 1.269-.68 1.888-.835a4.626 4.626 0 0 1 1.785-.107c.565.083 1.082.28 1.551.592.469.311.87.732 1.203 1.263.341.543.549 1.094.626 1.652a3.759 3.759 0 0 1-.143 1.653 4.52 4.52 0 0 1-.877 1.555c-.409.49-.933.935-1.573 1.337Zm-1.458-.15.991-.622a6.152 6.152 0 0 0 1.337-1.1c.354-.392.608-.805.761-1.239a2.81 2.81 0 0 0 .151-1.318 3.24 3.24 0 0 0-.498-1.338 3.162 3.162 0 0 0-.973-1.007 2.898 2.898 0 0 0-1.253-.437 3.94 3.94 0 0 0-1.449.14 6.14 6.14 0 0 0-1.573.725l-.99.621a6.24 6.24 0 0 0-1.35 1.109c-.349.4-.602.818-.759 1.254a2.903 2.903 0 0 0-.152 1.318c.055.45.217.89.487 1.32.281.447.61.791.988 1.032.378.24.795.384 1.249.43.459.045.942-.008 1.448-.156a6.236 6.236 0 0 0 1.585-.733Z" fill="#6A47DC"/></svg>