<svg width="35" height="34" fill="none" xmlns="http://www.w3.org/2000/svg"><g clip-path="url(#a)" fill-rule="evenodd" clip-rule="evenodd"><path d="M10.059.043C3.092.043.543 2.591.543 9.557v14.886c0 6.966 2.549 9.513 9.516 9.513h14.877c6.968 0 9.52-2.547 9.52-9.513V9.557c0-6.966-2.548-9.514-9.515-9.514H10.06Z" fill="url(#b)"/><path d="M15.337 19.715h1.361l-.683-1.589-.678 1.588Zm-.335.8-.404.924h-.92l1.956-4.436h.794l1.948 4.436h-.944l-.399-.924h-2.031Zm14.798.921h.89v-4.434h-.89v4.434Zm-3.538-1.905h1.639v-.808h-1.639v-.909h2.379v-.808h-3.267v4.433h3.353v-.809h-2.465v-1.099Zm-3.531.524-1.008-3.053h-.735l-1.008 3.053-.98-3.05h-.96l1.548 4.437h.746l1.009-2.915 1.01 2.915h.751l1.544-4.437h-.934l-.983 3.05Zm-10.41-.511c0 .721-.358 1.107-1.01 1.107-.654 0-1.014-.397-1.014-1.138v-2.508h-.9v2.539c0 1.248.693 1.964 1.903 1.964 1.221 0 1.921-.73 1.921-2.001v-2.505h-.9v2.542Zm-5.074-2.541h.9v4.44h-.9v-1.804H5.213v1.803h-.9v-4.44h.9v1.791h2.034v-1.79Zm10.255-5.654a5.658 5.658 0 0 1-5.652-5.652h.798a4.86 4.86 0 0 0 4.854 4.853 4.86 4.86 0 0 0 4.854-4.853h.798a5.659 5.659 0 0 1-5.652 5.652Z" fill="#fff"/></g><defs><linearGradient id="b" x1="17.5" y1=".043" x2="17.5" y2="33.956" gradientUnits="userSpaceOnUse"><stop stop-color="#FB6361"/><stop offset="1" stop-color="#ED3E45"/></linearGradient><clipPath id="a"><rect x=".543" y=".043" width="33.913" height="33.913" rx="16.956" fill="#fff"/></clipPath></defs></svg>