<svg width="186" height="42" fill="none" xmlns="http://www.w3.org/2000/svg"><mask id="c" style="mask-type:alpha" maskUnits="userSpaceOnUse" x="0" y="0" width="186" height="42"><g clip-path="url(#a)"><mask id="b" style="mask-type:luminance" maskUnits="userSpaceOnUse" x="0" y="0" width="186" height="42"><path d="M185.834 0H0v41.943h185.834V0Z" fill="#fff"/></mask><g mask="url(#b)"><path d="M8.57 19.462c.34-.273.512-.674.512-1.203 0-.53-.174-.916-.52-1.195-.35-.278-.852-.417-1.506-.417H4.623v3.224h2.433c.668 0 1.175-.136 1.516-.406l-.003-.003Zm-1.003 2.547H4.62v3.355h2.946c1.44 0 2.16-.568 2.16-1.705s-.72-1.65-2.16-1.65Z" fill="#CE0E2D"/><path fill-rule="evenodd" clip-rule="evenodd" d="M20.97 0C9.39 0 0 9.39 0 20.97c0 11.58 9.39 20.97 20.97 20.97 11.58 0 20.97-9.39 20.97-20.97C41.94 9.39 32.553 0 20.97 0ZM7.68 27.638c1.653 0 2.926-.327 3.818-.984v-.006c.892-.657 1.337-1.573 1.337-2.749 0-.794-.216-1.465-.647-2.007-.43-.546-1.05-.936-1.857-1.176.595-.289 1.055-.684 1.385-1.183.328-.5.491-1.078.491-1.735 0-1.099-.43-1.944-1.29-2.539-.859-.592-2.059-.889-3.6-.889H1.568v13.268H7.68Zm6.123-6.728a7.7 7.7 0 0 0 7.699 7.7l.005.002a7.663 7.663 0 0 0 5.291-2.116l-2.056-2.068a4.725 4.725 0 0 1-3.238 1.29c-2.19 0-4.02-1.475-4.598-3.48l12.172.022c.076-.44.126-.89.126-1.35 0-4.252-3.45-7.7-7.702-7.7a7.7 7.7 0 0 0-7.7 7.7Zm23.664-4.036V27.64H40.5V14.373h-9.554l-.188 5.38c-.076 1.847-.262 3.203-.55 4.067-.29.864-.802 1.298-1.536 1.298a1.92 1.92 0 0 1-.551-.076l-.188 2.596c.594.14 1.099.21 1.516.21 1.012 0 1.8-.313 2.362-.938.562-.627.963-1.524 1.203-2.692.24-1.17.392-2.694.455-4.579l.093-2.765h3.905Z" fill="#CE0E2D"/><path d="M21.502 16.102c-2.222 0-4.074 1.516-4.625 3.564h9.248c-.55-2.048-2.403-3.564-4.625-3.564h.002Z" fill="#CE0E2D"/><path d="M54.702 28.462H51.71v-1.563h-.076c-1.876 0-3.45-.499-4.715-1.495-1.266-.995-1.901-2.389-1.901-4.178 0-1.928.627-3.357 1.881-4.281 1.255-.928 2.859-1.389 4.814-1.389v-1.178h2.992v1.178c1.98 0 3.592.48 4.833 1.438 1.24.957 1.86 2.37 1.86 4.235 0 1.866-.633 3.23-1.901 4.206-1.266.976-2.826 1.467-4.68 1.467h-.115v1.563-.003Zm-6.6-7.233c0 .952.347 1.67 1.042 2.152.695.483 1.53.725 2.509.725h.057v-5.749c-1.156 0-2.048.21-2.672.628-.622.417-.936 1.167-.936 2.247v-.003Zm6.638-2.874h-.038v5.749h.115c2.329 0 3.493-.958 3.493-2.875 0-1.066-.313-1.814-.935-2.239-.625-.425-1.503-.635-2.635-.635Zm9.863 9.817h-3.087l5.923-13.505h2.218l5.923 13.505h-3.125l-1.102-2.509h-5.654l-1.099 2.51h.003Zm5.654-5.034-1.738-4.031-1.775 4.03h3.512Zm9.968.791v4.243h-2.989V14.667h5.594c1.094 0 2.05.142 2.874.425a4.28 4.28 0 0 1 2.046 1.495c.543.712.81 1.623.81 2.73s-.284 1.958-.848 2.673a4.563 4.563 0 0 1-2.095 1.505c-.832.29-1.759.434-2.787.434h-2.605Zm2.684-6.464h-2.68v3.666h2.566c1.775 0 2.661-.611 2.661-1.833s-.848-1.833-2.547-1.833Zm10.574 10.707h-2.989V14.667h2.78l4.322 6.464 4.11-6.464h2.703v13.505h-2.992V20.07l-3.51 5.383h-.791l-3.627-5.44v8.16h-.006Zm30.635 0h-2.989V14.667h10.129v2.798h-7.14v10.707Zm11.277-4.243v4.243h-2.989V14.667H138c1.094 0 2.051.142 2.874.425a4.28 4.28 0 0 1 2.046 1.495c.543.712.81 1.623.81 2.73s-.284 1.958-.848 2.673a4.568 4.568 0 0 1-2.095 1.505c-.832.29-1.759.434-2.787.434h-2.605Zm2.681-6.464h-2.681v3.666h2.567c1.775 0 2.662-.611 2.662-1.833s-.849-1.833-2.548-1.833Zm13.333 3.917 3.106-6.715h3.125l-4.901 10.34c-.501 1.03-1.03 1.813-1.592 2.353-.559.54-1.315.81-2.267.81-1.104 0-2.012-.516-2.719-1.544l1.931-1.756c.218.335.494.502.829.502.385 0 .709-.27.966-.81l-6.289-9.898h3.703l4.11 6.715-.002.003Zm19.337 6.79h-2.989V17.465h-5.981v10.707h-2.989V14.667h11.962v13.505h-.003Zm15.088 0h-2.989V17.465h-5.981v10.707h-2.989V14.667h11.962v13.505h-.003Z" fill="#000"/><path d="M112.784 24.872a3.23 3.23 0 1 0 0-6.458 3.23 3.23 0 0 0 0 6.458Z" fill="#00953B"/></g></g></mask><g mask="url(#c)"><path fill="#6A47DC" d="M-2.445 0h194.053v43.782H-2.445z"/></g><defs><clipPath id="a"><path fill="#fff" d="M0 0h186v42H0z"/></clipPath></defs></svg>