<svg width="174" height="56" fill="none" xmlns="http://www.w3.org/2000/svg"><g clip-path="url(#a)" fill="#6A47DC"><path d="M20.595 36.639V17.49H3.93v19.148h4.617V21.283h7.442V36.64h4.606Zm10.159-9.172c-.602 0-1.018-.023-1.354-.081l-.266-.047v-6.278l.254-.035c.301-.07.868-.14 1.725-.14 2.314 0 3.703 1.167 3.703 3.116-.011 2.147-1.562 3.465-4.062 3.465Zm6.435-8.377c-1.4-1.12-3.45-1.67-6.32-1.67-2.522 0-4.64.153-6.306.433v18.88h4.57V30.92l.348.035c.347.024.775.047 1.296.047 2.928 0 5.185-.724 6.712-2.194 1.216-1.167 1.899-2.917 1.899-4.924-.012-1.937-.81-3.687-2.2-4.796Zm129.733 12.776c-1.192 1.156-2.893 1.75-5.069 1.75-.555 0-1.099 0-1.481-.058l-.266-.046V20.863l.254-.047c.544-.093 1.181-.14 1.91-.14 2.048 0 3.726.572 4.861 1.68 1.157 1.12 1.724 2.731 1.712 4.761-.011 2.439-.74 3.618-1.921 4.75Zm6.817-4.912c0-3.279-1.215-5.87-3.484-7.514-2.013-1.47-4.641-2.124-8.483-2.124-2.326 0-4.559.14-6.295.397v19.03c1.573.2 3.344.292 5.277.292 4.212 0 7.43-.863 9.559-2.59 1.771-1.447 3.426-3.36 3.426-7.491Zm-22.279-5.706v-3.78h-12.823v19.136h12.823V32.81h-8.206v-3.909h8.206v-3.757h-8.206v-3.897h8.206ZM86.757 36.604V17.468h-5.601c-.29.455-1.366 2.146-5.092 7.852l-.255.397-.243-.397c-3.761-5.706-4.826-7.397-5.115-7.852H64.85v19.147h4.629v-13.92l.544.793c3.76 5.403 4.803 6.955 5.08 7.398h1.435c.278-.443 1.308-1.995 5.07-7.398l.566-.793v13.92h4.583v-.011Zm-34.893-3.489c-3.368 0-6.11-2.766-6.11-6.161 0-3.396 2.742-6.16 6.11-6.16 3.39 0 6.133 2.764 6.133 6.16-.011 3.395-2.754 6.16-6.133 6.16Zm0-16.93c-5.868 0-10.67 4.818-10.67 10.757 0 5.94 4.802 10.77 10.67 10.77 5.89 0 10.681-4.83 10.681-10.77-.011-5.927-4.79-10.758-10.681-10.758Zm82.747 20.419V17.468h-5.59c-.289.455-1.366 2.146-5.104 7.852l-.254.397-.255-.397c-3.75-5.706-4.814-7.397-5.104-7.852h-5.613v19.147h4.63v-13.92l.544.793c3.772 5.403 4.802 6.955 5.08 7.398h1.424c.277-.443 1.307-1.995 5.068-7.398l.556-.793v13.92h4.618v-.011Zm-34.894-3.489c-3.356 0-6.099-2.766-6.099-6.161 0-3.396 2.755-6.16 6.1-6.16 3.367 0 6.133 2.764 6.133 6.16 0 3.395-2.766 6.16-6.134 6.16Zm0-16.93c-5.879 0-10.658 4.818-10.658 10.757 0 5.94 4.79 10.77 10.658 10.77 5.891 0 10.682-4.83 10.682-10.77 0-5.927-4.791-10.758-10.682-10.758Z"/><path d="M20.595 36.639V17.49H3.93v19.148h4.617V21.283h7.442V36.64h4.606Zm10.159-9.172c-.602 0-1.018-.023-1.354-.081l-.266-.047v-6.278l.254-.035c.301-.07.868-.14 1.725-.14 2.314 0 3.703 1.167 3.703 3.116-.011 2.147-1.562 3.465-4.062 3.465Zm6.435-8.377c-1.4-1.12-3.45-1.67-6.32-1.67-2.522 0-4.64.153-6.306.433v18.88h4.57V30.92l.348.035c.347.024.775.047 1.296.047 2.928 0 5.185-.724 6.712-2.194 1.216-1.167 1.899-2.917 1.899-4.924-.012-1.937-.81-3.687-2.2-4.796Zm129.733 12.776c-1.192 1.156-2.893 1.75-5.069 1.75-.555 0-1.099 0-1.481-.058l-.266-.046V20.863l.254-.047c.544-.093 1.181-.14 1.91-.14 2.048 0 3.726.572 4.861 1.68 1.157 1.12 1.724 2.731 1.712 4.761-.011 2.439-.74 3.618-1.921 4.75Zm6.817-4.912c0-3.279-1.215-5.87-3.484-7.514-2.013-1.47-4.641-2.124-8.483-2.124-2.326 0-4.559.14-6.295.397v19.03c1.573.2 3.344.292 5.277.292 4.212 0 7.43-.863 9.559-2.59 1.771-1.447 3.426-3.36 3.426-7.491Zm-22.279-5.706v-3.78h-12.823v19.136h12.823V32.81h-8.206v-3.909h8.206v-3.757h-8.206v-3.897h8.206ZM86.757 36.604V17.468h-5.601c-.29.455-1.366 2.146-5.092 7.852l-.255.397-.243-.397c-3.761-5.706-4.826-7.397-5.115-7.852H64.85v19.147h4.629v-13.92l.544.793c3.76 5.403 4.803 6.955 5.08 7.398h1.435c.278-.443 1.308-1.995 5.07-7.398l.566-.793v13.92h4.583v-.011Zm-34.893-3.489c-3.368 0-6.11-2.766-6.11-6.161 0-3.396 2.742-6.16 6.11-6.16 3.39 0 6.133 2.764 6.133 6.16-.011 3.395-2.754 6.16-6.133 6.16Zm0-16.93c-5.868 0-10.67 4.818-10.67 10.757 0 5.94 4.802 10.77 10.67 10.77 5.89 0 10.681-4.83 10.681-10.77-.011-5.927-4.79-10.758-10.681-10.758Zm82.747 20.419V17.468h-5.59c-.289.455-1.366 2.146-5.104 7.852l-.254.397-.255-.397c-3.75-5.706-4.814-7.397-5.104-7.852h-5.613v19.147h4.63v-13.92l.544.793c3.772 5.403 4.802 6.955 5.08 7.398h1.424c.277-.443 1.307-1.995 5.068-7.398l.556-.793v13.92h4.618v-.011Zm-34.894-3.489c-3.356 0-6.099-2.766-6.099-6.161 0-3.396 2.755-6.16 6.1-6.16 3.367 0 6.133 2.764 6.133 6.16 0 3.395-2.766 6.16-6.134 6.16Zm0-16.93c-5.879 0-10.658 4.818-10.658 10.757 0 5.94 4.79 10.77 10.658 10.77 5.891 0 10.682-4.83 10.682-10.77 0-5.927-4.791-10.758-10.682-10.758Z"/></g><defs><clipPath id="a"><path fill="#fff" transform="translate(.5)" d="M0 0h173v56H0z"/></clipPath></defs></svg>