<svg width="174" height="32" fill="none" xmlns="http://www.w3.org/2000/svg"><path d="M.477 30.1 14.53 6.524l-11.85.084-1.4-4.712h22.28L9.84 25.434l13.635-.131v4.796h-23Zm79.098 0L67.43 14.44c-1.06-1.369-1.822-2.492-2.669-3.729h-.086c.086.938.086 2.66.086 3.94V30.1h-5.769V1.896h5.85l11.722 15.065a52.571 52.571 0 0 1 2.632 3.688h.082c-.082-1.34-.082-3.176-.082-4.374V1.896h5.787V30.1h-5.408Zm30.566-23.406h-7.502V30.1h-5.875V6.694H88.58V1.896h22.873l-1.312 4.798Zm4.134 23.406h5.812V1.895h-5.812V30.1Zm24.574.213h-4.325L123.061 1.938h6.382l5.674 14.975a150.07 150.07 0 0 1 1.912 5.23h.083c.467-1.54 1.1-3.177 1.856-5.055l6.348-15.15h5.934l-12.401 28.375Zm28.417.001-2.717-6.887h-9.52l-2.58 6.887h-5.724l10.959-28.335h4.407l11.432 28.335h-6.257Zm-6.405-17.066c-.459-1.428-.841-2.582-1.018-3.479h-.038c-.168.94-.553 2.096-1.018 3.392l-2.1 5.552h6.085l-1.911-5.465ZM48.822 16.88l-.026.227c-.352 3.021-2.034 5.617-4.615 7.126a9.28 9.28 0 0 1-11.139-1.327l20.599-12.078-.075-.21a16.167 16.167 0 0 0-1.055-2.255 15.917 15.917 0 0 0-1.533-2.22A14.952 14.952 0 0 0 42.16.967 14.89 14.89 0 0 0 31.965 2.77a15.199 15.199 0 0 0-7.023 9.27c-1.04 3.945-.506 8.065 1.52 11.593 2.01 3.54 5.25 6.061 9.125 7.115a14.785 14.785 0 0 0 11.423-1.523c4.295-2.527 7.09-7.03 7.468-12.066l.024-.28h-5.68Zm-18.704-.863c0-3.335 1.74-6.539 4.68-8.26 3.516-2.058 7.996-1.56 10.985 1.187-.557.33-14.893 8.723-15.453 9.056a9.425 9.425 0 0 1-.212-1.983Z" fill="#6A47DC"/></svg>