<svg width="154" height="25" fill="none" xmlns="http://www.w3.org/2000/svg"><g clip-path="url(#a)" fill-rule="evenodd" clip-rule="evenodd" fill="#6A47DC"><path d="M27.631.095c-1.97 0-4.106 6.431-7.14 13.254-2.024 4.478-3.659 8.773-4.298 10.074-.761-.073-1.523-.153-2.327-.153-.912 0-1.858.083-2.814.153-.57-1.606-2.277-6.402-4.218-11.228C4.508 6.457 2.454.168.557.098V-.25c1.94.083 3.839.153 5.74.153 1.371 0 2.742-.073 4.073-.153v.348c-.497.153-1.025.186-1.025 1.38 0 3.028 5.823 16.352 6.423 18.153.843-2.106 5.668-13.101 5.668-17.775 0-1.3-.527-1.605-1.331-1.758V-.25c1.291.083 2.633.153 3.95.153 1.18 0 2.4-.073 3.576-.153v.348-.003Zm21.571 17.506c-.916 2.107-1.595 3.712-1.97 6.166-.346-.265-1.523-.378-2.897-.417-1.37-.083-2.926-.083-4.185-.083h-4.482c-3.048 0-5.486.122-5.862.152v-.338c1.859 0 1.859-3.264 1.859-11.493 0-8.846-.03-11.3-1.859-11.493v-.348c.804 0 1.746.04 2.897.083 1.18.04 2.54.073 4.175.073h3.272c3.575 0 6.238-.113 7.833-.491-.264 1.064-.64 2.637-.64 5.164v.766h-.803c0-3.519-2.887-4.06-6.809-4.06-.803 0-1.522.083-2.132.236-.293 2.445-.293 7.546-.293 8.498.488.04 1.058.113 2.165.113 4.146 0 4.643-.91 4.795-2.793h.79c-.15 1.453-.263 2.915-.263 4.408 0 2.527 0 .952.04 2.945h-.844c0-2.023-.79-3.14-4.521-3.14-.913 0-1.677 0-2.165.039 0 1.227 0 7.27.112 9.808.834.04 1.667.152 2.54.152 6.057 0 7.306-1.923 8.565-4.295l.682.349Zm3.253 5.483c1.858-.04 1.858-3.373 1.858-11.493 0-8.12 0-11.413-1.858-11.493V-.24c.721.03 1.555.073 2.356.113.804 0 1.595.04 2.205.04 1.136 0 2.468-.123 3.994-.276 1.482-.112 3.16-.225 4.867-.225 1.067 0 7.263 0 7.263 5.665 0 4.52-4.522 6.053-6.654 6.431.804.923 3.048 4.369 5.517 7.516 2.165 2.75 3.16 3.977 4.228 4.06v.339c-.386-.03-.883-.073-1.332-.113-.497-.04-.995-.04-1.483-.04-1.565 0-3.2.083-4.755.308-.458-.726-1.901-3.17-3.658-5.817-1.634-2.455-2.926-4.9-4.409-4.9-.527 0-.224 0-.649.074 0 6.361 0 10.156 1.941 10.156v.338a66.335 66.335 0 0 0-4.716-.152c-1.595 0-3.229.04-4.715.152v-.345Zm8.594-11.566c3.384 0 6.004-.796 6.004-4.982 0-3.486-2.053-5.4-4.481-5.4-.844 0-1.678.153-2.479.309-.151 2.76-.151 8.846-.151 10.043.303 0 .497.03 1.107.03Zm35.978-6.431v1.031h1.025v-.726c0-3.264.386-4.87.61-5.984-1.595.309-4.755.349-9.316.349h-4.145c-1.678 0-3.688 0-5.326-.073-1.634-.04-2.896-.113-3.12-.276 0 2.495-.459 4.91-.956 6.598l.956.225c.57-2.527 2.053-4.55 6.501-4.55.376 0 .722.03 1.098.072.194.962.194 4.827.194 9.848 0 8.12 0 11.453-1.94 11.483v.349c1.482-.113 3.12-.153 4.715-.153 1.595 0 3.242.04 4.725.152v-.348c-1.94-.03-1.94-3.363-1.94-11.483 0-5.021 0-8.886.194-9.848.375-.04.721-.072 1.097-.072 4.106 0 5.628.726 5.628 3.406Zm23.733 12.528c-.912 2.106-1.595 3.711-1.98 6.166-.336-.265-1.513-.378-2.887-.418-1.371-.083-2.926-.083-4.185-.083h-4.491c-3.039 0-5.477.123-5.853.152v-.338c1.859 0 1.859-3.264 1.859-11.496 0-8.846-.03-11.3-1.859-11.493v-.348c.791 0 1.747.04 2.887.083 1.18.04 2.55.073 4.185.073h3.272c3.576 0 6.238-.113 7.833-.491-.263 1.064-.639 2.637-.639 5.164v.766h-.804c0-3.519-2.887-4.06-6.808-4.06-.804 0-1.523.083-2.132.236-.304 2.444-.304 7.546-.304 8.498.498.04 1.068.113 2.175.113 4.146 0 4.634-.91 4.795-2.793h.791c-.152 1.453-.264 2.915-.264 4.408 0 2.527 0 .952.04 2.945h-.844c0-2.023-.794-3.14-4.521-3.14-.916 0-1.677 0-2.175.039 0 1.227 0 7.27.122 9.808.834.03 1.667.152 2.541.152 6.057 0 7.305-1.923 8.564-4.295l.682.348v.004Zm1.332 5.483c.761 0 1.025-.306 1.634-.85 1.219-1.104 9.165-9.655 9.316-9.808-.722-.878-3.687-4.786-7.306-9.46C123.644.3 123.492.375 122.464.109V-.23c1.941.073 3.882.143 5.823.143 1.634 0 3.384-.073 4.989-.143v.338c-.468.083-.995.196-.995.767 0 1.605 4.145 6.71 4.949 7.814 1.098-1.3 4.673-6.279 4.673-7.466 0-1.032-.682-1.032-1.249-1.115V-.23c1.361.03 2.732.143 4.146.143 1.249 0 2.58-.073 3.799-.143v.338c-.375.04-.833.196-1.37.418-.913.388-5.893 6.402-9.013 9.347.761.919 4.603 5.788 8.525 10.501 2.053 2.485 2.277 2.607 3.229 2.72v.348c-2.053-.162-4.145-.162-6.198-.162-1.566 0-3.161.083-4.726.162v-.348c.537 0 .995-.083.995-.726 0-1.227-5.17-7.28-6.086-8.743-.985 1.227-5.101 6.514-5.101 8.59 0 .88.761.88 1.259.88v.348c-1.302-.083-2.551-.163-3.84-.163-1.413 0-2.814.083-4.185.162v-.348l.004.003Zm29.757-20.754c-.833 0-1.433-.624-1.433-1.463a1.44 1.44 0 0 1 1.433-1.463c.775 0 1.424.584 1.424 1.463 0 .88-.659 1.463-1.424 1.463Zm0-2.67c-.629 0-1.117.5-1.117 1.207 0 .664.425 1.208 1.117 1.208.62 0 1.108-.491 1.108-1.208 0-.716-.488-1.207-1.108-1.207Zm-.283 2.046v-.686h.244l.415.686h.293l-.448-.706c.244-.03.415-.153.415-.451 0-.329-.194-.461-.589-.461h-.61v1.615h.273l.007.003Zm.293-.918c.195 0 .366-.02.366-.256 0-.196-.181-.225-.346-.225h-.316V.8h.296Z"/></g><defs><clipPath id="a"><path fill="#fff" transform="translate(.5 .113)" d="M0 0h153v24H0z"/></clipPath></defs></svg>