<svg width="178" height="32" fill="none" xmlns="http://www.w3.org/2000/svg"><g clip-path="url(#a)" fill-rule="evenodd" clip-rule="evenodd" fill="#6A47DC"><path d="M26.828 25.254h3.687V7.104h-3.687v18.15Zm127.632-1.94v1.94h-16.548V7.079h15.345v1.956h-11.7v5.764h10.033v1.947h-10.033v6.569h12.903Zm14.188-7.917-.104-.112 7.698-8.18h-3.501l-5.942 6.273-5.783-6.273h-4.286l8.043 8.73-.07.076-8.555 9.343h3.414l6.899-7.477 6.653 7.477h4.386l-8.852-9.857ZM46.983 8.55c-4.872 0-7.961 3.054-7.961 7.602 0 5.193 3.65 7.65 7.988 7.65 5 0 7.865-3.1 7.865-7.729 0-4.075-2.443-7.524-7.892-7.524Zm.032 17.242c-6.996.085-11.892-3.665-11.892-9.42 0-5.139 3.998-9.714 11.86-9.808 8.032-.097 11.79 4.667 11.79 9.394 0 5.554-4.414 9.747-11.759 9.834ZM96.853 8.55c-4.871 0-7.962 3.054-7.962 7.602 0 5.193 3.652 7.65 7.99 7.65 5.001 0 7.865-3.1 7.865-7.729 0-4.075-2.443-7.524-7.893-7.524Zm.032 17.242c-6.996.085-11.893-3.665-11.893-9.42 0-5.139 4-9.714 11.86-9.808 8.034-.097 11.79 4.667 11.79 9.394 0 5.554-4.412 9.747-11.757 9.834ZM83.196 9.234c-2.034-1.61-4.924-2.67-8.875-2.67-8.24 0-12.432 4.524-12.432 9.666 0 5.758 5.134 9.563 12.467 9.563 3.74 0 6.753-.977 9.211-2.62l-1.739-1.59c-1.912 1.21-3.943 2.15-6.716 2.15-5.101 0-9.326-2.456-9.326-7.651 0-4.546 3.343-7.602 8.672-7.602 2.94 0 4.971.66 6.522 2.044l2.216-1.29Zm39.31 13.888c-1.293.216-3.177.259-4.011.259h-2.559V12.727c0-.864.256-1.893 1.133-2.673 1.198-1.07 3.226-1.544 5.511-1.544 3.798 0 7.459 2.239 7.459 6.906 0 5.348-4.116 7.129-7.533 7.706Zm-.26-16.493c-3.956 0-7.816 1.634-9.114 3.529-.759 1.107-.882 2.346-.882 3.16l-.001 11.94h7.386c1.066 0 2.795-.067 3.787-.202 6.096-.825 10.546-4.154 10.546-9.64 0-6.758-6.097-8.787-11.722-8.787ZM13.987 23.21c-.62.098-1.63.153-2.405.153H4.188V13.245c0-1.303.1-2.602 1.447-3.613 1.18-.888 3.008-1.287 5.196-1.287 3.018 0 5.68 1.387 5.68 3.386 0 1.303-1.145 2.55-3.96 2.891-.483.058-1.583.124-2.15.124H5.87v1.885h5.52c.507 0 1.515.024 1.976.066 2.934.285 4.488 1.443 4.488 3.186 0 1.573-1.124 2.893-3.868 3.326Zm3.101-7.886c2.017-.793 2.938-2.075 2.938-3.697 0-3.22-3.901-5.165-9.528-5.165-3.478 0-6.612.944-8.41 2.524C.941 9.993.5 11.07.5 13.316v11.943h11.532c1.139 0 2.732-.102 3.708-.298 3.381-.675 5.63-2.462 5.63-4.948 0-2.132-1.283-3.62-4.282-4.69Z"/></g><defs><clipPath id="a"><path fill="#fff" transform="translate(.5)" d="M0 0h177v32H0z"/></clipPath></defs></svg>