<svg width="136" height="40" fill="none" xmlns="http://www.w3.org/2000/svg"><path fill-rule="evenodd" clip-rule="evenodd" d="M123.5 35h-5.66l-6.139-8.394h-11.087V35h-4.719V4h5.662L123.5 35Zm-22.886-12.87V10.604l7.902 11.526h-7.902Zm-20.175-2.685L94.831 35h-6.487L74.42 19.445 88.344 4h6.487L80.439 19.445Zm-51.202 0L43.747 35H37.14L23.22 19.445 37.141 4h6.606l-14.51 15.445Zm29.787 3.522c-.349.122-.926.354-1.211.354L67.934 35h-6.018L48.821 19.445h6.016c3.067 0 5.664-2.462 5.664-5.484s-2.597-5.484-5.664-5.484H48.82V35h-4.6V4h10.618c2.714 0 5.488 1.105 7.374 2.895 1.89 1.792 3.07 4.364 3.07 7.054 0 2.685-1.18 5.147-3.07 6.939-.943 1.005-1.891 1.52-3.188 2.079ZM69.82 4h4.601v31H69.82V4ZM18.5 4h4.601v31H18.5V4Z" fill="#6A47DC"/></svg>