<svg width="172" height="40" fill="none" xmlns="http://www.w3.org/2000/svg"><g clip-path="url(#a)"><path fill-rule="evenodd" clip-rule="evenodd" d="M20.212 31.183c-.044 2.379-.703 4.239-1.934 5.58-1.056 1.21-2.77 2.205-5.145 3.027l-1.01-1.514c1.142-.346 1.934-.822 2.286-1.34.351-.52.527-1.298.527-2.51l.044-2.249c-2.33 1.341-4.22 1.99-5.672 1.99-1.714 0-3.385-.649-5.012-1.903a9.522 9.522 0 0 1-3.298-4.326C.515 26.599.295 25.128.295 23.7c0-3.244 1.143-5.883 3.43-7.873 1.494-1.34 4.044-2.681 7.606-4.109 2.55 0 5.232 1.168 8.002 3.547l-2.814 4.282c-1.847-2.768-4.133-4.412-6.771-4.93-1.627.388-2.77 1.08-3.43 2.032-.703 1.082-1.055 2.812-1.055 5.19-.088 2.51.704 4.932 2.199 6.965 1.45 1.86 3.033 2.811 4.748 2.811.396 0 1.363-.908 2.858-2.682l.088-3.546c0-.606-.176-.995-.528-1.082h-.923v-1.514l6.771-.735-.264 9.127Zm12.443 2.076c-.396.13-1.363.173-2.946.043l-1.978-.13-1.275.087-2.11.173-.089-20.503c0-.346-.22-1.47-.571-3.417-.088-.562-.264-.822-.528-.822l-.22-.043-.703.173v-1.6l5.847-1.6c.924 3.46 1.407 6.271 1.407 8.434v2.941l-.175 13.582 1.319.173.571.043.44.044c.22-.044.44-.087.615-.217l2.11-1.34 1.1 1.297c-1.011 1.514-1.979 2.379-2.814 2.682Zm19.434-1.73c-.792.735-2.023 1.297-3.738 1.73l-4.045.735a10.229 10.229 0 0 1-6.683-3.417c-1.67-1.903-2.506-4.282-2.462-7.18 0-3.33 1.1-5.97 3.254-7.916 1.67-1.47 4.309-2.768 7.87-3.806 2.462 0 4.968 1.254 7.474 3.72l-3.517 2.941a17.156 17.156 0 0 0-3.65-2.941c-1.186-.649-2.022-.952-2.505-.952-1.144 0-2.11.822-2.902 2.509a10.717 10.717 0 0 0-1.056 4.066l7.695.173c1.275 0 2.506-.39 3.561-1.038l.88 1.557c-1.1.735-2.243 1.34-3.474 1.773a13.38 13.38 0 0 1-3.913.563l-4.617.043c.308 1.86 1.188 3.547 2.594 4.844 1.54 1.558 3.078 2.336 4.661 2.336 1.407 0 2.506-1.73 3.298-5.234l3.385 1.212c-.572 1.99-1.231 3.416-2.11 4.282Zm18.906 2.162c-.396 0-.704-.26-.924-.778-.22-.39-.351-.865-.307-1.298v-.649l.044-.562 1.01-10.078c0-.173.045-.303.045-.476 0-1.038-.572-2.076-1.759-3.071a5.88 5.88 0 0 0-3.737-1.514 6.124 6.124 0 0 0-2.11 2.595 7.635 7.635 0 0 0-.924 3.417l-.176 11.809-4.968.735.264-14.274-.132-1.168-.176-1.038-.572-2.033c.044-.086.044-.173-.044-.26-.088-.086-.088-.086-.132-.043h-.66l-.439-1.686 5.672-1.514.923 2.638.264 1.038c2.243-2.12 4.309-3.373 6.244-3.763 2.066.303 3.957 1.298 5.32 2.812 1.626 1.73 2.33 3.547 2.242 5.493 0 .173-.044.476-.088.865l-1.1 9.473c0 .26.045.562.133.822v.086h.088l.923-.086.176 1.773-5.1.735Zm32.843.044-.263-.217c-.044 0-.044-.043-.088-.043-.484-.433-.704-1.298-.616-2.465l.044-.563 1.011-10.554a4.259 4.259 0 0 0-1.143-3.07c-.835-.996-1.759-1.515-2.77-1.515-.352 0-.747.087-1.099.217-.572.821-1.1 1.687-1.539 2.552l-.176.432-.176 14.533-4.968.736.308-13.885a4.955 4.955 0 0 0-.967-3.114 3.399 3.399 0 0 0-2.814-1.47c-.132 0-.264 0-.396.043l-.792.216-1.187 1.946c-.22.26-.351.563-.44.909l-.131 14.62-4.968.735.263-14.274-.132-1.168-.175-1.038-.572-2.033c.044-.086 0-.173-.044-.26-.044-.086-.088-.086-.132-.043h-.615l-.44-1.687 5.628-1.514c.483 1.341.835 2.336 1.011 3.028a10.745 10.745 0 0 1 4.924-3.114h.264c2.199 0 4.09 1.254 5.672 3.72a10.498 10.498 0 0 1 5.496-3.72c1.847 0 3.517.865 5.012 2.595 1.495 1.73 2.286 3.46 2.286 5.148l-.087.605-.088.865-1.012 8.954c-.044.519 0 .995.088 1.514h.176l.88-.26.175 1.903-5.408.736Zm22.292.475-1.935-2.725-.747-1.34c-2.858 2.032-5.716 3.2-8.486 3.503a5.86 5.86 0 0 1-2.418-1.514c-.704-.692-1.143-1.6-1.187-2.595 0-2.812 2.99-5.58 9.013-8.305-.615-1.99-1.011-3.114-1.099-3.374a5.913 5.913 0 0 0-2.154-2.681l-1.847 1.21-1.143-1.34 3.121-2.422 1.144-.779.923-.216c1.275 0 2.506.822 3.781 2.465.704.952 1.539 3.33 2.506 7.094a28.79 28.79 0 0 0 4.661 10.121l-4.133 2.898Zm-5.188-10.77.483.303h-.659a5.75 5.75 0 0 0-3.605 1.125c-.88.562-1.407 1.557-1.451 2.595 0 .822.791 1.86 2.33 3.157h.484c1.846 0 3.077-1.038 3.649-3.157l-1.231-4.023Zm16.795 4.325-.088 5.32-4.968.693.264-14.23-.132-1.169-.176-1.038-.571-2.033c.043-.086.043-.173-.044-.26-.044-.043-.132-.086-.176-.043h-.616l-.44-1.686 5.628-1.514.704 1.816.22.779a20.092 20.092 0 0 1 4.792-2.725c2.418.216 4.353.995 5.804 2.336 1.583 1.47 2.374 3.373 2.374 5.796 0 3.027-2.022 5.32-6.067 6.877 2.857 3.374 4.88 5.06 6.111 5.06h.308l.879-.129v1.514c-1.011.52-2.11.822-3.21.822-.395.043-.791.086-1.187.086-1.846 0-3.869-1.038-5.979-3.157l-1.627-1.557-.308-.39a13.663 13.663 0 0 0-1.495-1.168Zm0-1.643h.572a9.666 9.666 0 0 0 4.66-1.038 4.283 4.283 0 0 0 2.331-3.936 6.157 6.157 0 0 0-1.671-4.24c-1.099-1.21-2.286-1.86-3.561-1.86-.132 0-.22 0-.352.044l-.572.216a11.046 11.046 0 0 0-1.187 3.374c-.088.649-.176 1.298-.176 1.947l-.044 5.493Zm25.018-3.244c.835.39 1.978 1.427 3.297 3.2l1.275 1.644.264.433c1.847 2.335 3.254 3.547 4.221 3.547l.308 1.427-2.374.735-1.803.217c-.923 0-1.979-.606-3.21-1.86a114.817 114.817 0 0 1-2.55-2.985l-.264-.39c-1.143-1.383-1.89-2.119-2.286-2.205l-.44.476v5.882l-4.968.822V17.255c0-2.12-.132-4.196-.44-6.272-.219-1.384-.395-2.076-.571-2.076h-.264l-.615.13-.396-1.687 5.76-1.644c1.011 2.509 1.494 6.704 1.494 12.587v5.06c3.386-3.936 5.408-7.699 6.068-11.246h5.232c-.791 1.687-1.803 3.331-2.902 4.845a102.378 102.378 0 0 1-4.836 5.926Z" fill="#6A47DC"/></g><defs><clipPath id="a"><path fill="#fff" d="M0 0h172v40H0z"/></clipPath></defs></svg>