<svg width="162" height="46" fill="none" xmlns="http://www.w3.org/2000/svg"><g clip-path="url(#a)" fill="#6A47DC"><path d="M112.066 26.984c0 2.374-.601 4.92-3.218 4.92-2.618 0-3.219-2.56-3.219-4.92s.601-4.892 3.219-4.892c2.617 0 3.218 2.56 3.218 4.892Zm-13.53 9.926h7.079v-2.174h.072c.929 1.259 2.045 2.675 5.635 2.675 5.45 0 8.081-5.536 8.081-10.499 0-4.662-1.745-10.312-8.195-10.312-2.189 0-4.148.987-5.264 2.674h-.071V9.648h-7.338v27.277-.015Zm42.553-9.926c0-5.507-3.261-10.384-10.484-10.384s-10.484 4.891-10.484 10.384c0 5.492 3.261 10.427 10.484 10.427s10.484-4.92 10.484-10.427Zm-7.337 0c0 2.102-.372 4.92-3.147 4.92s-3.146-2.832-3.146-4.92.371-4.892 3.146-4.892 3.147 2.79 3.147 4.892ZM65.967 36.91h7.337V26.182c0-2.06.63-3.547 2.489-3.547 2.231 0 2.417 1.674 2.417 3.547V36.91h7.338V26.182c0-2.06.63-3.547 2.489-3.547 2.23 0 2.402 1.674 2.402 3.547V36.91h7.338V23.307c0-3.203-1.674-6.722-6.594-6.722s-6.265 2.86-6.565 3.09c-.887-1.989-3.118-3.09-5.192-3.09-2.675 0-4.82.844-6.293 3.132h-.072v-2.631h-7.08V36.91h-.014Zm75.82 0h7.338V26.44c0-3.175 1.673-3.819 2.932-3.819 2.145 0 2.403 1.602 2.403 3.89v10.385h7.337V23.294c0-4.549-3.147-6.723-6.594-6.723-2.932 0-4.891 1.03-6.264 3.018h-.072v-2.517h-7.08V36.91ZM37.834 40.658c.429 0 .7.3.7.643 0 .372-.285.673-.7.673-.372 0-.644-.286-.644-.673 0-.372.286-.643.644-.643Zm1.916-1.216c-.157-.958-.772-1.373-1.802-1.373-1.459 0-2.145 1.144-2.145 2.689 0 1.201.586 2.331 2.03 2.331 1.145 0 1.96-.6 1.96-1.816 0-.959-.672-1.574-1.602-1.574-.429 0-.786.086-1.101.387.043-.487.315-1.016.83-1.016.157 0 .271.014.371.086.1.071.172.172.2.272h1.26v.014Zm-7.452 1.144c0-.529.028-1.43.73-1.43.7 0 .714.93.714 1.43 0 .501-.028 1.43-.73 1.43-.7 0-.714-.915-.714-1.43Zm-1.302 0c0 1.903 1.173 2.518 2.031 2.518.858 0 2.031-.615 2.031-2.518 0-1.902-1.173-2.517-2.03-2.517-.86 0-2.032.615-2.032 2.517Zm-7.154 2.461h1.43v-4.92h-1.13c-.042.815-.729 1.087-1.415 1.072v1.016h1.115v2.832Zm4.335-3.862c.372 0 .672.3.672.687 0 .386-.314.658-.686.658a.675.675 0 0 1-.687-.673c0-.386.33-.672.701-.672Zm-1.917 2.56c.143.973.916 1.345 1.802 1.345 1.46 0 2.175-1.13 2.175-2.69 0-1.23-.615-2.345-2.017-2.345-1.087 0-2.017.644-2.017 1.831 0 1.015.687 1.559 1.616 1.559.4 0 .773-.114 1.073-.386h.014c-.071.415-.243 1.001-.858 1.001-.1 0-.214 0-.329-.072a.47.47 0 0 1-.214-.257h-1.259l.014.014Z"/><path d="M22.686 37.411v-6.608l12.372-13.788H23.387V9.992h19.108V6.13c0-2.131-1.687-3.862-3.747-3.862H5.994c-2.074 0-3.747 1.73-3.747 3.862v33.741c0 2.146 1.673 3.862 3.747 3.862h32.754c2.074 0 3.748-1.73 3.748-3.862v-2.46h-19.81Zm34.728-7.566v-1.831c-.887.457-1.888.73-2.89.958-1.63.386-2.488.801-2.488 2.146 0 .915.958 1.83 2.302 1.83 1.66 0 2.961-1.03 3.076-3.09m7.037-5.506v8.139c0 1.487.071 3.175.887 4.434h-7.495c-.186-.544-.3-1.33-.258-1.874h-.071c-1.545 1.83-3.79 2.36-6.15 2.374H44.54v3.161c0 2.918-2.289 5.278-5.12 5.278H5.32c-2.831 0-5.12-2.36-5.12-5.278V5.43C.201 2.511 2.49.151 5.321.151h34.114c2.832 0 5.12 2.36 5.12 5.278v12.23l-11.17 12.743h11.227c.744-5.22 7.266-5.049 10.785-5.735 1.001-.186 2.002-.5 2.002-1.76 0-1.344-1.215-1.83-2.403-1.83-2.26 0-2.703 1.187-2.746 2.03h-6.822c.228-5.577 5.335-6.493 9.897-6.493 9.197 0 9.111 3.934 9.111 7.752"/><path d="M23.842 43.047h1.43v-4.92h-1.13c-.042.815-.729 1.087-1.415 1.072v1.016h1.115v2.832Zm4.335-3.862c.372 0 .672.3.672.687 0 .386-.314.658-.686.658a.675.675 0 0 1-.687-.673c0-.386.33-.672.701-.672Zm-1.917 2.56c.143.973.916 1.345 1.802 1.345 1.46 0 2.175-1.13 2.175-2.69 0-1.23-.615-2.345-2.017-2.345-1.087 0-2.017.644-2.017 1.831 0 1.015.687 1.559 1.616 1.559.4 0 .773-.114 1.073-.386h.014c-.071.415-.243 1.001-.858 1.001-.1 0-.214 0-.329-.072a.47.47 0 0 1-.214-.257h-1.259l.014.014Zm6.038-1.159c0-.529.028-1.43.73-1.43.7 0 .714.93.714 1.43 0 .501-.028 1.43-.73 1.43-.7 0-.714-.915-.714-1.43Zm-1.302 0c0 1.903 1.173 2.518 2.031 2.518.858 0 2.031-.615 2.031-2.518 0-1.902-1.173-2.517-2.03-2.517-.86 0-2.032.615-2.032 2.517Zm6.838.072c.429 0 .7.3.7.643 0 .372-.285.673-.7.673-.372 0-.644-.286-.644-.673 0-.372.286-.643.644-.643Zm1.916-1.216c-.157-.958-.772-1.373-1.802-1.373-1.459 0-2.145 1.144-2.145 2.689 0 1.201.586 2.331 2.03 2.331 1.145 0 1.96-.6 1.96-1.816 0-.959-.672-1.574-1.602-1.574-.429 0-.786.086-1.101.387.043-.487.315-1.016.83-1.016.157 0 .271.014.371.086.1.071.172.172.2.272h1.26v.014Z"/></g><defs><clipPath id="a"><path fill="#fff" transform="translate(.201 .15)" d="M0 0h161.596v45.698H0z"/></clipPath></defs></svg>