<svg width="166" height="26" fill="none" xmlns="http://www.w3.org/2000/svg"><g clip-path="url(#a)"><mask id="b" style="mask-type:luminance" maskUnits="userSpaceOnUse" x="-318" y="-78" width="549" height="313"><path fill-rule="evenodd" clip-rule="evenodd" d="M-317.082 234.187h547.121v-311.39h-547.121v311.39Z" fill="#fff"/></mask><g mask="url(#b)"><path d="M.5 20.932V3.143h10.633c1.741 0 3.003.18 3.794.536.905.417 1.603 1.11 2.088 2.073.331.66.5 1.343.5 2.06 0 .915-.267 1.766-.798 2.566-.533.793-1.211 1.35-2.054 1.665 1.907.779 2.852 2.178 2.852 4.184 0 1.146-.31 2.119-.905 2.92a4.024 4.024 0 0 1-2.032 1.403c-.84.253-2.071.382-3.686.382H.5Zm4.182-10.477h5.214c.587 0 1.016-.026 1.288-.08.278-.051.544-.17.803-.356.617-.423.921-1.008.921-1.75 0-.705-.293-1.236-.87-1.593-.416-.245-1.106-.36-2.06-.36H4.683v4.139Zm0 7.312h5.214c.587 0 1.016-.03 1.308-.08.28-.05.542-.17.782-.355.618-.423.922-1.004.922-1.754 0-.705-.293-1.236-.87-1.595-.416-.241-1.106-.364-2.06-.364H4.683v4.148ZM62.583 7.89v13.043h-3.99V3.143h5.356l7.81 13.251V3.144h4v17.788h-5.154L62.583 7.889ZM98.07 3.143h4.181v9.986c0 .567.04 1.137.04 1.456 0 .311.072.69.141 1.066.12.8.561 1.352 1.291 1.657.733.303 2.002.46 3.824.46h2.012v3.164h-2.451c-2.051 0-3.646-.108-4.576-.322-2.165-.58-3.536-1.82-4.12-3.742a7.592 7.592 0 0 1-.255-1.482c-.064-.593-.087-1.343-.087-2.257V3.143Zm13.825 0h4.176v17.789h-4.176V3.143Zm6.685 17.789v-3.165h1.611c1.285 0 2.222-.04 2.804-.126.584-.077 1.045-.244 1.369-.49.429-.29.729-.732.886-1.317.158-.574.242-1.483.242-2.705V3.143h4.177v9.986c0 1.209-.054 2.247-.148 2.867a5.634 5.634 0 0 1-.585 1.783c-.749 1.5-2.116 2.478-4.091 2.914-.94.16-2.457.239-4.219.239h-2.046Zm28.517-17.789v3.172h-4.656c-1.317 0-2.517.135-3.113.261-.596.123-1.192.52-1.629 1.04a2.783 2.783 0 0 0-.57 1.015c-.113.354-.209.979-.301 1.864h10.269v3.165h-10.269c.149 1.542.641 2.608 1.475 3.208.845.602 2.288.9 4.318.9h4.476v3.164h-4.656c-1.401 0-2.804-.082-3.909-.247-1.761-.261-3.161-.961-4.224-2.096-1.485-1.635-2.23-3.856-2.23-6.645 0-3.105 1.059-5.513 3.158-7.23.716-.578 1.532-1.026 2.294-1.218.759-.187 1.903-.353 3.29-.353h6.277Zm6.917 17.789h-3.974V3.143h3.974v17.789Zm.138-9.002 6.097-8.787h5.246l-6.747 8.787 6.752 9.002h-5.251l-6.097-9.002Zm-76.847 9.002 7.694-17.789h4.746l7.681 17.789h-4.83l-1.86-4.119H84.01l-1.873 4.119h-4.833ZM87.373 7.42l-2.446 6.229h4.882L87.373 7.42ZM28.167 3c1.845 0 3.457.304 4.849.913 1.64.709 2.791 1.926 3.453 3.628.524 1.36.784 2.93.784 4.724 0 1.811-.317 3.379-.959 4.697-.785 1.595-1.996 2.702-3.622 3.335-1.223.47-2.623.703-4.23.703-2.062 0-3.871-.373-5.409-1.119-1.274-.624-2.253-1.601-2.935-2.927-.687-1.33-1.025-2.956-1.025-4.866 0-3.387.868-5.798 2.614-7.24.748-.61 1.658-1.066 2.724-1.384C25.487 3.153 26.727 3 28.167 3Zm.024 2.997c-1.816 0-3.11.57-3.886 1.709-.616.898-.915 2.313-.915 4.265 0 2.087.385 3.615 1.146 4.59.762.97 1.985 1.456 3.665 1.456 1.622 0 2.816-.487 3.583-1.465.773-.974 1.148-2.487 1.148-4.54 0-1.85-.303-3.267-.933-4.262-.727-1.168-2.001-1.753-3.808-1.753Zm11.507 14.935v-3.165h8.3c1.314 0 2.201-.13 2.662-.394.636-.36.962-.924.962-1.681 0-.848-.375-1.48-1.123-1.888-.432-.231-1.11-.34-2.035-.34h-3.37c-2.044 0-3.523-.365-4.447-1.09a4.814 4.814 0 0 1-1.33-1.737 5.35 5.35 0 0 1-.49-2.244c0-1.24.38-2.382 1.127-3.42.702-.985 1.873-1.564 3.502-1.745.529-.055 1.342-.085 2.422-.085h9.012v3.172h-8.136c-1.202 0-2.01.05-2.42.153-.818.2-1.227.808-1.227 1.808 0 .851.34 1.428 1.028 1.723.22.096.52.171.902.222.38.048.841.08 1.385.08h2.912c.742 0 1.39.028 1.947.09.559.059 1.029.152 1.401.283 1.277.423 2.16 1.165 2.649 2.24.395.87.584 1.79.584 2.762 0 1.06-.255 2.03-.756 2.913-.702 1.194-1.776 1.917-3.21 2.173-.758.112-1.796.17-3.118.17h-9.133Z" fill="#6A47DC"/></g></g><defs><clipPath id="a"><path fill="#fff" transform="translate(.5)" d="M0 0h165v26H0z"/></clipPath></defs></svg>