<svg width="184" height="24" fill="none" xmlns="http://www.w3.org/2000/svg"><mask id="a" style="mask-type:luminance" maskUnits="userSpaceOnUse" x="0" y="0" width="184" height="24"><path d="M184 .906H0v22.188h184V.905Z" fill="#fff"/></mask><g mask="url(#a)" fill="#6A47DC"><path d="M14.51 7.564c-.321-3.035-2.121-4.27-5.21-4.27-3.088 0-4.739 1.265-4.739 3.474 0 2.358 2.441 2.857 5.684 3.534 3.415.707 7.774 1.77 7.774 6.183 0 4.656-4.151 6.361-8.154 6.361-5.007 0-8.683-2.328-8.683-7.394H3.86c.119 3.8 2.887 5.125 6.242 5.125 2.447 0 5.21-.855 5.21-3.83 0-2.709-2.65-3.238-6.095-4.034-3.385-.766-7.305-1.324-7.305-5.743 0-4.419 3.82-5.975 7.59-5.975 4.449 0 7.508 2.061 7.686 6.57h-2.679Zm25.817 4.152c0 6.153-3.386 11.16-10.043 11.16-6.658 0-10.038-5.126-10.038-11.22 0-6.539 3.914-10.75 10.008-10.75 6.51 0 10.073 4.562 10.073 10.81Zm-17.313.148c0 5.239 2.857 8.624 7.305 8.624 4.449 0 7.24-3.415 7.24-8.624 0-5.208-2.857-8.54-7.3-8.54-4.947 0-7.245 4.062-7.245 8.54ZM57.722 22.37H43.824V1.406h2.768v18.548h11.13v2.417Zm21.345-10.654c0 6.153-3.385 11.16-10.037 11.16-6.653 0-10.038-5.126-10.038-11.22 0-6.539 3.914-10.75 10.014-10.75 6.51 0 10.067 4.562 10.067 10.81h-.006Zm-17.313.148c0 5.239 2.857 8.624 7.3 8.624 4.442 0 7.245-3.415 7.245-8.624 0-5.208-2.857-8.54-7.3-8.54-4.947 0-7.245 4.062-7.245 8.54ZM91.28 1.405c4.003 0 6.98 1.681 6.98 6.04 0 4.74-3.066 6.332-7.158 6.332h-5.684v8.6H82.65V1.405h8.63ZM85.424 11.45h5.327c2.68 0 4.74-.737 4.74-3.831 0-3.356-2.382-3.825-5.126-3.825h-4.947v7.656h.006Zm32.797 10.92h-2.768v-9.799h-11.07v9.806h-2.768V1.405h2.768v8.749h11.07V1.405h2.768v20.966Zm21.634 0h-3.094l-2.328-6.42h-8.803l-2.381 6.42h-2.946l8.244-20.965h3.118l8.184 20.966h.006ZM130.05 4.055l-3.624 9.687h7.188l-3.564-9.687Zm21.109-2.65c3.943 0 7.037 1.301 7.037 5.803 0 2.441-1.442 4.478-3.593 5.096 2.947.617 3.065 2.619 3.179 5.155.088 1.68.088 3.795 1.205 4.918h-3.177c-.684-1.057-.648-3.415-.708-4.621-.177-3.534-1.092-4.448-4.888-4.448h-5.505v9.069h-2.768V1.405h9.218Zm-6.45 9.687h5.209c2.708 0 5.505-.267 5.505-3.712 0-3.118-2.298-3.617-4.769-3.617h-5.945v7.33Zm21.257-9.687 6.741 17.753 6.509-17.753h3.855v20.966h-2.619V4.88l-6.569 17.49h-2.412l-6.688-17.49v17.49h-2.648V1.406h3.831Z"/></g></svg>