<svg width="182" height="36" fill="none" xmlns="http://www.w3.org/2000/svg"><g clip-path="url(#a)"><path fill-rule="evenodd" clip-rule="evenodd" d="M173.171 25.589v1.88h-3.151v-1.88c-4.135-.299-8.269-2.655-8.269-8.92 0-6.505 4.539-8.921 8.298-9.22V5.66h3.152v1.79c4.134.27 8.297 2.746 8.297 9.1 0 6.265-4.134 8.711-8.327 9.04ZM170.02 9.896c-2.169.179-4.886 1.88-4.886 6.682 0 4.416 2.544 6.325 4.886 6.624V9.896Zm3.181 0v13.306c2.312-.239 4.886-2 4.886-6.653 0-4.774-2.516-6.474-4.886-6.653Zm-20.913 9.159c-.665 0-1.3-.03-1.821-.179v7.727h-3.296V6.763c1.301-.268 3.007-.417 5.32-.417 2.573 0 4.452.567 5.638 1.61 1.186 1.015 1.908 2.567 1.908 4.416 0 1.91-.578 3.4-1.619 4.475-1.417 1.462-3.614 2.208-6.13 2.208ZM152.606 9c-.983 0-1.735.089-2.139.209v6.951c.491.15 1.069.179 1.821.179 2.747 0 4.424-1.402 4.424-3.819 0-2.326-1.561-3.52-4.106-3.52Zm-12.763 14.976h3.529v3.491h-3.529v-3.49Zm-4.98 7.25-.087-4.624h-9.367l-.145 4.624h-2.574l-.115-7.04 1.243-.06a12.89 12.89 0 0 0 1.388-3.014c.52-1.7.723-3.49.723-5.34v-3.7h10.207v12.054l1.445.06-.145 7.04h-2.573Zm-1.995-16.558h-3.99v2.089c0 1.611-.261 3.222-.665 4.684-.231.924-.636 1.82-1.041 2.595h5.696V14.67Zm-20.87 5.61c.087 2.804 2.111 4.026 4.424 4.026 1.706 0 2.863-.298 3.903-.655.203.775.347 1.551.521 2.357-1.128.536-2.805.924-4.887.924-4.481 0-7.17-2.924-7.17-7.34 0-4.086 2.399-7.816 6.852-7.816 4.568 0 5.985 3.939 5.985 7.011 0 .656-.028 1.194-.087 1.492h-9.541Zm6.448-2.507c0-1.432-.608-3.61-3.036-3.61-2.285 0-3.238 2.118-3.412 3.7h6.448v-.09Zm-15.193 2.387c-.058-1.432-.145-3.401-.174-5.132h-.086c-.434 1.551-.752 2.447-1.504 4.714l-2.342 6.742h-2.4L94.58 19.89c-.405-1.402-.954-3.49-1.301-4.833h-.116c0 1.76-.087 3.73-.173 5.162l-.29 6.384h-3.036l1.012-14.53h4.193l2.11 6.535c.29.984.81 2.625 1.157 3.848h.03a248.94 248.94 0 0 1 1.444-4.534l1.909-5.848h4.221l.954 14.53h-3.122l-.318-6.445Zm-19.372 4.773h-.115c-.781 1.134-2.284 2.03-4.164 2.03-2.833 0-4.395-2.15-4.395-4.327 0-3.61 3.123-5.49 8.356-5.46v-.239c0-1.014-.347-2.714-2.92-2.714-1.388 0-2.805.418-3.758 1.074l-.695-2.297c1.07-.627 2.863-1.224 5.032-1.224 4.451 0 5.667 2.954 5.667 6.087v5.25c0 1.313.086 2.566.26 3.491h-3.037l-.231-1.67Zm-.23-5.49c-2.575-.029-5.119.538-5.119 2.865 0 1.462.925 2.148 2.082 2.148 1.56 0 2.573-1.014 2.95-2.089.086-.268.086-.507.086-.805v-2.119Zm-13.922.717c-.058-1.432-.145-3.401-.173-5.132h-.087c-.434 1.551-.752 2.447-1.503 4.714l-2.343 6.742h-2.399l-2.168-6.593c-.406-1.402-.955-3.49-1.302-4.833h-.115c0 1.76-.088 3.73-.175 5.162l-.288 6.384H56.14l1.012-14.53h4.192l2.11 6.535c.29.984.81 2.625 1.157 3.848h.03a258.78 258.78 0 0 1 1.445-4.534l1.908-5.848h4.222l.954 14.53h-3.123l-.318-6.445ZM47.873 26.96c-1.763 0-3.267-.805-4.019-2.029h-.058v6.505H40.47v-14.53c0-1.91-.057-3.46-.115-4.833h2.92l.174 2.297h.057c1.07-1.67 2.689-2.596 4.857-2.596 3.297 0 5.928 2.864 5.928 7.37 0 5.25-3.18 7.816-6.42 7.816Zm-.578-12.47c-1.561 0-2.978 1.133-3.383 2.834a5.093 5.093 0 0 0-.116.955v2.297c0 .358.03.686.087 1.014.376 1.551 1.706 2.685 3.297 2.685 2.37 0 3.758-1.999 3.758-4.983 0-2.624-1.301-4.803-3.644-4.803ZM33.966 24.931h-.116c-.781 1.134-2.284 2.03-4.164 2.03-2.833 0-4.394-2.15-4.394-4.327 0-3.61 3.122-5.49 8.355-5.46v-.239c0-1.014-.347-2.714-2.92-2.714-1.388 0-2.805.418-3.76 1.074l-.692-2.297c1.07-.627 2.862-1.224 5.03-1.224 4.453 0 5.667 2.954 5.667 6.087v5.25c0 1.313.087 2.566.26 3.491h-3.035l-.231-1.67Zm-.232-5.49c-2.574-.029-5.118.538-5.118 2.865 0 1.462.926 2.148 2.082 2.148 1.561 0 2.573-1.014 2.95-2.089.086-.268.086-.507.086-.805v-2.119ZM15.191 25.59v1.88h-3.152v-1.88c-4.135-.299-8.27-2.655-8.27-8.92 0-6.505 4.54-8.921 8.299-9.22V5.66h3.151v1.79c4.135.27 8.298 2.746 8.298 9.1 0 6.265-4.134 8.711-8.326 9.04ZM12.038 9.896c-2.168.179-4.887 1.88-4.887 6.682 0 4.416 2.545 6.325 4.887 6.624V9.896Zm3.18 0v13.306c2.313-.239 4.886-2 4.886-6.653 0-4.774-2.515-6.474-4.886-6.653Z" fill="#6A47DC"/></g><defs><clipPath id="a"><path fill="#fff" transform="translate(.5)" d="M0 0h181v36H0z"/></clipPath></defs></svg>