<svg width="154" height="104" fill="none" xmlns="http://www.w3.org/2000/svg"><g clip-path="url(#a)" fill="#6A47DC"><path fill-rule="evenodd" clip-rule="evenodd" d="M30.679 80.026c-.87 5.103-4.363 9.397-8.744 10.852-5.177 1.743-6.879-.647-5.702-7.816l4.29-25.855c.942-5.57 4.091-9.217 9.63-11.032l6.283-2.048c5.81-1.887 10.553-2.372 13.25-1.995 1.558.234 2.988.827 4.092 1.707 2.372 2.03 2.95 5.409 2.535 9.577-1.105 10.816-10.916 18.938-22.394 21.471l-2.48.827-.76 4.312Zm3.095-17.788 1.014-.324c2.77-.916 3.983-2.012 4.29-3.737.29-1.58-.85-1.958-3.294-1.15-.398.126-.742.234-1.159.432l-.85 4.779Zm62.549-8.23c-.851 5.408-4.653 10.061-7.712 12.702-3.856 3.343-7.386 5.283-13.234 7.241l-11.64 3.881c-3.71 1.24-5.358 1.043-6.462-.772-.471-.845-.598-1.797-.471-2.84 0-.305.2-1.365.543-3.233l4.743-25.029.434-2.192c.815-4.24 4.707-8.499 9.16-9.954l6.427-2.102c6.427-2.084 7.911-2.444 10.355-2.246a6.886 6.886 0 0 1 3.892 1.689c1.738 1.725 2.426 4.725 1.684 8.175-.562 2.66-1.25 4.115-3.53 7.546 4.109-.539 6.498 2.84 5.81 7.133Zm-20.819-5.552 1.756-.575c2.1-.683 2.842-1.24 3.096-2.498.235-1.204-.47-1.473-2.57-.773l-1.63.522-.652 3.324Zm-2.697 13.619 2.48-.809c2.552-.844 3.277-1.401 3.566-2.803.272-1.33-.56-1.545-2.914-.772l-2.426.808-.706 3.576Z"/><path d="M114.152 53.091c-1.593 7.241-4.453 11.032-9.576 12.74-5.178 1.742-6.626-.504-5.069-7.889l5.467-25.603c.978-4.456 2.878-7.42 6.191-9.487 1.702-1.114 2.553-1.455 6.517-2.749l9.015-2.929c7.875-2.57 10.373-1.725 9.215 3.198-1.014 4.33-4.635 7.978-9.649 9.613l-7.458 2.462-.688 3.054 4.543-1.491c4.997-1.653 6.934-.809 6.083 2.857-.796 3.467-3.512 6.073-7.73 7.474l-5.322 1.76-1.539 6.99Z"/></g><defs><clipPath id="a"><path fill="#fff" d="M0 0h154v104H0z"/></clipPath></defs></svg>