<svg width="172" height="36" fill="none" xmlns="http://www.w3.org/2000/svg"><path d="M.881 1.453a.861.861 0 0 0-.854.853v24.918c0 .472.39.853.854.853M8.027 1.453H.881a.861.861 0 0 0-.854.853v24.918c0 .472.39.853.854.853H7.99c7.576 0 13.166-4.878 13.166-13.293 0-8.41-5.551-13.33-13.129-13.33Zm-.225 21.824H5.2V6.263h2.644c4.348 0 7.95 2.742 7.95 8.52 0 5.787-3.637 8.494-7.99 8.494Zm30.27-1.775c1.913 0 3.45 1.54 3.45 3.419 0 1.875-1.537 3.416-3.45 3.416a3.425 3.425 0 0 1-3.41-3.416c0-1.879 1.534-3.419 3.41-3.419Zm21.987-4.319c3.484-1.01 5.662-3.826 5.662-7.54 0-4.624-3.298-8.188-8.474-8.188h-9.532a.858.858 0 0 0-.854.853v24.916c0 .471.383.851.854.851h3.506a.855.855 0 0 0 .852-.851v-9.4h2.698l4.795 9.4c.24.471.819.851 1.288.851h4.037c.465 0 .658-.385.42-.851L60.06 17.183Zm-3.785-3.826h-4.201V5.958h4.2c2.625 0 4.16 1.464 4.16 3.718 0 2.182-1.535 3.681-4.16 3.681ZM34.48 9.453c-1.574 0-4.124.448-5.251 2.889v-1.895a.848.848 0 0 0-.796-.845h-3.186a.857.857 0 0 0-.852.828v16.794a.858.858 0 0 0 .852.847h3.276l.006-.01a.857.857 0 0 0 .852-.854v-7.585c0-3.979 2.214-5.217 4.762-5.217.447 0 .936.033 1.498.148V9.524a11.017 11.017 0 0 0-1.162-.071Zm116.454.151h-3.611c-.463.004-1.059.383-1.323.845l-4.18 9.967-4.527-9.965c-.264-.464-.86-.843-1.329-.843l-3.855-.004c-.465 0-.639.383-.371.853l7.421 15.29-3.963 8.76c-.236.463-.044.85.421.85h3.587c.453 0 1.001-.358 1.255-.8l10.843-24.11c.255-.467.093-.84-.368-.843Zm15.567 7.283-2.622-.563c-1.014-.188-1.686-.752-1.686-1.656 0-1.049 1.049-1.835 2.358-1.835 1.646 0 2.474.85 2.834 1.741l.005-.005c.129.43.503.698.94.573l2.681-.603a.848.848 0 0 0 .574-.974c-.562-1.973-2.487-4.523-7.071-4.523-3.974 0-6.898 2.744-6.898 6.047 0 2.587 1.61 4.73 5.171 5.515l2.442.567c1.419.296 1.985.975 1.985 1.8 0 .975-.791 1.84-2.44 1.84-1.984 0-3.056-1.127-3.312-2.444l-.006.004a.407.407 0 0 0-.445-.29l-3.134.691a.848.848 0 0 0-.585.986c.579 2.1 2.644 4.881 7.519 4.881 4.839 0 7.162-3.078 7.162-6.078 0-2.703-1.835-4.924-5.472-5.674ZM75.953 9.04c-4.722 0-9.068 3.828-9.068 9.722 0 6.233 4.459 9.873 9.518 9.873 4.228 0 7.032-2.323 8.156-5.217a.838.838 0 0 0-.598-.889l-2.677-.796c-.307-.065-.653.055-.891.383-.676 1.338-1.907 2.24-3.951 2.24-2.474 0-4.537-1.763-4.649-4.203h12.408c.463 0 .839-.38.842-.841.011-.223.022-.456.022-.703 0-5.93-3.412-9.569-9.112-9.569Zm-4.046 7.694c.115-1.69 1.538-3.642 4.123-3.642 2.851 0 4.053 1.803 4.125 3.642h-8.248Zm34.956 10.559-.016-17.215V1.747a.856.856 0 0 0-.853-.857h-3.212a.85.85 0 0 0-.83.747c-.004.04-.022.068-.022.11v9.395l.022-.004v.306c-.526-.979-2.023-2.294-5.21-2.294-5.211 0-8.846 4.245-8.846 9.652 0 5.59 3.744 9.722 8.997 9.722 2.472 0 4.345-1.128 5.17-2.591 0 .027.004.05.004.074l.005-.017c0 .268.006.495.017.703.028.424.067.802.111 1.088a.513.513 0 0 0 .419.292h3.415l-.011-.023a.85.85 0 0 0 .84-.757Zm-9.37-3.242c-2.63 0-4.577-1.953-4.577-5.255 0-3.303 2.026-5.184 4.578-5.184 2.546 0 4.533 1.842 4.533 5.145 0 3.34-1.987 5.294-4.533 5.294Zm31.542 3.242-.011-17.215V1.747a.855.855 0 0 0-.854-.857h-3.208a.853.853 0 0 0-.833.747c-.003.04-.022.068-.022.11v9.395l.022-.004v.306c-.525-.979-2.024-2.294-5.211-2.294-5.209 0-8.846 4.245-8.846 9.652 0 5.59 3.748 9.722 8.998 9.722 2.472 0 4.346-1.128 5.173-2.591v.074l.011-.017c0 .268.004.495.016.703.028.424.069.802.114 1.088a.506.506 0 0 0 .42.292h3.414l-.012-.023a.848.848 0 0 0 .837-.763m-9.368-3.236c-2.626 0-4.574-1.953-4.574-5.255 0-3.303 2.02-5.184 4.574-5.184 2.548 0 4.534 1.842 4.534 5.145 0 3.34-1.986 5.294-4.534 5.294Zm39.429-19.289c.129-.337.207-.696.207-1.076 0-1.671-1.367-3.043-3.071-3.043a3.053 3.053 0 0 0-3.039 3.043c0 1.42.993 2.616 2.316 2.945l-1.663 3.722c-.006.028-.011.05-.011.078a.31.31 0 0 0 .31.312l-.002.005h1.665c.16 0 .35-.125.44-.28l2.786-5.553c.023-.045.039-.096.057-.145.002-.002.005-.002.005-.008Z" fill="#6A47DC"/></svg>