<svg width="172" height="36" fill="none" xmlns="http://www.w3.org/2000/svg"><path d="M16.484 32.887c-3.854 0-7.564-1.333-10.984-3.017l3.384-7.827c2.075 1.53 4.108 3.017 6.8 3.017.729 0 2.184-.153 2.184-1.312 0-1.18-1.09-1.443-2.507-1.88-3.204-.962-8.294-1.902-8.294-8.789 0-7.018 5.274-9.664 11.416-9.664 2.947 0 6.77 1.072 9.13 2.865l-3.017 7.061s-2.435-2.23-5.129-2.23c-1.526 0-2.469.438-2.469 1.4 0 1.005 1.526 1.377 2.432 1.661 3.2 1.006 8.44 2.077 8.44 8.986 0 7.04-5.13 9.73-11.386 9.73Zm30.019-.83-.814-3.52h-7.38l-.983 3.52h-10.26L36.6 4.202h11.126l9.087 27.855h-10.31Zm-4.52-18.847-2.366 8.724h4.721l-2.355-8.724ZM75.33 32.057l-8.21-13.578v13.578h-9.473V4.202h9.473l8.209 13.643V4.203h9.387v27.854h-9.387Zm23.146-.066-3.13.066h-7.543V4.202h7.18l3.128.044c8.873 0 15.667 3.258 15.667 13.971 0 10.145-6.408 13.774-15.302 13.774Zm.278-19.437H97.64v11.194h1.114c3.386 0 5.165-1.749 5.165-5.422 0-3.41-1.714-5.772-5.165-5.772Zm30.883 20.333c-8.401 0-14.809-5.859-14.809-14.736 0-8.68 6.237-14.757 14.766-14.757 8.552 0 15.131 5.925 15.131 14.757 0 8.833-5.551 14.736-15.088 14.736Zm.107-20.223c-3.086 0-4.972 2.252-4.972 5.444 0 3.301 1.929 5.487 4.972 5.487 3.087 0 5.058-2.186 5.058-5.487 0-3.258-1.993-5.444-5.058-5.444Zm29.748 11.063h10.158v8.33h-26.19l11.701-19.503h-9.194V4.203h25.032l-11.508 19.524Z" fill="#6A47DC"/></svg>