<svg width="156" height="90" fill="none" xmlns="http://www.w3.org/2000/svg"><path d="m19.754 55.42-1.646-6.333h-9.17L7.233 55.42H1.002l8.23-28.592h9.052l8.23 28.592h-6.76Zm-9.64-10.832h6.877l-3.35-13.201h-.06l-3.468 13.2ZM29.512 55.42V35.294h5.525v2.308h.06c1.41-2.012 3.232-3.019 6.23-3.019 4.115 0 6.82 1.658 6.82 5.802V55.36h-6.055V41.983c0-2.19-.941-2.842-2.587-2.842-2.41 0-3.88 1.776-3.88 3.967V55.42h-6.113ZM60.08 34.643c2.645 0 4.82.947 5.76 3.315h.06c.117-1.125.234-1.776.47-2.664h5.23c-.117 1.42-.235 3.197-.235 6.157v14.68c0 4.795-3.762 7.045-9.817 7.045-6.23 0-9.288-1.895-9.523-5.624l5.938-.237c.705 1.658 1.88 2.072 3.644 2.072 2.41 0 3.762-1.006 3.762-4.025v-2.96h-.059c-.999 1.776-2.645 2.782-5.878 2.782-5.055 0-7.7-2.96-7.7-9.886.058-6.985 2.939-10.655 8.347-10.655ZM61.432 51.1c2.292 0 3.997-1.48 3.997-4.795V43.64c0-2.9-1.41-4.854-3.762-4.854-2.41 0-3.939 1.539-3.939 6.452 0 4.5 1.352 5.86 3.704 5.86Zm32.918-4.44H80.83c.058 4.144 1.41 5.565 4.173 5.565 1.646 0 2.939-.356 3.586-2.132l5.349.178c-.588 4.262-3.821 5.801-9.17 5.801-6.82 0-9.7-3.788-9.7-10.537 0-6.867 3.175-10.892 9.7-10.892 6.995 0 9.934 3.611 9.582 12.017Zm-13.462-3.611h7.7c.06-3.552-1.234-4.854-3.644-4.854-2.763.06-4.056 1.776-4.056 4.854ZM98.29 26.592h6.054v22.732c0 1.776.176 2.19 2.175 2.19h1.058l-.059 3.907c-1.117.118-2.234.296-3.88.296-4.29 0-5.349-1.42-5.349-4.736V26.592Zm12.64 2.486c0-1.776 1.234-3.078 3.468-3.078 2.116 0 3.351 1.302 3.351 3.078 0 1.835-1.235 3.138-3.351 3.138-2.175.059-3.468-1.303-3.468-3.138Zm.411 6.216h6.055V55.42h-6.055V35.294Zm11.167 20.126V35.294h5.525v2.308h.059c1.352-2.012 3.233-3.019 6.231-3.019 4.115 0 6.819 1.658 6.819 5.802V55.36h-6.054V41.983c0-2.19-.941-2.842-2.587-2.842-2.41 0-3.88 1.776-3.88 3.967V55.42h-6.113Zm23.16-26.342c0-1.776 1.234-3.078 3.468-3.078 2.116 0 3.351 1.302 3.351 3.078 0 1.835-1.235 3.138-3.351 3.138-2.234.059-3.468-1.303-3.468-3.138Zm.353 6.216h6.054V55.42h-6.054V35.294Z" fill="#6A47DC"/></svg>