<svg width="145" height="147" viewBox="0 0 145 147" fill="none" xmlns="http://www.w3.org/2000/svg">
<path d="M133.207 79.6196L133.441 76.594L134.209 76.6386L134.008 79.2435C133.967 79.7749 134.008 80.2334 134.132 80.6191C134.255 81.0047 134.46 81.3051 134.745 81.5202C135.035 81.7405 135.401 81.8678 135.844 81.9021C136.296 81.937 136.678 81.87 136.988 81.701C137.303 81.5323 137.546 81.2616 137.719 80.8889C137.891 80.5162 138 80.0396 138.044 79.4591L138.219 77.201L128.257 76.4309L128.327 75.5232L139.071 76.3537L138.827 79.5195C138.784 80.0656 138.692 80.5509 138.551 80.9755C138.409 81.4001 138.211 81.7559 137.956 82.0431C137.701 82.3302 137.391 82.5388 137.024 82.6688C136.662 82.8042 136.238 82.853 135.751 82.8154C135.308 82.7812 134.915 82.6518 134.571 82.4272C134.232 82.2031 133.963 81.9027 133.765 81.526C133.571 81.1547 133.466 80.7185 133.45 80.2175L133.207 79.6196ZM128.046 79.1539L128.297 75.9069L129.036 76.4317L128.821 79.2138C128.78 79.7451 128.834 80.2046 128.982 80.5921C129.134 80.985 129.37 81.2953 129.689 81.5228C130.008 81.7504 130.399 81.882 130.861 81.9178C131.27 81.9494 131.643 81.8891 131.981 81.7371C132.32 81.5851 132.597 81.3343 132.812 80.9847C133.032 80.6355 133.163 80.1805 133.207 79.6196L133.352 77.7378L134.118 77.8119L133.913 80.4759L133.627 80.6172C133.54 81.0955 133.358 81.5045 133.079 81.8443C132.805 82.1893 132.471 82.4456 132.077 82.6131C131.683 82.7855 131.259 82.8542 130.807 82.8192C130.157 82.769 129.617 82.5813 129.187 82.2561C128.762 81.9361 128.451 81.5087 128.254 80.9739C128.063 80.4444 127.993 79.8377 128.046 79.1539Z" fill="#6A47DC"/>
<path d="M135.149 86.7594L131.512 88.1386L134.176 90.9785L133.94 92.0027L130.728 88.4743L126.111 90.3114L126.344 89.3017L130.154 87.8331L127.37 84.8518L127.603 83.842L130.949 87.5151L135.382 85.7497L135.149 86.7594Z" fill="#6A47DC"/>
<path d="M129.553 92.476L129.781 92.5626C130.326 92.7692 130.799 93.0385 131.201 93.3704C131.602 93.7023 131.917 94.0775 132.143 94.496C132.368 94.919 132.495 95.3709 132.523 95.8515C132.557 96.3338 132.478 96.8264 132.287 97.3293C132.094 97.8368 131.826 98.2599 131.481 98.5987C131.14 98.9392 130.746 99.1932 130.297 99.3607C129.848 99.5281 129.363 99.6027 128.842 99.5845C128.322 99.5663 127.789 99.4539 127.245 99.2473L127.016 99.1606C126.472 98.954 125.999 98.6847 125.597 98.3528C125.2 98.0226 124.889 97.646 124.664 97.223C124.438 96.8045 124.308 96.3541 124.274 95.8718C124.246 95.3911 124.327 94.8994 124.518 94.3966C124.71 93.8891 124.977 93.4651 125.317 93.1246C125.662 92.7858 126.059 92.5326 126.508 92.3652C126.956 92.1977 127.439 92.1223 127.955 92.1387C128.476 92.157 129.009 92.2694 129.553 92.476ZM129.469 93.3861L129.241 93.2994C128.83 93.1436 128.419 93.051 128.008 93.0217C127.602 92.9941 127.215 93.0321 126.849 93.1358C126.487 93.2412 126.165 93.4201 125.885 93.6726C125.604 93.925 125.386 94.2565 125.23 94.6671C125.076 95.073 125.021 95.4612 125.065 95.8316C125.108 96.2065 125.23 96.5535 125.43 96.8725C125.636 97.1933 125.901 97.4759 126.225 97.7203C126.552 97.9711 126.921 98.1744 127.331 98.3302L127.56 98.4169C127.966 98.5709 128.372 98.6618 128.778 98.6894C129.183 98.7216 129.57 98.6835 129.938 98.5753C130.304 98.4716 130.63 98.2944 130.915 98.0438C131.201 97.7931 131.42 97.4648 131.574 97.0588C131.728 96.6528 131.782 96.2615 131.735 95.8847C131.686 95.5126 131.56 95.1639 131.356 94.8385C131.151 94.5178 130.887 94.2329 130.564 93.9838C130.24 93.7394 129.875 93.5402 129.469 93.3861Z" fill="#6A47DC"/>
<path d="M129.004 104.404L128.567 105.169L126.126 103.622C125.475 103.21 124.937 102.804 124.513 102.402C124.091 102.008 123.755 101.626 123.506 101.256C123.261 100.889 123.079 100.535 122.961 100.195C122.845 99.8615 122.767 99.5445 122.728 99.244L122.967 98.8262L123.615 99.2134L123.512 99.4099C123.591 99.6198 123.686 99.845 123.799 100.086C123.914 100.333 124.075 100.598 124.282 100.881C124.49 101.165 124.776 101.47 125.14 101.797C125.504 102.125 125.98 102.476 126.567 102.851L129.004 104.404ZM128.861 104.655L126.662 108.505L119.708 104.534L120.145 103.769L126.379 107.329L128.141 104.244L128.861 104.655ZM123.798 98.9086L119.955 105.638L117.249 104.093L117.69 103.322L119.734 104.489L122.717 99.2633L120.674 98.0961L121.092 97.3634L123.798 98.9086Z" fill="#6A47DC"/>
<path d="M118.604 108.701L121.047 116.183L120.494 116.878L114.23 111.888L114.783 111.193L119.924 115.288L117.481 107.806L118.025 107.123L124.289 112.113L123.745 112.796L118.604 108.701Z" fill="#6A47DC"/>
<path d="M116.251 121.201L110.734 115.396L111.373 114.789L116.89 120.594L116.251 121.201ZM114.137 123.21L113.617 122.662L118.408 118.109L118.928 118.656L114.137 123.21Z" fill="#6A47DC"/>
<path d="M106.38 127.107L101.464 118.922L102.225 118.465L107.935 127.969L107.224 128.396L106.38 127.107ZM100.378 127.924L100.298 127.791C99.9906 127.279 99.7678 126.774 99.6296 126.275C99.4914 125.777 99.4404 125.304 99.4765 124.856C99.511 124.415 99.6403 124.013 99.8643 123.648C100.088 123.283 100.408 122.976 100.822 122.727C101.232 122.48 101.636 122.324 102.034 122.258C102.432 122.192 102.817 122.205 103.189 122.298C103.56 122.398 103.909 122.562 104.237 122.791C104.563 123.027 104.866 123.317 105.147 123.66L106.203 125.418C106.389 125.87 106.511 126.309 106.571 126.734C106.63 127.159 106.621 127.561 106.545 127.941C106.464 128.323 106.306 128.674 106.072 128.993C105.837 129.313 105.519 129.593 105.118 129.834C104.699 130.086 104.277 130.227 103.852 130.258C103.426 130.295 103.008 130.227 102.598 130.053C102.187 129.885 101.794 129.62 101.421 129.257C101.046 128.901 100.698 128.457 100.378 127.924ZM101.059 127.333L101.139 127.467C101.381 127.868 101.647 128.215 101.937 128.507C102.223 128.801 102.527 129.025 102.849 129.177C103.169 129.336 103.501 129.409 103.845 129.398C104.186 129.39 104.531 129.28 104.882 129.069C105.246 128.85 105.52 128.602 105.704 128.325C105.887 128.054 106.003 127.768 106.053 127.468C106.105 127.172 106.11 126.878 106.068 126.587C106.025 126.296 105.96 126.024 105.872 125.772L104.656 123.748C104.383 123.475 104.075 123.254 103.732 123.086C103.391 122.922 103.024 122.846 102.629 122.859C102.232 122.879 101.818 123.018 101.386 123.278C101.039 123.486 100.782 123.738 100.615 124.034C100.447 124.331 100.359 124.657 100.349 125.015C100.334 125.374 100.39 125.749 100.516 126.14C100.637 126.534 100.818 126.931 101.059 127.333Z" fill="#6A47DC"/>
<path d="M93.7873 126.281C94.2705 126.081 94.7518 125.985 95.2312 125.995C95.706 126.007 96.1609 126.112 96.5958 126.311C97.0262 126.512 97.415 126.8 97.7623 127.174C98.1069 127.555 98.3887 128.009 98.6077 128.538L98.7295 128.832C98.9655 129.402 99.0946 129.952 99.1166 130.483C99.1386 131.013 99.0695 131.503 98.9091 131.954C98.7487 132.405 98.5152 132.796 98.2086 133.126C97.8993 133.462 97.5349 133.717 97.1155 133.891C96.646 134.085 96.1939 134.174 95.7594 134.156C95.3267 134.143 94.924 134.035 94.5513 133.831C94.176 133.634 93.8386 133.355 93.5391 132.993C93.2415 132.635 92.9898 132.208 92.784 131.711L92.5773 131.212L98.1777 128.893L98.4666 129.59L93.6799 131.573L93.7195 131.668C93.9005 132.079 94.1453 132.432 94.454 132.726C94.7601 133.027 95.1153 133.227 95.5197 133.326C95.9241 133.426 96.3588 133.379 96.8238 133.187C97.1703 133.043 97.4592 132.838 97.6905 132.571C97.9173 132.306 98.0789 131.994 98.1753 131.633C98.269 131.28 98.2955 130.892 98.2546 130.471C98.2111 130.056 98.0959 129.623 97.9089 129.172L97.7872 128.878C97.6172 128.468 97.3993 128.109 97.1335 127.803C96.8651 127.503 96.5634 127.265 96.2287 127.088C95.8893 126.914 95.5335 126.815 95.1612 126.793C94.7889 126.771 94.4158 126.838 94.042 126.992C93.6044 127.174 93.2499 127.414 92.9786 127.713C92.7093 128.017 92.5128 128.4 92.3892 128.863L91.7121 128.679C91.7735 128.375 91.8834 128.073 92.0419 127.773C92.1959 127.474 92.4148 127.196 92.6985 126.94C92.9822 126.684 93.3451 126.464 93.7873 126.281Z" fill="#6A47DC"/>
<path d="M86.0484 128.872C86.5557 128.745 87.0458 128.721 87.5186 128.801C87.9866 128.882 88.4211 129.053 88.8222 129.313C89.2185 129.575 89.561 129.917 89.8497 130.338C90.1348 130.765 90.3469 131.256 90.4861 131.811L90.5635 132.12C90.7135 132.718 90.7606 133.281 90.7047 133.809C90.6488 134.337 90.5085 134.812 90.2838 135.235C90.0591 135.657 89.7709 136.009 89.4193 136.291C89.064 136.578 88.6662 136.777 88.2259 136.888C87.7329 137.011 87.2728 137.032 86.8455 136.951C86.4194 136.875 86.0369 136.709 85.6981 136.453C85.3556 136.203 85.0628 135.877 84.8196 135.475C84.5776 135.078 84.3912 134.619 84.2604 134.097L84.129 133.573L90.0088 132.099L90.1924 132.831L85.1669 134.091L85.1921 134.191C85.3109 134.625 85.5014 135.009 85.7638 135.345C86.0225 135.687 86.3446 135.937 86.73 136.095C87.1155 136.253 87.5523 136.27 88.0405 136.148C88.4043 136.057 88.7201 135.896 88.988 135.666C89.2511 135.438 89.4568 135.152 89.605 134.81C89.7495 134.473 89.8325 134.094 89.8537 133.671C89.8714 133.255 89.8208 132.81 89.702 132.336L89.6246 132.027C89.5166 131.596 89.3536 131.21 89.1356 130.868C88.9139 130.532 88.6505 130.252 88.3452 130.028C88.035 129.806 87.6975 129.657 87.3324 129.58C86.9673 129.504 86.5886 129.515 86.1961 129.613C85.7366 129.728 85.3508 129.914 85.0386 130.171C84.7277 130.432 84.4772 130.782 84.2872 131.221L83.6443 130.94C83.7495 130.649 83.9024 130.366 84.1033 130.092C84.2994 129.819 84.5565 129.577 84.8747 129.365C85.1929 129.153 85.5841 128.988 86.0484 128.872Z" fill="#6A47DC"/>
<path d="M78.2172 131.044C77.8441 131.082 77.5024 131.186 77.1922 131.356C76.8776 131.531 76.6286 131.767 76.4451 132.063C76.2572 132.365 76.1688 132.718 76.1799 133.124L75.3403 133.208C75.314 132.7 75.4232 132.233 75.668 131.807C75.9083 131.386 76.2454 131.039 76.6793 130.768C77.1088 130.501 77.596 130.341 78.1409 130.286C78.6957 130.23 79.1968 130.281 79.6442 130.44C80.0866 130.598 80.4683 130.843 80.7891 131.172C81.1104 131.507 81.3688 131.908 81.5645 132.374C81.7558 132.846 81.8796 133.361 81.9359 133.921L81.967 134.23C82.0233 134.79 82.0044 135.318 81.9105 135.813C81.8121 136.314 81.6385 136.758 81.3898 137.145C81.1416 137.537 80.8165 137.855 80.4145 138.098C80.0125 138.342 79.5342 138.492 78.9794 138.548C78.4099 138.605 77.8877 138.541 77.4128 138.356C76.933 138.171 76.5369 137.881 76.2244 137.486C75.907 137.091 75.7068 136.606 75.624 136.029L76.4636 135.944C76.5311 136.369 76.681 136.726 76.9134 137.015C77.1458 137.304 77.4349 137.515 77.7806 137.649C78.1264 137.783 78.5005 137.83 78.9031 137.789C79.3548 137.744 79.7313 137.617 80.0326 137.408C80.3345 137.204 80.5707 136.94 80.7414 136.615C80.9077 136.296 81.0179 135.938 81.0722 135.54C81.1269 135.148 81.1331 134.741 81.0906 134.319L81.0595 134.009C81.0166 133.582 80.9314 133.179 80.804 132.8C80.6722 132.427 80.493 132.1 80.2665 131.82C80.0351 131.541 79.751 131.329 79.4141 131.184C79.0728 131.045 78.6738 130.998 78.2172 131.044Z" fill="#6A47DC"/>
<path d="M69.5055 138.695L69.8145 130.692L70.6946 130.726L70.3856 138.729L69.5055 138.695ZM66.5915 138.582L66.6206 137.828L73.2252 138.083L73.1961 138.837L66.5915 138.582Z" fill="#6A47DC"/>
<path d="M63.409 136.637L65.0901 127.239L65.9645 127.395L64.0122 138.309L63.1962 138.163L63.409 136.637ZM58.351 133.304L58.3783 133.151C58.4835 132.563 58.6479 132.036 58.8717 131.57C59.0954 131.104 59.3682 130.714 59.6899 130.401C60.0059 130.091 60.3683 129.873 60.777 129.745C61.1858 129.618 61.6282 129.597 62.1042 129.682C62.5753 129.766 62.9824 129.914 63.3255 130.126C63.6686 130.338 63.9498 130.601 64.1692 130.916C64.3828 131.235 64.5376 131.588 64.6336 131.977C64.7239 132.369 64.762 132.787 64.7478 133.23L64.3868 135.248C64.2288 135.711 64.0324 136.122 63.7978 136.481C63.5631 136.84 63.2919 137.138 62.9841 137.373C62.6714 137.608 62.3219 137.769 61.9355 137.855C61.5491 137.941 61.1252 137.943 60.6638 137.861C60.1829 137.775 59.7724 137.603 59.4323 137.347C59.0865 137.095 58.8165 136.768 58.6225 136.368C58.4228 135.971 58.3017 135.513 58.2591 134.994C58.2109 134.479 58.2415 133.916 58.351 133.304ZM59.2526 133.307L59.2253 133.46C59.1427 133.922 59.1149 134.358 59.1416 134.769C59.1635 135.179 59.2456 135.547 59.3877 135.873C59.5242 136.203 59.7258 136.477 59.9925 136.695C60.2544 136.913 60.5869 137.057 60.9901 137.13C61.4078 137.204 61.7774 137.198 62.0989 137.11C62.4146 137.026 62.6901 136.887 62.9252 136.694C63.1595 136.505 63.3563 136.287 63.5158 136.04C63.6753 135.793 63.8048 135.545 63.9043 135.297L64.32 132.973C64.2938 132.588 64.2069 132.219 64.0594 131.866C63.911 131.519 63.6837 131.22 63.3776 130.97C63.0657 130.724 62.6621 130.556 62.1667 130.468C61.7684 130.396 61.4087 130.417 61.0878 130.53C60.7668 130.643 60.4851 130.831 60.2426 131.093C59.9954 131.355 59.7904 131.674 59.6277 132.051C59.4602 132.427 59.3352 132.846 59.2526 133.307Z" fill="#6A47DC"/>
<path d="M45.2935 132.889L45.5881 132.178L49.3354 133.73L52.1053 127.042L52.9191 127.379L49.8546 134.778L45.2935 132.889Z" fill="#6A47DC"/>
<path d="M45.6633 128.558L45.5414 128.77C45.2508 129.274 44.9097 129.699 44.518 130.042C44.1264 130.386 43.706 130.637 43.2568 130.794C42.8034 130.948 42.3372 131.001 41.8581 130.953C41.3766 130.909 40.9028 130.753 40.4367 130.485C39.9664 130.214 39.5914 129.881 39.3118 129.487C39.0298 129.097 38.8418 128.667 38.7479 128.197C38.654 127.727 38.6575 127.237 38.7584 126.725C38.8593 126.214 39.055 125.706 39.3456 125.202L39.4675 124.99C39.7581 124.485 40.0992 124.061 40.4909 123.717C40.8801 123.378 41.3014 123.131 41.7548 122.976C42.2039 122.819 42.6693 122.763 43.1508 122.806C43.6298 122.855 44.1024 123.013 44.5685 123.281C45.0388 123.552 45.415 123.883 45.6971 124.273C45.9767 124.667 46.1634 125.099 46.2573 125.569C46.3512 126.039 46.3489 126.527 46.2505 127.034C46.1496 127.546 45.9539 128.054 45.6633 128.558ZM44.7781 128.33L44.9 128.119C45.1192 127.738 45.276 127.347 45.3704 126.946C45.4623 126.549 45.4862 126.162 45.4422 125.783C45.3958 125.409 45.2702 125.063 45.0657 124.746C44.8611 124.429 44.5686 124.161 44.188 123.942C43.8117 123.725 43.4373 123.609 43.0646 123.594C42.6876 123.576 42.3257 123.641 41.9788 123.788C41.6294 123.94 41.3083 124.157 41.0154 124.438C40.7158 124.721 40.4564 125.053 40.2372 125.433L40.1153 125.645C39.8986 126.021 39.7443 126.408 39.6523 126.805C39.5561 127.199 39.5322 127.587 39.5805 127.967C39.6245 128.346 39.7475 128.696 39.9496 129.017C40.1517 129.339 40.4409 129.608 40.8172 129.824C41.1935 130.041 41.5713 130.156 41.9507 130.17C42.3259 130.181 42.6903 130.112 43.0439 129.962C43.3933 129.81 43.7165 129.595 44.0137 129.316C44.3066 129.035 44.5614 128.707 44.7781 128.33Z" fill="#6A47DC"/>
<path d="M37.4296 119.409C37.1354 119.176 36.8178 119.013 36.4766 118.92C36.1285 118.827 35.7856 118.823 35.4478 118.908C35.103 118.994 34.7936 119.187 34.5194 119.486L33.8575 118.962C34.1921 118.579 34.5956 118.319 35.0679 118.183C35.5334 118.048 36.0165 118.034 36.5172 118.14C37.0111 118.248 37.4728 118.471 37.9024 118.811C38.3398 119.157 38.6641 119.542 38.8754 119.967C39.0828 120.389 39.187 120.83 39.1881 121.29C39.1862 121.754 39.0933 122.221 38.9095 122.693C38.7188 123.165 38.449 123.621 38.1001 124.062L37.9073 124.306C37.5584 124.747 37.1779 125.113 36.7657 125.404C36.3466 125.695 35.9131 125.894 35.4652 125.999C35.0143 126.108 34.5596 126.11 34.1013 126.005C33.6429 125.901 33.195 125.676 32.7577 125.33C32.3087 124.975 31.978 124.566 31.7658 124.102C31.5496 123.636 31.4667 123.152 31.517 122.651C31.5635 122.146 31.7576 121.658 32.0993 121.186L32.7612 121.709C32.5143 122.061 32.3738 122.422 32.3397 122.791C32.3056 123.161 32.3662 123.514 32.5215 123.85C32.6768 124.187 32.9131 124.481 33.2305 124.732C33.5866 125.013 33.9455 125.184 34.3073 125.243C34.666 125.307 35.0195 125.281 35.368 125.167C35.7095 125.053 36.0379 124.873 36.3532 124.625C36.6655 124.381 36.9532 124.093 37.2164 123.76L37.4092 123.516C37.6754 123.179 37.8946 122.831 38.0667 122.47C38.2319 122.11 38.3304 121.75 38.3622 121.392C38.3902 121.03 38.3335 120.68 38.1921 120.342C38.0437 120.005 37.7896 119.694 37.4296 119.409Z" fill="#6A47DC"/>
<path d="M17.0732 112.717L25.4777 105.972L26.0429 106.676L18.2502 112.93L22.0722 117.692L29.8649 111.438L30.4347 112.148L22.0302 118.893L17.0732 112.717Z" fill="#6A47DC"/>
<path d="M14.505 99.9872L15.5013 99.4036C16.1527 99.022 16.7923 98.7617 17.42 98.6228C18.041 98.482 18.6323 98.4616 19.194 98.5614C19.7532 98.657 20.2626 98.8676 20.7221 99.1932C21.1816 99.5188 21.5734 99.9583 21.8977 100.512C22.2144 101.052 22.4037 101.605 22.4654 102.169C22.5247 102.729 22.4605 103.279 22.2729 103.817C22.0853 104.356 21.7808 104.866 21.3594 105.348C20.9337 105.831 20.3951 106.264 19.7437 106.646L18.7474 107.229C18.096 107.611 17.4586 107.87 16.8351 108.006C16.2049 108.141 15.609 108.159 15.0472 108.059C14.4855 107.959 13.9749 107.746 13.5154 107.421C13.0559 107.095 12.6678 106.662 12.3511 106.121C12.0269 105.568 11.8351 105.011 11.7758 104.451C11.7166 103.891 11.7807 103.342 11.9683 102.803C12.156 102.264 12.4639 101.755 12.892 101.275C13.316 100.798 13.8536 100.369 14.505 99.9872ZM15.9577 100.183L14.9487 100.774C14.3995 101.096 13.943 101.449 13.5793 101.833C13.2131 102.214 12.9469 102.618 12.7807 103.047C12.6121 103.472 12.5482 103.91 12.5892 104.36C12.6302 104.811 12.7828 105.262 13.0472 105.713C13.3041 106.152 13.6178 106.497 13.9884 106.749C14.3589 107.001 14.7719 107.159 15.2274 107.224C15.6804 107.285 16.1648 107.253 16.6806 107.128C17.194 106.999 17.7253 106.773 18.2745 106.451L19.2836 105.86C19.837 105.536 20.2978 105.18 20.6657 104.793C21.027 104.404 21.2928 103.994 21.4632 103.563C21.6293 103.134 21.6932 102.696 21.6547 102.25C21.6137 101.799 21.4648 101.354 21.2079 100.916C20.9411 100.46 20.6224 100.107 20.2518 99.8547C19.8812 99.6028 19.4695 99.4466 19.0165 99.386C18.5593 99.3278 18.0752 99.3655 17.5644 99.4989C17.0468 99.6306 16.5112 99.8585 15.9577 100.183Z" fill="#6A47DC"/>
<circle cx="12.561" cy="88.0531" r="1" transform="rotate(-21.145 12.561 88.0531)" fill="#6A47DC"/>
<path d="M11.3837 70.2383L11.25 73.27L10.4804 73.2509L10.5955 70.6407C10.6189 70.1083 10.5625 69.6514 10.4262 69.27C10.2899 68.8887 10.0757 68.5952 9.78345 68.3897C9.48651 68.179 9.11621 68.0639 8.67256 68.0444C8.21904 68.0244 7.84016 68.104 7.53591 68.2832C7.22673 68.4622 6.99218 68.7408 6.83227 69.119C6.67236 69.4972 6.57958 69.9771 6.55393 70.5588L6.45416 72.8215L16.4365 73.2616L16.3964 74.1711L5.63026 73.6964L5.77014 70.5242C5.79426 69.9771 5.87012 69.489 5.9977 69.0599C6.12527 68.6309 6.31165 68.2687 6.55681 67.9733C6.80198 67.6779 7.1055 67.4591 7.46738 67.317C7.82455 67.1698 8.24715 67.1069 8.73517 67.1285C9.17883 67.148 9.57624 67.2643 9.9274 67.4774C10.2736 67.6902 10.5522 67.9816 10.7631 68.3514C10.9693 68.7161 11.0885 69.1486 11.1208 69.6489L11.3837 70.2383ZM16.5568 70.5331L16.4133 73.7866L15.6574 73.2866L15.7804 70.4989C15.8038 69.9665 15.7351 69.5091 15.5742 69.1266C15.4085 68.739 15.1625 68.4367 14.8362 68.2199C14.5099 68.003 14.1151 67.8843 13.6517 67.8639C13.2426 67.8458 12.8714 67.9184 12.5382 68.0815C12.2051 68.2446 11.9368 68.5044 11.7334 68.8609C11.525 69.2172 11.4085 69.6764 11.3837 70.2383L11.3006 72.1239L10.5322 72.0752L10.6499 69.4059L10.9307 69.2552C11.0013 68.7743 11.1702 68.3595 11.4375 68.0107C11.7 67.6568 12.0255 67.3896 12.4137 67.2092C12.8022 67.0238 13.2232 66.9411 13.6767 66.9611C14.3274 66.9898 14.8731 67.1596 15.3138 67.4704C15.7498 67.7761 16.0747 68.193 16.2885 68.721C16.4976 69.2439 16.587 69.8479 16.5568 70.5331Z" fill="#6A47DC"/>
<path d="M9.23235 62.9996L12.8234 61.504L10.0689 58.7513L10.272 57.7201L13.596 61.1432L18.1509 59.1585L17.9507 60.1752L14.1901 61.7656L17.0684 64.6558L16.8682 65.6725L13.4058 62.1091L9.03215 64.0163L9.23235 62.9996Z" fill="#6A47DC"/>
<path d="M14.6783 56.9444L14.4474 56.8646C13.8972 56.6743 13.4162 56.4193 13.0047 56.0995C12.5932 55.7797 12.268 55.4141 12.0291 55.0026C11.7919 54.5864 11.6518 54.1386 11.6087 53.659C11.561 53.1779 11.625 52.6831 11.8008 52.1748C11.9781 51.6618 12.2342 51.2309 12.5689 50.8819C12.8989 50.5314 13.2857 50.2657 13.7293 50.0849C14.173 49.9042 14.6554 49.8151 15.1765 49.8178C15.6977 49.8205 16.2334 49.917 16.7837 50.1072L17.0145 50.187C17.5648 50.3773 18.0457 50.6323 18.4573 50.9521C18.8641 51.2703 19.1862 51.6374 19.4234 52.0536C19.6623 52.4651 19.8056 52.9114 19.8533 53.3926C19.8963 53.8721 19.83 54.366 19.6542 54.8744C19.4769 55.3873 19.2232 55.8191 18.8931 56.1697C18.5584 56.5186 18.1693 56.7835 17.7257 56.9642C17.282 57.145 16.802 57.2348 16.2855 57.2338C15.7643 57.2311 15.2286 57.1346 14.6783 56.9444ZM14.7352 56.0321L14.9661 56.112C15.3811 56.2555 15.7945 56.3357 16.2063 56.3528C16.6134 56.3682 16.9986 56.3187 17.3619 56.2041C17.7206 56.088 18.0363 55.8995 18.3092 55.6389C18.582 55.3782 18.7902 55.0403 18.9337 54.6253C19.0756 54.2149 19.1189 53.8252 19.0637 53.4564C19.0102 53.0828 18.8782 52.7396 18.6679 52.4267C18.4529 52.1122 18.1798 51.8377 17.8485 51.6031C17.5141 51.3621 17.1394 51.1699 16.7243 51.0264L16.4935 50.9466C16.0831 50.8048 15.6744 50.7261 15.2672 50.7106C14.8617 50.6905 14.4765 50.7401 14.1116 50.8593C13.7483 50.9738 13.4279 51.1607 13.1504 51.4197C12.8729 51.6788 12.6632 52.0135 12.5213 52.4239C12.3794 52.8343 12.3376 53.2271 12.3958 53.6022C12.4557 53.9727 12.5923 54.3176 12.8056 54.6367C13.0206 54.9512 13.293 55.2281 13.6227 55.4674C13.954 55.702 14.3249 55.8903 14.7352 56.0321Z" fill="#6A47DC"/>
<path d="M14.8393 45.0447L15.2527 44.267L17.739 45.7395C18.4025 46.1313 18.9524 46.5214 19.3886 46.9097C19.8227 47.2914 20.1699 47.6632 20.4302 48.0251C20.6861 48.3846 20.8783 48.7327 21.0068 49.0692C21.1332 49.399 21.2203 49.7136 21.268 50.0127L21.0422 50.4376L20.3825 50.0701L20.4802 49.8706C20.3949 49.6632 20.2922 49.441 20.1723 49.204C20.0504 48.9604 19.8814 48.7001 19.6654 48.4232C19.4493 48.1463 19.1543 47.8498 18.7803 47.5336C18.4063 47.2174 17.9203 46.8808 17.3222 46.5238L14.8393 45.0447ZM14.9748 44.7898L17.0558 40.8751L24.1272 44.6341L23.7138 45.4118L17.3744 42.0419L15.7068 45.1789L14.9748 44.7898ZM20.2092 50.3804L23.8466 43.5377L26.5981 45.0003L26.1812 45.7846L24.1029 44.6798L21.2784 49.9931L23.3567 51.0979L22.9606 51.843L20.2092 50.3804Z" fill="#6A47DC"/>
<path d="M24.9682 40.6097L22.2942 33.2074L22.8257 32.4958L29.2415 37.2888L28.7099 38.0003L23.4445 34.0667L26.1185 41.4691L25.5958 42.1688L19.1801 37.3758L19.7028 36.6761L24.9682 40.6097Z" fill="#6A47DC"/>
<path d="M26.9815 27.9609L32.6675 33.6003L32.0473 34.2257L26.3612 28.5862L26.9815 27.9609ZM29.035 25.8904L29.571 26.422L24.9167 31.1148L24.3806 30.5832L29.035 25.8904Z" fill="#6A47DC"/>
<path d="M36.6269 21.7622L41.7888 29.7944L41.0416 30.2746L35.0474 20.9472L35.7447 20.4991L36.6269 21.7622ZM42.6017 20.7642L42.6857 20.895C43.0085 21.3973 43.2465 21.8954 43.3997 22.3893C43.5529 22.8833 43.6182 23.3545 43.5956 23.8031C43.5745 24.2449 43.4575 24.6514 43.2446 25.0229C43.0317 25.3944 42.7218 25.7108 42.315 25.9722C41.9123 26.231 41.5133 26.3995 41.1178 26.4777C40.7222 26.5559 40.337 26.5542 39.962 26.4726C39.5884 26.3842 39.2344 26.2304 38.9 26.0113C38.5671 25.7853 38.255 25.505 37.9636 25.1702L36.8552 23.4455C36.656 22.9986 36.5203 22.5638 36.448 22.1411C36.3758 21.7183 36.3723 21.3158 36.4375 20.9337C36.507 20.5489 36.6539 20.1934 36.8784 19.8673C37.1029 19.5412 37.4123 19.2515 37.8066 18.998C38.2176 18.7339 38.6349 18.5801 39.0586 18.5366C39.4837 18.4863 39.9037 18.5419 40.3184 18.7036C40.7346 18.8584 41.1348 19.1115 41.519 19.4629C41.9047 19.8074 42.2656 20.2412 42.6017 20.7642ZM41.9386 21.3752L41.8545 21.2444C41.6011 20.8501 41.3248 20.5115 41.0257 20.2286C40.7308 19.943 40.4203 19.7291 40.0942 19.5867C39.7695 19.4376 39.4353 19.3738 39.0914 19.3954C38.7516 19.4143 38.4094 19.5344 38.0649 19.7559C37.7079 19.9853 37.4415 20.2415 37.2656 20.5247C37.0913 20.8009 36.9838 21.09 36.9431 21.3918C36.8998 21.6894 36.9037 21.9831 36.955 22.2728C37.0062 22.5624 37.0797 22.8319 37.1754 23.0813L38.4519 25.0676C38.7335 25.3324 39.0482 25.5436 39.3959 25.7014C39.741 25.855 40.1109 25.9194 40.5055 25.8946C40.9016 25.8629 41.3113 25.711 41.7347 25.4389C42.0751 25.2202 42.3245 24.9602 42.4828 24.659C42.6412 24.3578 42.72 24.0286 42.7191 23.6713C42.7224 23.3114 42.6555 22.938 42.5183 22.5511C42.3852 22.1615 42.192 21.7695 41.9386 21.3752Z" fill="#6A47DC"/>
<path d="M49.2326 22.1811C48.7562 22.3969 48.2783 22.5078 47.7988 22.5136C47.3239 22.5175 46.8658 22.4271 46.4246 22.2423C45.9879 22.0555 45.5899 21.7808 45.2306 21.4181C44.8738 21.0488 44.5773 20.6035 44.3411 20.0821L44.2098 19.7922C43.9553 19.2304 43.8084 18.6848 43.7691 18.1555C43.7298 17.6262 43.7829 17.1336 43.9285 16.6776C44.0741 16.2217 44.2947 15.8238 44.5904 15.484C44.8886 15.1377 45.2444 14.8709 45.658 14.6836C46.1209 14.4739 46.5698 14.3708 47.0048 14.3742C47.4376 14.3732 47.8436 14.4683 48.2227 14.6595C48.6043 14.8441 48.9507 15.1125 49.2618 15.4645C49.5709 15.812 49.8364 16.2308 50.0583 16.7207L50.2812 17.2129L44.7594 19.7139L44.4479 19.0262L49.1674 16.8886L49.1246 16.7942C48.9304 16.3892 48.6742 16.0448 48.356 15.761C48.0403 15.4707 47.6788 15.2823 47.2713 15.196C46.8639 15.1097 46.431 15.1704 45.9725 15.3781C45.6309 15.5328 45.3488 15.7472 45.1263 16.0213C44.9083 16.2934 44.757 16.6111 44.6724 16.9745C44.5902 17.3313 44.5764 17.7194 44.631 18.1389C44.688 18.5518 44.8173 18.9808 45.0189 19.4258L45.1502 19.7157C45.3334 20.1202 45.5629 20.4713 45.8385 20.7689C46.1166 21.0601 46.4259 21.2884 46.7662 21.4538C47.1111 21.6172 47.4699 21.7038 47.8428 21.7137C48.2156 21.7236 48.5863 21.6451 48.9549 21.4781C49.3864 21.2827 49.7328 21.031 49.9941 20.723C50.2535 20.4106 50.4373 20.0212 50.5458 19.555L51.2285 19.717C51.1771 20.022 51.077 20.3273 50.9284 20.633C50.7842 20.9366 50.5746 21.2212 50.2994 21.4867C50.0242 21.7521 49.6686 21.9836 49.2326 22.1811Z" fill="#6A47DC"/>
<path d="M56.9847 19.2942C56.4817 19.4376 55.9927 19.477 55.5176 19.4123C55.0472 19.3463 54.6075 19.1894 54.1982 18.9418C53.7937 18.6928 53.4405 18.3625 53.1384 17.9509C52.8398 17.5333 52.612 17.0492 52.455 16.4987L52.3678 16.1927C52.1987 15.5995 52.1336 15.0383 52.1726 14.5089C52.2115 13.9796 52.3365 13.5002 52.5475 13.0706C52.7586 12.641 53.0353 12.2799 53.3778 11.9873C53.7236 11.6886 54.1148 11.477 54.5514 11.3526C55.0402 11.2132 55.4994 11.1772 55.9291 11.2446C56.3574 11.3072 56.745 11.4609 57.0919 11.7058C57.4421 11.9446 57.7452 12.261 58.0012 12.6549C58.2558 13.0441 58.4569 13.4973 58.6043 14.0146L58.7525 14.5342L52.9229 16.196L52.7159 15.47L57.6984 14.0496L57.67 13.95C57.5374 13.5208 57.3347 13.1425 57.0617 12.815C56.7922 12.4814 56.4622 12.2419 56.0719 12.0966C55.6816 11.9514 55.2444 11.9477 54.7604 12.0857C54.3998 12.1885 54.0892 12.3591 53.8288 12.5976C53.5732 12.8346 53.3768 13.1266 53.2397 13.4736C53.1059 13.8144 53.0352 14.1963 53.0275 14.6192C53.0232 15.0361 53.088 15.4794 53.2219 15.9492L53.3092 16.2552C53.4309 16.6823 53.6063 17.0633 53.8352 17.3983C54.0674 17.7271 54.3398 17.9984 54.6521 18.2121C54.9692 18.4244 55.3114 18.5629 55.6787 18.6275C56.046 18.6921 56.4242 18.669 56.8133 18.558C57.2689 18.4282 57.6485 18.2301 57.9523 17.9639C58.2548 17.693 58.4939 17.3349 58.6697 16.8897L59.3213 17.1504C59.2255 17.4445 59.0817 17.7318 58.8897 18.0123C58.7025 18.2914 58.4532 18.542 58.142 18.7642C57.8308 18.9863 57.445 19.163 56.9847 19.2942Z" fill="#6A47DC"/>
<path d="M64.6023 16.883C64.9741 16.8338 65.3123 16.7194 65.6171 16.5397C65.926 16.3545 66.1676 16.1111 66.3417 15.8093C66.5201 15.502 66.5974 15.1459 66.5738 14.7409L67.4102 14.6303C67.4524 15.1374 67.3578 15.6078 67.1265 16.0415C66.8994 16.4697 66.5733 16.8264 66.1481 17.1116C65.7271 17.3912 65.2452 17.5669 64.7022 17.6387C64.1494 17.7118 63.647 17.6762 63.1949 17.5319C62.7477 17.387 62.3586 17.1547 62.0277 16.8351C61.6961 16.5107 61.4252 16.1184 61.2151 15.6584C61.0092 15.1929 60.8694 14.6813 60.7957 14.1237L60.7549 13.8155C60.6812 13.2578 60.6836 12.7299 60.762 12.2318C60.8448 11.7281 61.0044 11.2789 61.2409 10.8843C61.4767 10.4848 61.7918 10.157 62.1859 9.9008C62.5801 9.64461 63.0536 9.47998 63.6063 9.40689C64.1738 9.33187 64.6977 9.37956 65.1782 9.54997C65.6635 9.71973 66.0685 9.99717 66.3932 10.3823C66.7227 10.7668 66.9379 11.246 67.0387 11.82L66.2022 11.9306C66.1215 11.5082 65.9604 11.1562 65.7191 10.8746C65.4778 10.5929 65.1823 10.3906 64.8326 10.2676C64.4828 10.1446 64.1074 10.1096 63.7063 10.1627C63.2562 10.2222 62.8839 10.361 62.5892 10.5791C62.2939 10.7924 62.066 11.0639 61.9055 11.3937C61.7493 11.718 61.6503 12.0795 61.6084 12.4782C61.5659 12.8721 61.5725 13.2793 61.6281 13.7L61.6689 14.0082C61.7251 14.4338 61.8228 14.834 61.962 15.2088C62.1054 15.5781 62.2946 15.899 62.5297 16.1715C62.7698 16.4434 63.0604 16.6463 63.4016 16.7804C63.7471 16.9089 64.1473 16.9431 64.6023 16.883Z" fill="#6A47DC"/>
<path d="M72.5885 8.94332L72.543 16.9516L71.6623 16.9466L71.7077 8.93832L72.5885 8.94332ZM75.5046 8.95987L75.5003 9.71481L68.8909 9.67729L68.8952 8.92235L75.5046 8.95987Z" fill="#6A47DC"/>
<path d="M78.9136 10.7674L77.541 20.2162L76.6621 20.0885L78.256 9.11624L79.0763 9.23541L78.9136 10.7674ZM84.078 13.9334L84.0557 14.0872C83.9699 14.6781 83.8228 15.2102 83.6144 15.6835C83.406 16.1568 83.1462 16.5554 82.8349 16.8791C82.5292 17.1987 82.1742 17.4288 81.7698 17.5696C81.3654 17.7103 80.924 17.7458 80.4454 17.6763C79.9718 17.6075 79.56 17.4729 79.2102 17.2725C78.8604 17.0721 78.5707 16.8181 78.3411 16.5105C78.1172 16.1988 77.9509 15.8505 77.8422 15.4658C77.7391 15.0768 77.6874 14.6605 77.6871 14.2167L77.9818 12.1877C78.1246 11.7198 78.3074 11.3026 78.5301 10.9361C78.7529 10.5696 79.0143 10.2635 79.3142 10.0179C79.619 9.77296 79.9631 9.60107 80.3464 9.50218C80.7298 9.4033 81.1534 9.38755 81.6173 9.45494C82.1007 9.52516 82.5166 9.68281 82.8649 9.92787C83.2188 10.1688 83.4993 10.4862 83.7063 10.8803C83.919 11.2702 84.055 11.7237 84.1145 12.2409C84.1796 12.754 84.1674 13.3182 84.078 13.9334ZM83.1768 13.9596L83.1991 13.8057C83.2665 13.3419 83.2801 12.905 83.2399 12.4953C83.2046 12.0863 83.1105 11.7211 82.9577 11.3998C82.8106 11.0743 82.6001 10.8068 82.3264 10.5975C82.0575 10.389 81.7204 10.2552 81.3151 10.1964C80.8952 10.1354 80.526 10.154 80.2076 10.2524C79.8947 10.3465 79.624 10.4942 79.3953 10.6953C79.1673 10.8916 78.9777 11.1158 78.8264 11.3681C78.6751 11.6203 78.5537 11.8719 78.4624 12.1229L78.123 14.4595C78.1619 14.8441 78.2608 15.21 78.4198 15.5572C78.5795 15.8995 78.8164 16.1907 79.1305 16.4308C79.4503 16.6667 79.8592 16.8208 80.3573 16.8932C80.7577 16.9513 81.1164 16.9187 81.4335 16.7952C81.7506 16.6718 82.026 16.4749 82.2598 16.2047C82.4983 15.9352 82.6928 15.6095 82.843 15.2274C82.9981 14.8461 83.1094 14.4235 83.1768 13.9596Z" fill="#6A47DC"/>
<path d="M97.5501 13.9816L97.2792 14.7021L93.4827 13.2747L90.9352 20.0503L90.1108 19.7403L92.9292 12.2442L97.5501 13.9816Z" fill="#6A47DC"/>
<path d="M97.1121 18.2102L97.2267 17.9945C97.5 17.4804 97.8266 17.0448 98.2063 16.6879C98.586 16.3309 98.9977 16.0664 99.4413 15.8942C99.8892 15.7244 100.353 15.6554 100.834 15.6873C101.316 15.7148 101.795 15.8547 102.27 16.1072C102.749 16.3619 103.136 16.6817 103.428 17.0665C103.723 17.4469 103.926 17.8702 104.036 18.3365C104.145 18.8028 104.159 19.2932 104.075 19.8076C103.992 20.3221 103.813 20.8364 103.54 21.3505L103.425 21.5662C103.152 22.0803 102.826 22.5158 102.446 22.8728C102.068 23.2254 101.656 23.4866 101.208 23.6564C100.764 23.8286 100.301 23.9009 99.8183 23.8734C99.3379 23.8415 98.8603 23.6994 98.3853 23.4469C97.9061 23.1922 97.5189 22.8746 97.2237 22.4942C96.9309 22.1094 96.7296 21.6839 96.6199 21.2176C96.5101 20.7513 96.4958 20.2631 96.5769 19.753C96.6604 19.2386 96.8388 18.7243 97.1121 18.2102ZM98.0045 18.4079L97.8898 18.6236C97.6837 19.0113 97.5403 19.4073 97.4595 19.8115C97.3811 20.2112 97.3703 20.5995 97.4272 20.9761C97.4863 21.3485 97.6235 21.6896 97.8387 21.9996C98.0539 22.3096 98.3554 22.5676 98.7432 22.7738C99.1266 22.9776 99.5048 23.0808 99.8778 23.0835C100.255 23.0885 100.615 23.0114 100.956 22.8522C101.3 22.6886 101.614 22.4613 101.897 22.1704C102.187 21.8774 102.435 21.537 102.641 21.1493L102.756 20.9336C102.96 20.5502 103.101 20.1586 103.179 19.7588C103.262 19.3613 103.273 18.9731 103.211 18.5941C103.155 18.2174 103.02 17.8719 102.807 17.5576C102.594 17.2432 102.296 16.9841 101.912 16.7803C101.529 16.5765 101.147 16.4743 100.768 16.4736C100.392 16.4753 100.031 16.5568 99.6823 16.7181C99.3383 16.8817 99.0225 17.1078 98.735 17.3964C98.4518 17.6873 98.2083 18.0245 98.0045 18.4079Z" fill="#6A47DC"/>
<path d="M105.856 27.1959C106.158 27.4192 106.48 27.5723 106.824 27.6553C107.175 27.7372 107.518 27.7304 107.853 27.6347C108.195 27.5381 108.498 27.3361 108.763 27.0286L109.441 27.5311C109.118 27.9247 108.723 28.1968 108.255 28.3475C107.794 28.4971 107.311 28.5264 106.808 28.4355C106.311 28.3435 105.842 28.1345 105.402 27.8083C104.954 27.4762 104.618 27.1011 104.394 26.683C104.173 26.2677 104.055 25.8302 104.04 25.3704C104.028 24.9067 104.106 24.4365 104.275 23.9598C104.451 23.4822 104.706 23.0174 105.041 22.5655L105.227 22.3158C105.562 21.8639 105.93 21.4864 106.333 21.1831C106.743 20.8788 107.17 20.6672 107.615 20.5483C108.062 20.4254 108.517 20.409 108.978 20.4992C109.439 20.5894 109.894 20.8005 110.342 21.1326C110.802 21.4735 111.145 21.8722 111.371 22.3289C111.602 22.7885 111.7 23.2695 111.665 23.772C111.634 24.2775 111.456 24.7714 111.129 25.2539L110.451 24.7514C110.687 24.3918 110.816 24.0269 110.839 23.6567C110.861 23.2865 110.79 22.9356 110.624 22.6039C110.458 22.2723 110.213 21.986 109.888 21.745C109.523 21.4747 109.159 21.3154 108.796 21.2671C108.435 21.2148 108.083 21.2513 107.738 21.3766C107.4 21.5008 107.077 21.6916 106.77 21.949C106.465 22.2023 106.187 22.4994 105.934 22.8403L105.749 23.0901C105.493 23.4349 105.285 23.7904 105.124 24.1564C104.97 24.5214 104.883 24.8836 104.862 25.243C104.846 25.6052 104.913 25.9532 105.065 26.2869C105.224 26.6196 105.488 26.9226 105.856 27.1959Z" fill="#6A47DC"/>
<path d="M126.423 33.2782L118.22 40.2673L117.634 39.58L125.24 33.0997L121.28 28.4518L113.674 34.9321L113.084 34.2391L121.287 27.25L126.423 33.2782Z" fill="#6A47DC"/>
<path d="M129.245 45.2325L128.267 45.8461C127.627 46.2473 126.996 46.5269 126.373 46.6849C125.756 46.8444 125.166 46.8828 124.601 46.8C124.039 46.7215 123.524 46.5265 123.055 46.215C122.586 45.9035 122.181 45.4761 121.84 44.9327C121.507 44.4019 121.301 43.8554 121.222 43.2933C121.146 42.7353 121.193 42.1842 121.364 41.64C121.535 41.0957 121.824 40.5766 122.231 40.0827C122.642 39.5862 123.167 39.1373 123.806 38.7361L124.784 38.1225C125.424 37.7213 126.053 37.4431 126.672 37.2877C127.298 37.134 127.893 37.0984 128.458 37.1812C129.022 37.2639 129.539 37.461 130.008 37.7725C130.477 38.0839 130.878 38.5051 131.212 39.0359C131.552 39.5793 131.761 40.13 131.837 40.6879C131.913 41.2459 131.866 41.797 131.695 42.3412C131.524 42.8855 131.231 43.4038 130.818 43.8961C130.409 44.3859 129.884 44.8313 129.245 45.2325ZM127.787 45.0812L128.778 44.4597C129.317 44.1215 129.762 43.7546 130.114 43.3591C130.469 42.9678 130.722 42.5552 130.875 42.1214C131.031 41.6917 131.082 41.2523 131.027 40.8031C130.972 40.3539 130.806 39.9077 130.528 39.4647C130.258 39.0341 129.934 38.6986 129.556 38.4581C129.178 38.2177 128.76 38.0719 128.303 38.0209C127.848 37.9741 127.365 38.0209 126.853 38.1614C126.344 38.3061 125.82 38.5476 125.281 38.8859L124.29 39.5073C123.747 39.8482 123.297 40.2177 122.941 40.6158C122.592 41.0155 122.339 41.4336 122.181 41.87C122.028 42.3039 121.978 42.7433 122.03 43.1883C122.084 43.6375 122.247 44.0774 122.517 44.5079C122.797 44.9552 123.127 45.299 123.505 45.5395C123.883 45.78 124.299 45.9237 124.754 45.9705C125.213 46.0147 125.695 45.9624 126.202 45.8135C126.715 45.6662 127.244 45.4221 127.787 45.0812Z" fill="#6A47DC"/>
<circle cx="131.661" cy="58.111" r="1" transform="rotate(-21.145 131.661 58.111)" fill="#6A47DC"/>
</svg>
