<svg width="145" height="147" viewBox="0 0 145 147" fill="none" xmlns="http://www.w3.org/2000/svg">
<path d="M133.207 78.8629L133.441 75.8373L134.209 75.8819L134.008 78.4868C133.967 79.0182 134.008 79.4767 134.132 79.8623C134.255 80.248 134.46 80.5484 134.745 80.7635C135.035 80.9838 135.401 81.1111 135.844 81.1453C136.296 81.1803 136.678 81.1133 136.988 80.9442C137.303 80.7756 137.546 80.5049 137.719 80.1322C137.891 79.7595 138 79.2829 138.044 78.7024L138.219 76.4442L128.257 75.6742L128.327 74.7665L139.071 75.597L138.827 78.7628C138.784 79.3089 138.692 79.7942 138.551 80.2188C138.409 80.6433 138.211 80.9992 137.956 81.2863C137.701 81.5735 137.391 81.7821 137.024 81.9121C136.662 82.0475 136.238 82.0963 135.751 82.0587C135.308 82.0245 134.915 81.8951 134.571 81.6705C134.232 81.4464 133.963 81.146 133.765 80.7693C133.571 80.398 133.466 79.9618 133.45 79.4607L133.207 78.8629ZM128.046 78.3972L128.297 75.1502L129.036 75.675L128.821 78.4571C128.78 78.9884 128.834 79.4479 128.982 79.8354C129.134 80.2283 129.37 80.5385 129.689 80.7661C130.008 80.9937 130.399 81.1253 130.861 81.1611C131.27 81.1926 131.643 81.1324 131.981 80.9804C132.32 80.8284 132.597 80.5776 132.812 80.228C133.032 79.8788 133.163 79.4237 133.207 78.8629L133.352 76.9811L134.118 77.0552L133.913 79.7192L133.627 79.8604C133.54 80.3388 133.358 80.7478 133.079 81.0875C132.805 81.4326 132.471 81.6889 132.077 81.8564C131.683 82.0288 131.259 82.0975 130.807 82.0625C130.157 82.0123 129.617 81.8246 129.187 81.4993C128.762 81.1794 128.451 80.752 128.254 80.2172C128.063 79.6877 127.993 79.081 128.046 78.3972Z" fill="#6A47DC"/>
<path d="M135.149 86.0027L131.512 87.3819L134.176 90.2218L133.94 91.2459L130.728 87.7176L126.111 89.5547L126.344 88.545L130.154 87.0764L127.37 84.095L127.603 83.0853L130.949 86.7584L135.382 84.9929L135.149 86.0027Z" fill="#6A47DC"/>
<path d="M129.553 91.7193L129.781 91.8059C130.326 92.0125 130.799 92.2818 131.201 92.6137C131.602 92.9456 131.917 93.3208 132.143 93.7393C132.368 94.1623 132.495 94.6142 132.523 95.0948C132.557 95.5771 132.478 96.0697 132.287 96.5726C132.094 97.08 131.826 97.5032 131.481 97.842C131.14 98.1825 130.746 98.4365 130.297 98.604C129.848 98.7714 129.363 98.846 128.842 98.8278C128.322 98.8096 127.789 98.6971 127.245 98.4906L127.016 98.4039C126.472 98.1973 125.999 97.928 125.597 97.5961C125.2 97.2659 124.889 96.8893 124.664 96.4663C124.438 96.0478 124.308 95.5974 124.274 95.115C124.246 94.6344 124.327 94.1427 124.518 93.6399C124.71 93.1324 124.977 92.7084 125.317 92.3678C125.662 92.029 126.059 91.7759 126.508 91.6085C126.956 91.441 127.439 91.3656 127.955 91.382C128.476 91.4003 129.009 91.5127 129.553 91.7193ZM129.469 92.6294L129.241 92.5427C128.83 92.3869 128.419 92.2943 128.008 92.265C127.602 92.2374 127.215 92.2754 126.849 92.3791C126.487 92.4845 126.165 92.6634 125.885 92.9158C125.604 93.1683 125.386 93.4998 125.23 93.9104C125.076 94.3163 125.021 94.7045 125.065 95.0749C125.108 95.4498 125.23 95.7968 125.43 96.1158C125.636 96.4366 125.901 96.7192 126.225 96.9636C126.552 97.2144 126.921 97.4177 127.331 97.5735L127.56 97.6602C127.966 97.8142 128.372 97.9051 128.778 97.9327C129.183 97.9649 129.57 97.9268 129.938 97.8186C130.304 97.7149 130.63 97.5377 130.915 97.287C131.201 97.0364 131.42 96.7081 131.574 96.3021C131.728 95.8961 131.782 95.5048 131.735 95.128C131.686 94.7559 131.56 94.4072 131.356 94.0818C131.151 93.761 130.887 93.4761 130.564 93.2271C130.24 92.9827 129.875 92.7835 129.469 92.6294Z" fill="#6A47DC"/>
<path d="M129.004 103.648L128.567 104.412L126.126 102.865C125.475 102.454 124.937 102.047 124.513 101.646C124.091 101.251 123.755 100.869 123.506 100.499C123.261 100.132 123.079 99.7786 122.961 99.4383C122.845 99.1048 122.767 98.7878 122.728 98.4873L122.967 98.0695L123.615 98.4567L123.512 98.6532C123.591 98.8631 123.686 99.0883 123.799 99.3288C123.914 99.576 124.075 99.8413 124.282 100.125C124.49 100.408 124.776 100.713 125.14 101.041C125.504 101.368 125.98 101.719 126.567 102.094L129.004 103.648ZM128.861 103.898L126.662 107.748L119.708 103.777L120.145 103.012L126.379 106.572L128.141 103.487L128.861 103.898ZM123.798 98.1519L119.955 104.881L117.249 103.336L117.69 102.565L119.734 103.732L122.717 98.5066L120.674 97.3394L121.092 96.6067L123.798 98.1519Z" fill="#6A47DC"/>
<path d="M118.604 107.944L121.047 115.426L120.494 116.121L114.23 111.131L114.783 110.436L119.924 114.531L117.481 107.05L118.025 106.367L124.289 111.356L123.745 112.039L118.604 107.944Z" fill="#6A47DC"/>
<path d="M116.251 120.444L110.734 114.639L111.373 114.032L116.89 119.837L116.251 120.444ZM114.137 122.453L113.617 121.906L118.408 117.352L118.928 117.9L114.137 122.453Z" fill="#6A47DC"/>
<path d="M106.38 126.35L101.464 118.166L102.225 117.708L107.935 127.213L107.224 127.64L106.38 126.35ZM100.378 127.167L100.298 127.034C99.9906 126.522 99.7678 126.017 99.6296 125.519C99.4914 125.02 99.4404 124.547 99.4765 124.1C99.511 123.659 99.6403 123.256 99.8643 122.891C100.088 122.526 100.408 122.219 100.822 121.97C101.232 121.724 101.636 121.567 102.034 121.501C102.432 121.435 102.817 121.448 103.189 121.541C103.56 121.641 103.909 121.805 104.237 122.034C104.563 122.27 104.866 122.56 105.147 122.903L106.203 124.661C106.389 125.114 106.511 125.552 106.571 125.977C106.63 126.402 106.621 126.804 106.545 127.184C106.464 127.567 106.306 127.918 106.072 128.237C105.837 128.556 105.519 128.836 105.118 129.078C104.699 129.329 104.277 129.47 103.852 129.501C103.426 129.538 103.008 129.47 102.598 129.296C102.187 129.129 101.794 128.864 101.421 128.501C101.046 128.145 100.698 127.7 100.378 127.167ZM101.059 126.577L101.139 126.71C101.381 127.112 101.647 127.458 101.937 127.75C102.223 128.045 102.527 128.268 102.849 128.42C103.169 128.579 103.501 128.653 103.845 128.642C104.186 128.633 104.531 128.523 104.882 128.312C105.246 128.094 105.52 127.846 105.704 127.568C105.887 127.297 106.003 127.011 106.053 126.711C106.105 126.415 106.11 126.121 106.068 125.83C106.025 125.539 105.96 125.267 105.872 125.015L104.656 122.991C104.383 122.718 104.075 122.497 103.732 122.329C103.391 122.165 103.024 122.09 102.629 122.103C102.232 122.122 101.818 122.262 101.386 122.521C101.039 122.729 100.782 122.982 100.615 123.278C100.447 123.574 100.359 123.901 100.349 124.258C100.334 124.617 100.39 124.993 100.516 125.384C100.637 125.777 100.818 126.175 101.059 126.577Z" fill="#6A47DC"/>
<path d="M93.7873 125.524C94.2705 125.324 94.7518 125.229 95.2312 125.239C95.706 125.25 96.1609 125.355 96.5958 125.555C97.0262 125.755 97.415 126.043 97.7623 126.417C98.1069 126.798 98.3887 127.253 98.6077 127.782L98.7295 128.076C98.9655 128.645 99.0946 129.195 99.1166 129.726C99.1386 130.256 99.0695 130.747 98.9091 131.198C98.7487 131.649 98.5152 132.039 98.2086 132.369C97.8993 132.705 97.5349 132.961 97.1155 133.134C96.646 133.329 96.1939 133.417 95.7594 133.4C95.3267 133.386 94.924 133.278 94.5513 133.075C94.176 132.878 93.8386 132.598 93.5391 132.236C93.2415 131.879 92.9898 131.452 92.784 130.955L92.5773 130.456L98.1777 128.136L98.4666 128.833L93.6799 130.816L93.7195 130.912C93.9005 131.323 94.1453 131.675 94.454 131.969C94.7601 132.27 95.1153 132.47 95.5197 132.569C95.9241 132.669 96.3588 132.622 96.8238 132.43C97.1703 132.286 97.4592 132.081 97.6905 131.815C97.9173 131.55 98.0789 131.237 98.1753 130.877C98.269 130.523 98.2955 130.135 98.2546 129.714C98.2111 129.3 98.0959 128.867 97.9089 128.415L97.7872 128.121C97.6172 127.711 97.3993 127.353 97.1335 127.046C96.8651 126.746 96.5634 126.508 96.2287 126.331C95.8893 126.157 95.5335 126.059 95.1612 126.037C94.7889 126.015 94.4158 126.081 94.042 126.236C93.6044 126.417 93.2499 126.657 92.9786 126.957C92.7093 127.26 92.5128 127.644 92.3892 128.106L91.7121 127.922C91.7735 127.619 91.8834 127.317 92.0419 127.016C92.1959 126.717 92.4148 126.44 92.6985 126.183C92.9822 125.927 93.3451 125.707 93.7873 125.524Z" fill="#6A47DC"/>
<path d="M86.0484 128.115C86.5557 127.988 87.0458 127.964 87.5186 128.044C87.9866 128.125 88.4211 128.296 88.8222 128.557C89.2185 128.819 89.561 129.16 89.8497 129.581C90.1348 130.008 90.3469 130.499 90.4861 131.054L90.5635 131.363C90.7135 131.961 90.7606 132.524 90.7047 133.052C90.6488 133.58 90.5085 134.055 90.2838 134.478C90.0591 134.901 89.7709 135.253 89.4193 135.534C89.064 135.821 88.6662 136.02 88.2259 136.131C87.7329 136.254 87.2728 136.276 86.8455 136.195C86.4194 136.118 86.0369 135.952 85.6981 135.696C85.3556 135.446 85.0628 135.12 84.8196 134.719C84.5776 134.321 84.3912 133.862 84.2604 133.34L84.129 132.816L90.0088 131.342L90.1924 132.074L85.1669 133.334L85.1921 133.435C85.3109 133.868 85.5014 134.253 85.7638 134.589C86.0225 134.931 86.3446 135.181 86.73 135.338C87.1155 135.496 87.5523 135.514 88.0405 135.391C88.4043 135.3 88.7201 135.14 88.988 134.91C89.2511 134.681 89.4568 134.395 89.605 134.053C89.7495 133.717 89.8325 133.337 89.8537 132.915C89.8714 132.498 89.8208 132.053 89.702 131.579L89.6246 131.27C89.5166 130.84 89.3536 130.453 89.1356 130.111C88.9139 129.775 88.6505 129.495 88.3452 129.272C88.035 129.049 87.6975 128.9 87.3324 128.823C86.9673 128.747 86.5886 128.758 86.1961 128.857C85.7366 128.972 85.3508 129.157 85.0386 129.414C84.7277 129.675 84.4772 130.025 84.2872 130.464L83.6443 130.183C83.7495 129.892 83.9024 129.61 84.1033 129.335C84.2994 129.062 84.5565 128.82 84.8747 128.608C85.1929 128.396 85.5841 128.232 86.0484 128.115Z" fill="#6A47DC"/>
<path d="M78.2172 130.288C77.8441 130.325 77.5024 130.429 77.1922 130.599C76.8776 130.774 76.6286 131.01 76.4451 131.306C76.2572 131.608 76.1688 131.962 76.1799 132.367L75.3403 132.452C75.314 131.943 75.4232 131.476 75.668 131.05C75.9083 130.629 76.2454 130.283 76.6793 130.011C77.1088 129.744 77.596 129.584 78.1409 129.529C78.6957 129.473 79.1968 129.525 79.6442 129.683C80.0866 129.842 80.4683 130.086 80.7891 130.416C81.1104 130.75 81.3688 131.151 81.5645 131.617C81.7558 132.089 81.8796 132.605 81.9359 133.164L81.967 133.474C82.0233 134.033 82.0044 134.561 81.9105 135.056C81.8121 135.557 81.6385 136.001 81.3898 136.388C81.1416 136.78 80.8165 137.098 80.4145 137.342C80.0125 137.586 79.5342 137.735 78.9794 137.791C78.4099 137.848 77.8877 137.784 77.4128 137.599C76.933 137.414 76.5369 137.124 76.2244 136.729C75.907 136.335 75.7068 135.849 75.624 135.272L76.4636 135.188C76.5311 135.612 76.681 135.969 76.9134 136.258C77.1458 136.547 77.4349 136.759 77.7806 136.893C78.1264 137.026 78.5005 137.073 78.9031 137.033C79.3548 136.987 79.7313 136.86 80.0326 136.651C80.3345 136.447 80.5707 136.183 80.7414 135.858C80.9077 135.539 81.0179 135.181 81.0722 134.784C81.1269 134.391 81.1331 133.984 81.0906 133.562L81.0595 133.252C81.0166 132.825 80.9314 132.422 80.804 132.043C80.6722 131.67 80.493 131.343 80.2665 131.063C80.0351 130.784 79.751 130.572 79.4141 130.428C79.0728 130.288 78.6738 130.242 78.2172 130.288Z" fill="#6A47DC"/>
<path d="M69.5055 137.938L69.8145 129.936L70.6946 129.97L70.3856 137.972L69.5055 137.938ZM66.5915 137.826L66.6206 137.071L73.2252 137.326L73.1961 138.081L66.5915 137.826Z" fill="#6A47DC"/>
<path d="M63.409 135.881L65.0901 126.482L65.9645 126.638L64.0122 137.552L63.1962 137.407L63.409 135.881ZM58.351 132.547L58.3783 132.394C58.4835 131.807 58.6479 131.28 58.8717 130.813C59.0954 130.347 59.3682 129.957 59.6899 129.644C60.0059 129.334 60.3683 129.116 60.777 128.989C61.1858 128.861 61.6282 128.84 62.1042 128.925C62.5753 129.01 62.9824 129.158 63.3255 129.369C63.6686 129.581 63.9498 129.844 64.1692 130.159C64.3828 130.478 64.5376 130.832 64.6336 131.22C64.7239 131.612 64.762 132.03 64.7478 132.473L64.3868 134.492C64.2288 134.955 64.0324 135.366 63.7978 135.725C63.5631 136.084 63.2919 136.381 62.9841 136.617C62.6714 136.851 62.3219 137.012 61.9355 137.098C61.5491 137.185 61.1252 137.186 60.6638 137.104C60.1829 137.018 59.7724 136.847 59.4323 136.59C59.0865 136.338 58.8165 136.012 58.6225 135.611C58.4228 135.214 58.3017 134.757 58.2591 134.238C58.2109 133.723 58.2415 133.159 58.351 132.547ZM59.2526 132.551L59.2253 132.704C59.1427 133.165 59.1149 133.601 59.1416 134.012C59.1635 134.422 59.2456 134.79 59.3877 135.116C59.5242 135.446 59.7258 135.721 59.9925 135.939C60.2544 136.156 60.5869 136.301 60.9901 136.373C61.4078 136.448 61.7774 136.441 62.0989 136.353C62.4146 136.269 62.6901 136.13 62.9252 135.937C63.1595 135.748 63.3563 135.53 63.5158 135.283C63.6753 135.036 63.8048 134.789 63.9043 134.541L64.32 132.216C64.2938 131.831 64.2069 131.462 64.0594 131.11C63.911 130.762 63.6837 130.463 63.3776 130.213C63.0657 129.967 62.6621 129.8 62.1667 129.711C61.7684 129.64 61.4087 129.661 61.0878 129.774C60.7668 129.887 60.4851 130.074 60.2426 130.337C59.9954 130.598 59.7904 130.917 59.6277 131.294C59.4602 131.67 59.3352 132.089 59.2526 132.551Z" fill="#6A47DC"/>
<path d="M45.2935 132.132L45.5881 131.421L49.3354 132.973L52.1053 126.286L52.9191 126.623L49.8546 134.021L45.2935 132.132Z" fill="#6A47DC"/>
<path d="M45.6633 127.802L45.5414 128.013C45.2508 128.518 44.9097 128.942 44.518 129.286C44.1264 129.63 43.706 129.88 43.2568 130.037C42.8034 130.192 42.3372 130.245 41.8581 130.197C41.3766 130.153 40.9028 129.997 40.4367 129.728C39.9664 129.457 39.5914 129.125 39.3118 128.73C39.0298 128.34 38.8418 127.91 38.7479 127.44C38.654 126.97 38.6575 126.48 38.7584 125.969C38.8593 125.457 39.055 124.949 39.3456 124.445L39.4675 124.233C39.7581 123.729 40.0992 123.304 40.4909 122.961C40.8801 122.621 41.3014 122.374 41.7548 122.219C42.2039 122.062 42.6693 122.006 43.1508 122.05C43.6298 122.098 44.1024 122.256 44.5685 122.525C45.0388 122.795 45.415 123.126 45.6971 123.516C45.9767 123.911 46.1634 124.343 46.2573 124.813C46.3512 125.282 46.3489 125.771 46.2505 126.278C46.1496 126.789 45.9539 127.297 45.6633 127.802ZM44.7781 127.574L44.9 127.362C45.1192 126.981 45.276 126.591 45.3704 126.189C45.4623 125.792 45.4862 125.405 45.4422 125.026C45.3958 124.652 45.2702 124.307 45.0657 123.99C44.8611 123.672 44.5686 123.404 44.188 123.185C43.8117 122.968 43.4373 122.852 43.0646 122.837C42.6876 122.819 42.3257 122.884 41.9788 123.032C41.6294 123.184 41.3083 123.4 41.0154 123.681C40.7158 123.964 40.4564 124.296 40.2372 124.676L40.1153 124.888C39.8986 125.264 39.7443 125.651 39.6523 126.048C39.5561 126.442 39.5322 126.83 39.5805 127.211C39.6245 127.589 39.7475 127.939 39.9496 128.26C40.1517 128.582 40.4409 128.851 40.8172 129.068C41.1935 129.284 41.5713 129.399 41.9507 129.413C42.3259 129.424 42.6903 129.355 43.0439 129.205C43.3933 129.054 43.7165 128.838 44.0137 128.56C44.3066 128.279 44.5614 127.95 44.7781 127.574Z" fill="#6A47DC"/>
<path d="M37.4296 118.652C37.1354 118.42 36.8178 118.257 36.4766 118.163C36.1285 118.07 35.7856 118.066 35.4478 118.152C35.103 118.237 34.7936 118.43 34.5194 118.729L33.8575 118.206C34.1921 117.822 34.5956 117.563 35.0679 117.427C35.5334 117.291 36.0165 117.277 36.5172 117.384C37.0111 117.491 37.4728 117.715 37.9024 118.054C38.3398 118.4 38.6641 118.785 38.8754 119.21C39.0828 119.632 39.187 120.073 39.1881 120.533C39.1862 120.997 39.0933 121.465 38.9095 121.936C38.7188 122.408 38.449 122.864 38.1001 123.306L37.9073 123.55C37.5584 123.991 37.1779 124.357 36.7657 124.647C36.3466 124.939 35.9131 125.137 35.4652 125.242C35.0143 125.351 34.5596 125.353 34.1013 125.249C33.6429 125.144 33.195 124.919 32.7577 124.573C32.3087 124.218 31.978 123.809 31.7658 123.345C31.5496 122.879 31.4667 122.395 31.517 121.894C31.5635 121.39 31.7576 120.901 32.0993 120.429L32.7612 120.953C32.5143 121.305 32.3738 121.665 32.3397 122.035C32.3056 122.404 32.3662 122.757 32.5215 123.094C32.6768 123.43 32.9131 123.724 33.2305 123.975C33.5866 124.257 33.9455 124.427 34.3073 124.487C34.666 124.55 35.0195 124.525 35.368 124.41C35.7095 124.297 36.0379 124.116 36.3532 123.868C36.6655 123.624 36.9532 123.336 37.2164 123.003L37.4092 122.759C37.6754 122.423 37.8946 122.074 38.0667 121.713C38.2319 121.353 38.3304 120.994 38.3622 120.635C38.3902 120.274 38.3335 119.924 38.1921 119.585C38.0437 119.248 37.7896 118.937 37.4296 118.652Z" fill="#6A47DC"/>
<path d="M20.9415 112.357L21.5418 111.876L24.4743 115.53L23.874 116.011L20.9415 112.357ZM23.7489 115.856L29.9946 110.843L30.5459 111.53L24.3002 116.542L23.7489 115.856ZM20.4875 111.792L26.7331 106.779L27.2891 107.472L21.0434 112.484L20.4875 111.792Z" fill="#6A47DC"/>
<path d="M22.441 107.487L22.2303 107.611C21.7279 107.905 21.2214 108.104 20.7109 108.209C20.2003 108.314 19.7111 108.323 19.2431 108.237C18.7727 108.146 18.3414 107.962 17.9491 107.682C17.5525 107.406 17.2184 107.035 16.9465 106.571C16.6722 106.103 16.5113 105.628 16.4639 105.147C16.4122 104.668 16.462 104.202 16.6132 103.747C16.7643 103.293 17.0104 102.868 17.3514 102.474C17.6923 102.08 18.114 101.736 18.6164 101.441L18.8272 101.318C19.3296 101.024 19.836 100.824 20.3466 100.719C20.8529 100.617 21.3413 100.611 21.8117 100.702C22.2796 100.788 22.7119 100.969 23.1084 101.246C23.5007 101.525 23.8327 101.897 24.1046 102.361C24.3789 102.829 24.5419 103.303 24.5936 103.782C24.641 104.263 24.5891 104.731 24.4379 105.185C24.2867 105.64 24.0428 106.063 23.7061 106.454C23.3651 106.849 22.9434 107.193 22.441 107.487ZM21.7851 106.851L21.9959 106.727C22.3748 106.505 22.7046 106.243 22.9854 105.942C23.2619 105.642 23.4747 105.318 23.624 104.967C23.769 104.619 23.8312 104.257 23.8106 103.88C23.79 103.503 23.6687 103.125 23.4468 102.746C23.2273 102.372 22.9595 102.085 22.6434 101.887C22.3248 101.685 21.9782 101.562 21.6038 101.518C21.2251 101.477 20.8389 101.506 20.4452 101.605C20.0447 101.703 19.655 101.862 19.2761 102.084L19.0653 102.208C18.6907 102.427 18.3651 102.687 18.0886 102.986C17.8096 103.281 17.5967 103.606 17.45 103.96C17.3007 104.311 17.2343 104.676 17.2506 105.055C17.2669 105.434 17.3848 105.811 17.6043 106.186C17.8238 106.561 18.095 106.848 18.4178 107.048C18.7382 107.243 19.089 107.363 19.4702 107.409C19.8489 107.45 20.2363 107.423 20.6325 107.329C21.0262 107.229 21.4104 107.07 21.7851 106.851Z" fill="#6A47DC"/>
<circle cx="12.561" cy="87.2965" r="1" transform="rotate(-21.145 12.561 87.2965)" fill="#6A47DC"/>
<path d="M11.3837 69.4816L11.25 72.5133L10.4804 72.4942L10.5955 69.884C10.6189 69.3516 10.5625 68.8947 10.4262 68.5133C10.2899 68.1319 10.0757 67.8385 9.78345 67.633C9.48651 67.4223 9.11621 67.3072 8.67256 67.2877C8.21904 67.2677 7.84016 67.3473 7.53591 67.5265C7.22673 67.7055 6.99218 67.9841 6.83227 68.3623C6.67236 68.7405 6.57958 69.2204 6.55393 69.8021L6.45416 72.0647L16.4365 72.5049L16.3964 73.4144L5.63026 72.9397L5.77014 69.7675C5.79426 69.2203 5.87012 68.7323 5.9977 68.3032C6.12527 67.8742 6.31165 67.512 6.55681 67.2166C6.80198 66.9212 7.1055 66.7024 7.46738 66.5603C7.82455 66.4131 8.24715 66.3502 8.73517 66.3717C9.17883 66.3913 9.57624 66.5076 9.9274 66.7207C10.2736 66.9335 10.5522 67.2248 10.7631 67.5947C10.9693 67.9594 11.0885 68.3919 11.1208 68.8922L11.3837 69.4816ZM16.5568 69.7764L16.4133 73.0299L15.6574 72.5298L15.7804 69.7422C15.8038 69.2098 15.7351 68.7524 15.5742 68.3699C15.4085 67.9823 15.1625 67.68 14.8362 67.4631C14.5099 67.2462 14.1151 67.1276 13.6517 67.1071C13.2426 67.0891 12.8714 67.1616 12.5382 67.3248C12.2051 67.4879 11.9368 67.7477 11.7334 68.1042C11.525 68.4605 11.4085 68.9197 11.3837 69.4816L11.3006 71.3672L10.5322 71.3185L10.6499 68.6491L10.9307 68.4985C11.0013 68.0176 11.1702 67.6028 11.4375 67.254C11.7 66.9001 12.0255 66.6329 12.4137 66.4525C12.8022 66.2671 13.2232 66.1844 13.6767 66.2044C14.3274 66.2331 14.8731 66.4029 15.3138 66.7137C15.7498 67.0194 16.0747 67.4363 16.2885 67.9643C16.4976 68.4872 16.587 69.0912 16.5568 69.7764Z" fill="#6A47DC"/>
<path d="M9.23235 62.2429L12.8234 60.7473L10.0689 57.9946L10.272 56.9634L13.596 60.3865L18.1509 58.4018L17.9507 59.4185L14.1901 61.0089L17.0684 63.8991L16.8682 64.9158L13.4058 61.3523L9.03215 63.2596L9.23235 62.2429Z" fill="#6A47DC"/>
<path d="M14.6783 56.1877L14.4474 56.1079C13.8972 55.9176 13.4162 55.6626 13.0047 55.3428C12.5932 55.023 12.268 54.6574 12.0291 54.2459C11.7919 53.8297 11.6518 53.3818 11.6087 52.9023C11.561 52.4212 11.625 51.9264 11.8008 51.4181C11.9781 50.9051 12.2342 50.4742 12.5689 50.1252C12.8989 49.7747 13.2857 49.509 13.7293 49.3282C14.173 49.1475 14.6554 49.0584 15.1765 49.0611C15.6977 49.0638 16.2334 49.1602 16.7837 49.3505L17.0145 49.4303C17.5648 49.6206 18.0457 49.8756 18.4573 50.1954C18.8641 50.5136 19.1862 50.8807 19.4234 51.2969C19.6623 51.7084 19.8056 52.1547 19.8533 52.6359C19.8963 53.1154 19.83 53.6093 19.6542 54.1177C19.4769 54.6306 19.2232 55.0624 18.8931 55.413C18.5584 55.7619 18.1693 56.0268 17.7257 56.2075C17.282 56.3883 16.802 56.4781 16.2855 56.4771C15.7643 56.4744 15.2286 56.3779 14.6783 56.1877ZM14.7352 55.2754L14.9661 55.3552C15.3811 55.4987 15.7945 55.579 16.2063 55.5961C16.6134 55.6115 16.9986 55.562 17.3619 55.4474C17.7206 55.3313 18.0363 55.1428 18.3092 54.8821C18.582 54.6215 18.7902 54.2836 18.9337 53.8685C19.0756 53.4582 19.1189 53.0685 19.0637 52.6996C19.0102 52.3261 18.8782 51.9829 18.6679 51.67C18.4529 51.3555 18.1798 51.081 17.8485 50.8463C17.5141 50.6054 17.1394 50.4132 16.7243 50.2697L16.4935 50.1899C16.0831 50.048 15.6744 49.9694 15.2672 49.9539C14.8617 49.9338 14.4765 49.9834 14.1116 50.1026C13.7483 50.2171 13.4279 50.4039 13.1504 50.663C12.8729 50.9221 12.6632 51.2568 12.5213 51.6672C12.3794 52.0776 12.3376 52.4704 12.3958 52.8455C12.4557 53.216 12.5923 53.5608 12.8056 53.88C13.0206 54.1945 13.293 54.4714 13.6227 54.7107C13.954 54.9453 14.3249 55.1335 14.7352 55.2754Z" fill="#6A47DC"/>
<path d="M14.8393 44.288L15.2527 43.5103L17.739 44.9828C18.4025 45.3746 18.9524 45.7647 19.3886 46.153C19.8227 46.5347 20.1699 46.9065 20.4302 47.2684C20.6861 47.6279 20.8783 47.976 21.0068 48.3125C21.1332 48.6423 21.2203 48.9568 21.268 49.256L21.0422 49.6808L20.3825 49.3134L20.4802 49.1139C20.3949 48.9065 20.2922 48.6843 20.1723 48.4473C20.0504 48.2036 19.8814 47.9434 19.6654 47.6665C19.4493 47.3896 19.1543 47.093 18.7803 46.7769C18.4063 46.4607 17.9203 46.1241 17.3222 45.7671L14.8393 44.288ZM14.9748 44.0331L17.0558 40.1183L24.1272 43.8773L23.7138 44.6551L17.3744 41.2852L15.7068 44.4222L14.9748 44.0331ZM20.2092 49.6236L23.8466 42.781L26.5981 44.2436L26.1812 45.0279L24.1029 43.9231L21.2784 49.2364L23.3567 50.3412L22.9606 51.0862L20.2092 49.6236Z" fill="#6A47DC"/>
<path d="M24.9682 39.853L22.2942 32.4506L22.8257 31.7391L29.2415 36.5321L28.7099 37.2436L23.4445 33.31L26.1185 40.7124L25.5958 41.4121L19.1801 36.6191L19.7028 35.9194L24.9682 39.853Z" fill="#6A47DC"/>
<path d="M26.9815 27.2042L32.6675 32.8436L32.0473 33.469L26.3612 27.8295L26.9815 27.2042ZM29.035 25.1336L29.571 25.6653L24.9167 30.3581L24.3806 29.8265L29.035 25.1336Z" fill="#6A47DC"/>
<path d="M36.6269 21.0055L41.7888 29.0377L41.0416 29.5179L35.0474 20.1905L35.7447 19.7424L36.6269 21.0055ZM42.6017 20.0075L42.6857 20.1383C43.0085 20.6406 43.2465 21.1387 43.3997 21.6326C43.5529 22.1266 43.6182 22.5978 43.5956 23.0464C43.5745 23.4881 43.4575 23.8947 43.2446 24.2662C43.0317 24.6376 42.7218 24.9541 42.315 25.2155C41.9123 25.4743 41.5133 25.6428 41.1178 25.721C40.7222 25.7992 40.337 25.7975 39.962 25.7159C39.5884 25.6275 39.2344 25.4737 38.9 25.2546C38.5671 25.0286 38.255 24.7483 37.9636 24.4135L36.8552 22.6887C36.656 22.2419 36.5203 21.8071 36.448 21.3843C36.3758 20.9616 36.3723 20.5591 36.4375 20.177C36.507 19.7921 36.6539 19.4367 36.8784 19.1106C37.1029 18.7845 37.4123 18.4947 37.8066 18.2413C38.2176 17.9772 38.6349 17.8234 39.0586 17.7799C39.4837 17.7296 39.9037 17.7852 40.3184 17.9468C40.7346 18.1017 41.1348 18.3548 41.519 18.7061C41.9047 19.0507 42.2656 19.4845 42.6017 20.0075ZM41.9386 20.6185L41.8545 20.4877C41.6011 20.0934 41.3248 19.7547 41.0257 19.4719C40.7308 19.1863 40.4203 18.9724 40.0942 18.83C39.7695 18.6808 39.4353 18.617 39.0914 18.6386C38.7516 18.6576 38.4094 18.7777 38.0649 18.9991C37.7079 19.2286 37.4415 19.4848 37.2656 19.7679C37.0913 20.0442 36.9838 20.3333 36.9431 20.6351C36.8998 20.9327 36.9037 21.2264 36.955 21.5161C37.0062 21.8057 37.0797 22.0752 37.1754 22.3246L38.4519 24.3108C38.7335 24.5756 39.0482 24.7869 39.3959 24.9447C39.741 25.0983 40.1109 25.1627 40.5055 25.1379C40.9016 25.1062 41.3113 24.9543 41.7347 24.6822C42.0751 24.4635 42.3245 24.2035 42.4828 23.9023C42.6412 23.6011 42.72 23.2719 42.7191 22.9146C42.7224 22.5547 42.6555 22.1813 42.5183 21.7944C42.3852 21.4048 42.192 21.0128 41.9386 20.6185Z" fill="#6A47DC"/>
<path d="M49.2326 21.4244C48.7562 21.6402 48.2783 21.751 47.7988 21.7569C47.3239 21.7608 46.8658 21.6703 46.4246 21.4856C45.9879 21.2988 45.5899 21.024 45.2306 20.6613C44.8738 20.2921 44.5773 19.8468 44.3411 19.3254L44.2098 19.0355C43.9553 18.4737 43.8084 17.9281 43.7691 17.3988C43.7298 16.8695 43.7829 16.3769 43.9285 15.9209C44.0741 15.465 44.2947 15.0671 44.5904 14.7273C44.8886 14.381 45.2444 14.1142 45.658 13.9269C46.1209 13.7172 46.5698 13.6141 47.0048 13.6175C47.4376 13.6165 47.8436 13.7115 48.2227 13.9028C48.6043 14.0874 48.9507 14.3558 49.2618 14.7078C49.5709 15.0553 49.8364 15.4741 50.0583 15.964L50.2812 16.4562L44.7594 18.9572L44.4479 18.2695L49.1674 16.1319L49.1246 16.0375C48.9304 15.6325 48.6742 15.2881 48.356 15.0043C48.0403 14.7139 47.6788 14.5256 47.2713 14.4393C46.8639 14.353 46.431 14.4137 45.9725 14.6213C45.6309 14.7761 45.3488 14.9905 45.1263 15.2646C44.9083 15.5367 44.757 15.8544 44.6724 16.2178C44.5902 16.5746 44.5764 16.9627 44.631 17.3822C44.688 17.7951 44.8173 18.2241 45.0189 18.669L45.1502 18.959C45.3334 19.3635 45.5629 19.7146 45.8385 20.0122C46.1166 20.3034 46.4259 20.5316 46.7662 20.6971C47.1111 20.8605 47.4699 20.9471 47.8428 20.957C48.2156 20.9669 48.5863 20.8884 48.9549 20.7214C49.3864 20.526 49.7328 20.2743 49.9941 19.9663C50.2535 19.6538 50.4373 19.2645 50.5458 18.7983L51.2285 18.9603C51.1771 19.2653 51.077 19.5706 50.9284 19.8763C50.7842 20.1799 50.5746 20.4645 50.2994 20.7299C50.0242 20.9954 49.6686 21.2269 49.2326 21.4244Z" fill="#6A47DC"/>
<path d="M56.9847 18.5375C56.4817 18.6809 55.9927 18.7202 55.5176 18.6556C55.0472 18.5895 54.6075 18.4327 54.1982 18.1851C53.7937 17.9361 53.4405 17.6058 53.1384 17.1942C52.8398 16.7765 52.612 16.2925 52.455 15.742L52.3678 15.436C52.1987 14.8428 52.1336 14.2816 52.1726 13.7522C52.2115 13.2229 52.3365 12.7434 52.5475 12.3139C52.7586 11.8843 53.0353 11.5232 53.3778 11.2306C53.7236 10.9319 54.1148 10.7203 54.5514 10.5958C55.0402 10.4565 55.4994 10.4205 55.9291 10.4879C56.3574 10.5505 56.745 10.7042 57.0919 10.9491C57.4421 11.1879 57.7452 11.5043 58.0012 11.8982C58.2558 12.2874 58.4569 12.7406 58.6043 13.2578L58.7525 13.7774L52.9229 15.4393L52.7159 14.7133L57.6984 13.2929L57.67 13.1932C57.5374 12.7641 57.3347 12.3858 57.0617 12.0583C56.7922 11.7247 56.4622 11.4852 56.0719 11.3399C55.6816 11.1947 55.2444 11.191 54.7604 11.329C54.3998 11.4318 54.0892 11.6024 53.8288 11.8408C53.5732 12.0779 53.3768 12.3699 53.2397 12.7169C53.1059 13.0577 53.0352 13.4396 53.0275 13.8625C53.0232 14.2794 53.088 14.7227 53.2219 15.1925L53.3092 15.4985C53.4309 15.9256 53.6063 16.3066 53.8352 16.6416C54.0674 16.9704 54.3398 17.2417 54.6521 17.4554C54.9692 17.6677 55.3114 17.8062 55.6787 17.8708C56.046 17.9354 56.4242 17.9122 56.8133 17.8013C57.2689 17.6714 57.6485 17.4734 57.9523 17.2072C58.2548 16.9363 58.4939 16.5782 58.6697 16.133L59.3213 16.3937C59.2255 16.6878 59.0817 16.9751 58.8897 17.2556C58.7025 17.5347 58.4532 17.7853 58.142 18.0075C57.8308 18.2296 57.445 18.4063 56.9847 18.5375Z" fill="#6A47DC"/>
<path d="M64.6023 16.1262C64.9741 16.0771 65.3123 15.9627 65.6171 15.783C65.926 15.5978 66.1676 15.3544 66.3417 15.0526C66.5201 14.7453 66.5974 14.3892 66.5738 13.9842L67.4102 13.8736C67.4524 14.3807 67.3578 14.8511 67.1265 15.2848C66.8994 15.713 66.5733 16.0697 66.1481 16.3549C65.7271 16.6345 65.2452 16.8102 64.7022 16.882C64.1494 16.9551 63.647 16.9195 63.1949 16.7752C62.7477 16.6303 62.3586 16.398 62.0277 16.0784C61.6961 15.7539 61.4252 15.3617 61.2151 14.9017C61.0092 14.4362 60.8694 13.9246 60.7957 13.3669L60.7549 13.0588C60.6812 12.5011 60.6836 11.9732 60.762 11.4751C60.8448 10.9714 61.0044 10.5222 61.2409 10.1276C61.4767 9.72811 61.7918 9.40027 62.1859 9.14408C62.5801 8.8879 63.0536 8.72326 63.6063 8.65018C64.1738 8.57515 64.6977 8.62284 65.1782 8.79325C65.6635 8.96302 66.0685 9.24046 66.3932 9.62557C66.7227 10.01 66.9379 10.4893 67.0387 11.0633L66.2022 11.1739C66.1215 10.7515 65.9604 10.3995 65.7191 10.1179C65.4778 9.83619 65.1823 9.63386 64.8326 9.51088C64.4828 9.38789 64.1074 9.35292 63.7063 9.40595C63.2562 9.46546 62.8839 9.60428 62.5892 9.82242C62.2939 10.0357 62.066 10.3072 61.9055 10.637C61.7493 10.9613 61.6503 11.3228 61.6084 11.7215C61.5659 12.1154 61.5725 12.5226 61.6281 12.9433L61.6689 13.2515C61.7251 13.6771 61.8228 14.0773 61.962 14.4521C62.1054 14.8213 62.2946 15.1422 62.5297 15.4148C62.7698 15.6866 63.0604 15.8896 63.4016 16.0237C63.7471 16.1522 64.1473 16.1864 64.6023 16.1262Z" fill="#6A47DC"/>
<path d="M72.5885 8.1866L72.543 16.1949L71.6623 16.1899L71.7077 8.1816L72.5885 8.1866ZM75.5046 8.20316L75.5003 8.9581L68.8909 8.92058L68.8952 8.16564L75.5046 8.20316Z" fill="#6A47DC"/>
<path d="M78.9136 10.0107L77.541 19.4595L76.6621 19.3318L78.256 8.35952L79.0763 8.47869L78.9136 10.0107ZM84.078 13.1767L84.0557 13.3305C83.9699 13.9214 83.8228 14.4535 83.6144 14.9268C83.406 15.4001 83.1462 15.7987 82.8349 16.1224C82.5292 16.442 82.1742 16.6721 81.7698 16.8128C81.3654 16.9535 80.924 16.9891 80.4454 16.9196C79.9718 16.8508 79.56 16.7162 79.2102 16.5158C78.8604 16.3154 78.5707 16.0614 78.3411 15.7538C78.1172 15.4421 77.9509 15.0938 77.8422 14.7091C77.7391 14.3201 77.6874 13.9038 77.6871 13.4599L77.9818 11.431C78.1246 10.9631 78.3074 10.5459 78.5301 10.1794C78.7529 9.81286 79.0143 9.50679 79.3142 9.26116C79.619 9.01625 79.9631 8.84435 80.3464 8.74547C80.7298 8.64658 81.1534 8.63084 81.6173 8.69822C82.1007 8.76845 82.5166 8.92609 82.8649 9.17115C83.2188 9.41204 83.4993 9.72951 83.7063 10.1236C83.919 10.5135 84.055 10.967 84.1145 11.4842C84.1796 11.9973 84.1674 12.5614 84.078 13.1767ZM83.1768 13.2028L83.1991 13.049C83.2665 12.5851 83.2801 12.1483 83.2399 11.7386C83.2046 11.3296 83.1105 10.9644 82.9577 10.6431C82.8106 10.3175 82.6001 10.0501 82.3264 9.84083C82.0575 9.63225 81.7204 9.49852 81.3151 9.43964C80.8952 9.37864 80.526 9.39731 80.2076 9.49565C79.8947 9.58981 79.624 9.73746 79.3953 9.93859C79.1673 10.1348 78.9777 10.3591 78.8264 10.6113C78.6751 10.8636 78.5537 11.1152 78.4624 11.3662L78.123 13.7028C78.1619 14.0874 78.2608 14.4532 78.4198 14.8004C78.5795 15.1428 78.8164 15.434 79.1305 15.674C79.4503 15.91 79.8592 16.0641 80.3573 16.1365C80.7577 16.1946 81.1164 16.162 81.4335 16.0385C81.7506 15.915 82.026 15.7182 82.2598 15.448C82.4983 15.1785 82.6928 14.8527 82.843 14.4707C82.9981 14.0894 83.1094 13.6667 83.1768 13.2028Z" fill="#6A47DC"/>
<path d="M97.5501 13.2249L97.2792 13.9454L93.4827 12.518L90.9352 19.2935L90.1108 18.9836L92.9292 11.4875L97.5501 13.2249Z" fill="#6A47DC"/>
<path d="M97.1121 17.4534L97.2267 17.2378C97.5 16.7237 97.8266 16.2881 98.2063 15.9312C98.586 15.5742 98.9977 15.3097 99.4413 15.1375C99.8892 14.9677 100.353 14.8987 100.834 14.9305C101.316 14.958 101.795 15.098 102.27 15.3505C102.749 15.6052 103.136 15.925 103.428 16.3098C103.723 16.6902 103.926 17.1135 104.036 17.5798C104.145 18.0461 104.159 18.5365 104.075 19.0509C103.992 19.5654 103.813 20.0796 103.54 20.5938L103.425 20.8094C103.152 21.3236 102.826 21.7591 102.446 22.1161C102.068 22.4686 101.656 22.7299 101.208 22.8997C100.764 23.0718 100.301 23.1442 99.8183 23.1167C99.3379 23.0848 98.8603 22.9427 98.3853 22.6902C97.9061 22.4354 97.5189 22.1179 97.2237 21.7374C96.9309 21.3527 96.7296 20.9272 96.6199 20.4609C96.5101 19.9946 96.4958 19.5064 96.5769 18.9963C96.6604 18.4819 96.8388 17.9676 97.1121 17.4534ZM98.0045 17.6512L97.8898 17.8669C97.6837 18.2546 97.5403 18.6506 97.4595 19.0547C97.3811 19.4545 97.3703 19.8428 97.4272 20.2194C97.4863 20.5917 97.6235 20.9329 97.8387 21.2429C98.0539 21.5529 98.3554 21.8109 98.7432 22.0171C99.1266 22.2209 99.5048 22.3241 99.8778 22.3268C100.255 22.3318 100.615 22.2547 100.956 22.0955C101.3 21.9319 101.614 21.7046 101.897 21.4137C102.187 21.1207 102.435 20.7803 102.641 20.3925L102.756 20.1769C102.96 19.7935 103.101 19.4019 103.179 19.0021C103.262 18.6046 103.273 18.2164 103.211 17.8374C103.155 17.4607 103.02 17.1152 102.807 16.8009C102.594 16.4865 102.296 16.2274 101.912 16.0236C101.529 15.8198 101.147 15.7176 100.768 15.7169C100.392 15.7186 100.031 15.8001 99.6823 15.9614C99.3383 16.125 99.0225 16.3511 98.735 16.6397C98.4518 16.9306 98.2083 17.2678 98.0045 17.6512Z" fill="#6A47DC"/>
<path d="M105.856 26.4392C106.158 26.6625 106.48 26.8156 106.824 26.8986C107.175 26.9805 107.518 26.9736 107.853 26.878C108.195 26.7814 108.498 26.5793 108.763 26.2719L109.441 26.7744C109.118 27.168 108.723 27.4401 108.255 27.5908C107.794 27.7404 107.311 27.7697 106.808 27.6788C106.311 27.5868 105.842 27.3778 105.402 27.0516C104.954 26.7195 104.618 26.3444 104.394 25.9262C104.173 25.511 104.055 25.0735 104.04 24.6137C104.028 24.1499 104.106 23.6797 104.275 23.2031C104.451 22.7255 104.706 22.2607 105.041 21.8088L105.227 21.5591C105.562 21.1072 105.93 20.7296 106.333 20.4264C106.743 20.1221 107.17 19.9105 107.615 19.7916C108.062 19.6687 108.517 19.6523 108.978 19.7425C109.439 19.8327 109.894 20.0438 110.342 20.3759C110.802 20.7167 111.145 21.1155 111.371 21.5722C111.602 22.0317 111.7 22.5128 111.665 23.0153C111.634 23.5208 111.456 24.0147 111.129 24.4971L110.451 23.9947C110.687 23.6351 110.816 23.2702 110.839 22.9C110.861 22.5298 110.79 22.1789 110.624 21.8472C110.458 21.5156 110.213 21.2293 109.888 20.9883C109.523 20.718 109.159 20.5586 108.796 20.5103C108.435 20.4581 108.083 20.4946 107.738 20.6199C107.4 20.7441 107.077 20.9349 106.77 21.1922C106.465 21.4456 106.187 21.7427 105.934 22.0836L105.749 22.3333C105.493 22.6782 105.285 23.0337 105.124 23.3997C104.97 23.7647 104.883 24.1269 104.862 24.4862C104.846 24.8485 104.913 25.1965 105.065 25.5302C105.224 25.8629 105.488 26.1659 105.856 26.4392Z" fill="#6A47DC"/>
<path d="M122.545 32.2379L121.959 32.7371L118.92 29.1709L119.506 28.6717L122.545 32.2379ZM119.636 28.8238L113.54 34.0176L112.969 33.3472L119.064 28.1534L119.636 28.8238ZM123.015 32.79L116.919 37.9838L116.343 37.3078L122.439 32.114L123.015 32.79Z" fill="#6A47DC"/>
<path d="M121.193 37.1403L121.4 37.0105C121.893 36.7011 122.393 36.4864 122.901 36.3663C123.408 36.2461 123.897 36.222 124.367 36.294C124.84 36.3701 125.277 36.5417 125.677 36.8088C126.082 37.0733 126.427 37.4333 126.713 37.8889C127.001 38.3487 127.177 38.8184 127.239 39.2979C127.305 39.7748 127.269 40.2427 127.132 40.7017C126.995 41.1606 126.762 41.5922 126.433 41.9966C126.104 42.4009 125.693 42.7578 125.2 43.0672L124.993 43.197C124.5 43.5064 123.999 43.7212 123.492 43.8413C122.989 43.9588 122.501 43.9795 122.028 43.9034C121.558 43.8315 121.12 43.6633 120.716 43.3988C120.315 43.1316 119.972 42.7703 119.686 42.3147C119.398 41.8549 119.22 41.3865 119.154 40.9096C119.092 40.4301 119.13 39.9609 119.267 39.502C119.404 39.043 119.635 38.6127 119.96 38.211C120.289 37.8066 120.7 37.4498 121.193 37.1403ZM121.868 37.7567L121.661 37.8865C121.289 38.1198 120.967 38.3916 120.696 38.7017C120.429 39.0091 120.226 39.3403 120.087 39.6952C119.953 40.0474 119.902 40.4115 119.934 40.7875C119.966 41.1635 120.099 41.5375 120.332 41.9095C120.563 42.2774 120.839 42.5554 121.161 42.7437C121.486 42.9362 121.836 43.0485 122.211 43.0809C122.591 43.1106 122.976 43.0699 123.367 42.9589C123.764 42.8494 124.149 42.678 124.521 42.4446L124.728 42.3148C125.095 42.0841 125.413 41.815 125.68 41.5075C125.95 41.2042 126.153 40.873 126.289 40.514C126.428 40.1591 126.483 39.7924 126.455 39.4138C126.427 39.0351 126.298 38.6619 126.067 38.2941C125.836 37.9262 125.557 37.6474 125.228 37.4576C124.902 37.2719 124.547 37.1622 124.165 37.1283C123.785 37.0986 123.399 37.1372 123.006 37.244C122.615 37.355 122.236 37.5259 121.868 37.7567Z" fill="#6A47DC"/>
<circle cx="131.661" cy="57.3544" r="1" transform="rotate(-21.145 131.661 57.3544)" fill="#6A47DC"/>
</svg>
